<?xml version="1.0" encoding="UTF-8" standalone="no"?>
<svg xmlns="http://www.w3.org/2000/svg" xmlns:xlink="http://www.w3.org/1999/xlink" width="297.000mm" height="210.000mm" viewBox="0.000000 0.000000 297.000000 210.000000" stroke-linejoin="round" stroke-linecap="round" fill="none" fill-rule="evenodd"><desc>Composer Export</desc><script type="text/ecmascript"><![CDATA[
if(typeof(top) != "undefined")
{
	top.ShowPaper = ShowPaper;
}
function ShowHotSpot(evt,hotspotid)
{
	var svgDocument = evt.target.ownerDocument;
	var strId = "hotspot."+hotspotid;
	var hotspot = svgDocument.getElementById(strId);
	if(hotspot)
		hotspot.setAttribute("opacity",".5");
}
function HideHotSpot(evt,hotspotid)
{
	var svgDocument = evt.target.ownerDocument;
	var strId = "hotspot."+hotspotid;
	var hotspot = svgDocument.getElementById(strId);
	if(hotspot)
		hotspot.setAttribute("opacity","0");

	var toolTip = svgDocument.getElementById('ToolTip');
	if(toolTip)
		toolTip.setAttribute("visibility","hidden");
}
function ShowToolTip(evt,hotspotid,strTooltip)
{
	if(strTooltip=="")
	return;

	// change text
	var svgDocument = evt.target.ownerDocument;
	var tiptext = svgDocument.getElementById('ToolTipText');
	if( !tiptext )
	return;
	tiptext.firstChild.nodeValue = " " + strTooltip + "  " ;

	// show tooltip before, else some refresh issue

	var toolTip = svgDocument.getElementById('ToolTip');
	if(!toolTip)
	return;

	toolTip.setAttribute("visibility","visible");
	toolTip.setAttribute("opacity",".95");

	// move tooltip
	// get viewbox

	var root = svgDocument.documentElement;
	var vbox = (root.getAttribute("viewBox")).split(' ');
	var x0 = parseFloat(vbox[0]);
	var y0 = parseFloat(vbox[1]);
	var vboxW = parseFloat(vbox[2]);
	var vboxH = parseFloat(vbox[3]);

	// get default width of svg

	var strW = root.getAttribute("width");
	var svgW = parseFloat(strW);
	if(strW.indexOf('mm') != -1)
	svgW *= 3.779;

	var strH = root.getAttribute("height");
	var svgH = parseFloat(strH);
	if(strH.indexOf('mm') != -1)
	svgH *= 3.779;  	// 96 dpi  -> 96/25.4 = 3.779

	// update the viewbox / width / height if svg is embedded in html with zoom fit all
	var realx0 = x0;
	var realy0 = y0;
	var realvboxW = vboxW;
	var realvboxH = vboxH;
	var realsvgW = svgW;
	var realsvgH = svgH;

	if ((typeof(top) == "undefined") || (typeof(top.svgctl1) != "undefined")) // embedded in html
	{
		// get window size in pxl

		svgW = window.innerWidth;
		svgH = window.innerHeight;

		// calculate real viewbox

		realsvgW = svgW;
		realsvgH = svgH;
		if((svgW / svgH) > (vboxW / vboxH))
		{
			realvboxW = (vboxH * svgW) / svgH;
			realvboxH = vboxH;
			realx0 = x0 - (realvboxW - vboxW)/2 ;
		}
		else
		{
			realvboxH = (vboxW * svgH) / svgW;
			realvboxW = vboxW;
			realy0 = y0 - (realvboxH - vboxH)/2 ;
		}
	}

	// get user zoom/pan

	var newScale = root.currentScale;
	var translation = root.currentTranslate;

	// transform pxl to user unit

	var xPos = (((evt.clientX+10- translation.x)/newScale) * realvboxW)/realsvgW  + realx0 ;
	var yPos = (((evt.clientY+5- translation.y)/newScale) * realvboxH)/ realsvgH  + realy0 ;
	var scaleForWidth = ( (1 / newScale) * realvboxH) / realsvgH;

	// move tooltip

	toolTip.setAttribute("transform", "translate(" + xPos + "," + yPos + ")" );

	// resize tooltip

	var fontsize = 12;
	tiptext.setAttribute("font-size",fontsize*scaleForWidth);
	tiptext.setAttribute("y", fontsize*scaleForWidth);
	var tipBG = svgDocument.getElementById('ToolTipBG');
	var outline = tiptext.getBBox();
	if(tipBG)
	{
		tipBG.setAttribute("stroke-width", 1*scaleForWidth);
		tipBG.setAttribute("width", Number(outline.width) );
		tipBG.setAttribute("height", Number(outline.height) + fontsize*.5*scaleForWidth );
	}
	var ToolTipShadow = svgDocument.getElementById('ToolTipShadow');
	if(ToolTipShadow)
	{
		ToolTipShadow.setAttribute("width", Number(outline.width) );
		ToolTipShadow.setAttribute("height", Number(outline.height) + fontsize*.5*scaleForWidth );
		ToolTipShadow.setAttribute("x", 3*scaleForWidth);
		ToolTipShadow.setAttribute("y", 3*scaleForWidth);
	}
}
function ShowPaper()
{
  var svgDocument = getDocument();
  var paper = svgDocument.getElementById("paperID");
  if(paper)
  {
    paper.setAttribute("transform","scale(1)");
    paper.setAttribute("opacity","1");
    paper.setAttribute("visibility","visible");
  }
  var svg = svgDocument.getRootElement();
  if(svg)
  {
    svg.setAttribute("width","307.000mm");
    svg.setAttribute("height","220.000mm");
    svg.setAttribute("viewBox","-5.000000 -5.000000 307.000000 220.000000");
  }
}
]]></script><defs/><g><path style="fill:#ffffff" d="M60.72,186.95L41.71,209.10L41.08,210.07L0.08,210.05L0.05,193.59L2.75,193.65L9.19,193.68L10.89,193.44L11.23,193.20L11.25,192.58L9.86,190.88L9.42,190.56L9.02,190.07L7.92,189.53L6.69,189.45L5.81,189.22L3.87,189.11L2.75,189.11L1.65,189.23L0.82,189.23L0.05,189.17L0.03,188.34L0.26,188.28L3.41,188.17L4.33,187.98L4.34,187.05L3.32,185.64z"/><path style="fill:#fffe02" d="M140.39,107.06L140.03,107.18L135.56,112.43L135.06,112.35L131.73,109.56L131.60,109.55L130.80,110.66L133.98,113.40L134.24,114.07L131.20,117.68L129.11,120.24L120.85,129.95L119.14,132.05L117.96,133.22L117.29,133.84L106.09,146.91L104.41,149.36L104.30,152.21L104.45,154.71L104.58,156.62L104.72,158.02L104.82,158.88L104.89,159.32L105.35,159.19L112.24,155.76L115.55,155.75L117.12,155.88L117.99,156.40L118.86,158.89L118.89,159.14L119.08,159.94L119.19,161.32L119.35,162.43L119.47,163.52L119.62,164.92L119.75,167.66L119.90,170.43L119.90,177.86L119.61,183.65L119.35,185.05L114.90,184.85L114.61,185.47L114.35,188.53L113.52,193.77L110.20,207.55L109.83,209.77L114.45,209.93L114.46,210.08L92.38,210.07L92.34,209.88L92.85,208.67L93.39,205.08L93.67,200.94L93.67,195.61L93.12,190.36L92.61,189.23L91.87,188.64L91.47,188.14L90.39,187.53L90.38,166.29L90.39,164.36L90.36,160.29L90.22,164.34L89.96,164.91L89.09,165.95L88.87,166.08L84.46,171.33L83.45,172.80L83.27,173.94L83.12,174.09L83.06,179.52L83.07,180.90L83.07,182.29L82.93,193.79L81.13,195.58L79.08,199.65L78.93,200.48L78.53,204.61L78.53,206.28L78.66,208.19L78.80,209.87L78.86,210.09L71.71,210.07L71.64,209.87L71.60,206.92L71.06,204.15L69.96,202.77L69.81,202.70L69.41,202.21L67.93,201.92L67.20,202.63L66.94,201.60L66.91,199.73L66.77,199.65L66.63,199.02L66.68,198.01L66.63,196.16L66.52,196.06L66.40,194.15L66.36,192.30L66.25,192.20L66.11,190.55L66.09,188.69L65.71,190.56L50.12,208.69L49.10,210.09L41.08,210.07L41.71,209.10L60.72,186.95L61.87,185.68L73.72,172.17L77.31,168.04L80.71,164.54L84.33,160.22L110.31,131.20L110.83,131.24L111.86,131.95L112.58,131.92L113.54,130.89L113.64,130.52L115.36,128.60L126.36,115.80L127.05,114.78L125.94,113.97L125.80,113.59L127.59,111.87L143.77,93.58L145.30,92.13z"/><path style="fill:#ffffff" d="M159.65,124.99L170.71,124.92L170.76,126.58L168.28,193.87L168.16,194.97L150.20,194.51L138.80,194.51L135.49,195.05L132.73,196.16L131.47,197.10L128.74,203.47L128.58,203.61L132.65,203.73L167.12,204.41L167.86,204.61L167.67,210.08L114.46,210.08L114.45,209.93L116.98,199.93L117.14,199.10L118.07,195.23L119.60,195.32L119.86,201.24L120.04,195.33L120.78,195.17L122.71,195.31L123.43,197.28L123.96,198.14L124.64,198.23L128.61,198.11L132.53,195.68L133.83,191.69L134.48,191.49L134.03,191.30L134.07,190.87L134.49,190.99L134.58,190.36L136.22,190.34L138.06,190.65L143.41,190.50L144.59,190.36L145.24,189.65L145.39,188.91L146.45,188.70L147.48,188.02L147.99,186.88L148.42,184.48L148.91,184.00L149.66,183.03L149.96,181.18L150.08,179.53L150.19,174.10L150.08,174.00L149.96,172.90L149.93,172.17L149.81,172.07L149.41,171.29L148.96,170.98L148.69,170.69L148.58,169.86L148.54,169.14L148.42,169.04L147.87,167.11L147.48,166.63L146.99,166.49L146.23,166.27L145.89,165.45L145.80,164.72L145.60,164.63L145.52,164.44L142.85,164.31L153.25,132.83L153.57,132.60L156.24,134.41L157.58,134.41L159.30,132.82L161.50,129.24L161.95,127.69L162.08,126.94L161.94,126.85L161.65,126.56z"/><path style="fill:#1a1a1a" d="M185.32,0.21L185.05,0.34L181.55,0.37L176.39,15.62L175.21,19.95L174.92,23.64L178.43,23.72L178.36,25.36L178.31,32.18L178.61,31.14L186.87,5.50L187.29,4.67L187.45,4.16L187.52,3.92L187.75,3.32L188.30,0.55L188.28,0.26L188.36,0.05L196.89,0.05L196.89,0.20L196.63,0.33L192.94,0.45L128.98,195.44L124.64,198.23L123.96,198.14L123.43,197.28L122.71,195.31L123.91,195.06L125.11,193.77L125.93,191.01L126.76,184.67L127.03,180.53L127.03,169.14L126.21,161.96L125.67,160.01L125.24,159.68L124.58,159.20L123.83,159.06L123.54,158.79L125.75,151.45L128.67,142.91L128.59,142.57L128.96,142.22L129.35,140.70L134.49,125.01L134.35,124.71L134.73,124.54L140.39,107.06L145.30,92.13L145.92,90.72L146.10,90.72L146.49,91.28L147.02,92.14L147.41,94.44L147.77,94.86L148.24,95.27L149.42,95.43L150.01,96.03L152.78,96.18L157.66,96.16L158.52,88.81L158.23,80.59L157.11,79.79L156.38,79.62L149.81,79.51L149.52,79.69L175.65,0.04L185.31,0.05z"/><path style="fill:#171717" d="M196.67,0.57L193.95,9.11L193.66,9.96L176.64,61.40L176.75,61.98L176.41,62.24L173.81,70.36L173.53,71.18L169.55,83.01L169.37,83.54L169.25,84.38L168.97,85.19L167.15,90.70L165.26,96.27L165.21,96.50L156.63,122.45L156.44,122.54L156.42,123.26L153.67,131.58L153.47,131.99L153.57,132.60L153.25,132.83L142.85,164.31L142.59,164.89L135.71,186.40L134.35,190.27L134.07,190.87L134.03,191.30L133.83,191.69L132.53,195.68L128.61,198.11L124.64,198.23L128.98,195.44L192.94,0.45L196.63,0.33z"/><path style="fill:#c6c1bc" d="M2.49,185.09L2.39,186.61L1.84,187.98L0.26,188.28L0.03,188.34L0.06,184.21L0.81,184.16z"/><path style="fill:#c6c1bc" d="M2.46,189.54L6.54,189.61L6.69,189.45L7.92,189.53L9.02,190.07L9.42,190.56L9.30,192.13L8.45,193.49L2.75,193.65L0.05,193.59L0.07,189.46L0.82,189.23L1.65,189.23z"/><path style="fill:#c6c1bc" d="M15.09,195.06L16.32,195.81L16.17,196.80L15.53,198.64L14.05,199.04L7.44,198.89L4.86,198.65L3.77,198.37L3.47,198.08L3.49,197.39L5.05,195.61L6.70,194.78L7.72,194.61L9.10,194.92L12.69,194.62z"/><path style="fill:#e5e401" d="M119.35,185.05L119.49,185.60L118.92,190.85L118.22,194.69L118.07,195.23L117.14,199.10L116.98,199.93L114.45,209.93L109.83,209.77L110.20,207.55L113.52,193.77L114.35,188.53L114.61,185.47L114.90,184.85z"/><path style="fill:#00001c" d="M178.61,31.14L178.31,32.18L178.36,25.36z"/><path style="fill:#00001c" d="M169.83,83.50L169.37,83.54L169.55,83.01z"/><path style="fill:#00001c" d="M83.33,179.80L83.32,180.34L83.20,180.91L83.07,180.90L83.06,179.52L83.20,179.52z"/><path style="fill:#000020" d="M7.72,194.61L12.69,194.62L9.10,194.92z"/><path style="fill:#000020" d="M120.78,195.17L120.04,195.33L119.86,201.24L119.60,195.32L118.07,195.23L118.22,194.69z"/><path style="fill:#171717" d="M185.05,0.56L181.28,12.24L178.91,19.84L178.63,22.05L178.43,23.72L174.92,23.64L175.21,19.95L176.39,15.62L181.55,0.37L185.05,0.34z"/><path style="fill:#171717" d="M147.80,105.61L148.14,107.83L148.31,108.65L148.42,110.57L148.18,112.81L138.64,142.55L138.37,144.77L138.16,146.44L134.66,146.08L134.94,142.67L136.13,138.33L146.87,105.78L147.10,105.41L147.69,105.42z"/><path style="fill:#c5c5d1" d="M145.89,165.45L146.06,167.48L146.87,172.70L146.34,185.50L146.06,186.32L135.71,186.40L142.59,164.89L142.91,164.72L145.60,164.63z"/><path style="fill:#c5c5d1" d="M108.29,167.20L108.83,172.17L108.83,178.33L108.57,180.88L108.21,180.99L107.44,184.95L103.57,184.33L102.02,183.18L100.55,181.02L100.31,180.09L100.28,179.06L100.16,178.97L100.16,176.77L101.12,176.68L101.14,174.30L101.10,173.01L100.94,172.94L100.58,172.58L103.22,168.58L105.62,166.78L106.52,166.08L107.77,166.07z"/><path style="fill:#00e3e5" d="M173.37,90.37L172.74,91.94L172.12,92.46L170.98,92.60L169.08,92.89L168.93,92.47L168.81,93.19L168.42,96.16L168.23,96.31L165.26,96.27L167.15,90.70L169.24,90.65L169.40,89.15L173.42,89.09z"/><path style="fill:#1a1a1a" d="M47.97,159.46L84.33,160.22L80.71,164.54L77.31,168.04L73.72,172.17L61.87,185.68L60.72,186.95L3.32,185.64L2.49,185.09L0.81,184.16L0.07,183.92L0.05,158.57L6.61,158.63z"/><path style="fill:#1a1a1a" d="M90.19,166.28L90.09,176.40L89.93,176.73L88.58,177.33L83.53,174.23L83.27,173.94L83.45,172.80L84.46,171.33L88.87,166.08L89.09,165.95z"/><path style="fill:#e5e5e5" d="M196.67,0.57L196.63,0.33L196.89,0.20L296.64,0.36L296.64,127.32L284.22,127.22L192.75,125.47L192.70,123.81L193.37,105.08L193.50,102.39L193.39,102.29L192.96,101.55L191.10,100.92L191.04,98.72L191.32,91.27L191.32,84.67L191.28,83.10L191.18,83.00L191.04,82.17L191.02,81.45L190.89,81.35L190.76,80.58L187.44,78.40L184.23,77.70L182.55,77.70L180.07,77.98L177.13,79.23L174.62,81.41L173.12,84.10L169.83,83.50L169.55,83.01L173.53,71.18L176.41,73.15L177.68,73.16L178.89,72.17L181.56,68.22L182.07,66.48L182.21,65.43L182.06,65.34L181.75,65.13L176.75,61.98L176.64,61.40L193.66,9.96L196.54,11.93L197.81,11.94L200.03,9.48L202.05,5.99L202.20,5.25L202.34,4.51L202.22,4.38L201.86,3.89z"/><path style="fill:#e5e5e5" d="M188.30,0.55L187.75,3.32L187.42,3.51L187.52,3.92L187.45,4.16L187.01,4.40L186.85,4.55L186.87,5.50L178.61,31.14L178.36,25.36L178.43,23.72L178.60,23.62L178.63,22.05L178.91,19.84L181.28,12.24L185.05,0.56L185.05,0.34L185.32,0.21L188.28,0.26z"/><path style="fill:#e5e5e5" d="M158.00,122.20L157.16,122.39L156.63,122.45L165.21,96.50L168.23,96.31L168.42,96.16L168.81,93.19L169.08,92.89L170.98,92.60L172.12,92.46L172.01,93.19L170.91,122.98L170.71,124.92L159.65,124.99L157.96,123.85L158.21,123.47L158.20,122.26z"/><path style="fill:#e5e5e5" d="M148.42,118.86L148.03,123.27L147.58,125.46L147.01,126.91L146.56,127.29L146.66,127.98L141.72,143.15L141.55,143.19L139.08,146.52L138.21,147.53L138.16,146.44L138.34,146.33L138.37,144.77L138.64,142.55L148.18,112.81L148.26,112.88z"/><path style="fill:#e5e5e5" d="M168.16,194.97L168.00,201.32L167.89,204.33L167.12,204.41L132.65,203.73L128.74,203.47L131.47,197.10L132.73,196.16L135.49,195.05L138.80,194.51L150.20,194.51z"/><path style="fill:#000000" d="M187.44,78.40L190.76,80.58L190.89,81.35L191.04,82.17L191.18,83.00L191.32,84.67L191.32,91.27L191.04,98.72L190.90,100.92L191.01,102.52L191.10,100.92L192.96,101.55L193.39,102.29L193.37,105.08L192.70,123.81L192.55,125.48L192.55,127.41L189.51,209.32L189.44,210.08L167.67,210.08L167.86,204.61L167.89,204.33L168.00,201.32L168.16,194.97L168.28,193.87L170.76,126.58L170.91,124.92L170.91,122.98L172.01,93.19L172.12,92.46L172.74,91.94L173.37,90.37L173.42,89.09L173.67,88.71L173.64,86.13L173.39,84.47L173.12,84.10L174.62,81.41L177.13,79.23L180.07,77.98L182.55,77.70L184.23,77.70z"/><path style="fill:#ffffff" d="M196.89,0.20L196.89,0.05L296.92,0.08L296.95,190.00L291.28,190.10L296.95,190.28L296.92,210.05L189.44,210.08L189.51,209.32L192.55,127.41L192.75,125.47L284.22,127.22L296.64,127.32L296.64,0.36z"/><path style="fill:#ffffff" d="M149.52,79.69L149.39,79.97L148.64,80.19L148.13,80.32L147.46,81.27L147.21,82.74L146.98,83.50L146.51,83.93L146.09,85.47L145.94,88.79L145.92,90.72L145.30,92.13L143.77,93.58L127.59,111.87L125.80,113.59L125.37,113.50L125.37,114.24L125.97,114.77L126.36,115.80L115.36,128.60L113.64,130.52L112.72,130.54L111.89,129.69L111.34,130.12L110.51,130.43L110.31,131.20L84.33,160.22L47.97,159.46L6.61,158.63L0.05,158.57L0.08,0.08L175.65,0.04z"/><path style="fill:#ffffff" d="M90.39,187.53L91.47,188.14L91.87,188.64L92.29,190.93L92.29,198.46L91.38,203.34L90.66,208.68L90.35,209.20L89.43,209.42L88.71,209.43L86.98,208.91L86.24,208.01L85.95,207.20L85.66,207.50L85.29,209.77L92.34,209.88L92.38,210.07L78.86,210.09L78.80,209.87L78.77,208.30L78.66,208.19L78.53,206.28L78.53,204.61L78.93,200.48L79.08,199.65L81.13,195.58L82.93,193.79L83.07,182.29L83.20,180.91L83.32,180.34L84.11,179.86L85.01,179.32L85.58,178.79L88.58,177.33L89.93,176.73L90.06,176.85z"/><path style="fill:#ffffff" d="M66.25,192.20L66.40,194.15L66.52,196.06L66.68,198.01L66.63,199.02L66.77,199.65L66.94,201.60L67.20,202.63L67.93,201.92L69.41,202.21L69.81,202.70L70.24,204.15L70.68,209.78L71.64,209.87L71.71,210.07L49.10,210.09L50.12,208.69L65.71,190.56L66.11,190.55z"/><path style="fill:#00fdff" d="M156.38,79.62L157.11,79.79L158.23,80.59L158.52,88.81L151.22,88.90L150.75,90.91L150.26,95.91L150.01,96.03L149.42,95.43L149.93,94.22L150.20,92.84L150.18,90.78L149.87,90.78L148.55,93.95L147.77,94.86L147.41,94.44L147.02,92.14L147.73,92.29L147.77,91.94L146.49,91.28L146.10,90.72L146.05,88.89L145.94,88.79L146.09,85.47L146.51,83.93L146.98,83.50L147.27,83.03L147.21,82.74L147.46,81.27L148.13,80.32L148.64,80.19L149.36,80.17L149.39,79.97L149.52,79.69L149.81,79.51z"/><path style="fill:#00fdff" d="M173.12,84.10L173.39,84.47L173.64,86.13L173.67,88.71L173.42,89.09L169.40,89.15L169.24,90.65L167.15,90.70L168.97,85.19L169.23,88.45L169.25,84.38L169.37,83.54L169.83,83.50z"/><path style="fill:#b2adaa" d="M187.29,4.67L186.87,5.50L186.85,4.55L187.01,4.40z"/><path style="fill:#b2adaa" d="M197.09,10.91L201.86,3.89L202.22,4.38L202.20,5.25L202.05,5.99L200.03,9.48L197.81,11.94L196.54,11.93L193.66,9.96L193.95,9.11z"/><path style="fill:#b2adaa" d="M176.43,72.07L177.11,72.08L181.24,65.97L181.75,65.13L182.06,65.34L182.07,66.48L181.56,68.22L178.89,72.17L177.68,73.16L176.41,73.15L173.53,71.18L173.81,70.36L174.34,70.73z"/><path style="fill:#b2adaa" d="M146.66,127.98L146.56,127.29L147.01,126.91z"/><path style="fill:#b2adaa" d="M156.30,133.29L156.98,133.30L161.65,126.56L161.94,126.85L161.95,127.69L161.50,129.24L159.30,132.82L157.58,134.41L156.24,134.41L153.57,132.60L153.47,131.99L153.67,131.58L153.75,131.67z"/><path style="fill:#b2adaa" d="M161.25,143.20L162.06,144.32L163.99,149.00L163.99,151.58L163.71,152.41L162.78,153.68L160.61,154.81L157.90,154.81L156.27,153.95L156.10,153.64L157.35,153.80L157.93,153.14L158.73,153.44L160.05,153.44L161.68,152.58L162.35,151.59L162.32,149.11L163.20,148.56L162.61,147.07L161.78,145.98L160.49,142.91z"/><path style="fill:#b2adaa" d="M3.32,185.64L4.34,187.05L4.33,187.98L3.41,188.17L0.26,188.28L1.84,187.98L2.39,186.61L2.49,185.09z"/><path style="fill:#b2adaa" d="M3.02,189.39L2.46,189.54L1.65,189.23L2.75,189.11L3.02,189.24z"/><path style="fill:#b2adaa" d="M9.86,190.88L11.25,192.58L11.23,193.20L10.89,193.44L9.19,193.68L2.75,193.65L8.45,193.49L9.30,192.13L9.42,190.56z"/><path style="fill:#b2adaa" d="M17.84,197.52L17.83,198.73L17.21,198.94L14.05,199.04L15.53,198.64L16.17,196.80L16.32,195.81L16.48,195.86z"/><path style="fill:#b1b1bc" d="M145.89,165.45L145.60,164.63L145.80,164.72z"/><path style="fill:#b1b1bc" d="M146.23,166.27L146.23,166.55L146.62,167.75L147.16,172.17L147.08,181.67L147.62,181.58L148.27,177.22L148.27,170.24L147.87,167.11L148.42,169.04L148.58,169.86L148.69,170.69L148.69,171.80L148.83,172.84L148.85,171.80L148.96,170.98L149.41,171.29L149.81,172.07L149.96,172.90L150.08,174.00L150.08,179.53L149.96,181.18L149.66,183.03L148.91,184.00L148.52,183.20L148.42,184.48L147.99,186.88L147.48,188.02L146.45,188.70L145.41,188.71L145.39,188.91L145.24,189.65L144.59,190.36L143.41,190.50L136.22,190.34L134.58,190.36L134.35,190.27L135.71,186.40L146.06,186.32L146.34,185.50L146.87,172.70L146.06,167.48L145.89,165.45z"/><path style="fill:#b1b1bc" d="M100.94,172.94L101.14,174.30L101.12,176.68L100.16,176.77L100.16,175.67L100.45,172.72L100.58,172.58z"/><path style="fill:#b1b1bc" d="M103.57,184.33L107.44,184.95L108.21,180.99L108.57,180.88L108.56,182.46L107.74,186.89L107.37,187.34L106.10,187.33L105.61,186.91L105.07,186.47L102.79,184.56L102.02,183.18z"/><path style="fill:#c6c1bc" d="M201.86,3.89L197.09,10.91L193.95,9.11L196.67,0.57z"/><path style="fill:#c6c1bc" d="M181.75,65.13L181.24,65.97L177.11,72.08L176.43,72.07L174.34,70.73L173.81,70.36L176.41,62.24L176.75,61.98z"/><path style="fill:#c6c1bc" d="M157.96,123.85L159.65,124.99L161.65,126.56L156.98,133.30L156.30,133.29L153.75,131.67L153.67,131.58L156.42,123.26L156.64,123.20z"/><path style="fill:#c6c1bc" d="M160.49,142.91L161.78,145.98L162.61,147.07L163.20,148.56L162.32,149.11L162.35,151.59L161.68,152.58L160.05,153.44L158.73,153.44L157.93,153.14L157.35,153.80L156.10,153.64L155.20,152.56L153.55,149.17L153.31,148.69L152.95,147.18L153.22,145.50L154.22,144.02L155.71,142.75L156.44,142.37L159.59,142.38z"/><path style="fill:#c6c1bc" d="M3.02,189.39L3.02,189.24L3.87,189.11L5.81,189.22z"/><path style="fill:#a0a0a0" d="M125.67,160.01L126.21,161.96L127.03,169.14L127.03,180.53L126.76,184.67L125.93,191.01L125.11,193.77L123.91,195.06L122.71,195.31L120.78,195.17L118.22,194.69L118.92,190.85L119.49,185.60L119.73,183.92L126.22,183.85L126.48,181.36L126.48,168.31L125.93,162.80L125.24,159.68z"/><path style="fill:#a0a0a0" d="M113.53,161.14L114.35,166.93L114.35,182.19L113.80,187.98L112.99,192.41L111.63,194.69L110.87,194.92L107.17,194.78L106.79,194.15L107.64,193.68L108.02,192.84L108.56,193.21L109.12,191.57L110.11,183.74L113.52,183.56L113.80,182.74L114.07,172.17L113.52,163.62L112.85,159.94L112.99,160.01z"/><path style="fill:#e5e401" d="M132.64,107.24L132.29,107.76L132.29,107.16L132.59,107.09z"/><path style="fill:#e5e401" d="M135.06,112.35L135.56,112.43L140.03,107.18L140.39,107.06L134.73,124.54L134.35,124.71L129.11,120.24L131.20,117.68L134.24,114.07L133.98,113.40L130.80,110.66L131.60,109.55L131.73,109.56z"/><path style="fill:#e5e401" d="M118.02,133.43L128.59,142.57L128.67,142.91L125.75,151.45L125.11,151.56L120.79,158.79L118.86,158.89L117.99,156.40L117.12,155.88L115.55,155.75L112.24,155.76L105.35,159.19L104.82,158.88L104.72,158.02L104.69,156.73L104.58,156.62L104.45,154.71L104.41,152.32L104.30,152.21L104.41,149.36L106.09,146.91L117.29,133.84L117.96,133.22z"/><path style="fill:#e5e401" d="M107.54,135.91L106.62,136.98L106.62,136.45L107.49,135.78z"/><path style="fill:#e5e401" d="M105.84,138.03L104.24,139.54L104.57,138.76L105.84,137.71z"/><path style="fill:#e5e401" d="M89.09,165.95L89.96,164.91L90.19,166.28z"/><path style="fill:#e5e401" d="M76.90,170.70L76.80,170.06L101.85,141.84L104.24,139.54L104.16,140.01L77.67,171.14z"/><path style="fill:#e5e401" d="M73.07,173.98L72.72,174.50L72.72,173.90L73.02,173.83z"/><path style="fill:#e5e401" d="M83.32,180.34L83.33,179.80L84.11,179.86z"/><path style="fill:#b2b2b2" d="M112.18,158.84L112.85,159.94L113.52,163.62L114.07,172.17L113.80,182.74L113.52,183.56L110.11,183.74L109.12,191.57L108.56,193.21L108.02,192.84L107.64,193.68L106.79,194.15L106.06,193.15L105.56,190.56L105.52,189.54L105.40,189.44L105.27,188.08L105.61,186.91L106.10,187.33L107.37,187.34L107.74,186.89L108.56,182.46L108.57,180.88L108.83,178.33L108.83,172.17L108.29,167.20L107.77,166.07L106.52,166.08L105.62,166.78L105.68,165.75L106.00,163.35L106.81,160.31L107.73,158.75L111.42,158.61z"/><path style="fill:#b2b2b2" d="M123.83,159.06L124.58,159.20L125.24,159.68L125.93,162.80L126.48,168.31L126.48,181.36L126.22,183.85L119.73,183.92L119.61,183.65L119.90,177.86L119.90,170.43L119.86,167.76L119.75,167.66L119.62,164.92L119.58,163.62L119.47,163.52L119.35,162.43L119.31,161.41L119.19,161.32L119.08,159.94L119.03,159.21L118.89,159.14L118.86,158.89L120.79,158.79L121.60,158.91z"/><path style="fill:#00001c" d="M202.20,5.25L202.22,4.38L202.34,4.51z"/><path style="fill:#00001c" d="M178.60,23.62L178.43,23.72L178.63,22.05z"/><path style="fill:#00001c" d="M182.07,66.48L182.06,65.34L182.21,65.43z"/><path style="fill:#00001c" d="M191.04,82.17L190.89,81.35L191.02,81.45z"/><path style="fill:#00001c" d="M191.32,84.67L191.18,83.00L191.28,83.10z"/><path style="fill:#00001c" d="M169.08,92.89L168.81,93.19L168.93,92.47z"/><path style="fill:#00001c" d="M165.21,96.50L165.26,96.27L168.23,96.31z"/><path style="fill:#00001c" d="M191.10,100.92L190.90,100.92L191.04,98.72z"/><path style="fill:#00001c" d="M193.37,105.08L193.39,102.29L193.50,102.39z"/><path style="fill:#00001c" d="M148.31,108.65L148.14,107.83L148.27,107.93z"/><path style="fill:#00001c" d="M148.18,112.81L148.42,110.57L148.42,118.86L148.26,112.88z"/><path style="fill:#00001c" d="M170.91,124.92L170.71,124.92L170.91,122.98z"/><path style="fill:#00001c" d="M192.75,125.47L192.55,125.48L192.70,123.81z"/><path style="fill:#00001c" d="M138.34,146.33L138.16,146.44L138.37,144.77z"/><path style="fill:#00001c" d="M138.22,149.47L138.15,150.02L137.95,150.03L138.09,148.63z"/><path style="fill:#00001c" d="M104.45,154.71L104.30,152.21L104.41,152.32z"/><path style="fill:#00001c" d="M104.72,158.02L104.58,156.62L104.69,156.73z"/><path style="fill:#00001c" d="M105.35,159.19L104.89,159.32L104.82,158.88z"/><path style="fill:#00001c" d="M89.96,164.91L90.22,164.34L90.39,164.36L90.38,166.29L90.19,166.28z"/><path style="fill:#00001c" d="M148.96,170.98L148.85,171.80L148.69,171.80L148.69,170.69z"/><path style="fill:#00001c" d="M101.14,174.30L100.94,172.94L101.10,173.01z"/><path style="fill:#00001c" d="M148.82,181.66L148.69,180.33L148.86,180.33z"/><path style="fill:#00001c" d="M148.91,184.00L148.42,184.48L148.52,183.20z"/><path style="fill:#00001c" d="M133.83,191.69L134.03,191.30L134.48,191.49z"/><path style="fill:#000020" d="M187.52,3.92L187.42,3.51L187.75,3.32z"/><path style="fill:#000020" d="M187.01,4.40L187.45,4.16L187.29,4.67z"/><path style="fill:#000020" d="M149.36,80.17L148.64,80.19L149.39,79.97z"/><path style="fill:#000020" d="M147.27,83.03L146.98,83.50L147.21,82.74z"/><path style="fill:#000020" d="M146.10,90.72L145.92,90.72L145.94,88.79L146.05,88.89z"/><path style="fill:#000020" d="M152.78,96.18L150.01,96.03L150.26,95.91L152.68,96.07z"/><path style="fill:#000020" d="M191.01,102.52L190.90,100.92L191.10,100.92z"/><path style="fill:#000020" d="M157.16,122.39L158.00,122.20L157.84,122.52L157.35,122.54z"/><path style="fill:#000020" d="M156.64,123.20L156.42,123.26L156.44,122.54L156.63,122.45z"/><path style="fill:#000020" d="M170.76,126.58L170.71,124.92L170.91,124.92z"/><path style="fill:#000020" d="M192.55,127.41L192.55,125.48L192.75,125.47z"/><path style="fill:#000020" d="M161.95,127.69L161.94,126.85L162.08,126.94z"/><path style="fill:#000020" d="M110.83,131.24L110.31,131.20L110.51,130.43z"/><path style="fill:#000020" d="M138.37,153.61L138.05,154.89L137.95,150.03L138.15,150.02z"/><path style="fill:#000020" d="M112.18,158.84L111.42,158.61L112.13,158.67z"/><path style="fill:#000020" d="M123.83,159.06L121.60,158.91L123.54,158.79z"/><path style="fill:#000020" d="M119.08,159.94L118.89,159.14L119.03,159.21z"/><path style="fill:#000020" d="M119.35,162.43L119.19,161.32L119.31,161.41z"/><path style="fill:#000020" d="M90.39,164.36L90.22,164.34L90.36,160.29z"/><path style="fill:#000020" d="M145.60,164.63L142.91,164.72L142.59,164.89L142.85,164.31L145.52,164.44z"/><path style="fill:#000020" d="M119.62,164.92L119.47,163.52L119.58,163.62z"/><path style="fill:#000020" d="M146.99,166.49L146.23,166.55L146.23,166.27z"/><path style="fill:#000020" d="M148.58,169.86L148.42,169.04L148.54,169.14z"/><path style="fill:#000020" d="M119.90,170.43L119.75,167.66L119.86,167.76z"/><path style="fill:#000020" d="M149.96,172.90L149.81,172.07L149.93,172.17z"/><path style="fill:#000020" d="M148.83,172.84L148.69,171.80L148.85,171.80z"/><path style="fill:#000020" d="M89.93,176.73L90.09,176.40L90.19,166.28L90.38,166.29L90.39,187.53L90.06,176.85z"/><path style="fill:#000020" d="M150.08,179.53L150.08,174.00L150.19,174.10z"/><path style="fill:#000020" d="M83.53,174.23L83.20,179.52L83.06,179.52L83.12,174.09L83.27,173.94z"/><path style="fill:#000020" d="M100.31,180.09L100.16,178.97L100.28,179.06z"/><path style="fill:#000020" d="M148.86,180.33L148.69,180.33L148.83,179.59z"/><path style="fill:#000020" d="M83.07,182.29L83.07,180.90L83.20,180.91z"/><path style="fill:#000020" d="M0.81,184.16L0.06,184.21L0.07,183.92z"/><path style="fill:#000020" d="M119.73,183.92L119.49,185.60L119.35,185.05L119.61,183.65z"/><path style="fill:#000020" d="M105.61,186.91L105.27,188.08L105.07,186.47z"/><path style="fill:#000020" d="M145.39,188.91L145.41,188.71L146.45,188.70z"/><path style="fill:#000020" d="M3.87,189.11L3.02,189.24L2.75,189.11z"/><path style="fill:#000020" d="M0.07,189.46L0.05,189.17L0.82,189.23z"/><path style="fill:#000020" d="M6.69,189.45L6.54,189.61L2.46,189.54L3.02,189.39L5.81,189.22z"/><path style="fill:#000020" d="M296.95,190.28L291.28,190.10L296.95,190.00z"/><path style="fill:#000020" d="M136.22,190.34L143.41,190.50L138.06,190.65z"/><path style="fill:#000020" d="M105.56,190.56L105.40,189.44L105.52,189.54z"/><path style="fill:#000020" d="M66.11,190.55L65.71,190.56L66.09,188.69z"/><path style="fill:#000020" d="M134.07,190.87L134.35,190.27L134.58,190.36L134.49,190.99z"/><path style="fill:#000020" d="M66.40,194.15L66.25,192.20L66.36,192.30z"/><path style="fill:#000020" d="M111.58,194.87L110.87,194.92L111.63,194.69z"/><path style="fill:#000020" d="M66.68,198.01L66.52,196.06L66.63,196.16z"/><path style="fill:#000020" d="M66.94,201.60L66.77,199.65L66.91,199.73z"/><path style="fill:#000020" d="M132.65,203.73L128.58,203.61L128.74,203.47z"/><path style="fill:#000020" d="M167.86,204.61L167.12,204.41L167.89,204.33z"/><path style="fill:#000020" d="M78.80,209.87L78.66,208.19L78.77,208.30z"/><path style="fill:#171717" d="M153.55,149.17L153.13,149.00L153.31,148.69z"/><path style="fill:#171717" d="M141.74,143.39L141.13,144.99L139.60,147.32L138.99,148.64L138.22,149.47L138.09,148.63L138.21,147.53L139.08,146.52L141.55,143.19L141.72,143.15z"/><path style="fill:#c5c5d1" d="M147.87,167.11L148.27,170.24L148.27,177.22L147.62,181.58L147.08,181.67L147.16,172.17L146.62,167.75L146.23,166.55L146.99,166.49L147.48,166.63z"/><path style="fill:#00e3e5" d="M169.23,88.45L168.97,85.19L169.25,84.38z"/><path style="fill:#00e3e5" d="M147.77,91.94L147.73,92.29L147.02,92.14L146.49,91.28z"/><path style="fill:#00e3e5" d="M147.77,94.86L148.55,93.95L149.87,90.78L150.18,90.78L150.20,92.84L149.93,94.22L149.42,95.43L148.24,95.27z"/><path style="fill:#00e3e5" d="M150.26,95.91L150.75,90.91L151.22,88.90L158.52,88.81L157.66,96.16L152.78,96.18L152.68,96.07z"/><path style="fill:#fffe02" d="M88.58,177.33L85.58,178.79L85.01,179.32L84.11,179.86L83.33,179.80L83.20,179.52L83.53,174.23z"/><path style="fill:#1a1a1a" d="M138.82,149.30L138.15,150.02L138.22,149.47L138.99,148.64z"/><path style="fill:#e5e5e5" d="M125.80,113.59L125.94,113.97L127.05,114.78L126.36,115.80L125.97,114.77L125.37,114.24L125.37,113.50z"/><path style="fill:#e5e5e5" d="M112.72,130.54L113.64,130.52L113.54,130.89L112.58,131.92L111.86,131.95L110.83,131.24L110.51,130.43L111.34,130.12L111.89,129.69z"/><path style="fill:#e5e5e5" d="M129.35,140.70L128.96,142.22L128.59,142.57L118.02,133.43L117.96,133.22L119.14,132.05z"/><path style="fill:#e5e5e5" d="M92.61,189.23L93.12,190.36L93.67,195.61L93.67,200.94L93.39,205.08L92.85,208.67L92.34,209.88L85.29,209.77L85.66,207.50L85.95,207.20L86.24,208.01L86.98,208.91L88.71,209.43L89.43,209.42L90.35,209.20L90.66,208.68L91.38,203.34L92.29,198.46L92.29,190.93L91.87,188.64z"/><path style="fill:#e5e5e5" d="M71.06,204.15L71.60,206.92L71.64,209.87L70.68,209.78L70.24,204.15L69.81,202.70L69.96,202.77z"/><path style="fill:#e5e5e5" d="M122.92,205.52L125.36,206.93L126.76,207.19L144.14,207.73L144.09,208.00L130.62,208.02L125.93,207.75L124.54,207.49L122.64,206.35L121.41,204.94L121.67,204.67L122.07,204.67z"/><path style="fill:#ffffff" d="M188.28,0.26L185.32,0.21L185.31,0.05L188.36,0.05z"/><path style="fill:#ffffff" d="M134.35,124.71L134.49,125.01L129.35,140.70L119.14,132.05L120.85,129.95L129.11,120.24z"/><path style="fill:#ffffff" d="M157.84,122.52L158.00,122.20L158.20,122.26L158.21,123.47L157.96,123.85L156.64,123.20L156.63,122.45L157.16,122.39L157.35,122.54z"/><path style="fill:#ffffff" d="M140.36,147.23L138.37,153.61L138.15,150.02L138.82,149.30L138.99,148.64L140.30,147.09z"/><path style="fill:#ffffff" d="M123.54,158.79L121.60,158.91L120.79,158.79L125.11,151.56L125.75,151.45z"/><g id="Actor_.0"><g style="stroke:#000000;stroke-width:0.176"><path d="M123.84,210.00 L123.83,206.85 "/></g></g><g id="Actor_.1"><g style="stroke:#000000;stroke-width:0.176"><path d="M143.52,208.12 C135.30,207.98 135.30,207.98 127.08,207.79 C125.97,207.62 125.95,207.63 124.85,207.40 C123.84,206.90 123.83,206.89 122.85,206.34 C122.04,205.56 122.03,205.55 121.26,204.72 C120.71,203.73 120.70,203.72 120.21,202.70 "/><path d="M67.04,201.74 L59.66,210.00 "/><path d="M83.10,185.21 L90.42,181.59 "/><path d="M83.10,180.64 L83.64,180.00 "/><path d="M83.10,180.70 L84.39,179.57 "/><path d="M90.41,176.46 L84.71,179.30 "/><path d="M85.71,178.64 L85.37,178.75 "/><path d="M145.04,210.00 L144.39,207.50 L143.52,208.12 "/><path d="M120.21,202.70 L119.86,200.48 L119.85,194.87 "/><path d="M119.86,200.48 L120.41,199.86 L121.26,203.03 L123.41,205.72 L125.41,206.78 L127.57,207.16 L127.08,207.79 "/><path d="M120.41,199.86 L120.40,194.89 "/><path d="M127.63,207.17 L167.82,207.97 "/><path d="M143.84,208.12 L143.97,210.00 "/><path d="M189.52,207.39 L297.00,209.52 "/><path d="M297.00,190.05 L198.87,188.10 L190.17,189.67 "/></g><g style="stroke:#000000;stroke-width:0.529"><path d="M83.64,180.00 C84.02,179.79 84.02,179.79 84.39,179.57 C84.89,179.17 84.87,179.14 85.37,178.75 C87.88,177.49 87.88,177.49 90.41,176.28 "/><path d="M56.89,210.00 L63.79,202.27 L56.86,210.00 "/><path d="M56.92,210.00 L66.83,198.91 "/><path d="M63.79,202.27 L66.83,198.87 "/><path d="M65.78,200.04 L66.82,198.87 "/><path d="M66.83,198.92 L66.09,199.76 "/><path d="M83.10,180.62 L83.64,180.00 "/></g></g><g id="Actor_.2"><g style="stroke:#000000;stroke-width:0.176"><path d="M68.62,202.33 C68.85,203.29 68.85,203.30 69.06,204.27 C69.22,205.75 69.22,205.75 69.36,207.24 C69.42,208.62 69.42,208.62 69.47,210.00 "/><path d="M71.05,209.31 C70.96,207.73 70.96,207.73 70.84,206.15 C70.67,204.98 70.68,204.97 70.49,203.80 C70.27,203.17 70.27,203.16 70.03,202.54 "/><path d="M68.10,201.61 L68.62,202.33 "/><path d="M71.06,210.00 L71.05,209.31 "/><path d="M71.64,207.87 L71.76,209.65 L71.77,210.00 "/></g><g style="stroke:#000000;stroke-width:0.529"><path d="M63.56,207.44 C64.32,205.97 64.32,205.96 65.10,204.50 C65.30,204.26 65.31,204.26 65.53,204.03 C66.81,202.82 66.81,202.82 68.10,201.61 "/><path d="M68.10,201.61 C68.54,201.75 68.54,201.75 68.98,201.90 C69.27,202.02 69.27,202.02 69.55,202.15 C69.79,202.34 69.79,202.34 70.03,202.54 C70.42,202.95 70.42,202.95 70.81,203.37 "/><path d="M70.81,203.37 C71.04,203.95 71.04,203.95 71.24,204.54 C71.42,205.63 71.41,205.63 71.57,206.72 C71.61,207.29 71.61,207.29 71.64,207.87 "/><path d="M63.05,210.00 L63.28,208.43 L63.56,207.44 "/></g></g><g id="Actor_.3"><g style="stroke:#000000;stroke-width:0.176"><path d="M125.54,151.18 L121.12,158.75 "/></g><g style="stroke:#000000;stroke-width:0.529"><path d="M124.57,152.10 L120.69,158.74 "/></g></g><g id="Actor_.4"><g style="stroke:#000000;stroke-width:0.176"><path d="M111.80,131.71 C96.15,149.94 96.14,149.94 80.53,168.20 C79.90,169.10 79.89,169.11 79.30,170.04 C78.90,171.06 78.90,171.07 78.55,172.11 C78.40,173.13 78.40,173.14 78.31,174.17 "/><path d="M90.38,160.77 C90.48,159.67 90.48,159.66 90.64,158.57 C90.99,157.53 90.99,157.52 91.39,156.50 C91.98,155.58 91.98,155.57 92.61,154.67 "/><path d="M113.31,156.23 C113.61,157.23 113.61,157.23 113.87,158.25 C114.32,161.13 114.33,161.14 114.73,164.03 C114.91,167.11 114.90,167.11 115.04,170.19 C115.05,173.67 115.05,173.67 115.04,177.16 C114.90,180.64 114.90,180.64 114.72,184.12 C114.44,187.11 114.44,187.11 114.13,190.09 C113.73,192.44 113.74,192.44 113.30,194.77 C111.44,202.39 111.44,202.39 109.54,210.00 "/><path d="M119.69,180.38 C119.79,175.38 119.79,175.38 119.83,170.38 C119.70,167.30 119.70,167.30 119.52,164.22 C119.25,161.80 119.25,161.79 118.93,159.38 C118.55,157.85 118.54,157.84 118.10,156.32 "/><path d="M41.83,210.00 L55.05,194.46 L55.27,194.64 L42.11,210.00 "/><path d="M41.30,210.00 L57.81,190.83 L46.90,203.73 L46.76,203.61 "/><path d="M41.57,210.00 L46.90,203.73 "/><path d="M111.23,131.22 L76.76,169.86 L42.33,210.00 "/><path d="M55.05,194.46 L78.42,167.48 L78.21,167.68 "/><path d="M55.27,194.64 L73.51,173.30 L73.40,173.07 "/><path d="M57.81,190.83 L57.88,190.76 "/><path d="M65.27,183.21 L66.72,184.45 L66.20,185.95 L66.13,189.64 "/><path d="M65.78,181.01 L65.85,180.92 "/><path d="M66.02,188.06 L78.29,174.31 L78.36,210.00 "/><path d="M66.72,184.45 L68.04,182.19 L80.53,168.22 L84.20,171.36 "/><path d="M68.09,182.13 L79.47,168.76 L78.48,167.91 "/><path d="M71.62,174.44 L71.69,174.51 "/><path d="M78.24,167.70 L73.58,173.22 "/><path d="M78.31,174.17 L83.08,174.41 L83.11,187.92 "/><path d="M78.42,167.48 L78.46,167.52 "/><path d="M78.96,166.06 L78.68,166.68 "/><path d="M78.59,166.61 L78.76,166.40 "/><path d="M79.47,168.76 L105.39,138.34 "/><path d="M78.77,166.42 L79.02,166.29 "/><path d="M78.95,166.24 L79.04,166.13 "/><path d="M80.73,164.30 L80.75,164.22 "/><path d="M83.09,179.32 L83.95,179.82 "/><path d="M83.08,174.41 L83.15,173.84 "/><path d="M84.10,163.77 L89.62,157.33 "/><path d="M84.07,163.74 L93.68,152.71 "/><path d="M89.04,165.71 L90.32,164.22 L90.38,160.77 L99.38,150.69 L99.52,148.62 L100.17,146.67 L102.48,143.55 L106.16,146.69 L104.97,148.09 L101.29,144.95 L92.69,154.74 "/><path d="M89.53,157.25 L111.47,131.43 "/><path d="M90.41,178.16 L90.43,187.49 "/><path d="M90.39,166.07 L90.39,164.14 "/><path d="M92.69,154.58 L112.00,131.89 "/><path d="M93.63,152.66 L111.67,131.60 "/><path d="M104.97,148.09 L104.34,149.29 L104.17,150.79 L99.38,150.69 L99.84,157.65 L100.59,160.89 L101.05,161.14 L104.88,159.24 L104.40,155.01 L99.61,154.92 "/><path d="M102.48,143.55 L111.56,132.94 L115.24,136.09 L106.16,146.69 "/><path d="M104.40,155.01 L104.17,150.79 "/><path d="M119.16,134.29 L104.18,151.07 "/><path d="M104.88,159.24 L112.37,155.54 L113.31,156.23 "/><path d="M105.36,138.31 L111.30,131.29 "/><path d="M111.56,132.94 L131.33,109.76 L132.50,110.75 "/><path d="M118.10,156.32 L117.16,155.64 L112.37,155.54 "/><path d="M113.30,194.77 L118.09,194.87 L118.55,192.26 "/><path d="M114.40,209.83 L118.09,194.87 "/><path d="M114.04,130.07 L114.01,130.05 "/><path d="M115.24,136.09 L135.01,112.90 L132.55,110.80 "/><path d="M115.28,128.62 L115.26,128.60 "/><path d="M125.98,151.38 L125.43,151.13 L124.25,152.64 "/><path d="M125.43,116.75 L125.41,116.74 "/><path d="M126.34,114.01 L137.78,101.01 "/><path d="M126.57,114.21 L137.94,100.81 L137.75,100.99 "/><path d="M126.85,114.45 L133.55,106.58 L133.48,106.40 L126.70,114.32 "/><path d="M138.83,112.25 L130.66,121.41 "/><path d="M131.33,109.76 L131.35,109.77 "/><path d="M131.32,109.74 L135.42,104.88 L139.08,108.02 L134.99,112.88 "/><path d="M132.95,106.39 L133.12,106.53 "/><path d="M133.48,106.40 L142.85,95.54 L136.83,102.84 "/><path d="M133.61,106.51 L136.78,102.79 "/><path d="M135.42,104.88 L144.93,93.68 "/><path d="M138.02,100.87 L137.94,100.81 "/><path d="M139.08,108.02 L140.94,105.83 "/><path d="M142.93,95.46 L142.97,95.50 "/></g><g style="stroke:#000000;stroke-width:0.529"><path d="M89.04,165.71 C86.61,168.52 86.61,168.53 84.20,171.36 C83.89,171.81 83.88,171.81 83.59,172.27 C83.35,173.04 83.35,173.05 83.15,173.84 "/><path d="M70.71,175.56 L65.78,180.98 L40.94,210.00 "/><path d="M48.70,210.00 L66.13,189.64 L67.10,202.55 "/><path d="M70.66,175.51 L110.64,130.72 "/><path d="M83.12,193.50 L83.11,187.92 "/><path d="M83.15,173.84 L88.68,177.13 "/><path d="M90.39,166.07 L89.04,165.71 "/><path d="M90.41,178.16 L90.39,166.07 "/><path d="M114.36,210.00 L114.40,209.83 "/><path d="M119.69,180.38 L119.42,185.12 L118.55,192.26 "/><path d="M145.64,91.52 L125.90,113.64 "/></g></g><g id="Actor_.5"><g style="stroke:#000000;stroke-width:0.176"><path d="M79.18,201.91 C79.23,202.14 79.24,202.14 79.29,202.37 C79.33,202.73 79.33,202.73 79.37,203.09 C79.39,203.56 79.39,203.56 79.41,204.03 C79.41,204.50 79.41,204.51 79.40,204.98 C79.38,205.47 79.38,205.47 79.35,205.95 C79.31,206.37 79.31,206.37 79.26,206.80 C79.21,207.11 79.21,207.11 79.15,207.42 C79.08,207.59 79.08,207.59 79.01,207.76 "/><path d="M78.87,207.78 C78.81,207.63 78.81,207.63 78.75,207.48 C78.70,207.18 78.70,207.18 78.65,206.88 C78.62,206.47 78.62,206.47 78.59,206.06 "/><path d="M78.67,203.19 L78.78,202.44 L78.91,201.95 L79.04,201.77 L79.18,201.91 "/><path d="M79.01,207.76 L78.87,207.78 "/><path d="M84.92,195.88 L84.84,195.20 L84.39,193.37 L83.87,192.79 "/><path d="M85.30,205.72 L85.10,209.52 L85.05,210.00 "/><path d="M86.63,210.00 L86.73,208.75 "/><path d="M87.34,210.00 L87.38,209.42 "/></g><g style="stroke:#000000;stroke-width:0.529"><path d="M78.82,209.30 C78.70,207.68 78.70,207.68 78.59,206.06 C78.58,205.58 78.58,205.58 78.57,205.10 C78.59,204.60 78.58,204.60 78.60,204.11 C78.73,202.73 78.73,202.73 78.86,201.35 C78.97,200.55 78.97,200.55 79.09,199.75 C79.22,199.22 79.21,199.21 79.36,198.69 C80.11,197.23 80.11,197.24 80.88,195.79 C81.09,195.49 81.10,195.49 81.32,195.20 C82.59,193.99 82.59,193.99 83.87,192.79 "/><path d="M83.87,192.79 C84.31,192.90 84.31,192.90 84.75,193.01 C85.04,193.13 85.04,193.14 85.32,193.26 C85.37,193.30 85.37,193.30 85.41,193.33 "/><path d="M78.93,210.00 L78.82,209.30 "/></g></g><g id="Actor_.6"><g style="stroke:#000000;stroke-width:0.176"><path d="M125.46,113.26 L118.60,121.36 L110.58,130.66 "/><path d="M125.12,113.29 L118.22,121.42 L110.55,130.32 "/><path d="M126.93,114.52 L118.60,124.33 L112.05,131.92 "/><path d="M113.62,126.72 L113.39,127.00 L122.30,116.58 L113.62,126.72 "/><path d="M125.31,116.83 L114.09,129.95 "/><path d="M119.02,131.69 L129.51,140.65 "/><path d="M132.42,131.79 L124.64,125.13 "/></g><g style="stroke:#000000;stroke-width:0.529"><path d="M110.76,130.05 C114.32,125.86 114.32,125.86 117.88,121.67 C121.41,117.57 121.41,117.57 124.94,113.48 C125.06,113.36 125.06,113.36 125.18,113.24 "/><path d="M114.09,129.95 L112.39,131.90 L112.26,131.97 L112.05,131.92 L110.58,130.66 L110.50,130.54 L110.51,130.39 L110.76,130.05 "/><path d="M125.18,113.24 L125.32,113.21 L125.46,113.26 L126.93,114.52 L127.02,114.72 L126.96,114.86 L125.31,116.83 "/><path d="M128.87,142.59 L117.80,133.12 "/><path d="M134.70,124.85 L129.02,120.00 "/></g></g><g id="Actor_.7"><g style="stroke:#000000;stroke-width:0.176"><path d="M85.13,196.31 C85.20,196.43 85.20,196.43 85.26,196.55 C85.32,196.80 85.32,196.80 85.36,197.06 C85.40,197.46 85.40,197.46 85.44,197.86 C85.45,198.45 85.45,198.46 85.46,199.05 C85.43,199.89 85.43,199.89 85.39,200.74 C85.34,201.13 85.34,201.13 85.29,201.53 C85.23,201.81 85.23,201.81 85.16,202.08 C85.10,202.21 85.10,202.22 85.03,202.34 "/><path d="M90.07,187.36 C90.34,187.81 90.35,187.82 90.58,188.29 C90.81,189.35 90.80,189.35 91.00,190.42 C91.15,191.98 91.15,191.98 91.28,193.53 C91.34,195.40 91.34,195.41 91.39,197.28 C91.36,199.27 91.36,199.27 91.32,201.26 C91.21,203.14 91.21,203.14 91.08,205.02 C90.89,206.62 90.89,206.62 90.68,208.21 C90.50,209.11 90.49,209.11 90.28,210.00 "/><path d="M91.99,188.39 C92.23,189.11 92.23,189.11 92.43,189.85 C92.62,191.10 92.61,191.10 92.77,192.35 C92.87,193.99 92.87,193.99 92.95,195.62 C92.97,197.47 92.97,197.47 92.97,199.31 C92.91,201.16 92.91,201.16 92.82,203.01 C92.68,204.67 92.68,204.68 92.52,206.33 C92.32,207.62 92.32,207.62 92.10,208.91 C91.95,209.45 91.95,209.46 91.78,210.00 "/><path d="M93.53,193.59 C93.60,194.75 93.60,194.75 93.66,195.92 C93.68,197.63 93.68,197.63 93.68,199.34 C93.62,201.05 93.62,201.06 93.54,202.77 C93.43,204.08 93.43,204.09 93.30,205.40 "/><path d="M84.75,197.50 L84.86,196.82 L85.00,196.41 L85.13,196.31 "/><path d="M85.03,202.34 L84.89,202.27 L84.77,201.88 L84.69,201.22 "/></g><g style="stroke:#000000;stroke-width:0.529"><path d="M86.72,208.74 C85.99,207.21 85.99,207.21 85.27,205.67 C85.14,205.25 85.14,205.25 85.02,204.83 C84.91,204.12 84.92,204.12 84.83,203.40 C84.73,201.88 84.73,201.88 84.64,200.35 C84.63,199.86 84.63,199.86 84.63,199.37 C84.65,198.88 84.65,198.88 84.67,198.39 C84.82,196.90 84.81,196.90 84.97,195.41 C85.08,194.68 85.08,194.68 85.21,193.94 C85.34,193.51 85.34,193.51 85.49,193.08 C86.26,191.57 86.26,191.57 87.05,190.07 "/><path d="M90.07,187.36 C90.53,187.54 90.53,187.54 90.99,187.73 C91.25,187.87 91.26,187.86 91.51,188.00 C91.76,188.19 91.76,188.19 91.99,188.39 C92.38,188.79 92.38,188.79 92.77,189.21 "/><path d="M92.77,189.21 C92.99,189.88 92.99,189.88 93.18,190.56 C93.35,191.72 93.34,191.72 93.49,192.88 C93.52,193.24 93.52,193.24 93.53,193.59 "/><path d="M93.26,205.85 C93.07,207.04 93.07,207.04 92.87,208.23 C92.76,208.66 92.76,208.66 92.64,209.08 C92.53,209.38 92.53,209.38 92.41,209.67 "/><path d="M87.95,210.00 L86.72,208.74 "/><path d="M87.05,190.07 L89.52,187.74 L90.07,187.36 "/><path d="M93.30,205.40 L93.26,205.85 "/><path d="M92.41,209.67 L92.07,210.00 "/></g></g><g id="Actor_.8"><g style="stroke:#000000;stroke-width:0.176"><path d="M0.94,193.11 C2.11,193.18 2.11,193.18 3.28,193.25 C4.49,193.29 4.49,193.29 5.70,193.31 C6.81,193.31 6.81,193.31 7.92,193.29 C8.82,193.24 8.82,193.24 9.71,193.18 C10.05,193.14 10.05,193.13 10.38,193.08 C10.63,193.04 10.63,193.04 10.88,193.00 "/><path d="M0.08,193.32 C0.55,193.37 0.55,193.37 1.02,193.42 C2.16,193.49 2.16,193.49 3.29,193.55 C4.46,193.59 4.46,193.59 5.63,193.61 C6.70,193.61 6.70,193.61 7.77,193.59 "/><path d="M1.51,189.20 C1.64,189.25 1.64,189.25 1.78,189.29 C2.04,189.33 2.04,189.33 2.29,189.37 C2.64,189.41 2.64,189.41 2.99,189.44 C3.47,189.47 3.47,189.47 3.95,189.50 C4.31,189.51 4.31,189.51 4.66,189.52 C5.05,189.51 5.05,189.51 5.44,189.51 C5.75,189.49 5.75,189.49 6.06,189.47 C6.27,189.44 6.27,189.44 6.47,189.41 "/><path d="M0.00,193.01 L0.94,193.11 "/><path d="M10.88,193.00 L11.29,192.77 "/><path d="M2.31,188.99 L1.79,189.04 L1.51,189.11 L1.51,189.20 "/><path d="M6.47,189.41 L6.61,189.33 L6.48,189.24 L6.08,189.15 "/><path d="M9.53,193.49 L9.54,193.49 "/></g><g style="stroke:#000000;stroke-width:0.529"><path d="M0.45,189.15 C1.38,189.07 1.38,189.07 2.31,188.99 C2.67,188.97 2.67,188.97 3.03,188.96 C3.44,188.97 3.44,188.97 3.85,188.97 C4.27,188.99 4.27,188.99 4.69,189.01 C5.07,189.04 5.07,189.04 5.46,189.07 C6.37,189.19 6.37,189.19 7.28,189.32 C7.60,189.39 7.60,189.39 7.91,189.47 C8.56,189.79 8.56,189.80 9.20,190.14 C9.35,190.23 9.35,190.23 9.49,190.33 C10.04,190.87 10.05,190.86 10.58,191.41 C10.95,192.08 10.93,192.09 11.29,192.77 C11.30,192.81 11.30,192.81 11.30,192.85 "/><path d="M0.00,193.31 L0.08,193.32 "/><path d="M0.00,189.27 L0.45,189.15 "/><path d="M11.30,192.85 L11.29,192.93 L11.20,193.05 L10.73,193.31 L9.59,193.48 L7.77,193.59 "/></g></g><g id="Actor_.9"><g style="stroke:#000000;stroke-width:0.176"><path d="M3.79,197.92 C4.36,198.05 4.36,198.05 4.94,198.17 C5.83,198.29 5.83,198.29 6.72,198.40 C7.83,198.49 7.83,198.49 8.94,198.58 C10.15,198.63 10.15,198.63 11.36,198.68 C12.53,198.69 12.53,198.69 13.70,198.70 C14.83,198.66 14.83,198.66 15.95,198.61 C16.58,198.55 16.58,198.55 17.22,198.48 C17.61,198.39 17.61,198.39 18.00,198.27 "/><path d="M14.53,198.97 C14.07,198.98 14.07,198.98 13.60,199.00 C12.46,198.99 12.46,198.99 11.33,198.98 C10.16,198.93 10.16,198.93 8.99,198.88 C7.92,198.80 7.92,198.80 6.84,198.71 "/><path d="M8.43,194.63 C8.62,194.67 8.62,194.67 8.82,194.72 C9.13,194.76 9.13,194.76 9.44,194.80 C9.83,194.83 9.83,194.83 10.23,194.86 C10.65,194.88 10.65,194.88 11.07,194.89 C11.52,194.90 11.52,194.90 11.96,194.90 C12.28,194.89 12.28,194.89 12.60,194.88 C12.85,194.85 12.85,194.86 13.10,194.83 C13.24,194.79 13.24,194.79 13.38,194.76 "/><path d="M3.39,197.66 L3.79,197.92 "/><path d="M18.00,198.27 L18.00,198.03 "/><path d="M5.09,198.49 L5.11,198.49 "/><path d="M8.83,194.39 L8.43,194.46 L8.29,194.54 L8.43,194.63 "/><path d="M13.38,194.76 L13.39,194.67 L13.11,194.58 L12.59,194.49 "/></g><g style="stroke:#000000;stroke-width:0.529"><path d="M14.53,198.97 C15.05,198.95 15.05,198.95 15.57,198.93 C16.32,198.86 16.32,198.87 17.08,198.78 C17.46,198.69 17.46,198.68 17.84,198.58 C17.88,198.57 17.88,198.57 17.91,198.55 "/><path d="M18.00,198.03 C17.67,197.35 17.67,197.34 17.30,196.68 C16.78,196.13 16.77,196.13 16.23,195.61 C15.57,195.25 15.56,195.26 14.88,194.92 C14.67,194.84 14.66,194.84 14.44,194.78 C13.52,194.63 13.52,194.63 12.59,194.49 C12.24,194.45 12.24,194.45 11.89,194.42 C11.48,194.39 11.48,194.39 11.07,194.37 C10.26,194.36 10.26,194.36 9.45,194.36 C8.53,194.42 8.53,194.42 7.62,194.49 C7.30,194.53 7.29,194.53 6.98,194.59 C6.31,194.87 6.31,194.88 5.64,195.17 C5.50,195.25 5.49,195.25 5.35,195.34 C4.77,195.84 4.75,195.83 4.19,196.35 C3.77,196.99 3.77,197.00 3.39,197.66 "/><path d="M17.91,198.55 L18.00,198.43 L18.00,198.03 "/><path d="M3.39,197.66 L3.37,197.81 L3.46,197.94 L3.92,198.23 L5.05,198.48 L6.84,198.71 "/></g></g><g id="Actor_.10"><g style="stroke:#000000;stroke-width:0.176"><path d="M0.00,187.92 C0.93,187.90 0.93,187.90 1.87,187.87 C2.65,187.81 2.65,187.81 3.43,187.74 C3.88,187.64 3.88,187.64 4.32,187.54 "/><path d="M0.93,188.20 L0.00,188.22 "/><path d="M4.32,187.54 L4.42,187.29 "/><path d="M3.23,188.05 L3.23,188.04 "/></g><g style="stroke:#000000;stroke-width:0.529"><path d="M1.28,184.17 C1.97,184.50 1.98,184.50 2.64,184.87 C3.19,185.39 3.20,185.39 3.71,185.94 C4.09,186.60 4.09,186.61 4.42,187.29 "/><path d="M0.00,183.87 L0.90,184.03 L1.00,184.06 L1.28,184.17 "/><path d="M4.42,187.29 L4.44,187.37 L4.42,187.44 L4.32,187.69 L4.28,187.76 L4.23,187.81 L4.16,187.84 L3.29,188.04 L1.71,188.18 L0.93,188.20 "/></g></g><g id="Actor_.11"><g style="stroke:#000000;stroke-width:0.176"><path d="M0.00,181.45 L64.28,182.73 "/><path d="M0.00,178.08 L67.17,179.42 "/><path d="M0.00,176.32 L68.72,177.68 "/><path d="M81.60,163.25 L0.00,161.63 "/><path d="M3.26,185.49 L60.94,186.63 "/></g><g style="stroke:#000000;stroke-width:0.529"><path d="M84.46,160.05 L0.00,158.37 "/></g></g><g id="Actor_.12"><g style="stroke:#000000;stroke-width:0.176"><path d="M119.44,163.10 C119.67,165.41 119.67,165.41 119.87,167.72 C119.98,170.51 119.98,170.51 120.05,173.31 C120.02,176.29 120.02,176.29 119.95,179.28 C119.79,182.13 119.79,182.13 119.60,184.97 C119.32,187.38 119.31,187.38 119.02,189.78 C118.97,190.03 118.97,190.03 118.91,190.28 "/><path d="M124.46,194.35 C124.88,193.09 124.88,193.09 125.25,191.81 C125.61,189.74 125.60,189.74 125.92,187.66 C126.17,185.00 126.17,184.99 126.39,182.33 C126.52,179.38 126.52,179.38 126.62,176.42 C126.62,173.49 126.62,173.49 126.58,170.56 C126.44,167.97 126.45,167.97 126.28,165.38 C126.02,163.42 126.03,163.41 125.74,161.45 C125.40,160.32 125.40,160.31 125.02,159.20 "/><path d="M119.31,162.42 L119.44,163.10 "/></g><g style="stroke:#000000;stroke-width:0.529"><path d="M125.58,159.78 C125.95,160.87 125.95,160.88 126.28,161.98 C126.57,163.87 126.56,163.88 126.80,165.78 C126.97,168.28 126.97,168.28 127.10,170.78 C127.13,173.61 127.13,173.61 127.14,176.45 C127.04,179.29 127.04,179.29 126.92,182.13 C126.70,184.72 126.71,184.72 126.46,187.31 C126.15,189.32 126.16,189.32 125.81,191.33 C125.45,192.56 125.45,192.56 125.05,193.78 "/><path d="M118.76,158.67 L124.21,158.86 L125.02,159.20 L125.58,159.78 "/><path d="M125.05,193.78 L124.46,194.35 L123.64,195.00 L118.10,194.81 "/></g></g><g id="Actor_.13"><g style="stroke:#000000;stroke-width:0.176"><path d="M146.53,188.02 C146.79,187.20 146.79,187.20 147.02,186.38 C147.20,185.25 147.20,185.25 147.36,184.12 C147.54,182.28 147.54,182.28 147.70,180.43 C147.78,178.60 147.78,178.60 147.83,176.77 C147.82,174.97 147.82,174.97 147.79,173.18 C147.70,171.60 147.70,171.60 147.59,170.03 C147.55,169.71 147.55,169.72 147.50,169.40 C147.38,168.54 147.39,168.53 147.25,167.67 C147.04,167.01 147.04,167.01 146.81,166.36 "/><path d="M146.82,183.74 C146.98,181.94 146.98,181.94 147.11,180.14 C147.18,178.45 147.18,178.45 147.23,176.76 C147.22,174.97 147.22,174.97 147.20,173.18 C147.10,171.60 147.11,171.59 146.99,170.02 C146.83,168.84 146.84,168.83 146.65,167.66 C146.43,166.95 146.43,166.94 146.17,166.24 "/><path d="M145.05,189.45 L146.10,186.34 L135.53,186.13 "/><path d="M139.75,173.27 L146.76,173.41 L146.51,184.40 L146.10,186.34 L146.82,183.74 L146.42,186.36 L145.93,188.01 L145.42,188.50 "/><path d="M146.02,188.51 L146.53,188.02 "/><path d="M146.81,166.36 L146.30,166.24 "/><path d="M146.76,173.41 L146.85,172.59 L145.60,164.37 "/><path d="M148.50,183.08 L148.49,183.12 "/></g><g style="stroke:#000000;stroke-width:0.529"><path d="M147.75,166.87 C147.83,167.04 147.83,167.04 147.91,167.20 C148.12,167.81 148.13,167.81 148.32,168.42 C148.49,169.50 148.49,169.50 148.64,170.59 C148.74,172.05 148.74,172.05 148.82,173.51 C148.85,175.33 148.84,175.33 148.85,177.16 C148.81,178.64 148.81,178.64 148.75,180.12 C148.62,181.70 148.62,181.71 148.48,183.29 C148.30,184.51 148.30,184.51 148.10,185.72 C147.89,186.49 147.88,186.49 147.65,187.25 C147.58,187.39 147.58,187.40 147.50,187.54 "/><path d="M142.69,164.32 L145.60,164.37 L146.17,166.24 L147.17,166.43 L147.50,166.60 L147.75,166.87 "/><path d="M147.50,187.54 L146.73,188.29 L146.39,188.46 L146.02,188.51 L145.42,188.50 L145.05,189.45 L144.28,190.23 L134.46,190.04 "/></g></g><g id="Actor_.14"><g style="stroke:#000000;stroke-width:0.176"><path d="M100.94,172.24 C101.04,172.45 101.04,172.46 101.12,172.68 C101.19,173.09 101.19,173.10 101.25,173.52 C101.31,175.12 101.32,175.12 101.35,176.72 C101.23,178.22 101.22,178.22 101.07,179.73 C100.99,180.07 100.99,180.07 100.89,180.41 "/><path d="M107.07,186.79 C107.31,185.92 107.31,185.92 107.53,185.04 C107.73,183.71 107.73,183.71 107.91,182.37 C108.05,180.72 108.04,180.72 108.16,179.07 C108.21,177.62 108.21,177.62 108.25,176.16 C108.23,174.10 108.24,174.10 108.21,172.04 C108.11,170.55 108.11,170.55 107.99,169.06 C107.83,167.98 107.83,167.98 107.64,166.90 C107.44,166.34 107.44,166.34 107.20,165.79 "/><path d="M108.61,169.40 C108.72,170.73 108.72,170.73 108.81,172.05 C108.84,173.78 108.84,173.78 108.87,175.51 C108.82,177.30 108.82,177.30 108.76,179.08 C108.64,180.73 108.64,180.73 108.51,182.38 C108.41,183.11 108.41,183.11 108.30,183.83 "/><path d="M148.65,170.89 C148.79,171.63 148.79,171.63 148.91,172.38 C148.99,173.37 148.98,173.37 149.05,174.36 C149.08,175.51 149.08,175.51 149.09,176.67 C149.06,177.86 149.06,177.86 149.02,179.05 C148.94,180.15 148.94,180.15 148.85,181.25 C148.73,182.14 148.73,182.14 148.60,183.03 C148.51,183.40 148.51,183.41 148.40,183.78 "/><path d="M100.75,172.26 L100.94,172.24 "/><path d="M100.89,180.41 L100.70,180.66 L100.51,180.45 "/><path d="M100.37,179.18 L100.42,180.08 L101.00,180.02 L101.34,176.50 L100.20,176.48 L100.37,179.18 "/><path d="M100.20,176.48 L100.55,172.83 L101.13,172.77 L101.13,172.84 L100.55,172.83 "/><path d="M101.13,172.84 L101.34,176.50 "/><path d="M106.57,187.43 L107.07,186.79 "/></g><g style="stroke:#000000;stroke-width:0.529"><path d="M106.57,187.43 C104.83,185.97 104.83,185.97 103.10,184.51 C102.93,184.32 102.93,184.32 102.76,184.12 C101.63,182.29 101.63,182.29 100.51,180.45 "/><path d="M100.51,180.45 C100.37,179.62 100.37,179.62 100.25,178.79 C100.21,177.48 100.21,177.47 100.20,176.16 C100.29,174.88 100.29,174.88 100.40,173.60 C100.47,173.16 100.47,173.16 100.56,172.73 C100.65,172.49 100.65,172.49 100.75,172.26 C101.97,170.41 101.97,170.41 103.20,168.56 "/><path d="M149.45,183.08 C149.59,182.61 149.59,182.61 149.70,182.13 C149.82,181.38 149.82,181.38 149.92,180.63 C150.03,178.72 150.03,178.72 150.12,176.81 C150.09,175.49 150.09,175.49 150.04,174.17 C149.92,173.10 149.92,173.10 149.77,172.03 C149.66,171.72 149.66,171.72 149.53,171.41 "/><path d="M108.30,183.83 L108.13,185.05 L107.67,186.80 L107.17,187.44 L106.57,187.43 "/><path d="M103.20,168.56 L106.71,165.83 L107.80,165.80 L108.24,166.91 L108.61,169.40 "/><path d="M148.33,184.26 L149.45,183.08 "/><path d="M149.53,171.41 L148.62,170.45 "/></g></g><g id="Actor_.15"><g style="stroke:#000000;stroke-width:0.176"/><g style="stroke:#000000;stroke-width:0.529"><path d="M134.64,188.86 L134.53,189.74 L134.15,191.45 "/></g></g><g id="Actor_.16"><g style="stroke:#000000;stroke-width:0.176"><path d="M146.97,91.70 C146.99,91.98 146.99,91.98 147.02,92.26 C147.13,92.83 147.12,92.84 147.24,93.40 C147.37,93.66 147.37,93.66 147.51,93.91 "/><path d="M147.81,93.72 C147.95,93.29 147.95,93.29 148.09,92.86 C148.21,92.14 148.21,92.14 148.33,91.42 C148.42,90.50 148.42,90.50 148.50,89.57 C148.54,88.53 148.54,88.52 148.58,87.48 C148.58,86.44 148.58,86.44 148.57,85.40 C148.53,84.47 148.53,84.47 148.47,83.55 C148.38,82.84 148.38,82.84 148.29,82.13 C148.21,81.87 148.21,81.87 148.13,81.61 C148.08,81.45 148.08,81.45 148.04,81.30 "/><path d="M147.75,81.13 C147.60,81.39 147.60,81.40 147.46,81.67 C147.32,82.24 147.33,82.25 147.20,82.83 C147.17,83.06 147.17,83.06 147.14,83.28 "/><path d="M147.90,82.71 C148.01,82.96 148.01,82.97 148.10,83.22 C148.19,83.71 148.18,83.71 148.26,84.20 C148.27,84.40 148.27,84.40 148.29,84.60 C148.32,85.07 148.32,85.07 148.35,85.53 C148.37,86.31 148.37,86.31 148.38,87.08 C148.35,87.96 148.35,87.96 148.32,88.84 C148.27,89.50 148.27,89.50 148.21,90.15 C148.13,90.75 148.13,90.75 148.04,91.34 C147.95,91.73 147.95,91.73 147.84,92.11 "/><path d="M149.02,94.91 C149.20,94.41 149.20,94.41 149.36,93.89 C149.51,93.04 149.50,93.04 149.64,92.18 C149.75,91.08 149.75,91.08 149.84,89.97 C149.90,88.73 149.90,88.73 149.95,87.49 C149.95,86.26 149.95,86.26 149.94,85.02 C149.87,83.81 149.87,83.81 149.79,82.61 C149.70,81.87 149.70,81.87 149.59,81.14 C149.45,80.64 149.45,80.64 149.30,80.14 "/><path d="M149.62,94.93 C149.79,94.42 149.79,94.42 149.95,93.90 C149.99,93.73 149.98,93.73 150.01,93.55 C150.13,92.87 150.13,92.87 150.24,92.19 C150.35,91.09 150.35,91.09 150.44,89.98 C150.50,88.74 150.50,88.74 150.55,87.50 C150.55,86.27 150.55,86.27 150.54,85.03 C150.48,83.93 150.48,83.93 150.41,82.84 C150.31,81.99 150.31,81.99 150.19,81.15 C150.05,80.65 150.05,80.65 149.90,80.16 "/><path d="M147.51,93.91 L147.81,93.72 "/><path d="M148.04,81.30 L147.75,81.13 "/><path d="M147.67,82.77 L147.68,82.73 L147.90,82.71 "/><path d="M147.84,92.11 L147.62,92.38 L147.53,92.28 "/><path d="M148.68,95.14 L149.02,94.91 "/><path d="M149.30,80.14 L148.96,79.95 "/><path d="M149.27,95.15 L149.62,94.93 "/><path d="M149.90,80.16 L149.56,79.97 L149.44,79.96 "/><path d="M150.37,95.85 L150.74,90.18 L151.25,88.50 L150.65,82.54 L150.90,80.22 L149.70,79.58 L149.68,79.28 "/><path d="M151.25,88.50 L158.51,88.65 "/><path d="M150.90,80.22 L158.16,80.36 "/></g><g style="stroke:#000000;stroke-width:0.529"><path d="M146.97,91.69 C147.00,92.11 147.00,92.12 147.04,92.54 C147.15,93.14 147.14,93.15 147.27,93.75 C147.48,94.19 147.49,94.19 147.72,94.62 C147.84,94.76 147.85,94.76 147.98,94.89 "/><path d="M148.25,80.17 C148.11,80.29 148.11,80.30 147.99,80.43 C147.74,80.87 147.73,80.87 147.51,81.33 C147.35,81.94 147.36,81.94 147.23,82.56 C147.18,82.92 147.18,82.92 147.14,83.29 "/><path d="M147.98,94.89 L148.31,95.07 L148.68,95.14 L149.27,95.15 L149.64,95.40 L149.91,95.68 L150.37,95.85 L157.63,96.00 L158.51,88.65 L158.16,80.36 L156.94,79.42 L149.68,79.28 L149.44,79.96 L148.96,79.95 L148.59,80.01 L148.25,80.17 "/></g></g><g id="Actor_.17"><g style="stroke:#000000;stroke-width:0.176"><path d="M191.29,89.75 C189.99,89.91 189.99,89.91 188.68,90.04 C187.03,90.11 187.03,90.11 185.38,90.16 C183.58,90.12 183.58,90.12 181.78,90.06 C180.06,89.92 180.06,89.92 178.34,89.76 C176.87,89.54 176.87,89.54 175.41,89.30 C174.49,89.06 174.49,89.06 173.58,88.79 "/><path d="M193.42,102.11 L192.71,102.70 L190.80,103.19 L190.89,100.77 "/></g><g style="stroke:#000000;stroke-width:0.529"><path d="M190.89,100.77 C191.14,93.99 191.14,93.99 191.33,87.21 C191.24,84.95 191.24,84.95 191.09,82.70 C190.84,81.51 190.84,81.50 190.52,80.33 "/><path d="M167.75,210.00 L172.11,92.13 "/><path d="M189.42,210.00 L193.42,102.11 L192.97,101.52 L190.89,100.77 "/><path d="M190.52,80.33 L187.62,78.41 L183.76,77.48 L180.25,77.75 L177.03,79.16 L174.46,81.52 L173.11,84.05 "/></g></g><g id="Actor_.18"><g style="stroke:#000000;stroke-width:0.176"><path d="M158.93,124.66 C158.70,124.84 158.70,124.84 158.49,125.03 C158.15,125.40 158.15,125.40 157.83,125.78 C157.42,126.31 157.42,126.31 157.02,126.84 C156.59,127.46 156.59,127.46 156.16,128.09 C155.75,128.74 155.75,128.74 155.34,129.40 C154.99,130.00 154.99,130.01 154.65,130.62 C154.51,130.88 154.51,130.88 154.37,131.15 C154.26,131.38 154.26,131.38 154.15,131.62 C154.03,131.95 154.03,131.95 153.91,132.29 "/><path d="M158.77,124.70 C158.55,124.87 158.55,124.87 158.33,125.05 C158.01,125.42 158.01,125.42 157.69,125.79 C157.30,126.30 157.30,126.30 156.91,126.82 C156.49,127.43 156.49,127.43 156.07,128.04 C155.67,128.67 155.67,128.67 155.27,129.31 C154.93,129.90 154.93,129.90 154.59,130.50 C154.46,130.76 154.46,130.76 154.32,131.02 C154.22,131.25 154.22,131.25 154.11,131.47 C153.99,131.80 153.99,131.80 153.88,132.13 "/><path d="M153.80,132.42 C153.84,132.18 153.84,132.17 153.90,131.94 C154.08,131.51 154.08,131.51 154.27,131.09 C154.57,130.52 154.57,130.52 154.87,129.96 C155.26,129.32 155.26,129.32 155.64,128.68 C156.06,128.03 156.06,128.03 156.49,127.39 C156.91,126.80 156.91,126.80 157.34,126.21 C157.70,125.75 157.70,125.75 158.08,125.29 C158.35,125.01 158.35,125.01 158.64,124.73 "/><path d="M161.65,127.17 C161.40,127.43 161.40,127.43 161.15,127.69 C160.81,128.10 160.81,128.10 160.47,128.52 C160.09,129.05 160.09,129.05 159.71,129.58 C159.59,129.77 159.59,129.77 159.46,129.96 C159.20,130.36 159.20,130.36 158.94,130.76 C158.59,131.34 158.58,131.34 158.24,131.92 C157.96,132.43 157.96,132.43 157.69,132.94 C157.52,133.32 157.52,133.32 157.35,133.71 C157.30,133.93 157.30,133.93 157.26,134.15 "/><path d="M156.54,134.19 C156.58,133.95 156.58,133.95 156.64,133.71 C156.82,133.29 156.82,133.29 157.01,132.86 C157.31,132.30 157.31,132.30 157.61,131.74 C158.02,131.06 158.02,131.06 158.43,130.38 C158.83,129.77 158.83,129.77 159.23,129.16 C159.65,128.58 159.65,128.57 160.08,127.99 C160.44,127.53 160.44,127.53 160.82,127.07 C161.09,126.79 161.09,126.78 161.38,126.50 "/><path d="M161.36,128.38 C161.18,128.56 161.18,128.56 161.00,128.75 C160.74,129.06 160.75,129.06 160.49,129.38 C160.24,129.73 160.24,129.73 159.99,130.09 C159.71,130.50 159.71,130.50 159.44,130.92 C159.19,131.33 159.19,131.33 158.95,131.74 C158.75,132.10 158.75,132.10 158.56,132.46 C158.44,132.73 158.44,132.73 158.32,133.00 C158.29,133.16 158.29,133.16 158.26,133.31 "/><path d="M158.97,124.67 L158.93,124.66 "/><path d="M153.91,132.29 L153.95,132.57 "/><path d="M158.93,124.66 L158.77,124.70 "/><path d="M153.88,132.13 L153.93,132.46 "/><path d="M158.64,124.73 L158.95,124.57 "/><path d="M161.98,127.28 L161.94,127.03 L161.65,127.17 "/><path d="M157.26,134.15 L157.43,134.20 "/><path d="M161.38,126.50 L161.69,126.35 "/><path d="M161.59,128.46 L161.56,128.28 L161.36,128.38 "/><path d="M158.26,133.31 L158.37,133.35 L158.66,133.12 "/></g><g style="stroke:#000000;stroke-width:0.529"><path d="M153.95,132.57 C155.24,133.39 155.24,133.39 156.54,134.19 C156.71,134.27 156.71,134.27 156.89,134.33 C156.99,134.34 156.99,134.35 157.08,134.35 "/><path d="M157.27,134.31 C157.55,134.09 157.55,134.09 157.83,133.87 C158.25,133.50 158.25,133.50 158.66,133.12 C158.87,132.88 158.87,132.88 159.08,132.63 C159.27,132.38 159.27,132.38 159.46,132.13 C159.81,131.64 159.81,131.64 160.15,131.15 C160.41,130.74 160.41,130.74 160.67,130.32 C160.90,129.93 160.90,129.93 161.12,129.53 C161.28,129.21 161.28,129.22 161.44,128.89 C161.71,128.09 161.71,128.09 161.98,127.28 C162.00,127.19 162.00,127.19 162.01,127.10 C161.97,126.87 161.97,126.87 161.93,126.65 "/><path d="M146.41,127.63 L146.83,127.90 "/><path d="M153.28,132.08 L153.80,132.42 L153.93,132.46 L153.95,132.57 "/><path d="M157.08,134.35 L157.27,134.31 "/><path d="M161.93,126.65 L161.84,126.48 L161.69,126.35 L159.11,124.72 L158.97,124.67 L158.95,124.57 L156.31,122.86 "/></g></g><g id="Actor_.19"><g style="stroke:#000000;stroke-width:0.176"><path d="M154.34,149.49 C154.38,149.88 154.38,149.88 154.43,150.27 C154.48,150.42 154.49,150.42 154.54,150.57 C154.58,150.76 154.58,150.76 154.62,150.95 "/><path d="M154.57,148.01 C154.53,148.27 154.53,148.27 154.49,148.53 C154.45,148.66 154.44,148.65 154.41,148.78 C154.38,149.03 154.38,149.03 154.37,149.29 "/><path d="M154.37,149.63 L154.37,149.29 L154.34,149.49 "/><path d="M154.62,150.95 L152.88,147.15 "/><path d="M155.95,146.02 L156.96,145.33 L156.40,145.60 L155.95,146.02 L155.81,146.12 L155.71,146.25 L155.28,146.66 L155.01,147.18 L154.88,147.34 L154.82,147.54 L154.57,148.01 "/><path d="M156.48,153.70 L155.79,153.13 L155.03,151.86 L154.54,150.57 "/><path d="M155.40,151.28 L155.51,151.86 L156.20,153.02 L157.24,153.88 L158.53,154.36 L159.92,154.40 L161.27,154.00 L162.43,153.20 L163.27,152.09 L163.54,151.28 L163.70,150.79 L163.68,149.44 L163.21,148.18 L162.33,147.16 L161.46,146.66 L161.15,146.48 L159.79,146.22 L158.40,146.40 L157.13,147.01 L156.12,147.97 L155.48,149.18 L155.26,150.54 L155.40,151.28 "/><path d="M155.03,151.86 L154.75,150.40 L154.98,148.92 L155.48,147.99 L155.70,147.57 L156.81,146.51 L158.21,145.84 L159.75,145.64 L161.25,145.93 L161.90,146.30 L162.55,146.68 L163.51,147.80 L164.04,149.19 L163.44,147.60 L162.84,146.59 L163.10,146.89 L161.47,143.32 "/><path d="M154.81,151.28 L154.62,150.95 "/><path d="M154.82,147.54 L154.49,148.53 "/><path d="M155.01,147.18 L155.71,146.25 "/><path d="M157.18,152.27 L157.21,152.33 L157.95,152.94 L158.86,153.28 L159.85,153.31 L160.80,153.02 L161.62,152.46 L162.21,151.68 L162.52,150.76 L162.51,150.28 L162.50,149.80 L162.17,148.91 L161.55,148.19 L160.71,147.71 L159.76,147.52 L158.77,147.65 L157.87,148.08 L157.16,148.76 L156.70,149.63 L156.55,150.58 L156.73,151.51 L157.18,152.27 "/><path d="M156.96,145.33 L157.09,145.24 L157.24,145.20 L157.80,144.93 L158.41,144.85 L158.57,144.80 L158.74,144.80 L159.33,144.73 L159.91,144.84 L158.74,144.80 "/><path d="M157.24,145.20 L158.41,144.85 "/><path d="M162.84,146.59 L162.68,146.32 L162.44,146.12 L162.13,145.77 L161.72,145.53 L161.53,145.37 L161.29,145.28 L160.83,145.02 L160.30,144.91 L160.11,144.84 L159.91,144.84 "/><path d="M160.30,144.91 L161.29,145.28 "/><path d="M161.72,145.53 L162.44,146.12 "/><path d="M163.10,146.89 L163.24,147.26 "/><path d="M164.04,149.19 L164.05,150.27 "/></g><g style="stroke:#000000;stroke-width:0.529"><path d="M164.05,150.27 L164.05,150.73 L163.58,152.15 L162.66,153.37 L161.39,154.24 L159.91,154.68 L158.39,154.64 L156.98,154.11 L156.48,153.70 "/></g></g><g id="Actor_.20"><g style="stroke:#000000;stroke-width:0.176"><path d="M178.83,63.40 C178.56,63.65 178.56,63.65 178.30,63.91 C178.21,64.02 178.21,64.02 178.11,64.13 C177.85,64.45 177.85,64.45 177.59,64.77 C177.17,65.34 177.17,65.34 176.75,65.91 C176.32,66.55 176.32,66.55 175.90,67.20 C175.50,67.84 175.50,67.84 175.11,68.49 C174.79,69.07 174.79,69.07 174.47,69.65 C174.26,70.10 174.26,70.10 174.06,70.55 C173.98,70.82 173.98,70.82 173.91,71.10 "/><path d="M174.01,71.11 C174.01,70.95 174.01,70.95 174.02,70.78 C174.06,70.62 174.07,70.62 174.12,70.47 C174.21,70.27 174.21,70.27 174.29,70.07 "/><path d="M174.29,70.07 C174.55,69.56 174.55,69.56 174.81,69.05 C175.11,68.53 175.11,68.53 175.41,68.02 C175.87,67.29 175.87,67.29 176.33,66.56 C176.74,65.96 176.74,65.96 177.16,65.37 C177.54,64.87 177.54,64.87 177.93,64.38 C178.23,64.03 178.23,64.03 178.54,63.70 C178.73,63.55 178.73,63.55 178.93,63.41 "/><path d="M179.09,63.37 C178.89,63.51 178.89,63.52 178.69,63.67 C178.37,64.01 178.38,64.01 178.06,64.37 C177.67,64.87 177.67,64.87 177.28,65.38 C176.85,65.99 176.85,66.00 176.42,66.61 C176.00,67.26 176.00,67.26 175.59,67.92 C175.23,68.54 175.22,68.54 174.87,69.16 C174.60,69.68 174.60,69.68 174.34,70.20 C174.25,70.41 174.25,70.41 174.16,70.62 C174.11,70.78 174.10,70.78 174.05,70.94 C174.04,71.11 174.04,71.11 174.05,71.28 "/><path d="M181.84,65.85 C181.60,66.08 181.60,66.08 181.36,66.31 C181.03,66.70 181.03,66.70 180.71,67.10 C180.33,67.61 180.33,67.61 179.96,68.13 C179.56,68.71 179.57,68.71 179.18,69.30 C179.06,69.48 179.06,69.48 178.95,69.67 C178.71,70.07 178.70,70.07 178.46,70.47 C178.17,70.99 178.17,70.99 177.89,71.52 C177.70,71.93 177.69,71.93 177.51,72.34 C177.45,72.54 177.46,72.54 177.40,72.74 C177.39,72.79 177.39,72.79 177.38,72.83 "/><path d="M176.65,72.87 C176.72,72.60 176.72,72.60 176.80,72.33 C176.95,71.99 176.95,71.99 177.11,71.66 C177.16,71.54 177.16,71.54 177.21,71.43 C177.53,70.85 177.53,70.85 177.85,70.27 C178.24,69.62 178.24,69.62 178.64,68.98 C179.07,68.32 179.07,68.32 179.50,67.68 C179.91,67.11 179.91,67.11 180.32,66.55 C180.68,66.12 180.68,66.12 181.04,65.69 C181.30,65.43 181.30,65.43 181.57,65.18 "/><path d="M181.53,67.08 C181.36,67.24 181.36,67.24 181.19,67.40 C180.96,67.68 180.96,67.68 180.73,67.96 C180.46,68.32 180.46,68.32 180.20,68.69 C179.92,69.10 179.92,69.10 179.65,69.51 C179.39,69.92 179.39,69.92 179.14,70.34 C178.94,70.71 178.94,70.71 178.73,71.08 C178.60,71.37 178.60,71.37 178.47,71.66 C178.42,71.83 178.42,71.83 178.38,72.01 "/><path d="M179.10,63.32 L178.83,63.40 "/><path d="M173.91,71.10 L174.03,71.21 "/><path d="M174.03,71.21 L174.01,71.11 "/><path d="M178.93,63.41 L179.09,63.37 "/><path d="M182.08,66.08 L182.09,65.77 L181.84,65.85 "/><path d="M177.38,72.83 L177.50,72.95 "/><path d="M176.79,73.00 L176.65,72.87 "/><path d="M181.57,65.18 L181.84,65.09 "/><path d="M181.70,67.24 L181.70,67.02 L181.53,67.08 "/><path d="M178.38,72.01 L178.46,72.09 L178.72,71.90 "/><path d="M179.10,63.37 L179.10,63.37 "/></g><g style="stroke:#000000;stroke-width:0.529"><path d="M182.08,65.39 C182.10,65.49 182.10,65.49 182.11,65.58 C182.11,65.74 182.11,65.74 182.11,65.90 C182.10,65.99 182.10,65.99 182.08,66.08 "/><path d="M182.08,66.08 C181.89,66.66 181.89,66.66 181.70,67.24 C181.61,67.48 181.61,67.48 181.52,67.71 C181.35,68.05 181.35,68.05 181.18,68.38 C180.95,68.78 180.95,68.78 180.71,69.18 C180.45,69.60 180.45,69.60 180.18,70.01 C179.79,70.56 179.79,70.56 179.40,71.10 C179.26,71.28 179.26,71.28 179.13,71.45 C178.93,71.68 178.93,71.68 178.72,71.90 C178.30,72.29 178.30,72.29 177.87,72.68 C177.61,72.87 177.61,72.87 177.34,73.05 "/><path d="M176.43,61.58 L179.10,63.32 L179.10,63.37 L181.84,65.09 L181.98,65.22 L182.08,65.39 "/><path d="M177.34,73.05 L177.16,73.10 L176.97,73.08 L176.79,73.00 L174.05,71.28 L174.03,71.21 L173.40,70.80 "/></g></g><g id="Actor_.21"><g style="stroke:#000000;stroke-width:0.176"><path d="M146.59,90.95 C146.67,90.68 146.67,90.68 146.75,90.40 C146.81,89.99 146.81,89.99 146.87,89.57 C146.92,89.02 146.92,89.02 146.97,88.46 C146.99,87.87 146.99,87.87 147.01,87.27 C147.00,86.69 147.00,86.69 146.99,86.11 C146.96,85.60 146.96,85.60 146.93,85.10 C146.87,84.72 146.88,84.72 146.81,84.34 C146.75,84.14 146.75,84.13 146.67,83.93 "/><path d="M147.82,92.13 C147.92,91.76 147.92,91.76 148.02,91.40 C148.07,91.11 148.07,91.11 148.11,90.83 C148.15,90.54 148.16,90.54 148.20,90.25 C148.26,89.53 148.26,89.53 148.32,88.81 C148.35,88.02 148.35,88.02 148.37,87.23 C148.37,86.45 148.37,86.45 148.35,85.67 C148.31,85.00 148.31,85.00 148.26,84.32 C148.22,83.96 148.21,83.96 148.16,83.60 C148.14,83.46 148.14,83.46 148.12,83.32 C148.02,83.04 148.02,83.04 147.92,82.77 "/><path d="M169.20,90.57 C169.26,89.50 169.26,89.50 169.32,88.44 C169.33,87.65 169.33,87.65 169.33,86.85 C169.27,85.23 169.27,85.23 169.19,83.62 "/><path d="M146.43,91.12 L146.59,90.95 "/><path d="M146.67,83.93 L146.51,83.90 "/><path d="M147.60,92.35 L147.82,92.13 "/><path d="M147.92,82.77 L147.70,82.73 "/><path d="M168.84,92.69 L169.20,90.60 L166.92,90.56 "/><path d="M169.20,90.60 L169.15,83.76 "/></g><g style="stroke:#000000;stroke-width:0.529"><path d="M146.27,90.90 C146.17,90.40 146.17,90.40 146.09,89.89 C146.04,89.10 146.04,89.10 146.01,88.31 C146.04,87.14 146.04,87.13 146.09,85.96 C146.14,85.47 146.14,85.47 146.20,84.98 C146.27,84.62 146.27,84.62 146.34,84.27 C146.42,84.08 146.42,84.08 146.51,83.90 "/><path d="M147.61,92.35 L146.43,91.12 L146.27,90.90 "/><path d="M146.51,83.90 L147.71,82.73 "/><path d="M172.47,92.06 L168.84,92.69 L168.23,96.14 L165.10,96.08 "/><path d="M169.33,83.22 L173.22,84.07 "/></g></g><g id="Actor_.22"><g style="stroke:#000000;stroke-width:0.176"><path d="M194.14,9.86 C194.21,9.57 194.21,9.57 194.30,9.29 C194.51,8.82 194.52,8.82 194.73,8.36 C195.06,7.77 195.06,7.77 195.38,7.19 C195.78,6.54 195.78,6.54 196.18,5.89 C196.61,5.25 196.61,5.25 197.04,4.61 C197.45,4.05 197.45,4.05 197.87,3.49 C198.22,3.07 198.21,3.07 198.57,2.65 C198.82,2.41 198.82,2.41 199.08,2.17 "/><path d="M194.06,9.93 C194.06,9.75 194.06,9.74 194.08,9.56 C194.23,9.18 194.23,9.18 194.39,8.80 C194.66,8.26 194.66,8.26 194.94,7.73 C195.30,7.11 195.30,7.11 195.67,6.48 C196.00,5.96 196.00,5.96 196.34,5.44 C196.85,4.70 196.85,4.70 197.36,3.96 C197.75,3.46 197.75,3.46 198.14,2.96 C198.44,2.63 198.44,2.62 198.75,2.29 C198.94,2.16 198.94,2.16 199.14,2.03 "/><path d="M194.10,9.70 C194.18,9.42 194.18,9.42 194.27,9.14 C194.47,8.69 194.47,8.69 194.69,8.24 C195.00,7.66 195.00,7.66 195.32,7.09 C195.70,6.46 195.70,6.46 196.10,5.83 C196.51,5.21 196.51,5.21 196.93,4.59 C197.33,4.04 197.33,4.04 197.74,3.49 C198.08,3.08 198.08,3.08 198.42,2.67 C198.67,2.44 198.67,2.43 198.92,2.21 "/><path d="M196.80,11.71 C196.80,11.52 196.80,11.52 196.82,11.34 C196.97,10.95 196.97,10.95 197.13,10.58 C197.40,10.04 197.40,10.04 197.68,9.51 C197.84,9.23 197.84,9.23 198.00,8.96 C198.20,8.61 198.20,8.61 198.41,8.26 C198.82,7.61 198.82,7.61 199.24,6.97 C199.67,6.35 199.67,6.35 200.10,5.74 C200.49,5.24 200.49,5.24 200.88,4.74 C201.18,4.40 201.18,4.40 201.49,4.07 C201.68,3.93 201.68,3.93 201.88,3.81 "/><path d="M202.13,4.49 C201.95,4.60 201.95,4.60 201.78,4.73 C201.50,5.03 201.50,5.03 201.22,5.34 C200.87,5.78 200.87,5.79 200.52,6.24 C200.13,6.79 200.13,6.79 199.74,7.34 C199.53,7.67 199.54,7.67 199.33,7.99 C199.16,8.26 199.15,8.26 198.98,8.53 C198.65,9.10 198.65,9.09 198.32,9.66 C198.07,10.15 198.06,10.15 197.82,10.63 C197.68,10.97 197.68,10.97 197.54,11.32 C197.53,11.49 197.53,11.49 197.52,11.66 "/><path d="M201.77,5.74 C201.64,5.82 201.64,5.82 201.52,5.91 C201.32,6.12 201.32,6.12 201.13,6.34 C200.88,6.66 200.88,6.66 200.63,6.98 C200.35,7.37 200.35,7.37 200.08,7.76 C199.81,8.17 199.81,8.17 199.54,8.59 C199.31,8.99 199.31,8.99 199.07,9.40 C198.90,9.74 198.90,9.74 198.72,10.08 C198.62,10.32 198.62,10.32 198.53,10.57 C198.52,10.68 198.52,10.69 198.51,10.81 "/><path d="M194.16,10.00 L194.14,9.86 "/><path d="M199.08,2.17 L199.22,2.14 "/><path d="M194.14,9.91 L194.10,9.70 "/><path d="M198.92,2.21 L199.08,2.17 "/><path d="M202.24,4.63 L202.13,4.49 "/><path d="M197.52,11.66 L197.75,11.61 "/><path d="M201.74,6.21 L201.84,5.84 L201.77,5.74 "/><path d="M198.51,10.81 L198.68,10.77 "/></g><g style="stroke:#000000;stroke-width:0.529"><path d="M199.33,2.12 C200.60,2.96 200.61,2.96 201.88,3.81 C201.95,3.87 201.95,3.87 202.02,3.93 C202.08,4.01 202.08,4.02 202.14,4.10 C202.18,4.18 202.18,4.18 202.23,4.26 "/><path d="M202.26,4.45 C202.18,4.80 202.18,4.80 202.08,5.16 C201.91,5.68 201.91,5.68 201.74,6.21 C201.60,6.51 201.60,6.51 201.46,6.80 C201.13,7.38 201.13,7.39 200.79,7.96 C200.39,8.59 200.39,8.59 199.98,9.21 C199.72,9.57 199.72,9.57 199.45,9.93 C199.23,10.20 199.23,10.20 199.00,10.47 C198.38,11.04 198.38,11.04 197.75,11.61 C197.68,11.66 197.67,11.66 197.60,11.71 "/><path d="M187.06,5.39 L186.64,5.12 "/><path d="M196.54,0.34 L199.14,2.03 L199.22,2.14 L199.33,2.12 "/><path d="M202.23,4.26 L202.26,4.45 "/><path d="M197.60,11.71 L197.17,11.80 L196.97,11.79 L196.80,11.71 L194.16,10.00 L194.14,9.91 L194.06,9.93 L193.51,9.57 "/></g></g><g id="Actor_.23"><g style="stroke:#000000;stroke-width:0.176"><path d="M167.98,203.67 L128.88,202.89 L128.50,203.37 "/><path d="M128.14,198.06 L128.34,199.05 L128.74,199.17 L128.88,202.89 L131.30,197.13 L131.27,196.13 "/><path d="M128.57,199.38 L128.79,199.38 "/><path d="M128.78,199.12 L129.60,197.17 "/><path d="M131.30,197.13 L132.16,196.17 L136.30,194.68 L142.21,194.19 L142.10,190.41 L136.20,190.90 L133.74,191.57 "/><path d="M137.96,152.34 L139.76,149.44 "/><path d="M148.57,111.38 L138.91,140.82 "/><path d="M142.21,194.19 L168.31,194.70 "/><path d="M142.10,190.41 L168.45,190.93 "/><path d="M169.52,162.18 L143.56,161.67 "/><path d="M169.62,159.27 L144.51,158.78 "/><path d="M146.24,127.98 L147.71,125.00 "/><path d="M146.43,128.11 L146.79,127.88 "/><path d="M154.34,150.33 L153.11,148.31 "/><path d="M157.64,122.05 L158.42,121.95 L158.07,124.00 "/><path d="M166.90,96.11 L158.47,121.80 L170.99,122.20 "/><path d="M170.88,125.29 L159.65,125.06 "/><path d="M162.88,146.41 L162.15,144.10 "/><path d="M171.02,83.59 L174.89,71.81 "/><path d="M177.92,62.55 L195.00,10.54 "/><path d="M185.15,-0.00 L179.15,18.27 "/><path d="M186.50,5.45 L187.01,5.36 "/><path d="M187.95,2.45 L186.67,5.56 "/><path d="M297.00,164.72 L191.18,162.61 "/><path d="M191.28,159.71 L297.00,161.81 "/><path d="M192.54,125.72 L297.00,127.79 "/><path d="M192.66,122.63 L297.00,124.71 "/><path d="M198.03,1.31 L198.46,-0.00 "/></g><g style="stroke:#000000;stroke-width:0.529"><path d="M127.49,198.04 L127.82,201.77 L128.14,202.98 L128.50,203.37 L167.96,204.15 "/><path d="M141.10,145.35 L137.97,150.41 "/><path d="M142.15,142.14 L138.05,147.77 "/><path d="M153.83,149.23 L153.11,148.31 L152.88,147.15 L153.12,145.55 L153.86,144.10 L155.05,142.94 L156.47,142.24 L158.22,141.97 L159.83,142.27 L161.23,143.05 L162.15,144.10 L162.35,144.64 L162.37,145.30 "/><path d="M156.47,122.35 L157.64,122.05 L157.51,123.64 "/></g></g><g id="Actor_.24"><g style="stroke:#000000;stroke-width:0.176"><path d="M134.93,159.54 C134.63,157.04 134.63,157.04 134.41,154.54 C134.39,151.19 134.40,151.19 134.44,147.84 C134.70,144.93 134.62,144.90 135.02,142.03 C140.76,123.92 140.77,123.90 146.71,105.86 "/><path d="M175.73,38.28 C175.43,37.65 175.42,37.64 175.17,36.99 C174.98,35.93 174.99,35.92 174.85,34.85 C174.70,31.86 174.69,31.85 174.60,28.86 C174.73,25.49 174.72,25.49 174.91,22.12 C175.27,19.88 175.27,19.87 175.69,17.63 "/><path d="M124.57,197.99 L128.90,195.30 L132.50,195.38 "/><path d="M146.30,90.94 L124.00,158.85 "/><path d="M128.90,195.30 L193.04,-0.00 "/><path d="M147.40,126.16 L141.11,145.31 L137.97,150.48 L138.01,154.76 L136.30,159.98 L135.89,160.78 L135.54,160.85 L134.93,159.54 "/><path d="M146.71,105.86 L147.88,105.88 "/><path d="M135.44,140.18 L139.04,140.25 L138.27,144.74 L137.97,150.48 "/><path d="M138.01,154.76 L141.05,145.50 "/><path d="M139.04,140.25 L148.56,111.25 L148.37,108.54 L147.68,105.27 L147.18,104.98 L146.71,105.86 "/><path d="M154.72,127.71 L145.06,157.12 "/><path d="M148.33,120.87 L148.56,111.25 "/><path d="M150.13,79.29 L176.16,-0.00 "/><path d="M153.11,148.29 L153.83,149.22 "/><path d="M162.38,145.32 L162.16,144.12 "/><path d="M178.25,32.22 L176.54,37.44 L176.13,38.24 L175.73,38.28 "/><path d="M175.69,17.63 L179.28,17.70 L178.51,22.20 L178.21,28.07 "/><path d="M175.69,17.63 L181.48,-0.00 "/><path d="M179.28,17.70 L185.09,0.00 "/></g><g style="stroke:#000000;stroke-width:0.529"><path d="M145.06,157.12 L132.50,195.38 L128.16,198.06 L124.58,197.99 L123.71,197.57 L122.89,194.97 "/><path d="M123.54,158.83 L146.11,90.09 "/><path d="M147.40,126.16 L148.33,120.87 "/><path d="M175.70,-0.00 L149.44,79.96 "/><path d="M153.37,148.22 L153.04,147.92 "/><path d="M154.72,127.71 L196.65,-0.00 "/><path d="M161.92,144.31 L161.91,143.83 "/><path d="M178.21,28.07 L178.24,32.07 L187.77,3.22 L188.38,0.00 "/></g></g><g id="Actor_.25"><g style="stroke:#000000;stroke-width:0.176"><path d="M108.79,158.78 C109.18,159.82 109.18,159.82 109.51,160.88 C109.82,162.78 109.81,162.79 110.07,164.69 C110.25,167.24 110.25,167.24 110.40,169.79 C110.44,172.70 110.44,172.70 110.46,175.62 C110.37,178.58 110.37,178.58 110.25,181.55 C110.04,184.25 110.04,184.25 109.80,186.94 C109.49,189.02 109.50,189.02 109.16,191.09 C108.78,192.50 108.78,192.50 108.36,193.89 "/><path d="M108.16,159.36 C108.40,160.04 108.40,160.04 108.63,160.73 C108.75,161.06 108.76,161.06 108.86,161.39 C109.14,163.23 109.15,163.23 109.40,165.08 C109.58,167.54 109.57,167.54 109.72,170.00 C109.76,172.82 109.76,172.82 109.78,175.64 C109.69,178.50 109.69,178.50 109.58,181.37 C109.37,183.98 109.37,183.98 109.14,186.58 C108.90,188.22 108.89,188.22 108.63,189.85 C108.57,190.28 108.58,190.29 108.50,190.71 C108.13,192.01 108.13,192.01 107.75,193.30 "/><path d="M111.54,194.61 C111.97,193.74 111.97,193.74 112.35,192.84 C112.75,191.09 112.74,191.09 113.08,189.32 C113.38,186.88 113.38,186.87 113.65,184.42 C113.83,181.55 113.83,181.55 113.98,178.68 C114.03,175.70 114.03,175.70 114.06,172.72 C113.97,169.96 113.97,169.96 113.86,167.20 C113.68,165.21 113.66,165.21 113.47,163.22 C113.44,162.95 113.44,162.94 113.41,162.67 C113.09,161.17 113.09,161.17 112.76,159.67 "/><path d="M108.39,158.44 L108.79,158.78 "/><path d="M108.36,193.89 L107.53,194.70 "/><path d="M107.38,159.18 L107.78,159.03 L108.16,159.36 "/><path d="M107.75,193.30 L106.95,194.08 "/><path d="M112.76,159.67 L111.98,158.51 "/></g><g style="stroke:#000000;stroke-width:0.529"><path d="M105.61,166.69 C105.73,165.49 105.73,165.49 105.88,164.30 C106.22,162.59 106.21,162.58 106.59,160.89 C106.96,160.03 106.96,160.02 107.38,159.18 "/><path d="M113.31,160.24 C113.65,161.69 113.65,161.69 113.95,163.15 C114.18,165.32 114.18,165.33 114.38,167.51 C114.49,170.18 114.48,170.19 114.57,172.86 C114.57,174.01 114.56,174.01 114.54,175.17 C114.52,176.90 114.53,176.90 114.50,178.63 C114.35,181.40 114.35,181.40 114.18,184.18 C113.92,186.54 113.92,186.55 113.63,188.91 C113.30,190.62 113.30,190.62 112.93,192.32 C112.56,193.18 112.56,193.19 112.14,194.02 "/><path d="M107.38,159.18 L107.98,158.59 L108.39,158.44 L111.98,158.51 L112.57,159.13 L113.31,160.24 "/><path d="M112.14,194.02 L111.54,194.61 L107.53,194.70 L106.95,194.08 L106.19,192.96 L105.57,190.09 L105.19,186.26 "/></g></g><g id="paperID" visibility="hidden" opacity="0.00" transform="scale(0.000100)"><path style="stroke:#000000;stroke-width:0.500;fill:#e6e6e6;fill-rule:evenodd" d="M-2000.00,-2000.00L2297.00,-2000.00L2297.00,2210.00L-2000.00,2210.00zM0.00,0.00L297.00,0.00L297.00,210.00L0.00,210.00z"/><path style="fill:#000000;fill-opacity:0.118" d="M3.00,210.00L297.00,210.00L297.00,3.00L300.00,3.00L300.00,213.00L3.00,213.00z"/></g><g id="ToolTip" visibility="hidden" opacity="0" transform="translate(0,0)"><rect id="ToolTipShadow" opacity="0.20" fill="black" stroke="none" x="0" y="0" width="30" height="8"/><rect id="ToolTipBG" fill="#ffffe1" stroke="black" x="0" y="0" width="30" height="8"/><text xml:space="preserve" id="ToolTipText" fill="black" x="0" y="0" width="30" height="8">tooltip</text></g></g></svg>
