<?xml version="1.0" encoding="UTF-8" standalone="no"?>
<svg xmlns="http://www.w3.org/2000/svg" xmlns:xlink="http://www.w3.org/1999/xlink" width="297.000mm" height="210.000mm" viewBox="0.000000 0.000000 297.000000 210.000000" stroke-linejoin="round" stroke-linecap="round" fill="none" fill-rule="evenodd"><desc>Composer Export</desc><script type="text/ecmascript"><![CDATA[
if(typeof(top) != "undefined")
{
	top.ShowPaper = ShowPaper;
}
function ShowHotSpot(evt,hotspotid)
{
	var svgDocument = evt.target.ownerDocument;
	var strId = "hotspot."+hotspotid;
	var hotspot = svgDocument.getElementById(strId);
	if(hotspot)
		hotspot.setAttribute("opacity",".5");
}
function HideHotSpot(evt,hotspotid)
{
	var svgDocument = evt.target.ownerDocument;
	var strId = "hotspot."+hotspotid;
	var hotspot = svgDocument.getElementById(strId);
	if(hotspot)
		hotspot.setAttribute("opacity","0");

	var toolTip = svgDocument.getElementById('ToolTip');
	if(toolTip)
		toolTip.setAttribute("visibility","hidden");
}
function ShowToolTip(evt,hotspotid,strTooltip)
{
	if(strTooltip=="")
	return;

	// change text
	var svgDocument = evt.target.ownerDocument;
	var tiptext = svgDocument.getElementById('ToolTipText');
	if( !tiptext )
	return;
	tiptext.firstChild.nodeValue = " " + strTooltip + "  " ;

	// show tooltip before, else some refresh issue

	var toolTip = svgDocument.getElementById('ToolTip');
	if(!toolTip)
	return;

	toolTip.setAttribute("visibility","visible");
	toolTip.setAttribute("opacity",".95");

	// move tooltip
	// get viewbox

	var root = svgDocument.documentElement;
	var vbox = (root.getAttribute("viewBox")).split(' ');
	var x0 = parseFloat(vbox[0]);
	var y0 = parseFloat(vbox[1]);
	var vboxW = parseFloat(vbox[2]);
	var vboxH = parseFloat(vbox[3]);

	// get default width of svg

	var strW = root.getAttribute("width");
	var svgW = parseFloat(strW);
	if(strW.indexOf('mm') != -1)
	svgW *= 3.779;

	var strH = root.getAttribute("height");
	var svgH = parseFloat(strH);
	if(strH.indexOf('mm') != -1)
	svgH *= 3.779;  	// 96 dpi  -> 96/25.4 = 3.779

	// update the viewbox / width / height if svg is embedded in html with zoom fit all
	var realx0 = x0;
	var realy0 = y0;
	var realvboxW = vboxW;
	var realvboxH = vboxH;
	var realsvgW = svgW;
	var realsvgH = svgH;

	if ((typeof(top) == "undefined") || (typeof(top.svgctl1) != "undefined")) // embedded in html
	{
		// get window size in pxl

		svgW = window.innerWidth;
		svgH = window.innerHeight;

		// calculate real viewbox

		realsvgW = svgW;
		realsvgH = svgH;
		if((svgW / svgH) > (vboxW / vboxH))
		{
			realvboxW = (vboxH * svgW) / svgH;
			realvboxH = vboxH;
			realx0 = x0 - (realvboxW - vboxW)/2 ;
		}
		else
		{
			realvboxH = (vboxW * svgH) / svgW;
			realvboxW = vboxW;
			realy0 = y0 - (realvboxH - vboxH)/2 ;
		}
	}

	// get user zoom/pan

	var newScale = root.currentScale;
	var translation = root.currentTranslate;

	// transform pxl to user unit

	var xPos = (((evt.clientX+10- translation.x)/newScale) * realvboxW)/realsvgW  + realx0 ;
	var yPos = (((evt.clientY+5- translation.y)/newScale) * realvboxH)/ realsvgH  + realy0 ;
	var scaleForWidth = ( (1 / newScale) * realvboxH) / realsvgH;

	// move tooltip

	toolTip.setAttribute("transform", "translate(" + xPos + "," + yPos + ")" );

	// resize tooltip

	var fontsize = 12;
	tiptext.setAttribute("font-size",fontsize*scaleForWidth);
	tiptext.setAttribute("y", fontsize*scaleForWidth);
	var tipBG = svgDocument.getElementById('ToolTipBG');
	var outline = tiptext.getBBox();
	if(tipBG)
	{
		tipBG.setAttribute("stroke-width", 1*scaleForWidth);
		tipBG.setAttribute("width", Number(outline.width) );
		tipBG.setAttribute("height", Number(outline.height) + fontsize*.5*scaleForWidth );
	}
	var ToolTipShadow = svgDocument.getElementById('ToolTipShadow');
	if(ToolTipShadow)
	{
		ToolTipShadow.setAttribute("width", Number(outline.width) );
		ToolTipShadow.setAttribute("height", Number(outline.height) + fontsize*.5*scaleForWidth );
		ToolTipShadow.setAttribute("x", 3*scaleForWidth);
		ToolTipShadow.setAttribute("y", 3*scaleForWidth);
	}
}
function ShowPaper()
{
  var svgDocument = getDocument();
  var paper = svgDocument.getElementById("paperID");
  if(paper)
  {
    paper.setAttribute("transform","scale(1)");
    paper.setAttribute("opacity","1");
    paper.setAttribute("visibility","visible");
  }
  var svg = svgDocument.getRootElement();
  if(svg)
  {
    svg.setAttribute("width","307.000mm");
    svg.setAttribute("height","220.000mm");
    svg.setAttribute("viewBox","-5.000000 -5.000000 307.000000 220.000000");
  }
}
]]></script><defs/><g><path style="fill:#ffffff" d="M117.93,0.74L118.04,0.07L287.35,0.05L287.53,1.59L287.62,0.05L296.92,0.08L296.93,128.23L296.66,126.67L295.81,127.04L295.81,128.91L296.23,128.87L296.92,128.51L296.94,144.76L296.74,144.85L296.08,145.23L296.05,146.57L296.30,146.92L296.61,146.93L296.79,145.88L296.94,145.88L296.94,177.03L294.78,177.11L293.31,176.56L292.69,176.56L280.38,186.35L278.74,188.29L275.95,194.32L275.04,195.89L273.77,197.38L270.45,200.13L268.98,201.14L265.64,201.39L263.69,202.47L261.76,204.68L258.74,209.68L261.70,209.92L261.71,210.08L256.75,210.08L256.74,209.92L257.47,208.94L260.53,203.72L262.98,201.49L264.26,200.84L265.54,200.71L267.60,200.59L269.07,199.58L272.39,196.83L273.93,194.79L277.60,187.42L279.45,185.41L291.40,175.88L290.87,174.57L290.87,170.16L290.87,164.63L290.84,163.05L290.73,164.63L290.62,164.92L290.46,164.99L234.49,209.70L246.80,209.92L246.82,210.08L164.93,210.06L164.82,209.69L163.81,209.58L163.71,208.27L163.08,208.26L161.95,208.86L162.05,209.68L162.41,209.91L162.41,210.09L0.08,210.05L0.06,109.77L1.11,109.55L3.04,109.26L5.04,108.18L5.71,106.34L5.15,103.78L4.20,102.57L3.53,101.54L3.03,101.16L2.40,100.48L2.20,100.43L0.46,99.34L0.32,102.03L0.21,102.32L0.06,102.31L0.06,49.37L0.18,48.36L0.06,48.25L0.08,0.08L117.74,0.07z"/><path style="fill:#00e3e5" d="M200.37,120.35L200.72,121.02L198.62,121.68L198.11,122.82L197.08,124.58L197.55,127.58L198.35,127.94L198.28,128.15L197.80,128.36L197.08,128.36L196.26,127.78L196.01,127.15L196.13,126.86L196.79,123.16L197.92,121.26L198.73,120.43L198.58,120.19L199.86,120.03z"/><path style="fill:#e5e5e5" d="M192.41,1.46L192.54,2.75L192.55,3.88L192.40,4.61L191.46,5.87L192.12,42.67L188.00,41.48L187.03,41.98L185.76,44.02L185.69,46.51L188.80,47.55L189.62,47.63L190.92,44.21L192.01,43.09L192.94,43.11L193.24,43.65L193.38,44.66L193.38,45.80L193.22,46.53L192.29,48.06L193.06,84.91L189.36,83.64L188.43,83.63L187.72,84.04L186.58,86.21L186.59,88.62L190.45,89.82L191.84,86.22L192.59,85.32L193.06,84.91L193.51,85.03L194.06,85.56L194.20,86.86L194.20,87.70L194.06,88.72L192.97,90.17L192.29,90.27L192.95,90.45L193.65,115.53L193.65,116.94L193.77,120.05L193.53,120.42L192.29,120.78L192.00,120.21L191.58,119.45L191.19,119.40L189.37,118.67L187.87,118.66L186.86,120.13L186.74,122.18L186.77,122.61L189.35,123.67L189.51,124.05L189.00,124.49L186.30,125.36L180.15,130.23L178.71,130.78L177.86,130.78L176.85,130.54L176.95,126.39L174.74,14.16L174.64,0.36L183.87,0.37L183.19,3.42L183.57,4.89L184.02,1.47L184.59,0.36L185.52,0.36L185.55,0.72L184.93,2.10L184.86,4.32L185.20,4.52L188.83,5.67L189.34,3.75L190.60,1.43L191.30,0.98L191.38,0.57z"/><path style="fill:#616871" d="M84.67,122.49L85.19,122.80L85.92,123.10L87.34,123.15L87.43,122.99L90.65,124.45L91.26,125.41L90.83,125.55L79.21,134.93L79.68,135.21L79.59,135.31L73.08,136.73L68.67,137.12L66.45,137.12L62.58,136.85L58.91,135.78L57.02,134.36L56.44,133.83L56.18,132.64L58.11,129.53L61.04,127.22L66.29,124.75L71.42,123.20L72.25,123.05L72.52,122.96L75.02,122.66L76.66,122.38L83.56,122.22z"/><path style="fill:#616871" d="M175.66,152.28L177.63,152.46L177.76,152.59L177.24,152.96L176.94,154.05L176.93,156.48L177.25,157.20L177.51,157.83L178.03,158.13L179.36,158.13L181.08,156.82L182.12,154.79L182.27,154.23L182.48,154.25L185.37,156.07L185.26,156.25L168.12,170.05L166.84,171.20L162.92,169.38L158.77,166.08L156.57,162.43L156.54,161.70L156.42,161.60L156.29,160.51L156.29,158.82L156.69,157.74L157.11,157.11L157.19,156.36L159.84,154.33L161.69,153.40L162.41,153.36L162.23,154.26L162.63,155.83L162.90,156.46L163.70,157.03L164.74,157.03L166.63,155.60L167.58,153.79L168.04,152.05L169.03,151.88L171.25,151.72z"/><path style="fill:#00fdff" d="M202.43,121.70L202.33,122.05L200.86,122.54L200.67,123.46L199.44,125.56L199.84,126.94L199.92,128.18L199.66,128.31L199.10,128.18L198.35,127.94L197.55,127.58L197.08,124.58L198.11,122.82L198.62,121.68L200.72,121.02z"/><path style="fill:#00e3e5" d="M114.08,92.20L114.51,93.75L114.50,94.59L114.36,95.88L113.80,97.53L112.89,98.83L111.51,99.95L110.22,99.63L109.39,98.81L108.03,98.24L107.14,97.18L107.05,96.51L109.38,97.16L109.61,98.39L109.93,98.30L109.94,96.70L110.48,94.49L111.88,92.30L113.06,91.58L113.55,91.62z"/><path style="fill:#00e3e5" d="M192.00,120.21L192.01,121.91L191.06,123.49L189.51,124.05L189.35,123.67L186.77,122.61L186.74,122.18L189.35,122.92L189.56,122.00L190.16,121.77L191.01,120.15L191.19,119.40L191.58,119.45z"/><path style="fill:#00e3e5" d="M202.89,121.95L203.31,123.25L203.31,124.66L203.16,125.67L201.81,127.90L200.78,128.31L199.92,128.18L199.84,126.94L199.44,125.56L200.67,123.46L200.86,122.54L202.33,122.05L202.43,121.70z"/><path style="fill:#6c737e" d="M0.26,109.41L0.06,109.48L0.06,102.31L0.21,102.32z"/><path style="fill:#6c737e" d="M186.43,156.68L186.63,158.85L185.74,160.12L185.74,160.87L186.33,161.96L187.41,162.54L189.41,162.91L191.04,162.85L191.13,162.50L191.89,164.63L191.58,167.04L189.53,169.67L185.15,172.19L181.00,173.00L173.44,172.97L167.56,171.64L166.84,171.20L168.12,170.05L185.26,156.25L185.37,156.07z"/><path style="fill:#6c737e" d="M262.78,199.18L261.79,199.75L258.45,202.19L249.36,209.67L256.74,209.92L256.75,210.08L246.82,210.08L246.80,209.92L260.23,199.28L260.97,198.89z"/><path style="fill:#6c737e" d="M267.23,207.87L266.12,210.09L261.71,210.08L261.70,209.92L263.15,207.72L264.19,206.78L265.00,206.59L265.38,207.06L265.44,208.12L265.84,207.30z"/><path style="fill:#00001c" d="M41.93,95.37L40.79,95.22L41.92,95.14z"/><path style="fill:#e5e5e5" d="M22.91,63.10L22.06,63.38L21.32,63.79L6.53,75.77L6.25,69.59L5.15,13.33L5.05,0.36L21.70,0.36z"/><path style="fill:#e5e5e5" d="M88.71,84.75L89.70,88.50L89.67,89.65L89.97,90.71L89.98,92.10L90.25,93.19L90.24,94.33L90.09,95.07L89.41,96.08L88.88,96.07L89.27,95.33L88.98,90.82L88.16,85.85L87.31,84.21L87.33,83.16L87.86,83.08z"/><path style="fill:#e5e5e5" d="M82.20,84.88L82.40,85.03L82.40,85.67L81.13,86.69L80.64,86.79L80.40,85.67L80.84,84.74z"/><path style="fill:#e5e5e5" d="M72.52,122.96L72.25,123.05L71.42,123.20L66.29,124.75L61.04,127.22L58.11,129.53L56.18,132.64L56.15,130.88L57.84,128.16L59.67,126.68L65.45,123.64L72.15,121.69z"/><path style="fill:#e5e5e5" d="M87.43,122.99L87.34,123.15L85.92,123.10L85.19,122.80L85.76,122.64L86.60,122.77z"/><path style="fill:#e5e5e5" d="M235.17,130.77L235.97,132.73L236.33,136.21L236.17,136.31L236.11,139.24L236.00,139.51L235.62,142.01L235.75,142.55L235.33,142.67L235.26,143.38L235.03,143.82L234.49,143.87L234.87,142.48L235.41,136.96L235.41,134.94L234.86,132.46L234.00,130.80L234.02,130.08L234.59,129.71z"/><path style="fill:#e5e5e5" d="M273.86,144.47L275.28,148.08L275.43,148.92L275.83,150.57L275.98,151.40L276.66,154.42L276.64,155.27L276.80,156.27L276.20,157.39L275.58,157.39L275.67,154.25L273.74,146.53L272.92,145.12L272.89,144.40L273.73,144.31z"/><path style="fill:#e5e5e5" d="M296.08,145.23L296.74,144.85L296.79,145.88L296.61,146.93L296.30,146.92L296.05,146.57z"/><path style="fill:#e5e5e5" d="M177.26,151.18L177.53,151.46L177.63,152.46L175.66,152.28L171.25,151.72L169.03,151.88L168.04,152.05L167.58,153.79L166.63,155.60L164.74,157.03L163.70,157.03L162.90,156.46L162.63,155.83L162.86,154.32L163.98,152.84L162.41,153.36L161.69,153.40L159.84,154.33L157.19,156.36L157.80,155.04L159.88,153.27L161.50,152.40L165.54,150.92L168.59,150.66L173.09,150.66z"/><path style="fill:#e5e5e5" d="M59.73,165.93L60.75,165.26L61.68,165.26L61.76,166.57L60.47,166.68L60.38,166.84L59.71,166.65z"/><path style="fill:#e5e5e5" d="M290.87,170.16L290.87,174.57L278.34,184.58L276.14,186.79L273.47,192.12L271.30,196.01L266.73,199.72L265.32,200.26L262.78,199.18L260.97,198.89L260.23,199.28L246.80,209.92L234.49,209.70L290.46,164.99L290.62,164.92z"/><path style="fill:#e5e5e5" d="M294.78,177.11L296.74,177.38L296.93,196.89L296.92,197.18L296.56,197.25L281.74,209.21L280.75,210.07L280.45,210.07L268.11,209.76L268.27,208.27L267.98,207.99L267.23,207.87L265.84,207.30L265.38,207.06L265.00,206.59L264.19,206.78L263.15,207.72L261.70,209.92L258.74,209.68L261.76,204.68L263.69,202.47L265.64,201.39L268.98,201.14L270.45,200.13L273.77,197.38L275.04,195.89L275.95,194.32L278.74,188.29L280.38,186.35L292.69,176.56L293.31,176.56z"/><path style="fill:#e5e5e5" d="M216.66,194.61L217.39,194.21L218.32,194.21L218.40,195.53L217.01,195.75L216.64,195.61z"/><path style="fill:#616871" d="M41.92,95.14L40.79,95.22L39.92,94.86L40.90,94.40L41.91,94.31z"/><path style="fill:#616871" d="M3.03,101.16L2.64,101.64L2.67,103.54L3.38,103.51L4.20,102.57L5.15,103.78L5.71,106.34L5.04,108.18L3.04,109.26L1.11,109.55L0.26,109.41L0.21,102.32L0.32,102.03L2.20,100.43L2.40,100.48z"/><path style="fill:#616871" d="M66.74,104.59L67.37,104.33L68.94,104.24L68.95,105.04L68.75,105.18L66.90,104.89z"/><path style="fill:#616871" d="M47.17,107.75L45.79,107.85L45.14,108.11L43.76,107.64L43.55,107.33L44.76,106.53L46.87,106.17z"/><path style="fill:#616871" d="M22.89,109.82L23.53,109.57L25.10,109.48L25.12,110.26L23.97,110.38L23.06,110.13z"/><path style="fill:#616871" d="M49.64,119.75L51.84,119.12L51.85,120.18L50.06,120.07z"/><path style="fill:#616871" d="M118.58,121.59L117.12,121.35L118.31,121.05z"/><path style="fill:#616871" d="M5.53,125.99L4.05,125.76L5.52,125.47z"/><path style="fill:#616871" d="M31.73,134.53L30.04,134.35L30.40,134.11L31.73,134.01z"/><path style="fill:#616871" d="M161.89,135.61L160.74,135.76L160.21,135.46L161.86,135.14z"/><path style="fill:#616871" d="M90.18,144.23L89.33,144.31L88.52,144.02L90.18,143.67z"/><path style="fill:#616871" d="M3.33,157.12L2.17,157.27L1.66,156.98L3.29,156.65z"/><path style="fill:#616871" d="M226.95,157.25L229.16,156.92L229.17,157.67L228.31,157.82z"/><path style="fill:#616871" d="M133.48,158.53L132.01,158.30L133.48,158.01z"/><path style="fill:#616871" d="M255.90,165.77L257.84,165.17L257.85,166.24L256.34,166.13z"/><path style="fill:#616871" d="M62.33,166.93L61.22,167.07L60.38,166.84L60.47,166.68L61.76,166.57z"/><path style="fill:#616871" d="M230.48,168.78L231.46,168.04L232.28,167.75L233.85,167.67L233.86,168.97L233.01,169.25L232.20,169.39L231.35,169.39L230.71,169.14z"/><path style="fill:#616871" d="M207.37,171.59L209.57,170.98L209.59,172.03L207.80,171.92z"/><path style="fill:#616871" d="M238.27,180.29L237.14,180.43L236.27,180.08L236.96,179.59L238.26,179.53z"/><path style="fill:#616871" d="M105.09,181.12L104.21,181.26L103.41,180.97L105.07,180.62z"/><path style="fill:#616871" d="M257.08,183.93L256.83,184.30L254.63,185.97L250.21,188.16L247.53,189.06L244.61,189.67L242.39,189.56L244.54,187.74L246.74,186.34L246.88,186.15L248.28,185.68L251.59,184.31L253.52,183.75L256.50,183.43z"/><path style="fill:#616871" d="M192.22,187.17L191.07,187.32L190.54,187.03L192.19,186.71z"/><path style="fill:#616871" d="M33.37,189.68L31.71,189.52L33.37,189.18z"/><path style="fill:#616871" d="M217.01,195.75L218.40,195.53L218.48,195.79L218.41,196.02L217.17,195.89z"/><path style="fill:#616871" d="M265.32,200.26L265.54,200.71L264.26,200.84L262.98,201.49L260.53,203.72L257.47,208.94L256.74,209.92L249.36,209.67L258.45,202.19L261.79,199.75L262.78,199.18z"/><path style="fill:#616871" d="M76.67,204.02L75.19,203.81L76.66,203.53z"/><path style="fill:#616871" d="M162.97,210.09L162.41,210.09L162.41,209.91L162.78,209.67L163.81,209.58z"/><path style="fill:#000020" d="M117.93,0.74L117.74,0.07L118.04,0.07z"/><path style="fill:#000020" d="M287.53,1.59L287.35,0.05L287.62,0.05z"/><path style="fill:#000020" d="M192.55,3.88L192.54,2.75L192.67,2.86z"/><path style="fill:#000020" d="M193.38,45.80L193.38,44.66L193.49,44.77z"/><path style="fill:#000020" d="M0.06,49.37L0.06,48.25L0.18,48.36z"/><path style="fill:#000020" d="M35.35,63.12L35.75,63.25L35.77,64.17z"/><path style="fill:#000020" d="M194.20,87.70L194.20,86.86L194.33,86.98z"/><path style="fill:#000020" d="M89.67,89.65L89.70,88.50L89.81,88.61z"/><path style="fill:#000020" d="M89.98,92.10L89.97,90.71L90.09,90.81z"/><path style="fill:#000020" d="M90.24,94.33L90.25,93.19L90.36,93.30z"/><path style="fill:#000020" d="M114.50,94.59L114.51,93.75L114.63,93.88z"/><path style="fill:#000020" d="M41.93,95.37L41.92,95.14L42.76,95.21z"/><path style="fill:#000020" d="M47.98,108.10L48.00,107.90L48.83,107.89z"/><path style="fill:#000020" d="M45.94,108.33L45.14,108.11L45.79,107.85z"/><path style="fill:#000020" d="M47.86,108.28L47.23,108.20L47.98,108.10z"/><path style="fill:#000020" d="M120.18,110.30L120.02,110.30L120.14,106.24z"/><path style="fill:#000020" d="M193.65,116.94L193.65,115.53L193.76,115.64z"/><path style="fill:#000020" d="M201.73,117.77L202.00,117.81L202.04,119.07z"/><path style="fill:#000020" d="M192.29,120.78L192.01,121.91L192.00,120.21z"/><path style="fill:#000020" d="M203.31,124.66L203.31,123.25L203.42,123.35z"/><path style="fill:#000020" d="M196.13,126.86L196.01,127.15L195.83,126.31z"/><path style="fill:#000020" d="M199.10,128.18L198.28,128.15L198.35,127.94z"/><path style="fill:#000020" d="M199.66,128.31L199.92,128.18L200.78,128.31z"/><path style="fill:#000020" d="M236.51,137.54L236.33,136.21L236.49,136.30z"/><path style="fill:#000020" d="M236.23,140.85L236.00,139.51L236.11,139.24L236.24,139.34z"/><path style="fill:#000020" d="M235.62,142.01L235.97,142.13L235.99,142.43L235.75,142.55z"/><path style="fill:#000020" d="M235.26,143.38L235.33,142.67L235.75,142.55z"/><path style="fill:#000020" d="M296.94,145.88L296.79,145.88L296.74,144.85L296.94,144.76z"/><path style="fill:#000020" d="M275.43,148.92L275.28,148.08L275.41,148.18z"/><path style="fill:#000020" d="M169.84,149.84L170.45,149.67L170.91,149.86z"/><path style="fill:#000020" d="M275.98,151.40L275.83,150.57L275.95,150.67z"/><path style="fill:#000020" d="M276.64,155.27L276.66,154.42L276.79,154.54z"/><path style="fill:#000020" d="M186.63,158.85L186.43,156.68L186.59,156.73z"/><path style="fill:#000020" d="M290.87,164.63L290.73,164.63L290.84,163.05z"/><path style="fill:#000020" d="M234.42,169.26L233.01,169.25L233.86,168.97z"/><path style="fill:#000020" d="M268.10,194.70L267.67,196.09L267.65,194.84L267.85,194.45z"/><path style="fill:#000020" d="M218.41,196.02L218.48,195.79L219.27,195.87z"/><path style="fill:#000020" d="M287.01,196.62L286.87,195.90L287.03,195.81z"/><path style="fill:#000020" d="M265.84,207.30L265.44,208.12L265.38,207.06z"/><path style="fill:#00fdff" d="M111.59,91.68L113.06,91.58L111.88,92.30L110.48,94.49L109.94,96.70L109.93,98.30L109.61,98.39L109.38,97.16L107.05,96.51L107.05,95.41L107.45,93.66L108.43,92.16L109.56,91.36L110.77,91.37z"/><path style="fill:#00fdff" d="M113.24,94.41L113.25,95.88L112.96,96.69L112.07,97.76L111.33,97.75L111.06,97.08L111.07,96.23L111.88,94.21L112.70,94.09z"/><path style="fill:#00fdff" d="M191.19,119.40L191.01,120.15L190.16,121.77L189.56,122.00L189.35,122.92L186.74,122.18L186.86,120.13L187.87,118.66L189.37,118.67z"/><path style="fill:#00fdff" d="M202.63,123.88L202.61,125.67L201.41,127.28L200.87,127.32L200.64,126.69L200.65,125.36L201.41,123.63L202.35,123.60z"/><path style="fill:#00fdff" d="M195.83,126.31L195.84,125.48L196.24,123.16L197.80,120.59L198.58,120.19L198.73,120.43L197.92,121.26L196.79,123.16L196.13,126.86z"/><path style="fill:#6c737e" d="M43.74,94.68L42.76,95.21L41.92,95.14L41.91,94.31z"/><path style="fill:#6c737e" d="M3.53,101.54L4.20,102.57L3.38,103.51L2.67,103.54L2.64,101.64L3.03,101.16z"/><path style="fill:#6c737e" d="M70.50,104.61L70.20,104.90L68.95,105.04L68.94,104.24L69.98,104.32z"/><path style="fill:#6c737e" d="M49.81,107.08L49.76,107.34L48.83,107.89L48.00,107.90L47.17,107.75L46.87,106.17L47.90,106.26z"/><path style="fill:#6c737e" d="M26.65,109.94L25.39,110.39L25.12,110.26L25.10,109.48L26.13,109.56z"/><path style="fill:#6c737e" d="M53.44,119.74L53.09,120.07L51.85,120.18L51.84,119.12z"/><path style="fill:#6c737e" d="M118.31,121.05L119.36,121.18L119.37,121.51L118.58,121.59z"/><path style="fill:#6c737e" d="M6.30,125.92L5.53,125.99L5.52,125.47L6.30,125.59z"/><path style="fill:#6c737e" d="M32.49,134.47L31.73,134.53L31.73,134.01L32.49,134.14z"/><path style="fill:#6c737e" d="M91.47,127.32L91.19,128.14L88.95,130.59L84.88,133.14L79.68,135.21L79.21,134.93L90.83,125.55L91.26,125.41L91.46,125.56z"/><path style="fill:#6c737e" d="M162.90,135.50L162.48,135.77L161.89,135.61L161.86,135.14z"/><path style="fill:#6c737e" d="M91.20,144.06L90.18,144.23L90.18,143.67z"/><path style="fill:#6c737e" d="M4.33,157.01L3.91,157.27L3.33,157.12L3.29,156.65z"/><path style="fill:#6c737e" d="M231.00,157.36L229.73,157.83L229.17,157.67L229.16,156.92L230.17,157.00z"/><path style="fill:#6c737e" d="M134.25,158.46L133.48,158.53L133.48,158.01L134.25,158.13z"/><path style="fill:#6c737e" d="M259.43,165.79L259.09,166.12L257.85,166.24L257.84,165.17z"/><path style="fill:#6c737e" d="M62.33,166.93L61.76,166.57L63.08,166.65z"/><path style="fill:#6c737e" d="M236.28,168.31L236.53,168.70L235.60,169.45L234.89,169.44L234.42,169.26L233.86,168.97L233.85,167.67L235.15,167.74z"/><path style="fill:#6c737e" d="M211.18,171.58L210.83,171.92L209.59,172.03L209.57,170.98z"/><path style="fill:#6c737e" d="M291.40,175.88L279.45,185.41L277.60,187.42L273.93,194.79L272.39,196.83L269.07,199.58L267.60,200.59L265.54,200.71L265.32,200.26L266.73,199.72L271.30,196.01L273.47,192.12L276.14,186.79L278.34,184.58L290.87,174.57z"/><path style="fill:#6c737e" d="M239.85,180.02L238.83,180.44L238.27,180.29L238.26,179.53L239.30,179.60z"/><path style="fill:#6c737e" d="M106.09,181.00L105.37,181.26L105.09,181.12L105.07,180.62z"/><path style="fill:#6c737e" d="M193.51,187.06L192.79,187.34L192.22,187.17L192.19,186.71z"/><path style="fill:#6c737e" d="M34.42,189.52L33.37,189.68L33.37,189.18L34.16,189.25z"/><path style="fill:#6c737e" d="M219.27,195.87L218.48,195.79L218.40,195.53L219.72,195.60z"/><path style="fill:#6c737e" d="M77.64,203.90L76.67,204.02L76.66,203.53L77.96,203.59z"/><path style="fill:#6c737e" d="M164.93,210.06L162.97,210.09L163.81,209.58L164.82,209.69z"/><path style="fill:#00001c" d="M22.06,63.38L22.91,63.10L23.08,63.25z"/><path style="fill:#00001c" d="M192.95,90.45L192.29,90.27L192.97,90.17z"/><path style="fill:#00001c" d="M0.06,109.77L0.06,109.48L0.26,109.41L1.11,109.55z"/><path style="fill:#00001c" d="M23.97,110.38L25.12,110.26L25.39,110.39z"/><path style="fill:#00001c" d="M120.12,111.91L119.69,111.77L119.89,110.57L120.02,110.30L120.18,110.30z"/><path style="fill:#00001c" d="M85.76,122.64L85.19,122.80L84.67,122.49z"/><path style="fill:#00001c" d="M87.43,122.99L86.60,122.77L87.34,122.82z"/><path style="fill:#00001c" d="M160.74,135.76L161.89,135.61L162.48,135.77z"/><path style="fill:#00001c" d="M90.05,144.42L89.33,144.31L90.18,144.23z"/><path style="fill:#00001c" d="M2.17,157.27L3.33,157.12L3.91,157.27z"/><path style="fill:#00001c" d="M228.31,157.82L229.17,157.67L229.73,157.83z"/><path style="fill:#00001c" d="M156.57,162.43L156.42,161.60L156.54,161.70z"/><path style="fill:#00001c" d="M61.22,167.07L60.47,167.01L60.38,166.84z"/><path style="fill:#00001c" d="M290.87,170.16L290.62,164.92L290.73,164.63L290.87,164.63z"/><path style="fill:#00001c" d="M296.94,177.31L296.74,177.38L294.78,177.11L296.94,177.03z"/><path style="fill:#00001c" d="M237.14,180.43L238.27,180.29L238.83,180.44z"/><path style="fill:#00001c" d="M104.21,181.26L105.09,181.12L105.37,181.26z"/><path style="fill:#00001c" d="M256.50,183.43L257.23,183.48L257.08,183.93z"/><path style="fill:#00001c" d="M191.07,187.32L192.22,187.17L192.79,187.34z"/><path style="fill:#00001c" d="M267.85,194.45L268.15,193.69L268.32,193.63L268.10,194.70z"/><path style="fill:#e5e5e5" d="M191.38,0.57L190.64,0.35L191.27,0.36z"/><path style="fill:#e5e5e5" d="M34.65,61.86L35.47,62.66L35.35,63.12L34.67,62.69L33.73,63.52L32.92,63.64L33.00,61.96L33.85,61.60z"/><path style="fill:#e5e5e5" d="M49.82,68.48L50.65,70.96L50.65,72.98L49.54,78.50L48.72,80.98L47.86,82.36L47.87,81.52L48.46,80.44L49.82,74.09L49.83,71.51L49.00,69.03L48.44,68.18L48.43,67.48L49.03,67.08z"/><path style="fill:#e5e5e5" d="M43.47,69.06L43.77,69.56L42.12,71.07L41.80,70.74L41.82,69.12L42.28,68.73L42.93,68.72z"/><path style="fill:#e5e5e5" d="M58.13,77.03L58.40,77.43L56.59,78.69L56.17,78.72L56.16,77.12L56.61,76.73L57.55,76.73z"/><path style="fill:#e5e5e5" d="M97.01,88.33L97.28,88.73L95.47,90.00L95.05,90.03L95.05,88.43L95.50,88.04L96.43,88.04z"/><path style="fill:#e5e5e5" d="M39.57,93.93L40.35,93.30L41.82,93.00L41.91,94.31L40.90,94.40L39.92,94.86L39.59,94.67z"/><path style="fill:#e5e5e5" d="M2.20,100.43L0.32,102.03L0.46,99.34z"/><path style="fill:#e5e5e5" d="M68.94,104.24L67.37,104.33L66.74,104.59L66.54,104.43L66.55,103.51L67.64,102.94L68.86,102.94z"/><path style="fill:#e5e5e5" d="M46.87,106.17L44.76,106.53L43.55,107.33L43.37,107.18L43.45,106.34L43.93,105.70L45.03,105.15L46.80,105.15z"/><path style="fill:#e5e5e5" d="M25.10,109.48L23.53,109.57L22.89,109.82L22.69,109.66L22.79,108.84L24.08,108.18L25.01,108.17z"/><path style="fill:#e5e5e5" d="M119.20,111.20L119.51,110.68L119.89,110.57L119.69,111.77z"/><path style="fill:#e5e5e5" d="M201.25,116.74L201.53,117.14L200.57,117.57L199.72,118.41L199.29,118.43L199.27,116.54L200.68,116.45z"/><path style="fill:#e5e5e5" d="M51.84,119.12L49.64,119.75L49.43,119.59L49.54,118.77L50.54,118.11L51.76,118.11z"/><path style="fill:#e5e5e5" d="M116.45,120.34L117.58,119.74L118.21,119.75L118.31,121.05L117.12,121.35L116.54,121.16z"/><path style="fill:#e5e5e5" d="M69.30,121.13L69.96,121.14L69.97,121.81L69.38,121.72z"/><path style="fill:#e5e5e5" d="M92.62,124.41L92.45,123.90L93.12,123.91L93.17,124.53z"/><path style="fill:#e5e5e5" d="M3.48,124.84L4.49,124.17L5.43,124.17L5.52,125.47L4.05,125.76L3.47,125.56z"/><path style="fill:#e5e5e5" d="M296.93,128.23L296.92,128.51L296.23,128.87L295.81,128.91L295.81,127.04L296.66,126.67z"/><path style="fill:#e5e5e5" d="M229.35,132.45L227.85,133.58L227.42,133.60L227.40,131.71L229.06,131.64z"/><path style="fill:#e5e5e5" d="M31.73,134.01L30.40,134.11L30.04,134.35L29.66,134.11L29.67,133.39L31.00,132.70L31.33,132.73z"/><path style="fill:#e5e5e5" d="M54.24,134.21L53.57,134.22L53.56,133.87L54.29,133.59z"/><path style="fill:#e5e5e5" d="M159.84,134.50L160.57,134.10L161.79,134.10L161.86,135.14L160.21,135.46L159.81,135.20z"/><path style="fill:#e5e5e5" d="M77.94,136.90L76.71,136.95L76.73,136.63L77.40,136.35z"/><path style="fill:#e5e5e5" d="M243.70,138.00L243.73,138.61L242.49,139.67L241.96,139.73L241.73,138.62L242.23,137.68z"/><path style="fill:#e5e5e5" d="M88.14,143.04L88.60,142.65L90.09,142.66L90.18,143.67L88.52,144.02L88.12,143.76z"/><path style="fill:#e5e5e5" d="M268.23,146.65L266.59,148.00L266.28,147.68L266.26,146.30L266.48,145.98L267.96,145.98z"/><path style="fill:#e5e5e5" d="M289.18,146.34L289.65,145.93L290.28,145.94L290.31,147.46L290.06,147.78L289.39,148.01L289.16,147.67z"/><path style="fill:#e5e5e5" d="M282.33,148.29L281.07,149.29L280.64,149.32L280.62,147.43L282.01,147.35z"/><path style="fill:#e5e5e5" d="M170.45,149.67L169.84,149.84L169.37,149.64L169.49,148.81L170.33,148.71z"/><path style="fill:#e5e5e5" d="M182.27,154.23L182.12,154.79L181.08,156.82L179.36,158.13L178.03,158.13L177.51,157.83L177.25,157.20L177.50,155.17L179.17,153.14z"/><path style="fill:#e5e5e5" d="M1.28,156.01L2.01,155.61L3.23,155.61L3.29,156.65L1.66,156.98L1.25,156.71z"/><path style="fill:#e5e5e5" d="M229.16,156.92L226.95,157.25L226.71,156.73L227.39,155.97L229.06,155.60z"/><path style="fill:#e5e5e5" d="M157.11,157.11L156.69,157.74L156.78,156.78L157.19,156.36z"/><path style="fill:#e5e5e5" d="M131.43,157.38L132.75,156.70L133.37,156.70L133.48,158.01L132.01,158.30L131.43,158.10z"/><path style="fill:#e5e5e5" d="M190.75,161.12L190.68,161.41L189.54,161.52L189.64,159.73z"/><path style="fill:#e5e5e5" d="M192.83,161.41L193.79,161.41L193.83,161.77L193.47,162.35L192.95,162.27z"/><path style="fill:#e5e5e5" d="M153.76,161.50L154.62,161.40L154.53,162.27L153.77,162.26z"/><path style="fill:#e5e5e5" d="M191.04,162.85L189.41,162.91L189.53,162.54L191.13,162.50z"/><path style="fill:#e5e5e5" d="M255.53,164.83L256.54,164.16L257.76,164.16L257.84,165.17L255.90,165.77L255.51,165.55z"/><path style="fill:#e5e5e5" d="M233.85,167.67L232.28,167.75L231.46,168.04L230.48,168.78L230.45,167.30L231.73,166.65L233.76,166.36z"/><path style="fill:#e5e5e5" d="M209.57,170.98L207.37,171.59L207.17,171.44L207.28,170.61L208.28,169.95L209.50,169.95z"/><path style="fill:#e5e5e5" d="M177.11,174.10L178.07,174.09L178.11,174.45L177.75,175.04L177.23,174.96z"/><path style="fill:#e5e5e5" d="M235.96,178.89L237.54,178.21L238.16,178.21L238.26,179.53L236.96,179.59L236.27,180.08L235.94,179.90z"/><path style="fill:#e5e5e5" d="M102.93,180.42L103.57,179.68L104.98,179.61L105.07,180.62L103.41,180.97z"/><path style="fill:#e5e5e5" d="M246.88,186.15L246.74,186.34L244.54,187.74L242.39,189.56L241.91,189.36L242.05,188.27L243.04,187.06L246.09,185.09L246.43,185.12z"/><path style="fill:#e5e5e5" d="M192.19,186.71L190.54,187.03L190.33,186.87L190.46,186.06L191.19,185.67L192.12,185.67z"/><path style="fill:#e5e5e5" d="M31.33,188.55L31.80,188.15L33.27,187.87L33.37,189.18L31.71,189.52L31.31,189.26z"/><path style="fill:#e5e5e5" d="M76.66,203.53L75.19,203.81L74.80,203.70L74.92,202.60L75.64,202.21L76.57,202.21z"/><path style="fill:#e5e5e5" d="M161.95,208.86L163.08,208.26L163.71,208.27L163.81,209.58L162.78,209.67L162.41,209.91L162.05,209.68z"/><path style="fill:#ffffff" d="M191.23,2.29L190.45,3.48L190.16,5.20L189.84,5.19L189.90,3.75L190.74,2.11L191.56,1.99z"/><path style="fill:#ffffff" d="M13.14,22.39L12.87,23.63L12.22,24.64L11.40,24.77L11.24,24.57L11.24,23.14L11.93,21.84L12.87,21.88z"/><path style="fill:#ffffff" d="M18.67,38.99L18.58,40.10L17.73,41.75L17.02,41.77L16.76,41.38L16.75,40.24L17.48,38.69L18.11,38.66z"/><path style="fill:#ffffff" d="M184.02,45.61L184.66,42.92L186.08,40.70L186.59,40.60L185.65,41.98L184.86,43.67L184.40,46.80z"/><path style="fill:#ffffff" d="M191.27,45.67L190.99,47.39L190.67,47.39L190.72,45.94L191.57,44.32L192.06,43.90L192.38,43.90z"/><path style="fill:#ffffff" d="M193.06,84.91L192.59,85.32L191.84,86.22L190.45,89.82L186.59,88.62L186.58,86.21L187.72,84.04L188.43,83.63L189.36,83.64z"/><path style="fill:#ffffff" d="M184.85,87.80L185.49,85.11L186.62,83.21L187.37,82.51L187.69,82.51L186.62,83.76L185.48,86.48L185.23,89.00z"/><path style="fill:#ffffff" d="M191.55,87.86L192.58,86.09L193.21,86.10L192.10,87.58L191.85,89.54L191.59,89.49z"/><path style="fill:#ffffff" d="M162.23,154.26L162.41,153.36L163.98,152.84L162.86,154.32L162.63,155.83z"/><path style="fill:#ffffff" d="M281.50,190.91L281.20,192.40L280.54,193.41L279.72,193.54L279.56,193.34L279.58,191.94L280.37,190.45L280.66,190.37z"/><path style="fill:#ffffff" d="M269.61,193.69L269.62,194.60L268.68,196.44L267.88,196.57L267.67,196.09L268.10,194.70L268.32,193.63L268.68,193.35z"/><path style="fill:#ffffff" d="M296.93,196.89L296.74,177.38L296.94,177.31z"/><path style="fill:#ffffff" d="M287.01,196.62L287.03,195.81L287.71,194.23L288.92,194.22L288.91,195.43L288.06,197.08L287.26,197.02z"/><path style="fill:#ffffff" d="M268.27,208.27L268.11,209.76L280.45,210.07L266.12,210.09L267.23,207.87L267.98,207.99z"/><path style="fill:#ffffff" d="M296.92,210.05L280.75,210.07L281.74,209.21L296.56,197.25L296.92,197.18z"/><g id="Actor_.0"><g style="stroke:#000000;stroke-width:0.176"><path d="M260.55,206.30 C261.30,205.11 261.31,205.11 262.10,203.95 C262.93,203.06 262.93,203.05 263.80,202.20 C264.64,201.68 264.65,201.67 265.52,201.20 "/><path d="M264.44,206.33 C263.89,206.74 263.89,206.74 263.37,207.18 C262.85,207.84 262.85,207.85 262.36,208.53 C261.99,209.26 261.99,209.26 261.65,210.00 "/><path d="M266.74,207.34 C266.79,207.71 266.79,207.71 266.81,208.08 C266.77,208.37 266.77,208.37 266.72,208.66 C266.62,208.96 266.62,208.96 266.52,209.25 C266.29,209.63 266.29,209.63 266.06,210.00 "/><path d="M268.43,199.91 C270.15,198.54 270.16,198.54 271.86,197.16 C272.33,196.71 272.33,196.71 272.78,196.25 C273.22,195.66 273.22,195.66 273.65,195.05 C274.03,194.34 274.03,194.34 274.40,193.63 "/><path d="M275.90,194.12 C275.53,194.83 275.53,194.84 275.14,195.54 C274.72,196.15 274.72,196.15 274.28,196.74 C273.83,197.20 273.83,197.21 273.36,197.65 "/><path d="M278.08,189.35 C278.40,188.72 278.40,188.72 278.74,188.11 C279.11,187.58 279.11,187.57 279.50,187.05 C279.89,186.65 279.89,186.65 280.30,186.26 "/><path d="M276.58,188.86 C276.91,188.23 276.91,188.23 277.25,187.61 C277.62,187.08 277.62,187.08 278.00,186.56 C278.40,186.16 278.40,186.16 278.81,185.77 "/><path d="M280.17,193.38 C280.34,193.28 280.34,193.27 280.50,193.16 C280.68,192.96 280.68,192.96 280.85,192.75 C281.00,192.50 281.00,192.50 281.13,192.23 C281.29,191.65 281.29,191.65 281.43,191.06 C281.44,190.80 281.43,190.79 281.42,190.53 C281.37,190.32 281.37,190.32 281.30,190.12 "/><path d="M280.46,189.94 C280.29,190.10 280.29,190.10 280.12,190.26 C279.96,190.49 279.96,190.49 279.81,190.72 C279.61,191.30 279.60,191.30 279.42,191.88 C279.38,192.16 279.39,192.16 279.37,192.45 C279.40,192.68 279.40,192.69 279.44,192.92 "/><path d="M286.96,196.61 C286.92,196.37 286.92,196.37 286.90,196.13 C286.91,195.85 286.91,195.84 286.94,195.56 C287.13,194.98 287.13,194.98 287.34,194.41 C287.48,194.17 287.49,194.17 287.65,193.94 C287.80,193.80 287.80,193.80 287.95,193.66 "/><path d="M288.83,193.80 C288.90,194.01 288.90,194.01 288.95,194.21 C288.96,194.48 288.97,194.48 288.96,194.74 C288.82,195.33 288.82,195.33 288.66,195.92 C288.53,196.18 288.52,196.18 288.38,196.44 C288.22,196.64 288.22,196.64 288.05,196.83 C287.88,196.95 287.88,196.95 287.71,197.06 "/><path d="M259.37,205.33 L256.75,210.00 "/><path d="M258.51,210.00 L260.55,206.30 L259.05,205.81 "/><path d="M265.52,201.20 L267.12,201.03 L265.62,200.53 L266.31,200.65 L267.81,201.14 L268.83,201.03 L269.93,200.40 L268.43,199.91 L267.34,200.54 L266.32,200.65 "/><path d="M265.02,206.17 L265.45,206.81 L266.94,207.30 L266.33,206.39 L265.46,206.05 L264.44,206.33 "/><path d="M265.31,200.57 L265.62,200.53 "/><path d="M266.94,207.30 L267.18,207.49 L266.74,207.34 "/><path d="M265.45,206.81 L265.55,206.95 L266.74,207.34 "/><path d="M267.87,210.00 L268.21,209.15 L268.30,208.04 L268.18,207.63 L267.97,207.38 L267.68,207.31 L267.18,207.49 "/><path d="M267.12,201.03 L267.81,201.14 "/><path d="M274.40,193.63 L275.90,194.12 "/><path d="M273.36,197.65 L271.86,197.16 "/><path d="M269.93,200.40 L273.36,197.65 "/><path d="M274.40,193.63 L276.58,188.86 L278.08,189.35 "/><path d="M280.30,186.26 L292.83,176.22 "/><path d="M275.90,194.12 L278.08,189.35 "/><path d="M278.81,185.77 L291.53,175.57 "/><path d="M278.80,210.00 L297.00,195.42 "/><path d="M278.81,185.77 L280.30,186.26 "/><path d="M279.56,193.16 L279.87,193.42 L280.17,193.38 "/><path d="M281.30,190.12 L281.08,189.87 L280.79,189.81 L280.46,189.94 "/><path d="M279.44,192.92 L279.56,193.16 "/><path d="M279.39,192.20 L279.83,191.18 L279.94,190.53 "/><path d="M287.95,193.66 L288.32,193.49 L288.61,193.55 L288.83,193.80 "/><path d="M287.71,197.06 L287.39,197.10 L287.13,196.94 L286.96,196.61 "/><path d="M286.92,195.88 L287.36,194.84 L287.47,194.22 "/></g><g style="stroke:#000000;stroke-width:0.529"><path d="M264.03,200.71 C263.16,201.18 263.15,201.19 262.31,201.71 C261.44,202.56 261.44,202.57 260.61,203.45 C259.97,204.38 259.97,204.38 259.37,205.33 "/><path d="M265.31,200.57 L264.03,200.71 "/><path d="M280.28,210.00 L297.00,196.60 "/></g></g><g id="Actor_.1"><g style="stroke:#000000;stroke-width:0.176"><path d="M177.52,152.35 C177.30,152.94 177.30,152.95 177.10,153.55 C176.97,154.20 176.97,154.21 176.87,154.87 C176.86,155.46 176.86,155.47 176.88,156.06 C177.00,156.53 177.00,156.53 177.15,156.99 "/><path d="M177.38,156.92 C177.29,156.35 177.29,156.35 177.23,155.78 C177.27,155.10 177.27,155.10 177.34,154.42 C177.52,153.71 177.52,153.71 177.72,153.01 C177.82,152.75 177.82,152.75 177.94,152.50 "/><path d="M181.76,153.99 C181.74,154.17 181.74,154.17 181.70,154.34 C181.64,154.52 181.64,154.52 181.58,154.69 C181.50,154.84 181.50,154.84 181.41,155.00 C181.32,155.11 181.32,155.11 181.22,155.23 C181.19,155.24 181.19,155.24 181.17,155.26 C181.09,155.31 181.09,155.31 181.01,155.36 "/><path d="M180.57,155.08 C180.55,154.94 180.55,154.94 180.54,154.80 C180.55,154.63 180.55,154.63 180.56,154.46 C180.61,154.28 180.61,154.28 180.66,154.11 C180.73,153.94 180.73,153.94 180.80,153.77 C180.88,153.65 180.88,153.65 180.96,153.54 "/><path d="M176.79,155.17 L176.78,154.70 L176.99,153.47 L177.40,152.31 "/><path d="M178.39,158.11 L177.78,157.73 L177.58,157.32 L177.38,156.92 "/><path d="M179.95,157.50 L179.95,157.50 "/><path d="M181.76,153.81 L181.76,153.99 "/><path d="M181.01,155.36 L180.83,155.38 L180.67,155.28 L180.57,155.08 "/></g><g style="stroke:#000000;stroke-width:0.529"><path d="M182.23,154.18 C182.04,154.74 182.04,154.74 181.84,155.29 C181.58,155.79 181.58,155.79 181.31,156.27 C181.00,156.65 181.00,156.66 180.68,157.01 C179.92,157.54 179.92,157.54 179.14,158.03 "/><path d="M177.73,157.74 C177.48,157.45 177.48,157.45 177.23,157.15 C177.19,157.07 177.19,157.07 177.15,156.99 C177.09,156.83 177.09,156.83 177.04,156.66 "/><path d="M182.26,153.98 L182.23,154.18 "/><path d="M179.14,158.03 L178.39,158.11 L177.88,157.88 L177.73,157.74 "/><path d="M177.04,156.66 L176.79,155.80 L176.79,155.17 "/></g></g><g id="Actor_.2"><g style="stroke:#000000;stroke-width:0.176"><path d="M77.89,203.53 L76.51,203.22 L75.09,203.59 "/><path d="M106.26,180.80 L104.94,180.49 L103.45,180.86 "/><path d="M134.63,158.07 L133.25,157.75 L131.83,158.12 "/><path d="M160.20,135.39 L161.62,135.02 L163.00,135.34 "/><path d="M165.12,209.64 L163.41,209.35 L162.29,209.70 "/><path d="M165.29,170.32 L184.28,155.11 "/><path d="M168.60,171.72 L186.67,157.24 "/><path d="M193.49,186.91 L191.79,186.61 L190.66,186.96 "/><path d="M211.32,171.40 L209.05,170.89 L207.47,171.46 "/><path d="M219.66,195.51 L218.03,195.21 L216.83,195.57 "/><path d="M230.95,157.15 L228.69,156.64 L227.11,157.22 "/><path d="M227.98,156.78 L228.00,157.60 "/><path d="M236.64,168.42 L235.16,167.59 L233.01,167.43 L231.08,167.99 L230.43,168.56 "/><path d="M236.09,179.88 L238.42,179.30 L239.93,179.82 "/><path d="M246.45,210.00 L259.77,199.33 L261.27,199.82 L262.08,199.32 L263.34,199.26 L262.05,198.82 L262.25,198.92 "/><path d="M261.27,199.82 L248.56,210.00 "/><path d="M259.57,165.58 L257.40,165.06 L255.73,165.64 "/><path d="M259.77,199.33 L261.36,198.66 L262.05,198.82 "/><path d="M265.21,200.17 L266.94,199.41 L268.29,199.86 L266.62,200.68 L263.34,199.26 "/><path d="M265.18,210.00 L265.47,207.20 L266.81,207.63 "/><path d="M264.60,206.28 L265.23,206.49 "/><path d="M265.31,206.59 L264.47,206.32 "/><path d="M265.47,207.20 L265.42,206.77 "/><path d="M266.94,199.41 L271.17,195.88 L272.89,193.16 L274.23,193.57 L272.87,196.13 L268.44,199.91 "/><path d="M268.38,193.52 L267.90,193.90 "/><path d="M270.37,196.67 L271.87,197.16 "/><path d="M272.91,193.14 L276.50,186.07 L281.78,181.69 "/><path d="M274.40,193.63 L276.59,188.86 L275.09,188.36 "/><path d="M276.59,188.86 L278.81,185.77 L277.31,185.27 "/><path d="M278.81,185.77 L291.53,175.57 "/><path d="M279.39,192.19 L279.93,190.55 "/><path d="M286.92,195.87 L287.45,194.24 "/></g><g style="stroke:#000000;stroke-width:0.529"><path d="M235.51,169.25 C234.83,169.08 234.83,169.08 234.14,168.95 C233.59,168.94 233.59,168.94 233.04,168.96 C232.51,169.05 232.51,169.05 231.99,169.16 C231.79,169.23 231.79,169.23 231.60,169.32 "/><path d="M281.78,181.69 L291.02,174.29 "/></g></g><g id="Actor_.3"><g style="stroke:#000000;stroke-width:0.176"/><g style="stroke:#000000;stroke-width:0.529"><path d="M200.91,116.88 L201.15,116.60 L201.23,116.55 "/><path d="M201.89,117.89 L201.92,117.49 L201.90,117.39 "/></g></g><g id="Actor_.4"><g style="stroke:#000000;stroke-width:0.176"><path d="M2.88,100.79 L2.34,102.34 "/><path d="M11.06,23.97 L11.77,22.60 L11.86,21.55 "/><path d="M17.46,38.44 L17.36,39.49 L16.66,40.87 "/><path d="M46.99,108.18 L45.46,107.68 "/></g><g style="stroke:#000000;stroke-width:0.529"><path d="M35.35,62.31 L35.24,62.97 "/></g></g><g id="Actor_.5"><g style="stroke:#000000;stroke-width:0.176"><path d="M5.61,105.39 L0.53,109.47 "/><path d="M4.45,156.84 L3.07,156.52 L1.64,156.89 "/><path d="M4.16,102.15 L3.48,103.29 L2.97,103.54 L2.56,103.40 L2.34,102.34 "/><path d="M3.85,125.56 L5.27,125.18 L6.65,125.50 "/><path d="M26.70,109.70 L24.79,109.19 L23.39,109.45 L22.85,109.79 "/><path d="M32.82,134.11 L31.44,133.79 L30.02,134.16 "/><path d="M34.56,189.28 L32.86,188.98 L31.73,189.33 "/><path d="M43.69,94.59 L41.79,94.08 L40.39,94.34 L39.84,94.68 "/><path d="M43.62,107.16 L44.55,106.44 L46.73,105.98 L48.79,106.33 L49.79,107.04 "/><path d="M53.57,119.52 L51.67,119.01 L50.26,119.28 L49.72,119.61 "/><path d="M62.93,166.54 L61.23,166.25 L60.10,166.60 "/><path d="M66.71,104.50 L67.25,104.17 L68.66,103.90 L70.56,104.41 "/><path d="M90.95,124.58 L77.07,135.71 "/><path d="M91.40,127.26 L83.59,133.52 "/><path d="M91.29,143.80 L89.60,143.52 L88.47,143.87 "/><path d="M119.66,121.07 L117.97,120.79 L116.84,121.13 "/></g><g style="stroke:#000000;stroke-width:0.529"><path d="M48.71,107.83 C48.28,107.71 48.28,107.70 47.85,107.60 C47.31,107.55 47.31,107.55 46.76,107.51 C46.22,107.56 46.22,107.56 45.67,107.62 C45.20,107.75 45.20,107.75 44.73,107.90 "/><path d="M2.84,100.76 L2.52,101.43 L2.34,102.34 L2.79,101.30 L2.88,100.79 "/></g></g><g id="Actor_.6"><g style="stroke:#000000;stroke-width:0.176"><path d="M163.15,156.33 C162.97,155.88 162.96,155.87 162.81,155.41 C162.76,154.81 162.76,154.80 162.74,154.19 C162.83,153.48 162.83,153.48 162.94,152.77 "/><path d="M166.14,154.03 C166.10,153.92 166.10,153.91 166.06,153.80 C166.05,153.65 166.05,153.65 166.04,153.50 C166.06,153.32 166.06,153.32 166.09,153.15 C166.14,152.97 166.14,152.97 166.20,152.80 C166.26,152.67 166.26,152.68 166.32,152.55 C166.34,152.52 166.34,152.51 166.36,152.48 C166.45,152.35 166.45,152.35 166.55,152.23 C166.65,152.15 166.65,152.15 166.75,152.07 "/><path d="M167.22,152.28 C167.25,152.41 167.25,152.41 167.27,152.55 C167.27,152.71 167.27,152.71 167.26,152.88 C167.22,153.06 167.22,153.06 167.18,153.23 C167.11,153.41 167.11,153.41 167.04,153.57 C166.95,153.72 166.95,153.72 166.86,153.86 C166.76,153.97 166.76,153.97 166.66,154.07 "/><path d="M162.49,152.92 L162.41,153.29 L162.36,154.53 L162.55,155.55 "/><path d="M162.36,152.97 L162.32,153.14 L162.28,153.96 "/><path d="M163.70,156.84 L163.15,156.33 "/><path d="M166.75,152.07 L166.94,152.03 L167.11,152.10 L167.22,152.28 "/><path d="M166.66,154.07 L166.46,154.17 L166.32,154.16 L166.28,154.16 L166.14,154.03 "/></g><g style="stroke:#000000;stroke-width:0.529"><path d="M167.89,152.17 C167.77,152.74 167.77,152.74 167.64,153.30 C167.43,153.84 167.43,153.85 167.20,154.38 C166.93,154.85 166.93,154.85 166.64,155.30 C166.33,155.64 166.32,155.64 166.00,155.96 C165.62,156.23 165.61,156.23 165.22,156.49 C164.82,156.70 164.82,156.70 164.42,156.90 "/><path d="M163.07,156.41 C162.85,156.06 162.85,156.06 162.63,155.70 C162.59,155.63 162.59,155.63 162.55,155.55 C162.50,155.39 162.50,155.39 162.45,155.24 "/><path d="M167.91,151.69 L167.89,152.17 "/><path d="M164.42,156.90 L163.70,156.84 L163.22,156.55 L163.07,156.41 "/><path d="M162.45,155.24 L162.27,154.29 L162.28,153.96 "/></g></g><g id="Actor_.7"><g style="stroke:#000000;stroke-width:0.176"><path d="M185.88,160.87 C186.17,161.19 186.17,161.19 186.48,161.50 C186.70,161.64 186.70,161.63 186.92,161.76 C187.18,161.88 187.18,161.88 187.45,161.99 C188.06,162.14 188.06,162.14 188.68,162.28 C189.35,162.32 189.36,162.32 190.03,162.34 C190.61,162.28 190.62,162.28 191.19,162.20 "/><path d="M190.83,161.21 C190.40,161.27 190.40,161.27 189.98,161.32 C189.47,161.30 189.47,161.30 188.96,161.27 C188.49,161.16 188.49,161.16 188.03,161.04 C187.83,160.97 187.83,160.96 187.63,160.88 C187.46,160.78 187.46,160.78 187.30,160.68 C187.06,160.44 187.06,160.44 186.84,160.20 "/><path d="M185.71,160.17 L185.88,160.87 "/><path d="M186.84,160.20 L186.71,159.67 L186.70,158.84 "/></g><g style="stroke:#000000;stroke-width:0.529"><path d="M190.72,162.69 C190.04,162.73 190.04,162.73 189.36,162.74 C188.70,162.66 188.70,162.66 188.05,162.56 C187.49,162.38 187.48,162.38 186.93,162.17 C186.53,161.90 186.52,161.89 186.14,161.60 "/><path d="M191.32,162.56 L190.72,162.69 "/><path d="M186.14,161.60 L185.74,160.93 L185.71,160.17 L185.98,159.47 L186.70,158.84 L186.66,156.58 "/></g></g><g id="Actor_.8"><g style="stroke:#000000;stroke-width:0.176"><path d="M85.09,122.24 L85.45,122.60 L86.42,123.01 L87.38,122.95 "/></g><g style="stroke:#000000;stroke-width:0.529"><path d="M87.72,122.73 L87.38,122.95 L86.73,123.04 L86.42,123.01 L85.76,122.86 L85.61,122.80 L85.14,122.54 L84.70,122.17 "/></g></g><g id="Actor_.9"><g style="stroke:#000000;stroke-width:0.176"><path d="M0.16,49.08 L-0.00,49.34 "/><path d="M3.33,-0.00 L4.83,76.82 "/><path d="M9.31,73.24 L7.87,0.00 "/><path d="M11.86,21.55 L12.87,21.36 L12.87,23.39 L11.85,24.73 L11.06,23.97 "/><path d="M17.46,38.44 L18.57,38.37 L18.60,39.90 L17.45,41.63 L16.66,40.86 "/><path d="M21.32,63.61 L20.07,0.00 "/><path d="M23.80,63.39 L22.56,0.00 "/><path d="M33.60,61.43 L34.18,63.40 L35.74,64.10 "/><path d="M44.65,71.22 L42.95,70.33 L42.50,68.54 "/><path d="M58.94,79.13 L57.07,78.03 L56.79,76.45 "/><path d="M83.39,87.17 L81.62,86.18 L81.25,84.49 "/><path d="M97.86,90.42 L96.38,89.80 L95.72,87.74 "/><path d="M120.21,111.78 L118.01,0.00 "/><path d="M121.66,112.13 L119.45,0.00 "/><path d="M172.91,-0.00 L175.46,129.81 "/><path d="M180.01,130.13 L177.45,0.00 "/><path d="M187.28,122.65 L186.65,122.00 "/><path d="M187.78,118.56 L188.71,118.43 "/><path d="M190.48,42.04 L189.78,6.52 "/><path d="M191.31,84.12 L190.61,48.60 "/><path d="M191.44,90.72 L192.02,120.40 "/><path d="M192.99,43.23 L192.23,4.39 "/><path d="M192.17,1.14 L192.14,0.00 "/><path d="M194.36,113.11 L193.88,88.57 "/><path d="M193.82,85.26 L193.06,46.47 "/><path d="M202.03,118.77 L200.55,118.15 L199.89,116.10 "/><path d="M228.06,131.24 L228.69,133.26 L230.20,133.92 "/><path d="M244.73,140.20 L242.86,139.10 L242.59,137.52 "/><path d="M269.19,148.24 L267.32,147.14 L267.04,145.56 "/><path d="M281.21,147.01 L281.48,148.58 L283.35,149.69 "/><path d="M296.98,176.84 L295.02,176.89 L292.41,176.07 L291.27,175.33 L291.02,174.34 L287.60,-0.00 "/><path d="M292.50,176.10 L289.04,-0.00 "/><path d="M290.48,147.59 L289.95,145.70 "/><path d="M297.00,147.56 L295.91,145.72 L296.22,144.84 L297.00,144.55 "/><path d="M297.00,126.56 L295.86,126.79 L295.55,127.66 L295.90,128.75 L297.00,129.70 "/><path d="M297.00,146.01 L296.79,144.57 "/><path d="M296.44,126.52 L297.00,128.46 "/></g><g style="stroke:#000000;stroke-width:0.529"><path d="M-0.00,79.04 L1.05,79.85 "/><path d="M-0.00,49.03 L-0.00,47.60 "/><path d="M11.23,23.77 L11.68,21.79 L11.23,23.77 "/><path d="M16.66,40.86 L17.46,38.44 L16.66,40.86 "/><path d="M35.82,63.31 L34.38,61.53 "/><path d="M44.72,70.43 L43.29,68.64 "/><path d="M57.58,76.55 L59.01,78.34 "/><path d="M82.04,84.59 L83.47,86.38 "/><path d="M96.51,87.84 L97.94,89.63 "/><path d="M187.78,118.56 L186.82,120.08 L186.65,122.00 "/><path d="M202.11,117.98 L200.67,116.19 "/><path d="M230.28,133.13 L228.85,131.34 "/><path d="M244.81,139.41 L243.37,137.62 "/><path d="M267.83,145.66 L269.26,147.45 "/><path d="M283.43,148.90 L281.99,147.11 "/></g></g><g id="Actor_.10"><g style="stroke:#000000;stroke-width:0.176"><path d="M184.61,0.00 C184.32,0.63 184.32,0.63 184.05,1.27 C183.87,1.93 183.87,1.93 183.71,2.59 C183.65,3.21 183.65,3.21 183.61,3.84 C183.67,4.36 183.67,4.37 183.76,4.89 "/><path d="M184.77,4.35 C184.71,3.95 184.71,3.95 184.66,3.55 C184.69,3.08 184.69,3.08 184.74,2.61 C184.86,2.11 184.86,2.11 184.99,1.61 C185.19,1.15 185.19,1.14 185.40,0.68 C185.62,0.34 185.62,0.34 185.85,0.00 "/><path d="M189.06,6.03 C188.95,5.69 188.95,5.68 188.86,5.34 C188.84,4.90 188.84,4.90 188.84,4.46 C188.91,3.97 188.91,3.97 189.01,3.48 C189.17,2.99 189.17,2.99 189.34,2.50 C189.57,2.07 189.57,2.07 189.81,1.64 C189.94,1.47 189.94,1.47 190.08,1.31 C190.22,1.15 190.21,1.14 190.35,0.98 C190.63,0.78 190.64,0.78 190.92,0.60 "/><path d="M189.64,5.79 C189.55,5.50 189.55,5.50 189.47,5.21 C189.45,4.83 189.46,4.83 189.46,4.45 C189.52,4.03 189.52,4.03 189.60,3.61 C189.74,3.19 189.74,3.19 189.89,2.77 C190.08,2.40 190.08,2.40 190.29,2.03 C190.52,1.75 190.52,1.74 190.76,1.47 C190.99,1.30 191.00,1.30 191.24,1.14 "/><path d="M183.76,4.89 L183.79,4.95 L184.14,5.63 L184.71,5.98 "/><path d="M186.16,5.38 L185.49,5.17 L185.06,4.90 L184.77,4.35 "/><path d="M189.42,6.44 L189.06,6.03 "/><path d="M190.92,0.60 L191.45,0.54 "/><path d="M191.15,5.76 L190.85,6.04 L190.37,6.24 L189.95,6.15 L189.64,5.79 "/><path d="M191.24,1.14 L191.70,1.09 L192.06,1.31 L192.31,1.79 L192.35,2.09 "/><path d="M189.87,5.21 L189.77,4.84 "/><path d="M190.08,5.55 L189.91,5.35 L189.90,5.32 "/><path d="M189.77,4.24 L189.77,4.71 "/><path d="M189.89,3.57 L189.79,4.08 "/><path d="M190.12,2.91 L189.94,3.42 "/><path d="M190.14,5.62 L190.15,5.64 L190.25,5.66 "/><path d="M190.53,2.23 L190.82,1.90 "/><path d="M190.20,2.78 L190.44,2.34 "/><path d="M190.91,1.84 L191.20,1.66 "/><path d="M191.28,1.65 L191.54,1.62 L191.56,1.63 "/></g><g style="stroke:#000000;stroke-width:0.529"><path d="M191.30,5.76 C191.03,6.01 191.03,6.01 190.77,6.25 C190.73,6.29 190.73,6.29 190.68,6.31 C190.41,6.43 190.41,6.43 190.14,6.53 C190.08,6.55 190.08,6.55 190.02,6.56 "/><path d="M183.46,4.95 C183.35,4.62 183.35,4.61 183.26,4.27 C183.24,3.69 183.24,3.68 183.24,3.10 C183.34,2.45 183.34,2.45 183.46,1.80 C183.67,1.15 183.68,1.15 183.91,0.51 C184.04,0.25 184.04,0.25 184.18,0.00 "/><path d="M192.09,0.99 C192.22,1.24 192.22,1.24 192.34,1.49 C192.36,1.54 192.36,1.54 192.37,1.58 C192.43,1.97 192.43,1.97 192.48,2.35 "/><path d="M191.40,5.61 L191.30,5.76 "/><path d="M190.02,6.56 L189.42,6.44 L186.16,5.38 L185.40,5.89 L184.71,5.98 L184.01,5.73 L183.53,5.18 L183.46,4.95 "/><path d="M189.80,-0.00 L191.45,0.54 L191.99,0.86 L192.09,0.99 "/></g></g><g id="Actor_.11"><g style="stroke:#000000;stroke-width:0.176"><path d="M185.62,89.56 C185.46,89.13 185.46,89.13 185.33,88.69 C185.29,88.12 185.29,88.12 185.27,87.55 C185.37,86.86 185.37,86.86 185.49,86.18 C185.68,85.56 185.68,85.56 185.89,84.95 C186.18,84.37 186.18,84.36 186.49,83.79 C186.84,83.33 186.84,83.33 187.21,82.88 C187.39,82.71 187.39,82.71 187.58,82.55 C187.77,82.44 187.77,82.43 187.96,82.33 "/><path d="M188.35,83.43 C188.21,83.51 188.20,83.51 188.06,83.60 C187.92,83.72 187.92,83.72 187.78,83.85 C187.51,84.19 187.50,84.18 187.24,84.53 C187.01,84.97 187.01,84.97 186.79,85.41 C186.62,85.90 186.62,85.90 186.47,86.40 C186.39,86.88 186.39,86.88 186.32,87.37 C186.33,87.80 186.33,87.81 186.36,88.23 C186.46,88.56 186.46,88.57 186.58,88.89 "/><path d="M190.61,89.96 C190.54,89.58 190.54,89.58 190.48,89.19 C190.50,88.73 190.50,88.72 190.53,88.26 C190.64,87.76 190.64,87.76 190.77,87.27 C190.96,86.79 190.96,86.79 191.16,86.32 C191.40,85.92 191.41,85.92 191.66,85.53 C191.86,85.33 191.86,85.33 192.06,85.13 C192.14,85.05 192.14,85.05 192.23,84.97 "/><path d="M191.21,89.76 C191.15,89.43 191.15,89.43 191.10,89.10 C191.11,88.70 191.12,88.70 191.15,88.30 C191.24,87.88 191.24,87.88 191.35,87.45 C191.51,87.05 191.51,87.04 191.68,86.64 C191.89,86.30 191.89,86.30 192.11,85.96 C192.35,85.72 192.35,85.72 192.60,85.48 "/><path d="M186.12,90.06 L185.62,89.56 "/><path d="M187.96,82.33 L188.67,82.19 "/><path d="M189.73,83.61 L188.88,83.33 L188.35,83.43 "/><path d="M186.58,88.89 L186.96,89.27 L187.78,89.54 "/><path d="M191.36,90.71 L190.92,90.49 L190.61,89.96 "/><path d="M192.23,84.97 L192.79,84.71 L193.28,84.77 "/><path d="M192.82,89.94 L192.31,90.32 L191.85,90.41 L191.47,90.21 L191.21,89.76 "/><path d="M192.60,85.48 L193.08,85.26 L193.50,85.31 L193.83,85.64 L194.02,86.20 L194.02,86.26 "/><path d="M191.99,89.87 L192.01,89.87 "/><path d="M191.64,89.62 L191.49,89.33 "/><path d="M191.91,89.83 L191.70,89.72 L191.69,89.70 "/><path d="M191.47,89.21 L191.41,88.79 "/><path d="M191.45,88.16 L191.41,88.65 "/><path d="M191.49,88.01 L191.62,87.48 "/><path d="M191.89,86.85 L191.68,87.35 "/><path d="M192.24,86.32 L191.97,86.73 "/><path d="M192.32,86.24 L192.62,85.95 "/><path d="M193.00,85.79 L192.70,85.91 "/><path d="M193.05,85.80 L193.33,85.84 "/></g><g style="stroke:#000000;stroke-width:0.529"><path d="M185.05,89.04 C184.95,88.53 184.95,88.53 184.88,88.02 C184.90,87.40 184.90,87.40 184.95,86.78 C185.09,86.12 185.09,86.12 185.26,85.47 C185.51,84.84 185.51,84.84 185.78,84.22 C186.10,83.68 186.10,83.68 186.44,83.16 C186.81,82.79 186.81,82.78 187.19,82.42 "/><path d="M189.73,83.61 C191.51,84.19 191.51,84.19 193.28,84.77 C193.34,84.80 193.34,84.80 193.39,84.83 C193.62,85.06 193.62,85.06 193.84,85.29 "/><path d="M193.03,89.79 L192.76,90.14 L192.12,90.60 L191.48,90.73 L191.36,90.71 L187.78,89.54 L187.52,89.80 L186.78,90.15 L186.12,90.06 L185.45,89.73 L185.05,89.04 "/><path d="M187.19,82.42 L187.93,82.08 L188.59,82.16 L189.26,82.49 L189.66,83.19 L189.73,83.61 "/><path d="M193.84,85.29 L194.09,86.02 L194.11,86.53 "/></g></g><g id="Actor_.12"><g style="stroke:#000000;stroke-width:0.176"><path d="M85.55,81.64 C83.74,80.38 83.71,80.36 81.80,79.25 C69.61,75.15 69.58,75.21 57.34,71.22 C56.40,71.04 56.39,71.04 55.44,70.92 "/><path d="M90.50,122.96 C88.95,122.11 88.93,122.10 87.33,121.36 C85.04,120.90 85.02,120.91 82.71,120.56 C79.97,120.55 79.96,120.56 77.22,120.64 C74.25,121.08 74.24,121.09 71.28,121.61 C68.40,122.45 68.38,122.43 65.53,123.37 C62.20,125.13 62.20,125.16 58.92,127.02 C58.17,127.66 58.16,127.67 57.46,128.37 C56.65,129.70 56.65,129.71 55.90,131.08 "/><path d="M192.06,162.79 C191.13,160.67 191.12,160.65 190.08,158.58 C188.89,157.19 188.87,157.17 187.59,155.86 C185.41,154.44 185.40,154.43 183.15,153.12 C180.25,152.03 180.23,152.02 177.29,151.05 C174.33,150.60 174.31,150.60 171.33,150.28 C168.49,150.45 168.47,150.45 165.65,150.74 C163.26,151.51 163.24,151.51 160.90,152.40 "/><path d="M199.81,110.69 C200.81,111.04 200.81,111.04 201.79,111.45 C216.74,119.59 216.78,119.56 231.67,127.78 C232.59,128.64 232.61,128.67 233.43,129.62 "/><path d="M273.42,145.61 C272.66,144.41 272.65,144.40 271.83,143.23 C270.86,142.32 270.85,142.31 269.83,141.45 C268.73,140.86 268.72,140.86 267.59,140.33 C255.38,136.28 255.37,136.27 243.13,132.29 "/><path d="M290.36,140.49 C289.03,140.28 289.01,140.28 287.67,140.17 C283.42,140.75 283.42,140.78 279.18,141.45 C278.13,141.79 278.12,141.79 277.09,142.19 "/><path d="M121.18,111.97 L-0.00,209.07 "/><path d="M120.63,111.85 L-0.00,208.51 "/><path d="M-0.00,167.41 L89.02,96.09 L108.72,98.26 "/><path d="M0.00,167.10 L88.63,96.08 L48.10,82.48 L-0.00,121.02 "/><path d="M-0.00,83.60 L24.61,63.88 L47.46,82.13 L-0.00,120.16 "/><path d="M2.30,100.27 L-0.00,98.85 "/><path d="M5.47,107.30 L6.20,105.00 L5.22,102.03 L2.53,99.06 L-0.00,97.60 "/><path d="M1.63,156.89 L1.32,155.86 L2.74,155.27 L4.76,155.82 L4.46,156.83 "/><path d="M6.66,125.50 L6.96,124.49 L4.93,123.94 L3.51,124.53 L3.83,125.55 "/><path d="M26.67,109.74 L26.86,108.61 L24.75,107.94 L22.77,108.58 L22.86,109.79 "/><path d="M26.20,61.91 L48.53,79.74 L47.63,82.24 "/><path d="M32.83,134.10 L33.13,133.09 L31.10,132.54 L29.69,133.13 L30.00,134.15 "/><path d="M37.81,57.12 L37.00,57.77 L32.86,55.90 L30.90,55.99 L29.27,56.77 "/><path d="M31.73,189.33 L31.41,188.31 L33.45,187.71 L34.85,188.27 L34.56,189.28 "/><path d="M35.74,64.10 L34.44,64.72 L33.06,63.66 L32.78,62.07 L33.56,61.43 "/><path d="M37.00,57.77 L45.90,64.89 L49.16,69.13 L49.78,73.85 L48.53,79.74 L49.35,79.09 "/><path d="M39.85,94.68 L39.67,93.55 L41.39,92.83 L43.85,93.50 L43.66,94.63 "/><path d="M44.64,71.24 L43.35,71.84 L41.97,70.78 L41.67,69.34 L42.47,68.55 "/><path d="M43.61,107.15 L43.35,106.36 L43.89,105.54 L46.16,104.75 L49.17,105.26 L50.04,106.28 L49.81,107.01 "/><path d="M45.90,64.89 L46.72,64.24 "/><path d="M49.73,119.61 L49.50,118.56 L51.27,117.77 L53.72,118.43 L53.55,119.54 "/><path d="M49.63,80.35 L89.10,93.33 L88.88,95.92 L89.82,95.36 "/><path d="M49.78,73.85 L50.60,73.19 "/><path d="M53.46,133.97 L54.72,134.05 L55.40,133.50 L53.96,133.40 L53.46,134.01 "/><path d="M89.42,86.99 L88.61,87.64 L87.91,85.19 L85.55,81.64 "/><path d="M55.44,70.92 L53.16,71.35 "/><path d="M91.72,125.83 L91.86,125.19 L90.50,122.96 "/><path d="M55.90,131.08 L56.37,133.61 "/><path d="M58.94,79.13 L57.64,79.75 L56.43,78.90 L55.91,77.59 L56.77,76.45 "/><path d="M57.34,71.22 L58.16,70.56 "/><path d="M60.10,166.60 L59.78,165.58 L61.20,164.99 L63.23,165.53 L62.93,166.55 "/><path d="M66.72,104.50 L66.54,103.37 L68.26,102.65 L70.72,103.32 L70.53,104.45 "/><path d="M69.21,121.10 L70.10,121.54 L71.10,120.92 L69.21,121.10 "/><path d="M77.90,203.53 L78.35,202.83 L77.86,202.25 L76.23,201.97 L74.76,202.56 L75.07,203.58 "/><path d="M76.19,210.00 L175.98,130.04 "/><path d="M75.34,210.00 L175.43,129.80 "/><path d="M76.98,136.88 L78.60,136.24 L76.89,136.27 L76.98,136.88 "/><path d="M83.39,87.17 L82.17,87.79 L80.71,86.72 L80.43,85.19 L81.23,84.49 "/><path d="M81.80,79.25 L82.61,78.60 "/><path d="M91.30,143.81 L91.60,142.80 L89.57,142.26 L88.15,142.85 L88.47,143.87 "/><path d="M90.09,92.73 L89.32,93.35 L88.61,87.64 "/><path d="M90.39,93.63 L107.09,95.60 "/><path d="M91.52,82.98 L94.91,82.20 L119.69,85.13 "/><path d="M92.32,123.98 L93.49,123.41 L94.27,123.78 L93.06,124.31 L92.32,123.98 "/><path d="M97.86,90.42 L97.06,91.07 L95.57,90.46 L94.91,88.38 L95.69,87.74 "/><path d="M94.91,82.20 L95.72,81.55 "/><path d="M103.44,180.85 L103.13,179.82 L104.55,179.24 L106.57,179.78 L106.28,180.79 "/><path d="M112.72,98.74 L119.97,99.59 "/><path d="M114.01,96.42 L119.92,97.12 "/><path d="M119.67,121.08 L119.97,120.07 L117.94,119.53 L116.53,120.11 L116.84,121.13 "/><path d="M119.66,110.37 L119.20,111.12 L119.76,111.68 L119.66,110.37 L120.17,109.96 "/><path d="M134.65,158.06 L134.94,157.05 L132.89,156.51 L131.50,157.09 L131.81,158.12 "/><path d="M151.50,210.00 L234.29,143.66 L202.48,126.55 "/><path d="M151.97,210.00 L234.60,143.79 L235.00,141.17 L203.26,124.10 "/><path d="M154.65,162.35 L155.43,162.11 L155.47,161.60 L154.44,161.11 L153.57,161.68 L154.17,162.25 "/><path d="M191.57,166.82 L192.06,162.79 "/><path d="M160.90,152.40 L157.57,155.07 L156.09,158.99 "/><path d="M163.02,135.33 L163.35,134.40 L161.37,133.77 L159.87,134.36 L160.19,135.38 "/><path d="M162.29,209.70 L161.97,208.67 L163.35,208.09 L165.42,208.63 L165.12,209.64 "/><path d="M170.35,149.77 L171.16,149.49 L171.16,149.02 L170.28,148.54 L169.27,149.10 L169.87,149.68 "/><path d="M178.04,174.92 L178.85,174.64 L178.85,174.17 L177.78,173.67 L176.94,174.12 L177.56,174.82 "/><path d="M190.66,186.96 L190.34,185.94 L191.76,185.35 L193.79,185.90 L193.49,186.91 "/><path d="M192.06,120.95 L196.32,123.24 "/><path d="M193.73,162.34 L194.54,162.07 L194.55,161.59 L193.49,161.09 L192.73,161.36 L193.26,162.25 "/><path d="M193.91,119.08 L197.48,121.00 "/><path d="M196.21,111.01 L199.81,110.69 "/><path d="M233.43,129.62 L235.32,133.75 L235.00,141.17 L235.82,140.51 "/><path d="M202.03,118.77 L200.73,119.39 L199.35,118.33 L199.05,116.89 L199.85,116.10 "/><path d="M201.79,111.45 L202.61,110.80 "/><path d="M207.47,171.46 L207.12,170.72 L207.72,170.01 L209.78,169.62 L211.49,170.29 L211.31,171.40 "/><path d="M209.47,210.00 L275.38,157.19 L234.84,143.64 "/><path d="M210.18,210.00 L276.01,157.26 L275.38,157.19 L275.76,154.68 L276.58,154.03 "/><path d="M219.64,195.50 L219.96,194.50 L217.93,193.95 L216.51,194.54 L216.81,195.55 "/><path d="M227.11,157.22 L226.94,156.10 L228.66,155.38 L231.13,156.04 L230.93,157.17 "/><path d="M230.20,133.94 L229.40,134.57 L227.91,133.96 L227.17,132.38 L228.03,131.25 "/><path d="M228.41,210.00 L290.74,160.06 "/><path d="M230.44,168.56 L230.18,167.77 L230.67,167.00 L232.98,166.16 L236.00,166.67 L236.87,167.69 L236.64,168.42 "/><path d="M229.97,126.60 L230.78,125.94 "/><path d="M235.45,135.79 L236.26,135.14 "/><path d="M236.09,179.88 L235.73,179.14 L236.33,178.42 L238.40,178.03 L240.10,178.71 L239.91,179.83 "/><path d="M236.12,141.65 L275.76,154.68 L273.42,145.61 "/><path d="M243.13,132.29 L243.95,131.63 "/><path d="M237.09,210.00 L290.87,166.90 "/><path d="M243.13,132.29 L241.19,131.94 L237.99,133.09 "/><path d="M242.55,189.43 L241.86,188.36 L243.32,186.69 L248.83,183.62 L255.80,181.86 L257.10,182.07 L257.35,183.34 "/><path d="M241.93,189.15 L241.95,189.20 "/><path d="M244.73,140.20 L243.54,140.83 L242.05,139.75 L241.77,138.16 L242.59,137.52 "/><path d="M255.73,165.64 L255.56,164.51 L257.28,163.80 L259.70,164.43 L259.57,165.57 "/><path d="M267.02,145.56 L266.17,146.60 L266.89,148.28 L268.29,148.89 L269.19,148.24 "/><path d="M267.57,195.61 L268.29,196.37 L269.33,195.14 L269.55,193.29 L269.01,192.81 L268.36,193.19 "/><path d="M268.41,139.67 L267.59,140.33 "/><path d="M274.26,147.88 L275.08,147.23 "/><path d="M290.64,155.06 L276.14,157.15 "/><path d="M276.85,154.79 L290.60,152.73 "/><path d="M277.90,141.54 L277.80,141.65 "/><path d="M278.93,141.49 L279.74,140.83 "/><path d="M283.35,149.70 L282.15,150.31 L280.67,149.24 L280.40,147.65 L281.20,147.01 "/><path d="M287.67,140.17 L288.48,139.52 "/><path d="M290.52,148.89 L289.08,146.93 L289.92,145.70 "/></g><g style="stroke:#000000;stroke-width:0.529"><path d="M33.66,55.25 C35.66,56.05 35.69,56.06 37.62,57.00 C42.11,60.47 42.14,60.48 46.53,64.08 C48.27,66.15 48.29,66.18 49.90,68.35 "/><path d="M50.66,70.91 C50.66,72.05 50.66,72.06 50.60,73.19 C50.00,76.14 50.03,76.17 49.35,79.09 C48.55,80.69 48.54,80.71 47.63,82.24 "/><path d="M58.41,135.34 C60.36,136.05 60.38,136.05 62.37,136.65 C65.03,136.92 65.05,136.92 67.72,137.07 C70.98,136.77 70.99,136.75 74.25,136.37 C76.73,135.82 76.74,135.82 79.20,135.20 C81.96,134.18 81.98,134.18 84.71,133.08 C86.77,131.86 86.79,131.85 88.80,130.54 C89.97,129.33 89.99,129.32 91.08,128.03 "/><path d="M90.77,124.28 C89.22,123.43 89.20,123.42 87.60,122.68 C85.40,122.24 85.38,122.24 83.16,121.91 C80.28,121.89 80.27,121.89 77.38,121.97 C74.41,122.41 74.41,122.41 71.45,122.94 C68.62,123.77 68.60,123.75 65.80,124.69 C62.58,126.38 62.58,126.41 59.40,128.19 C58.54,128.90 58.53,128.91 57.73,129.69 "/><path d="M157.41,156.16 C158.09,155.46 158.09,155.45 158.80,154.78 C159.72,154.15 159.72,154.13 160.67,153.56 C162.98,152.71 162.99,152.68 165.33,151.93 C168.20,151.62 168.22,151.62 171.10,151.43 C174.08,151.76 174.10,151.76 177.07,152.20 C179.90,153.11 179.91,153.11 182.70,154.13 C184.93,155.44 184.95,155.44 187.11,156.85 C188.86,158.61 188.87,158.63 190.52,160.47 "/><path d="M189.15,169.83 C187.19,170.96 187.16,170.97 185.13,171.98 C182.48,172.60 182.45,172.60 179.77,173.10 C176.83,173.08 176.81,173.07 173.87,172.94 C171.08,172.35 171.06,172.35 168.30,171.65 C165.52,170.45 165.49,170.45 162.77,169.13 C160.73,167.57 160.71,167.56 158.77,165.89 "/><path d="M272.69,142.64 C271.70,141.70 271.69,141.69 270.64,140.80 C269.54,140.20 269.53,140.20 268.40,139.67 C255.21,135.45 255.21,135.44 242.00,131.29 "/><path d="M242.84,189.56 C243.66,189.59 243.67,189.59 244.50,189.56 C246.88,188.99 246.89,189.00 249.25,188.36 C251.74,187.25 251.76,187.25 254.20,186.05 C255.75,184.88 255.76,184.86 257.25,183.61 "/><path d="M256.41,183.19 C255.42,183.25 255.41,183.26 254.43,183.38 C251.95,184.11 251.94,184.10 249.48,184.90 C247.22,186.01 247.21,186.02 244.99,187.22 C243.85,188.17 243.83,188.18 242.75,189.20 "/><path d="M-0.00,109.40 L2.84,109.20 L4.71,108.26 L5.70,105.99 L4.95,103.36 L2.30,100.27 L-0.00,102.12 "/><path d="M-0.00,80.69 L21.34,63.60 L22.77,63.11 L24.61,63.88 L27.98,58.44 L30.08,56.11 L33.66,55.25 "/><path d="M49.90,68.35 L50.66,70.91 "/><path d="M47.63,82.24 L48.10,82.48 L49.45,80.88 L51.69,72.59 L53.97,70.69 L55.93,70.22 L58.16,70.56 L84.57,79.54 L86.56,81.23 L88.90,84.88 L90.09,92.76 L89.89,95.09 L90.39,93.63 L89.75,88.16 L90.04,85.19 L91.31,83.21 L93.89,81.63 L119.67,84.38 "/><path d="M1.87,157.02 L4.46,156.83 L2.97,156.53 L1.87,157.02 "/><path d="M3.96,125.48 L6.38,125.66 L5.58,125.19 L3.96,125.48 "/><path d="M23.35,110.07 L22.86,109.79 L24.42,109.21 L26.47,109.55 L25.74,110.15 L23.35,110.07 "/><path d="M30.05,134.12 L32.67,134.03 L31.39,134.48 L30.05,134.12 "/><path d="M32.51,189.61 L31.97,189.47 L32.27,189.10 L34.56,189.28 L32.51,189.61 "/><path d="M33.61,62.41 L34.65,63.79 L35.64,64.10 L35.64,62.77 L34.88,61.82 L33.59,61.43 L33.61,62.41 "/><path d="M40.11,94.48 L42.17,94.09 L43.47,94.44 L41.74,95.19 L40.11,94.48 "/><path d="M42.49,69.34 L43.17,70.61 L44.55,71.21 L44.55,69.89 L43.79,68.93 L42.77,68.51 L42.49,69.34 "/><path d="M43.65,107.07 L44.55,107.83 L46.53,108.20 L48.74,107.82 L49.81,107.01 L48.51,106.25 L46.53,106.01 L43.65,107.07 "/><path d="M50.49,119.96 L49.73,119.61 L51.29,119.03 L53.53,119.56 L50.49,119.96 "/><path d="M56.37,133.61 L58.41,135.34 "/><path d="M91.08,128.03 L91.72,125.83 L90.77,124.28 "/><path d="M57.73,129.69 L56.18,132.40 L56.37,133.61 "/><path d="M57.25,78.25 L56.80,76.45 L58.41,77.17 L59.03,78.88 L58.45,79.09 L57.25,78.25 "/><path d="M60.34,166.74 L61.23,166.25 L62.93,166.55 L60.34,166.74 "/><path d="M66.97,104.30 L67.21,104.77 L68.69,105.00 L70.34,104.26 L68.28,103.92 L66.97,104.30 "/><path d="M75.12,203.55 L77.63,203.69 L76.82,203.23 L75.12,203.55 "/><path d="M81.91,86.55 L83.40,87.17 L82.97,85.31 L81.52,84.46 L81.28,85.52 L81.91,86.55 "/><path d="M88.47,143.87 L91.02,143.98 L90.22,143.51 L88.47,143.87 "/><path d="M96.00,89.32 L95.72,87.74 L97.44,88.56 L97.95,90.17 L97.02,90.24 L96.00,89.32 "/><path d="M103.68,180.98 L104.57,180.50 L106.26,180.78 L103.68,180.98 "/><path d="M117.38,120.90 L116.89,121.10 L119.39,121.24 L117.38,120.90 "/><path d="M189.91,123.52 L188.34,124.65 L185.90,125.40 L179.37,130.49 L177.83,130.66 L119.97,111.73 L120.20,111.47 "/><path d="M132.60,158.40 L132.05,158.25 L132.36,157.88 L134.64,158.07 L132.60,158.40 "/><path d="M156.36,161.46 L156.09,158.99 L157.41,156.16 "/><path d="M190.52,160.47 L191.97,164.30 L191.57,166.82 L189.15,169.83 "/><path d="M158.77,165.89 L156.36,161.46 "/><path d="M160.23,135.35 L163.00,135.32 L161.58,135.71 L160.23,135.35 "/><path d="M163.89,210.00 L164.84,209.80 L164.03,209.34 L162.34,209.66 L163.41,210.00 "/><path d="M170.20,149.72 L169.87,149.68 L170.20,149.72 "/><path d="M170.35,149.77 L170.28,149.77 "/><path d="M191.07,186.78 L190.71,186.93 L192.05,187.29 L193.48,186.90 L191.07,186.78 "/><path d="M290.34,139.58 L279.74,140.83 L277.76,141.65 L275.80,143.63 L275.22,145.56 L275.35,147.99 L276.90,155.34 L276.14,157.15 L276.58,154.03 L275.08,147.23 L272.69,142.64 "/><path d="M242.00,131.29 L240.24,131.56 L238.81,132.43 L237.01,134.48 L236.12,141.65 L235.01,143.49 L235.80,140.66 L236.13,133.10 L234.24,128.97 L232.64,127.24 L202.61,110.80 L200.63,110.03 L198.46,109.95 L197.01,110.37 L195.08,111.93 L194.09,113.63 L193.82,119.73 L192.07,120.72 "/><path d="M193.26,162.25 L193.59,162.29 L193.26,162.25 "/><path d="M199.91,117.13 L199.89,116.10 L200.97,116.37 L201.93,117.44 L202.12,118.52 L201.03,118.53 L199.91,117.13 "/><path d="M207.51,171.43 L209.38,171.98 L211.30,171.42 L209.05,170.89 L207.51,171.43 "/><path d="M217.80,195.86 L217.07,195.70 L217.80,195.24 L219.64,195.50 L217.80,195.86 "/><path d="M227.62,157.50 L227.11,157.22 L228.69,156.64 L230.93,157.17 L229.18,157.72 L227.62,157.50 "/><path d="M228.34,132.82 L230.20,133.92 L229.78,132.06 L228.32,131.21 L227.99,131.75 L228.34,132.82 "/><path d="M230.47,168.48 L231.44,169.28 L233.50,169.63 L235.57,169.23 L236.61,168.46 L234.11,167.41 L231.96,167.62 L230.47,168.48 "/><path d="M236.13,179.84 L237.99,180.40 L239.91,179.83 L237.66,179.31 L236.13,179.84 "/><path d="M242.55,137.77 L243.25,139.58 L244.73,140.20 L244.31,138.34 L242.85,137.49 L242.55,137.77 "/><path d="M242.75,189.20 L242.84,189.56 "/><path d="M257.25,183.61 L256.41,183.19 "/><path d="M255.76,165.60 L258.06,165.05 L259.55,165.59 L257.64,166.15 L255.76,165.60 "/><path d="M267.30,147.09 L267.04,145.61 L267.65,145.61 L268.76,146.38 L269.28,147.99 L268.29,148.03 L267.30,147.09 "/><path d="M267.56,195.16 L267.57,195.61 L268.39,193.36 L267.56,195.16 "/><path d="M281.15,147.59 L281.21,147.01 L282.49,147.40 L283.44,149.43 L281.87,149.07 L281.15,147.59 "/><path d="M290.49,147.59 L289.88,146.18 L289.95,145.70 L290.46,145.72 "/></g></g><g id="Actor_.13"><g style="stroke:#000000;stroke-width:0.176"><path d="M190.35,5.47 C190.28,5.24 190.27,5.23 190.22,4.99 C190.21,4.69 190.21,4.69 190.21,4.39 C190.27,4.06 190.27,4.05 190.34,3.72 C190.45,3.39 190.45,3.39 190.57,3.06 C190.73,2.77 190.73,2.77 190.89,2.48 C191.07,2.26 191.07,2.26 191.26,2.05 C191.45,1.92 191.45,1.92 191.65,1.80 "/><path d="M190.59,5.77 L190.35,5.47 "/><path d="M191.65,1.80 L192.00,1.78 "/></g><g style="stroke:#000000;stroke-width:0.529"><path d="M192.48,2.36 C192.52,2.63 192.52,2.63 192.54,2.91 C192.52,3.23 192.52,3.23 192.48,3.55 C192.40,3.89 192.40,3.89 192.30,4.22 C192.17,4.54 192.17,4.54 192.02,4.85 C191.85,5.11 191.85,5.11 191.67,5.37 C191.48,5.54 191.48,5.54 191.29,5.71 "/><path d="M192.00,1.78 L192.29,1.97 L192.48,2.36 "/><path d="M191.29,5.71 L190.91,5.85 L190.59,5.77 L190.14,5.62 "/><path d="M191.57,1.63 L192.00,1.78 "/></g></g><g id="Actor_.14"><g style="stroke:#000000;stroke-width:0.176"><path d="M184.61,47.06 C184.57,46.81 184.57,46.81 184.53,46.56 C184.48,46.29 184.48,46.29 184.44,46.03 C184.47,45.41 184.47,45.41 184.52,44.79 C184.67,44.13 184.67,44.13 184.84,43.48 C185.09,42.85 185.09,42.85 185.36,42.23 C185.69,41.70 185.69,41.70 186.03,41.18 C186.39,40.81 186.40,40.81 186.78,40.45 C186.96,40.34 186.96,40.34 187.15,40.23 C187.33,40.17 187.33,40.17 187.52,40.12 "/><path d="M185.62,46.49 C185.55,46.10 185.55,46.10 185.49,45.71 C185.50,45.48 185.50,45.48 185.52,45.25 C185.53,45.01 185.53,45.01 185.55,44.78 C185.66,44.28 185.66,44.28 185.79,43.79 C185.98,43.31 185.98,43.31 186.18,42.84 C186.26,42.72 186.26,42.72 186.35,42.59 C186.52,42.32 186.51,42.32 186.69,42.06 C186.97,41.77 186.97,41.78 187.25,41.50 C187.39,41.42 187.39,41.42 187.54,41.34 C187.67,41.29 187.67,41.29 187.81,41.25 "/><path d="M189.91,48.16 C189.79,47.83 189.79,47.83 189.69,47.50 C189.66,47.06 189.67,47.06 189.66,46.63 C189.66,46.59 189.66,46.59 189.67,46.56 C189.74,46.10 189.73,46.10 189.81,45.65 C189.96,45.16 189.96,45.16 190.13,44.67 C190.35,44.23 190.35,44.23 190.59,43.79 C190.85,43.45 190.85,43.45 191.13,43.11 C191.41,42.90 191.41,42.90 191.70,42.71 "/><path d="M192.03,43.24 C191.78,43.41 191.78,43.41 191.54,43.59 C191.32,43.85 191.32,43.85 191.12,44.12 C190.90,44.52 190.89,44.52 190.68,44.93 C190.54,45.35 190.54,45.35 190.41,45.77 C190.34,46.19 190.33,46.19 190.28,46.61 C190.28,46.98 190.28,46.98 190.31,47.35 C190.39,47.64 190.39,47.64 190.49,47.92 "/><path d="M185.59,48.07 L185.01,47.76 L184.61,47.06 "/><path d="M187.52,40.12 L188.17,40.21 "/><path d="M186.98,47.46 L186.36,47.26 L185.92,47.03 L185.62,46.49 "/><path d="M187.81,41.25 L188.31,41.32 L188.93,41.53 "/><path d="M190.28,48.55 L189.91,48.16 "/><path d="M191.70,42.71 L192.23,42.61 "/><path d="M193.18,44.18 L193.12,43.82 L192.86,43.37 L192.48,43.17 L192.03,43.24 "/><path d="M190.49,47.92 L190.81,48.25 L191.24,48.32 L191.72,48.10 L191.98,47.84 "/><path d="M190.99,47.71 L191.01,47.74 L191.06,47.74 "/><path d="M190.93,47.66 L190.75,47.47 L190.74,47.44 "/><path d="M190.60,46.85 L190.59,46.38 "/><path d="M190.71,47.34 L190.60,46.98 "/><path d="M190.70,45.72 L190.61,46.24 "/><path d="M190.93,45.05 L190.75,45.57 "/><path d="M191.24,44.47 L190.99,44.93 "/><path d="M191.70,43.96 L192.00,43.76 "/><path d="M191.61,44.02 L191.32,44.37 "/><path d="M192.06,43.74 L192.33,43.70 L192.36,43.71 "/></g><g style="stroke:#000000;stroke-width:0.529"><path d="M192.17,47.79 C191.91,48.05 191.91,48.05 191.64,48.31 C191.60,48.34 191.60,48.34 191.56,48.37 C191.29,48.49 191.29,48.49 191.01,48.61 C190.96,48.63 190.96,48.63 190.90,48.64 "/><path d="M184.39,47.33 C184.23,46.89 184.23,46.89 184.10,46.45 C184.07,45.88 184.07,45.87 184.06,45.30 C184.15,44.65 184.15,44.65 184.26,44.00 C184.46,43.35 184.46,43.35 184.68,42.70 C184.98,42.12 184.98,42.12 185.29,41.54 C185.48,41.30 185.48,41.30 185.68,41.06 C185.84,40.85 185.84,40.84 186.01,40.64 C186.38,40.37 186.38,40.36 186.76,40.10 "/><path d="M192.86,42.99 C193.01,43.25 193.01,43.25 193.15,43.51 C193.17,43.56 193.17,43.56 193.18,43.61 C193.24,43.98 193.24,43.98 193.30,44.34 C193.30,44.39 193.30,44.39 193.30,44.43 "/><path d="M192.23,47.69 L192.17,47.79 "/><path d="M190.90,48.64 L190.28,48.55 L186.98,47.46 L186.30,47.95 L185.59,48.07 L184.89,47.84 L184.39,47.33 "/><path d="M186.76,40.10 L187.47,39.98 L188.17,40.21 L188.67,40.73 L188.93,41.53 L192.23,42.61 L192.78,42.90 L192.86,42.99 "/></g></g><g id="Actor_.15"><g style="stroke:#000000;stroke-width:0.176"><path d="M191.19,47.59 C191.11,47.36 191.11,47.36 191.05,47.13 C191.04,46.83 191.04,46.83 191.04,46.53 C191.09,46.20 191.09,46.20 191.15,45.87 C191.25,45.53 191.25,45.53 191.37,45.20 C191.52,44.91 191.52,44.91 191.69,44.62 C191.87,44.39 191.87,44.38 192.06,44.17 C192.24,44.03 192.25,44.03 192.44,43.90 "/><path d="M191.44,47.87 L191.19,47.59 "/><path d="M192.44,43.90 L192.80,43.85 "/></g><g style="stroke:#000000;stroke-width:0.529"><path d="M193.29,44.40 C193.34,44.67 193.34,44.67 193.37,44.94 C193.35,45.25 193.35,45.25 193.32,45.57 C193.24,45.91 193.24,45.91 193.15,46.25 C193.02,46.57 193.02,46.57 192.88,46.88 C192.71,47.15 192.71,47.15 192.53,47.41 C192.34,47.60 192.34,47.60 192.15,47.77 "/><path d="M192.36,43.71 L192.80,43.85 L193.10,44.03 L193.29,44.40 "/><path d="M192.15,47.77 L191.77,47.93 L191.44,47.87 L190.99,47.72 "/></g></g><g id="Actor_.16"><g style="stroke:#000000;stroke-width:0.176"><path d="M191.94,89.48 C191.89,89.21 191.89,89.21 191.85,88.94 C191.87,88.63 191.87,88.62 191.90,88.31 C191.98,87.97 191.98,87.97 192.07,87.63 C192.20,87.31 192.20,87.31 192.34,87.00 C192.51,86.73 192.51,86.73 192.68,86.47 C192.87,86.28 192.87,86.28 193.07,86.10 "/><path d="M192.43,90.01 L192.13,89.85 L192.06,89.71 L191.94,89.48 "/><path d="M193.07,86.10 L193.44,85.94 L193.78,85.99 "/></g><g style="stroke:#000000;stroke-width:0.529"><path d="M194.03,86.27 C194.11,86.49 194.11,86.49 194.17,86.72 C194.19,87.02 194.19,87.02 194.19,87.32 C194.14,87.65 194.14,87.65 194.08,87.98 C193.98,88.31 193.97,88.31 193.86,88.64 C193.71,88.94 193.71,88.94 193.55,89.24 C193.37,89.47 193.37,89.47 193.18,89.69 C192.99,89.83 192.99,89.83 192.79,89.96 "/><path d="M193.26,85.82 L193.78,85.99 L194.03,86.27 "/><path d="M192.79,89.96 L192.43,90.01 L191.97,89.86 "/></g></g><g id="Actor_.17"><g style="stroke:#000000;stroke-width:0.176"><path d="M196.38,126.84 C196.30,126.29 196.30,126.29 196.26,125.73 C196.31,125.09 196.31,125.09 196.39,124.44 C196.57,123.77 196.57,123.77 196.76,123.11 C197.04,122.48 197.04,122.48 197.33,121.87 C197.68,121.35 197.68,121.35 198.05,120.85 C198.42,120.51 198.42,120.51 198.81,120.20 "/><path d="M200.91,122.16 C200.76,122.76 200.76,122.77 200.60,123.37 C200.50,123.60 200.50,123.59 200.39,123.82 C200.28,124.06 200.29,124.07 200.17,124.30 C199.81,124.84 199.81,124.84 199.43,125.38 "/><path d="M196.99,124.57 C197.36,124.04 197.36,124.04 197.73,123.50 C197.95,123.04 197.95,123.04 198.15,122.57 C198.32,121.97 198.32,121.96 198.47,121.36 "/><path d="M201.77,122.28 C201.49,122.51 201.49,122.51 201.22,122.76 C200.96,123.11 200.97,123.11 200.72,123.48 C200.64,123.65 200.64,123.65 200.56,123.82 C200.44,124.09 200.43,124.09 200.31,124.36 C200.17,124.84 200.17,124.84 200.05,125.32 C199.99,125.78 199.99,125.78 199.95,126.24 C199.97,126.52 199.98,126.52 200.01,126.79 C200.02,126.91 200.02,126.91 200.03,127.03 "/><path d="M201.33,127.78 C201.53,127.67 201.54,127.67 201.74,127.53 C202.01,127.24 202.01,127.24 202.27,126.93 C202.51,126.53 202.51,126.53 202.73,126.12 "/><path d="M200.47,126.47 C200.43,126.19 200.43,126.19 200.41,125.90 C200.43,125.57 200.44,125.57 200.48,125.23 C200.57,124.88 200.57,124.88 200.67,124.54 C200.73,124.37 200.74,124.37 200.81,124.21 C200.88,124.05 200.88,124.05 200.96,123.90 C201.15,123.63 201.15,123.63 201.33,123.37 C201.35,123.36 201.35,123.36 201.37,123.34 C201.55,123.19 201.55,123.19 201.73,123.03 "/><path d="M202.69,123.32 C202.75,123.56 202.76,123.57 202.81,123.82 C202.82,124.13 202.81,124.13 202.81,124.45 C202.75,124.79 202.75,124.79 202.67,125.14 C202.56,125.48 202.56,125.48 202.43,125.81 C202.26,126.11 202.26,126.11 202.09,126.40 C202.03,126.48 202.03,126.48 201.96,126.55 C201.83,126.70 201.84,126.70 201.70,126.84 C201.51,126.97 201.51,126.97 201.31,127.08 "/><path d="M197.29,128.04 L196.73,127.64 L196.38,126.84 "/><path d="M198.81,120.20 L199.55,119.95 L200.19,120.14 "/><path d="M202.81,121.70 L202.27,121.96 L200.91,122.16 "/><path d="M199.43,125.38 L196.99,124.57 "/><path d="M198.47,121.36 L199.82,121.15 L200.37,120.89 L200.72,121.01 "/><path d="M196.99,124.57 L197.46,126.29 L197.40,127.33 L198.52,127.70 "/><path d="M198.47,121.36 L200.91,122.16 "/><path d="M199.85,128.13 L199.90,127.09 L199.43,125.38 "/><path d="M203.26,124.23 L203.26,123.36 L203.09,122.68 L202.76,122.24 L202.30,122.10 L201.77,122.28 "/><path d="M200.03,127.03 L200.29,127.60 L200.69,127.89 L201.19,127.87 L201.33,127.78 "/><path d="M200.94,127.10 L200.65,126.89 L200.47,126.47 "/><path d="M201.73,123.03 L202.11,122.90 L202.44,123.00 L202.69,123.32 "/><path d="M201.31,127.08 L200.94,127.10 "/><path d="M202.72,126.14 L202.71,126.15 "/><path d="M203.07,125.18 L203.23,124.37 "/></g><g style="stroke:#000000;stroke-width:0.529"><path d="M201.74,127.67 C202.01,127.30 202.01,127.30 202.27,126.93 C202.50,126.53 202.51,126.53 202.73,126.12 C202.91,125.65 202.91,125.65 203.07,125.18 C203.16,124.82 203.15,124.82 203.23,124.45 C203.24,124.34 203.24,124.34 203.26,124.23 C203.27,123.76 203.28,123.75 203.27,123.28 C203.06,122.49 203.06,122.48 202.81,121.70 "/><path d="M198.43,120.07 C198.05,120.40 198.05,120.40 197.67,120.74 C197.63,120.79 197.63,120.79 197.59,120.85 C197.27,121.30 197.26,121.29 196.96,121.74 C196.67,122.36 196.66,122.36 196.39,122.98 C196.19,123.64 196.20,123.65 196.02,124.31 C195.99,124.56 195.99,124.56 195.97,124.81 C195.92,125.21 195.92,125.21 195.88,125.61 C195.93,126.16 195.93,126.17 196.00,126.72 "/><path d="M196.00,126.72 L196.36,127.51 L196.92,127.92 L197.29,128.04 L197.99,128.01 L198.52,127.70 L199.85,128.13 L201.12,127.96 L201.74,127.67 "/><path d="M202.81,121.70 L200.72,121.01 L200.65,120.75 L200.19,120.14 L199.17,119.82 L198.43,120.07 "/></g></g><g id="Actor_.18"><g style="stroke:#000000;stroke-width:0.176"><path d="M110.00,94.54 C109.86,94.84 109.86,94.84 109.74,95.15 C109.70,95.33 109.71,95.33 109.69,95.51 C109.59,96.06 109.58,96.06 109.48,96.60 C109.48,96.78 109.48,96.77 109.48,96.96 "/><path d="M110.10,98.89 C109.96,98.42 109.96,98.41 109.85,97.93 C109.84,97.33 109.84,97.33 109.86,96.72 C109.97,96.06 109.97,96.05 110.11,95.39 C110.33,94.74 110.33,94.73 110.58,94.08 C110.89,93.51 110.89,93.50 111.22,92.94 C111.59,92.51 111.59,92.50 111.97,92.09 C112.34,91.84 112.35,91.83 112.73,91.61 "/><path d="M112.05,97.58 C112.25,97.41 112.26,97.41 112.45,97.23 C112.64,96.97 112.64,96.97 112.81,96.70 C112.97,96.38 112.96,96.38 113.11,96.06 C113.16,95.89 113.16,95.89 113.22,95.71 C113.26,95.54 113.26,95.54 113.30,95.36 C113.33,95.03 113.34,95.03 113.36,94.70 C113.33,94.40 113.33,94.40 113.29,94.10 C113.21,93.91 113.21,93.91 113.11,93.72 "/><path d="M112.45,93.53 C112.25,93.65 112.25,93.65 112.06,93.78 C111.86,93.99 111.86,94.00 111.67,94.22 C111.50,94.52 111.50,94.52 111.34,94.82 C111.29,94.94 111.29,94.94 111.25,95.07 C111.17,95.28 111.17,95.28 111.09,95.49 C111.02,95.84 111.02,95.84 110.96,96.18 C110.96,96.50 110.95,96.50 110.96,96.81 C111.02,97.06 111.02,97.06 111.09,97.31 "/><path d="M109.69,95.51 L109.73,95.27 L110.00,94.54 "/><path d="M109.48,96.96 L107.05,96.16 L107.29,94.35 L108.00,92.69 L110.45,93.49 L110.21,93.96 L110.85,92.82 L110.45,93.49 "/><path d="M109.48,96.96 L109.48,97.81 L109.68,98.58 "/><path d="M110.57,99.49 L110.10,98.89 "/><path d="M112.73,91.61 L113.44,91.57 "/><path d="M110.00,94.54 L110.21,93.96 "/><path d="M110.85,92.82 L111.59,91.96 L111.95,91.74 "/><path d="M111.33,97.62 L111.67,97.71 L112.05,97.58 "/><path d="M113.11,93.72 L112.82,93.51 L112.45,93.53 "/><path d="M111.09,97.31 L111.33,97.62 "/></g><g style="stroke:#000000;stroke-width:0.529"><path d="M107.05,96.16 C107.07,95.72 107.07,95.72 107.11,95.29 C107.20,94.81 107.19,94.81 107.29,94.33 C107.45,93.87 107.45,93.86 107.63,93.40 C107.81,93.04 107.81,93.04 108.00,92.69 C108.33,92.28 108.33,92.28 108.67,91.89 "/><path d="M114.36,92.76 C114.44,93.30 114.44,93.31 114.49,93.85 C114.44,94.50 114.43,94.50 114.36,95.14 C114.19,95.81 114.19,95.82 113.99,96.48 C113.72,97.11 113.72,97.11 113.43,97.72 C113.08,98.24 113.08,98.24 112.72,98.74 C112.35,99.08 112.35,99.08 111.96,99.41 "/><path d="M107.91,97.81 L107.29,96.94 L107.05,96.16 "/><path d="M108.67,91.89 L110.00,91.10 L111.95,91.74 L112.36,91.49 L113.06,91.45 L113.44,91.57 L114.00,91.97 L114.36,92.76 "/><path d="M111.96,99.41 L111.21,99.67 L110.20,99.37 L109.73,98.77 L109.68,98.58 L108.09,98.06 L107.91,97.81 "/></g></g><g id="Actor_.19"><g style="stroke:#000000;stroke-width:0.176"><path d="M190.91,119.36 C190.70,119.51 190.70,119.51 190.50,119.67 C190.31,119.91 190.31,119.91 190.12,120.17 C189.96,120.48 189.95,120.48 189.80,120.80 "/><path d="M189.79,120.85 C189.68,121.18 189.68,121.18 189.58,121.51 C189.53,121.85 189.52,121.85 189.48,122.20 C189.49,122.50 189.49,122.51 189.52,122.81 C189.59,123.04 189.59,123.04 189.68,123.27 "/><path d="M190.13,122.66 C190.11,122.41 190.11,122.41 190.10,122.17 C190.14,121.89 190.14,121.89 190.18,121.61 C190.26,121.33 190.26,121.33 190.36,121.05 C190.48,120.79 190.48,120.79 190.61,120.54 C190.76,120.34 190.76,120.34 190.92,120.14 C191.08,120.01 191.08,120.01 191.24,119.90 "/><path d="M191.29,119.27 L190.91,119.36 "/><path d="M189.80,120.80 L189.79,120.85 "/><path d="M189.68,123.27 L189.96,123.53 "/><path d="M191.09,123.10 L190.77,123.26 L190.48,123.23 L190.26,123.02 L190.19,122.83 L190.13,122.66 "/><path d="M191.24,119.90 L191.55,119.83 L191.62,119.86 L191.81,119.95 L191.99,120.24 "/></g><g style="stroke:#000000;stroke-width:0.529"><path d="M191.62,119.42 C191.73,119.60 191.73,119.60 191.84,119.79 C191.92,120.01 191.92,120.01 191.99,120.24 C192.03,120.46 192.03,120.46 192.07,120.67 C192.06,120.94 192.06,120.94 192.04,121.20 C191.98,121.49 191.98,121.49 191.91,121.77 C191.81,122.04 191.81,122.04 191.70,122.31 C191.56,122.54 191.56,122.55 191.41,122.77 C191.25,122.94 191.25,122.94 191.09,123.10 C190.91,123.23 190.90,123.23 190.72,123.36 C190.52,123.47 190.52,123.47 190.32,123.56 "/><path d="M188.30,118.29 L191.29,119.27 L191.62,119.42 "/><path d="M190.32,123.56 L189.96,123.53 L187.01,122.56 "/></g></g><g id="paperID" visibility="hidden" opacity="0.00" transform="scale(0.000100)"><path style="stroke:#000000;stroke-width:0.500;fill:#e6e6e6;fill-rule:evenodd" d="M-2000.00,-2000.00L2297.00,-2000.00L2297.00,2210.00L-2000.00,2210.00zM0.00,0.00L297.00,0.00L297.00,210.00L0.00,210.00z"/><path style="fill:#000000;fill-opacity:0.118" d="M3.00,210.00L297.00,210.00L297.00,3.00L300.00,3.00L300.00,213.00L3.00,213.00z"/></g><g id="ToolTip" visibility="hidden" opacity="0" transform="translate(0,0)"><rect id="ToolTipShadow" opacity="0.20" fill="black" stroke="none" x="0" y="0" width="30" height="8"/><rect id="ToolTipBG" fill="#ffffe1" stroke="black" x="0" y="0" width="30" height="8"/><text xml:space="preserve" id="ToolTipText" fill="black" x="0" y="0" width="30" height="8">tooltip</text></g></g></svg>
