<?xml version="1.0" encoding="UTF-8" standalone="no"?>
<svg xmlns="http://www.w3.org/2000/svg" xmlns:xlink="http://www.w3.org/1999/xlink" width="297.000mm" height="210.000mm" viewBox="0.000000 0.000000 297.000000 210.000000" stroke-linejoin="round" stroke-linecap="round" fill="none" fill-rule="evenodd"><desc>Composer Export</desc><script type="text/ecmascript"><![CDATA[
if(typeof(top) != "undefined")
{
	top.ShowPaper = ShowPaper;
}
function ShowHotSpot(evt,hotspotid)
{
	var svgDocument = evt.target.ownerDocument;
	var strId = "hotspot."+hotspotid;
	var hotspot = svgDocument.getElementById(strId);
	if(hotspot)
		hotspot.setAttribute("opacity",".5");
}
function HideHotSpot(evt,hotspotid)
{
	var svgDocument = evt.target.ownerDocument;
	var strId = "hotspot."+hotspotid;
	var hotspot = svgDocument.getElementById(strId);
	if(hotspot)
		hotspot.setAttribute("opacity","0");

	var toolTip = svgDocument.getElementById('ToolTip');
	if(toolTip)
		toolTip.setAttribute("visibility","hidden");
}
function ShowToolTip(evt,hotspotid,strTooltip)
{
	if(strTooltip=="")
	return;

	// change text
	var svgDocument = evt.target.ownerDocument;
	var tiptext = svgDocument.getElementById('ToolTipText');
	if( !tiptext )
	return;
	tiptext.firstChild.nodeValue = " " + strTooltip + "  " ;

	// show tooltip before, else some refresh issue

	var toolTip = svgDocument.getElementById('ToolTip');
	if(!toolTip)
	return;

	toolTip.setAttribute("visibility","visible");
	toolTip.setAttribute("opacity",".95");

	// move tooltip
	// get viewbox

	var root = svgDocument.documentElement;
	var vbox = (root.getAttribute("viewBox")).split(' ');
	var x0 = parseFloat(vbox[0]);
	var y0 = parseFloat(vbox[1]);
	var vboxW = parseFloat(vbox[2]);
	var vboxH = parseFloat(vbox[3]);

	// get default width of svg

	var strW = root.getAttribute("width");
	var svgW = parseFloat(strW);
	if(strW.indexOf('mm') != -1)
	svgW *= 3.779;

	var strH = root.getAttribute("height");
	var svgH = parseFloat(strH);
	if(strH.indexOf('mm') != -1)
	svgH *= 3.779;  	// 96 dpi  -> 96/25.4 = 3.779

	// update the viewbox / width / height if svg is embedded in html with zoom fit all
	var realx0 = x0;
	var realy0 = y0;
	var realvboxW = vboxW;
	var realvboxH = vboxH;
	var realsvgW = svgW;
	var realsvgH = svgH;

	if ((typeof(top) == "undefined") || (typeof(top.svgctl1) != "undefined")) // embedded in html
	{
		// get window size in pxl

		svgW = window.innerWidth;
		svgH = window.innerHeight;

		// calculate real viewbox

		realsvgW = svgW;
		realsvgH = svgH;
		if((svgW / svgH) > (vboxW / vboxH))
		{
			realvboxW = (vboxH * svgW) / svgH;
			realvboxH = vboxH;
			realx0 = x0 - (realvboxW - vboxW)/2 ;
		}
		else
		{
			realvboxH = (vboxW * svgH) / svgW;
			realvboxW = vboxW;
			realy0 = y0 - (realvboxH - vboxH)/2 ;
		}
	}

	// get user zoom/pan

	var newScale = root.currentScale;
	var translation = root.currentTranslate;

	// transform pxl to user unit

	var xPos = (((evt.clientX+10- translation.x)/newScale) * realvboxW)/realsvgW  + realx0 ;
	var yPos = (((evt.clientY+5- translation.y)/newScale) * realvboxH)/ realsvgH  + realy0 ;
	var scaleForWidth = ( (1 / newScale) * realvboxH) / realsvgH;

	// move tooltip

	toolTip.setAttribute("transform", "translate(" + xPos + "," + yPos + ")" );

	// resize tooltip

	var fontsize = 12;
	tiptext.setAttribute("font-size",fontsize*scaleForWidth);
	tiptext.setAttribute("y", fontsize*scaleForWidth);
	var tipBG = svgDocument.getElementById('ToolTipBG');
	var outline = tiptext.getBBox();
	if(tipBG)
	{
		tipBG.setAttribute("stroke-width", 1*scaleForWidth);
		tipBG.setAttribute("width", Number(outline.width) );
		tipBG.setAttribute("height", Number(outline.height) + fontsize*.5*scaleForWidth );
	}
	var ToolTipShadow = svgDocument.getElementById('ToolTipShadow');
	if(ToolTipShadow)
	{
		ToolTipShadow.setAttribute("width", Number(outline.width) );
		ToolTipShadow.setAttribute("height", Number(outline.height) + fontsize*.5*scaleForWidth );
		ToolTipShadow.setAttribute("x", 3*scaleForWidth);
		ToolTipShadow.setAttribute("y", 3*scaleForWidth);
	}
}
function ShowPaper()
{
  var svgDocument = getDocument();
  var paper = svgDocument.getElementById("paperID");
  if(paper)
  {
    paper.setAttribute("transform","scale(1)");
    paper.setAttribute("opacity","1");
    paper.setAttribute("visibility","visible");
  }
  var svg = svgDocument.getRootElement();
  if(svg)
  {
    svg.setAttribute("width","307.000mm");
    svg.setAttribute("height","220.000mm");
    svg.setAttribute("viewBox","-5.000000 -5.000000 307.000000 220.000000");
  }
}
]]></script><defs/><g><path style="fill:#ffffff" d="M125.81,37.22L125.67,31.80L125.40,32.14L118.39,37.37L117.76,37.23L117.67,37.10L116.75,37.33L116.83,55.52L118.74,209.15L118.95,209.76L126.02,210.07L29.79,210.07L29.85,209.87L55.35,209.69L54.78,165.83L54.66,144.50L55.07,143.98L54.83,143.76L54.53,143.94L53.96,100.20L53.96,86.50L55.28,85.02L55.26,84.46L46.44,93.05L44.74,93.30L44.62,93.74L44.20,93.84L44.58,94.65L44.22,95.51L27.76,114.07L25.76,115.93L23.82,116.23L23.61,116.52L19.22,114.81L18.93,114.87L18.84,116.00L26.11,118.94L27.24,119.77L27.12,120.33L27.68,124.54L28.03,124.75L28.61,125.56L28.31,126.76L21.32,135.49L19.66,135.76L19.76,152.59L20.49,209.78L29.44,209.87L29.50,210.07L0.08,210.05L0.08,0.08L296.92,0.08L296.92,210.05L126.31,210.06L127.33,208.13L127.88,207.58L127.89,201.59L127.85,190.65L127.74,190.55L127.62,179.81L127.58,168.86L127.47,168.76L127.34,157.75L127.30,146.80L127.19,146.70L127.07,135.69L127.03,125.02L126.92,124.91L126.79,113.90L126.75,102.95L126.64,102.85L126.51,91.84L126.47,81.17L126.36,81.07L126.24,70.05L126.20,59.11L126.09,59.01L125.96,47.99L125.92,37.32z"/><path style="fill:#e5e5e5" d="M116.44,32.52L116.59,33.65L116.83,36.49L116.30,36.89L115.90,31.80L116.02,31.76z"/><path style="fill:#e5e5e5" d="M117.76,37.23L118.39,37.37L125.40,32.14L125.67,31.80L125.81,37.22L125.96,47.99L126.09,59.01L126.24,70.05L126.36,81.07L126.51,91.84L126.64,102.85L126.79,113.90L126.92,124.91L127.07,135.69L127.19,146.70L127.34,157.75L127.47,168.76L127.62,179.81L127.74,190.55L127.89,201.59L127.88,207.58L127.33,208.13L126.31,210.06L126.02,210.07L118.95,209.76L118.74,209.15L116.83,55.52L116.75,37.33L117.67,37.10z"/><path style="fill:#e5e5e5" d="M91.35,47.98L91.25,47.68L91.31,47.41L91.66,46.99L93.84,46.41L111.78,30.68L111.90,31.33L107.46,35.21L107.45,52.77L109.11,184.31L109.26,186.12L109.26,186.43L109.40,209.78L64.61,209.78L63.33,102.95L63.23,82.53L64.61,82.27L64.92,81.71L65.52,81.69L69.69,83.42L70.14,83.14L71.81,82.84L73.29,81.83L87.43,67.79L87.72,67.32L87.48,67.02L86.78,66.27L82.07,64.33L81.52,64.42L81.50,63.76L80.70,63.82L74.25,61.11L74.36,60.62L74.65,60.31L74.67,59.09L74.19,59.33L73.78,59.70L73.67,60.67L73.27,60.81L72.14,60.19L72.15,59.49L75.40,56.37L77.38,56.37L77.93,56.92L80.49,57.91L80.60,58.08L82.11,58.00L80.49,57.91L80.59,57.46L82.57,57.20L91.24,48.85L91.49,48.99L91.47,48.09z"/><path style="fill:#e5e5e5" d="M82.65,68.11L82.48,67.66L82.79,67.35L83.74,67.36L83.92,67.82L83.59,68.37L83.28,68.34L83.17,67.92z"/><path style="fill:#e5e5e5" d="M76.04,69.13L76.42,68.90L76.61,69.14L75.74,69.71L75.65,68.76L75.83,68.72z"/><path style="fill:#e5e5e5" d="M44.62,93.74L44.74,93.30L46.44,93.05L55.26,84.46L55.28,85.02L53.96,86.50L53.96,100.20L54.53,143.94L54.66,144.50L54.78,165.83L55.35,209.69L29.85,209.87L29.69,199.72L29.44,209.87L20.49,209.78L19.76,152.59L19.66,135.76L21.32,135.49L28.31,126.76L28.61,125.56L28.03,124.75L27.68,124.54L27.12,120.33L27.24,119.77L26.11,118.94L18.84,116.00L18.93,114.87L19.22,114.81L23.61,116.52L23.82,116.23L25.76,115.93L27.76,114.07L44.22,95.51L44.58,94.65L44.20,93.84L44.62,93.74L44.75,93.93L45.71,93.85z"/><path style="fill:#e5e5e5" d="M58.41,97.06L58.65,97.46L58.57,97.73L58.10,97.75L58.11,96.24z"/><path style="fill:#c6c1bc" d="M112.02,185.03L111.04,186.05L110.84,186.96L109.76,187.01L109.26,186.43L109.26,186.12L110.95,184.55L111.60,184.53z"/><path style="fill:#b2adaa" d="M109.48,168.83L110.49,168.66L111.06,167.59L111.92,166.86L111.90,167.58L110.76,168.96L109.91,169.17z"/><path style="fill:#b2adaa" d="M116.58,178.61L116.19,179.07L114.99,179.06L115.75,178.62L116.20,177.63L116.39,177.52L116.56,177.68z"/><path style="fill:#b2adaa" d="M112.18,185.77L110.84,186.96L111.04,186.05L112.02,185.03L112.18,185.15z"/><path style="fill:#b2adaa" d="M109.76,187.01L110.84,186.96L110.68,187.37L110.19,187.38z"/><path style="fill:#b2adaa" d="M116.87,196.15L116.87,196.82L116.20,197.29L115.28,197.28L115.70,197.07L116.30,195.98L116.60,195.80z"/><path style="fill:#b2adaa" d="M110.05,205.24L110.75,205.07L111.33,203.99L112.25,203.19L112.44,203.33L112.46,203.97L110.94,205.55L110.47,205.58z"/><path style="fill:#000020" d="M116.59,33.65L116.44,32.52L116.56,32.62z"/><path style="fill:#000020" d="M125.96,47.99L125.81,37.22L125.92,37.32z"/><path style="fill:#000020" d="M89.95,56.53L90.00,55.80L90.17,55.73z"/><path style="fill:#000020" d="M87.18,59.02L87.24,58.29L87.41,58.23z"/><path style="fill:#000020" d="M74.11,60.03L73.67,60.67L73.78,59.70L74.19,59.33z"/><path style="fill:#000020" d="M126.24,70.05L126.09,59.01L126.20,59.11z"/><path style="fill:#000020" d="M126.51,91.84L126.36,81.07L126.47,81.17z"/><path style="fill:#000020" d="M58.41,97.06L58.11,96.24L58.29,96.02L58.90,96.02z"/><path style="fill:#000020" d="M43.78,101.77L43.67,101.06L43.84,100.99z"/><path style="fill:#000020" d="M58.46,108.66L58.58,108.46L59.20,108.45z"/><path style="fill:#000020" d="M37.17,109.22L37.06,108.50L37.22,108.44z"/><path style="fill:#000020" d="M126.79,113.90L126.64,102.85L126.75,102.95z"/><path style="fill:#000020" d="M18.07,134.51L17.75,134.43L18.11,127.47z"/><path style="fill:#000020" d="M127.07,135.69L126.92,124.91L127.03,125.02z"/><path style="fill:#000020" d="M55.07,143.98L54.66,144.50L54.53,143.94L54.83,143.76z"/><path style="fill:#000020" d="M22.88,145.27L22.70,145.23L22.82,144.51z"/><path style="fill:#000020" d="M127.34,157.75L127.19,146.70L127.30,146.80z"/><path style="fill:#000020" d="M124.91,157.96L124.74,157.92L124.85,157.20z"/><path style="fill:#000020" d="M122.43,167.61L122.26,167.57L122.37,166.85z"/><path style="fill:#000020" d="M127.62,179.81L127.47,168.76L127.58,168.86z"/><path style="fill:#000020" d="M122.71,187.47L122.53,187.43L122.65,186.70z"/><path style="fill:#000020" d="M127.89,201.59L127.74,190.55L127.85,190.65z"/><path style="fill:#00001c" d="M93.89,43.69L93.18,43.67L93.58,43.26L94.22,43.38z"/><path style="fill:#00001c" d="M90.84,47.21L91.31,47.41L91.25,47.68L90.88,47.49z"/><path style="fill:#00001c" d="M91.49,48.99L91.24,48.85L91.35,47.98L91.47,48.09z"/><path style="fill:#00001c" d="M87.14,49.31L86.68,49.28L86.62,49.06L87.06,48.94z"/><path style="fill:#00001c" d="M81.53,55.35L80.78,55.22L81.67,55.22z"/><path style="fill:#00001c" d="M80.60,58.08L80.49,57.91L82.11,58.00z"/><path style="fill:#00001c" d="M87.72,67.32L87.43,67.79L87.48,67.02z"/><path style="fill:#00001c" d="M84.11,68.14L83.59,68.37L83.92,67.82z"/><path style="fill:#00001c" d="M83.28,68.34L82.79,68.31L82.65,68.11L83.17,67.92z"/><path style="fill:#00001c" d="M76.42,68.90L76.04,69.13L75.83,68.72L76.30,68.72z"/><path style="fill:#00001c" d="M51.79,85.12L50.72,85.00L51.88,84.98z"/><path style="fill:#00001c" d="M44.75,93.93L44.62,93.74L45.71,93.85z"/><path style="fill:#00001c" d="M29.85,209.87L29.79,210.07L29.50,210.07L29.44,209.87L29.69,199.72z"/><path style="fill:#e5e5e5" d="M107.83,30.58L107.18,31.10L107.08,30.42L107.75,30.42z"/><path style="fill:#e5e5e5" d="M93.58,43.26L93.18,43.67L92.71,43.48L92.74,42.82L93.37,42.81z"/><path style="fill:#e5e5e5" d="M87.73,48.50L87.90,49.29L87.14,49.31L87.06,48.94L86.62,49.06L86.75,48.43L87.58,48.34z"/><path style="fill:#e5e5e5" d="M82.08,54.99L81.67,55.22L80.78,55.22L80.57,55.05L80.59,54.42L81.51,54.43z"/><path style="fill:#e5e5e5" d="M76.56,64.64L76.86,65.19L75.74,65.25L75.74,64.42L76.04,64.32z"/><path style="fill:#e5e5e5" d="M71.59,80.65L70.48,80.94L70.13,80.69L70.11,80.09L70.71,79.73L71.03,79.79z"/><path style="fill:#e5e5e5" d="M50.85,80.62L52.75,78.94L53.69,78.94L53.95,82.58L53.42,82.57L51.73,81.74z"/><path style="fill:#e5e5e5" d="M58.12,82.63L57.54,83.22L57.45,82.55z"/><path style="fill:#e5e5e5" d="M52.03,84.77L51.88,84.98L50.72,85.00L50.51,84.83L50.53,84.20L51.45,84.21z"/><path style="fill:#e5e5e5" d="M57.86,87.34L57.41,87.59L57.47,86.94L57.82,86.92z"/><path style="fill:#e5e5e5" d="M45.93,90.84L45.64,91.12L44.84,91.15L44.47,90.89L44.47,90.30L45.06,89.93L45.38,89.99z"/><path style="fill:#e5e5e5" d="M39.75,96.76L39.92,97.53L38.40,97.52L38.49,96.69L39.61,96.61z"/><path style="fill:#e5e5e5" d="M58.67,109.98L58.42,110.24L58.07,109.89L58.07,108.82L58.46,108.66z"/><path style="fill:#e5e5e5" d="M25.41,112.76L25.58,113.52L24.14,113.43L24.14,112.70L25.27,112.60z"/><path style="fill:#e5e5e5" d="M112.45,124.70L112.34,125.04L111.76,125.11L111.76,124.45L112.16,124.40z"/><path style="fill:#e5e5e5" d="M58.47,143.13L58.89,143.29L59.22,142.93L59.11,144.32L57.08,145.60L57.27,143.86L58.36,142.98z"/><path style="fill:#e5e5e5" d="M57.08,145.60L56.95,145.82L56.62,145.79L56.70,145.44z"/><path style="fill:#e5e5e5" d="M58.73,161.32L59.51,161.44L59.38,162.53L58.28,163.07L57.45,163.89L56.05,163.90L56.98,163.73L57.10,163.53L57.27,163.47L57.55,162.06L58.63,161.18z"/><path style="fill:#e5e5e5" d="M57.10,163.53L56.87,162.79L56.98,162.78z"/><path style="fill:#e5e5e5" d="M58.94,179.60L59.79,179.65L59.49,180.83L58.55,181.27L57.73,182.09L56.33,182.10L57.47,181.84L57.53,180.28L58.66,179.34z"/><path style="fill:#e5e5e5" d="M59.47,197.89L59.73,197.26L60.04,198.10L59.98,198.66L58.40,199.87L57.65,200.21L57.81,198.47L58.95,197.54z"/><path style="fill:#e5e5e5" d="M57.53,200.39L56.60,200.30L57.65,200.21z"/><path style="fill:#c6c1bc" d="M111.92,166.86L111.06,167.59L110.49,168.66L109.48,168.83L109.27,168.68L109.39,167.58L110.95,166.35L111.33,166.35z"/><path style="fill:#c6c1bc" d="M116.05,176.81L116.39,177.52L116.20,177.63L115.75,178.62L114.99,179.06L114.09,178.50L113.77,177.97L113.77,176.94L114.24,176.27L115.19,176.29z"/><path style="fill:#c6c1bc" d="M116.02,194.77L116.60,195.80L116.30,195.98L115.70,197.07L115.28,197.28L114.08,196.43L114.07,194.87L114.53,194.48L115.46,194.49z"/><path style="fill:#c6c1bc" d="M112.25,203.19L111.33,203.99L110.75,205.07L110.05,205.24L109.62,204.97L109.65,204.27L111.22,202.75L111.88,202.74z"/><path style="fill:#ffffff" d="M123.90,37.36L123.36,37.43L123.64,36.45L124.02,36.21z"/><path style="fill:#ffffff" d="M120.51,39.13L120.09,40.20L119.78,40.20L120.09,38.94z"/><path style="fill:#ffffff" d="M124.27,44.14L123.89,45.34L123.36,45.34L123.92,43.95z"/><path style="fill:#ffffff" d="M120.77,46.84L120.16,47.93L120.15,46.75L120.70,46.68z"/><path style="fill:#ffffff" d="M120.17,52.33L119.88,52.62L119.88,51.71L120.17,51.66z"/><path style="fill:#ffffff" d="M90.65,56.73L90.24,57.19L89.71,57.21L89.95,56.53L90.17,55.73L90.66,55.51z"/><path style="fill:#ffffff" d="M88.19,58.64L87.33,59.78L87.18,59.02L87.41,58.23L87.80,57.92L88.17,57.99z"/><path style="fill:#ffffff" d="M120.13,61.41L120.08,60.76L120.38,60.69z"/><path style="fill:#ffffff" d="M83.74,62.78L83.19,63.36L83.05,62.61L83.22,61.76L83.39,61.55L84.02,61.57z"/><path style="fill:#ffffff" d="M81.06,81.03L80.39,82.40L80.10,82.41L80.03,82.20L80.19,81.36L80.64,80.83z"/><path style="fill:#ffffff" d="M73.86,88.70L73.26,89.28L73.22,88.39L73.48,88.02L73.81,88.04z"/><path style="fill:#ffffff" d="M66.67,95.88L66.09,96.45L66.06,95.59L66.54,94.92L66.66,94.95z"/><path style="fill:#ffffff" d="M44.60,101.12L44.06,101.99L43.78,101.77L43.84,100.99L44.26,100.17L44.56,100.16z"/><path style="fill:#ffffff" d="M42.10,104.15L41.55,104.73L41.52,103.57L41.76,102.94L42.37,102.93z"/><path style="fill:#ffffff" d="M37.99,108.57L37.44,109.43L37.17,109.22L37.22,108.44L37.64,107.62L37.94,107.60z"/><path style="fill:#ffffff" d="M34.77,110.90L35.14,110.63L35.49,110.66L35.10,112.08L34.57,112.16z"/><path style="fill:#ffffff" d="M26.96,132.56L26.38,133.12L26.35,132.26L26.83,131.59L26.95,131.63z"/><path style="fill:#ffffff" d="M125.41,134.23L125.11,134.52L125.07,133.90L125.41,133.57z"/><path style="fill:#ffffff" d="M23.37,136.97L22.78,137.53L22.76,136.98L23.23,136.00L23.36,136.04z"/><path style="fill:#ffffff" d="M125.10,140.30L125.06,139.71L125.62,139.30z"/><path style="fill:#ffffff" d="M27.28,139.77L26.81,140.75L26.29,140.76L26.85,139.57z"/><path style="fill:#ffffff" d="M27.19,144.41L27.14,143.76L27.44,143.69z"/><path style="fill:#ffffff" d="M23.36,145.00L22.88,145.27L22.82,144.51L23.28,143.98L23.63,144.03z"/><path style="fill:#ffffff" d="M27.19,153.79L27.23,152.92L27.51,152.86z"/><path style="fill:#ffffff" d="M125.39,157.69L124.91,157.96L124.85,157.20L125.31,156.66L125.66,156.71z"/><path style="fill:#ffffff" d="M122.91,167.34L122.43,167.61L122.37,166.85L122.83,166.31L123.18,166.36z"/><path style="fill:#ffffff" d="M123.19,177.52L122.63,178.08L122.60,176.93L123.19,176.30z"/><path style="fill:#ffffff" d="M123.19,187.19L122.71,187.47L122.65,186.70L123.11,186.17L123.45,186.22z"/><path style="fill:#ffffff" d="M125.96,192.96L125.61,193.52L125.30,193.52L125.68,192.07L125.95,192.02z"/><path style="fill:#ffffff" d="M122.61,196.63L122.23,197.84L121.70,197.84L122.26,196.45z"/><path style="fill:#ffffff" d="M126.28,200.16L125.67,201.26L125.67,200.07L126.21,200.01z"/><path style="fill:#ffffff" d="M122.67,205.07L122.07,205.65L122.03,204.76L122.30,204.40L122.62,204.41z"/><g id="Actor_.0"><g style="stroke:#000000;stroke-width:0.176"><path d="M20.05,210.00 L19.12,135.38 L16.46,134.30 L16.85,133.92 "/><path d="M16.46,134.30 L16.32,134.31 "/><path d="M16.68,133.97 L16.71,133.93 "/><path d="M22.23,210.00 L21.29,135.34 L19.56,135.52 L19.12,135.38 L19.42,135.08 L19.19,134.87 L18.15,134.45 "/><path d="M18.86,134.74 L18.63,116.25 L25.61,119.09 L26.67,119.83 L27.43,121.47 L27.47,124.78 L28.06,124.50 L28.58,125.50 L28.33,126.63 L29.38,210.00 "/><path d="M17.91,115.42 L18.63,116.25 L18.96,115.92 L18.76,115.10 L18.62,115.41 "/><path d="M18.62,115.39 L18.77,115.69 "/><path d="M18.76,115.03 L18.16,114.76 "/><path d="M18.36,114.20 L19.39,114.16 L19.43,114.67 L24.14,116.50 L26.04,116.14 L26.45,115.26 L25.42,115.89 L24.22,116.00 L19.42,114.17 L39.38,91.81 L44.07,93.66 L44.55,94.50 L44.23,95.37 L26.45,115.26 "/><path d="M18.78,114.82 L19.10,114.62 L18.78,114.82 "/><path d="M20.69,135.10 L27.38,126.76 L27.47,124.78 L27.86,125.50 L27.74,126.33 L28.33,126.57 L21.29,135.34 L19.50,135.00 "/><path d="M25.61,119.09 L25.99,118.70 L19.01,115.86 "/><path d="M19.43,114.67 L19.10,114.62 "/><path d="M23.17,145.03 L22.75,145.08 L22.74,144.42 L23.13,143.67 L23.57,143.52 L23.65,144.08 L23.17,145.03 "/><path d="M22.70,144.64 L23.06,143.76 "/><path d="M23.11,137.19 L22.65,137.28 L22.60,136.84 L23.03,135.87 L23.46,135.71 L23.55,136.28 L23.11,137.19 "/><path d="M22.96,135.96 L22.60,136.84 "/><path d="M23.52,116.34 L23.49,115.83 "/><path d="M24.04,113.02 L24.94,112.75 L25.74,113.04 L25.80,112.72 L24.68,112.26 L24.04,113.02 "/><path d="M25.74,113.04 L24.99,113.48 L24.12,113.18 "/><path d="M26.33,140.69 L26.38,139.72 L27.10,139.09 L27.00,140.22 L26.33,140.69 "/><path d="M26.24,140.23 L26.60,139.35 "/><path d="M26.33,132.94 L26.29,131.92 L27.01,131.29 L27.02,132.14 L26.33,132.94 "/><path d="M26.15,132.43 L26.50,131.55 "/><path d="M25.99,118.70 L27.06,119.45 L27.61,120.30 L27.82,121.09 L27.43,121.47 "/><path d="M27.38,153.34 L26.89,153.52 L27.03,152.78 L27.48,152.41 L27.38,153.34 "/><path d="M27.38,144.02 L26.78,144.43 L27.26,143.31 L27.38,144.02 "/><path d="M26.49,115.77 L44.15,96.03 L44.21,95.41 "/><path d="M27.74,126.33 L27.49,126.63 "/><path d="M27.86,124.40 L27.82,121.09 "/><path d="M29.64,210.00 L28.58,125.58 "/><path d="M34.91,110.29 L35.44,110.20 L35.33,111.35 L34.78,112.09 L34.46,112.11 L34.33,111.73 "/><path d="M37.56,107.33 L38.09,107.24 L38.00,108.33 L37.43,109.13 L36.98,108.78 "/><path d="M40.01,97.09 L39.97,96.57 L39.25,96.28 L38.32,96.74 L38.48,97.32 L39.26,97.52 L39.97,97.17 L39.29,96.79 L38.39,97.22 "/><path d="M38.72,91.43 L39.83,91.15 L39.98,91.72 L39.64,91.71 "/><path d="M38.80,91.38 L41.32,88.87 "/><path d="M38.58,91.61 L38.61,91.57 "/><path d="M39.48,91.70 L38.65,91.56 "/><path d="M39.61,91.75 L39.57,91.74 "/><path d="M39.98,91.72 L44.69,93.56 L46.02,93.50 L47.05,92.96 L47.04,92.41 L46.01,92.95 L44.68,93.01 L40.02,91.19 L52.66,78.79 L52.07,78.54 "/><path d="M41.75,102.64 L42.18,102.47 L42.35,102.75 L42.17,103.70 L41.62,104.44 L41.16,104.08 "/><path d="M41.07,89.13 L41.57,88.64 "/><path d="M43.61,101.34 L43.89,101.77 L44.62,100.96 L44.80,100.02 L44.60,99.72 L44.20,99.90 "/><path d="M44.08,93.39 L44.07,92.84 "/><path d="M44.55,94.50 L44.25,95.92 "/><path d="M45.06,90.94 L44.42,90.58 L44.56,90.03 L45.29,89.81 L46.07,90.10 L45.94,90.75 L45.06,90.94 "/><path d="M46.07,90.65 L45.35,90.35 L44.50,90.67 "/><path d="M47.05,92.96 L52.66,87.39 L54.32,210.00 "/><path d="M47.04,92.41 L54.94,84.57 L55.29,83.74 L54.95,85.11 L54.94,84.57 "/><path d="M50.45,84.59 L51.38,84.97 L52.19,84.42 L51.91,83.96 L51.08,83.84 L50.59,84.05 L50.45,84.59 "/><path d="M50.53,84.68 L51.38,84.37 L52.10,84.66 "/><path d="M50.35,80.26 L50.76,80.48 "/><path d="M50.86,80.58 L52.15,81.79 L54.77,82.93 L55.29,83.74 "/><path d="M52.78,87.28 L53.87,86.19 L55.51,210.00 "/><path d="M52.72,82.03 L52.66,78.79 L53.86,78.61 L53.91,82.51 "/><path d="M53.95,86.11 L54.95,85.11 "/><path d="M66.42,210.00 L64.81,81.88 L63.79,82.31 L62.64,82.19 L53.86,78.61 L54.24,78.23 "/><path d="M60.58,98.26 L59.84,98.70 L58.60,98.14 L57.80,96.66 L58.25,95.90 "/><path d="M58.84,87.66 L58.29,88.05 L57.80,87.81 L57.35,87.11 L57.71,86.55 "/><path d="M58.79,83.31 L58.23,83.69 L57.74,83.46 L57.29,82.76 L57.66,82.20 "/><path d="M60.73,110.66 L60.03,111.09 L58.62,110.43 L57.96,109.06 L58.41,108.30 "/><path d="M64.25,210.00 L62.64,82.31 L63.03,81.81 "/><path d="M64.81,81.88 L65.24,81.45 L64.81,81.88 L64.22,81.63 "/><path d="M65.24,81.45 L65.52,81.51 L65.52,80.96 L64.46,81.03 "/><path d="M66.21,94.82 L66.58,94.54 L66.82,94.78 L66.68,95.55 L66.08,96.22 L65.87,95.69 "/><path d="M65.52,81.51 L69.51,83.13 L69.61,82.63 L65.52,80.96 L82.36,64.24 L81.14,64.46 L72.02,60.58 L71.31,59.79 "/><path d="M69.61,82.63 L70.89,82.84 L72.43,82.31 L72.59,82.75 L81.76,73.64 L83.47,210.00 "/><path d="M69.62,83.18 L71.56,83.29 L72.59,82.75 "/><path d="M70.32,80.66 L69.96,79.99 L70.32,79.69 L71.62,79.91 L71.43,80.59 L70.32,80.66 "/><path d="M71.61,80.44 L70.89,80.14 L70.04,80.46 "/><path d="M80.95,63.42 L81.35,63.23 L81.54,63.81 L80.80,64.15 L80.81,64.79 L76.81,68.76 L76.06,68.51 L75.54,68.74 L75.70,69.86 L71.49,74.05 "/><path d="M73.90,56.87 L74.49,57.11 L75.08,56.53 L72.16,59.44 L72.16,60.03 L72.16,59.44 L71.56,59.19 "/><path d="M72.58,82.20 L87.09,67.80 L87.09,68.35 L81.76,73.64 "/><path d="M72.18,73.36 L72.02,60.58 L72.41,60.19 L72.16,60.03 "/><path d="M72.41,60.19 L73.94,60.79 L74.32,60.55 L74.84,59.10 L74.49,58.75 L74.25,58.92 "/><path d="M73.70,88.64 L73.04,89.16 L73.29,87.80 L73.66,87.51 L73.90,87.75 L73.70,88.64 "/><path d="M72.94,88.66 L73.29,87.80 "/><path d="M80.78,63.60 L73.78,60.75 L73.66,60.36 "/><path d="M74.19,56.21 L75.47,55.95 L75.48,56.48 L75.08,56.53 "/><path d="M75.80,65.32 L75.45,64.60 L75.78,64.16 L76.18,64.94 L76.90,65.29 L76.52,65.67 L75.80,65.32 "/><path d="M76.88,55.96 L80.73,57.22 L82.54,56.98 L90.99,48.78 L91.19,47.54 L90.35,46.89 L86.10,45.38 L75.47,55.95 L76.88,55.96 L76.88,56.51 L75.48,56.48 "/><path d="M75.87,69.69 L76.26,69.31 L75.90,68.51 "/><path d="M76.69,68.88 L76.26,69.31 "/><path d="M75.84,64.16 L76.71,64.61 L76.96,65.28 "/><path d="M76.88,56.51 L77.96,56.72 L77.95,56.17 "/><path d="M77.96,56.72 L80.04,57.57 L80.11,57.05 "/><path d="M80.37,80.77 L80.04,82.02 L80.54,81.97 L80.83,81.50 L80.82,80.48 L80.02,81.64 "/><path d="M81.14,64.46 L80.81,64.79 "/><path d="M80.93,63.66 L81.19,63.77 "/><path d="M80.12,57.60 L82.00,57.72 L83.09,57.17 L83.08,56.63 "/><path d="M80.82,55.08 L80.46,54.79 L80.82,54.12 L82.11,54.31 L81.93,55.01 L80.82,55.08 "/><path d="M80.54,54.88 L81.39,54.57 L82.10,54.87 "/><path d="M83.73,210.00 L82.01,73.39 "/><path d="M81.52,63.95 L81.71,64.15 "/><path d="M84.24,67.90 L84.06,67.20 L83.52,67.05 L82.73,67.28 L82.58,67.78 L83.52,67.60 L84.24,67.90 L83.52,68.20 L82.67,67.91 "/><path d="M82.36,64.24 L86.95,66.19 L87.41,66.94 L87.09,67.80 "/><path d="M82.81,62.73 L83.09,63.15 L83.82,62.34 L83.99,61.40 L83.40,61.29 "/><path d="M83.09,57.17 L90.99,49.33 L90.99,48.78 "/><path d="M86.26,45.22 L85.42,45.11 "/><path d="M85.34,45.17 L85.36,45.13 "/><path d="M86.49,45.31 L86.73,45.33 L86.76,44.75 L85.47,45.03 "/><path d="M85.55,44.97 L87.41,43.36 L86.36,44.27 "/><path d="M87.41,67.46 L87.09,68.35 "/><path d="M87.61,57.64 L88.13,57.55 L88.05,58.64 L87.48,59.44 L87.02,59.10 "/><path d="M86.44,48.62 L88.14,48.88 L88.24,48.54 L87.41,48.03 L86.44,48.62 "/><path d="M86.57,48.89 L87.37,49.18 L88.14,48.88 "/><path d="M109.60,210.00 L107.40,34.91 L111.61,31.26 L111.64,30.68 L93.82,46.14 L93.80,46.72 L93.35,46.99 L91.09,47.07 L86.73,45.33 "/><path d="M106.91,27.26 L86.76,44.75 L90.85,46.43 L90.83,47.00 "/><path d="M87.41,43.36 L87.82,43.00 "/><path d="M87.43,66.98 L87.43,67.54 "/><path d="M87.51,43.27 L90.57,40.63 "/><path d="M90.26,55.33 L90.79,55.25 L90.68,56.39 L90.13,57.13 L89.80,57.16 L89.67,56.77 "/><path d="M91.33,47.96 L90.99,49.33 "/><path d="M90.85,46.43 L92.68,46.60 L93.82,46.14 "/><path d="M92.60,42.82 L92.81,43.35 L93.53,43.54 L94.25,43.29 L94.34,42.95 L93.52,42.49 L92.60,42.82 "/><path d="M92.72,43.28 L93.50,43.07 L94.18,43.33 "/><path d="M93.80,46.72 L106.19,35.96 L108.41,210.00 "/><path d="M106.22,35.93 L107.40,34.91 "/><path d="M107.35,31.04 L107.35,30.69 L106.88,30.60 L107.05,30.25 L107.84,30.07 L108.56,30.36 L108.56,30.86 L108.13,31.08 L107.01,30.84 "/><path d="M107.35,30.69 L108.48,30.92 "/><path d="M111.07,202.70 L111.44,202.41 "/><path d="M111.21,184.23 L110.83,184.54 "/><path d="M110.96,166.04 L110.61,166.34 "/><path d="M111.64,30.68 L111.98,29.95 L115.36,31.77 L116.12,33.41 L116.16,36.71 L118.20,37.19 L118.35,37.99 L120.52,210.00 "/><path d="M111.61,31.26 L111.97,30.08 "/><path d="M112.54,203.53 L112.24,203.89 "/><path d="M112.32,185.34 L112.02,185.71 "/><path d="M112.09,167.16 L111.77,167.53 "/><path d="M112.13,124.12 L111.75,124.52 L112.08,125.25 L112.79,125.59 L113.21,125.20 "/><path d="M111.98,29.95 L111.72,29.43 "/><path d="M114.30,31.02 L114.68,30.64 "/><path d="M118.34,210.00 L116.16,36.71 L116.55,36.34 "/><path d="M116.12,33.41 L116.51,33.03 "/><path d="M127.64,207.57 L125.43,31.94 L118.34,37.19 L117.76,36.94 "/><path d="M117.96,37.05 L118.20,37.19 "/><path d="M119.88,61.46 L120.32,60.96 L120.31,60.21 L119.78,60.80 L119.88,61.46 "/><path d="M119.77,52.36 L120.21,51.87 L120.20,51.12 L119.67,51.71 L119.77,52.36 "/><path d="M120.12,46.49 L120.63,46.23 L120.64,47.08 L119.92,47.89 L119.76,47.37 "/><path d="M119.67,39.57 L119.96,40.07 L120.54,39.28 L120.53,38.43 L120.02,38.69 "/><path d="M122.11,204.19 L122.65,204.00 L122.57,204.94 L121.96,205.61 L121.75,205.07 "/><path d="M121.65,197.27 L121.87,197.81 L122.47,197.14 L122.61,196.36 L122.45,196.11 L122.01,196.39 "/><path d="M125.68,31.18 L125.43,31.94 L124.91,31.73 L124.92,30.99 L124.58,30.66 L124.59,31.87 L121.80,33.94 "/><path d="M124.96,30.28 L124.28,30.54 L121.93,29.59 L122.31,29.20 "/><path d="M121.93,29.59 L121.78,29.59 "/><path d="M122.14,29.26 L122.17,29.21 "/><path d="M122.85,185.98 L123.43,185.85 L123.36,186.58 L122.71,187.37 L122.49,186.86 "/><path d="M122.78,176.16 L123.22,176.34 L123.28,176.94 L122.59,177.82 L122.32,177.35 "/><path d="M123.35,176.23 L122.83,176.02 L123.34,176.03 L123.37,176.40 "/><path d="M122.83,176.02 L122.78,176.09 "/><path d="M122.60,166.15 L123.10,165.89 L123.11,166.74 L122.46,167.54 L122.24,167.03 "/><path d="M123.94,44.95 L124.19,43.59 L123.60,43.96 L123.32,44.77 L123.48,45.24 L123.94,44.95 "/><path d="M123.69,43.84 L123.33,44.72 "/><path d="M123.23,36.93 L123.82,35.80 L124.20,36.11 L124.10,36.64 L123.41,37.44 L123.23,36.96 L123.59,36.04 "/><path d="M125.64,199.79 L125.33,201.06 L125.82,200.99 L126.11,200.52 L126.10,199.50 L125.30,200.66 "/><path d="M125.29,193.35 L125.28,192.50 L126.00,191.70 L126.01,192.72 L125.29,193.35 "/><path d="M125.20,192.85 L125.54,191.99 "/><path d="M125.33,157.57 L124.93,157.86 L124.77,157.12 L125.58,156.21 L125.33,157.57 "/><path d="M124.72,157.34 L125.08,156.46 "/><path d="M125.25,140.03 L124.89,139.92 L124.93,139.52 L125.58,138.80 L125.25,140.03 "/><path d="M125.06,134.49 L125.58,133.64 L125.33,133.18 L124.86,133.90 L125.06,134.49 "/><path d="M124.83,31.69 L124.59,31.87 "/></g><g style="stroke:#000000;stroke-width:0.529"><path d="M71.36,59.48 C72.76,57.83 72.76,57.83 74.19,56.21 C79.81,50.60 79.82,50.60 85.47,45.03 C86.95,43.72 86.95,43.72 88.47,42.44 "/><path d="M17.24,210.00 L16.29,134.39 L16.80,133.91 L18.15,134.45 L17.96,115.08 L18.36,114.20 L41.50,88.69 "/><path d="M34.74,111.10 L34.39,111.67 L34.91,110.29 L34.74,111.10 "/><path d="M37.03,108.72 L37.56,107.33 L37.03,108.72 "/><path d="M41.22,104.03 L41.75,102.64 L41.22,104.03 "/><path d="M41.55,88.64 L49.93,80.31 L52.66,78.21 L54.24,78.23 L63.03,81.81 L64.22,81.63 L64.46,81.03 L71.49,74.05 L71.36,59.48 "/><path d="M88.47,42.44 L87.82,43.00 "/><path d="M43.61,101.34 L44.20,99.90 L43.61,101.34 "/><path d="M57.72,86.61 L58.50,86.89 L58.85,87.61 L58.18,87.43 L57.72,86.61 "/><path d="M57.67,82.31 L58.62,83.31 L58.45,82.53 L57.67,82.31 "/><path d="M58.77,109.75 L58.34,108.69 L58.41,108.30 L58.98,108.22 L60.36,109.07 L60.82,110.45 L60.03,110.65 L58.77,109.75 "/><path d="M58.85,97.65 L58.27,96.74 L58.44,95.82 L59.34,95.98 L60.21,96.67 L60.67,98.05 L59.76,98.23 L58.85,97.65 "/><path d="M66.18,95.03 L65.95,95.57 L66.21,94.82 L66.18,95.03 "/><path d="M73.72,60.31 L74.25,58.92 L73.72,60.31 "/><path d="M80.95,63.42 L80.93,63.66 L80.95,63.42 "/><path d="M82.84,62.41 L82.81,62.73 L83.40,61.44 L82.84,62.41 "/><path d="M87.02,59.08 L87.61,57.79 L87.02,59.08 "/><path d="M88.47,42.44 L106.12,27.19 L111.00,28.93 L115.24,30.95 L116.41,32.48 L116.55,36.33 L117.76,36.94 L121.80,33.94 L121.75,29.68 L122.17,29.21 L124.96,30.28 L125.58,30.83 L127.89,206.83 L126.04,210.00 "/><path d="M89.67,56.77 L90.26,55.33 L89.67,56.77 "/><path d="M112.54,203.53 L112.21,202.76 L111.44,202.41 "/><path d="M111.21,184.23 L112.00,184.59 L112.32,185.34 "/><path d="M112.09,167.16 L111.72,166.37 L110.98,166.04 "/><path d="M112.29,124.64 L113.17,125.21 L112.98,124.56 L112.29,124.12 L112.29,124.64 "/><path d="M119.88,47.18 L120.11,46.57 L119.76,47.37 L119.88,47.18 "/><path d="M119.67,39.57 L120.02,38.76 L119.67,39.57 "/><path d="M121.76,204.99 L122.10,204.21 L121.76,204.99 "/><path d="M121.99,196.52 L121.77,197.09 L121.99,196.52 "/><path d="M122.49,186.86 L122.84,186.06 L122.49,186.86 "/><path d="M122.38,177.29 L122.66,176.23 L122.38,177.29 "/><path d="M122.24,167.03 L122.59,166.22 L122.24,167.03 "/></g></g><g id="Actor_.1"><g style="stroke:#000000;stroke-width:0.176"><path d="M57.14,181.38 C57.13,181.24 57.13,181.24 57.11,181.11 C57.06,180.97 57.06,180.97 56.99,180.83 C56.90,180.69 56.90,180.69 56.80,180.56 C56.68,180.44 56.68,180.44 56.55,180.33 C56.42,180.25 56.41,180.25 56.27,180.18 C56.14,180.14 56.14,180.14 56.00,180.11 "/><path d="M56.92,181.75 L57.07,181.60 L57.14,181.38 "/><path d="M56.00,180.11 L55.75,180.13 L55.56,180.24 "/></g><g style="stroke:#000000;stroke-width:0.529"><path d="M55.43,180.68 C55.46,180.82 55.46,180.82 55.50,180.96 C55.58,181.10 55.58,181.10 55.66,181.24 C55.77,181.36 55.77,181.36 55.88,181.49 C56.01,181.58 56.01,181.59 56.15,181.68 C56.29,181.74 56.29,181.74 56.43,181.79 C56.56,181.81 56.57,181.81 56.70,181.82 "/><path d="M55.71,180.10 L55.56,180.24 L55.45,180.43 L55.43,180.68 "/><path d="M56.70,181.82 L56.92,181.75 L57.15,181.53 "/></g></g><g id="Actor_.2"><g style="stroke:#000000;stroke-width:0.176"><path d="M55.60,143.37 C55.78,143.41 55.78,143.41 55.95,143.46 C56.13,143.56 56.13,143.56 56.30,143.66 C56.46,143.80 56.46,143.80 56.62,143.94 C56.74,144.11 56.75,144.11 56.86,144.28 C56.94,144.46 56.94,144.46 57.01,144.64 C57.03,144.80 57.03,144.81 57.04,144.97 "/><path d="M56.10,143.20 C56.29,143.30 56.29,143.30 56.48,143.41 C56.66,143.57 56.66,143.57 56.84,143.74 C56.99,143.93 56.99,143.93 57.13,144.13 C57.22,144.34 57.22,144.34 57.30,144.55 C57.32,144.70 57.32,144.70 57.33,144.86 "/><path d="M57.19,141.83 C57.39,141.90 57.39,141.91 57.58,141.99 C57.78,142.12 57.78,142.13 57.97,142.27 C58.14,142.45 58.14,142.45 58.30,142.64 C58.36,142.74 58.36,142.74 58.42,142.84 C58.48,142.95 58.48,142.94 58.53,143.05 C58.59,143.25 58.59,143.25 58.64,143.46 "/><path d="M57.24,141.27 C57.52,141.37 57.52,141.37 57.79,141.49 C58.06,141.67 58.06,141.67 58.31,141.87 C58.54,142.10 58.54,142.11 58.75,142.35 C58.91,142.62 58.91,142.62 59.06,142.90 C59.14,143.17 59.14,143.17 59.20,143.44 "/><path d="M55.03,144.54 L54.98,144.45 L54.89,144.10 L54.91,143.79 L55.05,143.54 L55.29,143.40 L55.60,143.37 "/><path d="M57.04,144.97 L56.96,145.26 L56.77,145.45 L56.49,145.54 L56.16,145.51 L55.80,145.36 L55.78,145.34 "/><path d="M55.25,143.72 L55.23,143.74 "/><path d="M55.29,143.70 L55.43,143.62 L55.45,143.62 "/><path d="M55.50,143.61 L55.70,143.60 "/><path d="M55.76,143.62 L55.97,143.68 "/><path d="M55.02,143.28 L55.29,143.11 L55.66,143.08 L56.07,143.18 L56.10,143.20 "/><path d="M57.33,144.86 L57.34,144.94 L57.25,145.27 L57.02,145.50 "/><path d="M56.60,145.25 L56.68,145.17 "/><path d="M56.80,144.68 L56.82,144.88 "/><path d="M56.75,145.10 L56.76,145.09 L56.80,144.93 "/><path d="M56.80,144.62 L56.71,144.40 "/><path d="M56.31,143.89 L56.50,144.07 "/><path d="M56.04,143.71 L56.25,143.84 "/><path d="M56.54,144.13 L56.69,144.34 "/><path d="M55.90,142.41 L56.44,141.88 L56.77,141.78 L57.16,141.82 L57.19,141.83 "/><path d="M58.64,143.46 L58.61,143.83 L58.45,144.11 L58.01,144.54 "/><path d="M56.00,141.66 L56.29,141.36 L56.72,141.22 L56.98,141.25 L57.24,141.27 "/><path d="M59.20,143.44 L59.16,143.93 L58.95,144.30 "/></g><g style="stroke:#000000;stroke-width:0.529"><path d="M55.82,145.43 C55.63,145.30 55.62,145.30 55.44,145.16 C55.28,144.99 55.28,144.99 55.12,144.82 C55.01,144.63 55.01,144.62 54.91,144.43 C54.84,144.22 54.84,144.22 54.79,144.00 "/><path d="M57.10,141.10 C57.37,141.16 57.37,141.16 57.64,141.24 C57.91,141.38 57.92,141.38 58.18,141.54 C58.43,141.75 58.43,141.75 58.67,141.98 C58.86,142.23 58.87,142.23 59.05,142.50 C59.17,142.77 59.17,142.77 59.28,143.05 C59.31,143.31 59.31,143.31 59.33,143.57 "/><path d="M59.20,144.01 C59.08,144.16 59.08,144.16 58.95,144.30 C58.87,144.37 58.87,144.37 58.78,144.43 C58.68,144.48 58.68,144.48 58.58,144.52 "/><path d="M54.79,144.00 L54.83,143.60 L55.02,143.28 L55.90,142.41 L55.87,142.09 L56.00,141.66 L56.25,141.36 L56.62,141.14 L57.10,141.10 "/><path d="M59.33,143.57 L59.20,144.01 "/><path d="M58.58,144.52 L58.10,144.56 L58.01,144.54 L57.02,145.50 L56.98,145.53 L56.61,145.63 L56.23,145.60 L55.82,145.43 "/></g></g><g id="Actor_.3"><g style="stroke:#000000;stroke-width:0.176"><path d="M56.68,145.02 C56.67,144.89 56.67,144.89 56.66,144.76 C56.61,144.61 56.60,144.61 56.55,144.47 C56.45,144.34 56.45,144.34 56.36,144.20 C56.24,144.09 56.24,144.09 56.11,143.98 C55.97,143.89 55.97,143.89 55.83,143.82 C55.69,143.77 55.69,143.77 55.55,143.74 "/><path d="M56.61,145.24 L56.68,145.02 "/><path d="M55.55,143.74 L55.30,143.76 L55.11,143.86 "/></g><g style="stroke:#000000;stroke-width:0.529"><path d="M54.97,144.30 C55.00,144.43 55.00,144.44 55.04,144.57 C55.11,144.71 55.11,144.72 55.19,144.85 C55.30,144.98 55.30,144.98 55.41,145.11 C55.54,145.21 55.54,145.21 55.68,145.30 C55.82,145.36 55.82,145.37 55.96,145.42 C56.09,145.44 56.09,145.44 56.23,145.45 "/><path d="M55.25,143.72 L55.11,143.86 L55.00,144.05 L54.97,144.30 "/><path d="M56.23,145.45 L56.45,145.39 L56.74,145.11 "/></g></g><g id="Actor_.4"><g style="stroke:#000000;stroke-width:0.176"><path d="M57.73,199.33 C57.68,199.16 57.68,199.15 57.62,198.98 C57.52,198.80 57.52,198.80 57.42,198.63 C57.28,198.47 57.27,198.47 57.13,198.32 C56.96,198.20 56.96,198.20 56.79,198.08 C56.61,198.01 56.61,198.01 56.43,197.95 C56.27,197.93 56.26,197.93 56.10,197.93 "/><path d="M56.12,197.63 C56.32,197.64 56.32,197.64 56.51,197.66 C56.72,197.73 56.72,197.73 56.93,197.81 C57.13,197.95 57.13,197.95 57.32,198.09 C57.50,198.26 57.50,198.27 57.66,198.45 C57.79,198.65 57.79,198.65 57.90,198.86 C57.97,199.06 57.97,199.06 58.02,199.27 "/><path d="M58.05,196.44 C58.24,196.54 58.25,196.54 58.43,196.64 C58.62,196.80 58.62,196.80 58.81,196.97 C58.96,197.16 58.96,197.16 59.10,197.36 C59.15,197.46 59.14,197.46 59.19,197.57 C59.24,197.67 59.24,197.67 59.28,197.77 C59.31,197.97 59.31,197.97 59.33,198.17 C59.32,198.26 59.32,198.26 59.31,198.35 C59.28,198.43 59.28,198.43 59.25,198.51 "/><path d="M58.16,195.89 C58.43,196.03 58.43,196.03 58.70,196.18 C58.95,196.39 58.95,196.39 59.20,196.61 C59.40,196.86 59.40,196.87 59.59,197.13 C59.71,197.40 59.71,197.40 59.83,197.68 C59.87,197.94 59.87,197.94 59.90,198.21 C59.88,198.32 59.88,198.32 59.86,198.44 C59.82,198.55 59.82,198.55 59.78,198.65 "/><path d="M56.57,199.94 L56.70,200.01 L57.04,200.09 L57.35,200.05 L57.58,199.90 L57.71,199.65 L57.73,199.33 "/><path d="M56.10,197.93 L55.83,198.02 L55.64,198.23 L55.57,198.51 L55.61,198.85 L55.77,199.20 "/><path d="M55.81,197.74 L56.12,197.63 "/><path d="M58.02,199.27 L58.00,199.64 L57.85,199.93 "/><path d="M56.01,198.22 L56.00,198.23 L55.93,198.30 "/><path d="M56.29,198.15 L56.50,198.17 "/><path d="M56.78,198.29 L56.56,198.20 "/><path d="M56.23,198.15 L56.21,198.15 L56.06,198.20 "/><path d="M57.05,198.48 L56.84,198.33 "/><path d="M56.57,196.97 L56.99,196.55 L57.26,196.38 L57.61,196.33 L58.02,196.43 L58.05,196.44 "/><path d="M59.25,198.51 L59.03,198.74 L58.69,199.09 "/><path d="M56.79,196.06 L57.14,195.83 L57.62,195.77 L57.89,195.83 L58.16,195.89 "/><path d="M59.78,198.65 L59.50,198.96 "/><path d="M57.46,199.58 L57.39,199.72 L57.38,199.72 "/><path d="M57.50,199.34 L57.48,199.53 "/><path d="M57.45,199.07 L57.50,199.28 "/><path d="M57.31,198.79 L57.43,199.01 "/><path d="M57.10,198.53 L57.27,198.73 "/></g><g style="stroke:#000000;stroke-width:0.529"><path d="M57.49,195.66 C57.75,195.66 57.75,195.66 58.00,195.69 C58.28,195.78 58.28,195.79 58.55,195.90 C58.82,196.07 58.82,196.07 59.08,196.26 C59.31,196.49 59.31,196.50 59.53,196.74 C59.70,197.01 59.70,197.01 59.85,197.28 C59.94,197.55 59.94,197.55 60.01,197.83 "/><path d="M57.15,200.19 C56.95,200.15 56.95,200.15 56.75,200.10 C56.54,200.00 56.54,199.99 56.33,199.88 C56.16,199.73 56.16,199.73 55.98,199.58 C55.90,199.47 55.90,199.47 55.82,199.36 "/><path d="M55.82,199.36 L55.71,199.21 L55.52,198.79 L55.47,198.40 L55.56,198.02 L55.59,197.98 L55.81,197.74 L56.57,196.97 L56.57,196.94 L56.59,196.45 L56.79,196.06 L57.07,195.80 L57.49,195.66 "/><path d="M60.01,197.83 L59.98,198.32 L59.78,198.70 L59.50,198.96 L59.08,199.11 L58.69,199.09 L57.85,199.93 L57.54,200.14 L57.15,200.19 "/></g></g><g id="Actor_.5"><g style="stroke:#000000;stroke-width:0.176"><path d="M57.36,199.42 C57.33,199.28 57.33,199.28 57.29,199.14 C57.21,199.00 57.21,199.00 57.13,198.86 C57.02,198.74 57.02,198.74 56.90,198.62 C56.77,198.52 56.77,198.52 56.64,198.43 C56.50,198.37 56.50,198.36 56.35,198.31 C56.22,198.30 56.22,198.30 56.09,198.29 "/><path d="M57.24,199.86 L57.35,199.67 L57.36,199.42 "/><path d="M56.09,198.29 L55.87,198.36 "/></g><g style="stroke:#000000;stroke-width:0.529"><path d="M56.80,200.00 C56.67,199.97 56.66,199.97 56.53,199.93 C56.39,199.86 56.39,199.86 56.25,199.78 C56.12,199.67 56.12,199.67 56.00,199.56 C55.90,199.43 55.90,199.43 55.80,199.29 C55.74,199.15 55.74,199.15 55.68,199.01 C55.67,198.87 55.67,198.87 55.66,198.74 "/><path d="M57.24,199.86 L57.05,199.98 L56.80,200.00 "/><path d="M55.66,198.74 L55.72,198.52 L56.01,198.22 "/><path d="M57.37,199.73 L57.24,199.86 "/></g></g><g id="Actor_.6"><g style="stroke:#000000;stroke-width:0.176"><path d="M57.27,162.98 C57.23,162.81 57.23,162.81 57.18,162.63 C57.08,162.45 57.08,162.45 56.97,162.28 C56.83,162.12 56.83,162.12 56.69,161.97 C56.52,161.84 56.52,161.84 56.35,161.73 C56.17,161.65 56.17,161.65 55.99,161.59 C55.83,161.57 55.82,161.57 55.66,161.56 "/><path d="M57.57,162.93 C57.52,162.72 57.52,162.72 57.46,162.51 C57.34,162.31 57.34,162.31 57.22,162.10 C57.06,161.92 57.06,161.92 56.89,161.74 C56.69,161.59 56.69,161.60 56.49,161.46 C56.39,161.42 56.39,161.42 56.29,161.38 C56.18,161.34 56.19,161.33 56.08,161.29 C55.88,161.27 55.88,161.27 55.69,161.26 "/><path d="M57.62,160.08 C57.81,160.18 57.81,160.18 58.00,160.29 C58.18,160.45 58.19,160.45 58.37,160.62 C58.52,160.82 58.52,160.82 58.66,161.03 C58.75,161.23 58.75,161.23 58.83,161.43 C58.86,161.63 58.86,161.63 58.87,161.82 "/><path d="M57.73,159.54 C58.00,159.68 58.01,159.68 58.27,159.84 C58.52,160.05 58.52,160.05 58.76,160.27 C58.96,160.52 58.96,160.53 59.15,160.79 C59.27,161.06 59.27,161.06 59.38,161.34 C59.41,161.60 59.42,161.60 59.44,161.87 "/><path d="M56.10,163.57 L56.22,163.64 L56.57,163.72 L56.87,163.69 L57.11,163.54 L57.25,163.30 L57.27,162.98 "/><path d="M55.66,161.56 L55.38,161.65 L55.19,161.85 L55.11,162.13 L55.15,162.47 L55.31,162.83 "/><path d="M55.56,161.85 L55.55,161.85 L55.44,161.96 "/><path d="M55.79,161.78 L55.77,161.78 L55.61,161.83 "/><path d="M57.38,163.58 L57.54,163.29 L57.57,162.93 "/><path d="M55.69,161.26 L55.36,161.37 "/><path d="M56.40,161.97 L56.60,162.12 "/><path d="M56.65,162.18 L56.82,162.37 "/><path d="M56.86,162.43 L56.98,162.65 "/><path d="M55.85,161.79 L56.05,161.81 "/><path d="M56.12,161.84 L56.34,161.93 "/><path d="M56.12,160.60 L56.54,160.17 L56.82,160.00 L57.18,159.97 L57.59,160.07 L57.62,160.08 "/><path d="M58.87,161.82 L58.78,162.16 L58.69,162.28 L58.25,162.72 "/><path d="M56.35,159.68 L56.71,159.45 L57.19,159.40 L57.46,159.47 L57.73,159.54 "/><path d="M59.44,161.87 L59.31,162.30 L59.19,162.47 "/><path d="M57.00,163.22 L56.92,163.36 L56.91,163.37 "/><path d="M56.99,162.71 L57.05,162.93 "/><path d="M57.04,162.99 L57.02,163.18 "/></g><g style="stroke:#000000;stroke-width:0.529"><path d="M55.82,163.47 C55.66,163.33 55.66,163.33 55.51,163.19 C55.37,163.01 55.37,163.01 55.24,162.82 C55.14,162.61 55.14,162.61 55.06,162.40 C55.03,162.21 55.03,162.20 55.02,162.01 "/><path d="M57.06,159.28 C57.32,159.30 57.32,159.30 57.58,159.33 C57.85,159.43 57.86,159.43 58.13,159.55 C58.39,159.72 58.39,159.73 58.65,159.92 C58.88,160.15 58.88,160.15 59.09,160.40 C59.26,160.67 59.26,160.67 59.41,160.94 C59.49,161.21 59.49,161.22 59.55,161.49 "/><path d="M59.52,161.98 C59.42,162.17 59.42,162.17 59.31,162.35 C59.25,162.42 59.25,162.41 59.19,162.47 C59.11,162.54 59.11,162.54 59.02,162.61 "/><path d="M55.02,162.01 L55.12,161.64 L55.14,161.60 L55.36,161.37 L56.12,160.60 L56.10,160.54 L56.14,160.06 L56.35,159.68 L56.63,159.42 L57.06,159.28 "/><path d="M59.55,161.49 L59.54,161.69 L59.52,161.98 "/><path d="M59.02,162.61 L58.60,162.75 L58.25,162.72 L57.38,163.58 L57.07,163.78 L56.67,163.82 L56.27,163.72 L55.86,163.50 L55.82,163.47 "/></g></g><g id="Actor_.7"><g style="stroke:#000000;stroke-width:0.176"><path d="M56.91,163.07 C56.88,162.93 56.88,162.93 56.84,162.79 C56.76,162.65 56.76,162.65 56.68,162.51 C56.58,162.38 56.57,162.38 56.46,162.26 C56.33,162.16 56.33,162.16 56.19,162.07 C56.06,162.00 56.05,162.00 55.91,161.95 "/><path d="M56.77,163.50 L56.88,163.32 L56.91,163.07 "/><path d="M55.91,161.95 L55.82,161.94 L55.65,161.92 L55.42,161.99 L55.27,162.14 "/></g><g style="stroke:#000000;stroke-width:0.529"><path d="M55.20,162.36 C55.21,162.49 55.21,162.49 55.22,162.62 C55.28,162.77 55.28,162.77 55.34,162.91 C55.43,163.04 55.43,163.04 55.53,163.18 C55.65,163.29 55.65,163.29 55.78,163.40 C55.91,163.48 55.91,163.48 56.05,163.56 C56.19,163.60 56.19,163.60 56.33,163.63 "/><path d="M55.41,161.99 L55.27,162.14 L55.20,162.36 "/><path d="M56.33,163.63 L56.58,163.61 L56.77,163.50 "/><path d="M56.93,163.35 L56.77,163.50 "/></g></g><g id="Actor_.8"><g style="stroke:#000000;stroke-width:0.176"><path d="M109.81,185.78 C109.91,185.78 109.91,185.78 110.01,185.80 C110.12,185.84 110.12,185.84 110.22,185.89 C110.32,185.96 110.32,185.96 110.42,186.03 C110.50,186.12 110.51,186.12 110.59,186.21 C110.65,186.32 110.65,186.32 110.70,186.43 C110.73,186.53 110.73,186.53 110.75,186.63 "/><path d="M110.33,187.05 C110.22,187.03 110.22,187.03 110.12,187.00 C110.01,186.94 110.01,186.94 109.91,186.88 C109.82,186.80 109.82,186.80 109.73,186.71 C109.65,186.61 109.65,186.61 109.58,186.51 C109.54,186.41 109.54,186.41 109.50,186.30 C109.49,186.20 109.49,186.20 109.48,186.10 "/><path d="M109.84,185.66 C109.95,185.67 109.95,185.67 110.06,185.68 C110.12,185.70 110.12,185.70 110.18,185.73 C110.23,185.75 110.23,185.75 110.29,185.78 "/><path d="M110.29,185.78 C110.40,185.85 110.40,185.85 110.51,185.94 C110.60,186.04 110.60,186.04 110.69,186.14 C110.76,186.25 110.76,186.25 110.82,186.37 C110.85,186.48 110.85,186.48 110.87,186.60 "/><path d="M110.53,186.60 C110.52,186.53 110.52,186.53 110.50,186.46 C110.46,186.38 110.46,186.38 110.41,186.31 C110.36,186.24 110.36,186.24 110.30,186.18 C110.23,186.13 110.23,186.13 110.16,186.08 C110.08,186.04 110.08,186.04 110.01,186.01 C109.94,186.00 109.94,186.00 109.87,186.00 "/><path d="M109.63,186.23 C109.64,186.30 109.64,186.30 109.65,186.37 C109.67,186.44 109.67,186.44 109.71,186.52 C109.75,186.59 109.75,186.59 109.81,186.66 C109.87,186.72 109.88,186.72 109.95,186.78 C110.01,186.82 110.01,186.82 110.08,186.86 C110.16,186.88 110.16,186.88 110.23,186.90 "/><path d="M111.19,186.28 C111.17,186.17 111.17,186.17 111.14,186.05 C111.08,185.94 111.08,185.94 111.01,185.83 C110.92,185.72 110.92,185.72 110.83,185.62 C110.72,185.54 110.72,185.54 110.61,185.46 C110.49,185.41 110.49,185.41 110.38,185.36 C110.27,185.35 110.27,185.35 110.16,185.34 "/><path d="M110.48,185.41 C110.60,185.48 110.60,185.48 110.71,185.55 C110.82,185.63 110.82,185.63 110.91,185.73 C110.99,185.83 110.99,185.83 111.07,185.94 C111.12,186.06 111.12,186.06 111.16,186.18 "/><path d="M111.03,185.89 C110.97,185.81 110.97,185.81 110.91,185.73 C110.81,185.64 110.81,185.63 110.71,185.54 C110.60,185.48 110.60,185.48 110.48,185.41 C110.37,185.38 110.37,185.38 110.25,185.35 "/><path d="M109.48,186.10 L109.53,185.94 L109.65,185.83 L109.81,185.78 "/><path d="M110.75,186.63 L110.74,186.78 L110.74,186.82 L110.65,186.96 L110.51,187.04 L110.33,187.05 "/><path d="M109.53,185.83 L109.66,185.71 L109.84,185.66 "/><path d="M110.87,186.60 L110.86,186.80 L110.76,186.96 "/><path d="M110.46,186.83 L110.52,186.73 L110.53,186.60 "/><path d="M109.87,186.00 L109.75,186.03 L109.67,186.11 L109.63,186.23 "/><path d="M110.23,186.90 L110.36,186.89 L110.46,186.83 "/><path d="M111.08,186.64 L111.10,186.60 L111.12,186.58 L111.13,186.55 L111.17,186.49 L111.19,186.28 "/><path d="M110.16,185.34 L110.06,185.37 L110.05,185.37 L109.97,185.39 L109.93,185.44 "/><path d="M109.93,185.44 L110.04,185.38 "/><path d="M111.16,186.18 L111.07,185.95 L111.03,185.89 "/><path d="M110.25,185.35 L110.06,185.37 "/><path d="M111.13,186.55 L111.18,186.40 L111.16,186.18 "/><path d="M111.16,186.17 L111.16,186.17 "/><path d="M111.10,186.60 L111.05,186.66 "/></g><g style="stroke:#000000;stroke-width:0.529"><path d="M110.36,187.08 C110.25,187.05 110.25,187.05 110.14,187.02 C110.02,186.96 110.02,186.96 109.91,186.89 C109.81,186.81 109.81,186.81 109.72,186.72 C109.64,186.61 109.64,186.61 109.57,186.51 C109.52,186.39 109.52,186.39 109.47,186.27 C109.46,186.17 109.46,186.16 109.46,186.06 "/><path d="M112.30,185.43 L111.08,186.64 L111.05,186.66 L110.76,186.96 L110.59,187.06 L110.36,187.08 "/><path d="M109.46,186.06 L109.52,185.86 L109.53,185.83 L109.89,185.46 L109.93,185.44 L111.15,184.23 "/></g></g><g id="Actor_.9"><g style="stroke:#000000;stroke-width:0.176"><path d="M114.38,178.35 C114.51,178.46 114.51,178.46 114.65,178.56 C114.80,178.63 114.80,178.63 114.95,178.70 C115.09,178.72 115.09,178.72 115.23,178.74 "/><path d="M115.73,178.30 C115.72,178.16 115.72,178.16 115.71,178.02 C115.66,177.88 115.66,177.87 115.60,177.73 C115.51,177.58 115.51,177.58 115.41,177.44 C115.28,177.32 115.28,177.32 115.15,177.20 C115.01,177.11 115.01,177.11 114.86,177.02 C114.72,176.98 114.72,176.98 114.57,176.94 "/><path d="M113.93,177.50 C113.96,177.64 113.96,177.64 113.99,177.79 C114.07,177.94 114.07,177.94 114.15,178.08 C114.26,178.22 114.26,178.22 114.38,178.35 "/><path d="M114.36,177.66 C114.37,177.73 114.37,177.73 114.39,177.81 C114.43,177.89 114.43,177.89 114.47,177.96 C114.53,178.04 114.53,178.04 114.59,178.10 C114.66,178.16 114.66,178.16 114.74,178.22 C114.81,178.25 114.82,178.25 114.89,178.29 C114.97,178.30 114.97,178.30 115.04,178.31 "/><path d="M114.69,177.36 C114.77,177.38 114.77,177.38 114.85,177.41 C114.92,177.45 114.93,177.45 115.00,177.50 C115.07,177.56 115.07,177.56 115.13,177.63 C115.19,177.70 115.19,177.70 115.24,177.78 C115.27,177.85 115.27,177.85 115.29,177.93 C115.30,177.99 115.30,177.99 115.30,178.04 "/><path d="M114.47,177.55 C114.47,177.62 114.47,177.62 114.47,177.68 C114.50,177.75 114.50,177.75 114.53,177.82 C114.57,177.89 114.57,177.89 114.62,177.96 C114.68,178.02 114.68,178.02 114.74,178.07 C114.81,178.12 114.81,178.12 114.88,178.16 C114.94,178.18 114.94,178.18 115.01,178.20 "/><path d="M114.75,176.06 C114.98,176.12 114.99,176.12 115.22,176.20 C115.45,176.33 115.46,176.34 115.68,176.48 C115.89,176.67 115.89,176.67 116.09,176.87 C116.25,177.10 116.26,177.10 116.40,177.33 C116.50,177.56 116.50,177.57 116.58,177.80 C116.60,178.02 116.60,178.03 116.60,178.25 "/><path d="M116.44,177.26 C116.30,177.04 116.30,177.04 116.14,176.82 C115.95,176.62 115.95,176.62 115.74,176.44 C115.53,176.30 115.53,176.30 115.31,176.18 "/><path d="M115.23,178.74 L115.47,178.68 L115.64,178.53 L115.73,178.30 "/><path d="M114.57,176.94 L114.30,176.95 L114.09,177.05 L113.97,177.24 L113.93,177.50 "/><path d="M114.54,177.37 L114.51,177.45 L114.59,177.38 L114.64,177.36 L114.56,177.37 L114.44,177.42 L114.38,177.52 L114.36,177.66 "/><path d="M115.04,178.31 L115.17,178.28 L115.26,178.20 L115.30,178.08 L115.30,178.04 L115.30,178.05 L115.24,178.14 L115.19,178.17 L115.28,178.13 "/><path d="M114.64,177.36 L114.69,177.36 "/><path d="M114.51,177.45 L114.47,177.55 "/><path d="M115.01,178.20 L115.14,178.19 L115.19,178.17 "/><path d="M114.32,176.08 L114.75,176.06 "/><path d="M116.60,178.25 L116.47,178.61 "/><path d="M116.48,177.37 L116.44,177.26 "/></g><g style="stroke:#000000;stroke-width:0.529"><path d="M116.20,178.85 C116.01,178.90 116.01,178.90 115.81,178.94 C115.71,178.95 115.71,178.95 115.61,178.96 C115.41,178.93 115.40,178.93 115.20,178.90 "/><path d="M115.20,178.90 C114.94,178.79 114.94,178.79 114.69,178.67 C114.51,178.54 114.51,178.54 114.34,178.41 C114.19,178.24 114.19,178.24 114.05,178.07 C113.95,177.89 113.95,177.89 113.86,177.70 "/><path d="M116.48,177.37 L116.62,177.73 L116.64,178.16 L116.47,178.61 L116.20,178.85 "/><path d="M113.86,177.70 L113.80,177.57 L113.71,177.15 L113.73,176.96 L113.78,176.55 L113.99,176.25 L114.32,176.08 L114.41,176.04 L114.83,176.03 L115.29,176.16 L115.31,176.18 "/></g></g><g id="Actor_.10"><g style="stroke:#000000;stroke-width:0.176"><path d="M57.50,181.32 C57.49,181.15 57.49,181.15 57.46,180.98 C57.39,180.80 57.39,180.80 57.31,180.63 C57.19,180.46 57.19,180.46 57.06,180.29 C56.90,180.15 56.90,180.15 56.74,180.01 C56.57,179.91 56.57,179.91 56.39,179.82 C56.22,179.78 56.21,179.78 56.04,179.74 "/><path d="M56.09,179.44 C56.30,179.49 56.30,179.49 56.51,179.54 C56.71,179.65 56.71,179.65 56.91,179.76 C57.10,179.92 57.10,179.92 57.28,180.09 C57.43,180.28 57.43,180.28 57.57,180.48 C57.67,180.69 57.67,180.69 57.76,180.91 C57.78,181.10 57.78,181.10 57.80,181.29 "/><path d="M58.47,180.91 C58.70,180.69 58.70,180.69 58.92,180.46 C58.97,180.40 58.97,180.40 59.01,180.33 C59.05,180.25 59.05,180.25 59.08,180.18 "/><path d="M59.10,179.81 C59.04,179.60 59.04,179.59 58.98,179.39 C58.87,179.18 58.87,179.18 58.74,178.98 C58.58,178.80 58.58,178.80 58.41,178.62 C58.21,178.48 58.21,178.48 58.01,178.34 C57.81,178.26 57.80,178.26 57.60,178.18 C57.40,178.16 57.40,178.16 57.21,178.15 "/><path d="M57.67,177.63 C57.94,177.73 57.95,177.73 58.22,177.84 C58.48,178.02 58.49,178.02 58.74,178.21 C58.97,178.45 58.97,178.45 59.19,178.69 C59.35,178.96 59.35,178.96 59.50,179.23 C59.53,179.31 59.53,179.32 59.55,179.40 C59.60,179.59 59.60,179.59 59.66,179.78 "/><path d="M56.25,181.72 L56.28,181.74 L56.63,181.88 L56.97,181.90 L57.24,181.81 L57.43,181.61 L57.50,181.32 "/><path d="M56.04,179.74 L55.73,179.77 L55.50,179.92 L55.37,180.17 L55.35,180.49 L55.45,180.84 L55.49,180.92 "/><path d="M55.46,179.66 L55.73,179.48 L56.09,179.44 "/><path d="M57.80,181.29 L57.71,181.62 L57.50,181.86 "/><path d="M55.68,180.12 L55.70,180.10 "/><path d="M55.74,180.07 L55.87,179.99 L55.89,179.99 "/><path d="M56.75,180.25 L56.94,180.42 "/><path d="M56.48,180.07 L56.69,180.20 "/><path d="M56.14,179.97 L55.95,179.98 "/><path d="M56.20,179.98 L56.42,180.04 "/><path d="M59.08,180.18 L59.10,179.81 "/><path d="M57.21,178.15 L56.89,178.26 L56.36,178.78 "/><path d="M56.44,178.05 L56.73,177.74 L57.15,177.59 L57.41,177.61 L57.67,177.63 "/><path d="M59.66,179.78 L59.63,180.27 L59.55,180.48 L59.42,180.65 "/><path d="M57.06,181.61 L57.19,181.49 "/><path d="M57.26,181.29 L57.22,181.45 L57.21,181.46 "/><path d="M57.26,181.03 L57.28,181.24 "/><path d="M57.16,180.75 L57.25,180.97 "/><path d="M57.14,180.69 L56.99,180.48 "/></g><g style="stroke:#000000;stroke-width:0.529"><path d="M55.82,181.45 C55.71,181.33 55.70,181.33 55.60,181.21 C55.48,181.00 55.47,181.00 55.36,180.79 C55.30,180.60 55.30,180.59 55.25,180.39 "/><path d="M58.07,177.59 C58.34,177.73 58.34,177.73 58.61,177.89 C58.86,178.10 58.86,178.10 59.10,178.32 C59.30,178.57 59.30,178.57 59.49,178.84 C59.61,179.11 59.62,179.11 59.73,179.39 C59.76,179.65 59.77,179.65 59.79,179.91 "/><path d="M57.09,182.00 C56.90,181.99 56.90,181.99 56.71,181.97 C56.50,181.90 56.50,181.90 56.29,181.81 C56.10,181.68 56.10,181.68 55.91,181.55 C55.86,181.50 55.86,181.50 55.82,181.45 "/><path d="M55.25,180.39 L55.28,179.99 L55.46,179.66 L56.36,178.78 L56.33,178.49 L56.44,178.05 L56.69,177.75 L57.05,177.52 L57.53,177.47 L57.85,177.54 L58.07,177.59 "/><path d="M59.79,179.91 L59.67,180.35 L59.42,180.65 L59.06,180.88 L58.59,180.93 L58.47,180.91 L57.50,181.86 L57.45,181.89 L57.14,181.99 L57.09,182.00 "/></g></g><g id="Actor_.11"><g style="stroke:#000000;stroke-width:0.176"><path d="M110.59,205.23 C110.51,205.22 110.51,205.22 110.43,205.21 C110.32,205.17 110.32,205.17 110.22,205.12 C110.12,205.04 110.12,205.04 110.02,204.97 C109.94,204.87 109.94,204.87 109.86,204.78 C109.81,204.67 109.80,204.67 109.75,204.57 C109.73,204.46 109.73,204.46 109.71,204.36 "/><path d="M110.16,203.97 C110.27,203.99 110.27,203.99 110.37,204.03 C110.47,204.09 110.47,204.09 110.58,204.15 C110.67,204.24 110.67,204.24 110.76,204.33 C110.83,204.42 110.83,204.43 110.89,204.53 C110.93,204.63 110.94,204.63 110.97,204.74 C110.98,204.84 110.98,204.84 110.98,204.93 "/><path d="M110.51,205.09 C110.44,205.08 110.44,205.08 110.37,205.07 C110.29,205.04 110.29,205.03 110.22,205.00 C110.15,204.95 110.15,204.95 110.08,204.89 C110.02,204.83 110.02,204.83 109.97,204.76 C109.93,204.69 109.93,204.69 109.89,204.61 C109.87,204.54 109.87,204.54 109.86,204.47 "/><path d="M110.18,204.19 C110.25,204.21 110.26,204.21 110.33,204.23 C110.40,204.27 110.40,204.27 110.47,204.32 C110.54,204.38 110.54,204.38 110.60,204.44 C110.65,204.51 110.65,204.51 110.70,204.58 C110.73,204.66 110.73,204.66 110.75,204.73 C110.76,204.80 110.76,204.80 110.76,204.87 "/><path d="M110.20,203.84 C110.31,203.88 110.32,203.88 110.43,203.91 C110.54,203.98 110.54,203.98 110.66,204.05 C110.76,204.14 110.76,204.14 110.85,204.24 C110.93,204.35 110.93,204.35 111.01,204.46 C111.05,204.58 111.05,204.58 111.09,204.70 C111.10,204.80 111.10,204.80 111.10,204.91 "/><path d="M110.52,203.53 C110.63,203.56 110.63,203.56 110.75,203.60 C110.86,203.66 110.86,203.66 110.97,203.73 C111.07,203.83 111.08,203.83 111.17,203.93 C111.25,204.04 111.25,204.04 111.32,204.15 "/><path d="M110.40,203.53 C110.51,203.55 110.51,203.55 110.62,203.57 C110.73,203.61 110.74,203.62 110.85,203.67 C110.96,203.75 110.96,203.75 111.07,203.84 C111.16,203.94 111.16,203.94 111.24,204.05 C111.31,204.16 111.31,204.16 111.36,204.28 C111.39,204.39 111.39,204.39 111.41,204.50 "/><path d="M110.62,203.57 C110.74,203.62 110.74,203.62 110.86,203.67 C110.97,203.75 110.97,203.75 111.07,203.84 C111.16,203.94 111.16,203.94 111.24,204.04 C111.30,204.16 111.31,204.16 111.36,204.28 "/><path d="M109.71,204.36 L109.73,204.18 L109.83,204.05 L109.97,203.97 L110.16,203.97 "/><path d="M110.98,204.93 L110.92,205.09 L110.80,205.20 L110.63,205.24 L110.59,205.23 "/><path d="M109.86,204.47 L109.88,204.34 L109.94,204.24 L110.05,204.19 L110.18,204.19 "/><path d="M110.76,204.87 L110.72,204.98 L110.63,205.06 L110.51,205.09 "/><path d="M109.73,204.08 L109.73,204.08 "/><path d="M109.83,203.93 L109.99,203.85 L110.20,203.84 "/><path d="M111.10,204.91 L111.04,205.09 "/><path d="M110.15,203.62 L110.19,203.60 L110.21,203.58 L110.24,203.57 L110.31,203.54 L110.52,203.53 "/><path d="M111.32,204.15 L111.35,204.21 L111.41,204.38 L111.42,204.60 L111.39,204.68 L111.38,204.70 L111.38,204.72 L111.35,204.77 "/><path d="M110.19,203.60 L110.12,203.66 "/><path d="M110.24,203.57 L110.40,203.53 "/><path d="M111.41,204.50 L111.39,204.68 "/><path d="M111.38,204.72 L111.31,204.81 "/><path d="M110.63,203.57 L110.63,203.57 "/></g><g style="stroke:#000000;stroke-width:0.529"><path d="M109.68,204.32 C109.70,204.43 109.70,204.43 109.73,204.54 C109.79,204.66 109.79,204.66 109.85,204.77 C109.93,204.88 109.93,204.88 110.02,204.97 C110.12,205.05 110.12,205.05 110.22,205.13 C110.34,205.18 110.34,205.19 110.46,205.24 C110.56,205.25 110.56,205.25 110.67,205.27 "/><path d="M111.35,202.42 L110.15,203.62 L110.12,203.66 L109.83,203.93 L109.71,204.10 L109.68,204.32 "/><path d="M110.67,205.27 L110.88,205.22 L111.04,205.09 L111.28,204.85 L111.31,204.81 L112.54,203.60 "/></g></g><g id="Actor_.12"><g style="stroke:#000000;stroke-width:0.176"><path d="M114.56,196.49 C114.45,196.36 114.45,196.36 114.35,196.22 C114.27,196.07 114.27,196.07 114.21,195.92 C114.18,195.78 114.18,195.78 114.16,195.63 "/><path d="M114.57,195.12 C114.71,195.12 114.71,195.12 114.84,195.13 C114.99,195.17 114.99,195.18 115.14,195.23 C115.28,195.32 115.29,195.32 115.43,195.42 C115.55,195.54 115.55,195.54 115.67,195.67 C115.77,195.81 115.77,195.81 115.85,195.95 C115.90,196.10 115.90,196.10 115.95,196.26 "/><path d="M115.42,196.92 C115.27,196.90 115.27,196.90 115.13,196.86 C114.98,196.80 114.98,196.79 114.83,196.72 C114.70,196.61 114.70,196.61 114.56,196.49 "/><path d="M114.59,195.82 C114.60,195.89 114.60,195.89 114.61,195.97 C114.65,196.04 114.65,196.05 114.69,196.12 C114.74,196.19 114.74,196.20 114.80,196.27 C114.87,196.33 114.87,196.33 114.94,196.38 C115.02,196.42 115.02,196.42 115.10,196.46 C115.17,196.48 115.17,196.48 115.25,196.49 "/><path d="M115.35,196.38 C115.29,196.38 115.28,196.38 115.22,196.38 C115.15,196.35 115.15,196.35 115.08,196.33 C115.01,196.29 115.01,196.29 114.95,196.24 C114.89,196.18 114.89,196.18 114.83,196.12 C114.79,196.05 114.78,196.05 114.74,195.98 C114.72,195.93 114.72,195.93 114.71,195.87 "/><path d="M114.62,194.25 C114.83,194.24 114.84,194.24 115.05,194.26 C115.29,194.33 115.29,194.33 115.53,194.42 C115.76,194.57 115.76,194.57 115.99,194.72 C116.19,194.92 116.19,194.92 116.38,195.13 C116.53,195.35 116.53,195.36 116.67,195.59 C116.75,195.82 116.75,195.83 116.82,196.06 "/><path d="M114.95,195.55 C115.02,195.57 115.03,195.57 115.10,195.60 C115.18,195.65 115.18,195.65 115.25,195.70 C115.32,195.77 115.32,195.77 115.38,195.83 C115.43,195.91 115.43,195.91 115.48,195.99 C115.50,196.06 115.50,196.06 115.53,196.14 "/><path d="M116.69,195.49 C116.56,195.28 116.56,195.27 116.43,195.07 C116.24,194.87 116.24,194.87 116.04,194.68 C115.82,194.53 115.82,194.52 115.59,194.38 "/><path d="M114.16,195.63 L114.21,195.39 L114.35,195.21 L114.57,195.12 "/><path d="M115.95,196.26 L115.95,196.53 L115.85,196.74 L115.67,196.88 L115.42,196.92 "/><path d="M114.77,195.56 L114.69,195.59 L114.61,195.69 L114.59,195.82 "/><path d="M115.25,196.49 L115.38,196.47 L115.48,196.40 L115.53,196.28 L115.53,196.22 L115.52,196.25 L115.45,196.34 L115.40,196.36 L115.35,196.38 "/><path d="M114.71,195.87 L114.70,195.84 L114.70,195.72 L114.77,195.56 L114.80,195.55 L114.86,195.55 L114.83,195.55 L114.75,195.62 "/><path d="M116.82,196.06 L116.82,196.50 "/><path d="M115.40,196.36 L115.51,196.31 "/><path d="M114.86,195.55 L114.95,195.55 "/><path d="M115.53,196.14 L115.53,196.22 "/><path d="M116.72,195.55 L116.69,195.49 "/><path d="M115.59,194.38 L115.54,194.36 "/></g><g style="stroke:#000000;stroke-width:0.529"><path d="M113.94,195.27 C113.97,195.48 113.97,195.48 114.01,195.69 C114.12,195.94 114.12,195.94 114.24,196.19 C114.37,196.37 114.37,196.37 114.51,196.54 C114.68,196.68 114.68,196.68 114.85,196.82 C115.10,196.94 115.10,196.95 115.36,197.06 C115.56,197.11 115.57,197.11 115.78,197.14 "/><path d="M115.54,194.36 L115.13,194.22 L114.71,194.21 L114.27,194.39 L114.04,194.68 L113.96,195.07 L113.94,195.27 "/><path d="M115.78,197.14 L115.97,197.13 L116.37,197.06 L116.66,196.84 L116.82,196.50 L116.86,196.41 L116.86,195.99 L116.72,195.55 "/></g></g><g id="Actor_.13"><g style="stroke:#000000;stroke-width:0.176"><path d="M109.25,168.02 C109.28,168.12 109.28,168.12 109.31,168.23 C109.36,168.33 109.36,168.33 109.42,168.43 C109.50,168.53 109.50,168.53 109.59,168.62 C109.69,168.69 109.69,168.69 109.79,168.76 C109.89,168.81 109.89,168.81 110.00,168.85 C110.10,168.86 110.10,168.86 110.20,168.87 "/><path d="M110.53,168.54 C110.52,168.44 110.52,168.44 110.51,168.34 C110.47,168.24 110.47,168.24 110.42,168.13 C110.35,168.03 110.35,168.03 110.28,167.93 C110.19,167.85 110.19,167.85 110.09,167.76 C109.99,167.70 109.99,167.70 109.88,167.65 C109.78,167.62 109.78,167.62 109.68,167.59 "/><path d="M109.70,167.82 C109.78,167.83 109.78,167.83 109.85,167.85 C109.92,167.89 109.93,167.89 110.00,167.94 C110.06,167.99 110.06,167.99 110.13,168.06 C110.18,168.12 110.18,168.12 110.23,168.20 C110.26,168.27 110.26,168.27 110.29,168.35 C110.30,168.41 110.30,168.42 110.30,168.49 "/><path d="M110.07,168.72 C110.00,168.71 110.00,168.71 109.93,168.70 C109.86,168.68 109.86,168.68 109.78,168.64 C109.71,168.59 109.71,168.59 109.64,168.54 C109.58,168.48 109.58,168.48 109.52,168.41 C109.48,168.34 109.48,168.34 109.44,168.26 C109.42,168.19 109.42,168.19 109.41,168.12 "/><path d="M109.71,167.47 C109.83,167.50 109.83,167.50 109.94,167.53 C110.06,167.59 110.06,167.59 110.17,167.66 C110.27,167.75 110.27,167.75 110.37,167.85 C110.45,167.95 110.45,167.96 110.53,168.07 C110.56,168.13 110.56,168.13 110.59,168.20 "/><path d="M110.03,167.16 C110.14,167.18 110.15,167.18 110.26,167.22 C110.37,167.28 110.37,167.28 110.49,167.35 C110.59,167.44 110.59,167.44 110.69,167.53 C110.77,167.64 110.77,167.64 110.85,167.75 C110.90,167.86 110.90,167.87 110.94,167.98 C110.96,168.09 110.96,168.09 110.96,168.20 "/><path d="M109.91,167.17 C110.02,167.18 110.02,167.18 110.13,167.19 C110.25,167.23 110.25,167.23 110.36,167.28 C110.47,167.36 110.47,167.36 110.58,167.44 C110.68,167.54 110.68,167.54 110.77,167.65 C110.83,167.76 110.83,167.76 110.89,167.88 C110.93,167.99 110.93,167.99 110.95,168.11 "/><path d="M110.13,167.19 C110.25,167.24 110.25,167.24 110.37,167.29 C110.48,167.36 110.48,167.36 110.59,167.44 C110.68,167.54 110.68,167.54 110.76,167.64 C110.83,167.76 110.83,167.76 110.89,167.88 "/><path d="M109.27,167.83 L109.25,168.02 "/><path d="M110.20,168.87 L110.36,168.82 L110.48,168.71 L110.53,168.54 "/><path d="M109.68,167.59 L109.49,167.61 L109.35,167.69 L109.27,167.83 "/><path d="M109.42,167.99 L109.47,167.89 L109.57,167.83 L109.70,167.82 "/><path d="M110.30,168.49 L110.27,168.60 L110.19,168.68 L110.07,168.72 "/><path d="M109.41,168.12 L109.42,167.99 "/><path d="M109.35,167.58 L109.51,167.49 L109.71,167.47 "/><path d="M110.59,168.20 L110.63,168.30 L110.65,168.52 L110.59,168.70 L110.47,168.82 "/><path d="M109.67,167.27 L109.71,167.24 L109.73,167.22 L109.76,167.21 L109.83,167.17 L110.03,167.16 "/><path d="M110.96,168.20 L110.94,168.30 L110.93,168.31 L110.91,168.38 L110.87,168.43 L110.93,168.32 "/><path d="M109.76,167.21 L109.91,167.17 "/><path d="M110.95,168.11 L110.94,168.30 "/><path d="M110.15,167.20 L110.15,167.20 "/><path d="M109.71,167.24 L109.65,167.30 "/><path d="M110.87,168.43 L110.87,168.43 "/></g><g style="stroke:#000000;stroke-width:0.529"><path d="M110.24,168.90 C110.13,168.89 110.13,168.89 110.03,168.88 C109.91,168.83 109.91,168.83 109.79,168.78 C109.69,168.71 109.69,168.71 109.59,168.63 C109.50,168.53 109.50,168.53 109.41,168.43 C109.35,168.32 109.35,168.32 109.28,168.20 C109.25,168.09 109.25,168.09 109.23,167.98 "/><path d="M112.09,167.22 L110.87,168.43 L110.84,168.47 L110.47,168.82 L110.44,168.84 L110.24,168.90 "/><path d="M109.23,167.98 L109.25,167.76 L109.35,167.58 L109.65,167.30 L109.67,167.27 L110.90,166.05 "/></g></g><g id="paperID" visibility="hidden" opacity="0.00" transform="scale(0.000100)"><path style="stroke:#000000;stroke-width:0.500;fill:#e6e6e6;fill-rule:evenodd" d="M-2000.00,-2000.00L2297.00,-2000.00L2297.00,2210.00L-2000.00,2210.00zM0.00,0.00L297.00,0.00L297.00,210.00L0.00,210.00z"/><path style="fill:#000000;fill-opacity:0.118" d="M3.00,210.00L297.00,210.00L297.00,3.00L300.00,3.00L300.00,213.00L3.00,213.00z"/></g><g id="ToolTip" visibility="hidden" opacity="0" transform="translate(0,0)"><rect id="ToolTipShadow" opacity="0.20" fill="black" stroke="none" x="0" y="0" width="30" height="8"/><rect id="ToolTipBG" fill="#ffffe1" stroke="black" x="0" y="0" width="30" height="8"/><text xml:space="preserve" id="ToolTipText" fill="black" x="0" y="0" width="30" height="8">tooltip</text></g></g></svg>
