<?xml version="1.0" encoding="UTF-8" standalone="no"?>
<svg xmlns="http://www.w3.org/2000/svg" xmlns:xlink="http://www.w3.org/1999/xlink" width="297.000mm" height="210.000mm" viewBox="0.000000 0.000000 297.000000 210.000000" stroke-linejoin="round" stroke-linecap="round" fill="none" fill-rule="evenodd"><desc>Composer Export</desc><script type="text/ecmascript"><![CDATA[
if(typeof(top) != "undefined")
{
	top.ShowPaper = ShowPaper;
}
function ShowHotSpot(evt,hotspotid)
{
	var svgDocument = evt.target.ownerDocument;
	var strId = "hotspot."+hotspotid;
	var hotspot = svgDocument.getElementById(strId);
	if(hotspot)
		hotspot.setAttribute("opacity",".5");
}
function HideHotSpot(evt,hotspotid)
{
	var svgDocument = evt.target.ownerDocument;
	var strId = "hotspot."+hotspotid;
	var hotspot = svgDocument.getElementById(strId);
	if(hotspot)
		hotspot.setAttribute("opacity","0");

	var toolTip = svgDocument.getElementById('ToolTip');
	if(toolTip)
		toolTip.setAttribute("visibility","hidden");
}
function ShowToolTip(evt,hotspotid,strTooltip)
{
	if(strTooltip=="")
	return;

	// change text
	var svgDocument = evt.target.ownerDocument;
	var tiptext = svgDocument.getElementById('ToolTipText');
	if( !tiptext )
	return;
	tiptext.firstChild.nodeValue = " " + strTooltip + "  " ;

	// show tooltip before, else some refresh issue

	var toolTip = svgDocument.getElementById('ToolTip');
	if(!toolTip)
	return;

	toolTip.setAttribute("visibility","visible");
	toolTip.setAttribute("opacity",".95");

	// move tooltip
	// get viewbox

	var root = svgDocument.documentElement;
	var vbox = (root.getAttribute("viewBox")).split(' ');
	var x0 = parseFloat(vbox[0]);
	var y0 = parseFloat(vbox[1]);
	var vboxW = parseFloat(vbox[2]);
	var vboxH = parseFloat(vbox[3]);

	// get default width of svg

	var strW = root.getAttribute("width");
	var svgW = parseFloat(strW);
	if(strW.indexOf('mm') != -1)
	svgW *= 3.779;

	var strH = root.getAttribute("height");
	var svgH = parseFloat(strH);
	if(strH.indexOf('mm') != -1)
	svgH *= 3.779;  	// 96 dpi  -> 96/25.4 = 3.779

	// update the viewbox / width / height if svg is embedded in html with zoom fit all
	var realx0 = x0;
	var realy0 = y0;
	var realvboxW = vboxW;
	var realvboxH = vboxH;
	var realsvgW = svgW;
	var realsvgH = svgH;

	if ((typeof(top) == "undefined") || (typeof(top.svgctl1) != "undefined")) // embedded in html
	{
		// get window size in pxl

		svgW = window.innerWidth;
		svgH = window.innerHeight;

		// calculate real viewbox

		realsvgW = svgW;
		realsvgH = svgH;
		if((svgW / svgH) > (vboxW / vboxH))
		{
			realvboxW = (vboxH * svgW) / svgH;
			realvboxH = vboxH;
			realx0 = x0 - (realvboxW - vboxW)/2 ;
		}
		else
		{
			realvboxH = (vboxW * svgH) / svgW;
			realvboxW = vboxW;
			realy0 = y0 - (realvboxH - vboxH)/2 ;
		}
	}

	// get user zoom/pan

	var newScale = root.currentScale;
	var translation = root.currentTranslate;

	// transform pxl to user unit

	var xPos = (((evt.clientX+10- translation.x)/newScale) * realvboxW)/realsvgW  + realx0 ;
	var yPos = (((evt.clientY+5- translation.y)/newScale) * realvboxH)/ realsvgH  + realy0 ;
	var scaleForWidth = ( (1 / newScale) * realvboxH) / realsvgH;

	// move tooltip

	toolTip.setAttribute("transform", "translate(" + xPos + "," + yPos + ")" );

	// resize tooltip

	var fontsize = 12;
	tiptext.setAttribute("font-size",fontsize*scaleForWidth);
	tiptext.setAttribute("y", fontsize*scaleForWidth);
	var tipBG = svgDocument.getElementById('ToolTipBG');
	var outline = tiptext.getBBox();
	if(tipBG)
	{
		tipBG.setAttribute("stroke-width", 1*scaleForWidth);
		tipBG.setAttribute("width", Number(outline.width) );
		tipBG.setAttribute("height", Number(outline.height) + fontsize*.5*scaleForWidth );
	}
	var ToolTipShadow = svgDocument.getElementById('ToolTipShadow');
	if(ToolTipShadow)
	{
		ToolTipShadow.setAttribute("width", Number(outline.width) );
		ToolTipShadow.setAttribute("height", Number(outline.height) + fontsize*.5*scaleForWidth );
		ToolTipShadow.setAttribute("x", 3*scaleForWidth);
		ToolTipShadow.setAttribute("y", 3*scaleForWidth);
	}
}
function ShowPaper()
{
  var svgDocument = getDocument();
  var paper = svgDocument.getElementById("paperID");
  if(paper)
  {
    paper.setAttribute("transform","scale(1)");
    paper.setAttribute("opacity","1");
    paper.setAttribute("visibility","visible");
  }
  var svg = svgDocument.getRootElement();
  if(svg)
  {
    svg.setAttribute("width","307.000mm");
    svg.setAttribute("height","220.000mm");
    svg.setAttribute("viewBox","-5.000000 -5.000000 307.000000 220.000000");
  }
}
]]></script><defs/><g><path style="fill:#ffffff" d="M296.92,210.05L0.08,210.05L0.08,0.08L296.92,0.08z"/><path style="fill:#3c3c3c" d="M73.00,86.88L73.63,87.21L74.40,87.41L75.05,87.97L75.01,93.17L73.35,93.00L71.90,92.48L71.63,92.12L71.63,90.45L71.62,87.12L71.77,86.57z"/><path style="fill:#e5e5e5" d="M83.09,81.72L87.23,80.33L88.89,80.07L92.30,80.08L92.41,80.44L91.01,80.58L90.43,80.56L89.35,80.72L88.53,80.86L87.51,80.89L87.41,81.06L85.17,81.66L84.65,81.87L84.45,81.99L83.73,82.03z"/><path style="fill:#000020" d="M84.65,81.87L85.17,81.66L85.21,82.12z"/><path style="fill:#363636" d="M76.33,88.24L77.49,88.84L77.78,89.09L78.11,90.17L77.98,92.32L77.15,92.84L75.84,93.16L75.01,93.17L75.05,87.97L75.57,88.01z"/><path style="fill:#3c3c3c" d="M93.21,80.80L93.11,84.30L92.93,84.88L91.44,84.77L89.80,83.93L89.70,83.00L89.84,82.20L90.01,80.90L90.43,80.56L91.01,80.58z"/><path style="fill:#3c3c3c" d="M85.21,82.12L85.17,81.66L87.41,81.06L87.42,82.39L86.58,82.53L85.39,82.29z"/><path style="fill:#3c3c3c" d="M67.21,84.40L67.84,84.72L68.27,85.05L69.14,85.21L69.51,85.54L69.50,90.66L68.65,90.80L67.17,90.57L66.10,89.71L65.97,88.53L66.18,84.18L66.46,84.10z"/><path style="fill:#3c3c3c" d="M212.89,146.50L213.66,146.70L214.83,147.29L215.11,147.58L215.10,152.72L214.54,152.85L213.06,152.61L211.98,152.04L211.71,151.42L211.80,146.22L212.27,146.15z"/><path style="fill:#3c3c3c" d="M218.13,148.70L218.56,149.03L219.43,149.21L220.06,149.53L220.91,150.07L220.78,150.46L220.61,155.21L219.23,155.04L217.78,154.50L217.24,153.88L217.26,152.23L217.30,148.43L217.50,148.37z"/><path style="fill:#000020" d="M77.78,89.09L78.32,89.06L78.39,89.36L78.11,90.17z"/><path style="fill:#000020" d="M220.64,133.68L220.25,134.02L220.03,133.55L220.61,133.51z"/><path style="fill:#00fdff" d="M89.30,57.41L89.32,57.91L88.35,58.30L87.96,59.48L87.48,59.67L87.97,59.92L88.66,60.02L89.39,59.28L89.84,59.63L89.88,60.13L87.92,60.87L87.47,61.04L87.94,61.28L87.44,61.57L86.37,60.68L86.04,60.33L86.04,59.57L86.62,59.24L86.77,59.19L86.81,57.35L88.15,56.89z"/><path style="fill:#00fdff" d="M93.03,59.94L93.61,60.02L94.32,59.45L94.93,59.83L94.83,60.09L93.86,60.77L93.58,62.53L94.19,62.52L94.67,61.84L95.11,61.73L95.63,62.09L95.45,62.39L94.94,62.66L93.57,62.96L93.48,63.93L92.92,64.05L92.30,63.25L91.77,62.88L91.86,61.79L92.28,61.67L92.30,59.83L92.67,59.48L93.16,59.61z"/><path style="fill:#00fdff" d="M71.21,65.90L71.12,66.18L70.14,66.56L70.06,67.79L69.28,67.93L69.77,68.20L70.46,68.30L71.20,67.57L71.64,67.90L71.68,68.40L70.00,69.14L69.57,69.31L69.75,69.52L69.23,69.84L68.05,68.67L68.06,67.86L68.40,67.50L68.56,67.45L68.58,65.87L68.75,65.44L69.48,65.28L70.34,65.29L70.82,65.43z"/><path style="fill:#00fdff" d="M76.38,67.77L76.76,68.10L76.60,68.64L75.65,69.04L75.67,70.82L76.24,70.48L76.73,70.02L76.95,69.99L77.17,70.85L75.66,71.25L75.27,72.21L74.98,72.33L74.54,72.15L73.52,70.94L73.53,70.27L73.96,69.77L74.09,68.36L74.46,67.77L75.58,67.63z"/><path style="fill:#00fdff" d="M240.55,121.88L240.40,122.41L239.54,122.61L239.47,124.58L240.13,124.34L240.53,123.80L240.73,123.76L241.11,124.10L241.03,124.64L239.45,125.02L239.37,125.98L238.81,126.11L237.63,125.01L237.64,123.75L237.91,123.46L238.16,121.51L240.12,121.39z"/><path style="fill:#00fdff" d="M235.75,121.70L235.55,122.25L235.36,122.28L233.84,122.94L233.40,123.07L233.58,123.33L233.03,123.62L231.78,122.27L231.82,121.57L232.20,121.29L232.37,121.24L232.40,120.22L232.64,119.31L233.28,119.06L234.14,119.06L235.03,119.38L234.92,119.95L233.95,120.33L233.87,121.54L233.09,121.72L233.87,121.97L234.55,122.09L235.01,121.32L235.22,121.29z"/><path style="fill:#00fdff" d="M222.35,130.17L222.17,130.59L221.26,131.08L221.27,132.86L221.78,132.75L222.54,132.03L222.89,132.36L222.80,132.95L220.61,133.51L220.03,133.55L219.42,133.27L219.05,132.42L219.71,131.74L219.88,129.98L220.41,129.68L221.92,129.67z"/><path style="fill:#00fdff" d="M216.84,127.68L216.70,128.14L215.75,128.60L215.67,129.81L214.89,129.99L215.67,130.25L216.35,130.36L216.80,129.58L217.02,129.54L217.38,129.89L217.28,130.46L215.55,131.19L215.55,131.62L214.83,131.89L214.17,131.09L213.82,130.89L213.93,129.54L214.19,129.26L214.43,127.58L215.08,127.33L215.94,127.33z"/><path style="fill:#363636" d="M96.28,81.13L96.18,84.04L94.87,84.72L92.93,84.88L93.11,84.30L93.21,80.80L94.87,80.73L95.98,80.84z"/><path style="fill:#363636" d="M89.61,82.11L89.09,82.37L88.25,82.53L87.42,82.39L87.41,81.06L88.53,80.86L89.35,80.72L89.50,80.87z"/><path style="fill:#363636" d="M70.20,85.87L71.07,86.05L71.71,86.37L71.77,86.57L71.62,87.12L71.41,90.38L70.89,90.64L70.05,90.81L69.50,90.66L69.51,85.54L69.78,85.54z"/><path style="fill:#363636" d="M216.20,147.87L217.30,148.43L217.26,152.23L216.50,152.69L215.37,152.85L215.10,152.72L215.11,147.58L215.58,147.52z"/><path style="fill:#363636" d="M221.87,150.41L223.06,150.55L223.73,151.39L223.71,154.16L222.93,154.81L221.17,155.22L220.61,155.21L220.78,150.46L220.91,150.07L221.46,150.03z"/><path style="fill:#00e3e5" d="M87.96,59.48L88.35,58.30L89.32,57.91L89.39,59.28L88.66,60.02L87.97,59.92L88.45,59.67z"/><path style="fill:#00e3e5" d="M94.32,59.45L93.61,60.02L93.03,59.94L93.16,59.61L93.50,59.32z"/><path style="fill:#00e3e5" d="M89.86,60.59L89.10,61.01L87.92,60.87L89.88,60.13z"/><path style="fill:#00e3e5" d="M94.94,61.23L95.11,61.73L94.67,61.84L94.19,62.52L93.58,62.53L93.86,60.77L94.83,60.09z"/><path style="fill:#00e3e5" d="M88.64,61.58L87.44,61.57L87.94,61.28L88.81,61.26z"/><path style="fill:#00e3e5" d="M95.43,62.58L94.83,63.18L94.42,63.25L94.36,63.67L94.04,64.07L93.48,63.93L93.57,62.96L94.94,62.66L95.45,62.39z"/><path style="fill:#00e3e5" d="M70.06,67.79L70.14,66.56L71.12,66.18L71.23,67.30L71.20,67.57L70.46,68.30L69.77,68.20L70.23,67.93z"/><path style="fill:#00e3e5" d="M71.65,68.86L70.90,69.31L70.00,69.14L71.68,68.40z"/><path style="fill:#00e3e5" d="M70.68,69.76L70.54,69.95L69.23,69.84L69.75,69.52L70.54,69.62z"/><path style="fill:#00e3e5" d="M76.73,70.02L76.24,70.48L75.67,70.82L75.65,69.04L76.60,68.64z"/><path style="fill:#00e3e5" d="M77.16,71.05L76.64,71.45L76.22,71.53L76.16,71.94L75.83,72.33L75.27,72.21L75.66,71.25L77.17,70.85z"/><path style="fill:#00e3e5" d="M234.17,119.63L233.26,119.73L233.09,119.48z"/><path style="fill:#00e3e5" d="M233.87,121.54L233.95,120.33L234.92,119.95L235.01,121.32L234.55,122.09L233.87,121.97L234.33,121.72z"/><path style="fill:#00e3e5" d="M239.29,122.06L238.64,122.11L238.89,121.66L239.31,121.71z"/><path style="fill:#00e3e5" d="M233.84,122.94L235.36,122.28L235.55,122.25L235.14,122.90L234.49,123.63L233.03,123.62L233.58,123.33L234.00,123.06z"/><path style="fill:#00e3e5" d="M240.53,123.80L240.13,124.34L239.47,124.58L239.54,122.61L240.40,122.41z"/><path style="fill:#00e3e5" d="M241.00,124.91L239.63,126.09L239.37,125.98L239.45,125.02L241.03,124.64z"/><path style="fill:#00e3e5" d="M215.67,129.81L215.75,128.60L216.70,128.14L216.84,127.68L216.98,128.49L216.80,129.58L216.35,130.36L215.67,130.25L216.13,129.99z"/><path style="fill:#00e3e5" d="M221.07,130.35L220.70,130.35L220.70,129.98L221.07,129.98z"/><path style="fill:#00e3e5" d="M215.55,131.19L217.28,130.46L217.37,130.70L216.29,131.90L214.83,131.89L215.55,131.62z"/><path style="fill:#00e3e5" d="M222.54,132.03L221.78,132.75L221.27,132.86L221.26,131.08L222.17,130.59L222.35,130.17L222.47,130.26z"/><path style="fill:#00e3e5" d="M220.64,133.68L220.61,133.51L222.80,132.95L222.87,133.18L222.18,133.93L221.46,134.37L221.19,134.24L221.07,133.84z"/><path style="fill:#e5e5e5" d="M48.46,43.67L47.88,43.71L47.49,43.44L47.51,43.11L48.15,43.09z"/><path style="fill:#e5e5e5" d="M45.56,49.39L45.42,49.58L45.33,48.59L45.50,48.57z"/><path style="fill:#e5e5e5" d="M66.65,51.48L65.98,51.49L65.97,51.14L66.70,50.86z"/><path style="fill:#e5e5e5" d="M45.66,54.53L45.01,54.78L45.05,53.83L45.38,53.84z"/><path style="fill:#e5e5e5" d="M19.22,56.72L18.55,56.73L18.54,56.38L19.27,56.10z"/><path style="fill:#e5e5e5" d="M85.23,59.19L84.63,59.37L84.43,59.07L84.73,58.78L85.11,58.82z"/><path style="fill:#e5e5e5" d="M22.31,60.42L21.57,60.29L21.60,59.65L22.20,59.61z"/><path style="fill:#e5e5e5" d="M71.09,61.63L70.50,61.68L70.40,61.04L70.78,60.97z"/><path style="fill:#e5e5e5" d="M89.72,61.31L90.41,61.06L90.37,61.68L89.78,61.60z"/><path style="fill:#e5e5e5" d="M37.80,64.44L37.20,64.60L37.00,64.31L37.30,64.02L37.68,64.06z"/><path style="fill:#e5e5e5" d="M84.19,61.85L85.29,60.48L86.04,60.33L86.37,60.68L84.84,61.68L84.72,63.69L84.87,65.37L85.00,67.28L85.15,69.23L85.14,71.35L84.82,71.90L84.19,71.89L84.29,71.37L84.58,71.06z"/><path style="fill:#e5e5e5" d="M21.97,65.29L21.60,65.29L21.60,64.59L21.97,64.59z"/><path style="fill:#e5e5e5" d="M94.76,71.65L94.11,71.59L94.09,71.24L94.51,71.19z"/><path style="fill:#e5e5e5" d="M60.59,72.04L61.01,72.80L61.02,73.38L60.51,73.56L60.07,72.89L58.02,73.73L56.60,73.81L56.68,73.27L58.65,72.71L60.05,71.79z"/><path style="fill:#e5e5e5" d="M56.29,72.45L55.97,72.60L55.47,72.31L55.78,72.02L56.16,72.05z"/><path style="fill:#e5e5e5" d="M116.59,72.71L115.88,72.71L115.88,72.34L116.59,72.34z"/><path style="fill:#e5e5e5" d="M60.01,81.45L61.15,81.54L60.76,76.17L61.30,76.35L61.43,77.77L61.56,79.69L61.71,81.38L62.00,81.63L62.30,81.93L62.26,82.20L61.50,82.25L36.30,75.65L35.38,75.63L30.44,77.87L28.58,77.85L28.25,77.32L28.55,77.11L28.59,73.71L28.23,73.14z"/><path style="fill:#e5e5e5" d="M87.44,74.64L86.83,74.81L86.63,74.51L86.94,74.22L87.32,74.26z"/><path style="fill:#e5e5e5" d="M61.82,74.65L61.19,74.80L60.97,74.63L61.01,74.26L61.67,74.26z"/><path style="fill:#e5e5e5" d="M93.06,77.04L92.44,77.12L92.46,76.77L93.11,76.72z"/><path style="fill:#e5e5e5" d="M118.52,81.81L117.81,81.81L117.81,81.44L118.52,81.44z"/><path style="fill:#e5e5e5" d="M71.38,82.28L71.38,82.62L70.66,82.33L70.66,81.99L71.05,81.94z"/><path style="fill:#e5e5e5" d="M66.46,84.10L66.18,84.18L65.92,84.15L62.74,82.79L62.69,82.52L63.32,82.52z"/><path style="fill:#e5e5e5" d="M143.05,83.93L142.46,83.97L142.07,83.70L142.09,83.37L142.74,83.36z"/><path style="fill:#e5e5e5" d="M67.21,84.40L66.46,84.10L67.18,84.22z"/><path style="fill:#e5e5e5" d="M69.14,85.21L68.27,85.05L67.84,84.72L68.60,84.72z"/><path style="fill:#e5e5e5" d="M87.03,85.37L87.62,85.30L87.62,85.95L87.03,85.88z"/><path style="fill:#e5e5e5" d="M71.07,86.05L70.20,85.87L69.78,85.54L70.53,85.54z"/><path style="fill:#e5e5e5" d="M73.00,86.88L71.77,86.57L71.71,86.37L72.46,86.37z"/><path style="fill:#e5e5e5" d="M74.40,87.41L73.63,87.21L74.35,87.25z"/><path style="fill:#e5e5e5" d="M76.33,88.24L75.57,88.01L76.28,88.08z"/><path style="fill:#e5e5e5" d="M78.32,89.06L77.78,89.09L77.49,88.84L78.21,88.87z"/><path style="fill:#e5e5e5" d="M211.71,145.69L212.27,146.15L211.80,146.22L78.39,89.36L78.32,89.06z"/><path style="fill:#e5e5e5" d="M142.18,91.76L141.53,91.61L141.98,91.36z"/><path style="fill:#e5e5e5" d="M94.52,92.57L94.42,92.22L94.74,92.16z"/><path style="fill:#e5e5e5" d="M168.79,94.77L168.18,94.94L167.99,94.64L168.29,94.36L168.67,94.40z"/><path style="fill:#e5e5e5" d="M113.80,96.98L113.14,96.99L113.13,96.64L113.85,96.36z"/><path style="fill:#e5e5e5" d="M166.25,101.86L166.25,102.20L165.53,101.91L165.53,101.57L165.92,101.52z"/><path style="fill:#e5e5e5" d="M131.05,102.10L133.30,101.03L135.22,100.47L137.15,100.20L139.73,100.21L139.84,100.58L137.60,100.86L135.66,101.14L133.84,101.58L131.72,102.45z"/><path style="fill:#e5e5e5" d="M118.63,102.29L118.54,102.62L118.21,102.78L118.12,102.10L118.48,102.05z"/><path style="fill:#e5e5e5" d="M194.89,106.09L194.22,106.10L194.30,105.51L194.89,105.42z"/><path style="fill:#e5e5e5" d="M139.74,107.99L139.09,108.05L139.34,107.60L139.76,107.64z"/><path style="fill:#e5e5e5" d="M189.96,112.06L189.96,112.40L189.24,112.11L189.24,111.77L189.63,111.72z"/><path style="fill:#e5e5e5" d="M142.47,112.73L141.82,112.68L141.80,112.33L142.22,112.28z"/><path style="fill:#e5e5e5" d="M220.16,116.70L220.81,116.76L220.83,117.11L220.21,117.02z"/><path style="fill:#e5e5e5" d="M166.06,119.05L165.43,119.20L165.21,119.03L165.25,118.66L165.91,118.65z"/><path style="fill:#e5e5e5" d="M213.67,122.30L213.07,122.35L212.97,121.70L213.36,121.64z"/><path style="fill:#e5e5e5" d="M178.53,122.26L180.18,121.44L181.81,120.87L185.41,120.33L187.19,120.34L187.19,120.96L182.83,121.39L182.03,121.58L180.18,122.27L178.83,122.56z"/><path style="fill:#e5e5e5" d="M166.22,122.90L165.52,122.90L165.52,122.53L166.22,122.53z"/><path style="fill:#e5e5e5" d="M247.29,128.33L246.70,128.37L246.31,128.10L246.33,127.77L246.98,127.75z"/><path style="fill:#e5e5e5" d="M191.20,129.98L192.10,129.66L191.83,130.36L191.27,130.26z"/><path style="fill:#e5e5e5" d="M252.34,130.34L251.74,130.51L251.54,130.22L251.85,129.93L252.23,129.97z"/><path style="fill:#e5e5e5" d="M237.34,132.31L236.69,132.26L236.66,131.91L237.08,131.86z"/><path style="fill:#e5e5e5" d="M189.89,132.85L189.24,132.70L189.69,132.45z"/><path style="fill:#e5e5e5" d="M233.34,136.70L232.71,136.85L232.50,136.68L232.54,136.31L233.20,136.30z"/><path style="fill:#e5e5e5" d="M270.71,138.34L270.34,138.34L270.34,137.97L270.71,137.97z"/><path style="fill:#e5e5e5" d="M238.75,139.17L238.05,139.17L238.05,138.80L238.75,138.80z"/><path style="fill:#e5e5e5" d="M249.12,129.15L246.89,130.24L246.34,131.07L246.05,138.72L245.90,139.73L245.50,140.21L244.96,140.28L245.06,139.76L245.35,139.45L245.87,130.60L246.90,129.43L249.23,128.34z"/><path style="fill:#e5e5e5" d="M222.43,140.99L222.60,141.46L222.60,142.33L222.45,142.48L221.91,141.79L219.51,142.63L218.46,142.72L218.47,142.13L219.90,141.85L221.93,140.72z"/><path style="fill:#e5e5e5" d="M218.04,141.38L217.38,141.39L217.37,141.04L218.09,140.76z"/><path style="fill:#e5e5e5" d="M261.09,142.48L260.39,142.48L260.39,142.11L261.09,142.11z"/><path style="fill:#e5e5e5" d="M223.29,143.57L222.64,143.62L222.89,143.17L223.31,143.22z"/><path style="fill:#e5e5e5" d="M222.99,145.14L222.68,145.42L222.66,149.90L222.99,150.15L223.06,150.55L221.87,150.41L221.46,150.03L221.91,149.93L222.08,144.85z"/><path style="fill:#e5e5e5" d="M289.47,146.35L288.81,146.36L288.89,145.77L289.48,145.69z"/><path style="fill:#e5e5e5" d="M243.67,146.51L243.57,146.91L242.66,147.05L239.35,147.19L238.69,147.45L237.88,147.66L237.21,147.32L239.46,146.53L241.78,146.27z"/><path style="fill:#e5e5e5" d="M213.66,146.70L212.89,146.50L213.61,146.53z"/><path style="fill:#e5e5e5" d="M215.58,147.52L215.11,147.58L214.83,147.29L215.53,147.36z"/><path style="fill:#e5e5e5" d="M291.00,146.71L290.88,146.94L288.70,148.13L288.43,148.08L288.54,147.35L290.74,146.23L290.87,146.14z"/><path style="fill:#e5e5e5" d="M217.50,148.37L217.30,148.43L216.20,147.87L216.96,147.87z"/><path style="fill:#e5e5e5" d="M288.68,148.90L289.75,151.47L289.77,157.73L289.61,159.13L289.19,159.62L289.19,152.03L288.34,149.85L288.28,148.18L288.43,148.08z"/><path style="fill:#e5e5e5" d="M219.43,149.21L218.56,149.03L218.13,148.70L218.89,148.70z"/><path style="fill:#e5e5e5" d="M221.46,150.03L220.91,150.07L220.06,149.53L220.81,149.52z"/><path style="fill:#e5e5e5" d="M285.66,151.62L285.22,151.61L285.29,151.01L285.73,150.89z"/><path style="fill:#e5e5e5" d="M242.04,151.59L241.38,151.60L241.46,151.01L242.05,150.92z"/><path style="fill:#e5e5e5" d="M225.50,152.03L225.85,152.50L224.63,151.99L224.57,151.74z"/><path style="fill:#e5e5e5" d="M227.16,153.14L226.59,153.18L225.85,152.50L226.31,152.58z"/><path style="fill:#e5e5e5" d="M237.09,153.24L236.99,152.88L237.31,152.83z"/><path style="fill:#e5e5e5" d="M228.81,153.96L229.16,154.43L227.94,153.92L227.88,153.67z"/><path style="fill:#e5e5e5" d="M230.19,154.78L230.54,155.26L229.36,154.78L229.16,154.43z"/><path style="fill:#e5e5e5" d="M231.85,155.90L231.28,155.94L230.54,155.26L231.00,155.34z"/><path style="fill:#e5e5e5" d="M233.24,156.72L232.64,156.72L232.57,156.42L232.94,156.42z"/><path style="fill:#e5e5e5" d="M285.59,156.86L285.25,156.86L285.25,155.85L285.59,155.85z"/><path style="fill:#e5e5e5" d="M234.88,157.54L235.23,158.01L234.01,157.51L233.94,157.26z"/><path style="fill:#e5e5e5" d="M236.54,158.66L235.97,158.70L235.23,158.01L235.69,158.10z"/><path style="fill:#e5e5e5" d="M264.93,159.20L265.45,160.62L265.83,161.06L266.31,162.79L266.33,163.79L266.18,166.57L266.30,168.70L266.39,166.57L279.18,160.82L279.69,161.02L279.69,164.37L279.54,165.38L278.43,166.75L259.33,175.49L258.01,175.50L257.41,174.95L257.71,174.73L257.74,170.63L258.44,170.14L259.22,170.08L263.91,170.77L264.63,170.90L264.73,170.75L265.49,170.07L265.75,163.07L264.66,159.73L264.39,159.44L264.02,159.47L262.16,160.13L260.61,160.57L259.99,160.40L260.13,160.05L261.17,159.69L264.13,158.67z"/><path style="fill:#e5e5e5" d="M260.62,159.29L260.02,159.46L259.82,159.17L260.12,158.89L260.51,158.92z"/><path style="fill:#e5e5e5" d="M237.92,159.48L237.32,159.48L237.25,159.18L237.62,159.18z"/><path style="fill:#e5e5e5" d="M278.98,159.61L279.45,158.92L279.89,158.89L279.94,159.10L279.24,160.11L278.98,160.06z"/><path style="fill:#e5e5e5" d="M239.57,160.30L239.92,160.77L238.70,160.27L238.63,160.01z"/><path style="fill:#e5e5e5" d="M241.23,161.42L240.66,161.45L239.92,160.77L240.38,160.86z"/><path style="fill:#e5e5e5" d="M242.61,162.23L242.01,162.23L241.94,161.93L242.31,161.93z"/><path style="fill:#e5e5e5" d="M262.20,162.37L261.91,162.66L261.81,161.65L262.16,161.65z"/><path style="fill:#e5e5e5" d="M244.26,163.06L244.60,163.53L243.38,163.02L243.32,162.77z"/><path style="fill:#e5e5e5" d="M245.63,163.88L245.98,164.36L244.81,163.88L244.60,163.53z"/><path style="fill:#e5e5e5" d="M247.29,165.00L246.72,165.04L245.98,164.36L246.45,164.44z"/><path style="fill:#e5e5e5" d="M248.94,165.81L249.29,166.29L248.07,165.78L248.01,165.53z"/><path style="fill:#e5e5e5" d="M250.32,166.64L250.67,167.11L249.49,166.64L249.29,166.29z"/><path style="fill:#e5e5e5" d="M262.07,167.50L261.51,167.59L261.62,166.72L262.11,166.62z"/><path style="fill:#e5e5e5" d="M251.98,167.76L251.41,167.80L250.67,167.11L251.13,167.20z"/><path style="fill:#e5e5e5" d="M253.63,168.57L253.98,169.04L252.76,168.54L252.70,168.29z"/><path style="fill:#e5e5e5" d="M255.01,169.40L255.36,169.88L254.18,169.39L253.98,169.04z"/><path style="fill:#e5e5e5" d="M256.77,169.95L256.63,170.34L255.54,170.24L255.36,169.88L256.45,169.63z"/><path style="fill:#000020" d="M45.79,48.80L45.56,49.39L45.50,48.57z"/><path style="fill:#000020" d="M86.47,58.08L86.81,57.35L86.77,59.19L86.62,59.24z"/><path style="fill:#000020" d="M93.16,59.61L92.67,59.48L93.50,59.32z"/><path style="fill:#000020" d="M86.04,59.57L84.63,59.37L85.23,59.19z"/><path style="fill:#000020" d="M22.80,60.59L22.31,60.42L22.84,59.95z"/><path style="fill:#000020" d="M94.94,61.23L94.83,60.09L94.93,59.83L95.07,59.91z"/><path style="fill:#000020" d="M92.28,61.67L91.86,61.79L92.30,59.83z"/><path style="fill:#000020" d="M91.77,62.88L91.65,61.88L91.86,61.79z"/><path style="fill:#000020" d="M94.36,63.67L94.42,63.25L94.83,63.18z"/><path style="fill:#000020" d="M92.92,64.05L93.48,63.93L94.04,64.07z"/><path style="fill:#000020" d="M37.20,64.60L37.80,64.44L38.54,64.64z"/><path style="fill:#000020" d="M84.87,65.37L84.72,63.69L84.83,63.79z"/><path style="fill:#000020" d="M71.23,67.30L71.12,66.18L71.21,65.90L71.34,65.98z"/><path style="fill:#000020" d="M68.56,67.45L68.40,67.50L68.58,65.87z"/><path style="fill:#000020" d="M68.05,68.67L67.90,67.94L68.06,67.86z"/><path style="fill:#000020" d="M85.15,69.23L85.00,67.28L85.11,67.38z"/><path style="fill:#000020" d="M76.95,69.99L76.73,70.02L76.60,68.64L76.76,68.10L76.87,68.19z"/><path style="fill:#000020" d="M76.16,71.94L76.22,71.53L76.64,71.45z"/><path style="fill:#000020" d="M75.74,72.48L74.98,72.33L75.27,72.21L75.83,72.33z"/><path style="fill:#000020" d="M55.97,72.60L56.29,72.45L56.74,72.64z"/><path style="fill:#000020" d="M61.42,73.15L61.02,73.38L61.01,72.80z"/><path style="fill:#000020" d="M86.83,74.81L87.44,74.64L88.18,74.84z"/><path style="fill:#000020" d="M62.25,74.93L61.19,74.80L61.82,74.65z"/><path style="fill:#000020" d="M30.39,75.05L30.65,74.51L30.97,74.72L30.80,75.16z"/><path style="fill:#000020" d="M70.54,76.20L69.92,76.24L69.59,75.89L70.25,75.90z"/><path style="fill:#000020" d="M61.43,77.77L61.30,76.35L61.66,76.43z"/><path style="fill:#000020" d="M93.21,80.80L91.01,80.58L92.41,80.44L93.21,80.60z"/><path style="fill:#000020" d="M96.28,81.13L95.98,80.84L96.72,80.87z"/><path style="fill:#000020" d="M61.71,81.38L61.56,79.69L61.67,79.79z"/><path style="fill:#000020" d="M62.30,81.93L62.00,81.63L62.24,80.86z"/><path style="fill:#000020" d="M89.09,82.37L89.61,82.11L89.84,82.20L89.70,83.00L89.51,82.56z"/><path style="fill:#000020" d="M62.22,82.39L61.50,82.25L62.26,82.20z"/><path style="fill:#000020" d="M86.58,82.53L87.42,82.39L88.25,82.53z"/><path style="fill:#000020" d="M65.97,88.53L65.92,84.15L66.18,84.18z"/><path style="fill:#000020" d="M70.89,90.64L71.41,90.38L71.63,90.45L71.63,92.12L71.32,90.81z"/><path style="fill:#000020" d="M68.65,90.80L69.50,90.66L70.05,90.81z"/><path style="fill:#000020" d="M168.18,94.94L168.79,94.77L169.53,94.97z"/><path style="fill:#000020" d="M137.60,100.86L139.84,100.58L141.67,100.75z"/><path style="fill:#000020" d="M118.79,103.04L118.54,102.62L118.63,102.29L118.80,102.40z"/><path style="fill:#000020" d="M166.49,119.33L165.43,119.20L166.06,119.05z"/><path style="fill:#000020" d="M175.31,120.97L175.22,120.62L175.54,120.57z"/><path style="fill:#000020" d="M235.22,121.29L235.01,121.32L234.92,119.95L235.03,119.38L235.16,119.47z"/><path style="fill:#000020" d="M232.37,121.24L232.20,121.29L232.40,120.22z"/><path style="fill:#000020" d="M233.58,123.33L233.40,123.07L233.84,122.94L234.00,123.06z"/><path style="fill:#000020" d="M240.73,123.76L240.53,123.80L240.40,122.41L240.55,121.88L240.66,121.97z"/><path style="fill:#000020" d="M241.51,124.29L241.03,124.64L241.11,124.10z"/><path style="fill:#000020" d="M239.54,126.25L238.81,126.11L239.37,125.98L239.63,126.09z"/><path style="fill:#000020" d="M217.02,129.54L216.80,129.58L216.98,128.49z"/><path style="fill:#000020" d="M215.67,130.25L214.89,129.99L215.67,129.81L216.13,129.99z"/><path style="fill:#000020" d="M251.74,130.51L252.34,130.34L253.09,130.55z"/><path style="fill:#000020" d="M217.37,130.70L217.28,130.46L217.38,129.89L217.52,129.99z"/><path style="fill:#000020" d="M223.12,132.66L222.87,133.18L222.80,132.95L222.89,132.36z"/><path style="fill:#000020" d="M221.34,134.51L220.60,134.38L221.19,134.24L221.46,134.37z"/><path style="fill:#000020" d="M233.78,136.98L232.71,136.85L233.34,136.70z"/><path style="fill:#000020" d="M223.27,142.14L222.60,142.33L222.60,141.46z"/><path style="fill:#000020" d="M213.94,142.93L213.94,143.30L213.64,143.23L213.64,142.63z"/><path style="fill:#000020" d="M291.00,146.71L290.87,146.14L291.13,145.67z"/><path style="fill:#000020" d="M242.66,147.05L243.57,146.91L243.97,147.09z"/><path style="fill:#000020" d="M288.68,148.90L288.43,148.08L288.70,148.13z"/><path style="fill:#000020" d="M286.19,151.02L285.66,151.62L285.73,150.89z"/><path style="fill:#000020" d="M216.50,152.69L217.26,152.23L217.24,153.88L216.92,152.87z"/><path style="fill:#000020" d="M214.54,152.85L215.10,152.72L215.37,152.85z"/><path style="fill:#000020" d="M223.71,154.16L223.73,151.39L224.08,151.44z"/><path style="fill:#000020" d="M279.94,159.10L279.89,158.89L280.94,158.93z"/><path style="fill:#000020" d="M261.17,159.69L260.02,159.46L260.62,159.29z"/><path style="fill:#000020" d="M259.56,160.61L259.99,160.40L260.61,160.57z"/><path style="fill:#000020" d="M266.12,160.19L265.83,161.06L266.03,160.02z"/><path style="fill:#000020" d="M279.69,164.37L279.69,161.02L279.82,161.11z"/><path style="fill:#000020" d="M277.33,164.97L276.91,165.45L276.94,164.73L277.11,164.61z"/><path style="fill:#000020" d="M266.39,166.57L266.18,166.57L266.33,163.79z"/><path style="fill:#000020" d="M262.69,167.85L262.34,167.77L262.76,167.22z"/><path style="fill:#000020" d="M268.37,168.52L268.64,167.98L268.94,168.24L268.79,168.63z"/><path style="fill:#000020" d="M268.50,169.10L268.28,169.63L268.11,169.50L268.27,168.75z"/><path style="fill:#000020" d="M256.77,169.95L256.45,169.63L257.50,169.68z"/><path style="fill:#000020" d="M259.22,170.08L258.44,170.14L258.52,169.97z"/><path style="fill:#000020" d="M259.55,172.66L259.84,172.12L260.06,172.15L259.97,172.78z"/><path style="fill:#00fdff" d="M221.19,134.24L220.60,134.38L220.25,134.02L220.64,133.68L221.07,133.84z"/><path style="fill:#00001c" d="M87.97,59.92L87.48,59.67L87.96,59.48L88.45,59.67z"/><path style="fill:#00001c" d="M88.81,61.26L87.94,61.28L87.47,61.04L87.92,60.87L89.10,61.01z"/><path style="fill:#00001c" d="M69.77,68.20L69.28,67.93L70.06,67.79L70.23,67.93z"/><path style="fill:#00001c" d="M69.75,69.52L69.57,69.31L70.00,69.14L70.90,69.31L70.68,69.76L70.54,69.62z"/><path style="fill:#00001c" d="M94.87,80.73L93.21,80.80L93.21,80.60z"/><path style="fill:#00001c" d="M89.35,80.72L90.43,80.56L90.01,80.90L89.84,82.20L89.61,82.11L89.50,80.87z"/><path style="fill:#00001c" d="M87.41,81.06L87.51,80.89L88.53,80.86z"/><path style="fill:#00001c" d="M71.63,90.45L71.41,90.38L71.62,87.12z"/><path style="fill:#00001c" d="M234.34,119.88L233.26,119.73L234.17,119.63z"/><path style="fill:#00001c" d="M233.87,121.97L233.09,121.72L233.87,121.54L234.33,121.72z"/><path style="fill:#00001c" d="M266.30,168.70L266.18,166.57L266.39,166.57z"/><path style="fill:#00001c" d="M264.63,170.90L263.91,170.77L264.73,170.75z"/><path style="fill:#ffffff" d="M30.80,75.16L30.97,74.72L31.36,74.82L31.39,75.46L30.95,75.95L30.45,75.95L30.39,75.05z"/><path style="fill:#ffffff" d="M277.90,164.41L277.80,165.57L276.98,165.66L276.91,165.45L277.33,164.97L277.11,164.61L277.64,164.14z"/><path style="fill:#ffffff" d="M269.33,168.53L268.66,169.72L268.28,169.63L268.50,169.10L268.27,168.75L268.37,168.52L268.79,168.63L268.94,168.24z"/><path style="fill:#ffffff" d="M260.55,172.41L260.11,173.57L259.59,173.67L259.55,172.66L259.97,172.78L260.06,172.15z"/><g id="Actor_.0"><g style="stroke:#000000;stroke-width:0.176"><path d="M86.49,60.38 C86.70,60.48 86.70,60.48 86.91,60.58 C87.04,60.61 87.04,60.61 87.17,60.64 C87.31,60.68 87.31,60.68 87.45,60.71 "/><path d="M87.45,60.71 C87.74,60.74 87.74,60.74 88.04,60.76 C88.34,60.75 88.34,60.75 88.63,60.72 C88.89,60.67 88.89,60.67 89.15,60.60 C89.35,60.51 89.35,60.51 89.55,60.41 "/><path d="M87.46,60.38 C87.75,60.41 87.75,60.41 88.05,60.43 C88.35,60.42 88.35,60.42 88.64,60.39 C88.90,60.34 88.90,60.34 89.16,60.28 C89.36,60.19 89.36,60.18 89.56,60.09 "/><path d="M86.17,59.87 L86.24,60.13 L86.49,60.38 "/><path d="M89.55,60.41 L89.78,60.17 "/><path d="M86.18,59.54 L86.24,59.81 L86.50,60.05 L86.92,60.25 L87.08,60.29 L87.46,60.38 "/><path d="M89.56,60.09 L89.78,59.85 L89.82,59.58 "/><path d="M87.21,59.80 L87.12,59.72 L87.09,59.59 L87.16,59.46 L87.17,59.45 "/><path d="M88.79,59.85 L88.89,59.74 L88.91,59.61 L88.85,59.52 "/></g><g style="stroke:#000000;stroke-width:0.529"><path d="M89.52,60.45 C89.33,60.55 89.33,60.55 89.13,60.64 C88.88,60.70 88.88,60.70 88.62,60.76 C88.33,60.78 88.33,60.78 88.04,60.80 C87.75,60.77 87.75,60.77 87.45,60.75 C87.19,60.68 87.19,60.68 86.92,60.61 C86.72,60.52 86.72,60.52 86.51,60.42 "/><path d="M87.25,59.84 C87.36,59.89 87.36,59.89 87.46,59.94 C87.59,59.97 87.60,59.97 87.73,60.00 C87.88,60.02 87.88,60.02 88.03,60.03 C88.17,60.02 88.18,60.02 88.32,60.01 C88.45,59.98 88.45,59.98 88.58,59.95 C88.68,59.91 88.68,59.91 88.78,59.86 "/><path d="M89.26,59.08 L89.31,59.10 L89.66,59.33 L89.82,59.58 L89.81,59.91 L89.78,60.17 L89.76,60.21 L89.52,60.45 "/><path d="M86.51,60.42 L86.25,60.17 L86.24,60.15 L86.17,59.87 L86.18,59.54 L86.31,59.29 L86.63,59.07 L86.78,59.02 "/><path d="M87.21,59.80 L87.25,59.84 "/><path d="M88.78,59.86 L88.79,59.85 "/></g></g><g id="Actor_.1"><g style="stroke:#000000;stroke-width:0.176"><path d="M214.73,131.45 C214.80,131.51 214.80,131.51 214.87,131.56 C214.98,131.61 214.98,131.61 215.08,131.65 C215.21,131.67 215.21,131.67 215.34,131.70 C215.48,131.70 215.48,131.70 215.62,131.71 C215.76,131.69 215.76,131.69 215.89,131.68 C216.01,131.65 216.01,131.65 216.12,131.61 C216.20,131.56 216.20,131.56 216.28,131.51 "/><path d="M214.92,129.73 C215.03,129.77 215.03,129.77 215.14,129.81 C215.27,129.84 215.27,129.84 215.40,129.86 C215.54,129.87 215.54,129.87 215.68,129.87 C215.81,129.86 215.81,129.86 215.94,129.84 C216.06,129.81 216.06,129.81 216.17,129.78 C216.25,129.73 216.25,129.73 216.33,129.68 "/><path d="M216.15,129.73 C215.95,129.76 215.95,129.76 215.74,129.78 C215.53,129.77 215.53,129.77 215.32,129.76 C215.12,129.72 215.12,129.72 214.92,129.68 "/><path d="M214.51,128.05 C214.65,128.13 214.65,128.13 214.79,128.20 C214.97,128.25 214.97,128.25 215.15,128.30 C215.36,128.33 215.36,128.33 215.57,128.35 C215.78,128.34 215.78,128.34 215.99,128.33 C216.18,128.30 216.18,128.30 216.37,128.26 C216.52,128.20 216.52,128.20 216.67,128.13 "/><path d="M214.88,128.04 C215.04,128.09 215.04,128.09 215.20,128.13 C215.39,128.16 215.39,128.16 215.58,128.17 C215.77,128.17 215.77,128.17 215.96,128.16 C216.13,128.13 216.13,128.13 216.30,128.09 C216.43,128.04 216.44,128.04 216.57,127.98 "/><path d="M216.70,127.50 C216.60,127.43 216.60,127.43 216.50,127.35 C216.36,127.29 216.36,127.29 216.21,127.24 C216.03,127.20 216.03,127.20 215.85,127.17 C215.66,127.16 215.66,127.16 215.47,127.16 C215.29,127.17 215.29,127.17 215.10,127.20 C214.95,127.24 214.95,127.24 214.80,127.29 C214.68,127.35 214.68,127.35 214.57,127.42 "/><path d="M216.33,129.68 L216.15,129.73 "/><path d="M214.92,129.68 L214.80,129.64 L214.92,129.73 "/><path d="M214.80,129.64 L214.72,129.60 "/><path d="M214.34,127.68 L214.36,127.87 L214.43,127.96 L214.51,128.05 "/><path d="M216.67,128.13 L216.85,127.97 L216.90,127.78 "/><path d="M216.57,127.98 L216.73,127.83 L216.78,127.67 L216.70,127.50 "/><path d="M214.57,127.42 L214.47,127.58 L214.49,127.75 L214.63,127.91 L214.88,128.04 "/><path d="M215.47,127.94 L215.48,127.34 L214.92,127.54 L215.05,127.86 L215.76,127.99 L216.17,127.84 L216.19,127.47 L216.32,127.79 L216.17,127.84 "/><path d="M215.48,127.34 L216.19,127.47 "/><path d="M216.33,129.68 L216.41,129.65 "/></g><g style="stroke:#000000;stroke-width:0.529"><path d="M214.73,131.45 C214.87,131.58 214.87,131.58 215.03,131.70 C215.10,131.73 215.11,131.73 215.18,131.76 C215.28,131.78 215.28,131.78 215.38,131.80 C215.49,131.80 215.49,131.80 215.59,131.81 C215.69,131.80 215.69,131.80 215.79,131.78 C215.88,131.76 215.88,131.76 215.96,131.73 C216.02,131.70 216.02,131.70 216.08,131.66 C216.18,131.59 216.18,131.59 216.28,131.51 "/><path d="M216.79,127.54 C216.68,127.44 216.68,127.44 216.56,127.36 C216.40,127.29 216.40,127.29 216.25,127.23 C216.05,127.19 216.05,127.19 215.86,127.16 C215.66,127.15 215.66,127.15 215.46,127.15 C215.27,127.16 215.27,127.16 215.07,127.19 C214.91,127.23 214.90,127.23 214.74,127.29 C214.61,127.36 214.61,127.36 214.48,127.45 "/><path d="M214.68,130.95 L214.67,131.33 L214.73,131.45 "/><path d="M216.28,131.51 L216.36,131.40 L216.37,131.00 "/><path d="M216.40,130.08 L216.41,129.65 L216.49,129.63 L216.74,129.48 L216.86,129.31 L216.90,127.78 L216.90,127.75 L216.79,127.54 "/><path d="M214.48,127.45 L214.34,127.65 L214.34,127.68 L214.29,129.21 L214.38,129.39 L214.60,129.56 L214.72,129.60 L214.70,130.02 "/></g></g><g id="Actor_.2"><g style="stroke:#000000;stroke-width:0.176"><path d="M222.75,132.97 C222.58,133.08 222.58,133.09 222.41,133.19 C222.17,133.26 222.17,133.26 221.93,133.33 C221.65,133.37 221.65,133.37 221.36,133.40 C221.07,133.40 221.07,133.40 220.79,133.38 "/><path d="M220.76,133.38 C220.48,133.34 220.47,133.34 220.19,133.28 C219.96,133.20 219.96,133.20 219.73,133.10 C219.56,132.99 219.56,132.99 219.40,132.87 "/><path d="M219.41,132.54 C219.57,132.66 219.57,132.67 219.73,132.78 C219.97,132.87 219.97,132.87 220.20,132.95 C220.49,133.01 220.50,133.01 220.79,133.05 C221.08,133.07 221.08,133.07 221.37,133.07 C221.66,133.04 221.66,133.04 221.94,133.00 C222.18,132.94 222.18,132.94 222.42,132.86 C222.59,132.76 222.59,132.76 222.76,132.65 "/><path d="M222.91,132.72 L222.75,132.97 "/><path d="M220.79,133.38 L220.76,133.38 "/><path d="M219.40,132.87 L219.27,132.61 "/><path d="M219.28,132.28 L219.41,132.54 "/><path d="M222.76,132.65 L222.92,132.40 "/><path d="M219.41,132.90 L219.41,132.90 "/><path d="M219.27,132.63 L219.27,132.63 "/><path d="M220.35,133.34 L220.21,133.32 L220.45,133.36 "/><path d="M220.21,133.32 L220.21,133.32 "/><path d="M220.30,132.44 L220.26,132.41 L220.19,132.28 L220.22,132.15 L220.26,132.11 "/><path d="M221.95,132.16 L221.99,132.20 L222.01,132.33 L221.93,132.46 L221.88,132.49 "/></g><g style="stroke:#000000;stroke-width:0.529"><path d="M220.67,133.40 C220.44,133.36 220.43,133.36 220.21,133.32 C219.97,133.23 219.97,133.23 219.74,133.14 C219.58,133.03 219.57,133.03 219.41,132.90 "/><path d="M222.74,133.01 C222.57,133.12 222.57,133.12 222.39,133.22 C222.16,133.30 222.16,133.30 221.92,133.37 C221.64,133.41 221.64,133.41 221.35,133.44 C221.06,133.43 221.06,133.43 220.77,133.42 C220.61,133.39 220.61,133.39 220.45,133.36 "/><path d="M221.76,132.57 C221.64,132.60 221.64,132.60 221.52,132.64 C221.38,132.66 221.38,132.66 221.23,132.67 C221.08,132.67 221.08,132.67 220.93,132.66 C220.79,132.64 220.79,132.64 220.65,132.61 C220.53,132.57 220.53,132.57 220.42,132.52 "/><path d="M219.27,132.63 L219.41,132.90 "/><path d="M219.86,131.67 L219.59,131.79 L219.34,132.02 L219.28,132.28 L219.27,132.63 "/><path d="M222.37,131.74 L222.64,131.88 L222.88,132.13 L222.92,132.40 L222.91,132.72 L222.90,132.74 L222.74,133.01 "/><path d="M220.21,133.32 L220.21,133.32 "/><path d="M221.88,132.49 L221.76,132.57 "/><path d="M220.42,132.52 L220.30,132.44 "/></g></g><g id="Actor_.3"><g style="stroke:#000000;stroke-width:0.176"><path d="M70.55,69.51 C70.47,69.56 70.47,69.56 70.38,69.60 C70.27,69.64 70.26,69.64 70.15,69.66 C70.01,69.68 70.01,69.68 69.88,69.69 C69.74,69.68 69.74,69.68 69.60,69.67 C69.47,69.64 69.47,69.64 69.34,69.61 C69.24,69.57 69.24,69.57 69.14,69.53 C69.07,69.47 69.07,69.47 69.01,69.42 "/><path d="M69.19,67.69 C69.29,67.74 69.29,67.74 69.39,67.78 C69.52,67.81 69.52,67.81 69.65,67.84 C69.79,67.85 69.79,67.85 69.93,67.85 C70.06,67.84 70.06,67.84 70.20,67.83 C70.32,67.80 70.32,67.80 70.43,67.77 C70.52,67.73 70.52,67.72 70.61,67.68 "/><path d="M70.38,67.72 C70.18,67.74 70.18,67.74 69.97,67.76 C69.76,67.75 69.76,67.75 69.55,67.73 C69.35,67.69 69.35,67.69 69.16,67.65 "/><path d="M69.03,66.16 C69.21,66.21 69.21,66.21 69.39,66.27 C69.59,66.30 69.59,66.30 69.80,66.32 C70.01,66.32 70.01,66.32 70.22,66.32 C70.42,66.29 70.42,66.29 70.61,66.25 C70.68,66.23 70.68,66.23 70.75,66.20 C70.84,66.17 70.84,66.17 70.93,66.14 C71.03,66.06 71.03,66.06 71.13,65.98 "/><path d="M68.90,65.38 C69.01,65.31 69.01,65.31 69.13,65.25 C69.29,65.21 69.29,65.21 69.45,65.17 C69.64,65.15 69.64,65.15 69.82,65.14 C70.01,65.15 70.02,65.15 70.20,65.16 C70.38,65.20 70.38,65.19 70.55,65.24 C70.69,65.29 70.70,65.29 70.83,65.36 C70.93,65.43 70.93,65.43 71.01,65.51 "/><path d="M71.01,65.84 C70.92,65.91 70.92,65.91 70.83,65.98 C70.69,66.04 70.69,66.04 70.55,66.09 C70.37,66.12 70.37,66.12 70.19,66.15 C70.00,66.15 70.00,66.15 69.81,66.15 C69.63,66.13 69.63,66.13 69.44,66.10 "/><path d="M69.20,69.58 L69.20,69.58 "/><path d="M70.61,67.68 L70.62,67.66 L70.38,67.72 "/><path d="M69.16,67.65 L69.11,67.62 L69.19,67.69 "/><path d="M69.11,67.62 L69.01,67.58 "/><path d="M68.64,65.64 L68.64,65.82 L68.78,66.00 L68.90,66.08 L69.03,66.16 "/><path d="M71.13,65.98 L71.20,65.80 "/><path d="M69.44,66.10 L69.13,66.00 L68.89,65.86 L68.77,65.70 L68.77,65.53 L68.90,65.38 "/><path d="M71.01,65.51 L71.08,65.68 L71.01,65.84 "/><path d="M70.48,65.45 L69.78,65.32 L69.21,65.52 L69.35,65.85 L70.05,65.97 L70.47,65.82 L70.48,65.45 L70.62,65.77 L70.47,65.82 "/><path d="M69.76,65.92 L69.78,65.32 "/><path d="M70.70,67.64 L70.62,67.66 "/><path d="M71.11,65.54 L71.11,65.54 "/><path d="M70.89,65.36 L70.89,65.36 "/></g><g style="stroke:#000000;stroke-width:0.529"><path d="M69.01,69.42 C69.15,69.54 69.15,69.54 69.30,69.67 C69.38,69.70 69.38,69.70 69.45,69.73 C69.55,69.75 69.55,69.75 69.65,69.77 C69.75,69.78 69.75,69.78 69.85,69.79 C69.95,69.78 69.95,69.78 70.06,69.77 C70.14,69.75 70.14,69.75 70.23,69.72 C70.30,69.69 70.30,69.69 70.36,69.65 C70.46,69.58 70.46,69.58 70.55,69.51 C70.60,69.46 70.60,69.46 70.65,69.40 "/><path d="M70.89,65.36 C70.75,65.29 70.75,65.29 70.60,65.23 C70.41,65.19 70.41,65.19 70.21,65.15 C70.02,65.13 70.02,65.13 69.82,65.12 C69.63,65.14 69.63,65.14 69.44,65.16 C69.26,65.20 69.26,65.20 69.08,65.25 C68.95,65.31 68.95,65.31 68.83,65.38 "/><path d="M68.97,68.93 L68.96,69.29 L69.01,69.42 "/><path d="M68.83,65.38 L68.80,65.40 L68.67,65.57 L68.65,65.60 L68.64,65.64 L68.58,67.16 L68.65,67.34 L68.85,67.51 L69.01,67.58 L69.00,68.00 "/><path d="M70.66,68.98 L70.65,69.40 "/><path d="M70.68,68.07 L70.70,67.64 L70.74,67.63 L71.00,67.49 L71.14,67.32 L71.20,65.80 "/><path d="M71.11,65.54 L70.89,65.36 "/><path d="M71.11,65.54 L71.20,65.76 L71.20,65.79 "/></g></g><g id="Actor_.4"><g style="stroke:#000000;stroke-width:0.176"><path d="M88.75,61.21 C88.68,61.26 88.68,61.26 88.60,61.31 C88.50,61.35 88.49,61.35 88.39,61.38 C88.26,61.40 88.25,61.40 88.12,61.42 C87.98,61.42 87.98,61.42 87.84,61.42 C87.71,61.40 87.71,61.40 87.58,61.37 C87.47,61.34 87.46,61.34 87.35,61.29 C87.27,61.24 87.27,61.24 87.19,61.19 "/><path d="M87.25,59.36 C87.32,59.41 87.33,59.41 87.41,59.46 C87.52,59.50 87.52,59.50 87.63,59.54 C87.76,59.56 87.76,59.56 87.90,59.58 C88.04,59.58 88.04,59.58 88.18,59.58 C88.31,59.57 88.31,59.57 88.44,59.55 C88.55,59.51 88.55,59.51 88.65,59.47 C88.71,59.44 88.71,59.44 88.77,59.40 "/><path d="M88.67,59.43 C88.47,59.46 88.47,59.46 88.27,59.49 C88.06,59.49 88.06,59.49 87.84,59.48 C87.64,59.45 87.64,59.45 87.44,59.42 C87.34,59.38 87.34,59.38 87.25,59.35 "/><path d="M87.00,57.79 C87.15,57.87 87.15,57.87 87.30,57.93 C87.49,57.98 87.49,57.98 87.68,58.03 C87.89,58.05 87.89,58.05 88.10,58.06 C88.31,58.05 88.31,58.05 88.52,58.04 C88.70,58.00 88.70,58.00 88.88,57.95 C89.02,57.89 89.02,57.89 89.16,57.82 "/><path d="M86.99,57.16 C87.09,57.09 87.09,57.09 87.19,57.02 C87.34,56.97 87.34,56.97 87.49,56.93 C87.67,56.90 87.67,56.90 87.85,56.88 C88.04,56.87 88.04,56.87 88.23,56.88 C88.41,56.91 88.41,56.91 88.59,56.94 C88.75,56.99 88.75,56.99 88.90,57.05 C89.01,57.11 89.01,57.11 89.12,57.19 "/><path d="M89.06,57.67 C88.93,57.73 88.93,57.73 88.80,57.79 C88.64,57.83 88.64,57.83 88.47,57.87 C88.29,57.88 88.29,57.88 88.10,57.89 C87.91,57.88 87.91,57.88 87.72,57.86 C87.56,57.82 87.56,57.82 87.40,57.78 "/><path d="M88.77,59.40 L88.67,59.43 "/><path d="M87.25,59.35 L87.25,59.36 "/><path d="M87.24,59.35 L87.17,59.32 "/><path d="M86.78,57.43 L86.82,57.62 L87.00,57.79 "/><path d="M89.16,57.82 L89.32,57.65 L89.35,57.46 "/><path d="M87.40,57.78 L87.11,57.65 L86.95,57.49 L86.91,57.32 L86.99,57.16 "/><path d="M89.12,57.19 L89.22,57.35 L89.20,57.52 L89.06,57.67 "/><path d="M87.42,57.52 L87.41,57.52 L87.43,57.19 L87.42,57.52 L87.42,57.52 "/><path d="M87.43,57.19 L88.09,57.05 L88.07,57.70 "/><path d="M88.09,57.05 L88.72,57.24 L88.70,57.57 L88.05,57.71 L87.42,57.52 "/><path d="M88.77,59.40 L88.86,59.37 "/></g><g style="stroke:#000000;stroke-width:0.529"><path d="M88.75,61.21 C88.59,61.32 88.59,61.33 88.43,61.44 C88.36,61.47 88.35,61.47 88.27,61.49 C88.18,61.51 88.18,61.51 88.08,61.52 C87.97,61.52 87.97,61.52 87.87,61.52 C87.77,61.50 87.77,61.50 87.67,61.48 C87.59,61.46 87.58,61.46 87.50,61.43 C87.44,61.39 87.44,61.39 87.38,61.35 C87.29,61.27 87.29,61.27 87.19,61.19 C87.15,61.13 87.15,61.13 87.12,61.07 "/><path d="M89.21,57.22 C89.09,57.13 89.08,57.13 88.95,57.05 C88.79,56.98 88.79,56.99 88.63,56.93 C88.43,56.90 88.43,56.90 88.23,56.87 C88.04,56.86 88.04,56.86 87.84,56.86 C87.64,56.89 87.64,56.89 87.45,56.92 C87.29,56.97 87.29,56.97 87.14,57.02 C87.01,57.10 87.01,57.10 86.90,57.19 "/><path d="M88.82,60.71 L88.81,61.09 L88.75,61.21 "/><path d="M87.12,61.07 L87.13,60.67 "/><path d="M88.85,59.79 L88.86,59.37 L88.99,59.32 L89.22,59.17 L89.31,58.99 L89.35,57.46 L89.34,57.43 L89.21,57.22 "/><path d="M86.90,57.19 L86.78,57.40 L86.78,57.43 L86.74,58.96 L86.86,59.14 L87.10,59.30 L87.17,59.32 L87.16,59.75 "/></g></g><g id="Actor_.5"><g style="stroke:#000000;stroke-width:0.176"><path d="M235.28,122.41 C235.10,122.51 235.10,122.51 234.90,122.61 C234.65,122.68 234.65,122.67 234.39,122.73 C234.10,122.76 234.10,122.76 233.81,122.78 C233.51,122.76 233.51,122.76 233.21,122.74 C232.94,122.68 232.94,122.68 232.67,122.61 C232.45,122.52 232.45,122.52 232.23,122.42 C232.09,122.31 232.09,122.30 231.96,122.18 "/><path d="M234.40,122.41 C234.11,122.43 234.11,122.43 233.82,122.45 C233.52,122.43 233.52,122.43 233.22,122.41 C232.95,122.35 232.95,122.35 232.67,122.29 C232.46,122.19 232.45,122.19 232.24,122.09 C232.10,121.98 232.10,121.98 231.97,121.85 "/><path d="M235.49,122.17 L235.28,122.41 "/><path d="M231.96,122.18 L231.87,121.92 "/><path d="M235.52,121.58 L235.50,121.84 L235.29,122.08 L234.91,122.28 L234.76,122.32 L234.40,122.41 "/><path d="M231.97,121.85 L231.88,121.59 "/><path d="M232.87,121.47 L232.85,121.49 L232.80,121.62 L232.84,121.75 L232.92,121.82 "/><path d="M234.50,121.87 L234.61,121.74 L234.61,121.61 L234.56,121.54 "/></g><g style="stroke:#000000;stroke-width:0.529"><path d="M235.27,122.44 C235.08,122.55 235.08,122.55 234.89,122.64 C234.64,122.71 234.63,122.71 234.38,122.77 C234.09,122.80 234.09,122.80 233.80,122.81 C233.51,122.80 233.51,122.80 233.22,122.77 C232.95,122.72 232.95,122.72 232.68,122.65 C232.46,122.56 232.46,122.56 232.25,122.46 C232.11,122.34 232.11,122.34 231.97,122.21 "/><path d="M234.06,122.03 C233.91,122.04 233.91,122.04 233.76,122.05 C233.61,122.04 233.61,122.04 233.46,122.03 C233.33,122.00 233.33,122.00 233.19,121.97 C233.08,121.92 233.08,121.92 232.98,121.87 "/><path d="M234.97,121.10 L235.33,121.32 L235.52,121.58 L235.49,122.17 L235.48,122.20 L235.27,122.44 "/><path d="M231.97,122.21 L231.87,121.92 L231.88,121.59 L231.99,121.33 L232.29,121.11 L232.48,121.04 "/><path d="M234.50,121.87 L234.31,121.96 L234.24,121.98 L234.06,122.03 "/><path d="M232.98,121.87 L232.92,121.82 "/></g></g><g id="Actor_.6"><g style="stroke:#000000;stroke-width:0.176"><path d="M91.87,62.60 C92.03,62.72 92.03,62.72 92.20,62.83 C92.43,62.92 92.43,62.92 92.67,63.00 C92.95,63.06 92.95,63.06 93.24,63.10 C93.54,63.11 93.54,63.11 93.84,63.11 C94.13,63.08 94.13,63.08 94.41,63.04 C94.65,62.97 94.65,62.97 94.88,62.89 C95.05,62.79 95.05,62.79 95.21,62.68 "/><path d="M92.85,62.70 C93.05,62.74 93.05,62.74 93.25,62.77 C93.55,62.78 93.55,62.78 93.85,62.79 C94.13,62.75 94.14,62.75 94.42,62.71 C94.66,62.64 94.66,62.64 94.89,62.56 C95.06,62.46 95.06,62.46 95.22,62.35 "/><path d="M91.72,62.34 L91.87,62.60 "/><path d="M95.21,62.68 L95.36,62.42 "/><path d="M91.73,62.01 L91.88,62.27 L92.20,62.50 L92.68,62.67 L92.85,62.70 "/><path d="M95.22,62.35 L95.37,62.10 "/><path d="M92.75,62.16 L92.71,62.13 L92.64,62.00 L92.66,61.87 L92.70,61.83 "/><path d="M94.40,63.08 L94.39,63.08 "/><path d="M94.33,62.20 L94.38,62.17 L94.46,62.04 L94.43,61.91 L94.40,61.87 "/></g><g style="stroke:#000000;stroke-width:0.529"><path d="M94.39,63.08 C94.12,63.12 94.11,63.12 93.84,63.15 C93.54,63.15 93.54,63.15 93.25,63.14 C92.97,63.09 92.97,63.09 92.69,63.04 C92.45,62.96 92.45,62.96 92.21,62.87 C92.05,62.76 92.05,62.76 91.89,62.64 "/><path d="M94.22,62.27 C94.10,62.31 94.10,62.32 93.98,62.35 C93.84,62.37 93.84,62.37 93.70,62.39 C93.55,62.39 93.55,62.39 93.40,62.38 C93.26,62.36 93.25,62.36 93.11,62.33 C92.99,62.29 92.99,62.29 92.88,62.24 C92.81,62.20 92.81,62.20 92.75,62.16 "/><path d="M91.89,62.64 L91.88,62.63 L91.73,62.38 L91.72,62.34 L91.73,62.01 L91.77,61.75 L92.02,61.52 L92.31,61.38 "/><path d="M94.33,62.20 L94.22,62.27 "/><path d="M94.81,61.45 L95.07,61.58 L95.32,61.83 L95.37,62.10 L95.35,62.44 L95.21,62.69 L95.19,62.72 L94.86,62.93 L94.40,63.08 "/></g></g><g id="Actor_.7"><g style="stroke:#000000;stroke-width:0.176"><path d="M66.90,84.19 L66.96,84.23 L67.50,84.44 "/></g><g style="stroke:#000000;stroke-width:0.529"><path d="M71.53,90.21 C71.10,90.34 71.10,90.34 70.67,90.46 C70.16,90.53 70.16,90.52 69.65,90.57 C69.12,90.56 69.12,90.56 68.59,90.53 C68.10,90.44 68.10,90.44 67.60,90.34 C67.19,90.19 67.19,90.19 66.79,90.02 C66.51,89.83 66.51,89.83 66.24,89.61 "/><path d="M71.61,90.16 L71.53,90.21 "/><path d="M66.24,89.61 L66.02,89.15 L66.17,83.88 "/></g></g><g id="Actor_.8"><g style="stroke:#000000;stroke-width:0.176"/><g style="stroke:#000000;stroke-width:0.529"><path d="M84.93,81.75 C85.32,81.92 85.33,81.92 85.73,82.07 C86.22,82.17 86.23,82.17 86.72,82.26 C87.25,82.29 87.25,82.29 87.78,82.31 C88.29,82.26 88.29,82.26 88.80,82.20 C89.23,82.08 89.23,82.08 89.66,81.95 "/><path d="M84.71,81.58 L84.93,81.75 "/><path d="M89.66,81.95 L89.79,81.88 "/></g></g><g id="Actor_.9"><g style="stroke:#000000;stroke-width:0.176"><path d="M237.67,124.71 C237.86,124.82 237.86,124.82 238.06,124.92 C238.31,125.00 238.31,125.00 238.57,125.07 C238.87,125.11 238.87,125.11 239.16,125.14 C239.46,125.13 239.46,125.13 239.76,125.12 C240.03,125.07 240.03,125.07 240.30,125.01 C240.51,124.93 240.51,124.93 240.73,124.84 "/><path d="M240.73,124.51 C240.52,124.60 240.52,124.60 240.31,124.69 C240.04,124.74 240.04,124.74 239.77,124.79 C239.47,124.80 239.47,124.80 239.17,124.81 C238.88,124.78 238.88,124.78 238.58,124.74 C238.32,124.67 238.32,124.67 238.07,124.59 C237.87,124.49 237.87,124.49 237.68,124.38 "/><path d="M237.45,124.46 L237.67,124.71 "/><path d="M240.73,124.84 L240.99,124.61 L241.07,124.35 "/><path d="M241.08,124.02 L241.00,124.28 L240.73,124.51 "/><path d="M237.68,124.38 L237.46,124.13 L237.44,123.86 "/><path d="M238.45,124.18 L238.36,124.07 L238.35,123.94 L238.41,123.85 "/><path d="M240.03,124.22 L240.13,124.14 L240.16,124.01 L240.10,123.88 "/></g><g style="stroke:#000000;stroke-width:0.529"><path d="M240.70,124.88 C240.49,124.97 240.49,124.97 240.28,125.05 C240.02,125.11 240.02,125.11 239.75,125.15 C239.46,125.17 239.45,125.17 239.16,125.17 C238.87,125.14 238.87,125.14 238.58,125.10 C238.33,125.03 238.33,125.03 238.07,124.96 C237.88,124.86 237.88,124.86 237.69,124.75 "/><path d="M239.99,124.26 C239.89,124.31 239.89,124.31 239.78,124.35 C239.65,124.38 239.64,124.37 239.51,124.40 C239.36,124.41 239.36,124.40 239.21,124.41 C239.06,124.39 239.06,124.39 238.92,124.37 C238.79,124.34 238.79,124.34 238.66,124.30 C238.56,124.25 238.56,124.25 238.47,124.19 "/><path d="M240.51,123.47 L240.65,123.52 L240.95,123.76 L241.08,124.02 L241.07,124.35 L240.99,124.63 L240.98,124.64 L240.70,124.88 "/><path d="M237.69,124.75 L237.46,124.49 L237.45,124.46 L237.43,124.19 L237.44,123.86 L237.61,123.62 L237.96,123.41 L238.03,123.39 "/><path d="M240.03,124.22 L239.99,124.26 "/><path d="M238.47,124.19 L238.45,124.18 "/></g></g><g id="Actor_.10"><g style="stroke:#000000;stroke-width:0.176"><path d="M238.42,125.54 C238.49,125.60 238.49,125.60 238.56,125.65 C238.67,125.70 238.67,125.70 238.77,125.74 C238.90,125.76 238.90,125.76 239.03,125.79 C239.17,125.80 239.17,125.80 239.31,125.80 C239.45,125.79 239.45,125.79 239.58,125.77 C239.70,125.74 239.70,125.74 239.81,125.71 C239.89,125.66 239.89,125.66 239.97,125.61 "/><path d="M238.61,123.82 C238.72,123.86 238.72,123.86 238.83,123.90 C238.96,123.93 238.96,123.93 239.09,123.95 C239.23,123.96 239.23,123.96 239.37,123.97 C239.50,123.95 239.50,123.95 239.63,123.94 C239.75,123.91 239.75,123.91 239.86,123.87 C239.95,123.82 239.95,123.82 240.03,123.77 "/><path d="M239.83,123.83 C239.63,123.85 239.63,123.85 239.43,123.87 C239.22,123.86 239.21,123.86 239.00,123.85 C238.81,123.82 238.81,123.82 238.61,123.77 "/><path d="M238.20,122.14 C238.34,122.21 238.34,122.22 238.48,122.29 C238.66,122.34 238.66,122.34 238.84,122.39 C239.05,122.42 239.05,122.42 239.26,122.44 C239.47,122.44 239.47,122.44 239.68,122.43 "/><path d="M238.28,121.51 C238.38,121.44 238.39,121.44 238.50,121.38 C238.65,121.33 238.65,121.33 238.81,121.29 C238.99,121.27 238.99,121.27 239.18,121.25 C239.37,121.26 239.37,121.26 239.56,121.27 C239.74,121.30 239.74,121.30 239.91,121.34 C240.06,121.39 240.06,121.39 240.20,121.45 C240.30,121.52 240.30,121.52 240.40,121.60 "/><path d="M240.26,122.08 C240.12,122.14 240.12,122.14 239.99,122.19 C239.82,122.23 239.82,122.23 239.64,122.26 C239.45,122.26 239.45,122.26 239.26,122.27 C239.08,122.25 239.08,122.25 238.89,122.22 C238.81,122.20 238.81,122.20 238.72,122.17 "/><path d="M240.03,123.77 L239.83,123.83 "/><path d="M238.61,123.77 L238.50,123.73 L238.61,123.82 "/><path d="M238.50,123.73 L238.41,123.70 "/><path d="M238.03,121.77 L238.05,121.96 L238.20,122.14 "/><path d="M239.68,122.43 L239.78,122.41 L240.06,122.35 L240.36,122.23 L240.55,122.07 L240.60,121.88 "/><path d="M238.72,122.17 L238.56,122.13 L238.32,122.00 L238.18,121.84 L238.17,121.67 L238.28,121.51 "/><path d="M240.40,121.60 L240.48,121.77 L240.43,121.93 L240.26,122.08 "/><path d="M238.72,121.58 L238.62,121.86 L238.73,121.90 L238.74,121.54 L238.72,121.58 "/><path d="M238.73,121.90 L239.20,122.08 L239.90,121.98 L240.01,121.66 L239.43,121.44 L238.74,121.54 "/><path d="M239.41,122.05 L239.43,121.44 "/><path d="M240.03,123.77 L240.10,123.75 "/></g><g style="stroke:#000000;stroke-width:0.529"><path d="M238.42,125.54 C238.57,125.67 238.57,125.67 238.72,125.79 C238.80,125.82 238.80,125.82 238.88,125.85 C238.98,125.87 238.98,125.87 239.07,125.89 C239.18,125.90 239.18,125.90 239.28,125.90 C239.38,125.89 239.38,125.89 239.48,125.88 C239.57,125.86 239.57,125.86 239.65,125.83 C239.71,125.79 239.71,125.79 239.77,125.76 C239.87,125.68 239.87,125.68 239.97,125.61 "/><path d="M240.49,121.63 C240.38,121.54 240.38,121.54 240.26,121.45 C240.11,121.39 240.11,121.39 239.95,121.33 C239.76,121.29 239.76,121.29 239.57,121.26 C239.37,121.24 239.37,121.24 239.17,121.24 C238.97,121.26 238.97,121.26 238.78,121.28 C238.61,121.33 238.61,121.32 238.44,121.38 C238.31,121.45 238.31,121.45 238.18,121.54 "/><path d="M238.37,125.04 L238.36,125.42 L238.42,125.54 "/><path d="M239.97,125.61 L240.05,125.49 L240.06,125.09 "/><path d="M240.09,124.17 L240.10,123.75 L240.18,123.73 L240.43,123.58 L240.55,123.41 L240.60,121.88 L240.60,121.85 L240.49,121.63 "/><path d="M238.18,121.54 L238.04,121.74 L238.03,121.77 L237.98,123.30 L238.07,123.48 L238.29,123.65 L238.41,123.70 L238.40,124.12 "/></g></g><g id="Actor_.11"><g style="stroke:#000000;stroke-width:0.176"><path d="M212.77,146.28 L213.09,146.44 L213.27,146.49 "/></g><g style="stroke:#000000;stroke-width:0.529"><path d="M216.88,152.36 C216.41,152.46 216.41,152.46 215.94,152.55 C215.42,152.58 215.42,152.58 214.89,152.59 C214.37,152.55 214.37,152.55 213.85,152.49 C213.38,152.37 213.38,152.37 212.92,152.24 C212.57,152.06 212.56,152.06 212.22,151.87 "/><path d="M217.30,152.17 L216.88,152.36 "/><path d="M212.22,151.87 L211.81,151.43 L211.74,150.97 L211.88,145.90 "/></g></g><g id="Actor_.12"><g style="stroke:#000000;stroke-width:0.176"><path d="M94.22,63.63 C94.12,63.67 94.12,63.67 94.03,63.71 C93.91,63.74 93.91,63.74 93.78,63.77 C93.65,63.78 93.64,63.78 93.51,63.78 C93.37,63.77 93.37,63.77 93.23,63.75 C93.11,63.72 93.11,63.72 92.99,63.69 C92.89,63.65 92.89,63.65 92.80,63.60 "/><path d="M92.85,61.76 C92.94,61.81 92.94,61.81 93.04,61.86 C93.16,61.89 93.16,61.89 93.28,61.92 C93.42,61.94 93.42,61.94 93.56,61.95 C93.70,61.94 93.70,61.94 93.84,61.93 C93.96,61.91 93.96,61.91 94.08,61.88 C94.18,61.84 94.18,61.84 94.27,61.79 "/><path d="M94.30,61.76 C94.15,61.80 94.15,61.80 93.99,61.83 C93.78,61.84 93.78,61.84 93.57,61.85 C93.36,61.83 93.36,61.83 93.15,61.81 C93.06,61.79 93.06,61.79 92.98,61.77 "/><path d="M92.43,60.06 C92.54,60.14 92.54,60.14 92.66,60.22 C92.83,60.28 92.83,60.28 93.00,60.34 C93.20,60.38 93.20,60.38 93.40,60.41 C93.61,60.42 93.61,60.42 93.82,60.42 C94.02,60.40 94.02,60.40 94.22,60.37 C94.39,60.32 94.39,60.32 94.56,60.26 C94.68,60.19 94.68,60.19 94.79,60.11 "/><path d="M92.64,59.44 C92.77,59.38 92.77,59.38 92.90,59.32 C93.06,59.28 93.06,59.28 93.23,59.25 C93.42,59.24 93.42,59.24 93.61,59.23 C93.80,59.25 93.80,59.25 93.99,59.27 C94.15,59.31 94.16,59.31 94.32,59.35 C94.45,59.42 94.45,59.42 94.58,59.48 "/><path d="M94.67,59.97 C94.57,60.04 94.57,60.04 94.47,60.10 C94.32,60.16 94.32,60.15 94.17,60.20 C93.99,60.23 93.98,60.23 93.80,60.25 C93.61,60.24 93.61,60.24 93.42,60.24 C93.24,60.21 93.24,60.21 93.06,60.18 C92.92,60.13 92.92,60.13 92.77,60.07 "/><path d="M92.98,61.77 L92.81,61.72 L92.85,61.76 "/><path d="M94.27,61.79 L94.30,61.76 "/><path d="M92.81,61.72 L92.71,61.68 "/><path d="M92.36,59.69 L92.36,59.69 "/><path d="M92.32,59.87 L92.43,60.06 "/><path d="M94.79,60.11 L94.89,59.93 "/><path d="M92.77,60.07 L92.55,59.92 L92.45,59.76 L92.49,59.59 L92.64,59.44 "/><path d="M94.58,59.48 L94.62,59.52 L94.74,59.64 L94.77,59.81 L94.67,59.97 "/><path d="M93.02,59.58 L92.90,59.82 L93.05,59.89 L93.06,59.51 L93.02,59.58 "/><path d="M93.05,59.89 L93.45,60.05 L94.16,59.97 L94.32,59.66 L93.77,59.42 L93.06,59.51 "/><path d="M93.77,59.42 L93.76,60.02 "/><path d="M94.40,61.73 L94.30,61.76 "/></g><g style="stroke:#000000;stroke-width:0.529"><path d="M92.68,63.48 C92.74,63.54 92.74,63.54 92.80,63.60 C92.88,63.67 92.88,63.67 92.97,63.74 C93.04,63.78 93.04,63.78 93.11,63.81 C93.20,63.84 93.20,63.84 93.30,63.86 C93.40,63.87 93.40,63.87 93.50,63.88 C93.60,63.88 93.60,63.88 93.71,63.87 C93.80,63.85 93.80,63.85 93.89,63.83 C93.96,63.80 93.96,63.80 94.03,63.77 C94.13,63.70 94.12,63.70 94.22,63.63 C94.27,63.57 94.27,63.57 94.33,63.52 "/><path d="M94.64,59.49 C94.51,59.42 94.51,59.42 94.37,59.35 C94.19,59.30 94.19,59.30 94.01,59.26 C93.81,59.24 93.81,59.24 93.61,59.22 C93.41,59.23 93.41,59.23 93.21,59.24 C93.03,59.28 93.03,59.27 92.85,59.32 C92.71,59.38 92.71,59.38 92.57,59.44 "/><path d="M92.67,63.03 L92.66,63.36 L92.68,63.48 "/><path d="M94.33,63.52 L94.35,63.40 L94.36,63.08 "/><path d="M94.39,62.16 L94.40,61.73 L94.65,61.62 L94.82,61.45 L94.85,61.27 L94.89,59.93 L94.85,59.71 L94.84,59.68 L94.64,59.49 "/><path d="M92.57,59.44 L92.38,59.62 L92.36,59.65 L92.32,59.87 L92.28,61.21 L92.32,61.40 L92.49,61.57 L92.71,61.68 L92.70,62.10 "/></g></g><g id="Actor_.13"><g style="stroke:#000000;stroke-width:0.176"><path d="M213.98,130.62 C214.17,130.73 214.18,130.73 214.37,130.83 C214.63,130.91 214.63,130.91 214.89,130.98 C215.18,131.01 215.19,131.01 215.48,131.04 C215.78,131.04 215.78,131.04 216.08,131.02 C216.35,130.97 216.35,130.97 216.62,130.92 C216.83,130.83 216.83,130.83 217.04,130.74 "/><path d="M217.05,130.41 C216.84,130.50 216.84,130.50 216.62,130.59 C216.36,130.65 216.36,130.65 216.09,130.69 C215.79,130.71 215.79,130.71 215.49,130.71 C215.20,130.68 215.19,130.69 214.90,130.65 C214.64,130.58 214.64,130.58 214.38,130.50 C214.19,130.40 214.18,130.40 213.99,130.29 "/><path d="M213.76,130.37 L213.98,130.62 "/><path d="M217.04,130.74 L217.30,130.51 L217.37,130.25 "/><path d="M217.38,129.92 L217.31,130.18 L217.05,130.41 "/><path d="M213.99,130.29 L213.77,130.04 L213.74,129.78 "/><path d="M214.76,130.09 L214.66,129.98 L214.65,129.85 L214.71,129.75 "/><path d="M216.34,130.13 L216.43,130.05 L216.47,129.92 L216.40,129.79 "/></g><g style="stroke:#000000;stroke-width:0.529"><path d="M217.02,130.78 C216.81,130.87 216.81,130.87 216.60,130.95 C216.33,131.01 216.33,131.01 216.07,131.06 C215.77,131.07 215.77,131.07 215.48,131.08 C215.19,131.05 215.19,131.05 214.90,131.01 C214.64,130.94 214.64,130.94 214.39,130.87 C214.19,130.77 214.19,130.77 214.00,130.66 "/><path d="M216.30,130.16 C216.20,130.21 216.20,130.21 216.09,130.25 C215.96,130.28 215.96,130.28 215.82,130.30 C215.67,130.31 215.67,130.31 215.52,130.31 C215.38,130.30 215.37,130.30 215.23,130.28 C215.10,130.25 215.10,130.25 214.97,130.21 C214.87,130.16 214.87,130.16 214.77,130.10 "/><path d="M216.81,129.37 L216.94,129.43 L217.25,129.66 L217.38,129.92 L217.37,130.25 L217.30,130.53 L217.29,130.54 L217.02,130.78 "/><path d="M214.00,130.66 L213.77,130.40 L213.76,130.37 L213.73,130.11 L213.74,129.78 L213.91,129.53 L214.26,129.32 L214.33,129.30 "/><path d="M216.34,130.13 L216.30,130.16 "/><path d="M214.77,130.10 L214.76,130.09 "/></g></g><g id="Actor_.14"><g style="stroke:#000000;stroke-width:0.176"><path d="M220.34,133.88 C220.43,133.93 220.43,133.93 220.53,133.97 C220.65,134.01 220.65,134.01 220.77,134.04 C220.91,134.05 220.91,134.05 221.04,134.07 C221.18,134.06 221.18,134.06 221.32,134.05 C221.44,134.03 221.44,134.03 221.57,134.00 C221.66,133.96 221.67,133.96 221.76,133.92 "/><path d="M220.39,132.04 C220.48,132.09 220.48,132.09 220.58,132.14 C220.70,132.17 220.70,132.17 220.82,132.20 C220.96,132.22 220.96,132.22 221.10,132.23 C221.23,132.23 221.24,132.23 221.37,132.22 C221.50,132.20 221.50,132.20 221.62,132.17 C221.72,132.13 221.72,132.13 221.81,132.08 "/><path d="M221.85,132.05 C221.69,132.09 221.68,132.09 221.52,132.12 C221.31,132.13 221.31,132.13 221.10,132.14 C220.89,132.12 220.89,132.12 220.68,132.09 C220.49,132.04 220.49,132.04 220.31,131.99 "/><path d="M219.97,130.33 C220.08,130.42 220.08,130.42 220.20,130.49 C220.38,130.56 220.38,130.56 220.56,130.63 C220.74,130.66 220.74,130.66 220.93,130.69 C221.14,130.70 221.14,130.70 221.35,130.70 C221.55,130.68 221.55,130.68 221.75,130.66 C221.93,130.61 221.93,130.61 222.09,130.55 C222.21,130.48 222.22,130.48 222.33,130.40 "/><path d="M220.20,129.72 C220.33,129.66 220.33,129.66 220.47,129.60 C220.63,129.56 220.63,129.56 220.80,129.53 C220.99,129.52 220.99,129.52 221.18,129.52 C221.37,129.53 221.37,129.53 221.56,129.56 C221.72,129.60 221.73,129.60 221.89,129.65 C222.02,129.71 222.02,129.71 222.14,129.78 "/><path d="M222.22,130.26 C222.11,130.33 222.11,130.33 222.00,130.40 C221.85,130.45 221.85,130.45 221.70,130.49 C221.52,130.51 221.52,130.51 221.34,130.53 C221.14,130.53 221.14,130.53 220.95,130.52 C220.77,130.49 220.77,130.49 220.59,130.46 "/><path d="M220.36,132.00 L220.39,132.04 "/><path d="M221.81,132.08 L221.85,132.05 "/><path d="M220.31,131.99 L220.26,131.97 "/><path d="M219.87,130.15 L219.97,130.33 "/><path d="M222.33,130.40 L222.44,130.23 "/><path d="M220.59,130.46 L220.30,130.34 L220.09,130.20 L220.01,130.03 L220.04,129.87 L220.20,129.72 "/><path d="M222.14,129.78 L222.29,129.93 L222.32,130.10 L222.22,130.26 "/><path d="M221.13,129.70 L221.79,129.87 L221.78,130.20 L221.19,130.35 L220.53,130.18 L220.50,129.86 L221.13,129.70 L221.12,130.33 "/><path d="M221.95,132.01 L221.89,132.04 L221.85,132.05 "/><path d="M221.79,129.87 L221.82,130.19 L221.78,130.20 "/></g><g style="stroke:#000000;stroke-width:0.529"><path d="M220.23,133.76 C220.28,133.82 220.28,133.82 220.34,133.88 C220.43,133.95 220.43,133.95 220.52,134.02 C220.58,134.06 220.58,134.06 220.65,134.09 C220.74,134.12 220.75,134.12 220.84,134.14 C220.94,134.16 220.94,134.16 221.04,134.16 C221.14,134.16 221.15,134.16 221.25,134.16 C221.34,134.14 221.34,134.14 221.43,134.12 C221.51,134.09 221.51,134.09 221.58,134.06 C221.67,133.99 221.67,133.99 221.76,133.92 C221.82,133.87 221.82,133.87 221.88,133.81 "/><path d="M222.21,129.78 C222.08,129.71 222.07,129.71 221.94,129.64 C221.76,129.59 221.75,129.59 221.57,129.54 C221.38,129.52 221.38,129.52 221.18,129.50 C220.99,129.51 220.99,129.51 220.79,129.52 C220.61,129.56 220.60,129.56 220.42,129.60 C220.28,129.65 220.28,129.65 220.14,129.72 "/><path d="M220.22,133.32 L220.21,133.64 L220.23,133.76 "/><path d="M221.88,133.81 L221.90,133.69 L221.91,133.37 "/><path d="M220.25,132.39 L220.26,131.97 L220.03,131.85 L219.86,131.67 L219.84,131.48 L219.87,130.15 "/><path d="M221.94,132.44 L221.95,132.01 L222.19,131.91 L222.36,131.75 L222.41,131.56 L222.44,130.23 L222.41,130.00 L222.39,129.97 L222.21,129.78 "/><path d="M220.14,129.72 L219.94,129.90 L219.92,129.93 L219.87,130.15 "/></g></g><g id="Actor_.15"><g style="stroke:#000000;stroke-width:0.176"><path d="M76.06,71.90 C75.96,71.94 75.96,71.94 75.86,71.98 C75.74,72.01 75.74,72.01 75.62,72.03 C75.48,72.04 75.48,72.04 75.34,72.05 C75.20,72.03 75.20,72.03 75.06,72.02 C74.94,71.99 74.94,71.99 74.82,71.95 C74.73,71.91 74.73,71.91 74.63,71.86 "/><path d="M74.69,70.02 C74.78,70.07 74.78,70.07 74.87,70.12 C74.99,70.15 74.99,70.15 75.12,70.18 C75.25,70.20 75.25,70.20 75.39,70.21 C75.53,70.21 75.53,70.21 75.67,70.20 C75.79,70.18 75.79,70.18 75.92,70.15 C76.01,70.11 76.01,70.11 76.11,70.06 "/><path d="M76.15,70.03 C75.98,70.07 75.98,70.07 75.81,70.10 C75.60,70.11 75.60,70.11 75.39,70.12 C75.19,70.10 75.18,70.10 74.98,70.07 C74.81,70.03 74.81,70.03 74.65,69.99 "/><path d="M74.27,68.31 C74.38,68.40 74.38,68.40 74.49,68.48 C74.57,68.51 74.58,68.51 74.66,68.54 C74.74,68.57 74.74,68.57 74.82,68.60 "/><path d="M74.82,68.60 C75.02,68.64 75.02,68.64 75.22,68.67 C75.43,68.68 75.43,68.68 75.65,68.69 C75.85,68.66 75.85,68.66 76.05,68.64 C76.22,68.59 76.22,68.59 76.39,68.53 C76.51,68.46 76.51,68.46 76.63,68.38 "/><path d="M74.50,67.70 C74.63,67.64 74.63,67.64 74.76,67.58 C74.93,67.54 74.93,67.54 75.10,67.51 C75.29,67.50 75.29,67.50 75.48,67.50 C75.66,67.51 75.67,67.51 75.85,67.54 C76.02,67.58 76.02,67.58 76.19,67.63 C76.31,67.69 76.31,67.69 76.44,67.76 "/><path d="M76.51,68.24 C76.41,68.31 76.41,68.31 76.30,68.38 C76.26,68.39 76.26,68.39 76.21,68.40 C76.10,68.44 76.10,68.44 75.99,68.47 "/><path d="M75.99,68.47 C75.81,68.49 75.81,68.49 75.63,68.51 C75.44,68.51 75.44,68.51 75.25,68.50 C75.07,68.47 75.07,68.47 74.89,68.44 "/><path d="M76.11,70.06 L76.15,70.03 "/><path d="M74.65,69.99 L74.69,70.02 "/><path d="M74.65,69.99 L74.61,69.97 L74.56,69.95 "/><path d="M74.17,68.13 L74.27,68.31 "/><path d="M76.63,68.38 L76.74,68.21 "/><path d="M74.89,68.44 L74.59,68.32 L74.39,68.18 L74.30,68.01 L74.34,67.85 L74.50,67.70 "/><path d="M76.44,67.76 L76.59,67.91 L76.61,68.08 L76.51,68.24 "/><path d="M75.02,68.26 L74.72,67.96 L75.15,67.70 L75.89,67.75 L75.88,68.24 L75.77,68.31 L75.02,68.26 "/><path d="M76.25,69.99 L76.19,70.02 L76.15,70.03 "/><path d="M75.89,67.75 L76.20,68.05 L75.88,68.24 "/><path d="M75.15,67.70 L75.13,68.27 "/></g><g style="stroke:#000000;stroke-width:0.529"><path d="M74.53,71.74 C74.58,71.80 74.58,71.80 74.63,71.86 C74.72,71.93 74.72,71.93 74.81,72.00 C74.88,72.04 74.88,72.04 74.95,72.07 C75.04,72.10 75.04,72.10 75.13,72.12 C75.23,72.14 75.23,72.14 75.34,72.15 C75.44,72.14 75.44,72.14 75.54,72.14 C75.64,72.12 75.64,72.12 75.73,72.10 C75.80,72.07 75.80,72.07 75.87,72.04 C75.96,71.97 75.96,71.97 76.06,71.90 C76.11,71.85 76.11,71.85 76.17,71.79 "/><path d="M76.50,67.76 C76.37,67.69 76.37,67.69 76.23,67.62 C76.05,67.57 76.05,67.57 75.87,67.53 C75.67,67.50 75.67,67.50 75.48,67.48 C75.28,67.49 75.28,67.49 75.09,67.50 C74.90,67.54 74.90,67.54 74.71,67.58 C74.57,67.63 74.57,67.64 74.43,67.70 "/><path d="M74.52,71.30 L74.51,71.62 L74.53,71.74 "/><path d="M76.17,71.79 L76.20,71.67 L76.21,71.35 "/><path d="M76.74,68.21 L76.70,67.99 L76.69,67.95 L76.50,67.76 "/><path d="M74.43,67.70 L74.24,67.88 L74.22,67.91 L74.17,68.13 L74.13,69.46 L74.16,69.65 L74.32,69.83 L74.56,69.95 L74.54,70.38 "/><path d="M76.24,70.42 L76.25,69.99 L76.48,69.89 L76.66,69.73 L76.70,69.54 L76.74,68.21 "/></g></g><g id="Actor_.16"><g style="stroke:#000000;stroke-width:0.176"><path d="M83.40,81.69 C85.26,80.88 85.28,80.87 87.17,80.15 C88.82,79.87 88.83,79.87 90.50,79.68 C93.98,79.89 93.99,79.89 97.46,80.19 C98.95,80.61 98.97,80.61 100.42,81.12 "/><path d="M130.91,101.91 C132.68,101.13 132.69,101.13 134.49,100.43 C136.24,100.13 136.25,100.12 138.01,99.90 C141.49,100.11 141.50,100.11 144.97,100.41 C146.46,100.83 146.48,100.84 147.94,101.34 "/><path d="M178.20,122.04 C180.18,121.28 180.19,121.28 182.20,120.60 C183.73,120.34 183.74,120.33 185.29,120.16 C188.88,120.35 188.90,120.36 192.49,120.64 "/><path d="M17.77,56.40 L18.45,57.22 L54.95,72.75 L57.98,72.77 L57.96,73.40 L59.40,72.75 L60.52,73.14 L59.58,74.20 L60.26,75.02 L216.74,141.62 L216.72,142.26 L219.23,142.45 L219.78,141.64 L216.74,141.62 "/><path d="M17.75,57.04 L17.78,57.00 "/><path d="M18.45,57.22 L18.43,57.86 "/><path d="M22.77,60.58 L22.12,60.74 L21.63,59.32 L18.77,58.00 "/><path d="M19.57,56.57 L20.09,56.15 L19.05,55.90 L18.37,56.27 L18.74,56.59 "/><path d="M19.78,56.62 L19.50,56.67 "/><path d="M20.17,55.05 L59.69,71.87 L60.48,72.99 L61.00,72.92 "/><path d="M30.21,59.06 L20.49,54.93 "/><path d="M21.95,64.20 L21.40,64.62 L21.59,65.44 L22.62,65.66 "/><path d="M21.69,59.25 L22.03,59.39 "/><path d="M22.74,59.69 L54.93,73.39 L54.95,72.75 "/><path d="M29.14,77.76 L28.59,76.47 L28.86,73.39 L28.30,73.03 "/><path d="M28.59,76.47 L28.07,76.24 "/><path d="M28.15,73.62 L28.67,73.84 L29.14,73.62 L28.86,73.39 "/><path d="M61.64,82.04 L61.12,81.05 L28.07,72.33 "/><path d="M30.81,74.36 L31.35,75.17 L30.70,76.00 L30.22,75.76 "/><path d="M29.37,73.52 L35.62,75.17 "/><path d="M29.14,58.61 L33.91,60.64 "/><path d="M36.98,64.04 L37.12,64.42 L38.71,64.29 L38.11,63.83 L36.98,64.04 "/><path d="M38.34,64.53 L37.30,64.49 "/><path d="M85.02,61.08 L84.71,60.70 L84.06,62.39 L43.58,45.16 "/><path d="M68.61,67.28 L51.12,62.66 L44.87,65.30 "/><path d="M45.10,65.40 L49.69,67.35 L54.31,67.74 L54.36,68.40 "/><path d="M45.53,53.47 L44.99,54.30 L45.60,55.12 L46.20,54.93 "/><path d="M45.68,48.38 L45.26,48.50 L45.20,49.41 L45.75,50.03 L46.34,49.86 "/><path d="M86.18,59.93 L85.18,60.38 L84.06,60.03 L45.38,43.58 "/><path d="M47.60,72.39 L46.79,72.18 L47.23,71.61 "/><path d="M47.64,43.43 L47.32,42.98 L48.19,42.74 L48.96,42.96 L48.68,43.46 "/><path d="M49.83,67.42 L51.29,68.02 "/><path d="M50.77,67.81 L51.25,68.02 "/><path d="M68.62,66.08 L51.64,61.60 "/><path d="M54.31,67.74 L69.98,71.87 L70.13,72.56 "/><path d="M54.93,73.39 L57.96,73.40 "/><path d="M55.54,71.94 L56.18,72.47 L57.16,72.32 L56.76,71.74 L55.54,71.94 "/><path d="M55.91,72.41 L56.90,72.43 "/><path d="M57.98,72.77 L60.43,71.91 "/><path d="M61.29,76.76 L61.60,80.86 L61.12,81.05 L60.72,75.86 L60.24,75.65 L60.26,75.02 "/><path d="M60.24,75.65 L59.58,74.80 "/><path d="M59.56,74.84 L59.58,74.20 "/><path d="M59.50,72.70 L59.81,72.56 "/><path d="M60.35,72.71 L59.92,72.54 "/><path d="M60.12,72.56 L60.20,72.59 "/><path d="M61.60,80.86 L62.39,82.00 "/><path d="M60.72,75.86 L61.24,76.08 "/><path d="M62.22,74.69 L62.51,74.18 L61.64,73.96 L60.86,74.21 L61.18,74.66 "/><path d="M60.52,73.50 L61.02,73.28 "/><path d="M61.74,81.25 L62.29,82.03 "/><path d="M62.76,82.42 L62.70,82.40 "/><path d="M62.30,81.35 L62.43,76.88 "/><path d="M62.30,81.46 L221.82,149.36 L222.35,150.36 "/><path d="M62.44,76.59 L216.72,142.26 "/><path d="M61.97,72.84 L221.62,140.80 L222.14,141.72 L222.15,142.45 L221.38,143.07 L222.08,144.87 L221.95,149.36 L222.43,149.20 L222.98,149.70 L222.97,150.34 "/><path d="M67.24,51.37 L67.53,50.86 L66.81,50.64 L65.88,50.88 L66.20,51.34 "/><path d="M70.50,82.11 L71.27,82.68 L70.78,81.64 L70.50,82.11 "/><path d="M84.56,62.18 L84.06,62.39 L84.69,70.32 L84.24,71.69 L72.49,77.04 L69.83,75.91 "/><path d="M70.08,71.90 L72.13,72.99 L72.43,74.06 "/><path d="M71.17,61.65 L70.91,61.92 L70.33,61.36 L70.81,60.85 "/><path d="M71.35,82.50 L70.99,81.72 "/><path d="M71.67,68.09 L74.15,68.74 "/><path d="M71.16,66.75 L74.56,67.65 "/><path d="M84.24,71.69 L72.63,77.10 "/><path d="M72.49,77.04 L83.99,81.94 "/><path d="M84.19,71.67 L76.70,69.42 "/><path d="M85.17,70.10 L84.69,70.32 L76.74,68.22 "/><path d="M100.42,81.12 L100.41,81.76 "/><path d="M84.40,71.74 L84.56,71.79 "/><path d="M85.80,59.27 L86.09,58.76 L85.18,58.54 L84.44,58.79 L84.76,59.24 "/><path d="M85.27,71.76 L215.39,127.15 "/><path d="M85.87,70.73 L245.45,138.65 L245.45,139.04 L244.87,140.02 L222.43,130.15 "/><path d="M86.08,63.26 L245.73,131.21 L246.83,129.32 L246.81,129.95 "/><path d="M86.92,85.35 L87.87,85.85 L88.68,85.54 L88.15,85.10 L86.92,85.35 "/><path d="M87.26,85.76 L88.30,85.79 "/><path d="M88.10,74.75 L88.29,74.18 L87.80,74.03 L86.69,74.33 L87.05,74.72 "/><path d="M87.19,61.36 L246.83,129.32 L248.68,128.48 L248.66,129.11 "/><path d="M91.12,61.53 L91.40,61.03 L90.39,60.81 L89.71,61.18 L90.08,61.50 "/><path d="M93.64,77.10 L93.83,76.54 L93.02,76.38 L92.23,76.69 L92.60,77.08 "/><path d="M94.93,71.76 L94.67,72.03 L94.09,71.47 L94.56,70.96 "/><path d="M94.75,91.81 L94.27,92.09 L94.50,92.73 L95.12,92.37 "/><path d="M95.11,92.61 L94.81,92.24 "/><path d="M100.42,81.12 L128.14,92.92 L130.35,94.19 L131.40,95.45 L131.67,97.35 "/><path d="M112.99,96.58 L114.67,96.76 L113.94,96.16 L112.99,96.58 "/><path d="M113.34,96.86 L114.38,96.89 "/><path d="M116.16,72.60 L115.84,72.15 L116.56,71.91 L117.49,72.13 L117.20,72.63 "/><path d="M118.02,102.19 L118.26,102.84 L118.86,102.78 L118.43,101.89 L118.02,102.19 "/><path d="M118.50,101.94 L118.87,102.72 "/><path d="M118.68,81.89 L118.42,82.15 L117.85,81.58 L118.31,81.07 "/><path d="M127.43,100.43 L131.50,102.16 "/><path d="M128.12,93.55 L128.14,92.92 "/><path d="M147.94,101.34 L147.92,101.98 "/><path d="M140.46,107.99 L139.05,107.64 L140.09,107.28 L140.84,107.61 L139.42,107.96 "/><path d="M142.63,112.60 L142.02,112.95 L141.78,112.30 L142.27,112.04 "/><path d="M142.32,112.46 L142.62,112.83 "/><path d="M142.43,92.00 L142.18,92.26 L141.60,91.69 L142.07,91.18 "/><path d="M143.28,83.73 L143.57,83.23 L142.55,83.01 L141.87,83.38 L142.24,83.70 "/><path d="M147.94,101.34 L175.65,113.14 L175.63,113.78 "/><path d="M165.53,122.41 L165.78,123.07 L166.34,123.04 L166.01,122.16 L165.53,122.41 "/><path d="M166.54,119.09 L165.18,118.87 L165.81,118.37 L166.83,118.59 L166.83,118.97 L165.50,119.06 "/><path d="M165.83,101.29 L165.44,101.34 L165.42,101.99 L166.19,102.12 "/><path d="M166.38,122.94 L166.01,122.16 "/><path d="M168.32,94.80 L168.11,94.26 L168.63,94.11 L169.65,94.33 L169.36,94.83 "/><path d="M174.94,120.65 L178.20,122.04 "/><path d="M192.49,120.64 L214.01,129.47 "/><path d="M175.65,113.14 L177.86,114.41 L178.91,115.67 L179.19,117.57 "/><path d="M178.43,122.13 L179.01,122.38 "/><path d="M190.14,132.82 L190.06,133.24 L189.41,133.02 L189.34,132.35 L189.77,132.26 "/><path d="M189.95,112.23 L189.69,112.48 L189.12,111.92 L189.58,111.41 "/><path d="M190.14,133.06 L189.83,132.69 "/><path d="M191.62,129.52 L191.40,130.09 L193.00,129.95 L191.62,129.52 "/><path d="M192.62,130.19 L191.58,130.16 "/><path d="M195.44,105.93 L195.73,105.43 L194.71,105.21 L194.03,105.58 L194.40,105.90 "/><path d="M195.43,122.21 L195.45,121.57 "/><path d="M213.70,122.34 L213.45,122.59 L212.87,122.03 L213.34,121.52 "/><path d="M213.04,142.78 L213.81,143.35 L213.60,142.41 L213.04,142.78 "/><path d="M213.89,143.17 L213.53,142.39 "/><path d="M217.34,140.82 L219.09,140.92 L217.66,141.26 L217.34,140.82 "/><path d="M219.55,131.83 L217.04,130.76 "/><path d="M216.90,127.80 L220.94,129.51 "/><path d="M218.70,141.30 L217.66,141.26 "/><path d="M219.76,142.27 L221.30,141.57 L222.64,141.72 L222.15,142.45 "/><path d="M219.78,141.64 L222.24,140.78 "/><path d="M220.48,117.00 L220.16,116.55 L221.09,116.31 L221.90,116.66 L221.52,117.04 "/><path d="M222.04,144.52 L221.38,143.67 "/><path d="M221.36,143.71 L221.38,143.07 "/><path d="M221.30,141.57 L221.60,141.43 "/><path d="M222.48,149.49 L255.87,169.29 L256.15,170.17 "/><path d="M222.09,144.54 L222.55,144.74 L222.43,149.20 "/><path d="M222.06,143.89 L258.55,159.42 L261.48,159.47 L261.57,160.07 L259.17,160.24 L258.53,160.06 L258.55,159.42 "/><path d="M222.55,144.74 L258.53,160.06 "/><path d="M222.66,143.08 L224.40,143.18 L223.29,143.60 L222.66,143.08 "/><path d="M222.98,143.53 L224.02,143.56 "/><path d="M222.64,141.72 L222.37,140.90 "/><path d="M222.63,142.23 L223.77,141.71 L264.14,158.62 "/><path d="M226.70,137.79 L226.61,136.12 L225.48,134.76 L222.57,133.11 "/><path d="M223.17,149.66 L223.80,145.27 "/><path d="M223.12,150.30 L223.12,150.01 "/><path d="M223.77,141.71 L233.12,145.42 L245.04,140.23 L233.21,145.47 "/><path d="M223.14,134.00 L223.16,133.36 "/><path d="M232.76,136.74 L232.49,136.23 L233.50,136.05 L234.19,136.45 L233.78,136.77 "/><path d="M233.37,145.54 L237.20,147.17 L239.54,146.27 L244.07,146.29 L248.25,147.74 L248.17,148.34 "/><path d="M236.80,152.89 L237.56,153.46 L237.15,152.44 L236.80,152.89 "/><path d="M237.28,152.50 L237.65,153.28 "/><path d="M237.74,147.40 L237.20,147.17 "/><path d="M237.10,131.63 L236.71,131.67 L236.69,132.32 L237.46,132.45 "/><path d="M244.90,140.05 L239.54,139.05 L239.05,138.41 L237.93,138.71 L238.30,139.10 "/><path d="M239.54,139.05 L239.32,139.13 "/><path d="M242.58,151.46 L241.22,151.24 L241.85,150.74 L242.91,151.28 L241.54,151.43 "/><path d="M279.72,161.38 L266.14,167.56 L266.21,165.27 L278.75,159.56 L246.01,140.27 "/><path d="M246.00,138.46 L245.52,138.68 L245.73,131.39 L246.21,130.99 "/><path d="M246.56,128.11 L246.24,127.66 L246.87,127.41 L247.88,127.63 L247.60,128.14 "/><path d="M279.10,159.84 L278.75,159.56 L279.44,158.56 L246.69,139.28 "/><path d="M248.25,147.74 L263.88,156.94 L263.80,157.54 "/><path d="M289.64,151.49 L289.15,151.70 L288.26,149.36 L247.73,132.06 "/><path d="M248.68,128.48 L249.23,127.96 "/><path d="M288.62,147.75 L288.64,147.11 L248.98,130.23 "/><path d="M252.92,130.40 L253.20,129.90 L252.17,129.68 L251.51,130.05 L251.88,130.37 "/><path d="M256.37,169.37 L256.82,169.54 L255.87,169.29 "/><path d="M256.74,170.14 L256.58,169.40 "/><path d="M257.19,173.77 L258.26,175.28 "/><path d="M257.71,173.99 L257.77,171.36 L257.27,171.14 "/><path d="M257.00,169.46 L260.66,170.00 L257.77,171.36 L256.82,169.54 "/><path d="M259.34,173.28 L260.29,173.10 L260.45,172.06 L259.94,171.88 "/><path d="M259.78,158.88 L260.71,158.63 L261.48,159.17 L260.10,159.33 L259.78,158.88 "/><path d="M260.76,170.01 L264.83,170.50 L265.62,169.20 L265.74,162.99 L264.66,160.03 L263.38,159.48 L263.43,158.59 L261.59,159.43 "/><path d="M261.14,159.36 L260.10,159.33 "/><path d="M261.22,142.56 L260.96,142.82 L260.38,142.25 L260.85,141.74 "/><path d="M262.04,167.15 L261.72,166.45 L261.68,167.64 L262.49,168.07 L262.65,166.89 L262.16,167.41 L262.72,167.86 "/><path d="M262.65,166.89 L262.05,166.40 "/><path d="M262.87,162.77 L261.83,162.56 L261.73,161.52 L262.20,161.31 "/><path d="M261.57,160.07 L263.11,159.37 "/><path d="M263.41,159.23 L264.66,160.03 L265.13,159.81 "/><path d="M264.00,159.35 L264.16,159.42 "/><path d="M266.10,160.70 L266.14,159.47 L265.62,158.50 L263.88,156.94 "/><path d="M265.62,169.20 L266.10,168.96 L265.72,170.02 L264.83,170.50 "/><path d="M265.59,162.44 L266.07,162.23 L266.22,162.78 L266.26,163.32 L265.78,163.53 "/><path d="M266.14,167.56 L266.10,168.96 "/><path d="M266.21,165.27 L266.26,163.32 "/><path d="M266.07,162.23 L265.73,161.34 "/><path d="M268.72,167.88 L269.11,167.90 L269.21,168.83 L268.71,169.48 L268.13,169.28 "/><path d="M271.48,138.30 L271.76,137.80 L270.75,137.58 L270.07,137.95 L270.44,138.27 "/><path d="M277.51,163.88 L277.88,163.90 L278.00,164.83 L277.30,165.54 L276.91,165.28 "/><path d="M279.85,158.62 L279.44,158.56 "/><path d="M286.30,157.12 L285.97,157.36 L285.18,156.78 L285.21,155.78 L285.63,155.66 "/><path d="M285.78,150.58 L285.36,150.70 L285.30,151.60 L285.79,152.20 L286.44,152.06 "/><path d="M288.40,159.77 L289.08,159.05 L289.35,152.80 L289.83,152.58 "/><path d="M289.15,151.70 L289.35,152.80 "/><path d="M288.71,149.08 L288.23,149.30 L288.16,148.49 L288.64,147.11 L290.44,146.30 L290.47,146.91 "/><path d="M290.04,146.20 L290.33,145.70 L289.31,145.48 L288.63,145.85 L289.00,146.17 "/><path d="M289.19,158.45 L289.67,158.23 "/><path d="M290.49,146.27 L291.04,145.76 "/></g><g style="stroke:#000000;stroke-width:0.529"><path d="M256.91,170.28 C240.27,160.05 240.20,160.00 223.14,150.48 C143.00,115.97 142.92,116.01 62.48,82.20 C49.32,78.40 49.23,78.37 35.90,75.24 "/><path d="M71.73,73.25 C70.94,72.88 70.94,72.88 70.13,72.56 C62.25,70.46 62.25,70.44 54.36,68.40 C52.81,68.17 52.81,68.17 51.25,68.02 "/><path d="M130.33,94.83 C129.24,94.17 129.24,94.16 128.12,93.55 C114.27,87.63 114.28,87.61 100.41,81.76 C98.41,81.17 98.40,81.17 96.38,80.67 C93.59,80.45 93.58,80.45 90.78,80.32 C88.86,80.54 88.85,80.55 86.94,80.86 C85.46,81.36 85.44,81.36 83.99,81.94 "/><path d="M131.58,102.19 C133.01,101.60 133.02,101.60 134.48,101.07 C136.16,100.78 136.16,100.79 137.85,100.56 C139.69,100.53 139.70,100.51 141.54,100.56 C144.73,101.22 144.76,101.18 147.92,101.98 C161.80,107.79 161.79,107.85 175.63,113.78 C176.75,114.39 176.75,114.39 177.84,115.05 "/><path d="M179.01,122.38 C180.50,121.80 180.51,121.80 182.02,121.28 C183.75,120.99 183.76,120.97 185.50,120.76 C188.98,120.97 189.00,120.97 192.47,121.28 "/><path d="M265.24,158.65 C264.53,158.08 264.53,158.08 263.80,157.54 C255.99,152.93 256.01,152.88 248.17,148.34 C246.11,147.55 246.08,147.58 243.98,146.89 C242.83,146.75 242.81,146.75 241.65,146.69 C239.69,147.00 239.68,147.01 237.74,147.40 "/><path d="M241.04,123.95 L249.20,127.66 L249.03,128.88 L246.33,130.49 L246.00,138.46 L245.22,140.14 L246.01,140.27 L246.69,139.28 L248.02,131.17 L250.83,129.39 L252.65,129.13 L290.77,145.18 L290.84,146.67 L288.56,148.11 L289.83,152.58 L289.29,159.29 L288.03,159.80 L279.85,158.62 L279.10,159.84 L279.68,160.96 L279.55,164.64 L278.67,166.20 L259.27,175.19 L258.26,175.28 L257.24,174.33 L256.91,170.28 "/><path d="M35.90,75.24 L29.99,77.74 L28.62,77.53 L28.12,76.81 L28.07,72.33 L19.74,66.43 L18.87,65.37 L18.77,58.00 L17.78,57.34 L17.77,56.40 L20.46,54.92 L30.21,59.06 "/><path d="M18.78,56.61 L19.33,56.54 L18.74,56.59 "/><path d="M22.02,65.13 L22.62,65.66 L22.59,64.76 L21.95,64.20 L22.02,65.13 "/><path d="M22.21,60.14 L22.02,59.59 L22.74,59.69 L22.77,60.58 L22.21,60.14 "/><path d="M30.26,75.73 L30.75,74.38 L30.26,75.73 "/><path d="M30.26,59.08 L35.71,61.40 "/><path d="M34.74,60.99 L39.23,62.90 L38.11,62.43 "/><path d="M39.23,62.90 L44.83,65.29 L51.45,62.35 L51.55,61.54 L43.31,55.69 L42.20,53.96 L42.54,46.74 L44.63,43.89 L48.19,42.49 L50.43,42.82 L86.75,58.27 "/><path d="M45.72,54.61 L45.48,53.56 L46.22,54.17 L46.28,54.72 L45.72,54.61 "/><path d="M45.95,49.61 L45.68,48.38 L46.37,49.09 L46.35,49.84 L45.95,49.61 "/><path d="M47.35,72.14 L47.23,71.78 L47.35,72.14 "/><path d="M47.68,43.45 L48.51,43.41 L47.64,43.43 "/><path d="M51.55,68.15 L60.35,71.87 L61.02,73.28 L62.30,72.76 L69.83,75.91 L72.39,74.12 L71.73,73.25 "/><path d="M61.26,76.36 L61.29,76.76 L62.43,76.88 L61.26,76.36 "/><path d="M61.47,74.60 L62.06,74.64 L61.47,74.60 "/><path d="M61.18,74.66 L61.22,74.68 "/><path d="M66.24,51.35 L67.24,51.37 L66.20,51.34 "/><path d="M71.06,61.10 L71.18,61.46 L71.06,61.10 "/><path d="M83.99,81.94 L127.43,100.43 L130.62,98.82 L131.67,97.35 L130.33,94.83 "/><path d="M86.50,60.41 L84.85,61.23 L84.58,61.92 L85.17,70.10 L84.56,71.79 L85.27,71.76 L85.83,70.98 L86.14,62.89 L87.33,61.30 "/><path d="M85.08,59.31 L84.76,59.24 L85.64,59.22 L85.08,59.31 "/><path d="M87.05,74.72 L88.07,74.75 L87.05,74.72 "/><path d="M89.64,60.34 L92.30,60.64 "/><path d="M90.08,61.50 L91.12,61.53 L90.08,61.50 "/><path d="M92.74,77.04 L93.34,77.16 L92.74,77.04 "/><path d="M95.11,92.32 L94.95,91.97 L95.11,92.32 "/><path d="M94.81,71.21 L94.57,70.97 L94.87,71.72 L94.81,71.21 "/><path d="M232.47,120.30 L95.33,61.93 "/><path d="M116.20,72.62 L117.03,72.58 L116.20,72.62 "/><path d="M118.45,81.17 L118.69,81.87 L118.45,81.17 "/><path d="M132.25,102.48 L131.58,102.19 "/><path d="M177.84,115.05 L179.08,116.54 L179.19,117.57 L178.31,118.94 L174.94,120.65 L132.25,102.48 "/><path d="M142.27,112.30 L142.63,112.60 L142.27,112.30 "/><path d="M142.21,91.28 L142.44,91.98 L142.21,91.28 "/><path d="M142.34,83.68 L143.28,83.73 L142.34,83.68 "/><path d="M165.84,101.30 L166.13,102.06 L165.84,101.30 "/><path d="M168.93,94.90 L168.36,94.82 L169.23,94.79 L168.93,94.90 "/><path d="M221.91,133.48 L225.27,135.23 L226.60,136.76 L226.70,137.79 L225.82,139.16 L222.37,140.90 L179.01,122.38 "/><path d="M192.47,121.28 L213.74,130.00 "/><path d="M190.03,132.51 L190.14,132.82 L189.76,132.36 L190.03,132.51 "/><path d="M189.84,111.65 L189.59,111.41 L189.89,112.17 L189.84,111.65 "/><path d="M195.01,106.00 L194.44,105.92 L195.44,105.93 L195.01,106.00 "/><path d="M213.48,121.62 L213.71,122.32 L213.48,121.62 "/><path d="M219.27,132.35 L216.37,131.12 "/><path d="M220.52,117.02 L221.52,117.04 L220.52,117.02 "/><path d="M232.90,136.70 L233.76,136.75 L232.90,136.70 "/><path d="M233.76,136.75 L233.80,136.77 "/><path d="M238.00,122.66 L235.52,121.60 "/><path d="M237.47,132.43 L237.23,131.73 L237.47,132.43 "/><path d="M250.71,152.92 L250.26,152.73 L264.14,158.62 L264.96,159.35 L265.73,161.34 L266.10,160.70 L265.24,158.65 "/><path d="M237.74,147.40 L249.25,152.30 "/><path d="M239.30,139.11 L238.30,139.10 L239.34,139.12 "/><path d="M246.56,128.11 L247.46,128.17 L246.56,128.11 "/><path d="M248.81,152.10 L250.26,152.73 "/><path d="M251.92,130.39 L252.92,130.40 L251.92,130.39 "/><path d="M259.72,172.94 L259.40,173.25 L259.77,171.97 L259.72,172.94 "/><path d="M261.03,142.38 L260.86,141.75 L261.03,142.38 "/><path d="M262.18,162.07 L262.20,161.31 L262.92,162.68 L262.18,162.07 "/><path d="M268.13,169.28 L268.77,168.06 L268.20,168.45 L268.13,169.28 "/><path d="M270.75,138.35 L270.44,138.27 L271.48,138.30 L270.75,138.35 "/><path d="M277.17,165.10 L276.86,164.97 L277.34,163.97 L277.17,165.10 "/><path d="M285.66,156.56 L285.58,155.75 L286.37,156.92 L285.66,156.56 "/><path d="M285.78,150.58 L285.79,151.43 L286.38,152.03 L286.46,151.28 L285.78,150.58 "/><path d="M289.04,146.19 L290.04,146.20 L289.04,146.19 "/></g></g><g id="Actor_.17"><g style="stroke:#000000;stroke-width:0.176"><path d="M218.92,148.90 L218.09,148.54 "/></g><g style="stroke:#000000;stroke-width:0.529"><path d="M217.43,153.92 C217.67,154.14 217.68,154.14 217.93,154.34 C218.32,154.52 218.32,154.52 218.71,154.68 C219.19,154.79 219.20,154.79 219.68,154.89 C220.21,154.93 220.21,154.93 220.74,154.96 C221.25,154.92 221.25,154.91 221.77,154.87 C221.84,154.85 221.84,154.85 221.91,154.83 C222.28,154.73 222.29,154.74 222.66,154.64 C222.99,154.47 222.99,154.47 223.31,154.28 "/><path d="M217.41,148.25 L217.26,153.46 L217.43,153.92 "/><path d="M223.31,154.28 L223.66,153.85 L223.74,151.09 "/></g></g><g id="Actor_.18"><g style="stroke:#000000;stroke-width:0.176"><path d="M73.70,70.85 C73.86,70.97 73.86,70.97 74.02,71.08 C74.25,71.18 74.25,71.18 74.49,71.26 C74.77,71.32 74.77,71.32 75.05,71.36 "/><path d="M75.09,71.36 C75.37,71.38 75.37,71.38 75.66,71.38 C75.94,71.35 75.94,71.35 76.23,71.31 C76.47,71.24 76.47,71.24 76.71,71.17 C76.88,71.07 76.88,71.06 77.04,70.95 "/><path d="M73.71,70.53 C73.87,70.64 73.87,70.65 74.03,70.76 C74.26,70.85 74.26,70.85 74.50,70.93 C74.79,70.99 74.79,70.99 75.09,71.04 C75.38,71.05 75.38,71.05 75.67,71.05 C75.95,71.02 75.95,71.02 76.24,70.98 C76.48,70.92 76.48,70.92 76.72,70.84 C76.89,70.74 76.89,70.74 77.05,70.63 "/><path d="M73.56,70.59 L73.70,70.85 "/><path d="M75.05,71.36 L75.09,71.36 "/><path d="M77.04,70.95 L77.20,70.70 "/><path d="M73.57,70.27 L73.71,70.53 "/><path d="M77.05,70.63 L77.21,70.38 "/><path d="M74.62,71.32 L75.06,71.40 "/><path d="M74.60,70.42 L74.55,70.39 L74.48,70.26 L74.51,70.13 L74.55,70.09 "/><path d="M75.65,71.42 L75.65,71.42 "/><path d="M76.24,70.14 L76.28,70.18 L76.30,70.31 L76.22,70.44 L76.18,70.47 "/><path d="M77.03,70.99 L77.03,70.99 "/><path d="M77.20,70.72 L77.20,70.72 "/></g><g style="stroke:#000000;stroke-width:0.529"><path d="M76.06,70.55 C75.94,70.58 75.94,70.58 75.82,70.62 C75.67,70.64 75.67,70.64 75.53,70.65 C75.38,70.65 75.38,70.65 75.23,70.64 C75.09,70.62 75.09,70.62 74.95,70.59 C74.83,70.55 74.83,70.55 74.71,70.50 "/><path d="M74.50,71.30 L74.04,71.12 L73.72,70.90 L73.71,70.89 L73.56,70.61 L73.57,70.27 L73.63,70.00 L73.88,69.77 L74.16,69.65 "/><path d="M74.56,71.31 L75.06,71.40 "/><path d="M75.06,71.40 L75.65,71.42 "/><path d="M76.18,70.47 L76.06,70.55 "/><path d="M74.71,70.50 L74.60,70.42 "/><path d="M76.21,71.35 L75.65,71.42 "/><path d="M76.21,71.35 L76.69,71.20 L77.03,70.99 "/><path d="M77.03,70.99 L77.20,70.72 "/><path d="M77.20,70.72 L77.21,70.38 L77.17,70.11 L76.94,69.86 L76.66,69.72 "/></g></g><g id="Actor_.19"><g style="stroke:#000000;stroke-width:0.176"/><g style="stroke:#000000;stroke-width:0.529"><path d="M95.96,83.81 C95.70,84.02 95.70,84.02 95.43,84.21 C95.04,84.36 95.04,84.36 94.63,84.50 C94.15,84.58 94.14,84.58 93.65,84.65 C93.13,84.66 93.12,84.66 92.59,84.65 C92.08,84.59 92.08,84.59 91.57,84.50 C91.13,84.37 91.13,84.37 90.70,84.22 C90.38,84.04 90.37,84.03 90.07,83.83 "/><path d="M96.23,80.65 L96.16,83.36 L95.96,83.81 "/><path d="M90.07,83.83 L89.74,83.38 L89.83,80.41 "/></g></g><g id="Actor_.20"><g style="stroke:#000000;stroke-width:0.176"><path d="M234.46,123.22 C234.40,123.27 234.40,123.27 234.33,123.32 C234.22,123.36 234.22,123.36 234.12,123.40 C233.99,123.42 233.99,123.42 233.86,123.44 C233.72,123.44 233.72,123.44 233.58,123.44 C233.44,123.42 233.44,123.42 233.31,123.40 C233.19,123.36 233.19,123.36 233.08,123.32 C232.99,123.27 232.99,123.27 232.91,123.22 "/><path d="M232.96,121.39 C233.05,121.44 233.05,121.44 233.13,121.49 C233.25,121.53 233.25,121.53 233.36,121.56 C233.50,121.59 233.50,121.59 233.63,121.60 C233.77,121.60 233.77,121.60 233.91,121.60 C234.04,121.58 234.04,121.58 234.17,121.56 C234.27,121.53 234.27,121.52 234.38,121.48 C234.42,121.46 234.42,121.45 234.46,121.42 "/><path d="M234.41,121.44 C234.21,121.47 234.21,121.48 234.02,121.50 C233.80,121.51 233.80,121.51 233.59,121.50 C233.39,121.48 233.39,121.48 233.18,121.44 C233.07,121.41 233.07,121.41 232.95,121.37 "/><path d="M232.54,119.66 C232.63,119.75 232.64,119.75 232.73,119.83 C232.88,119.90 232.89,119.90 233.04,119.97 C233.23,120.01 233.23,120.01 233.42,120.05 C233.64,120.07 233.64,120.07 233.85,120.08 C234.05,120.07 234.05,120.07 234.26,120.05 C234.44,120.01 234.44,120.01 234.62,119.96 C234.76,119.90 234.76,119.89 234.89,119.82 "/><path d="M232.68,119.20 C232.78,119.13 232.78,119.12 232.87,119.06 C233.02,119.00 233.02,119.00 233.16,118.95 C233.34,118.92 233.34,118.92 233.51,118.90 C233.70,118.89 233.70,118.89 233.90,118.90 C234.08,118.92 234.08,118.92 234.26,118.95 C234.42,119.00 234.42,119.00 234.58,119.05 C234.69,119.12 234.69,119.12 234.81,119.19 "/><path d="M234.78,119.68 C234.66,119.74 234.66,119.74 234.54,119.80 C234.39,119.84 234.39,119.84 234.24,119.88 C234.04,119.90 234.04,119.90 233.84,119.91 C233.65,119.90 233.65,119.90 233.46,119.88 C233.29,119.85 233.29,119.85 233.12,119.80 "/><path d="M234.46,121.42 L234.41,121.44 "/><path d="M232.95,121.37 L232.96,121.39 "/><path d="M232.95,121.37 L232.88,121.35 "/><path d="M232.48,119.47 L232.54,119.66 "/><path d="M234.89,119.82 L234.96,119.74 L235.04,119.65 L235.05,119.47 "/><path d="M233.12,119.80 L232.84,119.68 L232.67,119.53 L232.61,119.36 L232.68,119.20 "/><path d="M234.81,119.19 L234.92,119.35 L234.91,119.52 L234.78,119.68 "/><path d="M233.30,119.58 L233.04,119.43 L233.31,119.13 L234.05,119.10 L234.51,119.37 L234.23,119.67 L233.50,119.70 L233.30,119.58 L233.31,119.13 "/><path d="M232.59,119.23 L232.59,119.23 "/><path d="M232.81,119.06 L232.81,119.06 "/><path d="M234.05,119.10 L234.03,119.68 "/><path d="M234.46,121.42 L234.57,121.38 "/></g><g style="stroke:#000000;stroke-width:0.529"><path d="M232.91,123.22 C233.00,123.30 233.00,123.30 233.10,123.38 C233.16,123.41 233.16,123.42 233.22,123.45 C233.31,123.48 233.31,123.48 233.39,123.51 C233.49,123.52 233.49,123.52 233.60,123.54 C233.70,123.54 233.70,123.54 233.80,123.54 "/><path d="M232.81,119.06 C232.96,119.00 232.97,119.00 233.12,118.95 C233.31,118.91 233.31,118.91 233.50,118.89 C233.70,118.88 233.70,118.88 233.90,118.88 C234.09,118.91 234.09,118.91 234.28,118.94 C234.46,118.99 234.46,118.99 234.63,119.05 C234.75,119.12 234.75,119.12 234.87,119.20 "/><path d="M232.84,122.69 L232.83,123.10 L232.91,123.22 "/><path d="M233.80,123.54 L233.85,123.53 L234.00,123.51 L234.15,123.45 L234.46,123.22 L234.52,123.10 L234.53,122.73 "/><path d="M232.87,121.77 L232.88,121.35 L232.83,121.33 L232.58,121.18 L232.45,121.00 L232.48,119.47 "/><path d="M232.59,119.23 L232.81,119.06 "/><path d="M234.87,119.20 L234.90,119.22 L235.02,119.40 L235.04,119.43 L235.05,119.47 L235.02,120.99 L234.94,121.17 L234.73,121.33 L234.57,121.38 L234.55,121.81 "/><path d="M232.59,119.23 L232.49,119.44 L232.48,119.47 "/></g></g><g id="Actor_.21"><g style="stroke:#000000;stroke-width:0.176"><path d="M72.61,86.62 L72.93,86.78 L73.11,86.83 "/></g><g style="stroke:#000000;stroke-width:0.529"><path d="M72.05,92.21 C72.40,92.40 72.40,92.40 72.76,92.58 C73.22,92.71 73.22,92.71 73.68,92.82 C74.20,92.89 74.21,92.88 74.73,92.93 C74.91,92.93 74.91,92.93 75.09,92.92 C75.43,92.90 75.44,92.91 75.78,92.89 C76.25,92.80 76.25,92.80 76.72,92.70 C77.09,92.54 77.09,92.54 77.45,92.38 "/><path d="M71.72,86.24 L71.57,91.31 L71.64,91.77 L72.05,92.21 "/><path d="M77.45,92.38 L77.89,91.96 L78.00,91.50 L78.07,88.94 "/></g></g><g id="Actor_.22"><g style="stroke:#000000;stroke-width:0.176"><path d="M68.23,68.56 C68.41,68.68 68.41,68.68 68.60,68.78 C68.85,68.86 68.85,68.86 69.10,68.94 C69.39,68.98 69.39,68.98 69.68,69.02 C69.98,69.02 69.98,69.02 70.28,69.01 C70.56,68.97 70.56,68.97 70.83,68.92 C71.06,68.84 71.06,68.84 71.28,68.75 C71.42,68.64 71.43,68.64 71.57,68.53 "/><path d="M68.61,68.45 C68.86,68.54 68.86,68.54 69.11,68.61 C69.40,68.65 69.40,68.65 69.69,68.69 C69.99,68.69 69.99,68.69 70.29,68.68 C70.57,68.64 70.57,68.64 70.84,68.59 C71.07,68.51 71.07,68.51 71.29,68.42 C71.43,68.32 71.44,68.31 71.58,68.20 "/><path d="M68.04,68.31 L68.23,68.56 "/><path d="M71.57,68.53 L71.67,68.27 "/><path d="M68.05,67.72 L68.05,67.98 L68.24,68.24 L68.37,68.31 L68.61,68.45 "/><path d="M71.58,68.20 L71.68,67.94 "/><path d="M69.05,68.07 L68.95,67.94 L68.95,67.81 L69.01,67.74 "/><path d="M70.63,68.11 L70.71,68.05 L70.76,67.92 L70.72,67.79 L70.69,67.77 "/></g><g style="stroke:#000000;stroke-width:0.529"><path d="M71.55,68.56 C71.41,68.68 71.41,68.68 71.25,68.79 C71.04,68.88 71.04,68.88 70.82,68.96 C70.54,69.01 70.54,69.01 70.27,69.05 C69.98,69.05 69.98,69.05 69.68,69.05 C69.40,69.02 69.40,69.02 69.11,68.97 C68.86,68.90 68.86,68.90 68.61,68.82 C68.43,68.71 68.42,68.71 68.24,68.60 "/><path d="M70.57,68.16 C70.46,68.20 70.46,68.20 70.35,68.24 C70.21,68.27 70.21,68.27 70.07,68.29 C69.92,68.29 69.92,68.29 69.77,68.29 C69.63,68.27 69.62,68.27 69.48,68.25 C69.35,68.22 69.35,68.22 69.23,68.17 C69.14,68.12 69.14,68.12 69.05,68.07 "/><path d="M71.11,67.36 L71.30,67.44 L71.58,67.68 L71.68,67.94 L71.67,68.27 L71.55,68.56 "/><path d="M68.24,68.60 L68.05,68.34 L68.04,68.31 L68.05,67.72 L68.25,67.47 L68.62,67.27 "/><path d="M70.63,68.11 L70.57,68.16 "/></g></g><g id="paperID" visibility="hidden" opacity="0.00" transform="scale(0.000100)"><path style="stroke:#000000;stroke-width:0.500;fill:#e6e6e6;fill-rule:evenodd" d="M-2000.00,-2000.00L2297.00,-2000.00L2297.00,2210.00L-2000.00,2210.00zM0.00,0.00L297.00,0.00L297.00,210.00L0.00,210.00z"/><path style="fill:#000000;fill-opacity:0.118" d="M3.00,210.00L297.00,210.00L297.00,3.00L300.00,3.00L300.00,213.00L3.00,213.00z"/></g><g id="ToolTip" visibility="hidden" opacity="0" transform="translate(0,0)"><rect id="ToolTipShadow" opacity="0.20" fill="black" stroke="none" x="0" y="0" width="30" height="8"/><rect id="ToolTipBG" fill="#ffffe1" stroke="black" x="0" y="0" width="30" height="8"/><text xml:space="preserve" id="ToolTipText" fill="black" x="0" y="0" width="30" height="8">tooltip</text></g></g></svg>
