<?xml version="1.0" encoding="UTF-8" standalone="no"?>
<svg xmlns="http://www.w3.org/2000/svg" xmlns:xlink="http://www.w3.org/1999/xlink" width="297.000mm" height="210.000mm" viewBox="0.000000 0.000000 297.000000 210.000000" stroke-linejoin="round" stroke-linecap="round" fill="none" fill-rule="evenodd"><desc>Composer Export</desc><script type="text/ecmascript"><![CDATA[
if(typeof(top) != "undefined")
{
	top.ShowPaper = ShowPaper;
}
function ShowHotSpot(evt,hotspotid)
{
	var svgDocument = evt.target.ownerDocument;
	var strId = "hotspot."+hotspotid;
	var hotspot = svgDocument.getElementById(strId);
	if(hotspot)
		hotspot.setAttribute("opacity",".5");
}
function HideHotSpot(evt,hotspotid)
{
	var svgDocument = evt.target.ownerDocument;
	var strId = "hotspot."+hotspotid;
	var hotspot = svgDocument.getElementById(strId);
	if(hotspot)
		hotspot.setAttribute("opacity","0");

	var toolTip = svgDocument.getElementById('ToolTip');
	if(toolTip)
		toolTip.setAttribute("visibility","hidden");
}
function ShowToolTip(evt,hotspotid,strTooltip)
{
	if(strTooltip=="")
	return;

	// change text
	var svgDocument = evt.target.ownerDocument;
	var tiptext = svgDocument.getElementById('ToolTipText');
	if( !tiptext )
	return;
	tiptext.firstChild.nodeValue = " " + strTooltip + "  " ;

	// show tooltip before, else some refresh issue

	var toolTip = svgDocument.getElementById('ToolTip');
	if(!toolTip)
	return;

	toolTip.setAttribute("visibility","visible");
	toolTip.setAttribute("opacity",".95");

	// move tooltip
	// get viewbox

	var root = svgDocument.documentElement;
	var vbox = (root.getAttribute("viewBox")).split(' ');
	var x0 = parseFloat(vbox[0]);
	var y0 = parseFloat(vbox[1]);
	var vboxW = parseFloat(vbox[2]);
	var vboxH = parseFloat(vbox[3]);

	// get default width of svg

	var strW = root.getAttribute("width");
	var svgW = parseFloat(strW);
	if(strW.indexOf('mm') != -1)
	svgW *= 3.779;

	var strH = root.getAttribute("height");
	var svgH = parseFloat(strH);
	if(strH.indexOf('mm') != -1)
	svgH *= 3.779;  	// 96 dpi  -> 96/25.4 = 3.779

	// update the viewbox / width / height if svg is embedded in html with zoom fit all
	var realx0 = x0;
	var realy0 = y0;
	var realvboxW = vboxW;
	var realvboxH = vboxH;
	var realsvgW = svgW;
	var realsvgH = svgH;

	if ((typeof(top) == "undefined") || (typeof(top.svgctl1) != "undefined")) // embedded in html
	{
		// get window size in pxl

		svgW = window.innerWidth;
		svgH = window.innerHeight;

		// calculate real viewbox

		realsvgW = svgW;
		realsvgH = svgH;
		if((svgW / svgH) > (vboxW / vboxH))
		{
			realvboxW = (vboxH * svgW) / svgH;
			realvboxH = vboxH;
			realx0 = x0 - (realvboxW - vboxW)/2 ;
		}
		else
		{
			realvboxH = (vboxW * svgH) / svgW;
			realvboxW = vboxW;
			realy0 = y0 - (realvboxH - vboxH)/2 ;
		}
	}

	// get user zoom/pan

	var newScale = root.currentScale;
	var translation = root.currentTranslate;

	// transform pxl to user unit

	var xPos = (((evt.clientX+10- translation.x)/newScale) * realvboxW)/realsvgW  + realx0 ;
	var yPos = (((evt.clientY+5- translation.y)/newScale) * realvboxH)/ realsvgH  + realy0 ;
	var scaleForWidth = ( (1 / newScale) * realvboxH) / realsvgH;

	// move tooltip

	toolTip.setAttribute("transform", "translate(" + xPos + "," + yPos + ")" );

	// resize tooltip

	var fontsize = 12;
	tiptext.setAttribute("font-size",fontsize*scaleForWidth);
	tiptext.setAttribute("y", fontsize*scaleForWidth);
	var tipBG = svgDocument.getElementById('ToolTipBG');
	var outline = tiptext.getBBox();
	if(tipBG)
	{
		tipBG.setAttribute("stroke-width", 1*scaleForWidth);
		tipBG.setAttribute("width", Number(outline.width) );
		tipBG.setAttribute("height", Number(outline.height) + fontsize*.5*scaleForWidth );
	}
	var ToolTipShadow = svgDocument.getElementById('ToolTipShadow');
	if(ToolTipShadow)
	{
		ToolTipShadow.setAttribute("width", Number(outline.width) );
		ToolTipShadow.setAttribute("height", Number(outline.height) + fontsize*.5*scaleForWidth );
		ToolTipShadow.setAttribute("x", 3*scaleForWidth);
		ToolTipShadow.setAttribute("y", 3*scaleForWidth);
	}
}
function ShowPaper()
{
  var svgDocument = getDocument();
  var paper = svgDocument.getElementById("paperID");
  if(paper)
  {
    paper.setAttribute("transform","scale(1)");
    paper.setAttribute("opacity","1");
    paper.setAttribute("visibility","visible");
  }
  var svg = svgDocument.getRootElement();
  if(svg)
  {
    svg.setAttribute("width","307.000mm");
    svg.setAttribute("height","220.000mm");
    svg.setAttribute("viewBox","-5.000000 -5.000000 307.000000 220.000000");
  }
}
]]></script><defs/><g><path style="fill:#ffffff" d="M296.92,210.05L0.08,210.05L0.08,0.08L296.92,0.08z"/><path style="fill:#000020" d="M28.94,127.35L28.75,127.32L28.90,126.29z"/><path style="fill:#1a1a1a" d="M31.25,83.34L32.36,85.67L34.44,85.75L34.65,87.07L34.71,85.47L34.63,85.27L33.08,85.43L33.52,84.81L34.73,84.72L240.74,98.51L242.94,98.65L244.79,98.82L247.53,98.81L249.01,99.06L250.68,99.33L250.19,100.10L250.30,101.14L250.39,100.15L254.79,100.62L255.86,100.66L255.19,101.04L253.61,141.11L253.42,141.65L252.96,141.87L252.85,142.20L250.03,142.11L31.60,127.49L31.22,127.40L31.06,127.22L28.94,127.35L28.90,126.29L30.40,88.53L30.68,83.07L31.74,82.40L31.98,82.48z"/><path style="fill:#404040" d="M148.66,95.61L149.12,95.78L151.34,97.67L152.14,99.36L152.96,103.51L153.23,108.28L152.96,109.39L152.24,110.65L152.06,110.68L150.50,112.17L148.16,113.96L144.88,115.10L142.01,115.33L141.18,115.33L138.37,114.23L136.71,113.14L134.47,110.68L133.37,108.76L133.08,107.94L132.97,105.89L133.26,104.23L134.12,100.48L135.04,97.81L135.88,96.44L137.67,95.23L138.14,95.07L140.65,95.08z"/><path style="fill:#171717" d="M140.36,119.36L140.21,119.30L140.19,118.12L140.34,118.06z"/><path style="fill:#171717" d="M152.50,120.19L152.33,120.12L152.45,119.13z"/><path style="fill:#171717" d="M158.56,120.46L158.40,120.39L158.40,119.52L158.56,119.46z"/><path style="fill:#171717" d="M164.62,121.08L164.44,120.05L164.58,119.96z"/><path style="fill:#171717" d="M112.79,122.94L112.62,122.88L112.62,122.00L112.79,121.94z"/><path style="fill:#171717" d="M118.85,123.22L118.69,123.15L118.68,122.27L118.85,122.21z"/><path style="fill:#171717" d="M124.90,123.84L124.76,122.83L124.92,122.76z"/><path style="fill:#171717" d="M130.99,124.04L130.81,123.96L130.93,123.28z"/><path style="fill:#171717" d="M250.03,142.11L252.85,142.20L253.13,142.23L253.66,142.67L253.64,143.30L250.12,143.18L248.95,142.96L246.27,143.06L245.75,142.78L245.17,142.48L243.32,142.36L243.48,142.86L42.21,129.41L41.99,129.33L41.83,128.86L41.11,128.83L39.71,128.99L38.34,129.11L37.95,128.86L34.46,128.85L32.28,128.55L31.34,128.04L31.22,127.40L31.60,127.49z"/><path style="fill:#000020" d="M243.76,98.37L242.95,98.46L243.70,98.16z"/><path style="fill:#000020" d="M142.01,115.49L141.18,115.33L142.01,115.33z"/><path style="fill:#ffffff" d="M156.58,118.09L157.25,119.40L157.25,120.24L156.82,121.25L155.92,122.00L154.32,122.00L153.24,121.42L152.50,120.19L152.45,119.13L153.53,117.68L154.23,117.28L155.45,117.28z"/><path style="fill:#ffffff" d="M162.65,118.35L163.32,119.67L163.32,120.52L163.08,121.18L161.88,122.50L160.47,122.51L159.60,121.96L159.04,121.42L158.56,120.46L158.56,119.46L159.31,118.22L160.22,117.70L161.60,117.70z"/><path style="fill:#ffffff" d="M144.25,117.95L144.72,118.10L145.11,118.58L145.12,119.42L144.69,120.42L143.79,121.17L141.91,121.17L140.84,120.31L140.36,119.36L140.34,118.06L140.72,117.80z"/><path style="fill:#ffffff" d="M168.71,118.91L169.39,120.22L169.39,121.07L168.96,122.08L168.06,122.83L166.45,122.82L165.40,122.25L165.10,121.92L164.79,121.19L164.62,121.08L164.58,119.96L165.67,118.51L166.36,118.11L167.59,118.11z"/><path style="fill:#ffffff" d="M116.28,120.33L116.87,120.85L117.54,122.15L117.54,123.00L117.11,124.01L116.21,124.76L114.33,124.76L113.26,123.90L112.79,122.94L112.79,121.94L113.68,120.57L114.53,120.03L115.45,120.04z"/><path style="fill:#ffffff" d="M122.94,121.11L123.61,122.43L123.61,123.28L123.46,124.02L122.17,125.26L120.50,125.26L119.33,124.17L118.85,123.22L118.85,122.21L119.76,120.87L120.51,120.46L121.89,120.46z"/><path style="fill:#ffffff" d="M129.00,121.67L129.68,122.98L129.68,123.83L129.25,124.83L128.34,125.59L126.46,125.59L125.39,124.67L125.08,123.95L124.90,123.84L124.92,122.76L125.81,121.40L126.65,120.86L127.88,120.86z"/><path style="fill:#ffffff" d="M135.07,121.94L135.74,123.25L135.75,124.40L135.59,124.86L134.31,126.08L132.89,126.10L132.02,125.55L131.46,125.00L130.99,124.04L130.93,123.28L131.90,121.70L132.64,121.29L134.02,121.29z"/><path style="fill:#ffffff" d="M140.86,122.22L141.79,123.54L141.81,124.67L141.38,125.66L140.48,126.41L138.87,126.41L137.80,125.83L137.21,124.47L137.21,123.44L137.80,122.36L138.79,121.69L140.01,121.69z"/><path style="fill:#ffffff" d="M146.89,122.53L147.86,123.82L147.88,125.22L147.73,125.69L146.44,126.91L145.03,126.93L144.15,126.37L143.40,125.69L143.16,124.92L143.57,123.16L144.03,122.53L144.78,122.12L146.16,122.11z"/><path style="fill:#ffffff" d="M153.21,123.11L153.95,124.35L153.93,125.75L153.51,126.49L152.61,127.24L151.01,127.23L149.94,126.65L149.24,124.66L149.46,123.59L150.92,122.52L152.14,122.52z"/><path style="fill:#ffffff" d="M159.03,123.36L159.99,124.65L160.02,126.05L159.86,126.51L158.57,127.74L157.16,127.75L156.29,127.20L155.53,126.52L155.30,125.77L155.31,125.18L155.49,124.39L156.16,123.35L156.91,122.94L158.29,122.94z"/><path style="fill:#ffffff" d="M165.38,123.90L166.06,124.92L166.06,126.57L165.64,127.32L164.75,128.07L163.15,128.06L162.08,127.48L161.39,125.73L161.53,124.92L162.21,123.88L163.06,123.35L164.28,123.35z"/><path style="fill:#ffffff" d="M170.69,123.77L170.92,123.89L172.13,125.47L172.15,126.88L171.99,127.34L170.71,128.56L169.32,128.56L167.87,127.49L167.59,126.87L167.61,125.20L168.29,124.17L169.89,123.61z"/><path style="fill:#ffffff" d="M119.32,126.12L120.28,127.40L120.30,128.80L119.88,129.81L118.85,130.49L117.45,130.51L116.58,129.96L116.02,129.43L115.75,128.80L115.77,127.13L116.45,126.11L117.20,125.70L118.58,125.70z"/><path style="fill:#ffffff" d="M125.67,126.66L126.35,127.68L126.35,129.33L125.93,130.07L125.04,130.82L123.43,130.82L122.36,130.23L121.84,129.33L121.84,127.68L122.80,126.39L123.35,126.10L124.57,126.10z"/><path style="fill:#ffffff" d="M131.45,126.94L132.42,128.23L132.42,129.88L132.01,130.63L130.99,131.31L129.59,131.34L128.71,130.79L128.15,130.25L127.88,129.63L127.90,127.96L128.59,126.94L129.33,126.53L130.71,126.53z"/><path style="fill:#ffffff" d="M155.25,128.18L156.68,129.62L156.86,130.44L156.28,132.29L155.26,132.97L153.88,132.97L152.70,132.17L152.16,131.01L152.15,129.86L153.21,128.39L154.45,128.02z"/><path style="fill:#ffffff" d="M161.79,128.87L162.74,130.18L162.92,130.96L162.92,131.30L162.70,132.03L162.32,132.56L161.44,133.31L159.83,133.31L158.49,132.18L158.22,131.56L158.24,130.16L159.20,128.87L159.74,128.59L161.25,128.59z"/><path style="fill:#ffffff" d="M167.38,129.01L168.82,130.45L169.00,131.27L168.42,133.12L167.39,133.79L166.27,133.81L164.83,133.00L164.29,131.84L164.28,130.69L165.34,129.22L166.58,128.85z"/><path style="fill:#b2adaa" d="M42.60,94.17L41.73,94.73L41.29,94.61L42.32,93.89L42.54,92.94L42.67,93.03z"/><path style="fill:#b2adaa" d="M42.31,98.28L40.81,98.24L42.01,97.98L42.43,97.35z"/><path style="fill:#b2adaa" d="M246.19,107.75L245.80,108.19L244.61,108.17L245.67,107.78L246.23,107.00z"/><path style="fill:#b2adaa" d="M246.20,111.31L245.33,112.19L244.82,112.00L245.90,111.04L246.07,110.58L246.19,110.69z"/><path style="fill:#b2adaa" d="M41.84,114.09L41.46,114.53L40.26,114.52L41.33,114.13L41.71,112.78L41.83,112.87z"/><path style="fill:#b2adaa" d="M41.46,118.12L39.98,118.09L41.17,117.84L41.67,117.14L41.78,117.26z"/><path style="fill:#b2adaa" d="M245.27,128.06L243.77,128.02L244.97,127.76L245.40,127.13z"/><path style="fill:#b2adaa" d="M41.99,129.33L41.82,129.49L40.08,129.50L39.92,129.34L39.97,129.13L41.11,128.83L41.83,128.86z"/><path style="fill:#b2adaa" d="M245.36,131.46L244.98,131.91L243.78,131.89L244.85,131.51L245.25,130.42L245.36,130.53z"/><path style="fill:#b2adaa" d="M245.75,142.78L245.45,143.13L244.02,143.20L243.48,142.86L245.17,142.48z"/><path style="fill:#393939" d="M145.62,98.98L145.52,101.95L144.71,104.50L144.40,106.63L143.87,106.94L143.85,103.59L144.41,101.94L144.70,101.40L144.87,98.79z"/><path style="fill:#393939" d="M138.33,99.72L137.79,104.14L137.77,105.73L138.07,106.56L137.55,106.55L137.22,106.01L137.24,104.42L137.78,100.00L138.30,99.07L138.59,99.04z"/><path style="fill:#393939" d="M149.26,109.83L147.32,111.47L145.16,112.35L141.31,112.40L141.18,112.24L144.98,111.88L147.33,110.65L149.31,108.98L149.63,108.98z"/><path style="fill:#393939" d="M152.22,110.84L149.65,113.52L146.54,115.10L145.15,115.36L142.01,115.49L142.01,115.33L144.88,115.10L148.16,113.96L150.50,112.17L152.06,110.68L152.24,110.65z"/><path style="fill:#c6c1bc" d="M42.51,84.71L41.04,84.73L40.59,84.46L40.77,84.34L41.95,84.31L42.68,84.48z"/><path style="fill:#c6c1bc" d="M42.54,92.94L42.32,93.89L41.29,94.61L40.71,94.42L40.63,92.75L41.17,92.45L42.11,92.43z"/><path style="fill:#c6c1bc" d="M42.41,96.58L42.43,97.35L42.01,97.98L40.81,98.24L40.42,97.99L40.41,96.66L41.26,96.11L41.59,96.07z"/><path style="fill:#c6c1bc" d="M245.94,98.24L243.76,98.37L243.70,98.16L243.87,98.00L245.67,97.98z"/><path style="fill:#c6c1bc" d="M246.20,106.50L246.23,107.00L245.67,107.78L244.61,108.17L244.21,107.92L244.21,106.60L244.96,105.95L245.34,105.96z"/><path style="fill:#c6c1bc" d="M246.07,110.58L245.90,111.04L244.82,112.00L244.24,111.77L243.88,110.93L244.39,109.81L245.64,109.81z"/><path style="fill:#c6c1bc" d="M41.71,112.78L41.33,114.13L40.26,114.52L39.87,114.26L39.89,112.69L40.34,112.31L41.29,112.29z"/><path style="fill:#c6c1bc" d="M41.58,116.44L41.67,117.14L41.17,117.84L39.98,118.09L39.59,117.85L39.62,116.55L40.06,116.17L41.31,116.16z"/><path style="fill:#c6c1bc" d="M245.38,126.35L245.40,127.13L244.97,127.76L243.77,128.02L243.38,127.77L243.41,126.48L243.85,126.10L245.10,126.09z"/><path style="fill:#c6c1bc" d="M39.97,129.13L39.71,128.99L41.11,128.83z"/><path style="fill:#c6c1bc" d="M245.05,129.97L245.25,130.42L244.85,131.51L243.78,131.89L243.39,131.63L243.41,130.07L243.87,129.67L244.52,129.67z"/><path style="fill:#c6c1bc" d="M243.32,142.36L245.17,142.48L243.48,142.86z"/><path style="fill:#171717" d="M32.62,82.72L32.76,83.55L32.90,85.39L33.08,85.43L34.63,85.27L34.71,85.47L34.44,85.75L32.36,85.67L31.25,83.34L31.98,82.48L32.49,82.43z"/><path style="fill:#171717" d="M259.85,98.29L260.33,97.64L260.80,97.69L260.94,98.99L260.94,101.49L259.83,128.79L259.44,137.61L258.60,142.24L257.66,142.70L256.94,142.68L253.98,141.95L253.42,141.65L253.61,141.11L255.19,101.04L255.86,100.66L256.26,100.19L256.74,100.05L257.53,99.79L257.84,99.28L258.64,98.96L258.86,98.43L259.19,98.20z"/><path style="fill:#171717" d="M254.19,99.62L254.79,100.62L250.39,100.15L250.19,100.10L250.68,99.33L251.24,99.20z"/><path style="fill:#171717" d="M155.80,115.23L155.65,115.17L155.65,113.72L155.80,113.66z"/><path style="fill:#171717" d="M161.87,115.50L161.71,115.45L161.72,114.27L161.87,114.21z"/><path style="fill:#171717" d="M116.09,117.99L115.94,117.93L115.94,116.47L116.09,116.42z"/><path style="fill:#171717" d="M122.16,118.26L122.00,118.20L122.01,117.03L122.16,116.97z"/><path style="fill:#171717" d="M128.23,118.53L128.07,118.47L128.07,117.30L128.22,117.24z"/><path style="fill:#171717" d="M134.29,119.09L134.14,119.03L134.14,117.85L134.29,117.79z"/><path style="fill:#171717" d="M146.43,119.63L146.26,119.57L146.26,118.69L146.42,118.62z"/><path style="fill:#171717" d="M165.10,121.92L164.74,121.81L164.62,121.08L164.79,121.19z"/><path style="fill:#171717" d="M125.39,124.67L125.03,124.56L124.90,123.84L125.08,123.95z"/><path style="fill:#171717" d="M149.24,124.66L149.29,123.64L149.46,123.59z"/><path style="fill:#171717" d="M143.40,125.69L143.22,125.65L143.16,124.92z"/><path style="fill:#171717" d="M155.53,126.52L155.35,126.47L155.30,125.77z"/><path style="fill:#1a1a1a" d="M259.85,98.29L259.19,98.20L259.86,97.68L260.33,97.64z"/><path style="fill:#1a1a1a" d="M258.64,98.96L257.84,99.28L258.49,98.52L258.86,98.43z"/><path style="fill:#1a1a1a" d="M257.53,99.79L256.74,100.05L257.37,99.36L257.84,99.28z"/><path style="fill:#000020" d="M32.49,82.43L31.98,82.48L31.74,82.40L32.42,82.24z"/><path style="fill:#000020" d="M32.76,83.55L32.62,82.72L32.75,82.82z"/><path style="fill:#000020" d="M41.95,84.31L40.77,84.34L41.82,84.20z"/><path style="fill:#000020" d="M34.65,87.07L34.44,85.75L34.71,85.47z"/><path style="fill:#000020" d="M242.94,98.65L240.74,98.51L242.95,98.46z"/><path style="fill:#000020" d="M251.24,99.20L250.68,99.33L249.01,99.06z"/><path style="fill:#000020" d="M250.30,101.14L250.19,100.10L250.39,100.15z"/><path style="fill:#000020" d="M260.94,101.49L260.94,98.99L261.05,99.10z"/><path style="fill:#000020" d="M141.94,106.64L139.06,106.54L141.65,106.36L141.92,105.41z"/><path style="fill:#000020" d="M127.96,109.96L127.14,109.98L127.85,109.83z"/><path style="fill:#000020" d="M119.36,112.51L119.22,111.50L119.36,111.41z"/><path style="fill:#000020" d="M131.47,113.07L131.33,112.33L131.48,112.22z"/><path style="fill:#000020" d="M122.35,114.63L121.34,114.49L122.44,114.49z"/><path style="fill:#000020" d="M124.94,115.20L123.82,115.22L124.84,115.08z"/><path style="fill:#000020" d="M136.77,116.04L135.96,116.05L136.68,115.89z"/><path style="fill:#000020" d="M151.39,116.37L151.19,116.26L151.33,115.55z"/><path style="fill:#000020" d="M152.20,116.58L151.49,116.58L151.39,116.37z"/><path style="fill:#000020" d="M149.45,116.87L148.70,116.92L148.77,116.75z"/><path style="fill:#000020" d="M145.12,119.42L145.11,118.58L145.25,118.68z"/><path style="fill:#000020" d="M119.04,119.87L118.03,119.73L119.13,119.73z"/><path style="fill:#000020" d="M157.25,120.24L157.25,119.40L157.39,119.51z"/><path style="fill:#000020" d="M163.32,120.52L163.32,119.67L163.45,119.79z"/><path style="fill:#000020" d="M169.39,121.07L169.39,120.22L169.52,120.34z"/><path style="fill:#000020" d="M117.54,123.00L117.54,122.15L117.68,122.27z"/><path style="fill:#000020" d="M123.61,123.28L123.61,122.43L123.74,122.54z"/><path style="fill:#000020" d="M129.68,123.83L129.68,122.98L129.81,123.10z"/><path style="fill:#000020" d="M135.75,124.40L135.74,123.25L135.87,123.36z"/><path style="fill:#000020" d="M141.81,124.67L141.79,123.54L141.93,123.63z"/><path style="fill:#000020" d="M147.88,125.22L147.86,123.82L147.99,123.90z"/><path style="fill:#000020" d="M153.93,125.75L153.95,124.35L154.06,124.45z"/><path style="fill:#000020" d="M160.02,126.05L159.99,124.65L160.13,124.73z"/><path style="fill:#000020" d="M166.06,126.57L166.06,124.92L166.19,125.00z"/><path style="fill:#000020" d="M172.15,126.88L172.13,125.47L172.26,125.56z"/><path style="fill:#000020" d="M120.30,128.80L120.28,127.40L120.42,127.49z"/><path style="fill:#000020" d="M126.35,129.33L126.35,127.68L126.48,127.76z"/><path style="fill:#000020" d="M39.92,129.34L38.34,129.11L39.71,128.99L39.97,129.13z"/><path style="fill:#000020" d="M132.42,129.88L132.42,128.23L132.55,128.31z"/><path style="fill:#000020" d="M156.86,130.44L156.68,129.62L156.83,129.70z"/><path style="fill:#000020" d="M162.92,130.96L162.74,130.18L162.89,130.25z"/><path style="fill:#000020" d="M169.00,131.27L168.82,130.45L168.96,130.52z"/><path style="fill:#000020" d="M162.99,131.57L162.70,132.03L162.92,131.30z"/><path style="fill:#000020" d="M167.30,133.94L166.27,133.81L167.39,133.79z"/><path style="fill:#000020" d="M253.98,141.95L253.13,142.23L252.85,142.20L252.96,141.87L253.42,141.65z"/><path style="fill:#000020" d="M246.27,143.06L245.45,143.13L245.75,142.78z"/><path style="fill:#000020" d="M245.32,143.29L244.02,143.20L245.45,143.13z"/><path style="fill:#ffffff" d="M123.19,110.11L124.02,111.49L124.02,112.71L123.46,113.81L122.44,114.49L121.34,114.49L120.41,114.00L119.85,113.44L119.36,112.51L119.36,111.41L120.06,110.14L121.79,109.55z"/><path style="fill:#ffffff" d="M129.56,110.91L130.08,112.06L130.08,112.97L129.79,113.80L128.62,114.83L127.29,114.83L126.22,114.25L125.41,112.80L125.41,111.95L126.23,110.50L127.14,109.98L127.96,109.96L128.45,110.12z"/><path style="fill:#ffffff" d="M159.30,112.33L160.42,113.69L160.42,115.19L159.86,116.29L159.23,116.76L157.35,116.76L155.95,115.41L155.80,115.23L155.80,113.66L156.81,112.41L157.55,112.03L158.47,112.04z"/><path style="fill:#ffffff" d="M134.52,114.54L134.42,115.08L133.09,115.10L132.54,114.82L131.99,114.27L131.47,113.07L131.48,112.22L131.64,112.01L132.27,112.02z"/><path style="fill:#ffffff" d="M165.65,112.87L166.48,114.24L166.40,115.94L165.19,117.26L163.53,117.25L162.63,116.72L161.87,115.50L161.87,114.21L162.62,112.98L163.53,112.46L164.91,112.46z"/><path style="fill:#ffffff" d="M154.36,113.67L154.35,114.92L153.55,116.05L152.20,116.58L151.39,116.37L151.33,115.55L153.69,113.40L154.07,113.38z"/><path style="fill:#ffffff" d="M119.87,115.36L120.71,116.45L120.71,117.95L120.15,119.05L119.13,119.73L118.03,119.73L116.59,118.64L116.09,117.99L116.09,116.42L117.29,115.08L117.84,114.79L118.77,114.79z"/><path style="fill:#ffffff" d="M125.94,115.62L126.77,117.00L126.77,118.50L126.11,119.49L125.02,120.08L124.28,120.08L122.92,119.48L122.16,118.26L122.16,116.97L122.91,115.74L123.82,115.22L124.94,115.20z"/><path style="fill:#ffffff" d="M131.72,115.91L132.84,117.28L132.84,119.05L132.56,119.60L131.65,120.35L129.77,120.35L128.70,119.48L128.23,118.53L128.22,117.24L129.42,115.91L129.97,115.62L130.89,115.63z"/><path style="fill:#ffffff" d="M138.36,117.00L138.91,117.83L138.91,119.33L138.11,120.46L136.76,120.99L135.97,120.83L135.05,120.31L134.29,119.09L134.29,117.79L135.21,116.46L135.96,116.05L136.77,116.04z"/><path style="fill:#ffffff" d="M150.21,117.28L151.04,118.38L150.96,120.35L149.75,121.67L148.08,121.67L146.87,120.62L146.43,119.63L146.42,118.62L147.09,117.59L148.70,116.92L149.45,116.87z"/><g id="Actor_.0"><g style="stroke:#000000;stroke-width:0.176"><path d="M40.11,113.77 L39.99,113.55 L39.94,113.31 L39.98,113.06 L40.08,112.84 L40.26,112.68 L40.47,112.58 L40.71,112.56 L40.84,112.59 L40.95,112.62 L41.15,112.75 L41.30,112.95 L41.39,113.18 L41.39,113.43 L41.32,113.67 L41.18,113.86 L40.98,114.00 L40.75,114.06 L40.51,114.04 L40.29,113.94 L40.11,113.77 "/><path d="M40.35,113.24 L40.35,113.22 L40.39,113.10 L40.46,113.00 L40.57,112.93 L40.58,112.92 L40.57,112.92 L40.45,112.98 L40.36,113.06 L40.31,113.18 L40.29,113.31 L40.31,113.44 L40.37,113.55 L40.47,113.64 L40.58,113.69 L40.71,113.70 L40.82,113.67 L40.71,113.68 L40.58,113.65 L40.48,113.58 L40.42,113.52 L40.46,113.56 L40.56,113.63 L40.67,113.65 L40.78,113.65 L40.88,113.60 L40.97,113.52 L41.02,113.42 L41.03,113.30 L41.01,113.19 L40.96,113.08 L40.87,113.00 L40.77,112.96 L40.65,112.95 L40.54,112.98 L40.45,113.04 L40.38,113.13 L40.35,113.24 L40.35,113.36 L40.39,113.47 L40.42,113.52 "/><path d="M40.82,113.67 L40.94,113.60 L41.01,113.50 L41.05,113.37 L41.05,113.24 L41.00,113.12 L40.92,113.02 L40.82,112.95 L40.69,112.91 L40.58,112.92 "/><path d="M41.66,112.51 L41.80,112.70 L41.93,113.07 L41.94,113.37 "/></g><g style="stroke:#000000;stroke-width:0.529"><path d="M41.66,112.51 L41.56,112.38 L41.23,112.17 L40.86,112.07 L40.47,112.10 L40.13,112.26 L39.85,112.53 L39.67,112.88 L39.62,113.27 L39.69,113.66 L39.88,114.01 L40.17,114.28 L40.53,114.44 L40.91,114.47 L41.28,114.37 L41.59,114.16 L41.82,113.84 L41.94,113.47 L41.94,113.37 "/></g></g><g id="Actor_.1"><g style="stroke:#000000;stroke-width:0.176"><path d="M135.53,108.09 C135.92,108.74 135.92,108.74 136.33,109.38 C136.82,109.95 136.82,109.95 137.33,110.51 C137.91,110.99 137.91,110.99 138.51,111.45 C139.15,111.82 139.16,111.82 139.81,112.17 C140.51,112.43 140.51,112.43 141.22,112.66 C141.94,112.78 141.95,112.78 142.67,112.88 C143.41,112.88 143.41,112.88 144.14,112.85 C144.86,112.72 144.86,112.72 145.58,112.56 C146.26,112.30 146.26,112.30 146.93,112.01 C147.56,111.64 147.56,111.63 148.18,111.24 C148.73,110.75 148.73,110.75 149.27,110.24 C149.73,109.67 149.73,109.66 150.17,109.07 C150.36,108.66 150.36,108.66 150.53,108.24 C150.59,107.79 150.60,107.78 150.63,107.33 "/><path d="M143.90,106.77 C145.25,106.97 145.26,106.97 146.61,107.20 C147.86,107.52 147.86,107.53 149.11,107.87 C149.26,107.95 149.26,107.95 149.40,108.04 C149.46,108.09 149.46,108.10 149.52,108.16 "/><path d="M149.70,108.99 C149.34,109.46 149.34,109.46 148.97,109.91 C148.46,110.39 148.46,110.39 147.94,110.85 C147.36,111.23 147.35,111.23 146.76,111.59 C146.12,111.86 146.12,111.86 145.47,112.11 C144.80,112.26 144.79,112.26 144.11,112.38 C143.42,112.41 143.42,112.41 142.72,112.41 C142.03,112.32 142.03,112.32 141.34,112.20 C140.68,111.98 140.67,111.98 140.01,111.74 C139.39,111.41 139.39,111.41 138.77,111.06 C138.21,110.62 138.21,110.62 137.66,110.16 C137.18,109.64 137.18,109.63 136.71,109.09 C136.33,108.49 136.32,108.48 135.96,107.87 "/><path d="M139.30,98.35 C138.99,98.46 138.99,98.46 138.69,98.59 C138.43,98.80 138.42,98.80 138.18,99.02 C137.98,99.31 137.98,99.31 137.80,99.61 C137.71,99.92 137.71,99.92 137.64,100.24 "/><path d="M137.64,100.24 C137.38,102.54 137.38,102.54 137.14,104.85 C137.16,105.23 137.16,105.23 137.19,105.62 C137.29,105.91 137.29,105.91 137.41,106.20 C137.55,106.43 137.55,106.43 137.71,106.65 "/><path d="M142.03,106.64 C142.08,105.79 142.08,105.79 142.10,104.94 C142.07,104.30 142.08,104.30 142.02,103.65 C141.72,102.36 141.68,102.36 141.38,101.07 C141.40,100.40 141.41,100.39 141.46,99.72 C141.64,99.13 141.64,99.12 141.86,98.55 "/><path d="M144.53,98.33 C143.95,98.26 143.94,98.26 143.36,98.20 C142.40,98.17 142.40,98.17 141.44,98.16 C140.43,98.23 140.43,98.23 139.43,98.33 "/><path d="M143.51,108.56 C144.55,108.71 144.55,108.71 145.60,108.87 C146.23,109.00 146.23,109.03 146.86,109.14 C148.17,109.06 148.18,109.06 149.50,108.92 "/><path d="M149.50,108.92 C149.15,109.37 149.15,109.38 148.78,109.82 C148.29,110.29 148.28,110.29 147.77,110.74 C147.20,111.11 147.20,111.11 146.62,111.46 C145.99,111.73 145.99,111.72 145.36,111.97 C145.11,112.03 145.11,112.02 144.86,112.07 C144.44,112.16 144.44,112.17 144.02,112.24 C143.34,112.27 143.34,112.27 142.66,112.27 C141.98,112.18 141.98,112.18 141.31,112.06 C140.90,111.93 140.90,111.92 140.49,111.78 C140.25,111.70 140.25,111.70 140.00,111.61 C139.39,111.28 139.39,111.29 138.79,110.94 C138.24,110.51 138.24,110.51 137.70,110.07 C137.23,109.55 137.23,109.55 136.77,109.02 C136.44,108.53 136.44,108.52 136.13,108.02 "/><path d="M138.42,108.58 C138.86,108.98 138.86,108.99 139.31,109.37 C140.08,109.80 140.08,109.81 140.86,110.20 C141.71,110.41 141.72,110.41 142.57,110.57 C143.43,110.53 143.44,110.52 144.30,110.43 C145.11,110.15 145.11,110.13 145.91,109.81 C146.39,109.49 146.38,109.47 146.86,109.14 C147.98,108.50 147.98,108.50 149.11,107.87 "/><path d="M137.68,104.68 C137.68,105.02 137.68,105.03 137.70,105.37 C137.81,105.70 137.81,105.71 137.93,106.03 C138.12,106.31 138.13,106.31 138.34,106.58 "/><path d="M147.67,97.78 C146.24,97.36 146.23,97.36 144.79,97.00 C143.33,96.88 143.32,96.88 141.85,96.81 C140.39,96.98 140.38,96.98 138.93,97.21 "/><path d="M144.56,98.73 C144.73,99.33 144.73,99.34 144.86,99.94 C144.86,100.62 144.87,100.63 144.83,101.30 C144.44,102.55 144.39,102.54 143.99,103.78 C143.88,104.42 143.88,104.42 143.81,105.06 "/><path d="M141.83,98.37 C141.59,99.01 141.58,99.01 141.37,99.66 C141.32,100.36 141.31,100.36 141.30,101.06 C141.43,101.75 141.43,101.75 141.61,102.43 "/><path d="M144.67,102.63 C144.55,102.61 144.54,102.61 144.42,102.58 C144.05,102.43 144.05,102.43 143.68,102.27 C143.30,102.10 143.30,102.10 142.92,101.91 "/><path d="M144.67,102.63 C144.90,101.98 144.90,101.97 145.09,101.30 C145.13,100.60 145.13,100.60 145.12,99.90 C144.97,99.21 144.96,99.21 144.77,98.53 "/><path d="M145.14,102.48 C145.37,101.83 145.37,101.82 145.56,101.15 C145.60,100.45 145.60,100.45 145.60,99.75 C145.44,99.08 145.44,99.07 145.25,98.42 "/><path d="M146.50,114.89 C147.38,114.56 147.38,114.56 148.24,114.20 C149.05,113.71 149.05,113.71 149.84,113.19 C150.55,112.57 150.55,112.57 151.24,111.92 C151.83,111.18 151.84,111.18 152.40,110.41 C152.75,109.66 152.76,109.66 153.06,108.89 C153.18,108.06 153.18,108.05 153.25,107.21 "/><path d="M150.63,107.33 C150.49,105.52 150.49,105.52 150.31,103.72 C150.00,101.93 150.00,101.92 149.66,100.14 C149.48,99.64 149.48,99.63 149.26,99.14 "/><path d="M147.36,98.89 C147.65,99.04 147.65,99.04 147.94,99.21 C148.18,99.45 148.18,99.45 148.41,99.71 C148.58,100.02 148.58,100.02 148.73,100.34 "/><path d="M152.40,110.41 C151.84,110.10 151.84,110.10 151.28,109.79 C150.72,109.43 150.72,109.43 150.17,109.07 C150.00,108.94 150.00,108.94 149.83,108.80 "/><path d="M149.83,108.80 C149.86,108.68 149.86,108.68 149.89,108.56 C149.90,108.44 149.90,108.44 149.89,108.31 C149.86,108.20 149.86,108.19 149.83,108.08 C149.77,107.99 149.77,107.99 149.71,107.90 "/><path d="M133.60,109.16 L135.53,108.09 "/><path d="M150.63,107.33 L149.00,107.33 L148.99,107.53 L148.35,107.36 L148.69,106.95 L148.95,106.40 L149.00,107.33 "/><path d="M141.80,108.45 L143.51,108.56 L142.64,107.49 L142.03,106.64 L139.14,106.70 L136.60,107.03 L137.34,107.71 L138.42,108.58 L139.70,108.47 L141.80,108.45 L143.74,106.75 L143.90,106.77 "/><path d="M149.52,108.16 L149.62,108.45 L149.61,108.61 L149.50,108.92 L149.70,108.99 "/><path d="M135.96,107.87 L135.53,108.09 L135.23,107.22 L135.21,106.30 L133.01,105.86 "/><path d="M134.65,98.38 L135.60,98.83 L136.75,99.28 L137.23,98.34 L137.98,97.62 L138.93,97.21 L139.30,98.35 "/><path d="M137.71,106.65 L137.06,106.75 L137.07,106.53 L135.21,106.30 L135.82,102.75 L136.75,99.28 L137.80,99.61 "/><path d="M135.96,107.87 L135.92,107.51 L136.05,107.15 L136.21,107.00 L136.51,106.86 L136.32,106.92 "/><path d="M136.06,108.08 L136.13,108.02 L136.06,107.82 L135.99,107.94 "/><path d="M136.06,107.82 L136.04,107.54 L136.09,107.39 L136.28,107.17 L136.60,107.03 L136.66,106.83 L139.22,106.50 L141.93,106.43 L142.03,106.64 "/><path d="M141.86,98.55 L141.83,98.37 L142.33,98.18 L144.53,98.33 "/><path d="M139.43,98.33 L138.82,98.76 L138.41,99.35 L138.21,100.05 L137.64,100.24 "/><path d="M136.13,108.02 L138.42,108.58 "/><path d="M149.11,107.87 L149.25,107.67 L149.41,107.72 L148.99,107.55 "/><path d="M137.06,106.75 L136.53,106.85 "/><path d="M136.38,107.12 L136.44,106.91 L136.66,106.83 "/><path d="M137.07,106.53 L137.19,105.62 "/><path d="M137.14,104.85 L137.68,104.68 "/><path d="M138.34,106.58 L137.71,106.65 "/><path d="M138.34,106.58 L139.22,106.50 L141.95,106.40 L141.95,106.43 "/><path d="M137.68,104.68 L138.21,100.05 "/><path d="M148.95,106.40 L149.03,105.56 L148.84,100.99 L148.73,100.34 L152.21,99.56 L151.50,97.79 L150.27,96.35 L148.66,95.39 L148.13,96.56 L147.67,97.78 "/><path d="M138.93,97.21 L138.66,95.92 L138.52,94.71 L138.78,94.68 "/><path d="M139.30,98.35 L139.43,98.33 "/><path d="M141.85,98.34 L144.77,98.53 L144.56,98.73 "/><path d="M143.81,105.06 L144.07,105.04 L144.01,106.57 L146.73,107.00 L144.11,106.53 L143.74,106.75 L143.81,105.06 L142.83,105.04 L142.01,104.92 L141.94,103.65 L141.61,102.43 L142.92,101.91 L142.73,107.60 "/><path d="M141.95,106.40 L142.01,104.92 "/><path d="M144.11,106.53 L144.48,106.42 L144.54,104.89 L144.07,105.04 L144.24,103.80 L144.67,102.63 "/><path d="M142.92,101.91 L142.93,100.44 L142.17,99.28 L141.86,98.55 L144.56,98.73 L143.21,100.26 L143.03,100.45 L142.93,100.44 "/><path d="M142.95,101.22 L143.03,100.45 "/><path d="M144.54,104.89 L144.72,103.65 L145.14,102.48 L144.67,102.63 "/><path d="M144.77,98.53 L145.16,98.40 L144.53,98.33 "/><path d="M145.25,98.42 L145.16,98.40 "/><path d="M153.25,107.21 L150.63,107.33 "/><path d="M149.26,99.14 L148.57,98.33 L147.66,97.79 L147.36,98.87 L145.25,98.42 "/><path d="M146.53,114.88 L146.57,114.87 "/><path d="M148.36,107.35 L146.73,107.00 L149.25,107.67 "/><path d="M148.70,95.38 L148.41,95.32 "/><path d="M149.44,107.71 L149.71,107.90 L149.41,107.72 L149.31,107.98 "/><path d="M149.58,108.73 L149.77,108.85 L149.70,108.99 "/><path d="M152.44,110.40 L152.40,110.41 "/><path d="M149.82,108.79 L149.78,108.86 "/><path d="M151.40,97.62 L150.68,96.77 "/><path d="M152.77,109.64 L153.10,108.89 L153.29,107.20 L153.25,107.21 L152.90,103.36 L152.21,99.56 L152.25,99.54 L151.57,97.86 "/><path d="M152.25,99.54 L152.33,99.99 "/><path d="M153.25,106.76 L153.28,107.10 "/><path d="M153.29,107.20 L153.28,107.12 "/></g><g style="stroke:#000000;stroke-width:0.529"><path d="M135.50,96.72 C135.05,97.53 135.05,97.54 134.65,98.38 C134.13,100.22 134.14,100.23 133.66,102.08 C133.32,103.96 133.31,103.97 133.01,105.86 C133.01,106.70 133.01,106.71 133.05,107.55 C133.30,108.36 133.31,108.36 133.60,109.16 C134.09,109.99 134.10,109.99 134.63,110.81 C135.26,111.55 135.26,111.55 135.92,112.26 C136.66,112.88 136.66,112.88 137.42,113.47 C138.25,113.95 138.25,113.95 139.10,114.40 C139.92,114.70 139.92,114.70 140.74,114.96 C141.75,115.15 141.76,115.16 142.77,115.31 C143.71,115.31 143.72,115.31 144.66,115.27 C145.60,115.09 145.60,115.09 146.54,114.88 C147.40,114.55 147.40,114.55 148.24,114.20 C149.07,113.70 149.07,113.70 149.88,113.18 C150.57,112.57 150.57,112.56 151.24,111.92 C151.85,111.17 151.85,111.17 152.44,110.40 C152.62,110.03 152.62,110.02 152.77,109.64 "/><path d="M138.74,94.68 L138.53,94.71 L136.84,95.45 L135.50,96.72 "/><path d="M148.52,95.33 L148.70,95.38 L150.31,96.34 L150.68,96.77 "/><path d="M151.57,97.86 L151.40,97.62 "/><path d="M153.25,106.76 L152.94,103.35 L152.33,99.99 "/><path d="M153.28,107.10 L153.28,107.12 "/></g></g><g id="Actor_.2"><g style="stroke:#000000;stroke-width:0.176"><path d="M243.81,131.34 L243.73,131.31 L243.56,131.13 L243.45,130.91 L243.41,130.67 L243.46,130.42 L243.57,130.21 L243.75,130.05 L243.81,130.03 L243.97,129.96 L244.21,129.95 L244.44,130.02 L244.64,130.16 L244.79,130.36 L244.86,130.60 L244.86,130.85 L244.78,131.08 L244.63,131.27 L244.43,131.40 L244.19,131.45 L243.95,131.42 L243.81,131.34 "/><path d="M243.82,130.68 L243.83,130.60 L243.87,130.47 L243.95,130.37 L244.05,130.31 L243.94,130.36 L243.84,130.44 L243.78,130.55 L243.76,130.68 L243.78,130.81 L243.84,130.93 L243.93,131.02 L244.04,131.07 L244.17,131.09 L244.29,131.06 L244.17,131.07 L244.04,131.03 L243.94,130.96 L243.93,130.94 L244.02,131.01 L244.13,131.04 L244.24,131.04 L244.35,130.99 L244.43,130.92 L244.49,130.82 L244.51,130.70 L244.49,130.59 L244.44,130.48 L244.35,130.40 L244.25,130.35 L244.14,130.33 L244.03,130.36 L243.93,130.42 L243.86,130.51 L243.82,130.62 L243.82,130.68 L243.82,130.73 L243.86,130.85 L243.93,130.94 "/><path d="M244.29,131.06 L244.40,131.00 L244.47,130.90 L244.52,130.77 L244.52,130.64 L244.48,130.52 L244.41,130.41 L244.30,130.34 L244.18,130.30 L244.05,130.31 "/><path d="M243.82,130.66 L243.82,130.66 "/><path d="M245.13,129.90 L245.29,130.12 L245.41,130.50 L245.41,130.76 "/></g><g style="stroke:#000000;stroke-width:0.529"><path d="M245.41,130.76 L245.41,130.90 L245.28,131.27 L245.04,131.57 L244.71,131.78 L244.34,131.86 L243.96,131.81 L243.61,131.64 L243.33,131.36 L243.15,131.01 L243.09,130.61 L243.16,130.22 L243.35,129.88 L243.63,129.63 L243.99,129.48 L244.37,129.46 L244.74,129.57 L245.06,129.80 L245.13,129.90 "/></g></g><g id="Actor_.3"><g style="stroke:#000000;stroke-width:0.176"><path d="M39.81,117.21 L39.79,116.97 L39.86,116.73 L40.00,116.53 L40.19,116.39 L40.42,116.32 L40.66,116.33 L40.88,116.42 L41.00,116.53 L41.07,116.58 L41.19,116.80 L41.25,117.04 L41.22,117.28 L41.12,117.51 L40.95,117.68 L40.74,117.79 L40.50,117.82 L40.33,117.78 L40.26,117.76 L40.06,117.64 L39.90,117.44 L39.81,117.21 "/><path d="M40.20,117.07 L40.21,116.93 L40.26,116.81 L40.35,116.72 L40.43,116.68 L40.35,116.71 L40.24,116.78 L40.17,116.89 L40.14,117.01 L40.15,117.14 L40.19,117.26 L40.28,117.36 L40.39,117.43 L40.51,117.46 L40.63,117.44 L40.67,117.43 L40.63,117.44 L40.51,117.43 L40.39,117.38 L40.28,117.29 L40.37,117.36 L40.47,117.40 L40.59,117.41 L40.69,117.38 L40.79,117.31 L40.85,117.22 L40.88,117.10 L40.87,116.99 L40.83,116.88 L40.76,116.79 L40.66,116.73 L40.55,116.70 L40.44,116.72 L40.33,116.77 L40.26,116.85 L40.21,116.95 L40.20,117.07 L40.22,117.18 L40.25,117.24 L40.28,117.29 "/><path d="M40.67,117.43 L40.75,117.39 L40.83,117.30 L40.89,117.18 L40.90,117.05 L40.87,116.92 L40.81,116.81 L40.71,116.73 L40.59,116.68 L40.47,116.67 L40.43,116.68 "/><path d="M40.20,117.06 L40.20,117.06 "/><path d="M41.53,116.29 L41.71,116.60 L41.80,116.99 L41.78,117.14 "/></g><g style="stroke:#000000;stroke-width:0.529"><path d="M41.53,116.29 L41.51,116.26 L41.22,116.00 L40.86,115.85 L40.47,115.83 L40.11,115.94 L39.80,116.17 L39.58,116.49 L39.47,116.87 L39.50,117.27 L39.64,117.64 L39.89,117.94 L40.23,118.15 L40.60,118.23 L40.98,118.18 L41.33,118.01 L41.59,117.73 L41.76,117.38 L41.78,117.14 "/></g></g><g id="Actor_.4"><g style="stroke:#000000;stroke-width:0.176"><path d="M30.69,83.03 L28.98,127.15 L30.84,126.71 "/><path d="M30.54,126.65 L32.19,85.65 L32.94,85.75 L31.29,126.67 L252.67,141.57 L253.00,142.57 L31.46,127.74 "/><path d="M31.78,85.32 L30.76,83.08 L31.34,83.33 L32.25,85.32 L31.78,85.32 L32.71,85.67 "/><path d="M30.73,82.98 L31.22,83.07 "/><path d="M32.02,85.60 L32.66,85.67 "/><path d="M31.21,83.02 L32.42,82.24 "/><path d="M32.29,82.25 L31.81,82.22 "/><path d="M35.62,87.68 L34.85,87.06 L34.67,85.87 L32.95,85.70 "/><path d="M32.49,85.61 L32.25,85.32 "/><path d="M35.53,87.66 L248.48,101.99 L249.71,101.45 L250.11,100.03 L33.07,85.45 "/><path d="M33.27,84.96 L33.17,85.34 "/><path d="M33.45,84.75 L33.41,85.24 L34.64,85.14 L34.57,84.63 L34.42,85.06 "/><path d="M34.69,85.61 L34.67,85.87 "/><path d="M34.70,85.18 L34.70,85.33 "/><path d="M36.14,128.51 L36.14,128.47 "/><path d="M248.48,101.99 L36.10,87.81 "/><path d="M35.65,87.70 L35.98,87.78 "/><path d="M39.87,128.96 L38.37,128.86 "/><path d="M41.96,129.10 L243.49,142.59 "/><path d="M114.28,119.80 L112.85,121.11 L112.81,123.33 L114.00,124.63 L115.76,124.84 "/><path d="M117.11,125.43 L115.75,126.52 L115.45,127.32 L115.61,128.89 L116.82,130.26 L118.58,130.47 "/><path d="M118.99,119.63 L117.47,119.48 L116.09,118.17 L115.85,117.33 L116.19,115.67 L117.54,114.58 "/><path d="M120.36,120.21 L119.01,121.30 L118.70,122.10 L118.91,123.80 L120.08,125.04 L121.83,125.25 "/><path d="M120.79,109.35 L119.44,110.44 L119.10,112.11 L119.34,112.95 L120.51,114.19 L122.27,114.40 "/><path d="M123.18,125.84 L121.83,126.93 L121.48,128.60 L121.73,129.43 L122.90,130.67 L124.65,130.88 "/><path d="M123.62,114.98 L122.26,116.07 L121.92,117.74 L122.65,119.30 L123.34,119.82 L125.07,120.03 "/><path d="M127.90,125.66 L126.15,125.45 L124.98,124.21 L124.74,123.37 L125.08,121.70 L126.44,120.61 "/><path d="M126.87,109.76 L125.52,110.85 L125.19,112.22 L125.42,113.35 L126.59,114.59 L128.32,114.81 "/><path d="M129.25,126.24 L127.90,127.34 L127.59,128.14 L127.80,129.84 L128.97,131.08 L130.72,131.29 "/><path d="M131.14,120.44 L129.41,120.22 L128.24,118.98 L128.00,118.15 L128.27,116.67 L129.69,115.39 "/><path d="M133.98,126.06 L132.23,125.85 L131.06,124.62 L130.82,123.78 L131.11,122.22 L132.51,121.02 "/><path d="M131.40,112.13 L131.26,112.96 L131.89,114.38 L132.99,115.12 L134.21,115.22 "/><path d="M131.27,112.17 L131.80,111.59 "/><path d="M137.64,120.72 L135.91,120.81 L134.75,120.00 L134.15,118.95 L134.26,117.19 L135.54,115.89 "/><path d="M138.58,121.43 L137.23,122.52 L136.89,124.19 L137.13,125.02 L138.30,126.26 L140.05,126.47 "/><path d="M140.72,117.49 L140.19,118.03 L140.14,118.86 L140.74,120.35 L142.17,121.27 L143.77,121.10 "/><path d="M140.19,118.03 L140.33,117.98 "/><path d="M146.12,126.88 L144.37,126.67 L143.29,125.56 L142.96,124.59 L143.30,122.92 L144.66,121.83 "/><path d="M147.19,117.21 L146.30,118.32 L146.39,120.00 L147.39,121.27 L149.35,121.66 "/><path d="M147.06,117.25 L148.91,116.57 "/><path d="M146.67,117.52 L146.80,117.48 "/><path d="M152.20,127.28 L150.45,127.07 L149.28,125.84 L149.04,125.00 L149.38,123.33 L150.72,122.24 "/><path d="M151.77,116.43 L153.13,116.27 "/><path d="M151.64,116.48 L151.02,115.78 L151.43,115.08 "/><path d="M151.30,115.12 L153.41,113.22 "/><path d="M155.02,132.91 L153.27,132.70 L152.10,131.47 L151.86,130.63 L152.20,128.96 L153.55,127.87 "/><path d="M153.99,117.02 L152.63,118.11 L152.29,119.77 L152.53,120.61 L153.71,121.85 L155.46,122.06 "/><path d="M153.27,113.27 L153.69,113.03 "/><path d="M156.81,122.65 L155.45,123.74 L155.11,125.40 L155.35,126.24 L156.52,127.48 L158.27,127.69 "/><path d="M157.24,111.79 L155.89,112.88 L155.58,113.68 L155.79,115.39 L156.96,116.63 L158.69,116.84 "/><path d="M159.63,128.28 L158.27,129.37 L157.93,131.03 L158.17,131.87 L159.34,133.11 L161.09,133.32 "/><path d="M160.06,117.42 L158.71,118.51 L158.47,120.55 L159.78,122.26 L161.51,122.47 "/><path d="M164.35,128.10 L162.60,127.89 L161.44,126.67 L161.19,125.81 L161.53,124.14 L162.88,123.05 "/><path d="M164.77,117.25 L163.03,117.03 L161.86,115.79 L161.62,114.96 L161.95,113.33 L163.32,112.20 "/><path d="M165.70,128.68 L164.34,129.78 L164.04,130.58 L164.23,132.22 L165.41,133.52 L167.17,133.73 "/><path d="M167.59,122.88 L165.85,122.66 L164.68,121.42 L164.44,120.59 L164.78,118.92 L166.13,117.83 "/><path d="M170.42,128.50 L168.67,128.29 L167.50,127.06 L167.29,125.56 L167.60,124.55 L168.95,123.46 "/><path d="M247.77,142.66 L248.11,142.90 L248.15,142.59 L248.19,142.92 L245.59,142.73 "/><path d="M248.20,142.59 L248.76,142.73 "/><path d="M247.77,142.61 L248.15,142.59 "/><path d="M248.77,142.63 L248.81,142.63 "/><path d="M248.61,102.03 L249.84,101.49 L250.07,100.58 "/><path d="M252.94,141.59 L254.47,100.58 L250.23,100.15 L250.23,99.61 L250.85,99.08 L251.05,99.56 L253.78,99.99 L250.46,99.77 L251.05,99.56 "/><path d="M250.22,100.30 L250.19,100.63 "/><path d="M250.39,99.77 L250.24,100.07 "/><path d="M253.66,142.52 L253.61,143.01 L253.00,142.57 L253.05,142.08 "/><path d="M253.61,143.01 L253.65,143.09 "/><path d="M253.72,141.60 L255.47,100.60 L254.47,100.58 L253.83,99.50 "/><path d="M253.82,141.60 L257.10,142.39 L257.31,141.11 L259.03,98.35 L256.15,100.52 L255.15,100.57 "/><path d="M254.47,100.58 L254.59,100.55 "/><path d="M255.53,100.53 L255.84,100.59 "/><path d="M256.44,100.36 L256.12,100.31 "/><path d="M259.99,97.49 L260.43,97.52 L259.39,98.29 L257.62,142.39 "/><path d="M258.91,98.26 L259.32,98.31 L258.71,98.30 "/><path d="M259.39,98.29 L259.32,98.31 "/><path d="M260.47,97.53 L260.60,97.51 "/></g><g style="stroke:#000000;stroke-width:0.529"><path d="M258.53,141.75 C259.05,139.23 259.05,139.21 259.45,136.67 C260.25,118.34 260.21,118.33 260.93,100.00 C260.88,98.97 260.88,98.97 260.80,97.94 "/><path d="M245.58,142.74 L249.11,142.66 L253.31,143.18 L253.71,142.60 L253.05,142.08 L253.17,141.60 L257.26,142.43 L258.53,141.75 "/><path d="M260.80,97.94 L260.43,97.50 L255.83,100.47 L254.61,100.54 L254.10,99.61 L251.09,99.07 L34.46,84.57 L33.45,84.75 L32.71,85.67 L32.62,82.66 L31.81,82.22 L30.68,83.33 L28.91,127.11 L31.28,126.75 L31.46,127.74 L32.57,128.35 L37.30,128.47 L39.88,128.97 "/><path d="M41.95,129.11 L243.50,142.60 "/><path d="M112.96,123.35 L112.76,121.65 L113.06,120.85 L114.28,119.80 L115.85,119.79 L117.34,121.11 L117.50,123.31 L116.36,124.61 L114.94,124.86 L114.15,124.59 L112.96,123.35 "/><path d="M116.27,129.70 L115.54,128.15 L115.58,127.28 L116.36,125.91 L117.84,125.29 L119.43,125.82 L120.02,126.44 L120.49,128.10 L119.89,129.67 L119.25,130.22 L117.97,130.49 L116.27,129.70 "/><path d="M116.22,118.13 L116.02,116.43 L116.86,114.98 L118.23,114.44 L119.11,114.56 L120.43,115.56 L120.82,117.78 L119.69,119.36 L118.20,119.63 L117.47,119.39 L116.22,118.13 "/><path d="M119.69,124.60 L118.80,122.92 L119.14,121.26 L120.36,120.21 L121.09,120.07 L122.68,120.59 L123.65,122.01 L123.58,123.72 L123.15,124.45 L122.50,125.00 L121.01,125.26 L119.69,124.60 "/><path d="M119.69,113.22 L119.27,111.20 L120.12,109.75 L121.53,109.21 L122.36,109.34 L123.71,110.37 L124.18,112.02 L124.01,112.86 L123.01,114.08 L121.45,114.41 L119.69,113.22 "/><path d="M121.86,129.39 L121.65,127.78 L122.50,126.24 L123.91,125.70 L124.74,125.82 L126.09,126.85 L126.57,128.50 L126.39,129.35 L125.32,130.63 L123.83,130.90 L123.03,130.63 L121.86,129.39 "/><path d="M123.01,119.43 L122.08,117.78 L122.40,116.03 L124.12,114.89 L125.94,115.37 L126.53,116.00 L126.98,117.46 L126.40,119.23 L125.76,119.77 L124.48,120.04 L123.01,119.43 "/><path d="M124.87,123.33 L125.60,124.88 L127.09,125.67 L128.55,125.41 L129.22,124.86 L129.81,123.33 L129.35,121.63 L128.55,120.89 L127.17,120.47 L125.76,121.01 L125.21,121.66 L124.87,123.33 "/><path d="M126.34,114.26 L125.31,112.47 L125.65,110.81 L126.19,110.16 L127.44,109.65 L129.19,110.14 L130.23,112.22 L129.66,114.00 L127.74,114.81 L126.34,114.26 "/><path d="M128.42,130.51 L127.69,128.96 L128.03,127.29 L129.25,126.24 L129.98,126.10 L131.57,126.63 L132.54,128.04 L132.47,129.75 L132.04,130.49 L131.40,131.03 L130.12,131.30 L128.42,130.51 "/><path d="M128.55,119.21 L128.16,117.24 L129.01,115.79 L130.42,115.25 L131.26,115.38 L132.60,116.40 L132.97,117.19 L132.91,118.90 L131.83,120.18 L130.34,120.45 L128.55,119.21 "/><path d="M131.19,124.57 L132.36,125.81 L133.37,126.07 L134.65,125.81 L135.72,124.53 L135.79,122.82 L134.83,121.41 L133.45,120.91 L132.51,121.02 L131.29,122.07 L130.98,122.87 L131.19,124.57 "/><path d="M131.88,114.11 L131.40,112.22 L131.63,111.70 L132.18,111.59 L134.54,114.19 L134.54,114.92 L133.32,115.16 L131.88,114.11 "/><path d="M135.20,120.30 L134.28,118.90 L134.19,118.01 L134.86,116.41 L136.24,115.67 L138.64,116.80 L139.13,118.73 L138.33,120.27 L136.90,120.88 L135.20,120.30 "/><path d="M137.11,124.44 L138.43,126.22 L140.05,126.47 L141.37,125.67 L141.80,124.94 L141.88,123.33 L140.91,121.81 L140.15,121.41 L138.58,121.43 L137.42,122.41 L137.11,124.44 "/><path d="M140.68,120.00 L140.31,118.31 L140.81,117.47 L144.42,117.71 L145.18,118.28 L144.92,120.00 L143.78,121.10 L142.30,121.22 L140.68,120.00 "/><path d="M143.82,126.10 L145.52,126.89 L147.39,126.12 L148.04,124.50 L147.94,123.63 L146.98,122.22 L145.18,121.73 L143.43,122.88 L143.10,124.44 L143.82,126.10 "/><path d="M147.39,121.12 L146.34,119.16 L146.80,117.48 L148.91,116.57 L150.12,116.91 L150.89,117.78 L151.30,119.21 L150.71,120.84 L149.35,121.66 L147.39,121.12 "/><path d="M149.41,125.79 L150.58,127.03 L151.38,127.30 L152.87,127.03 L153.95,125.75 L154.12,124.90 L153.68,123.33 L152.30,122.23 L151.46,122.10 L150.11,122.61 L149.20,124.09 L149.41,125.79 "/><path d="M151.77,116.43 L152.93,116.33 L154.22,115.24 L154.55,113.73 L154.16,113.11 L153.59,113.07 L151.27,115.26 L151.21,115.98 L151.77,116.43 "/><path d="M152.82,132.22 L151.99,130.59 L152.33,128.92 L152.87,128.27 L154.28,127.73 L155.87,128.26 L156.47,128.89 L156.94,130.53 L156.34,132.11 L155.69,132.66 L154.20,132.93 L152.82,132.22 "/><path d="M152.50,120.00 L153.15,121.29 L153.84,121.81 L155.46,122.06 L156.77,121.26 L157.20,120.52 L157.28,118.89 L156.31,117.40 L155.56,117.00 L154.04,117.01 L152.77,118.07 L152.50,120.00 "/><path d="M155.80,126.67 L157.37,127.67 L158.95,127.44 L160.02,126.16 L160.09,124.45 L159.72,123.66 L159.13,123.03 L157.75,122.54 L156.26,122.97 L155.30,124.44 L155.24,125.36 L155.80,126.67 "/><path d="M156.06,115.56 L155.72,113.64 L156.54,112.22 L157.24,111.79 L158.81,111.78 L160.16,112.80 L160.53,113.59 L160.46,115.30 L159.39,116.58 L157.34,116.67 L156.06,115.56 "/><path d="M158.47,132.08 L158.10,130.13 L158.94,128.68 L160.36,128.14 L161.19,128.26 L162.54,129.29 L163.01,130.94 L162.84,131.79 L161.80,133.04 L161.09,133.32 L159.58,133.10 L158.47,132.08 "/><path d="M159.58,121.96 L158.50,120.14 L158.84,118.47 L160.06,117.42 L161.63,117.41 L162.33,117.78 L163.34,119.22 L163.28,120.93 L162.91,121.56 L161.53,122.47 L159.58,121.96 "/><path d="M161.56,126.61 L161.35,124.90 L161.66,124.10 L162.88,123.05 L165.00,123.33 L166.16,124.85 L166.09,126.56 L165.66,127.30 L164.35,128.10 L162.64,127.78 L161.56,126.61 "/><path d="M161.76,114.91 L162.06,113.33 L162.64,112.60 L164.01,112.06 L165.64,112.58 L166.23,113.21 L166.70,114.86 L166.10,116.44 L165.46,116.99 L164.18,117.25 L162.48,116.47 L161.76,114.91 "/><path d="M164.86,132.95 L164.14,131.40 L164.48,129.73 L165.02,129.08 L166.23,128.58 L168.02,129.07 L168.98,130.48 L168.91,132.19 L168.48,132.93 L166.56,133.74 L164.86,132.95 "/><path d="M164.73,121.11 L165.98,122.62 L167.61,122.87 L168.74,122.22 L169.35,121.34 L169.42,119.63 L168.45,118.21 L167.70,117.81 L166.13,117.83 L164.91,118.89 L164.73,121.11 "/><path d="M168.18,127.78 L167.39,126.18 L167.73,124.51 L168.45,123.76 L169.56,123.34 L171.28,123.84 L172.24,125.26 L172.34,126.12 L171.77,127.65 L170.43,128.50 L169.61,128.52 L168.18,127.78 "/></g></g><g id="Actor_.5"><g style="stroke:#000000;stroke-width:0.176"><path d="M42.59,84.66 C42.43,84.64 42.43,84.64 42.27,84.62 C42.09,84.60 42.09,84.60 41.90,84.58 C41.70,84.56 41.70,84.56 41.50,84.54 C41.31,84.53 41.31,84.53 41.13,84.52 C40.97,84.51 40.97,84.51 40.81,84.51 "/><path d="M42.88,84.73 L42.80,84.70 L42.59,84.66 "/><path d="M40.81,84.51 L40.59,84.51 L40.50,84.53 "/></g><g style="stroke:#000000;stroke-width:0.529"><path d="M42.89,84.73 C42.85,84.64 42.85,84.64 42.81,84.54 C42.74,84.46 42.74,84.46 42.67,84.38 C42.58,84.32 42.58,84.32 42.48,84.27 "/><path d="M42.11,84.19 C41.99,84.18 41.99,84.18 41.86,84.16 C41.74,84.15 41.74,84.15 41.61,84.14 C41.49,84.14 41.49,84.14 41.38,84.13 C41.28,84.13 41.28,84.13 41.18,84.12 "/><path d="M40.98,84.14 C40.88,84.18 40.88,84.18 40.78,84.22 C40.70,84.28 40.70,84.28 40.62,84.35 C40.55,84.44 40.55,84.44 40.50,84.53 "/><path d="M42.48,84.27 L42.42,84.24 L42.29,84.22 L42.11,84.19 "/><path d="M41.18,84.12 L41.04,84.13 L40.98,84.14 "/><path d="M40.50,84.53 L40.50,84.55 "/></g></g><g id="Actor_.6"><g style="stroke:#000000;stroke-width:0.176"><path d="M243.98,142.71 C244.09,142.71 244.09,142.71 244.19,142.71 C244.31,142.72 244.31,142.72 244.43,142.73 C244.56,142.74 244.56,142.74 244.68,142.76 C244.79,142.77 244.79,142.77 244.90,142.80 C244.99,142.82 244.99,142.82 245.08,142.84 "/><path d="M245.49,142.41 C245.35,142.37 245.35,142.37 245.20,142.33 C245.03,142.30 245.03,142.30 244.85,142.27 C244.65,142.25 244.65,142.25 244.46,142.22 C244.26,142.21 244.26,142.21 244.07,142.19 C243.90,142.19 243.90,142.19 243.73,142.19 C243.61,142.20 243.61,142.20 243.48,142.21 "/><path d="M244.31,142.88 C244.38,142.89 244.38,142.89 244.44,142.90 C244.50,142.91 244.50,142.91 244.57,142.92 C244.63,142.92 244.63,142.92 244.69,142.92 C244.74,142.92 244.74,142.92 244.79,142.92 "/><path d="M244.80,142.84 C244.75,142.83 244.75,142.83 244.70,142.82 C244.64,142.81 244.64,142.81 244.58,142.80 C244.52,142.79 244.52,142.79 244.46,142.78 C244.39,142.78 244.39,142.78 244.33,142.77 C244.27,142.77 244.27,142.77 244.22,142.77 C244.18,142.78 244.18,142.78 244.14,142.78 "/><path d="M244.20,142.77 C244.27,142.79 244.27,142.79 244.34,142.81 C244.42,142.82 244.42,142.82 244.51,142.83 C244.57,142.83 244.57,142.83 244.62,142.84 C244.67,142.84 244.67,142.84 244.72,142.84 "/><path d="M244.09,142.11 C244.28,142.12 244.28,142.12 244.46,142.14 C244.66,142.16 244.66,142.16 244.85,142.18 C244.99,142.21 244.99,142.21 245.14,142.24 "/><path d="M243.74,142.78 L243.74,142.75 L243.83,142.72 L243.98,142.71 "/><path d="M245.08,142.84 L245.20,142.89 L245.23,142.93 L245.19,142.96 "/><path d="M245.73,142.55 L245.67,142.48 L245.49,142.41 "/><path d="M243.48,142.21 L243.35,142.26 "/><path d="M243.42,142.16 L243.41,142.16 "/><path d="M244.79,142.92 L244.85,142.91 L244.87,142.89 L244.85,142.87 L244.80,142.84 "/><path d="M244.14,142.78 L244.09,142.79 L244.09,142.81 L244.13,142.84 L244.21,142.86 L244.31,142.88 "/><path d="M244.72,142.84 L244.76,142.83 "/><path d="M243.97,142.11 L244.09,142.11 "/><path d="M245.26,142.26 L245.30,142.27 "/></g><g style="stroke:#000000;stroke-width:0.529"><path d="M245.06,142.98 C244.97,142.99 244.97,142.99 244.88,142.99 C244.76,142.98 244.76,142.98 244.65,142.98 C244.53,142.97 244.53,142.97 244.40,142.95 C244.28,142.94 244.28,142.94 244.16,142.92 C244.06,142.90 244.06,142.90 243.96,142.88 C243.89,142.85 243.89,142.85 243.81,142.83 "/><path d="M243.81,142.83 C243.68,142.75 243.68,142.75 243.56,142.67 C243.49,142.59 243.49,142.59 243.42,142.51 C243.38,142.41 243.38,142.41 243.34,142.32 "/><path d="M245.30,142.27 L245.48,142.32 L245.65,142.39 L245.71,142.46 L245.73,142.55 L245.60,142.72 L245.37,142.89 L245.19,142.96 L245.06,142.98 "/><path d="M243.34,142.32 L243.35,142.26 L243.38,142.17 L243.41,142.16 "/><path d="M243.42,142.16 L243.52,142.13 L243.76,142.11 L243.97,142.11 "/><path d="M245.26,142.26 L245.14,142.24 "/></g></g><g id="Actor_.7"><g style="stroke:#000000;stroke-width:0.176"><path d="M40.98,93.91 L40.84,93.72 L40.76,93.48 L40.75,93.23 L40.83,93.00 L40.97,92.81 L41.17,92.67 L41.41,92.62 L41.64,92.64 L41.87,92.74 L42.04,92.91 L42.16,93.13 L42.20,93.38 L42.16,93.62 L42.05,93.84 L41.88,94.00 L41.66,94.10 L41.42,94.12 L41.19,94.05 L40.98,93.91 "/><path d="M41.15,93.36 L41.17,93.21 L41.23,93.10 L41.32,93.01 L41.38,92.99 L41.32,93.00 L41.21,93.07 L41.13,93.17 L41.09,93.30 L41.10,93.43 L41.14,93.55 L41.22,93.65 L41.32,93.73 L41.45,93.76 L41.57,93.75 L41.62,93.73 L41.57,93.74 L41.44,93.73 L41.33,93.68 L41.28,93.63 L41.22,93.57 L41.26,93.62 L41.31,93.65 L41.41,93.70 L41.52,93.71 L41.63,93.69 L41.73,93.62 L41.80,93.53 L41.83,93.42 L41.83,93.31 L41.79,93.20 L41.72,93.10 L41.63,93.04 L41.52,93.01 L41.41,93.01 L41.30,93.06 L41.22,93.14 L41.17,93.24 L41.15,93.36 L41.17,93.47 L41.22,93.57 "/><path d="M41.38,92.99 L41.44,92.97 L41.56,92.98 L41.68,93.04 L41.77,93.13 L41.83,93.24 L41.86,93.37 L41.84,93.50 L41.78,93.61 L41.69,93.70 L41.62,93.73 "/><path d="M42.49,92.59 L42.50,92.60 L42.69,92.95 L42.75,93.35 L42.74,93.42 "/></g><g style="stroke:#000000;stroke-width:0.529"><path d="M42.49,92.59 L42.22,92.33 L41.86,92.17 L41.48,92.13 L41.11,92.22 L40.79,92.43 L40.56,92.74 L40.44,93.12 L40.44,93.51 L40.57,93.89 L40.81,94.20 L41.13,94.43 L41.50,94.53 L41.89,94.50 L42.24,94.35 L42.52,94.08 L42.70,93.74 L42.74,93.42 "/></g></g><g id="Actor_.8"><g style="stroke:#000000;stroke-width:0.176"><path d="M243.59,126.72 L243.69,126.50 L243.86,126.33 L244.07,126.22 L244.31,126.19 L244.54,126.24 L244.75,126.36 L244.91,126.55 L245.00,126.78 L245.02,127.03 L244.96,127.27 L244.82,127.47 L244.63,127.61 L244.40,127.68 L244.16,127.67 L243.94,127.58 L243.75,127.42 L243.62,127.21 L243.57,126.97 L243.59,126.72 "/><path d="M243.97,126.89 L243.98,126.81 L244.01,126.75 L244.08,126.64 L244.18,126.56 L244.20,126.56 L244.18,126.56 L244.06,126.62 L243.98,126.71 L243.92,126.83 L243.91,126.95 L243.94,127.08 L244.01,127.19 L244.11,127.28 L244.22,127.32 L244.35,127.33 L244.44,127.30 L244.35,127.31 L244.22,127.29 L244.11,127.22 L244.10,127.20 L244.20,127.26 L244.31,127.29 L244.42,127.27 L244.52,127.22 L244.60,127.14 L244.64,127.03 L244.66,126.92 L244.63,126.80 L244.57,126.70 L244.48,126.63 L244.38,126.58 L244.26,126.58 L244.16,126.61 L244.06,126.68 L244.00,126.78 L243.98,126.83 L243.97,126.89 L243.98,127.00 L244.02,127.11 L244.10,127.20 "/><path d="M244.44,127.30 L244.47,127.29 L244.57,127.22 L244.64,127.11 L244.67,126.99 L244.67,126.86 L244.62,126.74 L244.53,126.64 L244.43,126.57 L244.30,126.54 L244.20,126.56 "/><path d="M245.27,126.14 L245.40,126.28 L245.54,126.65 L245.57,126.99 "/></g><g style="stroke:#000000;stroke-width:0.529"><path d="M245.57,126.99 L245.57,127.05 L245.47,127.43 L245.25,127.75 L244.95,127.98 L244.58,128.10 L244.20,128.08 L243.84,127.94 L243.54,127.68 L243.33,127.34 L243.25,126.95 L243.28,126.56 L243.44,126.20 L243.71,125.92 L244.05,125.75 L244.43,125.70 L244.81,125.78 L245.14,125.98 L245.27,126.14 "/></g></g><g id="Actor_.9"><g style="stroke:#000000;stroke-width:0.176"><path d="M244.44,106.67 L244.43,106.69 L244.37,106.93 L244.39,107.17 L244.49,107.40 L244.66,107.59 L244.87,107.71 L245.11,107.75 L245.34,107.71 L245.55,107.60 L245.71,107.42 L245.81,107.19 L245.82,106.94 L245.76,106.70 L245.63,106.49 L245.43,106.34 L245.21,106.26 L244.97,106.25 L244.74,106.33 L244.55,106.48 L244.44,106.67 "/><path d="M244.78,106.90 L244.78,106.88 L244.80,106.82 L244.83,106.76 L244.92,106.66 L245.01,106.61 L244.91,106.65 L244.81,106.73 L244.74,106.83 L244.71,106.96 L244.73,107.09 L244.78,107.21 L244.87,107.31 L244.98,107.37 L245.10,107.39 L245.23,107.37 L245.25,107.36 L245.22,107.37 L245.10,107.37 L244.98,107.32 L244.88,107.24 L244.87,107.23 L244.96,107.30 L245.06,107.34 L245.18,107.34 L245.28,107.30 L245.37,107.23 L245.43,107.14 L245.46,107.02 L245.45,106.91 L245.40,106.80 L245.32,106.71 L245.22,106.66 L245.11,106.64 L245.00,106.65 L244.91,106.70 L244.90,106.71 L244.83,106.79 L244.80,106.84 L244.78,106.90 L244.77,107.02 L244.80,107.13 L244.87,107.23 "/><path d="M245.01,106.61 L245.03,106.61 L245.15,106.61 L245.27,106.65 L245.37,106.73 L245.44,106.84 L245.48,106.97 L245.47,107.10 L245.42,107.22 L245.34,107.31 L245.25,107.36 "/><path d="M246.36,107.07 L246.37,106.87 L246.27,106.49 L246.10,106.21 "/></g><g style="stroke:#000000;stroke-width:0.529"><path d="M246.36,107.07 L246.35,107.27 L246.20,107.63 L245.94,107.92 L245.61,108.10 L245.23,108.16 L244.85,108.10 L244.51,107.90 L244.24,107.61 L244.09,107.24 L244.05,106.85 L244.14,106.46 L244.34,106.13 L244.64,105.89 L245.01,105.77 L245.39,105.77 L245.75,105.91 L246.06,106.15 L246.10,106.21 "/></g></g><g id="Actor_.10"><g style="stroke:#000000;stroke-width:0.176"><path d="M41.80,128.76 C41.65,128.72 41.65,128.72 41.49,128.69 C41.31,128.65 41.31,128.65 41.12,128.63 C40.92,128.60 40.92,128.60 40.72,128.58 C40.54,128.57 40.54,128.57 40.35,128.56 C40.19,128.56 40.19,128.56 40.03,128.56 "/><path d="M40.31,129.08 C40.41,129.08 40.41,129.08 40.51,129.08 C40.63,129.08 40.63,129.08 40.74,129.09 C40.87,129.10 40.87,129.10 41.00,129.12 C41.11,129.14 41.11,129.14 41.22,129.15 C41.32,129.18 41.32,129.18 41.42,129.20 "/><path d="M40.72,129.26 C40.79,129.27 40.79,129.27 40.85,129.28 C40.91,129.28 40.91,129.28 40.98,129.29 C41.04,129.29 41.04,129.29 41.09,129.29 C41.14,129.29 41.14,129.29 41.18,129.29 "/><path d="M40.58,129.14 C40.64,129.16 40.64,129.16 40.69,129.17 C40.75,129.18 40.75,129.18 40.80,129.19 C40.86,129.20 40.86,129.20 40.92,129.20 C40.97,129.21 40.97,129.21 41.03,129.21 C41.08,129.21 41.08,129.21 41.14,129.20 "/><path d="M41.51,128.61 C41.32,128.57 41.32,128.57 41.12,128.54 C40.93,128.52 40.93,128.52 40.74,128.50 C40.54,128.49 40.54,128.49 40.35,128.48 "/><path d="M42.10,128.90 L42.01,128.83 L41.80,128.76 "/><path d="M40.03,128.56 L39.81,128.59 L39.71,128.64 "/><path d="M39.84,128.51 L39.82,128.52 "/><path d="M40.13,129.17 L40.11,129.13 L40.17,129.10 L40.31,129.08 "/><path d="M41.42,129.20 L41.55,129.24 L41.61,129.29 L41.58,129.32 "/><path d="M41.18,129.29 L41.24,129.27 L41.25,129.25 L41.22,129.23 L41.15,129.21 L41.05,129.18 L40.88,129.16 L40.80,129.15 L40.67,129.14 L40.57,129.14 L40.50,129.15 L40.46,129.17 L40.47,129.19 L40.52,129.21 L40.61,129.24 L40.72,129.26 "/><path d="M41.74,128.66 L41.77,128.66 "/></g><g style="stroke:#000000;stroke-width:0.529"><path d="M42.10,128.90 C42.03,129.02 42.02,129.02 41.94,129.13 C41.86,129.19 41.86,129.19 41.78,129.25 C41.68,129.29 41.68,129.29 41.58,129.32 "/><path d="M41.48,129.35 C41.39,129.35 41.39,129.35 41.31,129.36 C41.20,129.36 41.20,129.36 41.09,129.35 C40.97,129.34 40.97,129.34 40.84,129.33 C40.72,129.32 40.72,129.32 40.60,129.30 C40.49,129.28 40.49,129.28 40.39,129.26 C40.30,129.23 40.30,129.23 40.22,129.21 "/><path d="M41.77,128.66 L41.99,128.74 L42.08,128.81 L42.10,128.90 "/><path d="M41.58,129.32 L41.48,129.35 "/><path d="M40.22,129.21 L40.13,129.17 L39.95,129.05 L39.82,128.90 L39.71,128.64 L39.75,128.56 L39.82,128.52 "/><path d="M39.84,128.51 L39.85,128.51 L40.06,128.48 L40.35,128.48 "/><path d="M41.51,128.61 L41.74,128.66 "/></g></g><g id="Actor_.11"><g style="stroke:#000000;stroke-width:0.176"><path d="M41.00,97.79 L40.80,97.64 L40.67,97.44 L40.60,97.20 L40.61,96.95 L40.70,96.72 L40.85,96.54 L41.06,96.41 L41.29,96.37 L41.53,96.41 L41.75,96.52 L41.92,96.70 L42.02,96.93 L42.05,97.18 L42.00,97.42 L41.88,97.63 L41.69,97.78 L41.47,97.86 L41.23,97.87 L41.00,97.79 "/><path d="M41.00,96.90 L40.99,96.91 L40.95,97.03 L40.94,97.16 L40.98,97.29 L41.05,97.40 L41.15,97.47 L41.27,97.51 L41.40,97.51 L41.47,97.49 L41.40,97.50 L41.27,97.48 L41.16,97.42 L41.10,97.36 L41.14,97.40 L41.24,97.45 L41.35,97.47 L41.47,97.45 L41.56,97.39 L41.64,97.31 L41.68,97.20 L41.68,97.08 L41.65,96.97 L41.59,96.87 L41.49,96.80 L41.39,96.77 L41.27,96.77 L41.17,96.81 L41.08,96.88 L41.02,96.98 L41.00,97.09 L41.03,96.95 L41.09,96.84 L41.19,96.76 L41.23,96.74 L41.18,96.75 L41.08,96.82 L41.00,96.90 "/><path d="M41.00,97.09 L41.01,97.21 L41.06,97.32 L41.10,97.36 "/><path d="M41.47,97.49 L41.52,97.47 L41.61,97.39 L41.68,97.28 L41.70,97.15 L41.69,97.02 L41.63,96.90 L41.55,96.81 L41.43,96.75 L41.31,96.73 L41.23,96.74 "/><path d="M42.60,97.16 L42.56,96.77 L42.39,96.41 L42.32,96.33 "/></g><g style="stroke:#000000;stroke-width:0.529"><path d="M42.60,97.16 L42.52,97.55 L42.32,97.89 L42.03,98.14 L41.67,98.27 L41.29,98.28 L40.92,98.15 L40.61,97.91 L40.39,97.59 L40.28,97.20 L40.30,96.81 L40.44,96.44 L40.69,96.15 L41.02,95.95 L41.39,95.88 L41.77,95.94 L42.12,96.13 L42.32,96.33 "/></g></g><g id="Actor_.12"><g style="stroke:#000000;stroke-width:0.176"><path d="M244.91,111.50 L244.84,111.50 L244.61,111.41 L244.42,111.26 L244.28,111.05 L244.22,110.81 L244.24,110.57 L244.33,110.34 L244.49,110.16 L244.70,110.04 L244.93,110.00 L245.17,110.04 L245.38,110.16 L245.55,110.34 L245.65,110.57 L245.67,110.82 L245.62,111.06 L245.49,111.27 L245.30,111.42 L245.08,111.50 L244.91,111.50 "/><path d="M244.62,110.72 L244.65,110.57 L244.68,110.52 L244.72,110.47 L244.82,110.39 L244.86,110.37 L244.81,110.38 L244.70,110.44 L244.62,110.54 L244.57,110.66 L244.56,110.78 L244.60,110.91 L244.67,111.02 L244.77,111.10 L244.89,111.14 L245.02,111.14 L245.09,111.12 L245.01,111.13 L244.89,111.11 L244.78,111.05 L244.68,110.94 L244.76,111.03 L244.86,111.08 L244.97,111.10 L245.08,111.08 L245.18,111.03 L245.26,110.94 L245.30,110.84 L245.31,110.72 L245.28,110.61 L245.21,110.51 L245.12,110.44 L245.02,110.40 L244.91,110.40 L244.90,110.40 L244.80,110.43 L244.71,110.51 L244.67,110.55 L244.65,110.60 L244.62,110.72 L244.63,110.83 L244.68,110.94 "/><path d="M244.86,110.37 L244.94,110.36 L245.06,110.38 L245.17,110.44 L245.26,110.54 L245.31,110.66 L245.33,110.79 L245.30,110.91 L245.23,111.02 L245.13,111.10 L245.09,111.12 "/><path d="M244.69,110.95 L244.69,110.95 "/><path d="M245.93,109.96 L246.02,110.06 L246.19,110.43 L246.22,110.80 "/></g><g style="stroke:#000000;stroke-width:0.529"><path d="M246.22,110.80 L246.22,110.82 L246.14,111.21 L245.93,111.54 L245.64,111.78 L245.27,111.91 L244.89,111.90 L244.53,111.77 L244.22,111.53 L244.00,111.20 L243.90,110.81 L243.92,110.42 L244.07,110.05 L244.33,109.76 L244.66,109.58 L245.04,109.51 L245.42,109.58 L245.76,109.77 L245.93,109.96 "/></g></g><g id="Actor_.13"><g style="stroke:#000000;stroke-width:0.176"><path d="M243.55,98.56 L243.58,98.15 "/><path d="M245.48,98.27 L245.44,98.69 "/><path d="M246.40,98.39 L246.37,98.75 "/><path d="M247.23,98.81 L247.24,98.69 "/><path d="M247.58,98.77 L247.68,98.84 "/></g><g style="stroke:#000000;stroke-width:0.529"><path d="M242.99,98.53 L243.02,98.15 L243.07,98.14 L243.37,98.14 L244.91,98.24 L245.71,98.29 L246.15,98.34 L246.30,98.37 L246.40,98.39 L247.24,98.69 L247.58,98.77 L247.78,98.85 "/></g></g><g id="Actor_.14"><g style="stroke:#000000;stroke-width:0.176"><path d="M40.40,84.55 L40.36,84.96 "/><path d="M43.18,85.15 L43.21,84.79 "/><path d="M42.29,84.67 L42.26,85.09 "/></g><g style="stroke:#000000;stroke-width:0.529"><path d="M39.80,84.93 L39.84,84.55 L39.89,84.54 L40.18,84.53 L40.40,84.55 L42.29,84.67 L42.53,84.69 L42.96,84.74 L43.21,84.79 L44.48,85.24 "/></g></g><g id="Actor_.15"><g style="stroke:#000000;stroke-width:0.176"><path d="M245.86,98.28 C245.72,98.25 245.72,98.25 245.58,98.23 C245.40,98.21 245.40,98.21 245.22,98.19 C245.02,98.17 245.02,98.17 244.82,98.15 C244.63,98.14 244.63,98.14 244.44,98.13 C244.27,98.12 244.27,98.12 244.10,98.11 C243.97,98.11 243.97,98.11 243.84,98.11 "/><path d="M246.06,98.33 L246.03,98.32 L245.86,98.28 "/><path d="M243.84,98.11 L243.70,98.12 "/></g><g style="stroke:#000000;stroke-width:0.529"><path d="M246.08,98.33 C246.04,98.24 246.04,98.24 246.00,98.15 C245.93,98.07 245.93,98.07 245.85,97.99 C245.75,97.92 245.75,97.92 245.64,97.85 "/><path d="M245.53,97.83 C245.44,97.81 245.44,97.81 245.35,97.80 C245.24,97.79 245.24,97.79 245.13,97.77 C245.01,97.76 245.01,97.76 244.88,97.75 C244.76,97.74 244.76,97.74 244.64,97.73 C244.53,97.73 244.53,97.73 244.43,97.72 C244.35,97.72 244.35,97.72 244.27,97.72 "/><path d="M244.18,97.73 C244.08,97.77 244.08,97.77 243.99,97.81 C243.90,97.88 243.90,97.88 243.82,97.95 C243.76,98.03 243.76,98.04 243.70,98.12 "/><path d="M245.64,97.85 L245.53,97.83 "/><path d="M244.27,97.72 L244.18,97.73 "/><path d="M243.70,98.12 L243.69,98.15 "/></g></g><g id="paperID" visibility="hidden" opacity="0.00" transform="scale(0.000100)"><path style="stroke:#000000;stroke-width:0.500;fill:#e6e6e6;fill-rule:evenodd" d="M-2000.00,-2000.00L2297.00,-2000.00L2297.00,2210.00L-2000.00,2210.00zM0.00,0.00L297.00,0.00L297.00,210.00L0.00,210.00z"/><path style="fill:#000000;fill-opacity:0.118" d="M3.00,210.00L297.00,210.00L297.00,3.00L300.00,3.00L300.00,213.00L3.00,213.00z"/></g><g id="ToolTip" visibility="hidden" opacity="0" transform="translate(0,0)"><rect id="ToolTipShadow" opacity="0.20" fill="black" stroke="none" x="0" y="0" width="30" height="8"/><rect id="ToolTipBG" fill="#ffffe1" stroke="black" x="0" y="0" width="30" height="8"/><text xml:space="preserve" id="ToolTipText" fill="black" x="0" y="0" width="30" height="8">tooltip</text></g></g></svg>
