<?xml version="1.0" encoding="UTF-8" standalone="no"?>
<svg xmlns="http://www.w3.org/2000/svg" xmlns:xlink="http://www.w3.org/1999/xlink" width="297.000mm" height="210.000mm" viewBox="0.000000 0.000000 297.000000 210.000000" stroke-linejoin="round" stroke-linecap="round" fill="none" fill-rule="evenodd"><desc>Composer Export</desc><script type="text/ecmascript"><![CDATA[
if(typeof(top) != "undefined")
{
	top.ShowPaper = ShowPaper;
}
function ShowHotSpot(evt,hotspotid)
{
	var svgDocument = evt.target.ownerDocument;
	var strId = "hotspot."+hotspotid;
	var hotspot = svgDocument.getElementById(strId);
	if(hotspot)
		hotspot.setAttribute("opacity",".5");
}
function HideHotSpot(evt,hotspotid)
{
	var svgDocument = evt.target.ownerDocument;
	var strId = "hotspot."+hotspotid;
	var hotspot = svgDocument.getElementById(strId);
	if(hotspot)
		hotspot.setAttribute("opacity","0");

	var toolTip = svgDocument.getElementById('ToolTip');
	if(toolTip)
		toolTip.setAttribute("visibility","hidden");
}
function ShowToolTip(evt,hotspotid,strTooltip)
{
	if(strTooltip=="")
	return;

	// change text
	var svgDocument = evt.target.ownerDocument;
	var tiptext = svgDocument.getElementById('ToolTipText');
	if( !tiptext )
	return;
	tiptext.firstChild.nodeValue = " " + strTooltip + "  " ;

	// show tooltip before, else some refresh issue

	var toolTip = svgDocument.getElementById('ToolTip');
	if(!toolTip)
	return;

	toolTip.setAttribute("visibility","visible");
	toolTip.setAttribute("opacity",".95");

	// move tooltip
	// get viewbox

	var root = svgDocument.documentElement;
	var vbox = (root.getAttribute("viewBox")).split(' ');
	var x0 = parseFloat(vbox[0]);
	var y0 = parseFloat(vbox[1]);
	var vboxW = parseFloat(vbox[2]);
	var vboxH = parseFloat(vbox[3]);

	// get default width of svg

	var strW = root.getAttribute("width");
	var svgW = parseFloat(strW);
	if(strW.indexOf('mm') != -1)
	svgW *= 3.779;

	var strH = root.getAttribute("height");
	var svgH = parseFloat(strH);
	if(strH.indexOf('mm') != -1)
	svgH *= 3.779;  	// 96 dpi  -> 96/25.4 = 3.779

	// update the viewbox / width / height if svg is embedded in html with zoom fit all
	var realx0 = x0;
	var realy0 = y0;
	var realvboxW = vboxW;
	var realvboxH = vboxH;
	var realsvgW = svgW;
	var realsvgH = svgH;

	if ((typeof(top) == "undefined") || (typeof(top.svgctl1) != "undefined")) // embedded in html
	{
		// get window size in pxl

		svgW = window.innerWidth;
		svgH = window.innerHeight;

		// calculate real viewbox

		realsvgW = svgW;
		realsvgH = svgH;
		if((svgW / svgH) > (vboxW / vboxH))
		{
			realvboxW = (vboxH * svgW) / svgH;
			realvboxH = vboxH;
			realx0 = x0 - (realvboxW - vboxW)/2 ;
		}
		else
		{
			realvboxH = (vboxW * svgH) / svgW;
			realvboxW = vboxW;
			realy0 = y0 - (realvboxH - vboxH)/2 ;
		}
	}

	// get user zoom/pan

	var newScale = root.currentScale;
	var translation = root.currentTranslate;

	// transform pxl to user unit

	var xPos = (((evt.clientX+10- translation.x)/newScale) * realvboxW)/realsvgW  + realx0 ;
	var yPos = (((evt.clientY+5- translation.y)/newScale) * realvboxH)/ realsvgH  + realy0 ;
	var scaleForWidth = ( (1 / newScale) * realvboxH) / realsvgH;

	// move tooltip

	toolTip.setAttribute("transform", "translate(" + xPos + "," + yPos + ")" );

	// resize tooltip

	var fontsize = 12;
	tiptext.setAttribute("font-size",fontsize*scaleForWidth);
	tiptext.setAttribute("y", fontsize*scaleForWidth);
	var tipBG = svgDocument.getElementById('ToolTipBG');
	var outline = tiptext.getBBox();
	if(tipBG)
	{
		tipBG.setAttribute("stroke-width", 1*scaleForWidth);
		tipBG.setAttribute("width", Number(outline.width) );
		tipBG.setAttribute("height", Number(outline.height) + fontsize*.5*scaleForWidth );
	}
	var ToolTipShadow = svgDocument.getElementById('ToolTipShadow');
	if(ToolTipShadow)
	{
		ToolTipShadow.setAttribute("width", Number(outline.width) );
		ToolTipShadow.setAttribute("height", Number(outline.height) + fontsize*.5*scaleForWidth );
		ToolTipShadow.setAttribute("x", 3*scaleForWidth);
		ToolTipShadow.setAttribute("y", 3*scaleForWidth);
	}
}
function ShowPaper()
{
  var svgDocument = getDocument();
  var paper = svgDocument.getElementById("paperID");
  if(paper)
  {
    paper.setAttribute("transform","scale(1)");
    paper.setAttribute("opacity","1");
    paper.setAttribute("visibility","visible");
  }
  var svg = svgDocument.getRootElement();
  if(svg)
  {
    svg.setAttribute("width","307.000mm");
    svg.setAttribute("height","220.000mm");
    svg.setAttribute("viewBox","-5.000000 -5.000000 307.000000 220.000000");
  }
}
]]></script><defs/><g><path style="fill:#ffffff" d="M296.92,210.05L0.08,210.05L0.08,0.08L296.92,0.08z"/><path style="fill:#e5e401" d="M99.48,128.33L100.65,128.28L98.37,131.19L94.69,137.16L92.86,139.19L89.70,142.09L79.05,147.17L75.02,148.44L74.19,148.41L73.44,147.98L73.56,146.96L74.37,147.71L76.44,144.28L78.96,141.56L86.22,135.31L87.88,133.65L89.46,131.37L90.55,131.09L93.20,131.32L92.55,131.98L91.28,134.52L90.87,135.02L90.81,135.87L91.37,135.81L93.83,134.37L97.28,130.63L96.97,128.98L99.19,127.79z"/><path style="fill:#fffe02" d="M175.73,62.85L173.79,64.34L174.53,64.48L175.95,64.54L175.55,65.31L175.63,65.70L176.78,65.69L181.17,65.29L184.13,64.97L184.66,64.88L185.49,65.18L186.47,65.91L183.20,68.72L186.05,74.54L186.05,79.05L184.68,90.92L184.12,91.79L183.61,91.58L184.00,90.47L185.38,77.50L185.49,75.92L185.39,75.82L184.12,72.34L182.23,69.00L181.99,68.88L180.98,67.92L179.44,69.69L174.72,73.01L174.64,73.51L175.64,73.88L175.98,74.47L125.36,115.71L124.80,116.56L123.55,116.42L123.05,116.36L122.67,115.62L121.67,116.16L120.31,117.83L115.88,120.85L117.20,121.28L117.53,121.63L117.28,122.24L114.53,124.48L114.59,125.01L115.73,127.77L115.71,131.65L116.84,133.82L116.09,134.34L115.45,133.57L114.88,132.20L114.77,129.88L114.95,129.08L114.95,128.49L114.91,127.77L114.76,127.70L113.34,124.86L113.25,124.71L112.50,124.85L100.65,128.28L99.48,128.33L99.19,127.79L96.97,128.98L97.28,130.63L93.83,134.37L91.37,135.81L90.81,135.87L90.87,135.02L91.28,134.52L92.84,133.93L94.49,132.27L95.31,131.05L93.20,131.32L90.55,131.09L89.46,131.37L87.88,133.65L86.22,135.31L78.96,141.56L76.44,144.28L74.37,147.71L73.56,146.96L74.52,145.12L76.46,142.64L79.51,139.63L83.62,136.02L86.66,133.26L89.17,130.26L93.98,126.29L95.42,125.42L95.98,125.27L100.34,123.78L103.20,118.91L112.34,111.51L127.50,106.82L130.37,105.28L142.28,95.62L142.77,95.36L142.57,95.08L143.40,93.43L144.15,94.23L153.89,86.25L154.38,85.97L152.59,85.87L152.54,86.03L149.01,89.50L148.57,89.36L148.88,88.26L149.17,88.01L151.03,86.11L149.74,86.09L146.43,86.25L144.88,86.41L143.47,90.28L143.04,90.30L142.76,89.34L144.15,85.69L147.44,82.91L153.22,78.21L158.36,76.46L161.24,71.62L167.47,66.54L169.30,66.23L174.66,62.39L175.30,62.37z"/><path style="fill:#e5e401" d="M188.27,68.46L188.91,68.99L190.48,69.30L192.14,71.14L192.57,72.25L193.03,73.07L192.87,73.17L192.82,75.02L192.93,76.77L195.15,81.17L200.41,90.53L202.60,91.37L203.85,92.64L204.28,93.49L204.63,94.34L204.88,94.92L204.83,97.06L204.85,98.72L207.63,103.91L206.91,104.05L192.89,109.84L192.85,110.42L192.41,110.37L192.13,110.14L191.89,110.28L186.88,105.44L185.23,104.03L184.31,104.04L183.68,104.31L182.53,104.31L181.09,103.50L180.94,103.13L181.65,102.66L180.79,101.04L179.68,97.41L179.09,97.42L178.88,97.88L172.26,91.37L170.60,90.54L170.16,90.40L170.14,90.21L171.43,89.99L172.17,90.03L173.11,89.28L173.09,87.51L172.58,86.37L171.53,85.43L170.41,85.41L170.08,85.77L169.67,86.38L167.76,87.24L166.50,88.23L166.51,89.63L166.88,90.18L167.00,90.54L167.39,90.78L168.22,90.96L169.22,90.62L169.56,90.47L169.62,90.69L150.29,106.48L149.78,106.19L149.13,104.85L148.55,104.33L147.74,104.07L146.95,104.53L146.38,105.29L143.52,106.84L143.20,107.65L143.71,109.21L144.09,109.60L146.20,109.73L146.11,109.94L139.38,115.39L138.60,116.81L138.49,118.86L138.65,119.68L139.32,122.44L139.48,123.27L140.81,128.61L141.67,130.24L142.20,130.53L143.60,132.09L144.27,133.46L144.47,134.02L144.33,134.11L144.30,136.25L143.29,137.77L143.17,138.99L143.34,139.82L145.29,148.07L145.62,148.83L145.11,148.74L135.05,162.63L132.59,158.33L132.26,158.05L131.93,158.09L131.74,158.54L130.90,157.83L128.71,156.98L127.98,156.15L128.71,155.98L128.74,155.64L127.84,153.99L127.48,152.05L127.60,149.27L120.43,136.27L119.61,136.50L118.49,135.76L117.36,135.51L116.09,134.34L116.84,133.82L115.71,131.65L115.73,127.77L114.59,125.01L114.53,124.48L117.28,122.24L117.53,121.63L120.41,126.40L121.89,128.00L121.17,128.33L119.90,129.32L119.90,130.72L120.28,131.28L120.42,131.62L120.95,131.93L122.27,131.92L124.19,131.05L125.57,131.12L126.47,130.34L126.85,129.84L133.38,131.94L134.09,131.95L134.25,131.85L134.64,131.94L135.32,130.91L135.31,128.87L134.30,126.54L133.84,126.34L133.43,126.84L125.13,117.82L123.55,116.42L124.80,116.56L125.36,115.71L175.98,74.47L176.13,74.56L180.24,88.63L181.38,90.80L182.49,91.64L183.45,91.67L183.61,91.58L184.12,91.79L184.68,90.92L186.05,79.05L186.05,74.54L183.20,68.72L186.47,65.91z"/><path style="fill:#e5e401" d="M106.34,119.81L106.48,119.97L106.64,120.46L107.02,119.74L107.56,119.74L107.22,120.46L105.69,122.46L102.68,123.37L101.83,123.37L104.01,119.72L104.51,119.47z"/><path style="fill:#00001c" d="M152.49,82.12L151.64,81.96L152.47,81.94z"/><path style="fill:#00001c" d="M111.40,115.50L110.66,115.45L110.62,115.26L111.38,115.32z"/><path style="fill:#00001c" d="M104.51,119.47L106.73,119.47L106.78,119.66L106.48,119.97L106.34,119.81z"/><path style="fill:#00e3e5" d="M171.83,57.70L171.31,57.97L171.71,58.20L172.82,61.03L172.84,62.53L171.36,63.26L169.96,63.35L169.85,63.19L171.78,62.55L171.98,62.13L170.51,57.95L171.83,57.04L172.01,57.17z"/><path style="fill:#00e3e5" d="M197.92,67.92L198.90,69.75L198.90,71.17L198.37,72.07L196.82,72.08L194.80,72.91L193.03,73.07L192.57,72.25L195.34,70.93L195.98,70.94L196.57,71.32L195.96,69.88L196.01,68.04L196.28,67.53L196.80,67.34z"/><path style="fill:#00e3e5" d="M190.74,96.06L191.58,98.28L191.29,99.19L190.06,100.08L188.99,99.91L186.99,100.72L185.84,100.72L185.21,100.48L185.10,100.09L185.43,99.68L188.26,98.28L188.56,98.82L189.09,98.83L188.51,97.73L188.30,95.69L188.91,95.08L189.93,95.22z"/><path style="fill:#00e3e5" d="M148.55,104.33L149.13,104.85L149.78,106.19L150.00,106.78L149.94,108.03L149.31,108.77L148.01,108.76L146.55,109.33L146.20,109.73L144.09,109.60L143.71,109.21L144.31,108.46L146.90,107.39L147.47,108.01L146.80,105.45L146.95,104.53L147.74,104.07z"/><path style="fill:#00e3e5" d="M93.30,120.83L94.63,119.91L94.79,120.04L94.76,121.72L95.61,123.91L95.64,124.92L95.42,125.42L93.98,126.29L92.64,126.07L94.42,125.58L94.51,124.17z"/><path style="fill:#00e3e5" d="M149.93,129.70L150.36,130.97L150.37,132.39L150.22,132.87L149.29,133.32L147.89,133.26L145.89,134.09L145.05,134.07L144.47,134.02L144.27,133.46L145.51,132.54L147.09,131.86L147.96,132.33L147.43,130.82L147.48,128.78L147.63,128.60L148.84,128.58z"/><path style="fill:#00e3e5" d="M136.78,148.33L137.49,148.75L138.06,149.56L138.50,150.82L138.51,151.97L137.98,152.86L136.42,152.88L134.41,153.71L132.54,153.69L132.17,153.05L134.94,151.73L135.58,151.74L136.17,152.12L135.57,150.68L135.61,148.83L135.93,148.39L136.44,147.85z"/><path style="fill:#00fdff" d="M171.83,57.04L170.51,57.95L171.98,62.13L171.78,62.55L169.85,63.19L168.94,62.15L168.15,59.85L168.38,59.03L167.87,59.32L167.33,59.02L167.33,58.19L168.31,57.46L169.67,56.89L171.45,56.59z"/><path style="fill:#00fdff" d="M196.01,68.04L195.96,69.88L196.57,71.32L195.98,70.94L195.34,70.93L192.57,72.25L192.14,71.14L192.59,69.88L195.43,68.31L195.88,67.62L196.28,67.53z"/><path style="fill:#00fdff" d="M94.63,119.91L93.30,120.83L94.51,124.17L94.42,125.58L92.64,126.07L91.72,125.03L90.73,122.25L91.22,121.96L90.15,121.94L89.95,121.79L90.08,120.98L92.27,119.85L93.48,119.62L94.32,119.62z"/><path style="fill:#00fdff" d="M135.61,148.83L135.57,150.68L136.17,152.12L135.58,151.74L134.94,151.73L132.17,153.05L131.97,152.61L132.00,151.02L134.00,149.79L135.04,149.11L135.49,148.43L135.93,148.39z"/><path style="fill:#fffe02" d="M211.72,107.62L212.81,109.28L212.82,110.51L212.37,111.21L203.35,114.82L200.65,114.83L199.30,114.25L198.56,115.04L196.83,113.96L192.13,110.66L191.89,110.28L192.13,110.14L192.41,110.37L192.85,110.42L192.89,109.84L206.91,104.05L207.63,103.91z"/><path style="fill:#fffe02" d="M145.62,148.83L149.37,151.77L151.06,153.39L151.74,154.69L151.90,155.82L151.57,157.09L146.09,164.85L145.31,165.77L143.79,166.40L141.92,166.39L140.01,165.83L139.28,166.37L135.05,163.88L133.65,162.25L131.74,158.54L131.93,158.09L132.26,158.05L132.59,158.33L135.05,162.63L145.11,148.74z"/><path style="fill:#e5e401" d="M176.01,63.68L175.91,64.01L174.53,64.48L173.79,64.34L175.73,62.85L175.96,62.94z"/><path style="fill:#e5e401" d="M163.54,72.31L168.21,71.91L169.34,72.03L168.79,73.03L168.51,73.17L168.29,73.17L167.98,73.61L160.88,75.95L160.02,76.03L160.12,75.50L162.20,72.34z"/><path style="fill:#e5e401" d="M161.88,78.60L162.81,78.10L163.31,78.30L163.18,78.79L161.34,80.75L161.07,80.89L160.84,80.89L160.54,81.33L160.12,81.55L157.45,81.84L156.43,81.72L157.82,79.78L161.88,78.60L162.10,79.08L162.32,78.67z"/><path style="fill:#e5e401" d="M149.05,87.33L149.17,88.01L148.88,88.26L148.47,88.33L148.57,89.36L149.01,89.50L152.54,86.03L153.78,86.14L153.89,86.25L144.15,94.23L143.40,93.43L143.32,92.46L142.74,91.11L142.76,89.34L143.04,90.30L143.47,90.28L144.88,86.41L146.43,86.25L149.48,86.37z"/><path style="fill:#e5e401" d="M123.05,116.36L122.09,117.13L120.73,118.80L117.20,121.28L115.88,120.85L120.31,117.83L121.67,116.16L122.67,115.62z"/><path style="fill:#ffffff" d="M184.12,72.34L185.39,75.82L185.38,77.50L184.00,90.47L183.61,91.58L183.45,91.67L182.49,91.64L181.38,90.80L180.24,88.63L176.13,74.56L175.98,74.47L175.64,73.88L176.98,72.74L179.98,70.50L181.26,69.02L181.99,68.88L182.23,69.00z"/><path style="fill:#ffffff" d="M190.50,72.51L190.61,73.08L190.76,73.90L190.57,74.27L189.63,73.20L189.37,72.53L189.67,71.66z"/><path style="fill:#ffffff" d="M192.45,87.68L196.29,94.64L197.25,97.05L197.22,98.73L197.12,99.05L196.69,99.62L192.87,101.31L191.27,101.32L190.20,100.46L190.06,100.08L191.29,99.19L191.58,98.28L190.74,96.06L189.93,95.22L188.91,95.08L189.51,88.53L189.66,87.40L190.20,86.48L190.73,86.37z"/><path style="fill:#ffffff" d="M164.64,90.24L164.96,91.87L164.57,91.94L164.00,91.35L163.70,90.57L163.72,89.41z"/><path style="fill:#ffffff" d="M202.45,94.32L202.63,95.15L202.65,96.26L201.54,95.13L201.48,94.41L201.35,94.30L201.49,93.56z"/><path style="fill:#ffffff" d="M182.48,99.62L183.03,100.63L183.18,101.22L183.12,101.98L182.21,101.30L181.94,100.66L181.90,99.91L181.77,99.80L181.90,99.34z"/><path style="fill:#ffffff" d="M141.49,108.96L141.69,110.88L140.84,110.41L140.59,110.02L140.54,109.30L140.41,109.19L140.55,108.44z"/><path style="fill:#ffffff" d="M125.13,117.82L133.43,126.84L133.93,127.77L134.48,129.43L134.49,131.17L134.25,131.85L134.09,131.95L133.38,131.94L126.85,129.84L126.20,127.78L125.15,126.64L124.92,126.53L124.83,126.39L123.78,126.55L123.37,126.68L123.06,127.20L121.89,128.00L120.41,126.40L117.53,121.63L117.20,121.28L120.73,118.80L122.09,117.13L123.05,116.36L123.55,116.42z"/><path style="fill:#ffffff" d="M118.03,131.33L118.36,132.95L117.96,133.03L117.15,132.08L117.10,131.37L116.97,131.25L117.11,130.50z"/><path style="fill:#ffffff" d="M142.00,133.49L142.07,134.03L142.23,134.87L142.22,135.16L141.39,134.65L140.84,133.47L140.91,132.70z"/><path style="fill:#ffffff" d="M135.58,139.08L137.29,140.35L138.50,143.10L138.50,144.52L138.35,144.99L136.44,147.85L135.93,148.39L135.49,148.43L135.04,149.11L134.00,149.79L133.12,149.26L131.72,147.36L128.40,141.30L127.85,139.65L127.85,137.77L128.31,136.82L128.96,136.85z"/><path style="fill:#ffffff" d="M130.11,153.33L130.36,155.03L129.53,154.50L128.98,153.33L129.27,152.46z"/><path style="fill:#000020" d="M171.71,58.20L171.31,57.97L171.83,57.70z"/><path style="fill:#000020" d="M167.33,59.02L167.18,58.28L167.33,58.19z"/><path style="fill:#000020" d="M168.15,59.85L167.87,59.32L168.38,59.03z"/><path style="fill:#000020" d="M176.01,63.68L175.96,62.94L176.14,62.99z"/><path style="fill:#000020" d="M198.90,71.17L198.90,69.75L199.01,69.85z"/><path style="fill:#000020" d="M171.25,71.63L172.86,71.64L172.36,71.90z"/><path style="fill:#000020" d="M189.67,71.66L189.37,72.53L189.29,71.48z"/><path style="fill:#000020" d="M168.47,73.36L167.98,73.61L168.29,73.17L168.51,73.17z"/><path style="fill:#000020" d="M190.76,73.90L190.61,73.08L190.75,73.18z"/><path style="fill:#000020" d="M192.82,75.02L192.87,73.17L193.03,73.07z"/><path style="fill:#000020" d="M166.85,77.26L166.57,77.15L167.31,77.01z"/><path style="fill:#000020" d="M185.38,77.50L185.39,75.82L185.49,75.92z"/><path style="fill:#000020" d="M156.01,80.71L155.92,80.36L156.23,80.30z"/><path style="fill:#000020" d="M161.03,81.08L160.54,81.33L160.84,80.89L161.07,80.89z"/><path style="fill:#000020" d="M154.17,81.98L152.49,82.12L152.47,81.94L153.06,81.70z"/><path style="fill:#000020" d="M148.57,89.36L148.47,88.33L148.88,88.26z"/><path style="fill:#000020" d="M203.85,92.64L204.28,92.37L204.28,93.49z"/><path style="fill:#000020" d="M205.13,94.84L204.88,94.92L204.63,94.34L204.82,94.29z"/><path style="fill:#000020" d="M202.63,95.15L202.45,94.32L202.64,94.29z"/><path style="fill:#000020" d="M201.54,95.13L201.35,94.30L201.48,94.41z"/><path style="fill:#000020" d="M142.77,95.36L142.28,95.62L142.57,95.08z"/><path style="fill:#000020" d="M197.22,98.73L197.25,97.05L197.35,97.16z"/><path style="fill:#000020" d="M181.94,100.66L181.77,99.80L181.90,99.91z"/><path style="fill:#000020" d="M179.74,100.66L179.59,99.82L179.71,99.92z"/><path style="fill:#000020" d="M183.38,101.97L183.12,101.98L183.18,101.22z"/><path style="fill:#000020" d="M207.42,108.11L207.94,108.19L207.85,108.56L207.57,108.49z"/><path style="fill:#000020" d="M208.67,108.72L208.31,108.82L208.41,108.46z"/><path style="fill:#000020" d="M203.03,109.73L203.56,110.04L203.14,110.16z"/><path style="fill:#000020" d="M140.59,110.02L140.41,109.19L140.54,109.30z"/><path style="fill:#000020" d="M125.50,110.93L124.91,110.78L125.96,110.66z"/><path style="fill:#000020" d="M117.22,115.34L111.40,115.50L111.38,115.32L111.97,115.07z"/><path style="fill:#000020" d="M138.65,119.68L138.49,118.86L138.62,118.95z"/><path style="fill:#000020" d="M107.56,119.74L107.02,119.74L106.78,119.66L106.73,119.47L113.85,119.62L113.34,119.88L113.25,119.79z"/><path style="fill:#000020" d="M94.32,119.62L93.48,119.62L94.22,119.47z"/><path style="fill:#000020" d="M90.73,122.25L90.15,121.94L91.22,121.96z"/><path style="fill:#000020" d="M139.48,123.27L139.32,122.44L139.44,122.54z"/><path style="fill:#000020" d="M113.34,124.86L112.50,124.85L113.25,124.71z"/><path style="fill:#000020" d="M95.98,125.27L95.42,125.42L95.64,124.92z"/><path style="fill:#000020" d="M124.92,126.53L123.78,126.55L124.83,126.39z"/><path style="fill:#000020" d="M114.95,128.49L114.76,127.70L114.91,127.77z"/><path style="fill:#000020" d="M117.15,132.08L116.97,131.25L117.10,131.37z"/><path style="fill:#000020" d="M150.37,132.39L150.36,130.97L150.47,131.08z"/><path style="fill:#000020" d="M140.84,133.47L140.73,132.74L140.91,132.70z"/><path style="fill:#000020" d="M142.23,134.87L142.07,134.03L142.20,134.12z"/><path style="fill:#000020" d="M144.30,136.25L144.33,134.11L144.47,134.02z"/><path style="fill:#000020" d="M143.34,139.82L143.17,138.99L143.30,139.09z"/><path style="fill:#000020" d="M138.50,144.52L138.50,143.10L138.62,143.20z"/><path style="fill:#000020" d="M74.90,148.56L74.19,148.41L75.02,148.44z"/><path style="fill:#000020" d="M129.27,152.46L128.98,153.33L128.90,152.28z"/><path style="fill:#000020" d="M151.90,155.82L151.74,154.69L151.86,154.78z"/><path style="fill:#000020" d="M143.94,158.50L143.10,158.63L142.89,158.28z"/><path style="fill:#000020" d="M141.93,163.74L141.22,163.59L141.76,163.49z"/><path style="fill:#00001c" d="M175.95,64.54L174.53,64.48L175.91,64.01z"/><path style="fill:#00001c" d="M175.63,65.70L176.51,65.57L176.78,65.69z"/><path style="fill:#00001c" d="M171.72,66.64L171.06,66.64L171.03,66.46L171.75,66.46z"/><path style="fill:#00001c" d="M196.67,69.21L196.56,69.75L196.52,69.05z"/><path style="fill:#00001c" d="M169.34,72.03L168.21,71.91L169.60,71.74z"/><path style="fill:#00001c" d="M152.54,86.03L152.59,85.87L154.38,85.97L153.89,86.25L153.78,86.14z"/><path style="fill:#00001c" d="M149.48,86.37L146.43,86.25L149.74,86.09z"/><path style="fill:#00001c" d="M170.16,90.40L169.62,90.69L169.56,90.47L170.14,90.21z"/><path style="fill:#00001c" d="M189.22,97.03L189.12,97.63L189.07,96.60z"/><path style="fill:#00001c" d="M184.72,99.27L184.57,98.26L184.70,98.16z"/><path style="fill:#00001c" d="M150.29,106.48L150.00,106.78L149.78,106.19z"/><path style="fill:#00001c" d="M94.49,129.53L93.86,129.53L93.83,129.34L94.52,129.34z"/><path style="fill:#00001c" d="M148.15,130.43L148.04,130.70L147.87,129.97z"/><path style="fill:#00001c" d="M136.28,150.01L136.16,150.55L136.12,149.85z"/><path style="fill:#00001c" d="M138.51,151.97L138.50,150.82L138.62,150.94z"/><path style="fill:#00e3e5" d="M169.51,58.01L168.30,58.01L169.00,57.73z"/><path style="fill:#00e3e5" d="M172.58,86.37L173.09,87.51L173.11,89.28L172.17,90.03L171.43,89.99L170.14,90.21L169.56,90.47L169.22,90.62L168.22,90.96L167.39,90.78L167.00,90.54L166.88,90.18L168.59,89.17L170.09,88.62L170.64,88.97L170.32,88.07L170.08,85.77L170.41,85.41L171.53,85.43z"/><path style="fill:#00e3e5" d="M209.78,89.70L210.88,91.36L210.89,93.41L209.96,94.16L208.28,94.11L206.29,94.93L205.45,94.92L205.13,94.84L204.82,94.29L205.33,93.64L207.83,92.49L208.41,93.12L208.09,92.21L208.13,89.81L208.47,89.38L209.23,89.42z"/><path style="fill:#00e3e5" d="M92.30,120.88L91.09,120.88L91.78,120.60z"/><path style="fill:#00e3e5" d="M126.20,127.78L126.85,129.84L126.47,130.34L125.57,131.12L124.19,131.05L122.27,131.92L120.95,131.93L120.42,131.62L120.28,131.28L121.98,130.26L123.48,129.71L124.03,130.06L123.71,129.16L123.69,126.72L123.78,126.55L124.92,126.53L125.15,126.64z"/><path style="fill:#00fdff" d="M198.20,69.56L198.09,71.00L197.37,70.98L196.56,69.75L196.67,69.21L197.89,69.02z"/><path style="fill:#00fdff" d="M172.52,88.04L172.25,88.71L171.44,88.62L170.84,87.78L170.78,87.25L171.34,86.92L172.00,86.91z"/><path style="fill:#00fdff" d="M170.32,88.07L170.64,88.97L170.09,88.62L168.59,89.17L166.88,90.18L166.51,89.63L166.50,88.23L167.76,87.24L169.67,86.38L170.08,85.77z"/><path style="fill:#00fdff" d="M210.33,91.93L210.03,92.85L209.49,92.79L208.95,92.46L208.60,91.35L209.81,90.80z"/><path style="fill:#00fdff" d="M208.13,89.81L208.09,92.21L208.41,93.12L207.83,92.49L205.33,93.64L204.82,94.29L204.63,94.34L204.28,93.49L204.28,92.37L204.78,91.71L207.30,90.37L208.02,89.41L208.47,89.38z"/><path style="fill:#00fdff" d="M190.76,97.42L190.65,98.57L189.89,98.58L189.12,97.63L189.22,97.03L190.45,96.88z"/><path style="fill:#00fdff" d="M188.51,97.73L189.09,98.83L188.56,98.82L188.26,98.28L185.43,99.68L185.10,100.09L184.72,99.27L184.70,98.16L185.96,97.17L187.87,96.31L188.30,95.69z"/><path style="fill:#00fdff" d="M149.12,105.95L149.10,107.76L148.54,107.69L147.68,106.53L147.71,106.10L148.84,105.66z"/><path style="fill:#00fdff" d="M146.80,105.45L147.47,108.01L146.90,107.39L144.31,108.46L143.71,109.21L143.20,107.65L143.52,106.84L146.38,105.29L146.95,104.53z"/><path style="fill:#00fdff" d="M125.96,128.87L125.64,129.81L124.83,129.71L124.23,128.59L124.21,128.30L124.73,128.02L125.39,128.01z"/><path style="fill:#00fdff" d="M123.69,126.72L123.71,129.16L124.03,130.06L123.48,129.71L121.98,130.26L120.28,131.28L119.90,130.72L119.90,129.32L121.17,128.33L121.89,128.00L123.06,127.20L123.37,126.68L123.78,126.55z"/><path style="fill:#00fdff" d="M149.68,130.49L149.64,132.03L148.82,131.92L148.04,130.70L148.15,130.43L149.39,130.20z"/><path style="fill:#00fdff" d="M147.43,130.82L147.96,132.33L147.09,131.86L145.51,132.54L144.27,133.46L143.60,132.09L143.99,131.03L146.87,129.50L147.48,128.78z"/><path style="fill:#00fdff" d="M137.81,150.36L137.70,151.79L137.24,151.80L136.40,150.97L136.16,150.55L136.28,150.01L137.50,149.82z"/><path style="fill:#fffe02" d="M190.61,73.08L190.50,72.51L191.32,72.07L191.60,73.81L190.99,74.41L190.57,74.27L190.76,73.90L190.75,73.18z"/><path style="fill:#fffe02" d="M162.10,79.08L161.88,78.60L162.32,78.67z"/><path style="fill:#fffe02" d="M197.92,95.77L198.20,98.08L197.91,98.90L197.37,99.48L197.12,99.05L197.22,98.73L197.35,97.16L197.25,97.05L196.29,94.64L192.45,87.68L193.23,87.26z"/><path style="fill:#fffe02" d="M145.59,88.48L144.95,89.27L144.95,88.72L145.55,88.35z"/><path style="fill:#fffe02" d="M165.65,90.52L165.55,91.95L164.96,91.87L164.64,90.24L165.39,90.01z"/><path style="fill:#fffe02" d="M203.45,94.36L203.44,95.89L203.03,96.37L202.65,96.26L202.63,95.15L202.64,94.29L203.16,94.06z"/><path style="fill:#fffe02" d="M180.79,101.04L181.65,102.66L180.94,103.13L179.97,101.59L179.74,100.66L179.71,99.92L179.59,99.82L178.88,97.88L179.09,97.42L179.68,97.41z"/><path style="fill:#fffe02" d="M183.18,101.22L183.03,100.63L183.22,99.89L183.83,99.89L183.87,101.72L183.38,101.97z"/><path style="fill:#fffe02" d="M142.33,109.16L142.50,110.50L142.09,110.99L141.69,110.88L141.49,108.96z"/><path style="fill:#fffe02" d="M106.64,120.46L106.48,119.97L106.78,119.66L107.02,119.74z"/><path style="fill:#fffe02" d="M134.30,126.54L135.31,128.87L135.32,130.91L134.64,131.94L134.25,131.85L134.49,131.17L134.48,129.43L133.93,127.77L133.43,126.84L133.84,126.34z"/><path style="fill:#fffe02" d="M119.05,131.60L118.94,133.04L118.36,132.95L118.03,131.33L118.78,131.10z"/><path style="fill:#fffe02" d="M142.07,134.03L142.00,133.49L142.75,133.27L143.04,135.02L142.68,135.29L142.22,135.16L142.23,134.87L142.20,134.12z"/><path style="fill:#fffe02" d="M90.99,133.72L90.64,134.24L90.64,133.64L90.94,133.57z"/><path style="fill:#fffe02" d="M127.60,149.27L127.48,152.05L127.84,153.99L128.74,155.64L128.71,155.98L127.98,156.15L127.03,154.53L126.78,153.62L126.76,149.83L119.61,136.50L120.43,136.27z"/><path style="fill:#fffe02" d="M94.03,137.30L93.68,137.82L93.68,137.22L93.98,137.15z"/><path style="fill:#fffe02" d="M91.55,139.23L91.00,139.81L91.21,139.12z"/><path style="fill:#fffe02" d="M138.17,140.06L139.17,142.11L139.18,144.70L136.78,148.33L136.44,147.85L138.35,144.99L138.50,144.52L138.62,143.20L138.50,143.10L137.29,140.35L138.07,139.93z"/><path style="fill:#fffe02" d="M90.98,140.08L90.64,140.58L90.62,140.02L91.00,139.81z"/><path style="fill:#fffe02" d="M82.17,143.64L81.63,144.23L81.84,143.54z"/><path style="fill:#fffe02" d="M81.61,144.50L81.27,144.99L81.24,144.44L81.63,144.23z"/><path style="fill:#fffe02" d="M77.75,144.19L76.56,145.80L76.53,145.24L77.60,144.03z"/><path style="fill:#fffe02" d="M131.20,154.61L130.79,155.10L130.36,155.03L130.11,153.33L130.92,152.87z"/><path style="fill:#e5e401" d="M176.51,65.57L175.63,65.70L175.55,65.31L175.95,64.54z"/><path style="fill:#e5e401" d="M171.75,66.46L171.03,66.46L171.06,66.27L171.72,66.27z"/><path style="fill:#e5e401" d="M181.99,68.88L181.26,69.02L179.98,70.50L176.98,72.74L175.64,73.88L174.64,73.51L174.72,73.01L179.44,69.69L180.98,67.92z"/><path style="fill:#e5e401" d="M153.72,80.96L154.13,81.16L153.06,81.70L152.47,81.94L151.64,81.96L151.55,81.56L153.41,80.32z"/><path style="fill:#e5e401" d="M207.16,107.59L207.44,107.32L208.13,107.36L208.14,107.99L207.94,108.19L207.42,108.11z"/><path style="fill:#e5e401" d="M203.95,109.28L203.56,110.04L203.03,109.73L203.12,109.09L203.45,109.01z"/><path style="fill:#e5e401" d="M198.81,111.71L198.61,110.96L199.58,110.94L199.29,112.13z"/><path style="fill:#e5e401" d="M113.07,114.51L111.97,115.07L111.38,115.32L110.62,115.26L110.75,114.63L112.43,113.73z"/><path style="fill:#e5e401" d="M200.65,114.83L203.35,114.82L212.37,111.21L212.16,111.76L203.07,115.65L201.03,115.77L200.20,115.61L198.56,115.04L199.30,114.25z"/><path style="fill:#e5e401" d="M94.52,129.34L93.83,129.34L94.08,128.85L94.27,128.85z"/><path style="fill:#e5e401" d="M147.43,153.69L147.00,154.36L146.15,154.19L146.02,153.81L146.52,153.39z"/><path style="fill:#e5e401" d="M142.89,158.28L143.16,157.80L144.40,157.80L144.19,158.53L143.94,158.50z"/><path style="fill:#e5e401" d="M140.14,162.68L140.15,161.96L141.37,161.93L141.19,162.90z"/><path style="fill:#e5e401" d="M141.92,166.39L143.79,166.40L145.31,165.77L144.57,166.63L143.14,167.19L141.73,167.18L139.69,166.67L139.28,166.37L140.01,165.83z"/><path style="fill:#ffffff" d="M172.36,71.90L170.52,72.63L168.79,73.03L169.34,72.03L169.60,71.74L171.25,71.63z"/><path style="fill:#ffffff" d="M165.53,78.39L162.26,80.64L161.34,80.75L163.18,78.79L163.31,78.30L166.57,77.15L166.85,77.26z"/><path style="fill:#ffffff" d="M155.53,81.05L155.22,81.59L154.17,81.98L153.06,81.70L154.13,81.16L154.83,80.86z"/><path style="fill:#ffffff" d="M149.17,88.01L149.05,87.33L149.48,86.37L149.74,86.09L151.03,86.11z"/><path style="fill:#ffffff" d="M121.44,113.99L117.22,115.34L111.97,115.07L113.07,114.51L124.91,110.78L125.50,110.93z"/><path style="fill:#ffffff" d="M113.34,119.88L112.15,120.42L105.69,122.46L107.22,120.46L107.56,119.74L113.25,119.79z"/><path style="fill:#ffffff" d="M94.49,132.27L92.84,133.93L91.28,134.52L92.55,131.98L93.20,131.32L95.31,131.05z"/><path style="fill:#ffffff" d="M147.00,154.36L147.74,155.08L147.17,155.11L146.15,154.19z"/><path style="fill:#ffffff" d="M144.71,159.22L143.84,159.24L143.10,158.63L143.94,158.50L144.19,158.53z"/><path style="fill:#ffffff" d="M141.19,162.90L141.76,163.49L141.22,163.59L140.26,163.06L140.14,162.68z"/><g id="Actor_.0"><g style="stroke:#000000;stroke-width:0.176"><path d="M194.11,72.83 C193.80,72.77 193.80,72.77 193.50,72.69 C193.38,72.63 193.38,72.63 193.26,72.57 C193.21,72.53 193.21,72.53 193.16,72.49 C193.11,72.45 193.11,72.45 193.07,72.41 C193.02,72.30 193.02,72.30 192.96,72.20 "/><path d="M195.87,70.52 C196.05,70.83 196.05,70.83 196.25,71.12 C196.49,71.37 196.49,71.37 196.74,71.61 C196.80,71.65 196.81,71.65 196.87,71.69 "/><path d="M192.95,71.78 C192.77,71.64 192.77,71.64 192.59,71.49 C192.52,71.39 192.52,71.39 192.45,71.29 C192.42,71.22 192.42,71.22 192.40,71.16 C192.38,71.09 192.38,71.09 192.37,71.02 C192.36,70.95 192.36,70.95 192.36,70.87 C192.37,70.75 192.37,70.75 192.38,70.64 "/><path d="M195.43,69.02 C195.49,69.39 195.49,69.39 195.56,69.75 C195.69,70.12 195.70,70.11 195.84,70.47 C195.85,70.50 195.85,70.50 195.87,70.52 "/><path d="M197.29,71.90 C197.03,71.77 197.02,71.77 196.77,71.62 C196.52,71.38 196.52,71.37 196.28,71.12 C196.06,70.80 196.06,70.80 195.86,70.47 C195.71,70.11 195.71,70.11 195.58,69.74 C195.50,69.37 195.50,69.37 195.45,69.00 C195.46,68.67 195.46,68.67 195.49,68.34 "/><path d="M197.59,71.77 C197.33,71.64 197.33,71.64 197.07,71.49 C196.82,71.25 196.82,71.24 196.58,70.99 C196.36,70.67 196.37,70.67 196.16,70.34 C196.09,70.17 196.10,70.17 196.03,70.00 C195.95,69.81 195.95,69.81 195.88,69.61 C195.81,69.24 195.80,69.24 195.75,68.87 C195.76,68.54 195.76,68.54 195.79,68.21 "/><path d="M196.49,70.73 C196.36,70.53 196.36,70.52 196.23,70.31 C196.08,69.96 196.08,69.95 195.95,69.59 C195.88,69.24 195.87,69.23 195.82,68.87 C195.83,68.55 195.83,68.54 195.86,68.22 "/><path d="M197.86,67.88 C198.09,68.16 198.10,68.16 198.31,68.45 C198.49,68.79 198.49,68.79 198.66,69.14 C198.77,69.50 198.77,69.50 198.87,69.87 C198.90,70.21 198.90,70.22 198.91,70.56 C198.86,70.85 198.86,70.86 198.79,71.15 "/><path d="M197.63,71.71 C197.37,71.58 197.36,71.58 197.11,71.43 C196.87,71.19 196.87,71.19 196.63,70.95 C196.56,70.84 196.56,70.84 196.49,70.73 "/><path d="M196.43,68.87 C196.42,69.00 196.42,69.00 196.42,69.13 C196.45,69.35 196.45,69.35 196.49,69.57 C196.58,69.79 196.58,69.80 196.67,70.02 C196.79,70.21 196.79,70.21 196.91,70.40 C197.06,70.56 197.06,70.56 197.21,70.70 C197.36,70.79 197.37,70.79 197.52,70.87 "/><path d="M198.24,70.53 C198.28,70.35 198.28,70.35 198.31,70.17 C198.30,69.96 198.30,69.95 198.29,69.74 C198.23,69.52 198.23,69.52 198.16,69.30 C198.06,69.08 198.06,69.08 197.95,68.88 C197.81,68.70 197.81,68.70 197.67,68.53 C197.52,68.41 197.52,68.41 197.36,68.29 "/><path d="M196.45,68.76 C196.44,68.95 196.44,68.95 196.43,69.14 C196.46,69.36 196.46,69.36 196.51,69.58 C196.59,69.79 196.59,69.80 196.67,70.01 C196.79,70.20 196.79,70.20 196.92,70.39 C197.06,70.54 197.06,70.54 197.21,70.68 "/><path d="M198.17,70.51 C198.21,70.34 198.21,70.34 198.24,70.16 C198.23,69.96 198.23,69.96 198.22,69.75 C198.16,69.54 198.16,69.53 198.09,69.32 C197.99,69.12 197.99,69.12 197.89,68.92 C197.76,68.75 197.76,68.75 197.62,68.58 C197.48,68.46 197.48,68.46 197.32,68.35 "/><path d="M192.96,72.20 L192.95,71.78 L195.87,70.52 "/><path d="M192.38,70.64 L192.61,70.00 L192.53,69.98 L192.53,69.93 "/><path d="M192.61,70.00 L195.44,68.78 L195.43,69.02 "/><path d="M197.78,71.95 L197.29,71.90 "/><path d="M195.49,68.34 L195.70,67.82 L196.05,67.51 "/><path d="M198.09,71.82 L197.59,71.77 "/><path d="M195.79,68.21 L196.00,67.69 L196.35,67.38 "/><path d="M195.86,68.22 L196.06,67.72 L196.41,67.41 L196.86,67.33 L197.36,67.50 L197.62,67.70 L197.86,67.88 "/><path d="M198.79,71.15 L198.51,71.56 L198.11,71.75 L197.63,71.71 "/><path d="M197.52,70.87 L197.82,70.90 L198.07,70.78 L198.24,70.53 "/><path d="M197.36,68.29 L197.05,68.19 L196.78,68.24 L196.57,68.43 L196.44,68.74 L196.43,68.87 "/><path d="M195.44,68.78 L195.47,68.44 "/><path d="M196.45,68.76 L196.57,68.46 "/><path d="M197.20,70.68 L197.50,70.84 "/><path d="M197.50,70.84 L197.77,70.86 L198.00,70.75 L198.17,70.51 "/><path d="M197.32,68.35 L197.03,68.25 L196.77,68.29 "/><path d="M196.57,68.47 L196.76,68.30 "/><path d="M197.77,70.86 L197.78,70.87 "/></g><g style="stroke:#000000;stroke-width:0.529"><path d="M197.34,67.47 C197.61,67.66 197.61,67.66 197.86,67.87 C198.10,68.15 198.10,68.15 198.32,68.44 C198.50,68.78 198.50,68.79 198.67,69.13 C198.78,69.50 198.78,69.50 198.88,69.87 C198.91,70.22 198.91,70.23 198.92,70.58 C198.87,70.88 198.87,70.88 198.80,71.18 "/><path d="M193.22,72.66 C193.05,72.53 193.05,72.53 192.89,72.41 C192.83,72.33 192.83,72.33 192.77,72.26 C192.69,72.15 192.68,72.15 192.60,72.04 C192.49,71.82 192.48,71.82 192.38,71.60 C192.31,71.37 192.30,71.36 192.24,71.13 C192.22,70.91 192.22,70.90 192.21,70.68 C192.25,70.49 192.25,70.49 192.29,70.30 "/><path d="M192.29,70.30 C192.41,70.11 192.41,70.11 192.53,69.93 C192.57,69.88 192.57,69.88 192.62,69.84 C192.80,69.71 192.80,69.71 193.00,69.58 C193.24,69.43 193.24,69.43 193.48,69.29 "/><path d="M195.47,68.44 L195.47,68.36 L195.69,67.83 L196.05,67.51 L196.35,67.38 L196.83,67.30 L197.34,67.47 "/><path d="M198.80,71.18 L198.51,71.61 L198.09,71.82 L197.78,71.95 L197.27,71.90 L196.87,71.69 L194.17,72.85 L193.54,72.76 L193.22,72.66 "/><path d="M193.48,69.29 L195.47,68.44 "/></g></g><g id="Actor_.1"><g style="stroke:#000000;stroke-width:0.176"><path d="M206.10,94.73 C205.80,94.66 205.80,94.66 205.50,94.59 C205.37,94.53 205.37,94.53 205.25,94.47 C205.20,94.43 205.20,94.43 205.15,94.39 C205.11,94.35 205.11,94.35 205.07,94.31 C205.01,94.20 205.01,94.20 204.95,94.09 "/><path d="M204.95,93.68 C204.76,93.54 204.76,93.54 204.59,93.39 C204.51,93.29 204.51,93.29 204.44,93.18 C204.41,93.12 204.41,93.12 204.39,93.06 C204.37,92.99 204.37,92.99 204.36,92.92 C204.35,92.85 204.35,92.85 204.35,92.77 C204.36,92.65 204.36,92.65 204.37,92.54 "/><path d="M207.86,92.42 C208.05,92.73 208.05,92.73 208.25,93.02 C208.48,93.27 208.49,93.27 208.74,93.51 C208.80,93.55 208.80,93.55 208.87,93.58 "/><path d="M207.42,90.92 C207.48,91.29 207.48,91.29 207.55,91.65 C207.69,92.01 207.69,92.01 207.83,92.37 C207.85,92.40 207.85,92.40 207.86,92.42 "/><path d="M209.29,93.80 C209.02,93.67 209.02,93.66 208.76,93.51 C208.51,93.28 208.51,93.27 208.27,93.02 C208.06,92.70 208.06,92.70 207.86,92.37 C207.71,92.01 207.71,92.01 207.57,91.64 C207.50,91.27 207.50,91.27 207.44,90.90 C207.45,90.70 207.45,90.70 207.47,90.49 C207.47,90.36 207.47,90.36 207.48,90.24 "/><path d="M209.59,93.67 C209.32,93.54 209.32,93.53 209.07,93.38 C208.81,93.15 208.81,93.14 208.57,92.89 C208.36,92.57 208.36,92.57 208.16,92.24 C208.08,92.06 208.09,92.06 208.02,91.88 C207.94,91.69 207.94,91.69 207.87,91.51 C207.80,91.14 207.80,91.14 207.74,90.77 C207.75,90.44 207.75,90.44 207.78,90.11 "/><path d="M208.92,93.14 C208.77,92.99 208.77,92.99 208.62,92.84 C208.42,92.53 208.42,92.53 208.22,92.21 C208.07,91.85 208.07,91.85 207.94,91.49 C207.87,91.13 207.87,91.13 207.81,90.77 C207.83,90.45 207.83,90.44 207.85,90.12 "/><path d="M209.35,89.40 C209.61,89.58 209.61,89.58 209.86,89.78 C210.09,90.06 210.09,90.06 210.31,90.35 C210.49,90.69 210.49,90.69 210.65,91.04 C210.76,91.40 210.77,91.40 210.86,91.77 C210.89,92.11 210.89,92.11 210.91,92.46 C210.85,92.75 210.85,92.76 210.78,93.05 "/><path d="M208.92,92.31 C208.79,92.12 208.78,92.11 208.66,91.91 C208.57,91.70 208.57,91.70 208.49,91.47 C208.45,91.25 208.45,91.25 208.41,91.03 C208.42,90.83 208.42,90.83 208.44,90.63 "/><path d="M209.36,90.19 C209.51,90.30 209.51,90.31 209.66,90.43 C209.81,90.60 209.81,90.60 209.94,90.77 C210.05,90.98 210.05,90.98 210.15,91.19 C210.22,91.42 210.22,91.42 210.28,91.64 C210.30,91.85 210.30,91.86 210.31,92.07 C210.27,92.25 210.27,92.25 210.23,92.43 "/><path d="M209.20,92.58 C209.05,92.43 209.05,92.43 208.90,92.27 C208.78,92.09 208.78,92.09 208.67,91.91 C208.58,91.69 208.58,91.69 208.50,91.48 C208.46,91.26 208.46,91.26 208.42,91.04 C208.43,90.85 208.43,90.85 208.45,90.65 "/><path d="M209.32,90.25 C209.47,90.36 209.47,90.36 209.62,90.48 C209.75,90.64 209.75,90.64 209.88,90.81 C209.99,91.01 209.99,91.02 210.09,91.22 C210.15,91.43 210.15,91.43 210.21,91.65 C210.23,91.86 210.23,91.86 210.24,92.06 C210.20,92.24 210.20,92.24 210.16,92.41 "/><path d="M204.95,94.09 L204.95,93.68 "/><path d="M204.37,92.54 L204.60,91.90 L204.53,91.88 L204.53,91.83 "/><path d="M204.95,93.68 L207.86,92.42 "/><path d="M204.60,91.90 L207.44,90.68 L207.42,90.92 "/><path d="M209.78,93.85 L209.29,93.80 "/><path d="M207.48,90.24 L207.69,89.72 L208.04,89.41 "/><path d="M210.08,93.72 L209.59,93.67 "/><path d="M207.78,90.11 L207.99,89.59 L208.34,89.28 "/><path d="M207.44,90.68 L207.46,90.34 "/><path d="M207.85,90.12 L208.06,89.62 L208.40,89.31 L208.85,89.23 L209.35,89.40 "/><path d="M210.78,93.05 L210.50,93.46 L210.10,93.65 L209.62,93.61 L209.11,93.33 L208.92,93.14 "/><path d="M208.44,90.63 L208.56,90.32 L208.77,90.14 L209.05,90.09 L209.36,90.19 "/><path d="M210.23,92.43 L210.06,92.68 L209.81,92.80 L209.52,92.77 L209.21,92.60 L208.92,92.31 "/><path d="M208.57,90.36 L208.76,90.20 L209.02,90.15 L209.32,90.25 "/><path d="M210.16,92.41 L210.00,92.65 L209.77,92.76 "/><path d="M208.57,90.37 L208.45,90.66 "/><path d="M208.76,90.20 L208.77,90.19 "/><path d="M209.77,92.76 L209.50,92.74 "/><path d="M209.50,92.74 L209.20,92.58 "/></g><g style="stroke:#000000;stroke-width:0.529"><path d="M207.46,90.34 C206.46,90.76 206.46,90.76 205.47,91.19 C205.23,91.33 205.23,91.33 204.99,91.48 C204.80,91.61 204.80,91.61 204.61,91.74 C204.57,91.78 204.57,91.78 204.53,91.83 C204.41,92.01 204.41,92.01 204.29,92.20 "/><path d="M204.29,92.20 C204.24,92.39 204.24,92.39 204.21,92.58 C204.22,92.80 204.22,92.80 204.24,93.03 C204.30,93.26 204.30,93.26 204.37,93.50 C204.48,93.72 204.48,93.72 204.59,93.94 C204.74,94.13 204.74,94.13 204.88,94.31 C205.04,94.43 205.04,94.43 205.21,94.55 "/><path d="M210.79,93.08 C210.86,92.79 210.86,92.78 210.92,92.48 C210.90,92.13 210.90,92.13 210.87,91.77 C210.78,91.40 210.78,91.40 210.66,91.03 C210.50,90.68 210.49,90.68 210.31,90.34 C210.09,90.05 210.09,90.05 209.86,89.77 C209.60,89.56 209.60,89.56 209.34,89.37 "/><path d="M205.21,94.55 L205.53,94.66 L206.16,94.75 L208.87,93.58 L209.26,93.80 L209.78,93.85 L210.08,93.72 L210.50,93.51 L210.79,93.08 "/><path d="M209.34,89.37 L208.83,89.20 L208.34,89.28 L208.04,89.41 L207.68,89.73 L207.47,90.25 L207.46,90.34 "/></g></g><g id="Actor_.2"><g style="stroke:#000000;stroke-width:0.176"><path d="M120.57,131.11 C120.63,131.21 120.63,131.22 120.68,131.32 C120.72,131.36 120.72,131.36 120.77,131.40 C120.82,131.44 120.82,131.44 120.87,131.48 C120.99,131.54 120.99,131.54 121.11,131.60 "/><path d="M120.56,130.69 C120.38,130.55 120.38,130.55 120.20,130.41 C120.13,130.30 120.13,130.30 120.06,130.20 C120.03,130.14 120.03,130.13 120.01,130.07 C119.99,130.00 119.99,130.00 119.98,129.94 C119.97,129.86 119.97,129.86 119.97,129.78 C119.98,129.67 119.98,129.67 119.99,129.55 "/><path d="M123.04,127.93 C123.10,128.30 123.10,128.30 123.17,128.67 C123.30,129.03 123.31,129.03 123.45,129.38 C123.46,129.41 123.46,129.41 123.48,129.44 "/><path d="M123.10,127.25 C123.07,127.58 123.07,127.58 123.06,127.91 C123.11,128.28 123.11,128.29 123.19,128.65 C123.32,129.02 123.32,129.02 123.47,129.39 C123.67,129.71 123.67,129.71 123.89,130.03 C124.13,130.29 124.13,130.29 124.38,130.53 C124.63,130.68 124.64,130.68 124.90,130.81 "/><path d="M125.20,130.68 C124.94,130.55 124.94,130.55 124.68,130.40 C124.43,130.16 124.43,130.16 124.19,129.90 C123.98,129.58 123.98,129.58 123.78,129.26 C123.70,129.07 123.70,129.07 123.63,128.89 C123.56,128.71 123.56,128.71 123.49,128.52 C123.42,128.16 123.42,128.15 123.36,127.78 C123.37,127.45 123.37,127.45 123.40,127.12 "/><path d="M124.22,128.78 C124.16,128.64 124.16,128.63 124.11,128.49 C124.06,128.27 124.06,128.27 124.03,128.04 C124.04,127.85 124.04,127.84 124.05,127.65 "/><path d="M124.97,127.20 C125.13,127.32 125.13,127.32 125.28,127.44 C125.34,127.51 125.34,127.51 125.39,127.58 C125.47,127.68 125.48,127.68 125.56,127.79 C125.67,128.00 125.67,128.00 125.77,128.21 C125.84,128.43 125.84,128.43 125.90,128.65 C125.91,128.87 125.92,128.87 125.92,129.08 C125.89,129.26 125.89,129.26 125.85,129.44 "/><path d="M125.13,129.78 C124.98,129.70 124.97,129.70 124.82,129.61 C124.67,129.47 124.67,129.47 124.53,129.32 C124.40,129.12 124.40,129.12 124.28,128.93 C124.25,128.86 124.25,128.85 124.22,128.78 "/><path d="M123.64,128.71 C123.73,128.97 123.73,128.97 123.84,129.22 C124.03,129.54 124.03,129.55 124.24,129.86 C124.48,130.10 124.48,130.11 124.73,130.34 C124.97,130.49 124.98,130.49 125.24,130.62 "/><path d="M126.40,130.06 C126.47,129.77 126.47,129.77 126.52,129.47 C126.51,129.14 126.51,129.13 126.48,128.80 C126.38,128.42 126.38,128.42 126.27,128.05 C126.10,127.70 126.10,127.70 125.92,127.36 C125.71,127.08 125.70,127.07 125.47,126.80 C125.23,126.60 125.23,126.60 124.97,126.41 "/><path d="M123.47,127.13 C123.44,127.46 123.44,127.46 123.43,127.78 C123.49,128.14 123.49,128.15 123.56,128.51 C123.59,128.61 123.59,128.61 123.64,128.71 "/><path d="M124.82,129.59 C124.67,129.45 124.67,129.45 124.53,129.30 C124.40,129.11 124.40,129.11 124.29,128.92 C124.23,128.80 124.24,128.80 124.19,128.67 C124.15,128.58 124.15,128.58 124.12,128.49 C124.08,128.27 124.07,128.27 124.04,128.06 C124.05,127.86 124.05,127.86 124.06,127.67 "/><path d="M124.93,127.26 C125.09,127.38 125.09,127.38 125.23,127.49 C125.29,127.56 125.29,127.57 125.35,127.64 C125.42,127.73 125.43,127.73 125.50,127.83 C125.60,128.03 125.61,128.03 125.70,128.23 C125.77,128.45 125.77,128.45 125.83,128.66 C125.84,128.87 125.84,128.87 125.85,129.08 C125.82,129.25 125.82,129.25 125.78,129.42 "/><path d="M124.48,130.60 L124.35,130.52 L123.86,130.03 L123.48,129.44 L120.56,130.69 L120.57,131.11 "/><path d="M121.11,131.60 L121.72,131.75 "/><path d="M119.99,129.55 L120.22,128.91 L120.14,128.89 L120.14,128.84 "/><path d="M120.22,128.91 L123.05,127.69 L123.04,127.93 "/><path d="M123.66,126.42 L123.31,126.74 L123.10,127.25 "/><path d="M124.90,130.81 L125.39,130.86 "/><path d="M123.05,127.69 L123.08,127.35 "/><path d="M125.70,130.73 L125.20,130.68 "/><path d="M123.40,127.12 L123.61,126.61 L123.96,126.29 "/><path d="M124.05,127.65 L124.18,127.34 L124.39,127.15 L124.66,127.10 L124.97,127.20 "/><path d="M125.85,129.44 L125.68,129.69 L125.43,129.81 L125.13,129.78 "/><path d="M125.24,130.62 L125.72,130.66 L126.12,130.47 L126.40,130.06 "/><path d="M124.97,126.41 L124.47,126.25 L124.02,126.32 L123.67,126.63 L123.47,127.13 "/><path d="M124.06,127.68 L124.18,127.38 "/><path d="M124.18,127.38 L124.37,127.21 L124.64,127.17 L124.93,127.26 "/><path d="M125.78,129.42 L125.61,129.66 L125.39,129.78 "/><path d="M124.81,129.59 L125.11,129.75 "/><path d="M125.11,129.75 L125.38,129.78 "/><path d="M124.38,127.20 L124.37,127.21 "/></g><g style="stroke:#000000;stroke-width:0.529"><path d="M123.08,127.35 C122.08,127.77 122.08,127.77 121.09,128.21 C120.84,128.34 120.85,128.35 120.61,128.49 C120.42,128.62 120.41,128.62 120.23,128.75 C120.18,128.79 120.18,128.79 120.14,128.84 C120.02,129.03 120.02,129.03 119.90,129.21 "/><path d="M119.90,129.21 C119.86,129.40 119.86,129.40 119.83,129.59 C119.83,129.82 119.83,129.82 119.85,130.04 C119.92,130.28 119.92,130.28 119.99,130.51 C120.09,130.73 120.09,130.73 120.21,130.95 C120.35,131.14 120.35,131.14 120.50,131.32 C120.66,131.45 120.66,131.45 120.83,131.57 "/><path d="M126.41,130.09 C126.48,129.80 126.48,129.80 126.53,129.50 C126.52,129.14 126.52,129.14 126.49,128.79 C126.39,128.41 126.39,128.41 126.28,128.05 C126.17,127.81 126.16,127.81 126.04,127.58 C125.99,127.47 125.99,127.46 125.93,127.35 C125.70,127.06 125.71,127.06 125.47,126.78 C125.22,126.57 125.22,126.57 124.95,126.38 "/><path d="M120.83,131.57 L121.15,131.67 L121.78,131.76 L124.48,130.60 L124.88,130.81 L125.39,130.86 L125.70,130.73 L126.12,130.52 L126.41,130.09 "/><path d="M124.95,126.38 L124.44,126.21 L123.96,126.29 L123.66,126.42 L123.30,126.74 L123.08,127.27 L123.08,127.35 "/></g></g><g id="Actor_.3"><g style="stroke:#000000;stroke-width:0.176"><path d="M186.58,100.54 C186.28,100.47 186.28,100.47 185.98,100.40 C185.86,100.34 185.86,100.34 185.74,100.28 C185.68,100.24 185.68,100.24 185.63,100.20 C185.59,100.16 185.59,100.16 185.55,100.12 C185.49,100.01 185.49,100.01 185.44,99.90 "/><path d="M185.43,99.49 C185.25,99.35 185.25,99.35 185.07,99.20 C184.99,99.10 185.00,99.10 184.93,98.99 C184.90,98.93 184.90,98.93 184.87,98.87 C184.86,98.80 184.86,98.80 184.84,98.73 C184.84,98.66 184.84,98.65 184.83,98.58 C184.84,98.46 184.84,98.46 184.86,98.35 "/><path d="M189.77,99.61 C189.51,99.47 189.50,99.47 189.25,99.32 C189.00,99.08 188.99,99.08 188.75,98.83 C188.54,98.51 188.54,98.51 188.34,98.18 C188.19,97.82 188.19,97.82 188.05,97.45 C187.98,97.08 187.98,97.08 187.92,96.71 C187.93,96.55 187.94,96.55 187.95,96.38 C187.96,96.21 187.96,96.21 187.97,96.05 "/><path d="M190.07,99.48 C189.81,99.34 189.80,99.34 189.55,99.19 C189.30,98.95 189.30,98.95 189.06,98.70 C188.84,98.38 188.85,98.38 188.64,98.05 C188.57,97.87 188.57,97.87 188.50,97.69 C188.43,97.50 188.42,97.50 188.36,97.32 C188.29,96.95 188.28,96.95 188.23,96.58 C188.24,96.25 188.24,96.25 188.27,95.92 "/><path d="M188.59,97.72 C188.50,97.51 188.50,97.51 188.42,97.30 C188.36,96.94 188.35,96.94 188.30,96.58 C188.31,96.26 188.31,96.25 188.34,95.93 "/><path d="M189.84,95.21 C190.09,95.39 190.10,95.39 190.34,95.59 C190.57,95.87 190.57,95.87 190.79,96.16 C190.97,96.50 190.97,96.50 191.14,96.84 C191.25,97.21 191.25,97.21 191.35,97.57 C191.38,97.92 191.38,97.92 191.39,98.27 C191.34,98.56 191.34,98.57 191.27,98.85 "/><path d="M190.10,99.42 C189.85,99.28 189.84,99.28 189.59,99.14 C189.35,98.90 189.34,98.90 189.11,98.65 C188.90,98.34 188.90,98.34 188.71,98.02 C188.64,97.87 188.64,97.87 188.59,97.72 "/><path d="M190.72,98.24 C190.76,98.06 190.76,98.06 190.79,97.88 C190.78,97.66 190.78,97.66 190.76,97.45 C190.72,97.27 190.71,97.27 190.66,97.10 C190.65,97.05 190.65,97.05 190.64,97.00 C190.53,96.79 190.54,96.79 190.42,96.58 C190.29,96.41 190.29,96.41 190.15,96.24 C190.00,96.11 190.00,96.11 189.84,96.00 "/><path d="M188.92,96.44 C188.90,96.64 188.90,96.64 188.90,96.84 C188.93,97.06 188.93,97.06 188.97,97.28 C189.06,97.50 189.06,97.51 189.15,97.72 C189.27,97.92 189.27,97.92 189.39,98.11 C189.51,98.23 189.51,98.24 189.63,98.35 "/><path d="M189.68,98.38 C189.54,98.25 189.54,98.24 189.40,98.10 C189.27,97.91 189.27,97.91 189.15,97.72 C189.07,97.50 189.06,97.50 188.98,97.29 C188.94,97.07 188.94,97.07 188.91,96.85 C188.92,96.66 188.92,96.66 188.93,96.46 "/><path d="M190.65,98.22 C190.69,98.05 190.69,98.04 190.72,97.87 C190.71,97.67 190.71,97.66 190.69,97.46 C190.64,97.24 190.64,97.24 190.57,97.03 C190.47,96.82 190.47,96.82 190.37,96.62 C190.24,96.45 190.24,96.45 190.10,96.29 C189.96,96.17 189.95,96.17 189.80,96.06 "/><path d="M185.44,99.90 L185.43,99.49 "/><path d="M184.86,98.35 L185.09,97.71 L185.01,97.68 L185.01,97.64 "/><path d="M185.09,97.71 L187.92,96.49 L187.91,96.73 L188.04,97.46 L188.34,98.23 L185.43,99.49 "/><path d="M190.26,99.65 L189.77,99.61 "/><path d="M187.97,96.05 L188.17,95.53 L188.53,95.22 "/><path d="M189.35,99.39 L189.22,99.32 L188.73,98.83 L188.35,98.23 "/><path d="M190.56,99.52 L190.07,99.48 "/><path d="M188.27,95.92 L188.48,95.40 L188.83,95.09 "/><path d="M188.34,95.93 L188.54,95.42 L188.89,95.12 L189.33,95.04 L189.84,95.21 "/><path d="M191.27,98.85 L190.99,99.27 L190.85,99.33 L190.59,99.46 L190.10,99.42 "/><path d="M187.92,96.49 L187.94,96.15 "/><path d="M189.63,98.35 L189.69,98.41 L190.00,98.58 L190.30,98.61 L190.54,98.49 L190.72,98.24 "/><path d="M189.84,96.00 L189.53,95.90 L189.26,95.95 L189.05,96.13 L188.92,96.44 "/><path d="M189.69,98.39 L189.98,98.55 "/><path d="M190.26,98.57 L190.48,98.46 L190.65,98.22 "/><path d="M189.80,96.06 L189.50,95.96 L189.25,96.00 "/><path d="M189.24,96.01 L189.05,96.17 "/><path d="M189.05,96.18 L188.93,96.47 "/><path d="M189.98,98.55 L190.25,98.57 "/></g><g style="stroke:#000000;stroke-width:0.529"><path d="M187.94,96.15 C186.95,96.57 186.95,96.57 185.96,97.00 C185.71,97.14 185.71,97.14 185.47,97.29 C185.28,97.42 185.28,97.42 185.09,97.55 C185.05,97.59 185.05,97.59 185.01,97.64 C184.89,97.82 184.89,97.82 184.77,98.01 "/><path d="M184.77,98.01 C184.73,98.20 184.73,98.20 184.69,98.39 C184.70,98.61 184.70,98.61 184.72,98.84 C184.78,99.07 184.78,99.07 184.85,99.31 C184.96,99.53 184.96,99.53 185.08,99.75 C185.14,99.83 185.14,99.83 185.20,99.90 C185.29,100.01 185.28,100.01 185.37,100.11 C185.53,100.24 185.53,100.24 185.69,100.36 "/><path d="M191.28,98.89 C191.35,98.60 191.35,98.59 191.40,98.29 C191.39,97.94 191.39,97.94 191.36,97.58 C191.26,97.21 191.26,97.21 191.15,96.84 C191.00,96.54 191.00,96.55 190.85,96.25 C190.82,96.20 190.82,96.20 190.80,96.15 C190.57,95.86 190.57,95.86 190.34,95.57 C190.09,95.37 190.09,95.37 189.82,95.18 "/><path d="M185.69,100.36 L186.02,100.47 L186.64,100.56 L189.35,99.39 L189.75,99.61 L190.26,99.65 L190.56,99.52 L190.99,99.32 L191.28,98.89 "/><path d="M189.82,95.18 L189.31,95.01 L188.83,95.09 L188.53,95.22 L188.16,95.54 L187.95,96.06 L187.94,96.15 "/></g></g><g id="Actor_.4"><g style="stroke:#000000;stroke-width:0.176"><path d="M145.12,109.53 C144.82,109.47 144.82,109.47 144.51,109.39 C144.39,109.33 144.39,109.33 144.27,109.27 C144.22,109.23 144.22,109.23 144.17,109.19 C144.13,109.15 144.13,109.15 144.09,109.11 C144.03,109.00 144.03,109.00 143.97,108.90 "/><path d="M143.97,108.48 C143.78,108.34 143.78,108.34 143.60,108.19 C143.53,108.09 143.53,108.09 143.46,107.99 C143.43,107.92 143.43,107.92 143.41,107.86 C143.39,107.79 143.39,107.79 143.38,107.72 C143.37,107.65 143.37,107.65 143.37,107.57 C143.38,107.45 143.38,107.45 143.39,107.34 "/><path d="M146.88,107.22 C147.07,107.53 147.07,107.53 147.26,107.82 C147.50,108.07 147.51,108.07 147.75,108.31 C147.82,108.35 147.82,108.35 147.89,108.39 "/><path d="M146.44,105.72 C146.50,106.09 146.50,106.09 146.57,106.45 C146.71,106.82 146.71,106.81 146.85,107.17 C146.87,107.20 146.87,107.20 146.88,107.22 "/><path d="M148.30,108.60 C148.04,108.47 148.04,108.47 147.78,108.32 C147.53,108.08 147.53,108.07 147.29,107.82 C147.08,107.50 147.08,107.50 146.88,107.17 C146.80,106.99 146.80,106.99 146.73,106.81 C146.66,106.62 146.66,106.63 146.59,106.44 C146.52,106.07 146.52,106.07 146.46,105.70 C146.47,105.37 146.47,105.37 146.50,105.04 "/><path d="M148.61,108.47 C148.34,108.34 148.34,108.34 148.08,108.19 C147.83,107.95 147.83,107.94 147.59,107.69 C147.51,107.57 147.51,107.57 147.43,107.44 C147.31,107.24 147.30,107.25 147.18,107.04 C147.03,106.68 147.03,106.68 146.89,106.31 C146.82,105.94 146.82,105.94 146.76,105.57 C146.77,105.24 146.77,105.24 146.80,104.91 "/><path d="M147.94,107.94 C147.79,107.80 147.79,107.79 147.64,107.65 C147.44,107.33 147.44,107.33 147.24,107.01 C147.09,106.66 147.09,106.65 146.96,106.29 C146.89,105.94 146.89,105.93 146.83,105.57 C146.84,105.25 146.85,105.25 146.87,104.92 "/><path d="M148.37,104.20 C148.63,104.38 148.63,104.39 148.88,104.58 C149.11,104.86 149.11,104.86 149.33,105.15 C149.51,105.49 149.51,105.49 149.67,105.84 C149.78,106.20 149.79,106.20 149.88,106.57 C149.91,106.91 149.91,106.91 149.92,107.26 C149.87,107.55 149.87,107.56 149.80,107.85 "/><path d="M149.25,107.23 C149.29,107.05 149.29,107.05 149.33,106.87 C149.32,106.66 149.32,106.66 149.30,106.44 C149.26,106.29 149.25,106.29 149.21,106.13 C149.19,106.06 149.19,106.06 149.17,106.00 C149.07,105.78 149.07,105.78 148.96,105.58 C148.83,105.40 148.83,105.40 148.68,105.23 C148.53,105.11 148.53,105.11 148.38,104.99 "/><path d="M147.45,105.54 C147.44,105.69 147.44,105.69 147.43,105.83 C147.47,106.05 147.47,106.06 147.51,106.28 C147.59,106.50 147.59,106.50 147.68,106.72 C147.80,106.91 147.80,106.91 147.93,107.10 "/><path d="M148.22,107.38 C148.08,107.24 148.08,107.24 147.94,107.09 C147.86,106.99 147.86,106.98 147.79,106.87 C147.74,106.79 147.74,106.79 147.69,106.71 C147.60,106.49 147.60,106.49 147.52,106.28 C147.48,106.06 147.48,106.06 147.44,105.84 C147.45,105.65 147.45,105.65 147.47,105.46 "/><path d="M148.34,105.05 C148.49,105.16 148.49,105.16 148.64,105.28 C148.77,105.44 148.77,105.45 148.90,105.62 C149.01,105.82 149.01,105.82 149.11,106.02 C149.17,106.23 149.17,106.24 149.23,106.45 C149.25,106.66 149.25,106.66 149.26,106.86 C149.22,107.04 149.22,107.04 149.18,107.21 "/><path d="M143.97,108.90 L143.97,108.48 "/><path d="M143.39,107.34 L143.62,106.70 L143.54,106.68 L143.55,106.63 "/><path d="M143.97,108.48 L146.88,107.22 "/><path d="M143.62,106.70 L146.46,105.48 L146.44,105.72 "/><path d="M148.80,108.65 L148.30,108.60 "/><path d="M146.50,105.04 L146.71,104.52 L147.06,104.21 "/><path d="M149.10,108.52 L148.61,108.47 "/><path d="M146.80,104.91 L147.01,104.39 L147.36,104.08 "/><path d="M146.46,105.48 L146.48,105.14 "/><path d="M146.87,104.92 L147.08,104.42 L147.42,104.11 L147.87,104.03 L148.37,104.20 "/><path d="M149.80,107.85 L149.52,108.26 L149.12,108.45 L148.64,108.41 L148.13,108.13 L147.94,107.94 "/><path d="M147.93,107.10 L148.22,107.40 L148.54,107.57 L148.83,107.60 L149.08,107.48 L149.23,107.26 L149.25,107.23 "/><path d="M148.38,104.99 L148.07,104.89 L147.79,104.94 L147.58,105.13 L147.46,105.44 L147.45,105.54 "/><path d="M147.59,105.16 L147.78,105.00 L148.04,104.95 L148.34,105.05 "/><path d="M149.18,107.21 L149.02,107.45 L148.79,107.57 "/><path d="M147.59,105.17 L147.47,105.46 "/><path d="M147.78,105.00 L147.79,104.99 "/><path d="M148.22,107.38 L148.52,107.54 "/><path d="M148.52,107.54 L148.79,107.56 "/></g><g style="stroke:#000000;stroke-width:0.529"><path d="M146.48,105.14 C145.48,105.56 145.48,105.56 144.49,105.99 C144.25,106.13 144.25,106.13 144.01,106.28 C143.82,106.41 143.82,106.41 143.63,106.54 C143.59,106.58 143.59,106.58 143.55,106.63 C143.43,106.81 143.43,106.81 143.31,107.00 "/><path d="M143.31,107.00 C143.26,107.19 143.26,107.19 143.23,107.38 C143.24,107.60 143.24,107.61 143.26,107.83 C143.32,108.06 143.32,108.07 143.39,108.30 C143.50,108.52 143.50,108.52 143.61,108.74 C143.75,108.93 143.76,108.93 143.90,109.11 C144.06,109.24 144.06,109.24 144.23,109.36 "/><path d="M149.81,107.88 C149.88,107.59 149.88,107.58 149.94,107.29 C149.92,106.93 149.92,106.93 149.89,106.57 C149.80,106.20 149.79,106.20 149.68,105.83 C149.51,105.49 149.51,105.48 149.33,105.14 C149.11,104.85 149.11,104.85 148.88,104.57 C148.62,104.36 148.62,104.36 148.36,104.17 "/><path d="M144.23,109.36 L144.55,109.46 L145.18,109.55 L147.88,108.39 L148.28,108.60 L148.80,108.65 L149.10,108.52 L149.52,108.31 L149.81,107.88 "/><path d="M148.36,104.17 L147.85,104.00 L147.36,104.08 L147.06,104.21 L146.70,104.53 L146.49,105.06 L146.48,105.14 "/></g></g><g id="Actor_.5"><g style="stroke:#000000;stroke-width:0.176"><path d="M74.25,148.21 C74.69,147.05 74.69,147.04 75.21,145.91 C76.45,144.22 76.45,144.19 77.77,142.56 C82.32,138.43 82.33,138.42 86.95,134.38 "/><path d="M92.60,130.16 C93.46,130.02 93.47,130.01 94.32,129.84 C95.47,129.44 95.48,129.44 96.62,129.01 C98.74,127.97 98.74,127.97 100.85,126.90 "/><path d="M135.45,130.14 C135.30,129.02 135.30,129.01 135.11,127.90 C134.87,127.34 134.88,127.32 134.59,126.80 C129.70,121.35 129.69,121.34 124.75,115.94 C124.28,115.60 124.26,115.59 123.76,115.31 "/><path d="M181.74,102.57 C181.15,101.50 181.15,101.49 180.61,100.40 C180.41,99.49 180.46,99.47 180.27,98.55 C179.99,97.89 179.99,97.88 179.67,97.24 "/><path d="M184.83,90.01 C185.59,83.23 185.59,83.22 186.24,76.44 C186.11,75.10 186.08,75.09 185.87,73.75 C185.59,73.03 185.58,73.02 185.25,72.32 "/><path d="M197.69,113.19 C199.18,113.94 199.19,113.94 200.70,114.64 C201.39,114.77 201.41,114.76 202.11,114.84 C202.66,114.77 202.67,114.77 203.22,114.65 "/><path d="M86.95,134.38 L86.22,133.73 "/><path d="M76.52,145.65 L76.00,145.88 L76.72,144.61 L77.81,143.52 L77.54,144.37 L76.52,145.65 "/><path d="M77.78,141.17 L78.57,141.76 "/><path d="M81.23,144.74 L80.81,144.97 L81.39,143.88 L82.30,142.95 L81.23,144.74 "/><path d="M87.01,134.33 L89.21,131.56 L88.43,130.95 "/><path d="M87.89,131.75 L88.68,132.35 "/><path d="M88.74,130.58 L89.95,130.01 L90.29,130.93 L89.89,131.04 L89.55,130.13 L95.57,125.23 "/><path d="M90.22,140.65 L90.61,139.69 L91.65,138.60 L91.33,139.46 L90.22,140.65 "/><path d="M90.34,134.37 L89.92,134.60 L91.36,132.59 L91.30,133.11 L90.34,134.37 "/><path d="M89.76,131.11 L89.23,131.54 L89.89,131.04 "/><path d="M89.95,130.01 L91.18,129.78 L92.60,130.16 "/><path d="M100.85,126.90 L101.19,127.82 "/><path d="M90.29,130.93 L92.09,130.85 L91.75,129.93 "/><path d="M91.00,135.74 L90.66,135.48 L90.63,135.77 L91.00,135.74 L93.12,134.75 L92.33,134.15 "/><path d="M90.56,135.41 L90.73,134.90 "/><path d="M92.81,131.07 L92.09,130.85 "/><path d="M93.55,137.74 L92.99,138.12 L93.56,137.04 L94.48,136.10 L93.55,137.74 "/><path d="M93.12,134.75 L94.72,133.39 L97.12,130.55 L96.71,130.03 "/><path d="M93.73,129.05 L93.48,129.25 L94.40,129.33 L96.41,128.54 L96.17,127.90 L94.36,128.53 L93.73,129.05 "/><path d="M94.63,129.25 L94.36,128.53 "/><path d="M95.76,132.21 L94.97,131.61 "/><path d="M94.86,125.63 L94.90,125.57 "/><path d="M96.03,130.31 L98.63,128.98 L98.29,128.06 "/><path d="M96.17,127.90 L97.09,127.98 L96.41,128.54 "/><path d="M97.22,130.42 L98.05,129.36 "/><path d="M98.63,128.98 L100.68,127.99 "/><path d="M100.26,123.89 L101.50,123.53 L101.87,123.06 L104.19,119.36 L104.00,118.55 L113.86,118.31 L114.18,119.17 L114.60,118.58 L113.86,118.31 "/><path d="M100.85,126.90 L112.75,123.57 L113.88,123.89 L114.54,124.70 L115.16,126.15 L114.40,126.47 "/><path d="M101.62,123.50 L105.19,122.48 "/><path d="M104.19,119.36 L103.84,119.65 L103.04,119.06 "/><path d="M103.28,118.76 L112.60,111.37 "/><path d="M104.29,119.33 L107.28,119.30 L105.95,120.73 L106.79,119.31 "/><path d="M107.30,119.30 L107.70,119.29 "/><path d="M111.29,115.30 L110.47,114.97 L112.25,113.56 L114.58,112.64 L114.92,113.56 "/><path d="M116.91,121.10 L115.70,120.87 L112.33,123.61 L112.65,124.55 "/><path d="M111.80,111.84 L111.84,111.79 "/><path d="M113.82,125.08 L114.57,124.75 L117.89,122.06 "/><path d="M120.00,136.80 L120.76,136.47 L119.97,135.48 L118.16,134.83 L116.59,133.39 L115.62,131.12 L115.67,129.00 L114.91,129.33 "/><path d="M115.67,129.00 L115.75,127.87 L115.36,126.60 L114.61,126.93 "/><path d="M115.16,126.15 L115.36,126.60 "/><path d="M114.18,119.17 L114.12,119.23 "/><path d="M126.12,110.36 L126.57,109.63 L124.68,109.58 L114.58,112.64 "/><path d="M115.70,120.87 L117.33,119.68 L117.79,120.53 "/><path d="M117.08,130.13 L117.66,129.65 L118.89,130.74 L119.24,132.54 L118.40,133.23 L118.19,133.11 "/><path d="M116.59,120.95 L116.36,120.33 "/><path d="M118.21,135.36 L118.96,135.03 "/><path d="M119.24,132.54 L118.49,132.87 "/><path d="M118.89,130.74 L118.14,131.06 "/><path d="M117.44,119.61 L120.25,117.63 L121.34,116.29 L121.78,117.11 "/><path d="M120.76,136.47 L127.26,148.34 L127.72,149.69 L127.50,151.89 L127.99,154.21 L129.33,156.16 L130.95,156.94 L130.20,157.26 "/><path d="M121.23,117.73 L120.89,116.81 "/><path d="M121.44,116.19 L175.39,72.29 L176.47,71.57 L176.82,72.49 "/><path d="M134.05,131.96 L134.78,131.68 L135.45,130.14 "/><path d="M123.76,115.31 L122.65,115.21 L122.99,116.13 "/><path d="M123.61,109.86 L123.95,110.78 "/><path d="M124.27,116.57 L125.35,115.98 L176.17,74.63 "/><path d="M127.66,150.91 L126.90,151.24 "/><path d="M127.26,148.34 L126.50,148.66 "/><path d="M128.91,136.55 L129.66,136.23 L128.92,136.14 L128.24,136.48 "/><path d="M129.07,152.03 L129.65,151.55 L130.89,152.64 L131.24,154.44 L130.35,155.16 L130.18,155.01 "/><path d="M129.66,136.23 L136.49,138.50 L137.32,138.96 L138.76,140.79 L139.40,143.12 L139.32,144.17 L136.67,148.19 "/><path d="M145.24,147.99 L134.95,162.38 L132.36,157.79 L130.95,156.94 "/><path d="M131.24,154.44 L130.48,154.77 "/><path d="M130.89,152.64 L130.13,152.96 "/><path d="M132.00,158.70 L132.75,158.37 "/><path d="M133.15,126.19 L133.90,125.86 "/><path d="M138.89,165.89 L139.26,165.21 L134.95,162.38 L134.19,162.70 "/><path d="M145.45,148.59 L134.92,163.47 "/><path d="M135.74,138.83 L136.49,138.50 "/><path d="M138.22,145.30 L138.97,144.97 "/><path d="M139.26,165.21 L140.68,165.89 L143.42,166.25 L144.63,165.89 L145.42,165.21 L145.05,165.90 "/><path d="M141.92,163.47 L142.27,163.19 L142.25,162.62 L141.40,161.82 L140.31,161.72 L139.96,162.40 "/><path d="M142.07,135.27 L142.24,135.42 L143.12,134.70 L142.77,132.89 L141.54,131.81 L140.95,132.28 "/><path d="M141.54,108.85 L142.29,108.53 L141.16,107.53 L140.48,107.92 "/><path d="M142.77,132.89 L142.02,133.22 "/><path d="M141.89,110.66 L142.65,110.33 L141.76,111.05 L141.59,110.90 "/><path d="M142.18,95.62 L154.08,85.95 L154.66,85.01 L153.58,84.72 L144.88,85.10 L144.30,85.37 "/><path d="M144.93,159.25 L145.28,158.98 L145.27,158.40 L144.55,157.68 L143.42,157.48 L143.08,157.67 L142.97,158.20 "/><path d="M143.12,134.70 L142.36,135.02 "/><path d="M142.65,110.33 L142.29,108.53 "/><path d="M142.93,95.01 L142.66,94.81 "/><path d="M142.65,89.76 L143.39,90.32 L143.37,90.61 L142.59,90.18 "/><path d="M143.38,90.77 L144.31,93.19 L144.14,94.03 "/><path d="M144.31,93.19 L143.52,92.59 "/><path d="M143.44,90.36 L145.15,86.04 L144.79,86.14 L144.12,85.63 "/><path d="M144.55,89.42 L144.78,88.66 L145.89,87.40 L145.68,88.16 L144.55,89.42 "/><path d="M145.42,165.21 L151.45,156.78 "/><path d="M145.15,86.04 L144.88,85.10 L153.53,78.06 "/><path d="M145.22,86.02 L149.66,85.82 "/><path d="M147.95,155.04 L148.30,154.76 L148.28,154.19 L147.44,153.39 L146.34,153.29 L145.99,153.98 "/><path d="M152.81,85.68 L149.47,88.97 L148.85,89.34 L148.55,89.25 L148.39,88.55 "/><path d="M150.33,88.19 L149.54,87.59 "/><path d="M151.36,85.75 L153.88,85.64 L153.54,84.72 "/><path d="M165.02,77.26 L164.68,76.34 L154.21,79.76 L151.65,81.27 L151.47,81.64 L152.31,81.92 "/><path d="M153.88,85.64 L154.33,85.67 "/><path d="M160.28,81.26 L158.27,81.66 L155.00,81.80 "/><path d="M155.75,80.24 L155.41,79.32 "/><path d="M157.67,79.65 L156.28,81.74 "/><path d="M156.23,80.08 L157.65,79.63 "/><path d="M157.69,79.62 L163.86,77.64 "/><path d="M167.84,73.47 L158.34,76.52 "/><path d="M159.73,76.07 L161.79,72.49 L162.25,72.16 L161.90,71.24 L167.92,66.35 "/><path d="M162.72,78.00 L161.40,79.38 L162.03,78.22 "/><path d="M161.23,71.59 L161.90,71.24 L172.58,70.29 L173.58,70.44 L173.13,71.21 "/><path d="M161.00,71.89 L161.79,72.49 L162.15,72.20 "/><path d="M162.25,72.16 L169.70,71.49 "/><path d="M163.66,89.05 L164.25,88.57 L165.48,89.66 L165.83,91.46 L164.95,92.18 L164.78,92.03 "/><path d="M164.73,89.98 L165.48,89.66 "/><path d="M164.68,76.34 L167.46,75.87 L167.82,76.03 L167.80,76.35 L167.38,76.79 "/><path d="M165.83,91.46 L165.08,91.79 "/><path d="M167.37,66.61 L167.39,66.58 "/><path d="M172.52,91.29 L173.27,90.96 L171.65,89.97 L170.76,89.88 L169.92,90.20 "/><path d="M176.06,62.88 L175.33,63.02 L173.13,64.64 L169.72,65.97 "/><path d="M171.87,66.40 L173.28,65.90 L174.33,65.12 L173.41,65.04 L171.65,65.66 L170.72,66.40 L171.87,66.40 L171.60,65.68 "/><path d="M172.58,70.29 L172.92,71.20 "/><path d="M184.13,103.80 L183.35,103.75 L182.53,103.33 L181.74,102.57 "/><path d="M179.67,97.24 L173.27,90.96 "/><path d="M173.64,65.68 L173.41,65.04 "/><path d="M173.13,64.64 L175.60,64.23 "/><path d="M175.31,73.55 L174.18,73.28 "/><path d="M174.53,62.43 L175.33,63.02 "/><path d="M175.39,72.29 L175.73,73.21 "/><path d="M176.38,65.59 L175.92,65.61 L175.71,65.06 L175.50,65.50 L175.92,65.61 "/><path d="M176.03,64.38 L175.71,65.06 "/><path d="M176.47,71.57 L179.28,69.59 L180.47,68.16 L180.81,69.08 "/><path d="M178.48,97.05 L179.23,96.73 "/><path d="M180.39,99.23 L179.63,99.56 "/><path d="M180.26,69.69 L179.91,68.77 "/><path d="M180.47,68.16 L181.13,67.62 L181.47,68.54 "/><path d="M184.52,64.86 L181.13,67.62 L182.11,67.72 L183.32,68.81 L186.64,66.11 "/><path d="M183.06,101.91 L183.23,102.06 L184.07,101.37 L183.76,99.53 L182.53,98.45 L181.94,98.92 "/><path d="M182.57,69.13 L183.36,68.87 L183.98,70.00 L185.20,72.24 L184.49,72.65 "/><path d="M184.07,101.37 L183.36,101.66 "/><path d="M183.76,99.53 L183.01,99.86 "/><path d="M183.43,91.77 L184.07,91.54 L184.60,90.90 L184.83,90.01 L184.08,90.33 "/><path d="M185.77,104.10 L186.52,103.78 L185.57,103.23 L184.57,103.57 "/><path d="M186.24,76.60 L185.48,76.93 "/><path d="M186.52,103.78 L192.46,109.52 L191.73,109.87 "/><path d="M189.46,71.22 L190.05,70.74 L191.28,71.83 L191.63,73.63 L190.85,74.27 L190.58,74.20 "/><path d="M196.45,99.76 L197.77,98.97 L198.08,98.23 L197.98,95.97 L197.43,94.57 L193.13,86.94 L191.61,85.81 L190.84,85.73 L190.18,86.06 "/><path d="M190.53,72.15 L191.28,71.83 "/><path d="M191.63,73.63 L190.88,73.96 "/><path d="M192.13,110.27 L192.84,109.78 L192.47,109.55 L207.33,103.47 "/><path d="M192.84,109.78 L207.69,103.87 "/><path d="M192.58,110.62 L193.03,109.87 L197.62,113.14 L197.24,113.94 "/><path d="M193.01,88.20 L193.77,87.87 "/><path d="M196.68,94.89 L197.43,94.57 "/><path d="M203.22,114.65 L202.77,115.40 "/><path d="M200.17,112.32 L200.53,112.28 L200.76,111.89 L199.88,110.90 L198.77,110.64 L198.48,110.94 L198.61,111.37 "/><path d="M201.46,93.11 L202.04,92.64 L203.27,93.73 L202.52,94.05 "/><path d="M203.22,114.65 L211.92,111.09 L212.58,110.60 "/><path d="M204.53,110.54 L204.88,110.50 L205.11,110.11 L204.15,109.07 L203.12,108.86 L202.83,109.16 L202.96,109.59 "/><path d="M203.27,93.73 L203.63,95.53 L202.74,96.25 L202.57,96.10 "/><path d="M203.63,95.53 L202.87,95.85 "/><path d="M208.88,108.76 L209.23,108.72 L209.46,108.33 L208.50,107.29 L207.47,107.08 L207.18,107.38 L207.31,107.81 "/><path d="M211.92,111.09 L211.47,111.84 "/></g><g style="stroke:#000000;stroke-width:0.529"><path d="M100.68,127.99 C98.90,130.22 98.90,130.23 97.18,132.50 C95.42,135.25 95.51,135.33 93.72,138.05 C91.71,140.01 91.70,140.07 89.56,141.88 C83.87,144.68 83.81,144.62 78.03,147.28 C76.30,147.82 76.29,147.83 74.53,148.28 "/><path d="M73.45,147.61 C73.90,146.46 73.90,146.44 74.42,145.32 C75.66,143.62 75.65,143.59 76.98,141.96 C81.55,137.80 81.64,137.88 86.22,133.73 C87.52,132.19 87.44,132.11 88.74,130.58 C91.93,127.93 91.95,127.92 95.21,125.35 "/><path d="M103.28,118.76 C107.53,115.28 107.53,115.28 111.80,111.82 C112.19,111.59 112.19,111.58 112.60,111.37 C119.17,109.33 119.19,109.38 125.76,107.32 C127.77,106.50 127.82,106.54 129.76,105.61 C136.02,100.69 136.04,100.67 142.18,95.62 "/><path d="M151.83,155.75 C151.49,156.62 151.49,156.63 151.08,157.47 C148.09,161.70 148.08,161.70 145.05,165.90 C144.67,166.25 144.67,166.26 144.26,166.58 "/><path d="M144.26,166.58 C143.71,166.77 143.70,166.77 143.13,166.93 C142.45,166.95 142.45,166.95 141.77,166.93 C141.03,166.77 141.02,166.78 140.31,166.57 C137.60,165.05 137.60,165.04 134.92,163.47 C134.54,163.11 134.54,163.10 134.19,162.70 C132.88,160.42 132.88,160.41 131.61,158.11 "/><path d="M127.83,155.62 C127.33,154.50 127.32,154.49 126.86,153.36 C126.78,152.80 126.79,152.79 126.75,152.22 C126.86,151.44 126.86,151.44 127.00,150.67 "/><path d="M111.29,115.30 C114.09,115.31 114.10,115.31 116.89,115.24 C118.43,114.92 118.44,114.92 119.97,114.52 C121.40,113.83 121.41,113.82 122.81,113.06 C124.49,111.74 124.49,111.74 126.12,110.36 "/><path d="M126.12,110.36 C125.03,110.55 125.03,110.55 123.95,110.78 C119.43,112.15 119.42,112.14 114.92,113.56 C113.18,114.32 113.18,114.33 111.47,115.16 "/><path d="M116.91,121.10 C118.18,120.33 118.19,120.32 119.42,119.50 C120.62,118.34 120.59,118.29 121.78,117.11 C122.50,116.59 122.51,116.59 123.25,116.10 "/><path d="M132.72,148.86 C132.35,148.35 132.35,148.34 132.00,147.82 C130.16,144.48 130.14,144.49 128.34,141.13 C127.94,140.04 127.95,140.03 127.61,138.93 C127.58,138.40 127.58,138.39 127.59,137.87 "/><path d="M201.65,115.59 C202.21,115.52 202.22,115.52 202.77,115.40 C207.13,113.65 207.13,113.64 211.47,111.84 C211.81,111.61 211.81,111.61 212.13,111.35 "/><path d="M191.61,86.53 C192.29,87.27 192.30,87.28 192.92,88.06 C194.81,91.43 194.82,91.44 196.65,94.84 C197.05,95.95 197.05,95.96 197.38,97.10 "/><path d="M74.53,148.28 L73.45,147.61 "/><path d="M95.21,125.35 L100.26,123.89 L103.28,118.76 "/><path d="M96.03,130.31 L92.93,131.08 L90.73,134.90 L93.02,133.67 L96.03,130.31 "/><path d="M147.18,108.69 L139.28,115.12 L138.42,116.77 L138.35,117.94 L140.80,128.71 L141.60,130.02 L143.57,132.10 L144.34,134.35 L144.10,136.38 L143.29,137.30 L143.07,138.39 L145.29,148.20 L145.45,148.59 L150.98,153.28 L151.67,154.54 L151.83,155.75 "/><path d="M131.61,158.11 L130.67,157.36 L129.40,157.06 L127.83,155.62 "/><path d="M127.00,150.67 L126.79,149.33 L120.00,136.80 L119.16,135.75 L116.58,134.59 L115.24,132.63 L114.75,130.31 L114.99,128.20 L113.57,124.70 L112.65,124.55 L100.68,127.99 "/><path d="M105.19,122.48 L107.70,119.29 L114.06,119.23 L111.29,120.69 L105.19,122.48 "/><path d="M111.47,115.16 L111.29,115.30 "/><path d="M117.42,132.44 L117.13,132.18 L116.78,130.37 L117.08,130.13 L118.03,130.97 L118.49,132.87 L118.19,133.11 L117.42,132.44 "/><path d="M121.85,127.88 L120.66,126.82 L117.89,122.06 L116.91,121.10 "/><path d="M123.25,116.10 L124.22,116.52 L133.15,126.19 L134.36,128.22 L134.70,130.46 L134.05,131.96 L126.51,129.60 "/><path d="M133.92,149.75 L132.72,148.86 "/><path d="M127.59,137.87 L128.13,136.61 L129.09,136.61 L135.74,138.83 L137.28,140.00 L138.44,142.26 L138.57,144.49 L136.18,148.15 "/><path d="M129.80,154.68 L129.12,154.07 L128.80,152.42 L129.07,152.03 L130.13,152.96 L130.46,154.68 L130.18,155.01 L129.80,154.68 "/><path d="M139.96,162.41 L140.67,163.27 L141.80,163.52 L141.39,162.72 L140.64,162.37 L139.96,162.41 "/><path d="M141.16,134.47 L140.65,132.53 L140.95,132.28 L142.02,133.23 L142.36,135.02 L142.07,135.27 L141.16,134.47 "/><path d="M140.53,109.96 L140.18,108.16 L140.48,107.92 L141.54,108.85 L141.89,110.66 L141.59,110.90 L140.53,109.96 "/><path d="M149.87,106.50 L169.75,90.32 L170.52,90.21 L171.61,90.58 L172.52,91.29 L178.91,97.57 L180.32,101.88 L181.77,103.65 L183.37,104.13 L184.57,103.57 L185.47,103.87 L192.26,110.40 L198.72,114.81 L201.65,115.59 "/><path d="M212.13,111.35 L212.82,109.84 L212.62,108.89 L212.00,107.85 L207.33,103.47 L204.85,98.80 L204.64,97.45 L204.79,94.84 L203.85,92.58 L202.24,91.07 L201.01,90.77 L200.04,90.01 L193.15,77.56 L192.68,76.21 L192.78,72.87 L191.82,70.61 L190.25,69.17 L188.59,68.64 L186.35,65.75 L184.94,64.89 L176.38,65.59 L176.03,64.38 L175.68,64.23 L176.06,62.88 L175.04,62.16 L169.72,65.97 L167.62,66.42 L161.23,71.59 L158.34,76.52 L153.16,78.19 L144.30,85.37 L142.58,90.01 L143.49,93.05 L142.18,95.62 "/><path d="M143.42,158.85 L142.97,158.20 L144.05,158.29 L144.90,159.09 L144.55,159.31 L143.42,158.85 "/><path d="M146.70,154.84 L145.99,153.98 L147.06,154.07 L147.91,154.87 L147.48,155.10 L146.70,154.84 "/><path d="M151.36,85.75 L149.66,85.82 L148.39,88.55 L151.36,85.75 "/><path d="M155.00,81.80 L152.45,81.91 L153.44,81.19 L156.23,80.08 L155.00,81.80 "/><path d="M163.86,77.64 L160.28,81.26 "/><path d="M160.28,81.26 L163.36,79.96 L167.38,76.79 L163.86,77.64 "/><path d="M163.63,90.66 L163.71,91.10 L164.78,92.03 L165.08,91.79 L164.73,89.98 L163.66,89.05 L163.48,89.19 L163.63,90.66 "/><path d="M169.70,71.49 L167.84,73.47 "/><path d="M169.70,71.49 L173.13,71.21 L170.78,72.48 L167.84,73.47 "/><path d="M176.13,74.52 L180.51,89.43 L181.81,91.12 L182.71,91.67 L183.43,91.77 L184.07,90.36 L185.48,76.93 L185.12,74.08 L182.57,69.13 L181.96,68.59 L181.47,68.54 L179.62,70.51 L175.31,73.55 L176.13,74.52 "/><path d="M181.68,99.35 L181.99,100.97 L182.94,101.81 L183.36,101.66 L183.01,99.86 L181.94,98.92 L181.68,99.35 "/><path d="M188.75,95.12 L189.55,87.49 L190.18,86.06 L190.83,86.12 L191.61,86.53 "/><path d="M197.38,97.10 L197.37,98.44 L197.02,99.29 L196.49,99.72 L192.60,101.33 L191.04,101.10 L189.52,99.48 "/><path d="M189.66,73.39 L189.17,71.46 L189.46,71.22 L190.53,72.15 L190.85,73.81 L190.58,74.20 L189.66,73.39 "/><path d="M198.75,111.40 L199.25,111.99 L200.17,112.32 L198.75,111.40 "/><path d="M201.51,95.16 L201.16,93.36 L201.46,93.11 L202.52,94.05 L202.87,95.85 L202.57,96.10 L201.51,95.16 "/><path d="M203.01,109.68 L203.70,109.82 L204.53,110.54 L203.01,109.68 "/><path d="M207.79,107.93 L207.31,107.81 L207.95,108.43 L208.88,108.76 L207.79,107.93 "/></g></g><g id="Actor_.6"><g style="stroke:#000000;stroke-width:0.176"><path d="M171.82,57.30 C171.69,57.44 171.69,57.44 171.55,57.58 C171.32,57.74 171.32,57.74 171.07,57.89 C170.80,58.03 170.80,58.03 170.52,58.17 C170.12,58.34 170.12,58.34 169.71,58.50 C169.34,58.62 169.34,58.62 168.98,58.74 C168.64,58.81 168.64,58.81 168.31,58.88 C168.05,58.91 168.05,58.91 167.79,58.93 C167.62,58.91 167.62,58.91 167.46,58.87 "/><path d="M171.69,56.93 C171.56,57.07 171.56,57.08 171.42,57.21 C171.18,57.37 171.18,57.37 170.94,57.52 C170.62,57.69 170.62,57.69 170.30,57.84 C169.94,57.99 169.94,57.99 169.57,58.14 C169.21,58.26 169.21,58.26 168.84,58.37 C168.64,58.42 168.63,58.42 168.43,58.46 C168.30,58.49 168.30,58.49 168.17,58.52 C167.91,58.54 167.91,58.55 167.65,58.56 C167.49,58.54 167.49,58.54 167.33,58.50 "/><path d="M168.37,58.12 C168.52,58.11 168.52,58.11 168.68,58.10 C168.88,58.06 168.88,58.06 169.08,58.01 C169.30,57.94 169.30,57.94 169.52,57.87 C169.74,57.78 169.74,57.78 169.96,57.69 C170.15,57.60 170.15,57.60 170.34,57.50 C170.48,57.41 170.48,57.41 170.63,57.31 C170.71,57.23 170.71,57.23 170.79,57.15 "/><path d="M170.68,56.96 C170.55,56.95 170.55,56.95 170.42,56.95 C170.24,56.98 170.24,56.98 170.06,57.01 C170.00,57.03 170.00,57.03 169.95,57.04 C169.79,57.09 169.79,57.08 169.64,57.13 C169.41,57.21 169.41,57.21 169.19,57.29 C168.98,57.38 168.98,57.38 168.78,57.47 C168.61,57.57 168.61,57.57 168.44,57.67 C168.32,57.76 168.32,57.76 168.21,57.85 "/><path d="M167.41,58.04 C167.60,57.89 167.60,57.89 167.79,57.75 C168.06,57.59 168.06,57.59 168.34,57.44 C168.68,57.28 168.68,57.28 169.02,57.13 C169.38,57.00 169.38,57.00 169.74,56.87 C170.09,56.77 170.09,56.77 170.44,56.68 C170.73,56.63 170.73,56.63 171.03,56.59 C171.24,56.59 171.24,56.59 171.45,56.59 "/><path d="M171.62,56.90 C171.50,57.04 171.49,57.04 171.36,57.17 C171.13,57.33 171.13,57.33 170.89,57.48 C170.58,57.64 170.58,57.64 170.27,57.79 C169.91,57.94 169.91,57.94 169.56,58.08 C169.20,58.20 169.20,58.20 168.84,58.31 C168.55,58.37 168.55,58.37 168.26,58.43 "/><path d="M170.66,57.02 C170.53,57.02 170.53,57.02 170.41,57.02 C170.23,57.05 170.23,57.05 170.06,57.08 C169.85,57.13 169.85,57.13 169.65,57.19 C169.43,57.26 169.43,57.26 169.22,57.34 C169.02,57.43 169.02,57.43 168.82,57.52 C168.65,57.61 168.65,57.61 168.49,57.71 C168.38,57.79 168.38,57.79 168.27,57.88 "/><path d="M170.20,62.56 C170.44,62.66 170.44,62.66 170.69,62.75 C170.87,62.77 170.87,62.77 171.05,62.78 C171.12,62.78 171.12,62.78 171.19,62.76 C171.25,62.74 171.25,62.75 171.32,62.72 C171.44,62.65 171.44,62.65 171.55,62.57 C171.68,62.43 171.68,62.43 171.80,62.27 C171.89,62.10 171.89,62.10 171.98,61.93 "/><path d="M170.44,58.25 C170.08,58.40 170.08,58.40 169.73,58.54 C169.36,58.66 169.36,58.66 169.00,58.77 C168.91,58.79 168.90,58.79 168.81,58.81 "/><path d="M170.77,57.16 C170.69,57.24 170.69,57.24 170.62,57.32 C170.47,57.41 170.47,57.41 170.33,57.50 C170.14,57.60 170.14,57.60 169.95,57.69 C169.74,57.78 169.74,57.78 169.52,57.87 C169.30,57.94 169.30,57.94 169.09,58.01 C168.89,58.05 168.89,58.05 168.69,58.09 C168.54,58.11 168.54,58.11 168.39,58.12 "/><path d="M171.86,57.10 L171.82,57.30 "/><path d="M167.98,58.95 L168.35,58.91 L168.81,58.81 L170.20,62.56 L170.09,62.93 L170.00,63.01 L169.93,63.01 L169.86,63.00 L169.67,62.88 "/><path d="M167.38,58.72 L167.42,58.79 "/><path d="M167.37,58.71 L167.43,58.81 "/><path d="M171.72,56.73 L171.69,56.93 "/><path d="M167.33,58.50 L167.23,58.34 "/><path d="M168.23,58.10 L168.37,58.12 "/><path d="M170.79,57.15 L170.81,57.03 L170.68,56.96 "/><path d="M168.21,57.85 L168.12,57.99 L168.17,58.09 L168.23,58.10 "/><path d="M168.26,58.43 L168.18,58.45 L167.67,58.50 L167.35,58.44 L167.27,58.28 L167.41,58.04 "/><path d="M171.45,56.59 L171.65,56.70 L171.62,56.90 "/><path d="M170.78,57.06 L170.77,57.09 L170.66,57.02 "/><path d="M168.27,57.88 L168.19,58.02 L168.22,58.08 L168.20,58.09 "/><path d="M168.21,58.07 L168.22,58.09 L168.17,58.01 "/><path d="M168.22,58.09 L168.38,58.12 "/><path d="M171.98,61.93 L170.58,58.18 L170.44,58.25 "/><path d="M170.58,58.18 L171.07,57.94 L171.52,57.64 "/><path d="M170.77,57.09 L170.76,57.17 "/><path d="M171.98,61.93 L172.20,62.07 L172.43,62.13 L172.54,62.11 L172.64,62.03 L172.69,61.96 L172.79,61.69 L172.83,61.38 "/></g><g style="stroke:#000000;stroke-width:0.529"><path d="M169.29,62.48 C169.48,62.68 169.48,62.68 169.67,62.88 C169.80,63.00 169.80,63.00 169.93,63.13 C170.00,63.17 170.00,63.17 170.07,63.20 "/><path d="M170.07,63.20 C170.20,63.20 170.20,63.21 170.34,63.20 C170.53,63.18 170.53,63.18 170.72,63.14 C170.94,63.08 170.94,63.08 171.17,63.02 C171.40,62.94 171.40,62.94 171.63,62.85 C171.85,62.76 171.85,62.76 172.07,62.66 C172.25,62.56 172.25,62.56 172.43,62.45 C172.55,62.36 172.55,62.36 172.67,62.26 "/><path d="M171.46,56.59 C171.25,56.58 171.25,56.58 171.04,56.58 C170.74,56.63 170.74,56.63 170.45,56.68 C170.09,56.77 170.09,56.77 169.75,56.87 C169.38,57.00 169.38,57.00 169.02,57.13 C168.67,57.28 168.67,57.28 168.33,57.44 C168.05,57.59 168.05,57.59 167.78,57.75 C167.59,57.90 167.59,57.90 167.40,58.05 "/><path d="M167.49,58.90 L167.82,58.96 L167.98,58.95 L169.29,62.48 "/><path d="M172.67,62.26 L172.77,62.11 L172.85,61.22 L171.52,57.64 L171.83,57.33 L171.86,57.10 L171.72,56.73 L171.70,56.71 L171.46,56.59 "/><path d="M167.40,58.05 L167.24,58.30 L167.23,58.34 L167.37,58.71 L167.47,58.88 L167.49,58.90 "/></g></g><g id="Actor_.7"><g style="stroke:#000000;stroke-width:0.176"><path d="M168.30,90.67 C168.00,90.60 168.00,90.60 167.70,90.52 C167.58,90.46 167.58,90.46 167.46,90.40 C167.40,90.36 167.40,90.36 167.35,90.32 C167.31,90.28 167.31,90.28 167.27,90.24 C167.21,90.14 167.21,90.13 167.16,90.03 "/><path d="M167.15,89.61 C166.97,89.47 166.97,89.47 166.79,89.33 C166.71,89.23 166.72,89.22 166.64,89.12 C166.62,89.06 166.62,89.05 166.59,88.99 C166.58,88.92 166.58,88.92 166.56,88.86 C166.56,88.78 166.56,88.78 166.55,88.70 C166.56,88.59 166.56,88.59 166.58,88.47 "/><path d="M169.63,86.85 C169.68,87.22 169.68,87.22 169.76,87.59 C169.89,87.95 169.90,87.95 170.04,88.31 C170.05,88.33 170.05,88.33 170.07,88.36 "/><path d="M171.49,89.73 C171.23,89.60 171.22,89.60 170.97,89.45 C170.72,89.21 170.71,89.21 170.47,88.95 C170.26,88.64 170.26,88.63 170.06,88.31 C169.91,87.94 169.91,87.94 169.77,87.57 C169.70,87.21 169.70,87.20 169.64,86.84 C169.66,86.50 169.66,86.50 169.69,86.17 "/><path d="M171.79,89.60 C171.53,89.47 171.52,89.47 171.27,89.32 C171.02,89.08 171.02,89.08 170.78,88.82 C170.56,88.51 170.56,88.50 170.36,88.18 C170.21,87.81 170.21,87.81 170.08,87.44 C170.04,87.26 170.04,87.26 170.01,87.07 C169.98,86.89 169.97,86.89 169.95,86.71 C169.96,86.37 169.96,86.37 169.99,86.04 "/><path d="M170.07,88.36 C170.25,88.66 170.25,88.66 170.45,88.95 C170.69,89.20 170.69,89.20 170.94,89.44 C171.00,89.48 171.00,89.48 171.07,89.52 "/><path d="M170.43,88.14 C170.28,87.79 170.28,87.79 170.14,87.43 C170.07,87.07 170.07,87.06 170.02,86.70 C170.03,86.38 170.03,86.38 170.06,86.05 "/><path d="M171.56,85.33 C171.81,85.52 171.82,85.52 172.06,85.72 C172.29,85.99 172.29,86.00 172.51,86.28 C172.69,86.62 172.69,86.62 172.86,86.97 C172.97,87.33 172.97,87.33 173.07,87.70 C173.10,88.04 173.10,88.05 173.11,88.39 C173.06,88.69 173.06,88.69 172.99,88.98 "/><path d="M171.82,89.54 C171.57,89.40 171.57,89.40 171.31,89.26 C171.28,89.23 171.28,89.23 171.25,89.19 C171.04,88.99 171.03,88.99 170.83,88.78 C170.62,88.47 170.62,88.46 170.43,88.14 "/><path d="M171.35,88.48 C171.23,88.36 171.23,88.36 171.11,88.24 C170.99,88.04 170.99,88.04 170.87,87.85 C170.78,87.63 170.78,87.63 170.69,87.41 C170.65,87.19 170.65,87.19 170.62,86.97 C170.62,86.77 170.62,86.77 170.64,86.57 "/><path d="M171.56,86.12 C171.72,86.24 171.72,86.24 171.87,86.36 C172.01,86.53 172.01,86.53 172.14,86.71 C172.25,86.92 172.26,86.92 172.36,87.13 C172.42,87.35 172.43,87.35 172.48,87.57 C172.50,87.79 172.50,87.79 172.51,88.00 C172.48,88.18 172.48,88.18 172.43,88.36 "/><path d="M171.40,88.51 C171.26,88.37 171.25,88.37 171.12,88.22 C170.99,88.03 170.99,88.03 170.87,87.84 C170.78,87.63 170.78,87.63 170.70,87.41 C170.66,87.20 170.66,87.19 170.63,86.98 C170.64,86.78 170.64,86.78 170.65,86.59 "/><path d="M172.37,88.34 C172.41,88.17 172.41,88.17 172.44,88.00 C172.43,87.79 172.43,87.79 172.41,87.58 C172.36,87.37 172.36,87.37 172.29,87.15 C172.19,86.95 172.19,86.95 172.09,86.75 C171.96,86.58 171.96,86.58 171.82,86.41 C171.67,86.29 171.67,86.29 171.52,86.18 "/><path d="M167.16,90.03 L167.15,89.61 "/><path d="M166.58,88.47 L166.81,87.83 L166.73,87.81 L166.73,87.76 "/><path d="M166.81,87.83 L169.64,86.61 L169.63,86.85 "/><path d="M170.07,88.36 L167.15,89.61 "/><path d="M171.98,89.78 L171.49,89.73 "/><path d="M169.69,86.17 L169.89,85.66 L170.25,85.34 "/><path d="M172.28,89.65 L171.79,89.60 "/><path d="M169.99,86.04 L170.20,85.53 L170.55,85.21 "/><path d="M170.06,86.05 L170.26,85.55 L170.61,85.24 L171.05,85.17 L171.56,85.33 "/><path d="M172.99,88.98 L172.71,89.39 L172.31,89.59 L171.82,89.54 "/><path d="M169.64,86.61 L169.66,86.27 "/><path d="M170.64,86.57 L170.77,86.26 L170.98,86.07 L171.25,86.02 L171.56,86.12 "/><path d="M172.43,88.36 L172.26,88.61 L172.02,88.73 L171.72,88.70 L171.41,88.53 L171.35,88.48 "/><path d="M171.70,88.67 L171.41,88.51 "/><path d="M171.98,88.70 L172.20,88.59 L172.37,88.34 "/><path d="M171.52,86.18 L171.22,86.09 L170.97,86.12 "/><path d="M170.65,86.60 L170.77,86.30 "/><path d="M170.96,86.13 L170.77,86.30 "/><path d="M171.70,88.67 L171.97,88.70 "/></g><g style="stroke:#000000;stroke-width:0.529"><path d="M169.66,86.27 C168.67,86.69 168.67,86.69 167.68,87.13 C167.43,87.26 167.43,87.27 167.19,87.41 C167.00,87.54 167.00,87.54 166.81,87.67 C166.77,87.71 166.77,87.72 166.73,87.76 C166.61,87.95 166.61,87.95 166.49,88.13 "/><path d="M166.49,88.13 C166.45,88.32 166.45,88.32 166.41,88.51 C166.42,88.74 166.42,88.74 166.44,88.96 C166.50,89.20 166.50,89.20 166.57,89.43 C166.68,89.65 166.68,89.66 166.80,89.87 C166.94,90.06 166.94,90.06 167.09,90.24 C167.25,90.37 167.25,90.37 167.41,90.49 "/><path d="M172.99,89.01 C173.07,88.72 173.07,88.72 173.12,88.42 C173.11,88.06 173.11,88.06 173.08,87.71 C172.98,87.34 172.98,87.33 172.87,86.97 C172.70,86.62 172.70,86.62 172.52,86.27 C172.30,85.98 172.29,85.98 172.06,85.70 C171.81,85.49 171.81,85.49 171.54,85.30 "/><path d="M167.41,90.49 L167.74,90.59 L168.36,90.68 L171.07,89.52 L171.47,89.73 L171.98,89.78 L172.28,89.65 L172.71,89.44 L172.99,89.01 "/><path d="M171.54,85.30 L171.03,85.13 L170.55,85.21 L170.25,85.34 L169.88,85.66 L169.67,86.19 L169.66,86.27 "/></g></g><g id="Actor_.8"><g style="stroke:#000000;stroke-width:0.176"><path d="M145.59,133.90 C145.29,133.83 145.29,133.83 144.99,133.76 C144.87,133.70 144.87,133.70 144.75,133.64 C144.69,133.60 144.69,133.60 144.64,133.56 C144.60,133.52 144.60,133.52 144.56,133.48 C144.50,133.37 144.50,133.37 144.45,133.26 "/><path d="M147.36,131.59 C147.54,131.89 147.54,131.90 147.74,132.19 C147.98,132.44 147.98,132.44 148.23,132.68 C148.29,132.72 148.29,132.72 148.36,132.75 "/><path d="M144.44,132.85 C144.26,132.71 144.26,132.71 144.08,132.56 C144.00,132.46 144.01,132.46 143.93,132.35 C143.91,132.29 143.91,132.29 143.88,132.23 C143.87,132.16 143.87,132.16 143.85,132.10 C143.85,132.02 143.85,132.02 143.84,131.94 C143.85,131.82 143.85,131.82 143.87,131.71 "/><path d="M146.92,130.09 C146.97,130.46 146.97,130.46 147.05,130.82 C147.18,131.18 147.19,131.18 147.33,131.54 C147.34,131.57 147.34,131.57 147.36,131.59 "/><path d="M148.78,132.97 C148.52,132.83 148.51,132.83 148.26,132.68 C148.01,132.44 148.00,132.44 147.76,132.19 C147.55,131.87 147.55,131.87 147.35,131.54 C147.20,131.18 147.20,131.18 147.06,130.81 C146.99,130.44 146.99,130.44 146.93,130.07 C146.94,129.95 146.94,129.95 146.95,129.84 C146.96,129.62 146.96,129.62 146.98,129.41 "/><path d="M149.08,132.84 C148.82,132.70 148.81,132.70 148.56,132.55 C148.31,132.31 148.31,132.31 148.07,132.06 C147.85,131.74 147.85,131.74 147.65,131.41 C147.58,131.23 147.58,131.23 147.51,131.04 C147.44,130.86 147.43,130.86 147.37,130.68 C147.30,130.31 147.29,130.31 147.24,129.94 C147.25,129.61 147.25,129.61 147.28,129.28 "/><path d="M147.94,131.72 C147.82,131.55 147.82,131.55 147.71,131.38 C147.57,131.02 147.57,131.02 147.43,130.66 C147.36,130.30 147.36,130.30 147.31,129.94 C147.32,129.61 147.32,129.61 147.35,129.29 "/><path d="M148.85,128.57 C149.10,128.75 149.11,128.75 149.35,128.95 C149.58,129.23 149.58,129.23 149.80,129.52 C149.98,129.86 149.98,129.86 150.15,130.20 C150.17,130.28 150.17,130.28 150.19,130.36 C150.27,130.65 150.28,130.65 150.36,130.93 C150.38,131.28 150.39,131.28 150.40,131.63 C150.35,131.92 150.35,131.92 150.28,132.21 "/><path d="M149.11,132.77 C148.86,132.64 148.85,132.64 148.60,132.50 C148.36,132.26 148.36,132.26 148.12,132.01 C148.02,131.87 148.02,131.87 147.94,131.72 "/><path d="M147.93,129.84 C147.91,130.02 147.91,130.02 147.91,130.20 C147.94,130.42 147.94,130.42 147.98,130.64 C148.06,130.86 148.07,130.86 148.16,131.08 C148.27,131.28 148.28,131.28 148.40,131.47 C148.55,131.62 148.55,131.62 148.70,131.77 C148.85,131.86 148.85,131.86 149.01,131.94 "/><path d="M149.72,131.59 C149.77,131.42 149.77,131.42 149.80,131.24 C149.79,131.02 149.79,131.02 149.77,130.81 C149.71,130.59 149.71,130.58 149.65,130.36 C149.54,130.15 149.54,130.15 149.43,129.94 C149.30,129.77 149.30,129.77 149.16,129.60 C149.01,129.47 149.01,129.47 148.85,129.36 "/><path d="M147.94,129.82 C147.93,130.02 147.92,130.02 147.92,130.21 C147.95,130.43 147.95,130.43 147.99,130.65 C148.07,130.86 148.07,130.86 148.16,131.08 C148.28,131.27 148.28,131.27 148.40,131.46 C148.55,131.60 148.55,131.61 148.70,131.75 "/><path d="M149.66,131.58 C149.70,131.41 149.70,131.40 149.73,131.23 C149.72,131.03 149.72,131.02 149.70,130.82 C149.65,130.60 149.65,130.60 149.58,130.39 C149.48,130.18 149.48,130.18 149.38,129.98 C149.25,129.81 149.25,129.81 149.11,129.65 C148.96,129.53 148.96,129.53 148.81,129.42 "/><path d="M144.45,133.26 L144.44,132.85 L147.36,131.59 "/><path d="M143.87,131.71 L144.09,131.07 L144.02,131.04 L144.02,131.00 "/><path d="M144.09,131.07 L146.93,129.85 L146.92,130.09 "/><path d="M149.27,133.01 L148.78,132.97 "/><path d="M146.98,129.41 L147.18,128.89 L147.54,128.58 "/><path d="M149.57,132.88 L149.08,132.84 "/><path d="M147.28,129.28 L147.49,128.76 L147.84,128.45 "/><path d="M147.35,129.29 L147.55,128.78 L147.63,128.71 L147.90,128.48 L148.34,128.40 L148.85,128.57 "/><path d="M150.28,132.21 L150.00,132.63 L149.60,132.82 L149.11,132.77 "/><path d="M146.93,129.85 L146.95,129.51 "/><path d="M149.01,131.94 L149.31,131.97 L149.55,131.85 L149.72,131.59 "/><path d="M148.85,129.36 L148.54,129.26 L148.27,129.30 L148.06,129.49 L147.93,129.80 L147.93,129.84 "/><path d="M148.69,131.74 L148.99,131.91 "/><path d="M148.99,131.91 L149.26,131.93 L149.49,131.82 L149.66,131.58 "/><path d="M148.81,129.42 L148.51,129.32 L148.26,129.36 "/><path d="M148.25,129.37 L148.06,129.53 "/><path d="M147.94,129.83 L148.06,129.54 "/><path d="M149.26,131.93 L149.27,131.93 "/></g><g style="stroke:#000000;stroke-width:0.529"><path d="M148.83,128.54 C149.10,128.73 149.10,128.73 149.35,128.93 C149.58,129.21 149.59,129.22 149.81,129.51 C149.99,129.85 149.99,129.85 150.16,130.20 C150.27,130.57 150.27,130.57 150.37,130.94 C150.40,131.29 150.40,131.29 150.41,131.64 C150.36,131.95 150.36,131.95 150.28,132.25 "/><path d="M144.70,133.72 C144.54,133.60 144.54,133.60 144.38,133.47 C144.28,133.35 144.28,133.35 144.18,133.23 C144.13,133.17 144.13,133.17 144.09,133.11 C143.97,132.89 143.97,132.89 143.86,132.67 C143.79,132.43 143.79,132.43 143.73,132.20 C143.71,131.97 143.71,131.97 143.70,131.75 C143.74,131.56 143.74,131.56 143.78,131.37 "/><path d="M143.78,131.37 C143.90,131.18 143.90,131.18 144.02,131.00 C144.06,130.95 144.06,130.95 144.10,130.91 C144.29,130.77 144.29,130.77 144.48,130.64 C144.72,130.50 144.72,130.50 144.96,130.36 "/><path d="M146.95,129.51 L146.96,129.42 L147.17,128.90 L147.54,128.58 L147.84,128.45 L148.32,128.37 L148.83,128.54 "/><path d="M150.28,132.25 L149.99,132.68 L149.57,132.88 L149.27,133.01 L148.76,132.97 L148.36,132.75 L145.65,133.92 L145.03,133.83 L144.70,133.72 "/><path d="M144.96,130.36 L146.95,129.51 "/></g></g><g id="Actor_.9"><g style="stroke:#000000;stroke-width:0.176"><path d="M90.63,121.79 C90.90,121.76 90.90,121.76 91.18,121.72 C91.52,121.64 91.52,121.64 91.86,121.56 C92.23,121.44 92.23,121.44 92.60,121.31 C92.96,121.17 92.96,121.17 93.32,121.01 C93.52,120.91 93.51,120.91 93.71,120.81 C93.82,120.75 93.82,120.75 93.93,120.69 C94.16,120.54 94.16,120.54 94.38,120.38 C94.50,120.25 94.50,120.25 94.61,120.12 "/><path d="M94.47,119.75 C94.36,119.88 94.36,119.89 94.24,120.01 C94.02,120.17 94.02,120.17 93.80,120.32 C93.64,120.41 93.64,120.41 93.49,120.49 C93.33,120.57 93.33,120.57 93.18,120.65 C92.82,120.80 92.82,120.80 92.46,120.95 C92.10,121.07 92.09,121.07 91.72,121.19 C91.38,121.28 91.38,121.28 91.04,121.35 C90.77,121.39 90.77,121.39 90.49,121.42 C90.31,121.40 90.31,121.40 90.13,121.37 "/><path d="M90.14,120.94 C90.30,120.80 90.31,120.80 90.48,120.66 C90.74,120.50 90.74,120.50 91.00,120.34 C91.33,120.19 91.33,120.19 91.66,120.03 C92.02,119.90 92.03,119.90 92.39,119.76 C92.74,119.66 92.74,119.66 93.09,119.56 C93.40,119.50 93.40,119.50 93.70,119.45 C93.93,119.44 93.93,119.44 94.16,119.44 "/><path d="M94.41,119.72 C94.30,119.85 94.30,119.85 94.18,119.98 C93.96,120.14 93.96,120.14 93.73,120.29 C93.44,120.45 93.44,120.45 93.14,120.60 C92.79,120.75 92.79,120.75 92.44,120.89 C92.08,121.01 92.08,121.01 91.72,121.13 C91.39,121.21 91.38,121.21 91.05,121.29 C90.78,121.32 90.78,121.32 90.51,121.35 C90.33,121.34 90.33,121.33 90.16,121.31 "/><path d="M90.96,120.95 C91.07,120.97 91.07,120.97 91.18,120.98 C91.34,120.96 91.34,120.96 91.51,120.94 C91.71,120.89 91.71,120.89 91.92,120.84 C92.14,120.77 92.14,120.77 92.36,120.70 C92.58,120.61 92.58,120.61 92.79,120.52 C92.98,120.42 92.98,120.42 93.16,120.32 C93.30,120.23 93.30,120.23 93.43,120.14 C93.48,120.08 93.48,120.08 93.53,120.02 C93.55,120.00 93.55,120.00 93.57,119.98 "/><path d="M93.41,119.81 C93.27,119.81 93.27,119.81 93.14,119.81 C92.95,119.85 92.95,119.85 92.76,119.88 C92.54,119.94 92.54,119.94 92.33,120.01 C92.11,120.09 92.11,120.09 91.88,120.17 C91.68,120.27 91.68,120.27 91.48,120.36 C91.32,120.46 91.32,120.46 91.16,120.55 C91.05,120.64 91.05,120.64 90.95,120.73 "/><path d="M93.39,119.87 C93.25,119.88 93.25,119.88 93.12,119.88 C92.94,119.91 92.94,119.91 92.76,119.95 C92.55,120.00 92.55,120.01 92.34,120.07 C92.13,120.14 92.13,120.14 91.91,120.23 C91.72,120.32 91.72,120.32 91.52,120.41 C91.37,120.50 91.37,120.50 91.21,120.59 C91.11,120.68 91.11,120.68 91.01,120.76 "/><path d="M94.39,125.36 C94.28,125.45 94.28,125.45 94.17,125.53 C94.11,125.56 94.11,125.56 94.04,125.59 C93.98,125.61 93.97,125.61 93.91,125.63 C93.74,125.63 93.74,125.63 93.57,125.63 "/><path d="M91.19,120.98 C91.35,120.96 91.35,120.96 91.52,120.94 C91.71,120.89 91.71,120.89 91.91,120.84 C92.14,120.77 92.14,120.77 92.36,120.70 C92.57,120.61 92.57,120.61 92.79,120.52 C92.95,120.44 92.95,120.44 93.10,120.35 C93.26,120.25 93.26,120.25 93.42,120.14 "/><path d="M95.38,124.91 C95.44,124.83 95.44,124.83 95.49,124.75 C95.53,124.59 95.53,124.59 95.57,124.43 C95.60,124.26 95.60,124.25 95.61,124.08 "/><path d="M90.13,121.60 L90.27,121.74 L90.45,121.76 L90.63,121.79 "/><path d="M94.61,120.12 L94.60,119.93 "/><path d="M94.47,119.56 L94.47,119.75 "/><path d="M90.13,121.37 L90.00,121.23 "/><path d="M94.16,119.44 L94.40,119.53 L94.41,119.72 "/><path d="M90.16,121.31 L90.03,121.17 L90.14,120.94 "/><path d="M90.91,120.81 L90.88,120.87 L90.96,120.95 "/><path d="M93.57,119.98 L93.56,119.86 L93.41,119.81 "/><path d="M90.95,120.73 L90.91,120.81 "/><path d="M93.53,119.91 L93.53,119.93 L93.39,119.87 "/><path d="M91.01,120.76 L90.95,120.89 L90.94,120.88 "/><path d="M91.57,121.67 L91.88,121.59 L92.61,121.35 L93.35,121.04 L94.74,124.79 L94.39,125.36 "/><path d="M93.57,125.63 L92.96,125.41 L91.57,121.67 L91.21,121.75 L90.75,121.81 "/><path d="M90.99,120.95 L91.19,120.98 "/><path d="M90.95,120.89 L91.00,120.95 "/><path d="M92.96,125.41 L92.88,125.74 L92.80,125.84 L92.74,125.87 L92.67,125.86 L92.59,125.83 L92.46,125.75 "/><path d="M93.35,121.04 L93.93,120.74 L94.28,120.49 "/><path d="M93.53,119.93 L93.53,120.00 L93.54,120.00 "/><path d="M93.53,120.01 L93.41,120.14 "/><path d="M94.74,124.79 L95.04,124.96 L95.25,124.98 L95.32,124.96 L95.38,124.91 "/></g><g style="stroke:#000000;stroke-width:0.529"><path d="M90.13,120.95 C90.29,120.80 90.29,120.80 90.47,120.66 C90.73,120.50 90.73,120.50 91.00,120.35 C91.33,120.19 91.33,120.19 91.66,120.03 C92.02,119.90 92.02,119.90 92.39,119.76 C92.74,119.66 92.74,119.66 93.10,119.56 C93.41,119.50 93.41,119.50 93.72,119.45 C93.94,119.44 93.94,119.44 94.17,119.44 "/><path d="M95.46,125.09 C95.35,125.18 95.35,125.18 95.24,125.27 C95.07,125.38 95.07,125.38 94.90,125.48 C94.69,125.58 94.69,125.58 94.48,125.68 C94.24,125.77 94.24,125.77 94.01,125.85 C93.78,125.92 93.78,125.92 93.56,125.98 C93.36,126.02 93.36,126.02 93.16,126.05 C93.01,126.06 93.01,126.06 92.87,126.06 "/><path d="M90.34,121.78 L90.28,121.77 L90.14,121.61 L90.00,121.23 L90.00,121.20 L90.13,120.95 "/><path d="M94.17,119.44 L94.45,119.54 L94.47,119.56 L94.60,119.93 L94.61,120.15 L94.38,120.42 L94.28,120.49 L95.61,124.08 L95.53,124.95 L95.46,125.09 "/><path d="M92.87,126.06 L92.71,126.00 L92.06,125.33 L90.75,121.81 L90.66,121.81 L90.34,121.78 "/></g></g><g id="Actor_.10"><g style="stroke:#000000;stroke-width:0.176"><path d="M133.71,153.64 C133.41,153.58 133.41,153.58 133.11,153.50 C132.98,153.44 132.98,153.44 132.86,153.38 C132.81,153.34 132.81,153.34 132.76,153.30 C132.72,153.26 132.72,153.26 132.68,153.22 C132.62,153.11 132.62,153.11 132.57,153.01 "/><path d="M132.56,152.59 C132.37,152.45 132.37,152.45 132.20,152.30 C132.12,152.20 132.12,152.20 132.05,152.10 C132.02,152.03 132.02,152.03 132.00,151.97 C131.98,151.90 131.98,151.90 131.97,151.83 C131.96,151.76 131.96,151.76 131.96,151.68 C131.97,151.57 131.97,151.56 131.98,151.45 "/><path d="M135.03,149.83 C135.09,150.20 135.09,150.20 135.16,150.56 C135.30,150.93 135.30,150.92 135.44,151.28 C135.46,151.31 135.46,151.31 135.47,151.33 "/><path d="M136.90,152.71 C136.63,152.58 136.63,152.58 136.37,152.43 C136.12,152.19 136.12,152.18 135.88,151.93 C135.67,151.62 135.67,151.61 135.47,151.29 C135.39,151.11 135.40,151.10 135.32,150.92 C135.25,150.73 135.25,150.74 135.18,150.55 C135.11,150.18 135.11,150.18 135.05,149.81 C135.06,149.48 135.06,149.48 135.09,149.15 "/><path d="M137.20,152.58 C136.93,152.45 136.93,152.45 136.68,152.30 C136.42,152.06 136.42,152.05 136.18,151.80 C135.97,151.48 135.97,151.48 135.77,151.15 C135.69,150.97 135.70,150.97 135.63,150.79 C135.55,150.60 135.55,150.61 135.48,150.42 C135.41,150.05 135.41,150.05 135.35,149.68 C135.37,149.35 135.37,149.35 135.39,149.02 "/><path d="M136.96,148.31 C137.22,148.49 137.22,148.50 137.47,148.70 C137.70,148.97 137.70,148.97 137.92,149.26 C138.10,149.60 138.10,149.60 138.27,149.95 C138.38,150.31 138.38,150.31 138.47,150.68 C138.50,151.02 138.50,151.03 138.52,151.37 C138.46,151.66 138.46,151.67 138.39,151.96 "/><path d="M137.23,152.52 C136.97,152.39 136.97,152.39 136.72,152.24 C136.47,152.01 136.47,152.00 136.24,151.76 C136.03,151.44 136.03,151.44 135.83,151.12 C135.68,150.77 135.69,150.76 135.55,150.40 C135.53,150.30 135.53,150.30 135.51,150.19 "/><path d="M136.52,151.21 C136.39,151.02 136.39,151.02 136.27,150.83 C136.18,150.61 136.18,150.61 136.10,150.39 C136.06,150.17 136.06,150.16 136.02,149.94 C136.03,149.75 136.03,149.74 136.05,149.55 "/><path d="M136.97,149.10 C137.12,149.22 137.12,149.22 137.28,149.34 C137.42,149.51 137.42,149.51 137.55,149.69 C137.66,149.89 137.66,149.89 137.76,150.11 C137.83,150.33 137.83,150.33 137.89,150.55 C137.91,150.77 137.91,150.77 137.92,150.98 C137.88,151.16 137.88,151.16 137.84,151.34 "/><path d="M136.81,151.49 C136.66,151.35 136.66,151.35 136.52,151.20 C136.40,151.01 136.40,151.01 136.28,150.82 C136.22,150.68 136.22,150.68 136.17,150.54 C136.14,150.46 136.14,150.46 136.11,150.39 C136.07,150.17 136.07,150.17 136.03,149.96 C136.04,149.76 136.04,149.76 136.06,149.57 "/><path d="M137.77,151.32 C137.81,151.15 137.81,151.15 137.85,150.97 C137.84,150.77 137.84,150.77 137.82,150.56 C137.76,150.35 137.76,150.35 137.70,150.13 C137.60,149.93 137.60,149.93 137.49,149.73 C137.36,149.56 137.36,149.55 137.23,149.39 C137.08,149.27 137.08,149.27 136.93,149.16 "/><path d="M132.57,153.01 L132.56,152.59 "/><path d="M131.98,151.45 L132.21,150.81 L132.14,150.79 L132.14,150.74 "/><path d="M136.48,152.50 L136.35,152.42 L135.86,151.93 L135.47,151.33 L132.56,152.59 "/><path d="M132.21,150.81 L135.05,149.59 L135.03,149.83 "/><path d="M137.39,152.76 L136.90,152.71 "/><path d="M135.09,149.15 L135.30,148.63 L135.65,148.32 "/><path d="M137.69,152.63 L137.20,152.58 "/><path d="M135.39,149.02 L135.60,148.50 L135.95,148.19 "/><path d="M135.51,150.19 L135.42,149.68 L135.46,149.03 L135.67,148.53 L136.01,148.22 L136.46,148.14 L136.96,148.31 "/><path d="M138.39,151.96 L138.11,152.37 L137.71,152.56 L137.23,152.52 "/><path d="M135.05,149.59 L135.07,149.25 "/><path d="M136.60,151.29 L136.52,151.21 "/><path d="M136.05,149.55 L136.17,149.24 L136.38,149.05 L136.66,149.00 L136.97,149.10 "/><path d="M137.84,151.34 L137.67,151.59 L137.42,151.71 L137.13,151.68 L136.82,151.51 L136.60,151.29 "/><path d="M137.38,151.68 L137.61,151.56 L137.77,151.32 "/><path d="M136.93,149.16 L136.63,149.07 L136.38,149.10 "/><path d="M136.37,149.11 L136.18,149.27 "/><path d="M136.06,149.57 L136.18,149.28 "/><path d="M137.38,151.68 L137.11,151.65 "/><path d="M136.81,151.49 L137.11,151.65 "/></g><g style="stroke:#000000;stroke-width:0.529"><path d="M135.07,149.25 C134.07,149.67 134.07,149.67 133.08,150.10 C132.84,150.24 132.84,150.24 132.60,150.39 C132.41,150.52 132.41,150.52 132.22,150.65 C132.18,150.69 132.18,150.69 132.14,150.74 C132.02,150.92 132.02,150.92 131.90,151.11 "/><path d="M131.90,151.11 C131.85,151.30 131.85,151.30 131.82,151.49 C131.83,151.71 131.83,151.72 131.85,151.94 C131.91,152.17 131.91,152.18 131.98,152.41 C132.09,152.63 132.09,152.63 132.20,152.85 C132.35,153.04 132.35,153.04 132.50,153.22 C132.65,153.35 132.66,153.35 132.82,153.47 "/><path d="M138.40,151.99 C138.47,151.70 138.47,151.69 138.53,151.40 C138.51,151.04 138.51,151.04 138.48,150.68 C138.39,150.31 138.39,150.31 138.27,149.94 C138.11,149.60 138.11,149.59 137.92,149.25 C137.70,148.96 137.70,148.96 137.47,148.68 C137.21,148.47 137.21,148.47 136.95,148.28 "/><path d="M132.82,153.47 L133.14,153.57 L133.77,153.66 L136.48,152.50 L136.87,152.71 L137.39,152.76 L137.69,152.63 L138.11,152.42 L138.40,151.99 "/><path d="M136.95,148.28 L136.44,148.11 L135.95,148.19 L135.65,148.32 L135.29,148.64 L135.08,149.17 L135.07,149.25 "/></g></g><g id="paperID" visibility="hidden" opacity="0.00" transform="scale(0.000100)"><path style="stroke:#000000;stroke-width:0.500;fill:#e6e6e6;fill-rule:evenodd" d="M-2000.00,-2000.00L2297.00,-2000.00L2297.00,2210.00L-2000.00,2210.00zM0.00,0.00L297.00,0.00L297.00,210.00L0.00,210.00z"/><path style="fill:#000000;fill-opacity:0.118" d="M3.00,210.00L297.00,210.00L297.00,3.00L300.00,3.00L300.00,213.00L3.00,213.00z"/></g><g id="ToolTip" visibility="hidden" opacity="0" transform="translate(0,0)"><rect id="ToolTipShadow" opacity="0.20" fill="black" stroke="none" x="0" y="0" width="30" height="8"/><rect id="ToolTipBG" fill="#ffffe1" stroke="black" x="0" y="0" width="30" height="8"/><text xml:space="preserve" id="ToolTipText" fill="black" x="0" y="0" width="30" height="8">tooltip</text></g></g></svg>
