<?xml version="1.0" encoding="UTF-8" standalone="no"?>
<svg xmlns="http://www.w3.org/2000/svg" xmlns:xlink="http://www.w3.org/1999/xlink" width="297.000mm" height="210.000mm" viewBox="0.000000 0.000000 297.000000 210.000000" stroke-linejoin="round" stroke-linecap="round" fill="none" fill-rule="evenodd"><desc>Composer Export</desc><script type="text/ecmascript"><![CDATA[
if(typeof(top) != "undefined")
{
	top.ShowPaper = ShowPaper;
}
function ShowHotSpot(evt,hotspotid)
{
	var svgDocument = evt.target.ownerDocument;
	var strId = "hotspot."+hotspotid;
	var hotspot = svgDocument.getElementById(strId);
	if(hotspot)
		hotspot.setAttribute("opacity",".5");
}
function HideHotSpot(evt,hotspotid)
{
	var svgDocument = evt.target.ownerDocument;
	var strId = "hotspot."+hotspotid;
	var hotspot = svgDocument.getElementById(strId);
	if(hotspot)
		hotspot.setAttribute("opacity","0");

	var toolTip = svgDocument.getElementById('ToolTip');
	if(toolTip)
		toolTip.setAttribute("visibility","hidden");
}
function ShowToolTip(evt,hotspotid,strTooltip)
{
	if(strTooltip=="")
	return;

	// change text
	var svgDocument = evt.target.ownerDocument;
	var tiptext = svgDocument.getElementById('ToolTipText');
	if( !tiptext )
	return;
	tiptext.firstChild.nodeValue = " " + strTooltip + "  " ;

	// show tooltip before, else some refresh issue

	var toolTip = svgDocument.getElementById('ToolTip');
	if(!toolTip)
	return;

	toolTip.setAttribute("visibility","visible");
	toolTip.setAttribute("opacity",".95");

	// move tooltip
	// get viewbox

	var root = svgDocument.documentElement;
	var vbox = (root.getAttribute("viewBox")).split(' ');
	var x0 = parseFloat(vbox[0]);
	var y0 = parseFloat(vbox[1]);
	var vboxW = parseFloat(vbox[2]);
	var vboxH = parseFloat(vbox[3]);

	// get default width of svg

	var strW = root.getAttribute("width");
	var svgW = parseFloat(strW);
	if(strW.indexOf('mm') != -1)
	svgW *= 3.779;

	var strH = root.getAttribute("height");
	var svgH = parseFloat(strH);
	if(strH.indexOf('mm') != -1)
	svgH *= 3.779;  	// 96 dpi  -> 96/25.4 = 3.779

	// update the viewbox / width / height if svg is embedded in html with zoom fit all
	var realx0 = x0;
	var realy0 = y0;
	var realvboxW = vboxW;
	var realvboxH = vboxH;
	var realsvgW = svgW;
	var realsvgH = svgH;

	if ((typeof(top) == "undefined") || (typeof(top.svgctl1) != "undefined")) // embedded in html
	{
		// get window size in pxl

		svgW = window.innerWidth;
		svgH = window.innerHeight;

		// calculate real viewbox

		realsvgW = svgW;
		realsvgH = svgH;
		if((svgW / svgH) > (vboxW / vboxH))
		{
			realvboxW = (vboxH * svgW) / svgH;
			realvboxH = vboxH;
			realx0 = x0 - (realvboxW - vboxW)/2 ;
		}
		else
		{
			realvboxH = (vboxW * svgH) / svgW;
			realvboxW = vboxW;
			realy0 = y0 - (realvboxH - vboxH)/2 ;
		}
	}

	// get user zoom/pan

	var newScale = root.currentScale;
	var translation = root.currentTranslate;

	// transform pxl to user unit

	var xPos = (((evt.clientX+10- translation.x)/newScale) * realvboxW)/realsvgW  + realx0 ;
	var yPos = (((evt.clientY+5- translation.y)/newScale) * realvboxH)/ realsvgH  + realy0 ;
	var scaleForWidth = ( (1 / newScale) * realvboxH) / realsvgH;

	// move tooltip

	toolTip.setAttribute("transform", "translate(" + xPos + "," + yPos + ")" );

	// resize tooltip

	var fontsize = 12;
	tiptext.setAttribute("font-size",fontsize*scaleForWidth);
	tiptext.setAttribute("y", fontsize*scaleForWidth);
	var tipBG = svgDocument.getElementById('ToolTipBG');
	var outline = tiptext.getBBox();
	if(tipBG)
	{
		tipBG.setAttribute("stroke-width", 1*scaleForWidth);
		tipBG.setAttribute("width", Number(outline.width) );
		tipBG.setAttribute("height", Number(outline.height) + fontsize*.5*scaleForWidth );
	}
	var ToolTipShadow = svgDocument.getElementById('ToolTipShadow');
	if(ToolTipShadow)
	{
		ToolTipShadow.setAttribute("width", Number(outline.width) );
		ToolTipShadow.setAttribute("height", Number(outline.height) + fontsize*.5*scaleForWidth );
		ToolTipShadow.setAttribute("x", 3*scaleForWidth);
		ToolTipShadow.setAttribute("y", 3*scaleForWidth);
	}
}
function ShowPaper()
{
  var svgDocument = getDocument();
  var paper = svgDocument.getElementById("paperID");
  if(paper)
  {
    paper.setAttribute("transform","scale(1)");
    paper.setAttribute("opacity","1");
    paper.setAttribute("visibility","visible");
  }
  var svg = svgDocument.getRootElement();
  if(svg)
  {
    svg.setAttribute("width","307.000mm");
    svg.setAttribute("height","220.000mm");
    svg.setAttribute("viewBox","-5.000000 -5.000000 307.000000 220.000000");
  }
}
]]></script><defs/><g><path style="fill:#ffffff" d="M286.81,0.05L296.92,0.08L296.92,210.05L0.08,210.05L0.06,141.75L0.27,141.68L1.37,141.81L87.96,144.01L96.71,144.14L96.74,141.74L97.00,127.12L97.30,125.49L98.93,123.19L101.58,121.71L152.59,106.26L162.88,106.26L195.42,107.09L204.53,107.19L204.71,107.00L204.93,106.97L205.45,106.81L206.90,105.97L208.12,104.16L208.43,102.32L208.37,94.96L207.67,94.66L208.41,94.40L206.27,94.52L196.22,94.38L195.42,94.68L192.69,96.16L188.14,99.89L185.74,101.63L185.25,101.61L184.92,101.91L174.55,101.82L173.18,101.70L171.15,101.59L168.76,100.33L168.10,99.40L166.81,98.47L165.92,97.44L162.90,94.94L162.73,94.89L160.97,93.85L158.57,93.42L110.02,92.17L107.25,92.31L105.16,93.03L101.14,96.18L98.00,98.55L95.80,99.66L87.69,99.61L82.48,99.31L81.91,99.06L80.78,98.42L78.29,96.54L77.40,95.51L74.09,92.74L73.94,92.68L72.98,91.93L71.70,91.49L70.05,91.21L55.97,90.79L23.43,89.96L18.18,90.11L17.46,90.27L15.82,91.11L10.00,95.76L6.91,97.42L1.09,97.41L0.06,97.34L0.08,0.08L286.49,0.05L286.34,0.33L287.26,1.47L288.36,4.50L288.62,8.77L288.80,8.32L288.91,4.50L288.80,4.39L287.81,1.46z"/><path style="fill:#e5e5e5" d="M133.75,129.90L134.57,132.65L133.92,131.92L133.35,130.27L133.39,129.35z"/><path style="fill:#e5e5e5" d="M209.45,150.12L216.74,150.10L217.31,149.95L219.16,150.14L219.28,150.28L219.05,150.66L217.14,151.78L215.38,152.01L212.88,152.01L211.13,151.78L209.23,150.65L208.71,149.99L209.03,149.80z"/><path style="fill:#6c737e" d="M55.97,90.79L70.05,91.21L71.70,91.49L72.98,91.93L73.94,92.68L74.09,93.29L75.47,94.41L77.40,96.33L78.29,96.54L78.51,97.15L79.86,98.29L80.78,98.42L81.91,99.06L77.01,99.37L82.48,99.31L87.69,99.61L95.80,99.66L98.00,98.55L101.14,96.18L105.16,93.03L107.25,92.31L110.02,92.17L158.57,93.42L160.97,93.85L162.73,94.89L162.89,95.49L163.99,96.34L165.92,98.26L166.81,98.47L167.03,99.08L168.13,100.20L168.76,100.33L171.15,101.59L173.18,101.70L174.55,101.82L184.92,101.91L185.25,101.61L185.74,101.63L188.14,99.89L192.69,96.16L195.42,94.68L196.22,94.38L206.27,94.52L207.67,94.66L208.37,94.96L208.43,102.32L208.12,104.16L206.90,105.97L205.45,106.81L204.96,105.33L204.82,103.68L205.01,102.96L205.65,102.67L204.62,102.64L203.07,103.52L198.63,104.05L198.63,106.09L202.15,106.11L204.53,106.26L204.71,107.00L204.53,107.19L195.42,107.09L162.88,106.26L152.59,106.26L101.58,121.71L98.93,123.19L97.30,125.49L97.00,127.12L96.74,141.74L0.37,139.33L0.27,141.68L0.06,141.75L0.05,101.48L4.07,101.30L0.05,101.21L0.06,97.34L1.09,97.41L6.91,97.42L10.00,95.76L15.82,91.11L17.46,90.27L18.18,90.11L23.43,89.96z"/><path style="fill:#616871" d="M134.77,131.90L135.60,133.00L136.71,133.80L136.53,134.09L136.24,134.10L134.57,132.65L133.75,129.90L133.97,129.88z"/><path style="fill:#ffffff" d="M216.74,150.10L209.45,150.12L209.03,149.80L210.97,149.68L216.19,149.79z"/><path style="fill:#000020" d="M217.31,149.95L216.74,150.10L216.19,149.79L217.31,149.80z"/><path style="fill:#00001c" d="M67.35,98.99L67.28,99.21L66.27,99.11L67.24,98.74z"/><path style="fill:#00001c" d="M217.31,149.95L217.31,149.80L219.51,149.82L219.57,150.01L219.28,150.28L219.16,150.14z"/><path style="fill:#e5e5e5" d="M287.81,1.46L288.80,4.39L288.80,8.32L288.62,8.77L288.36,4.50L287.26,1.47L286.34,0.33L286.49,0.05L286.81,0.05z"/><path style="fill:#e5e5e5" d="M276.53,6.64L276.77,7.29L277.62,8.38L277.09,8.37L276.51,7.80L276.21,7.01L276.26,5.76z"/><path style="fill:#e5e5e5" d="M266.30,18.84L267.56,21.77L267.71,22.89L267.93,24.89L267.16,27.85L266.98,27.82L267.40,25.83L267.40,23.26L266.85,21.05L266.06,19.36L264.92,18.01L264.72,17.11L264.94,17.17z"/><path style="fill:#e5e5e5" d="M255.52,24.93L255.68,25.12L255.85,25.65L256.38,26.31L255.85,26.31L255.25,25.48L255.30,23.03L255.57,22.98z"/><path style="fill:#e5e5e5" d="M267.01,28.68L266.89,28.96L266.71,28.93L266.87,28.13z"/><path style="fill:#e5e5e5" d="M266.87,30.90L269.62,38.13L269.60,40.47L268.77,37.33L266.56,31.26L266.60,29.22z"/><path style="fill:#e5e5e5" d="M285.08,46.39L285.49,47.41L285.48,49.37L285.08,51.57L284.91,51.55L285.06,47.23L283.87,45.56L284.50,45.55z"/><path style="fill:#e5e5e5" d="M264.54,49.35L264.41,49.94L264.23,49.90L264.41,48.78z"/><path style="fill:#e5e5e5" d="M284.94,52.39L284.81,52.97L284.64,52.93L284.80,51.85z"/><path style="fill:#e5e5e5" d="M264.25,50.74L263.85,52.94L263.68,52.93L264.12,50.19z"/><path style="fill:#e5e5e5" d="M284.67,53.77L284.54,54.35L284.36,54.31L284.52,53.23z"/><path style="fill:#e5e5e5" d="M263.71,53.77L263.58,54.35L263.40,54.31L263.57,53.23z"/><path style="fill:#e5e5e5" d="M263.44,55.15L263.30,55.73L263.13,55.69L263.29,54.61z"/><path style="fill:#e5e5e5" d="M284.38,55.15L283.98,57.36L283.81,57.34L284.25,54.60z"/><path style="fill:#e5e5e5" d="M263.15,56.53L263.27,58.27L266.07,61.61L266.04,61.96L264.37,61.58L263.29,60.19L262.97,59.40L263.01,55.98z"/><path style="fill:#e5e5e5" d="M283.84,58.19L283.71,58.76L283.53,58.72L283.70,57.64z"/><path style="fill:#e5e5e5" d="M283.55,59.56L283.15,61.77L282.99,61.76L283.29,59.11L283.42,59.02z"/><path style="fill:#e5e5e5" d="M283.01,62.60L282.88,63.17L282.71,63.14L282.87,62.05z"/><path style="fill:#e5e5e5" d="M282.74,63.98L282.61,64.55L282.43,64.52L282.59,63.43z"/><path style="fill:#e5e5e5" d="M282.45,65.36L282.05,67.56L281.88,67.54L282.32,64.81z"/><path style="fill:#e5e5e5" d="M281.91,68.39L281.78,68.96L281.60,68.93L281.77,67.84z"/><path style="fill:#e5e5e5" d="M281.62,69.77L280.94,73.35L280.78,73.33L281.49,69.22z"/><path style="fill:#e5e5e5" d="M280.81,74.18L280.68,74.75L280.50,74.72L280.66,73.63z"/><path style="fill:#e5e5e5" d="M280.52,75.56L280.12,77.76L279.95,77.75L280.39,75.01z"/><path style="fill:#e5e5e5" d="M279.98,78.58L280.06,78.99L288.94,89.96L290.57,92.75L291.28,95.40L291.28,99.29L290.27,102.22L290.26,101.37L290.85,99.74L290.84,95.23L289.74,92.20L288.11,89.69L279.96,79.68L279.67,79.12L279.83,78.05z"/><path style="fill:#e5e5e5" d="M279.68,79.96L279.01,83.55L278.85,83.54L279.56,79.41z"/><path style="fill:#e5e5e5" d="M278.88,84.38L278.75,84.96L278.57,84.92L278.73,83.84z"/><path style="fill:#e5e5e5" d="M278.59,85.76L278.19,87.97L278.02,87.95L278.46,85.22z"/><path style="fill:#e5e5e5" d="M278.05,88.80L277.92,89.37L277.74,89.33L277.91,88.25z"/><path style="fill:#e5e5e5" d="M277.76,90.17L277.17,93.83L276.94,93.75L277.50,89.72L277.63,89.63z"/><path style="fill:#e5e5e5" d="M276.94,94.58L276.82,95.16L276.64,95.13L276.80,94.03z"/><path style="fill:#e5e5e5" d="M276.66,95.97L276.25,98.16L276.09,98.16L276.52,95.42z"/><path style="fill:#e5e5e5" d="M276.27,99.00L277.07,100.18L277.91,100.74L277.06,100.75L276.05,99.63L275.83,99.52L275.97,98.47z"/><path style="fill:#e5e5e5" d="M275.84,100.38L275.71,100.95L275.54,100.92L275.70,99.82z"/><path style="fill:#e5e5e5" d="M195.78,102.26L195.59,102.21L195.72,101.47z"/><path style="fill:#e5e5e5" d="M275.56,101.76L275.15,103.96L274.99,103.94L275.42,101.21z"/><path style="fill:#e5e5e5" d="M275.02,104.79L274.89,105.36L274.71,105.33L274.87,104.24z"/><path style="fill:#e5e5e5" d="M274.73,106.17L274.33,108.37L274.16,108.36L274.47,105.71L274.59,105.62z"/><path style="fill:#e5e5e5" d="M274.19,109.20L274.06,109.78L273.88,109.74L274.05,108.66z"/><path style="fill:#e5e5e5" d="M260.25,110.95L260.28,111.30L256.63,118.78L255.82,118.68L254.70,117.03L254.42,116.21L254.48,114.40L254.71,115.75L254.88,114.68L256.67,112.17L258.18,110.90L258.83,110.66z"/><path style="fill:#e5e5e5" d="M273.91,110.58L273.78,111.15L273.61,111.12L273.77,110.04z"/><path style="fill:#e5e5e5" d="M273.63,111.96L273.26,114.18L273.06,114.14L273.49,111.41z"/><path style="fill:#e5e5e5" d="M273.09,114.99L272.96,115.57L272.78,115.53L272.94,114.44z"/><path style="fill:#e5e5e5" d="M272.80,116.38L272.64,117.39L271.79,119.59L271.79,118.75L272.66,115.82z"/><path style="fill:#e5e5e5" d="M124.02,129.36L124.62,130.39L124.01,130.26L123.71,129.72L123.76,128.21z"/><path style="fill:#e5e5e5" d="M151.65,130.45L151.50,130.34L151.61,128.78z"/><path style="fill:#e5e5e5" d="M207.28,132.46L207.73,134.49L208.94,134.43L209.24,134.11L209.26,134.84L208.94,136.43L208.01,137.96L205.81,139.37L202.54,139.37L202.86,139.07L202.46,138.95L202.43,138.74L204.17,138.54L205.80,137.41L206.46,136.42L206.71,135.20L206.47,133.55L205.53,131.89L206.21,131.35z"/><path style="fill:#e5e5e5" d="M216.66,147.63L226.05,147.73L226.23,145.96L226.39,145.92L226.47,147.26L226.60,149.93L221.72,149.95L219.51,149.82L217.31,149.80L216.19,149.79L210.97,149.68L205.44,149.53L118.85,147.32L113.69,147.33L113.14,147.89L111.05,149.11L108.64,149.41L106.44,149.25L104.96,149.02L103.34,148.16L102.89,147.23L103.58,147.36L110.87,147.33L111.69,147.18L113.27,147.08L111.68,147.05L108.09,147.05L102.89,147.23L102.53,146.97L102.47,146.82L97.33,146.78L96.99,146.17L96.97,145.42L96.83,145.32L96.88,144.56z"/><path style="fill:#6c737e" d="M228.28,96.02L228.96,97.33L228.96,99.02L228.53,100.02L227.90,100.49L225.49,100.49L225.02,100.33L224.08,99.12L223.72,97.90L224.40,96.17L225.10,95.49L227.43,95.49z"/><path style="fill:#6c737e" d="M140.66,123.46L140.95,123.57L141.11,124.93L141.28,125.74L141.66,126.78L142.03,124.01L142.49,124.17L143.89,125.26L145.14,127.67L145.00,128.22L142.93,128.31L143.00,128.56L144.50,129.39L145.34,129.67L145.24,130.90L144.60,132.46L143.34,133.96L141.30,134.96L138.33,134.95L136.71,134.37L136.53,134.09L136.71,133.80L135.60,133.00L134.77,131.90L133.97,129.88L133.95,128.22L134.54,125.77L136.04,124.18L137.14,123.63L139.25,123.32z"/><path style="fill:#6c737e" d="M126.78,127.48L127.20,128.21L127.20,129.62L127.10,129.93L126.62,130.41L126.31,130.51L125.19,130.51L124.62,130.39L124.02,129.36L124.05,127.95L124.72,127.21L126.22,127.21z"/><path style="fill:#6c737e" d="M154.67,128.27L155.05,129.32L155.05,130.18L154.52,131.08L152.42,131.11L152.26,131.02L151.65,130.45L151.61,128.78L152.28,128.04L152.75,127.88L153.90,127.88z"/><path style="fill:#616871" d="M204.82,103.68L204.96,105.33L204.93,106.97L204.71,107.00L204.53,106.26L202.15,106.11L198.63,106.09L198.63,104.05L203.07,103.52L204.62,102.64z"/><path style="fill:#616871" d="M145.30,128.50L145.36,129.28L144.50,129.39L143.00,128.56L142.93,128.31L145.00,128.22z"/><path style="fill:#616871" d="M133.75,129.90L133.39,129.35L133.52,129.05L133.68,129.06z"/><path style="fill:#ffffff" d="M110.87,147.33L103.58,147.36L102.89,147.23L108.09,147.05z"/><path style="fill:#000020" d="M276.53,6.64L276.26,5.76L276.52,5.57z"/><path style="fill:#000020" d="M288.80,8.32L288.80,4.39L288.91,4.50z"/><path style="fill:#000020" d="M267.71,22.89L267.56,21.77L267.68,21.86z"/><path style="fill:#000020" d="M255.85,25.65L255.68,25.12L256.37,25.16z"/><path style="fill:#000020" d="M267.01,28.68L266.87,28.13L266.98,27.82L267.16,27.85z"/><path style="fill:#000020" d="M266.87,30.90L266.60,29.22L266.71,28.93L266.89,28.96z"/><path style="fill:#000020" d="M232.09,36.25L231.78,36.34L231.83,32.89z"/><path style="fill:#000020" d="M285.48,49.37L285.49,47.41L285.59,47.52z"/><path style="fill:#000020" d="M264.54,49.35L264.41,48.78L264.67,48.62z"/><path style="fill:#000020" d="M264.25,50.74L264.12,50.19L264.23,49.90L264.41,49.94z"/><path style="fill:#000020" d="M284.94,52.39L284.80,51.85L284.91,51.55L285.08,51.57z"/><path style="fill:#000020" d="M284.67,53.77L284.52,53.23L284.64,52.93L284.81,52.97z"/><path style="fill:#000020" d="M263.71,53.77L263.57,53.23L263.68,52.93L263.85,52.94z"/><path style="fill:#000020" d="M284.38,55.15L284.25,54.60L284.36,54.31L284.54,54.35z"/><path style="fill:#000020" d="M263.44,55.15L263.29,54.61L263.40,54.31L263.58,54.35z"/><path style="fill:#000020" d="M263.15,56.53L263.01,55.98L263.13,55.69L263.30,55.73z"/><path style="fill:#000020" d="M283.84,58.19L283.70,57.64L283.81,57.34L283.98,57.36z"/><path style="fill:#000020" d="M283.55,59.56L283.42,59.02L283.53,58.72L283.71,58.76z"/><path style="fill:#000020" d="M283.01,62.60L282.87,62.05L282.99,61.76L283.15,61.77z"/><path style="fill:#000020" d="M282.74,63.98L282.59,63.43L282.71,63.14L282.88,63.17z"/><path style="fill:#000020" d="M282.45,65.36L282.32,64.81L282.43,64.52L282.61,64.55z"/><path style="fill:#000020" d="M281.91,68.39L281.77,67.84L281.88,67.54L282.05,67.56z"/><path style="fill:#000020" d="M281.62,69.77L281.49,69.22L281.60,68.93L281.78,68.96z"/><path style="fill:#000020" d="M280.81,74.18L280.66,73.63L280.78,73.33L280.94,73.35z"/><path style="fill:#000020" d="M280.52,75.56L280.39,75.01L280.50,74.72L280.68,74.75z"/><path style="fill:#000020" d="M279.98,78.58L279.83,78.05L279.95,77.75L280.12,77.76z"/><path style="fill:#000020" d="M279.96,79.68L279.68,79.96L279.56,79.41L279.67,79.12z"/><path style="fill:#000020" d="M278.88,84.38L278.73,83.84L278.85,83.54L279.01,83.55z"/><path style="fill:#000020" d="M278.59,85.76L278.46,85.22L278.57,84.92L278.75,84.96z"/><path style="fill:#000020" d="M278.05,88.80L277.91,88.25L278.02,87.95L278.19,87.97z"/><path style="fill:#000020" d="M277.76,90.17L277.63,89.63L277.74,89.33L277.92,89.37z"/><path style="fill:#000020" d="M276.94,94.58L276.80,94.03L276.94,93.75L277.17,93.83z"/><path style="fill:#000020" d="M207.67,94.66L206.27,94.52L208.41,94.40z"/><path style="fill:#000020" d="M276.66,95.97L276.52,95.42L276.64,95.13L276.82,95.16z"/><path style="fill:#000020" d="M276.27,99.00L275.97,98.47L276.09,98.16L276.25,98.16z"/><path style="fill:#000020" d="M228.96,99.02L228.96,97.33L229.07,97.43z"/><path style="fill:#000020" d="M291.28,99.29L291.28,95.40L291.38,95.51z"/><path style="fill:#000020" d="M82.48,99.31L77.01,99.37L81.91,99.06z"/><path style="fill:#000020" d="M67.28,99.21L67.35,98.99L71.44,98.98L71.62,99.10z"/><path style="fill:#000020" d="M114.93,100.20L109.47,100.16L110.89,99.86z"/><path style="fill:#000020" d="M275.84,100.38L275.70,99.82L275.83,99.52L276.05,99.63z"/><path style="fill:#000020" d="M196.53,100.59L196.04,100.83L196.15,100.48L196.58,100.41z"/><path style="fill:#000020" d="M0.05,101.48L0.05,101.21L4.07,101.30z"/><path style="fill:#000020" d="M275.56,101.76L275.42,101.21L275.54,100.92L275.71,100.95z"/><path style="fill:#000020" d="M201.52,102.40L196.16,102.51L196.06,102.33L199.57,102.20L199.72,102.04z"/><path style="fill:#000020" d="M196.06,102.33L195.78,102.26L195.72,101.47L195.86,101.20z"/><path style="fill:#000020" d="M205.01,102.96L204.82,103.68L204.62,102.64L205.65,102.67z"/><path style="fill:#000020" d="M275.02,104.79L274.87,104.24L274.99,103.94L275.15,103.96z"/><path style="fill:#000020" d="M274.73,106.17L274.59,105.62L274.71,105.33L274.89,105.36z"/><path style="fill:#000020" d="M205.45,106.81L204.93,106.97L204.96,105.33z"/><path style="fill:#000020" d="M274.19,109.20L274.05,108.66L274.16,108.36L274.33,108.37z"/><path style="fill:#000020" d="M273.91,110.58L273.77,110.04L273.88,109.74L274.06,109.78z"/><path style="fill:#000020" d="M273.63,111.96L273.49,111.41L273.61,111.12L273.78,111.15z"/><path style="fill:#000020" d="M255.84,112.15L255.75,111.80L256.06,111.74z"/><path style="fill:#000020" d="M273.09,114.99L272.94,114.44L273.06,114.14L273.26,114.18z"/><path style="fill:#000020" d="M254.88,114.68L254.71,115.75L254.48,114.40L254.72,114.24z"/><path style="fill:#000020" d="M272.80,116.38L272.66,115.82L272.78,115.53L272.96,115.57z"/><path style="fill:#000020" d="M167.61,117.01L167.61,117.38L167.31,117.31L167.31,116.71z"/><path style="fill:#000020" d="M168.69,118.68L168.12,118.67L168.11,118.10z"/><path style="fill:#000020" d="M170.13,119.75L169.67,119.86L169.64,119.54L169.86,119.45z"/><path style="fill:#000020" d="M171.22,119.95L170.59,120.14L170.42,119.80L170.96,119.59L171.25,119.66z"/><path style="fill:#000020" d="M171.06,120.33L171.21,120.18L173.20,120.31z"/><path style="fill:#000020" d="M141.28,125.74L141.48,123.79L142.03,124.01L141.66,126.78z"/><path style="fill:#000020" d="M145.30,128.50L145.00,128.22L145.14,127.67z"/><path style="fill:#000020" d="M124.02,129.36L123.76,128.21L124.05,127.95z"/><path style="fill:#000020" d="M127.20,129.62L127.20,128.21L127.31,128.31z"/><path style="fill:#000020" d="M133.97,129.88L133.75,129.90L133.68,129.06L133.82,128.22L133.95,128.22z"/><path style="fill:#000020" d="M103.30,129.83L102.96,129.83L103.00,129.20L103.35,128.87z"/><path style="fill:#000020" d="M155.05,130.18L155.05,129.32L155.17,129.44z"/><path style="fill:#000020" d="M127.12,130.17L126.62,130.41L127.10,129.93z"/><path style="fill:#000020" d="M103.27,130.46L103.57,130.53L103.64,131.16L103.27,130.83z"/><path style="fill:#000020" d="M107.26,133.41L106.98,133.59L106.61,133.65L106.40,133.30L106.99,133.11L107.29,133.16z"/><path style="fill:#000020" d="M107.08,133.91L107.04,133.76L109.22,133.82z"/><path style="fill:#000020" d="M199.26,135.91L198.93,135.89L198.98,135.01L199.29,134.37z"/><path style="fill:#000020" d="M244.50,136.43L244.51,135.86L245.05,135.73z"/><path style="fill:#000020" d="M199.24,136.25L199.54,136.32L199.61,136.95L199.24,136.62z"/><path style="fill:#000020" d="M200.42,137.69L199.82,137.69L199.75,137.39L200.12,137.39z"/><path style="fill:#000020" d="M202.46,138.95L202.03,139.18L201.87,138.82L202.12,138.64L202.43,138.74z"/><path style="fill:#000020" d="M96.99,146.17L96.83,145.32L96.97,145.42z"/><path style="fill:#000020" d="M102.53,146.97L97.33,146.78L102.47,146.82z"/><path style="fill:#000020" d="M111.69,147.18L110.87,147.33L108.09,147.05L111.68,147.05z"/><path style="fill:#000020" d="M205.44,149.53L210.97,149.68L209.03,149.80L208.71,149.99L208.39,149.82z"/><path style="fill:#000020" d="M221.72,149.95L219.57,150.01L219.51,149.82z"/><path style="fill:#00001c" d="M183.05,103.03L182.06,102.94L182.26,102.81L183.07,102.86z"/><path style="fill:#00001c" d="M171.22,119.95L171.25,119.66L172.29,119.78z"/><path style="fill:#00001c" d="M145.34,129.67L144.50,129.39L145.36,129.28L145.51,129.41z"/><path style="fill:#00001c" d="M107.26,133.41L107.29,133.16L108.03,133.30z"/><path style="fill:#00001c" d="M226.75,146.73L226.47,147.26L226.39,145.92L226.60,145.86z"/><path style="fill:#00001c" d="M111.69,147.18L111.68,147.05L113.27,147.08z"/><path style="fill:#e5e5e5" d="M257.46,6.45L259.67,12.52L261.11,14.40L261.37,15.06L259.98,13.86L258.57,10.86L257.18,7.28L257.20,0.34z"/><path style="fill:#e5e5e5" d="M288.43,9.33L287.89,10.21L288.11,9.24z"/><path style="fill:#e5e5e5" d="M287.80,10.96L287.72,10.35L287.89,10.21z"/><path style="fill:#e5e5e5" d="M264.38,16.63L264.72,17.11L263.81,16.92L263.41,16.10z"/><path style="fill:#e5e5e5" d="M265.75,45.97L265.29,46.60L265.78,44.82L266.04,44.77z"/><path style="fill:#e5e5e5" d="M265.29,46.88L264.90,47.89L264.88,47.04L265.29,46.60z"/><path style="fill:#e5e5e5" d="M225.24,49.71L225.76,50.03L224.93,50.01L224.36,49.20L224.37,47.23z"/><path style="fill:#e5e5e5" d="M224.08,99.12L225.02,100.33L224.38,100.21L223.81,99.39L223.72,97.90z"/><path style="fill:#e5e5e5" d="M175.30,113.15L176.11,115.46L176.97,115.31L177.26,115.60L177.24,116.85L176.13,118.77L175.05,119.62L173.20,120.31L171.21,120.18L171.22,119.95L172.29,119.78L171.25,119.66L173.09,119.04L174.38,117.57L174.76,116.85L174.75,114.81L173.94,113.12L173.56,112.60L174.48,112.30z"/><path style="fill:#e5e5e5" d="M170.96,119.59L170.42,119.80L170.13,119.75L169.86,119.45z"/><path style="fill:#e5e5e5" d="M141.28,125.74L141.11,124.93L141.48,123.79z"/><path style="fill:#e5e5e5" d="M111.32,126.95L112.06,128.97L113.29,128.89L113.26,129.79L112.70,131.17L111.21,132.99L109.22,133.82L107.04,133.76L106.98,133.59L107.26,133.41L108.03,133.30L107.29,133.16L109.71,132.04L110.50,130.63L110.78,128.89L110.22,127.21L109.65,126.65L109.64,125.93L110.50,125.80z"/><path style="fill:#e5e5e5" d="M133.82,128.22L133.68,129.06L133.52,129.05L133.69,127.41z"/><path style="fill:#e5e5e5" d="M152.26,131.02L151.87,131.12L151.65,130.45z"/><path style="fill:#e5e5e5" d="M105.26,132.75L104.73,132.75L104.14,132.15L104.14,131.62z"/><path style="fill:#e5e5e5" d="M136.24,134.10L135.61,134.13L134.76,133.28L134.57,132.65z"/><path style="fill:#e5e5e5" d="M106.99,133.11L106.40,133.30L105.97,132.99z"/><path style="fill:#e5e5e5" d="M202.12,138.64L201.87,138.82L201.46,138.88L201.40,138.55L202.01,138.47z"/><path style="fill:#e5e5e5" d="M238.24,139.77L236.40,143.19L234.33,144.98L230.71,148.00L230.69,147.46L233.65,141.82L237.83,139.59z"/><path style="fill:#616871" d="M77.40,95.51L78.29,96.54L77.40,96.33L75.47,94.41L74.09,93.29L73.94,92.68L74.09,92.74z"/><path style="fill:#616871" d="M165.92,97.44L166.81,98.47L165.92,98.26L163.99,96.34L162.89,95.49L162.73,94.89L162.90,94.94z"/><path style="fill:#616871" d="M80.78,98.42L79.86,98.29L78.51,97.15L78.29,96.54z"/><path style="fill:#616871" d="M17.92,97.85L17.73,97.81L17.76,96.90L17.92,96.84z"/><path style="fill:#616871" d="M168.10,99.40L168.76,100.33L168.13,100.20L167.03,99.08L166.81,98.47z"/><path style="fill:#616871" d="M106.70,100.05L106.51,99.99L106.63,99.17L106.96,99.01z"/><path style="fill:#616871" d="M183.07,102.86L182.26,102.81L183.03,102.68z"/><path style="fill:#616871" d="M141.48,123.79L141.11,124.93L140.95,123.57z"/><path style="fill:#616871" d="M133.95,128.22L133.82,128.22L133.69,127.41L134.54,125.77z"/><path style="fill:#616871" d="M96.74,141.74L96.71,144.14L87.96,144.01L1.37,141.81L0.27,141.68L0.37,139.33z"/><path style="fill:#616871" d="M229.08,144.67L226.75,146.73L226.60,145.86L228.74,144.56z"/><path style="fill:#ffffff" d="M264.10,59.88L264.18,60.40L263.80,60.18L263.82,59.63z"/><path style="fill:#ffffff" d="M264.94,61.05L264.38,61.07L264.18,60.40z"/><path style="fill:#ffffff" d="M20.87,96.06L21.46,96.57L21.99,97.72L17.92,97.85L17.92,96.84L18.56,96.05L20.03,95.76z"/><path style="fill:#ffffff" d="M70.83,97.66L71.44,98.98L67.35,98.99L67.24,98.74L67.92,97.42L68.47,97.15L69.97,97.15z"/><path style="fill:#ffffff" d="M109.98,98.50L110.89,99.86L109.47,100.16L106.70,100.05L106.96,99.01L107.61,98.26L108.08,98.10L109.23,98.10z"/><path style="fill:#ffffff" d="M199.32,101.26L199.72,102.04L199.57,102.20L196.06,102.33L195.86,101.20L196.04,100.83L196.53,100.59L196.58,100.41L196.89,100.31L198.02,100.31L198.49,100.46z"/><g id="Actor_.0"><g style="stroke:#000000;stroke-width:0.176"><path d="M135.28,124.52 C134.77,125.16 134.77,125.17 134.30,125.85 C133.97,126.68 133.96,126.69 133.69,127.54 C133.62,128.64 133.62,128.65 133.60,129.75 "/><path d="M259.90,13.60 C262.19,15.30 262.20,15.31 264.43,17.08 C265.35,18.18 265.35,18.19 266.20,19.34 C266.76,20.64 266.77,20.66 267.25,21.99 C267.42,23.52 267.42,23.53 267.51,25.07 "/><path d="M267.51,25.07 C266.97,27.16 266.97,27.16 266.47,29.26 C266.44,29.95 266.45,29.96 266.46,30.66 C266.60,31.27 266.60,31.28 266.77,31.88 "/><path d="M96.85,142.52 L226.15,145.81 L226.60,149.78 L226.67,147.57 L229.11,145.49 L228.38,146.83 L226.67,147.57 L226.43,145.80 L226.15,145.81 "/><path d="M99.37,122.64 L101.20,121.65 "/><path d="M100.92,121.88 L152.90,106.23 L203.15,107.13 "/><path d="M124.14,130.18 L125.29,130.71 L126.77,130.21 L125.56,130.48 L124.41,129.94 L123.83,128.82 L124.22,127.37 L123.56,128.40 L124.14,130.18 "/><path d="M126.77,130.21 L127.40,128.95 L126.94,127.54 L125.98,126.90 L124.35,127.20 "/><path d="M133.98,131.94 L133.32,129.98 L133.35,127.97 L134.02,126.08 L135.28,124.52 "/><path d="M133.60,129.75 L134.20,131.60 L135.44,133.29 L137.11,134.44 L139.05,134.99 L141.06,134.87 L142.84,134.14 L140.79,135.10 L138.78,135.22 L136.84,134.67 L135.30,133.62 L133.98,131.94 "/><path d="M135.45,124.41 L136.98,123.46 L138.93,123.02 L140.75,123.21 L141.32,123.41 L141.37,126.11 "/><path d="M141.47,125.43 L141.23,124.70 "/><path d="M141.57,123.88 L141.32,123.41 "/><path d="M141.44,123.47 L141.54,123.51 "/><path d="M142.89,134.11 L144.10,133.04 L145.12,131.26 L145.32,130.15 "/><path d="M151.33,129.76 L152.45,131.25 L153.71,131.38 L154.55,130.91 L153.34,131.19 L152.19,130.65 L151.60,129.43 L152.13,127.91 L151.55,128.51 L151.33,129.76 "/><path d="M154.55,130.91 L155.16,129.74 L154.80,128.32 L153.75,127.61 L152.13,127.91 "/><path d="M152.02,106.35 L152.30,106.12 "/><path d="M153.77,106.11 L154.04,105.88 "/><path d="M202.88,107.36 L204.60,107.14 L206.35,106.19 "/><path d="M222.08,41.69 L224.17,40.08 "/><path d="M222.32,41.51 L222.35,41.46 "/><path d="M224.61,95.69 L223.54,97.40 L223.82,99.23 L224.40,99.99 L226.06,100.76 L228.09,100.14 "/><path d="M225.24,45.61 L224.18,47.28 L224.16,48.25 L225.01,49.89 L226.60,50.65 L227.62,50.62 L228.73,50.04 "/><path d="M223.90,40.32 L232.48,35.96 L234.01,34.86 "/><path d="M226.43,145.66 L229.90,143.76 L229.11,145.49 "/><path d="M228.70,146.34 L230.71,147.33 L230.01,148.37 "/><path d="M229.97,143.72 L233.20,141.95 L230.71,147.33 L236.89,142.06 "/><path d="M232.48,35.96 L232.75,35.73 "/><path d="M238.42,139.08 L233.35,141.87 "/><path d="M261.62,118.75 L259.97,119.55 L258.50,119.64 L257.01,119.23 L255.76,118.37 L254.85,117.15 L254.39,114.35 L254.90,112.78 L256.01,111.50 "/><path d="M259.81,26.15 L258.02,26.97 L257.09,26.88 L255.56,25.83 L255.00,24.19 L255.15,23.15 L256.30,21.73 "/><path d="M257.20,5.50 L256.94,5.74 L257.16,6.98 L259.90,13.60 "/><path d="M266.77,31.88 L267.07,31.78 "/><path d="M257.16,6.98 L257.44,6.75 "/><path d="M256.94,5.74 L257.01,0.00 "/><path d="M259.23,12.36 L259.51,12.13 "/><path d="M269.45,37.96 L269.18,38.19 L269.30,40.25 L268.88,41.19 L265.71,44.86 L264.37,48.38 L262.72,58.27 L263.13,59.75 L263.96,60.99 L266.52,62.43 L269.42,62.09 L270.71,61.18 "/><path d="M262.76,56.85 L263.03,56.61 "/><path d="M262.01,15.40 L262.29,15.17 "/><path d="M264.35,48.43 L264.63,48.20 "/><path d="M266.80,32.02 L269.18,38.19 "/><path d="M266.83,27.91 L267.10,27.68 "/><path d="M268.19,41.96 L268.47,41.73 "/><path d="M270.14,121.26 L271.55,119.32 L272.61,116.81 "/><path d="M272.34,117.04 L285.52,48.62 "/><path d="M274.51,48.62 L280.61,45.02 "/><path d="M274.79,48.39 L274.75,48.44 "/><path d="M275.28,48.04 L275.55,47.81 "/><path d="M280.34,45.26 L282.43,44.89 L283.45,45.22 L284.90,46.66 L285.24,48.86 "/></g><g style="stroke:#000000;stroke-width:0.529"><path d="M222.08,41.69 C221.43,42.61 221.41,42.63 220.84,43.59 C220.14,45.97 220.28,46.05 219.53,48.39 C214.44,57.15 214.42,57.18 209.15,65.82 "/><path d="M204.87,106.90 C204.02,107.04 204.01,107.04 203.15,107.13 C178.60,106.53 178.59,106.48 154.04,105.88 C153.17,105.97 153.16,105.97 152.30,106.12 C126.74,113.85 126.74,113.86 101.20,121.65 C100.42,122.00 100.41,122.00 99.65,122.40 C98.88,123.09 98.87,123.10 98.14,123.84 "/><path d="M97.34,125.36 C97.17,126.21 97.17,126.21 97.04,127.07 C96.93,135.47 96.91,135.48 96.86,143.88 C97.06,145.19 97.06,145.21 97.34,146.51 "/><path d="M238.42,139.08 C253.33,130.94 253.34,130.93 268.22,122.71 C269.34,121.91 269.34,121.90 270.41,121.03 C271.08,120.17 271.08,120.15 271.70,119.25 C272.18,118.05 272.20,118.04 272.61,116.81 C279.12,82.19 279.12,82.18 285.55,47.55 "/><path d="M263.40,59.52 C263.15,58.09 263.15,58.06 263.03,56.61 C263.74,52.49 263.77,52.48 264.59,48.38 C265.24,46.49 265.25,46.48 265.98,44.62 "/><path d="M266.73,30.42 C266.72,29.73 266.72,29.72 266.75,29.03 C267.24,26.93 267.32,26.93 267.78,24.84 C267.74,23.42 267.72,23.40 267.59,21.99 C267.10,20.57 267.09,20.55 266.52,19.17 C265.66,17.99 265.65,17.97 264.71,16.85 C262.95,15.59 262.93,15.58 261.12,14.40 "/><path d="M234.47,0.00 L236.17,2.99 L236.39,4.77 L235.81,31.88 L235.08,33.57 L234.03,34.84 L224.17,40.08 L222.08,41.69 "/><path d="M209.15,65.82 L208.50,101.94 L208.20,103.65 L207.40,105.18 L206.36,106.18 L204.87,106.90 "/><path d="M98.14,123.84 L97.34,125.36 "/><path d="M97.34,146.51 L227.70,149.67 L229.04,149.16 L236.19,143.10 L238.42,139.08 "/><path d="M285.55,47.55 L285.23,46.51 L283.85,45.08 L281.62,44.67 L274.51,48.62 L273.64,50.31 L271.54,60.11 L269.69,61.86 L266.79,62.19 L265.40,61.68 L263.40,59.52 "/><path d="M265.98,44.62 L269.15,40.96 L269.67,38.98 L266.73,30.42 "/><path d="M261.12,14.40 L259.51,12.13 L257.26,6.13 L257.28,0.00 "/><path d="M145.32,130.15 L145.17,127.29 L144.23,125.49 L142.77,124.09 L141.54,123.51 L141.58,126.56 "/><path d="M224.08,98.95 L225.43,100.28 L227.27,100.47 L228.10,100.13 L228.99,98.95 L229.02,97.08 L227.70,95.50 L226.13,95.11 L225.23,95.31 L224.13,96.29 L223.82,97.17 L224.08,98.95 "/><path d="M224.40,47.56 L225.24,45.61 L226.76,45.01 L228.80,45.77 L229.65,47.00 L229.79,47.92 L229.63,48.84 L228.80,49.98 L226.96,50.44 L225.29,49.66 L224.40,47.56 "/><path d="M255.20,117.02 L254.65,115.48 L254.67,113.96 L256.01,111.50 L258.50,110.50 L260.08,110.64 L261.46,111.29 L262.56,112.34 L263.26,113.69 L263.49,115.18 L262.90,117.24 L261.80,118.59 L260.25,119.32 L258.74,119.40 L256.92,118.74 L255.20,117.02 "/><path d="M255.83,25.59 L257.36,26.64 L259.20,26.53 L260.29,25.55 L260.61,24.68 L260.33,22.85 L258.99,21.57 L258.09,21.32 L256.30,21.73 L255.42,22.92 L255.26,23.83 L255.83,25.59 "/></g></g><g id="Actor_.1"><g style="stroke:#000000;stroke-width:0.176"><path d="M194.39,95.04 C195.25,94.72 195.25,94.72 196.12,94.44 C197.03,94.34 197.03,94.34 197.94,94.27 C203.27,94.39 203.27,94.39 208.59,94.54 "/><path d="M288.00,104.92 C288.97,103.66 288.98,103.64 289.88,102.32 C290.45,100.83 290.45,100.81 290.93,99.28 C291.05,97.68 291.05,97.67 291.07,96.06 C290.72,94.49 290.71,94.47 290.27,92.92 C289.50,91.53 289.48,91.52 288.63,90.16 C284.22,84.63 284.21,84.63 279.74,79.15 "/><path d="M168.27,99.30 L168.13,99.42 "/><path d="M171.60,101.53 L169.84,100.69 "/><path d="M169.80,100.31 L169.57,100.50 "/><path d="M187.83,100.16 L185.90,101.38 L184.28,101.94 "/><path d="M194.36,95.06 L188.04,99.99 "/><path d="M193.13,95.79 L192.86,96.02 "/><path d="M195.55,102.23 L195.65,101.25 L196.35,100.30 "/><path d="M197.94,94.27 L198.22,94.04 "/><path d="M244.66,135.87 L244.89,135.53 "/><path d="M255.54,112.10 L256.22,112.43 L254.66,114.98 "/><path d="M255.21,117.03 L256.22,115.38 L255.44,117.34 "/><path d="M256.22,112.43 L258.47,110.51 "/><path d="M255.70,25.34 L257.35,25.00 L259.13,23.91 "/><path d="M256.57,118.51 L260.29,110.74 "/><path d="M258.85,24.14 L260.35,22.93 "/><path d="M265.72,61.79 L263.13,58.59 "/><path d="M269.64,15.42 L265.94,18.42 "/><path d="M282.72,100.76 L281.09,101.55 L279.58,101.64 L278.01,101.15 L276.87,100.37 L275.96,99.16 "/><path d="M277.20,3.91 L276.45,4.73 L276.10,6.03 L276.42,7.43 L276.98,8.19 L278.66,8.97 L279.59,8.91 L280.69,8.34 "/><path d="M277.13,93.51 L277.00,93.58 "/><path d="M285.09,13.77 L287.27,11.25 L288.47,8.13 L288.54,4.78 L287.46,1.59 L286.21,0.00 "/><path d="M288.20,104.74 L288.28,104.69 "/><path d="M288.62,90.14 L288.89,89.90 "/></g><g style="stroke:#000000;stroke-width:0.529"><path d="M196.40,94.21 C195.54,94.48 195.54,94.48 194.70,94.79 C193.91,95.27 193.91,95.28 193.13,95.79 C189.76,98.40 189.80,98.46 186.41,101.03 C185.39,101.46 185.36,101.43 184.31,101.79 C183.68,101.87 183.67,101.87 183.03,101.91 "/><path d="M273.22,113.57 C279.35,110.25 279.36,110.24 285.45,106.85 C286.75,105.92 286.76,105.92 288.00,104.92 C289.11,103.54 289.12,103.52 290.15,102.09 "/><path d="M290.15,102.09 C290.72,100.59 290.73,100.58 291.21,99.05 C291.32,97.45 291.32,97.43 291.34,95.83 C290.99,94.26 290.99,94.24 290.55,92.69 C289.76,91.28 289.75,91.27 288.89,89.90 C284.39,84.27 284.39,84.27 279.83,78.68 "/><path d="M173.82,101.67 L172.05,101.38 L167.68,99.02 "/><path d="M208.60,94.30 L196.40,94.21 "/><path d="M195.86,102.23 L195.92,101.02 L196.37,100.29 "/><path d="M232.33,0.00 L231.88,36.17 "/><path d="M241.97,137.13 L243.74,136.63 L245.40,135.25 "/><path d="M260.35,22.92 L257.62,24.76 L255.56,25.07 "/><path d="M265.93,18.42 L269.64,15.42 L270.76,14.18 L271.46,12.59 L271.42,9.90 L270.42,7.70 L269.09,6.47 L267.50,5.75 L265.77,5.55 L264.07,5.90 L262.57,6.76 L258.65,9.92 "/><path d="M266.38,62.04 L263.00,57.85 "/><path d="M266.90,28.43 L285.09,13.77 L287.47,11.11 L288.74,7.90 L288.81,4.55 L287.74,1.36 L286.67,0.00 "/><path d="M276.08,98.46 L277.08,100.05 L278.30,100.93 L279.85,101.41 L281.36,101.32 L282.70,100.77 L283.52,100.05 L284.33,98.67 L284.60,97.19 L284.37,95.69 L283.67,94.35 L282.57,93.29 L281.20,92.65 L279.69,92.49 L278.30,92.81 L276.99,93.68 "/><path d="M276.50,6.60 L277.20,7.87 L278.03,8.48 L279.86,8.68 L280.70,8.34 L281.60,7.14 L281.62,5.29 L280.51,3.81 L279.66,3.41 L277.82,3.52 L276.62,4.80 L276.50,6.60 "/></g></g><g id="Actor_.2"><g style="stroke:#000000;stroke-width:0.176"><path d="M71.10,91.50 C72.73,92.32 72.75,92.33 74.33,93.24 C76.79,95.38 76.74,95.46 79.20,97.60 C80.63,98.50 80.64,98.51 82.11,99.34 "/><path d="M105.24,93.01 C106.98,92.55 107.01,92.55 108.79,92.24 C133.48,92.79 133.50,92.79 158.18,93.50 C159.94,93.89 159.98,93.90 161.70,94.44 "/><path d="M-0.00,137.03 L96.89,139.50 "/><path d="M203.50,107.14 L-0.00,101.96 "/><path d="M-0.00,101.04 L194.00,105.97 L194.23,105.55 L194.26,103.75 L-0.00,98.81 "/><path d="M6.51,97.42 L17.78,97.70 "/><path d="M20.17,89.75 L16.50,90.69 L9.72,95.93 L6.89,97.43 "/><path d="M9.90,95.78 L10.00,95.70 "/><path d="M14.81,91.73 L15.09,91.50 "/><path d="M17.47,97.69 L17.98,96.29 L18.55,95.79 "/><path d="M19.90,89.98 L71.10,91.50 "/><path d="M67.17,98.96 L22.13,97.81 "/><path d="M53.96,99.38 L58.51,99.42 L56.10,99.71 L53.96,99.38 "/><path d="M53.93,99.54 L53.93,99.46 "/><path d="M58.61,99.50 L58.61,99.59 "/><path d="M66.86,98.95 L66.99,98.22 L67.95,97.04 "/><path d="M69.29,91.24 L69.56,91.01 "/><path d="M83.03,99.36 L71.52,99.07 "/><path d="M74.33,93.24 L74.60,93.01 "/><path d="M79.58,97.47 L79.31,97.70 "/><path d="M95.40,99.68 L106.66,99.96 "/><path d="M95.77,99.69 L98.60,98.19 L103.98,93.76 "/><path d="M98.87,97.96 L98.60,98.19 "/><path d="M103.70,93.99 L105.24,93.01 "/><path d="M161.70,94.44 L168.20,99.96 L170.99,101.60 "/><path d="M107.44,98.05 L106.49,99.22 L106.36,99.96 "/><path d="M108.79,92.24 L109.06,92.01 "/><path d="M111.02,100.08 L171.92,101.62 "/><path d="M117.82,101.17 L119.29,100.84 L122.40,101.04 L120.64,101.34 L117.82,101.09 "/><path d="M122.50,101.21 L122.50,101.13 "/><path d="M135.45,124.41 L134.30,125.85 L133.69,127.54 L133.59,129.75 L134.17,131.48 L135.44,133.30 L137.11,134.44 L139.05,134.98 L141.07,134.87 L142.89,134.12 "/><path d="M143.15,133.89 L141.34,134.64 L139.33,134.75 L137.50,134.24 L135.72,133.06 L134.50,131.44 L133.87,129.52 L133.98,127.25 L134.58,125.61 L135.63,124.30 "/><path d="M145.26,127.90 L142.49,127.83 L141.90,127.22 L141.15,125.61 L141.01,123.27 "/><path d="M140.97,123.89 L141.36,126.07 "/><path d="M141.21,124.62 L141.29,123.40 "/><path d="M142.49,127.83 L143.45,128.64 L145.45,129.42 "/><path d="M158.18,93.50 L158.45,93.27 "/><path d="M163.22,95.51 L163.49,95.27 "/><path d="M168.20,99.96 L168.47,99.73 "/><path d="M181.73,102.63 L186.29,102.67 L183.94,102.96 L181.73,102.63 "/><path d="M181.71,102.72 L181.71,102.79 "/><path d="M197.95,94.27 L194.11,95.27 L187.49,100.45 L184.65,101.95 "/><path d="M184.27,101.94 L195.54,102.23 "/><path d="M187.49,100.45 L187.76,100.22 "/><path d="M192.59,96.25 L192.87,96.02 "/><path d="M194.23,105.98 L201.30,105.80 L203.50,105.35 L204.29,104.72 L204.65,107.01 "/><path d="M203.59,105.32 L203.62,103.09 L199.36,103.71 L194.26,103.75 "/><path d="M196.34,100.30 L195.56,101.15 L195.24,102.22 "/><path d="M197.68,94.51 L208.59,94.78 "/><path d="M204.34,104.68 L204.37,102.45 L199.91,102.34 "/><path d="M203.62,103.09 L204.37,102.45 L204.58,102.63 L204.92,106.88 "/><path d="M204.58,102.63 L208.36,102.73 "/><path d="M227.17,95.26 L225.63,95.22 "/></g><g style="stroke:#000000;stroke-width:0.529"><path d="M107.24,92.18 C105.59,92.92 105.58,92.93 103.98,93.76 C100.63,96.31 100.68,96.40 97.33,98.95 C96.39,99.36 96.37,99.37 95.40,99.68 "/><path d="M-0.00,141.50 L96.87,143.97 "/><path d="M-0.00,97.25 L6.51,97.42 "/><path d="M6.51,97.42 L8.25,96.82 L15.09,91.50 L18.35,89.92 L29.70,89.99 L71.29,91.26 L73.09,91.95 L79.58,97.47 L83.03,99.36 "/><path d="M22.13,97.81 L21.41,96.09 L20.03,95.45 L18.25,96.06 L17.78,97.70 "/><path d="M22.13,97.81 L17.78,97.70 "/><path d="M67.17,98.96 L71.52,99.07 "/><path d="M67.17,98.96 L67.64,97.32 L69.30,96.71 L70.79,97.35 L71.52,99.07 "/><path d="M95.40,99.68 L83.03,99.36 "/><path d="M171.92,101.62 L170.19,100.94 L163.49,95.27 L160.27,93.53 L122.61,92.36 L107.24,92.18 "/><path d="M106.66,99.96 L107.14,98.32 L108.90,97.71 L110.29,98.36 L111.02,100.08 "/><path d="M106.66,99.96 L111.02,100.08 "/><path d="M184.27,101.94 L171.92,101.62 "/><path d="M184.27,101.94 L187.76,100.22 L194.39,95.04 L196.12,94.44 L208.59,94.54 "/><path d="M195.54,102.23 L196.03,100.58 L197.79,99.97 L199.10,100.57 L199.91,102.34 "/><path d="M199.91,102.34 L195.54,102.23 "/><path d="M229.94,143.78 L226.46,146.75 "/></g></g><g id="Actor_.3"><g style="stroke:#000000;stroke-width:0.176"><path d="M105.41,127.28 L104.85,127.93 L104.53,128.74 L104.50,129.61 L104.74,130.45 L105.25,131.16 L105.96,131.68 L106.79,131.94 L107.66,131.91 L108.47,131.61 L109.13,131.05 L109.19,130.95 L109.57,130.31 L109.75,129.46 L109.64,128.60 L109.26,127.81 L108.65,127.19 L107.87,126.79 L107.01,126.67 L106.16,126.84 L105.41,127.28 L105.45,127.24 "/><path d="M108.83,131.31 L108.95,131.21 "/><path d="M108.47,131.61 L108.51,131.57 "/></g></g><g id="Actor_.4"><g style="stroke:#000000;stroke-width:0.176"><path d="M209.08,133.38 C208.81,132.57 208.81,132.57 208.52,131.77 C208.30,131.40 208.29,131.40 208.06,131.05 C207.77,130.73 207.77,130.72 207.48,130.42 C206.78,129.93 206.77,129.93 206.06,129.47 "/><path d="M205.46,130.70 C206.00,131.05 206.01,131.05 206.54,131.41 C206.76,131.64 206.76,131.65 206.97,131.89 C207.15,132.16 207.16,132.16 207.33,132.43 C207.54,133.04 207.55,133.04 207.74,133.65 "/><path d="M202.75,139.17 L204.44,139.33 L206.08,138.92 L207.50,138.01 L208.54,136.68 L209.08,135.08 L209.08,133.38 "/><path d="M206.06,129.47 L204.41,129.04 L202.72,129.16 L201.17,129.83 L199.93,130.97 L199.12,132.45 L198.85,134.13 "/><path d="M200.15,136.52 L199.79,135.48 L199.79,134.38 L200.14,133.34 L200.82,132.48 L201.73,131.89 L202.80,131.63 L203.89,131.73 L204.90,132.18 L205.70,132.93 L206.23,133.91 L206.41,134.99 L206.24,136.08 L205.72,137.04 L204.91,137.78 L203.91,138.21 L202.81,138.29 L201.75,138.01 L200.83,137.40 L200.15,136.52 "/><path d="M199.74,136.73 L200.52,137.74 L201.59,138.45 L202.84,138.78 L204.11,138.69 L205.29,138.19 L206.22,137.33 L206.83,136.20 L207.04,134.94 L206.82,133.67 L206.21,132.54 L205.27,131.66 L204.09,131.13 L202.82,131.02 L201.58,131.32 L200.51,132.01 L201.77,130.97 L202.94,130.47 L204.22,130.37 L205.46,130.70 "/><path d="M207.74,133.65 L207.75,134.93 L207.34,136.14 L206.55,137.15 L205.29,138.19 "/><path d="M200.51,132.01 L199.72,133.01 L199.31,134.22 L199.31,135.51 L199.73,136.72 "/><path d="M200.53,137.75 L201.23,138.21 "/><path d="M200.48,134.47 L200.47,134.57 "/><path d="M200.81,133.60 L200.75,133.68 L200.69,133.85 "/><path d="M201.41,132.91 L201.28,132.99 L201.09,133.24 "/><path d="M201.80,132.66 L201.72,132.71 "/><path d="M202.83,137.59 L202.95,137.60 "/><path d="M203.91,137.46 L203.74,137.54 L203.64,137.54 "/><path d="M204.39,137.26 L204.54,137.19 L204.78,136.97 "/><path d="M205.05,136.73 L205.17,136.61 L205.21,136.54 "/></g><g style="stroke:#000000;stroke-width:0.529"><path d="M198.85,134.14 C198.97,133.30 198.97,133.29 199.12,132.45 C199.31,132.03 199.33,132.03 199.53,131.61 C199.73,131.29 199.72,131.28 199.93,130.97 C200.24,130.62 200.25,130.62 200.57,130.28 C200.87,130.05 200.87,130.05 201.17,129.83 C201.58,129.59 201.58,129.59 201.99,129.37 C202.35,129.26 202.35,129.26 202.72,129.16 C203.18,129.06 203.18,129.05 203.63,128.97 C204.47,129.03 204.48,129.03 205.32,129.13 "/><path d="M209.22,134.17 C209.10,135.00 209.10,135.01 208.95,135.84 C208.76,136.26 208.75,136.26 208.54,136.68 C208.34,137.00 208.35,137.01 208.15,137.33 C207.83,137.67 207.83,137.67 207.50,138.01 C207.21,138.24 207.20,138.24 206.90,138.46 C206.50,138.70 206.50,138.70 206.08,138.92 C205.72,139.04 205.72,139.03 205.35,139.13 C204.90,139.23 204.90,139.25 204.44,139.33 C203.60,139.26 203.59,139.26 202.75,139.17 "/><path d="M199.04,135.24 L198.85,134.14 "/><path d="M205.32,129.13 L206.88,129.82 L208.13,130.99 L208.94,132.49 L209.22,134.17 "/><path d="M202.75,139.17 L201.20,138.47 L199.94,137.31 L199.13,135.80 L199.04,135.24 "/><path d="M202.18,132.48 L202.01,132.52 L201.80,132.66 "/><path d="M203.37,132.36 L203.72,132.40 L203.88,132.47 "/><path d="M203.02,132.33 L202.85,132.32 L202.52,132.40 "/><path d="M204.65,132.87 L204.52,132.76 L204.20,132.61 "/><path d="M205.34,136.30 L205.21,136.54 "/><path d="M205.50,136.00 L205.59,135.85 L205.64,135.50 "/><path d="M205.70,135.16 L205.73,134.99 L205.67,134.64 "/><path d="M205.61,134.29 L205.58,134.14 L205.41,133.82 "/><path d="M205.25,133.50 L205.16,133.35 L204.91,133.11 "/></g></g><g id="Actor_.5"><g style="stroke:#000000;stroke-width:0.176"><path d="M201.47,132.85 L200.87,133.47 L200.50,134.25 L200.41,135.12 L200.61,135.97 L201.07,136.71 L201.74,137.27 L202.55,137.58 L203.42,137.61 L204.25,137.36 L204.95,136.85 L205.44,136.14 L205.67,135.30 L205.62,134.43 L205.29,133.62 L204.71,132.96 L203.96,132.52 L203.11,132.35 L202.25,132.46 L201.47,132.85 L201.50,132.83 "/><path d="M204.95,136.85 L204.97,136.83 "/></g></g><g id="Actor_.6"><g style="stroke:#000000;stroke-width:0.176"><path d="M102.49,146.79 C102.71,146.89 102.72,146.90 102.94,146.99 C103.45,147.08 103.45,147.08 103.95,147.16 C104.68,147.24 104.68,147.24 105.41,147.30 C106.28,147.35 106.28,147.35 107.15,147.39 C108.07,147.40 108.07,147.40 108.99,147.41 C109.86,147.39 109.86,147.39 110.73,147.37 C111.46,147.32 111.46,147.32 112.19,147.26 C112.69,147.19 112.69,147.20 113.20,147.11 C113.42,147.03 113.43,147.03 113.65,146.93 "/></g><g style="stroke:#000000;stroke-width:0.529"><path d="M112.50,148.07 C111.77,148.43 111.77,148.43 111.05,148.79 C110.93,148.84 110.93,148.84 110.80,148.89 C110.53,148.93 110.53,148.93 110.26,148.97 C109.67,149.03 109.67,149.03 109.07,149.09 C108.89,149.11 108.89,149.11 108.71,149.12 C108.26,149.12 108.26,149.13 107.81,149.12 C107.41,149.10 107.41,149.10 107.01,149.07 C106.42,148.99 106.42,148.99 105.83,148.91 C105.56,148.87 105.56,148.87 105.29,148.82 C105.17,148.77 105.17,148.77 105.05,148.71 C104.33,148.34 104.33,148.34 103.61,147.96 "/><path d="M113.65,146.92 L112.50,148.07 "/><path d="M103.61,147.96 L102.49,146.79 L102.51,146.64 "/></g></g><g id="Actor_.7"><g style="stroke:#000000;stroke-width:0.176"><path d="M112.43,125.81 C112.77,126.59 112.77,126.59 113.08,127.38 C113.16,127.80 113.15,127.81 113.21,128.23 C113.21,128.65 113.22,128.66 113.19,129.08 C112.99,129.90 112.99,129.90 112.75,130.72 "/><path d="M108.42,132.95 C108.99,132.68 109.00,132.68 109.56,132.37 C110.19,131.85 110.19,131.85 110.80,131.30 C111.17,130.79 111.17,130.78 111.51,130.25 "/><path d="M111.51,130.25 C111.69,129.64 111.69,129.63 111.85,129.02 C111.86,128.70 111.86,128.69 111.86,128.37 C111.82,128.05 111.82,128.05 111.76,127.74 C111.53,127.14 111.53,127.14 111.27,126.55 "/><path d="M106.78,124.86 C106.20,125.13 106.20,125.13 105.64,125.44 C105.01,125.96 105.01,125.96 104.40,126.51 C104.03,127.02 104.02,127.03 103.68,127.56 "/><path d="M102.93,128.78 L103.10,127.09 L103.80,125.56 L104.97,124.34 L106.48,123.58 L108.15,123.35 L109.82,123.67 L111.30,124.53 L112.43,125.81 "/><path d="M112.75,130.72 L111.80,132.11 L110.45,133.11 L108.83,133.62 L107.14,133.57 "/><path d="M103.35,128.78 L103.43,130.08 L103.93,131.27 L104.36,131.76 L104.78,132.23 L105.90,132.88 L107.15,133.13 L108.42,132.95 "/><path d="M111.27,126.55 L110.42,125.58 L109.30,124.93 L108.04,124.69 L106.78,124.86 "/><path d="M103.68,127.56 L103.35,128.78 "/><path d="M104.33,131.03 L103.90,130.01 L103.83,128.92 L104.12,127.86 L104.73,126.96 L105.60,126.31 L106.65,125.98 L107.75,126.01 L108.78,126.40 L109.64,127.10 L110.22,128.04 L110.48,129.11 L110.37,130.20 L109.91,131.20 L109.15,131.98 L108.18,132.48 L107.09,132.63 L106.02,132.41 L105.19,131.94 L105.06,131.86 L104.33,131.03 "/><path d="M104.40,126.51 L105.42,125.75 L106.64,125.37 L107.92,125.41 L108.90,125.77 L109.12,125.86 L110.12,126.68 L110.80,127.77 L111.10,129.02 L110.97,130.30 L110.44,131.46 L109.56,132.37 "/><path d="M104.52,128.97 L104.52,129.05 "/><path d="M104.79,128.09 L104.74,128.15 L104.70,128.31 "/><path d="M105.07,127.68 L105.23,127.44 L105.35,127.35 "/><path d="M106.25,131.77 L106.25,131.77 "/><path d="M105.65,127.13 L105.93,126.92 "/><path d="M107.06,131.93 L107.20,131.93 "/><path d="M108.16,131.72 L107.97,131.82 L107.86,131.83 "/><path d="M108.59,131.50 L108.74,131.43 L108.99,131.17 "/></g><g style="stroke:#000000;stroke-width:0.529"><path d="M102.93,128.78 C103.00,127.94 103.00,127.93 103.10,127.09 C103.26,126.66 103.27,126.66 103.46,126.23 C103.63,125.89 103.62,125.89 103.80,125.56 C104.10,125.19 104.10,125.19 104.41,124.84 C104.69,124.59 104.69,124.58 104.97,124.34 C105.36,124.08 105.36,124.08 105.76,123.83 C106.12,123.70 106.12,123.70 106.48,123.58 C106.93,123.45 106.93,123.44 107.38,123.33 C108.22,123.34 108.23,123.34 109.07,123.38 "/><path d="M113.28,128.17 C113.21,129.01 113.21,129.02 113.11,129.86 C112.95,130.29 112.93,130.29 112.75,130.72 C112.58,131.05 112.59,131.06 112.41,131.39 C112.11,131.76 112.11,131.76 111.80,132.11 C111.52,132.36 111.52,132.36 111.24,132.61 C110.85,132.87 110.85,132.87 110.45,133.11 C110.09,133.25 110.09,133.25 109.73,133.37 C109.28,133.50 109.28,133.51 108.83,133.62 C107.99,133.61 107.98,133.61 107.14,133.57 "/><path d="M103.40,130.57 L103.32,130.44 L102.93,128.78 "/><path d="M109.07,123.38 L110.00,123.73 L110.67,123.98 L111.99,125.06 L112.89,126.51 L113.28,128.17 "/><path d="M107.14,133.57 L105.54,132.97 L104.22,131.89 L103.40,130.57 "/><path d="M106.93,126.67 L106.76,126.66 L106.42,126.77 "/><path d="M106.09,126.87 L105.93,126.92 "/><path d="M107.79,126.75 L107.63,126.69 L107.28,126.68 "/><path d="M108.12,126.87 L108.45,126.99 L108.58,127.10 "/><path d="M108.85,127.33 L109.13,127.55 L109.22,127.70 "/><path d="M109.22,130.93 L109.34,130.80 L109.49,130.49 "/><path d="M109.63,130.17 L109.70,130.01 L109.74,129.67 "/><path d="M109.71,128.81 L109.79,129.15 L109.77,129.32 "/><path d="M109.63,128.46 L109.59,128.29 L109.40,128.00 "/></g></g><g id="Actor_.8"><g style="stroke:#000000;stroke-width:0.176"><path d="M208.71,149.62 C209.13,149.72 209.13,149.72 209.55,149.81 C210.21,149.89 210.21,149.89 210.88,149.96 C211.71,150.01 211.71,150.01 212.55,150.06 C213.46,150.09 213.46,150.09 214.38,150.11 C215.28,150.10 215.28,150.10 216.18,150.08 C216.99,150.04 216.99,150.04 217.80,149.99 C218.35,149.93 218.35,149.93 218.90,149.86 C219.22,149.78 219.22,149.78 219.54,149.69 "/><path d="M208.45,149.42 L208.71,149.62 "/></g><g style="stroke:#000000;stroke-width:0.529"><path d="M218.41,150.81 C217.69,151.17 217.69,151.17 216.98,151.52 C216.81,151.57 216.80,151.57 216.63,151.61 C215.79,151.71 215.79,151.71 214.94,151.80 C214.74,151.81 214.74,151.81 214.55,151.82 C214.09,151.82 214.09,151.82 213.64,151.82 C213.27,151.79 213.27,151.79 212.89,151.75 C212.25,151.67 212.25,151.67 211.60,151.58 C211.37,151.53 211.37,151.54 211.15,151.48 C210.46,151.13 210.46,151.12 209.78,150.76 C209.67,150.69 209.67,150.69 209.57,150.60 C209.00,150.02 209.00,150.02 208.45,149.42 "/><path d="M219.55,149.62 L219.54,149.69 L218.41,150.81 "/><path d="M208.45,149.42 L208.48,149.34 "/></g></g><g id="Actor_.9"><g style="stroke:#000000;stroke-width:0.176"><path d="M175.43,111.06 C176.00,111.70 176.00,111.71 176.54,112.36 C176.74,112.74 176.74,112.75 176.92,113.13 C177.05,113.54 177.06,113.54 177.17,113.95 C177.23,114.79 177.23,114.80 177.26,115.65 "/><path d="M174.54,112.10 C174.75,112.35 174.75,112.35 174.96,112.59 C175.17,112.84 175.17,112.84 175.37,113.09 C175.52,113.37 175.52,113.37 175.66,113.66 C175.76,113.97 175.77,113.97 175.85,114.28 C175.90,114.92 175.90,114.92 175.92,115.56 "/><path d="M167.00,115.20 L167.19,113.51 L167.92,111.99 L169.11,110.79 L170.62,110.04 L172.30,109.84 L173.97,110.19 L175.43,111.06 "/><path d="M177.26,115.65 L176.79,117.27 L175.82,118.65 L174.45,119.64 L172.83,120.12 L171.14,120.04 "/><path d="M168.51,112.96 L167.78,114.00 L167.43,115.23 L167.50,116.51 L167.95,117.64 L167.97,117.71 L168.81,118.68 L169.92,119.35 L171.17,119.61 L172.44,119.46 L173.59,118.90 L174.48,117.99 L175.03,116.84 L175.07,116.54 L175.18,115.57 L174.90,114.31 L174.23,113.21 L173.25,112.38 L172.05,111.91 L170.77,111.85 L169.78,112.15 L169.55,112.21 L168.51,112.96 L169.76,111.89 L170.91,111.33 L172.18,111.18 L173.43,111.44 L174.54,112.10 "/><path d="M175.92,115.56 L175.57,116.79 L174.83,117.83 L173.59,118.90 "/><path d="M168.30,117.28 L167.97,116.46 L167.91,115.36 L168.21,114.30 L168.84,113.41 L169.73,112.77 L170.78,112.46 L171.87,112.51 L172.90,112.91 L173.75,113.63 L174.32,114.57 L174.55,115.65 L174.43,116.74 L174.00,117.64 L173.96,117.73 L173.19,118.50 L172.21,118.98 L171.12,119.12 L170.04,118.89 L169.10,118.32 L168.38,117.48 L168.30,117.28 "/><path d="M168.60,115.50 L168.60,115.42 "/><path d="M168.79,114.77 L168.84,114.61 L168.88,114.54 "/><path d="M169.16,114.14 L169.33,113.90 L169.45,113.81 "/><path d="M170.29,118.25 L170.29,118.25 "/><path d="M169.97,113.44 L169.76,113.60 "/><path d="M171.10,118.42 L171.23,118.42 "/><path d="M172.20,118.23 L172.01,118.32 L171.90,118.33 "/><path d="M172.63,118.02 L172.78,117.94 L173.03,117.69 "/><path d="M173.33,117.39 L173.27,117.45 "/></g><g style="stroke:#000000;stroke-width:0.529"><path d="M167.00,115.20 C167.08,114.35 167.08,114.35 167.19,113.51 C167.36,113.08 167.38,113.08 167.57,112.65 C167.74,112.32 167.74,112.31 167.92,111.99 C168.22,111.62 168.22,111.63 168.54,111.27 C168.82,111.03 168.82,111.03 169.11,110.79 C169.50,110.53 169.50,110.53 169.91,110.29 C170.26,110.16 170.26,110.16 170.62,110.04 C171.07,109.92 171.07,109.91 171.53,109.81 C172.37,109.83 172.38,109.83 173.22,109.88 "/><path d="M177.36,114.73 C177.28,115.58 177.28,115.58 177.17,116.42 C177.00,116.85 176.98,116.85 176.79,117.27 C176.62,117.61 176.62,117.61 176.44,117.94 C176.14,118.30 176.14,118.30 175.82,118.65 C175.54,118.90 175.54,118.90 175.25,119.14 C174.86,119.39 174.86,119.40 174.45,119.64 C174.10,119.77 174.10,119.76 173.74,119.88 C173.29,120.00 173.29,120.02 172.83,120.12 C171.99,120.10 171.98,120.10 171.14,120.04 "/><path d="M167.20,116.11 L167.00,115.20 "/><path d="M173.22,109.88 L174.81,110.51 L176.11,111.61 L176.99,113.07 L177.36,114.73 "/><path d="M171.14,120.04 L169.55,119.42 L168.25,118.32 L167.37,116.86 L167.20,116.11 "/><path d="M169.97,113.44 L170.04,113.39 L170.20,113.35 "/><path d="M170.54,113.25 L170.87,113.15 L171.04,113.15 "/><path d="M171.39,113.17 L171.74,113.18 L171.90,113.25 "/><path d="M172.69,113.62 L172.56,113.50 L172.23,113.38 "/><path d="M173.69,116.70 L173.77,116.54 L173.81,116.19 "/><path d="M173.54,117.01 L173.39,117.32 L173.33,117.39 "/><path d="M173.50,114.52 L173.68,114.82 L173.72,114.99 "/><path d="M173.85,115.85 L173.87,115.68 L173.79,115.33 "/><path d="M173.31,114.22 L173.23,114.07 L172.96,113.84 "/></g></g><g id="Actor_.10"><g style="stroke:#000000;stroke-width:0.176"><path d="M173.18,117.57 L172.51,118.12 L171.69,118.41 L170.82,118.42 L170.00,118.15 L169.30,117.62 L168.80,116.90 L168.57,116.06 L168.61,115.31 L168.62,115.19 L168.94,114.39 L169.52,113.74 L170.27,113.32 L171.12,113.16 L171.98,113.30 L172.76,113.70 L173.36,114.33 L173.73,115.12 L173.82,115.99 L173.63,116.84 L173.18,117.57 L173.20,117.55 "/><path d="M169.54,113.72 L169.52,113.74 "/></g></g><g id="paperID" visibility="hidden" opacity="0.00" transform="scale(0.000100)"><path style="stroke:#000000;stroke-width:0.500;fill:#e6e6e6;fill-rule:evenodd" d="M-2000.00,-2000.00L2297.00,-2000.00L2297.00,2210.00L-2000.00,2210.00zM0.00,0.00L297.00,0.00L297.00,210.00L0.00,210.00z"/><path style="fill:#000000;fill-opacity:0.118" d="M3.00,210.00L297.00,210.00L297.00,3.00L300.00,3.00L300.00,213.00L3.00,213.00z"/></g><g id="ToolTip" visibility="hidden" opacity="0" transform="translate(0,0)"><rect id="ToolTipShadow" opacity="0.20" fill="black" stroke="none" x="0" y="0" width="30" height="8"/><rect id="ToolTipBG" fill="#ffffe1" stroke="black" x="0" y="0" width="30" height="8"/><text xml:space="preserve" id="ToolTipText" fill="black" x="0" y="0" width="30" height="8">tooltip</text></g></g></svg>
