<?xml version="1.0" encoding="UTF-8" standalone="no"?>
<svg xmlns="http://www.w3.org/2000/svg" xmlns:xlink="http://www.w3.org/1999/xlink" width="297.000mm" height="210.000mm" viewBox="0.000000 0.000000 297.000000 210.000000" stroke-linejoin="round" stroke-linecap="round" fill="none" fill-rule="evenodd"><desc>Composer Export</desc><script type="text/ecmascript"><![CDATA[
if(typeof(top) != "undefined")
{
	top.ShowPaper = ShowPaper;
}
function ShowHotSpot(evt,hotspotid)
{
	var svgDocument = evt.target.ownerDocument;
	var strId = "hotspot."+hotspotid;
	var hotspot = svgDocument.getElementById(strId);
	if(hotspot)
		hotspot.setAttribute("opacity",".5");
}
function HideHotSpot(evt,hotspotid)
{
	var svgDocument = evt.target.ownerDocument;
	var strId = "hotspot."+hotspotid;
	var hotspot = svgDocument.getElementById(strId);
	if(hotspot)
		hotspot.setAttribute("opacity","0");

	var toolTip = svgDocument.getElementById('ToolTip');
	if(toolTip)
		toolTip.setAttribute("visibility","hidden");
}
function ShowToolTip(evt,hotspotid,strTooltip)
{
	if(strTooltip=="")
	return;

	// change text
	var svgDocument = evt.target.ownerDocument;
	var tiptext = svgDocument.getElementById('ToolTipText');
	if( !tiptext )
	return;
	tiptext.firstChild.nodeValue = " " + strTooltip + "  " ;

	// show tooltip before, else some refresh issue

	var toolTip = svgDocument.getElementById('ToolTip');
	if(!toolTip)
	return;

	toolTip.setAttribute("visibility","visible");
	toolTip.setAttribute("opacity",".95");

	// move tooltip
	// get viewbox

	var root = svgDocument.documentElement;
	var vbox = (root.getAttribute("viewBox")).split(' ');
	var x0 = parseFloat(vbox[0]);
	var y0 = parseFloat(vbox[1]);
	var vboxW = parseFloat(vbox[2]);
	var vboxH = parseFloat(vbox[3]);

	// get default width of svg

	var strW = root.getAttribute("width");
	var svgW = parseFloat(strW);
	if(strW.indexOf('mm') != -1)
	svgW *= 3.779;

	var strH = root.getAttribute("height");
	var svgH = parseFloat(strH);
	if(strH.indexOf('mm') != -1)
	svgH *= 3.779;  	// 96 dpi  -> 96/25.4 = 3.779

	// update the viewbox / width / height if svg is embedded in html with zoom fit all
	var realx0 = x0;
	var realy0 = y0;
	var realvboxW = vboxW;
	var realvboxH = vboxH;
	var realsvgW = svgW;
	var realsvgH = svgH;

	if ((typeof(top) == "undefined") || (typeof(top.svgctl1) != "undefined")) // embedded in html
	{
		// get window size in pxl

		svgW = window.innerWidth;
		svgH = window.innerHeight;

		// calculate real viewbox

		realsvgW = svgW;
		realsvgH = svgH;
		if((svgW / svgH) > (vboxW / vboxH))
		{
			realvboxW = (vboxH * svgW) / svgH;
			realvboxH = vboxH;
			realx0 = x0 - (realvboxW - vboxW)/2 ;
		}
		else
		{
			realvboxH = (vboxW * svgH) / svgW;
			realvboxW = vboxW;
			realy0 = y0 - (realvboxH - vboxH)/2 ;
		}
	}

	// get user zoom/pan

	var newScale = root.currentScale;
	var translation = root.currentTranslate;

	// transform pxl to user unit

	var xPos = (((evt.clientX+10- translation.x)/newScale) * realvboxW)/realsvgW  + realx0 ;
	var yPos = (((evt.clientY+5- translation.y)/newScale) * realvboxH)/ realsvgH  + realy0 ;
	var scaleForWidth = ( (1 / newScale) * realvboxH) / realsvgH;

	// move tooltip

	toolTip.setAttribute("transform", "translate(" + xPos + "," + yPos + ")" );

	// resize tooltip

	var fontsize = 12;
	tiptext.setAttribute("font-size",fontsize*scaleForWidth);
	tiptext.setAttribute("y", fontsize*scaleForWidth);
	var tipBG = svgDocument.getElementById('ToolTipBG');
	var outline = tiptext.getBBox();
	if(tipBG)
	{
		tipBG.setAttribute("stroke-width", 1*scaleForWidth);
		tipBG.setAttribute("width", Number(outline.width) );
		tipBG.setAttribute("height", Number(outline.height) + fontsize*.5*scaleForWidth );
	}
	var ToolTipShadow = svgDocument.getElementById('ToolTipShadow');
	if(ToolTipShadow)
	{
		ToolTipShadow.setAttribute("width", Number(outline.width) );
		ToolTipShadow.setAttribute("height", Number(outline.height) + fontsize*.5*scaleForWidth );
		ToolTipShadow.setAttribute("x", 3*scaleForWidth);
		ToolTipShadow.setAttribute("y", 3*scaleForWidth);
	}
}
function ShowPaper()
{
  var svgDocument = getDocument();
  var paper = svgDocument.getElementById("paperID");
  if(paper)
  {
    paper.setAttribute("transform","scale(1)");
    paper.setAttribute("opacity","1");
    paper.setAttribute("visibility","visible");
  }
  var svg = svgDocument.getRootElement();
  if(svg)
  {
    svg.setAttribute("width","307.000mm");
    svg.setAttribute("height","220.000mm");
    svg.setAttribute("viewBox","-5.000000 -5.000000 307.000000 220.000000");
  }
}
]]></script><defs/><g><path style="fill:#ffffff" d="M296.92,210.05L0.08,210.05L0.08,0.08L296.92,0.08z"/><path style="fill:#1a1a1a" d="M25.27,99.38L27.57,99.89L103.68,103.75L108.94,103.75L114.44,103.47L115.02,103.10L115.17,103.04L115.20,100.91L115.73,100.01L124.36,100.04L125.48,100.11L124.17,100.46L124.33,140.62L106.89,137.17L106.09,136.60L105.82,135.97L105.80,133.00L105.67,132.93L103.36,127.18L102.24,125.54L100.84,124.47L100.09,124.05L98.72,123.75L50.19,121.28L49.36,121.28L48.07,121.42L46.14,122.25L44.49,124.18L43.01,124.32L28.40,121.40L27.50,121.14L23.07,118.95L22.22,118.70L17.28,113.16L16.16,111.79L15.88,110.97L15.66,105.63L15.65,102.30L16.07,100.73L17.55,100.00L21.59,98.54L23.08,98.54z"/><path style="fill:#171717" d="M261.36,75.02L261.35,84.03L258.02,89.52L257.03,90.78L255.89,90.79L255.70,90.65L255.60,89.60L255.44,88.85L255.09,89.31L243.31,101.02L242.33,103.67L242.18,104.80L241.63,111.69L241.63,113.60L241.63,114.73L241.49,116.01L237.61,122.07L236.21,123.42L233.78,132.07L233.79,133.21L233.91,134.30L234.07,135.12L234.19,135.96L234.34,136.77L234.46,137.62L234.62,138.43L234.74,139.27L234.89,140.07L235.01,140.66L235.18,141.46L235.18,142.57L235.02,143.41L234.32,144.69L233.22,145.51L228.05,146.37L227.30,146.55L226.59,146.56L225.76,146.26L225.57,145.95L225.76,144.59L220.80,115.63L220.00,113.97L219.73,114.16L218.32,112.61L217.58,112.19L215.37,112.17L145.33,123.21L143.76,123.63L142.94,124.19L141.10,126.20L140.30,128.50L140.15,129.33L136.57,154.71L135.88,160.14L135.06,160.96L129.88,161.82L127.57,161.71L126.49,160.85L126.38,160.52L126.76,160.33L126.76,157.37L127.59,151.58L127.59,148.18L125.11,140.96L124.86,140.72L124.60,140.91L124.33,140.62L124.17,100.46L125.48,100.11L127.03,99.99L127.13,99.83L129.07,99.62L130.45,99.48L132.28,100.19L133.67,101.56L135.40,102.64L137.06,102.79L140.55,102.49L142.30,102.04L145.78,101.65L145.89,101.48L147.44,101.37L147.54,101.21L151.02,100.82L151.13,100.66L152.68,100.55L152.78,100.38L156.26,99.99L156.37,99.83L161.50,99.17L161.60,99.00L166.74,98.34L166.84,98.18L171.98,97.51L172.08,97.35L175.57,96.96L175.67,96.80L177.22,96.69L177.32,96.52L180.81,96.13L180.91,95.97L182.46,95.86L182.56,95.69L186.05,95.31L186.15,95.14L191.29,94.48L191.38,94.32L196.53,93.65L196.62,93.49L201.77,92.83L201.86,92.66L205.35,92.27L205.45,92.11L207.00,92.00L207.10,91.83L210.59,91.44L210.69,91.28L212.24,91.17L212.34,91.01L215.83,90.62L215.93,90.45L217.48,90.34L217.58,90.18L221.07,89.79L221.17,89.63L223.20,89.46L225.24,88.46L228.97,84.47L230.90,83.64L236.51,82.63L237.91,81.56L238.54,80.84L238.73,80.90L239.05,83.32L238.90,84.02L239.46,83.97L241.78,82.39L260.14,64.07L261.12,63.41z"/><path style="fill:#00e3e5" d="M182.35,113.87L182.33,115.00L181.91,115.73L181.02,116.49L179.69,116.49L179.17,116.19L178.90,115.57L179.13,114.05L180.05,112.77L181.20,112.72L181.67,112.88z"/><path style="fill:#00fdff" d="M180.94,114.73L180.34,115.33L179.87,115.18L179.98,114.05L180.81,113.96z"/><path style="fill:#171717" d="M115.65,111.99L115.86,112.54L115.82,112.76L115.34,112.72L115.37,111.75L115.77,111.71z"/><path style="fill:#171717" d="M108.88,134.04L108.98,134.33L108.57,134.44L108.57,133.18z"/><path style="fill:#ffffff" d="M130.59,151.84L131.07,151.17L131.71,151.17L131.88,151.37L131.88,152.51L131.22,153.12L130.61,152.87z"/><path style="fill:#ffffff" d="M129.68,158.00L129.66,158.84L128.75,159.75L128.31,159.59L128.41,158.20L128.88,157.79L129.50,157.79z"/><path style="fill:#00e3e5" d="M180.92,115.00L180.34,115.33L180.94,114.73z"/><path style="fill:#00e3e5" d="M227.01,123.54L227.02,124.67L226.60,125.67L225.58,126.35L224.47,126.35L223.59,125.48L223.57,123.80L224.39,122.63L226.05,122.52z"/><path style="fill:#00e3e5" d="M137.24,136.60L138.09,137.69L138.09,138.62L137.53,139.73L136.90,140.20L135.28,140.21L134.74,139.66L134.50,139.00L134.56,138.15L135.09,137.29L135.08,137.06L135.49,136.58L136.44,136.34z"/><path style="fill:#000020" d="M261.36,75.02L261.12,63.41L261.21,63.14L261.35,63.22z"/><path style="fill:#000020" d="M258.99,84.71L258.86,84.87L258.79,83.34L258.94,83.31z"/><path style="fill:#000020" d="M255.09,89.31L255.44,88.85L255.60,89.60z"/><path style="fill:#000020" d="M221.17,89.63L220.33,89.56L221.17,89.42z"/><path style="fill:#000020" d="M217.58,90.18L216.74,90.10L217.57,89.97z"/><path style="fill:#000020" d="M215.93,90.45L214.82,90.38L215.93,90.25z"/><path style="fill:#000020" d="M256.93,90.92L255.89,90.79L257.03,90.78z"/><path style="fill:#000020" d="M212.34,91.01L211.50,90.93L212.33,90.80z"/><path style="fill:#000020" d="M210.69,91.28L209.58,91.21L210.69,91.08z"/><path style="fill:#000020" d="M207.10,91.83L206.27,91.75L207.09,91.62z"/><path style="fill:#000020" d="M205.45,92.11L204.34,92.04L205.45,91.91z"/><path style="fill:#000020" d="M201.86,92.66L201.03,92.59L201.85,92.45z"/><path style="fill:#000020" d="M196.62,93.49L195.79,93.42L196.61,93.28z"/><path style="fill:#000020" d="M191.38,94.32L190.55,94.24L191.37,94.11z"/><path style="fill:#000020" d="M186.15,95.14L185.03,95.07L186.15,94.94z"/><path style="fill:#000020" d="M182.56,95.69L181.72,95.62L182.55,95.48z"/><path style="fill:#000020" d="M180.91,95.97L179.79,95.90L180.91,95.77z"/><path style="fill:#000020" d="M224.46,96.52L224.58,96.29L225.02,96.30L224.96,96.65z"/><path style="fill:#000020" d="M177.32,96.52L176.48,96.44L177.31,96.31z"/><path style="fill:#000020" d="M175.67,96.80L174.55,96.73L175.67,96.59z"/><path style="fill:#000020" d="M224.41,97.36L224.27,96.61L224.46,96.52z"/><path style="fill:#000020" d="M172.08,97.35L171.24,97.28L172.07,97.14z"/><path style="fill:#000020" d="M166.84,98.18L166.00,98.10L166.83,97.97z"/><path style="fill:#000020" d="M161.60,99.00L160.76,98.93L161.59,98.79z"/><path style="fill:#000020" d="M224.52,99.57L224.57,99.35L225.01,99.34L224.95,99.69z"/><path style="fill:#000020" d="M130.45,99.48L129.07,99.62L127.95,99.48z"/><path style="fill:#000020" d="M156.37,99.83L155.25,99.76L156.36,99.63z"/><path style="fill:#000020" d="M127.13,99.83L126.29,99.75L127.12,99.62z"/><path style="fill:#000020" d="M125.48,100.11L124.36,100.04L125.48,99.90z"/><path style="fill:#000020" d="M152.78,100.38L151.94,100.30L152.77,100.17z"/><path style="fill:#000020" d="M151.13,100.66L150.01,100.59L151.13,100.45z"/><path style="fill:#000020" d="M147.54,101.21L146.70,101.13L147.53,101.00z"/><path style="fill:#000020" d="M145.89,101.48L144.77,101.41L145.89,101.28z"/><path style="fill:#000020" d="M142.30,102.04L141.46,101.97L142.29,101.83z"/><path style="fill:#000020" d="M224.58,102.33L225.00,102.37L224.79,103.13z"/><path style="fill:#000020" d="M137.06,102.79L135.40,102.64L137.05,102.66z"/><path style="fill:#000020" d="M115.17,103.04L115.02,103.10L115.20,100.91z"/><path style="fill:#000020" d="M17.84,104.17L17.58,103.42L17.73,103.12L17.86,103.22z"/><path style="fill:#000020" d="M33.36,108.38L33.15,108.27L33.18,107.64L33.37,107.58z"/><path style="fill:#000020" d="M34.10,108.57L33.48,108.60L33.36,108.38L34.13,108.40z"/><path style="fill:#000020" d="M17.83,110.79L17.57,110.05L17.75,109.44L17.85,109.55z"/><path style="fill:#000020" d="M33.37,111.36L33.16,111.30L33.17,110.69L33.36,110.63z"/><path style="fill:#000020" d="M116.57,112.70L115.82,112.76L115.86,112.54L116.59,112.53z"/><path style="fill:#000020" d="M135.44,114.19L135.35,114.48L135.18,114.37L135.33,113.60z"/><path style="fill:#000020" d="M241.63,114.73L241.63,113.60L241.75,113.71z"/><path style="fill:#000020" d="M115.38,114.75L115.78,114.77L115.84,115.55L115.38,115.09z"/><path style="fill:#000020" d="M116.55,115.74L115.94,115.76L115.84,115.55L116.59,115.57z"/><path style="fill:#000020" d="M220.28,116.09L220.10,115.29L220.25,115.36z"/><path style="fill:#000020" d="M239.09,116.34L238.93,116.32L238.93,115.05L239.09,115.03z"/><path style="fill:#000020" d="M135.39,116.65L135.51,116.42L135.95,116.44L135.89,116.78z"/><path style="fill:#000020" d="M135.34,117.49L135.20,116.74L135.39,116.65z"/><path style="fill:#000020" d="M36.39,118.24L35.62,118.28L36.30,118.09z"/><path style="fill:#000020" d="M116.33,117.99L115.93,118.14L115.78,118.53L115.61,118.45L115.63,117.84L116.25,117.81z"/><path style="fill:#000020" d="M220.83,119.12L220.68,118.30L220.80,118.40z"/><path style="fill:#000020" d="M221.10,120.78L220.95,119.97L221.07,120.06z"/><path style="fill:#000020" d="M221.38,122.43L221.22,121.62L221.35,121.71z"/><path style="fill:#000020" d="M221.66,124.09L221.50,123.28L221.63,123.37z"/><path style="fill:#000020" d="M221.94,125.74L221.78,124.93L221.90,125.02z"/><path style="fill:#000020" d="M222.48,128.77L222.33,127.95L222.45,128.05z"/><path style="fill:#000020" d="M222.76,130.43L222.60,129.62L222.73,129.71z"/><path style="fill:#000020" d="M223.03,132.08L222.88,131.27L223.00,131.36z"/><path style="fill:#000020" d="M223.31,133.74L223.15,132.93L223.28,133.02z"/><path style="fill:#000020" d="M108.88,134.04L108.57,133.18L108.95,132.95z"/><path style="fill:#000020" d="M234.07,135.12L233.91,134.30L234.03,134.40z"/><path style="fill:#000020" d="M223.59,135.38L223.43,134.58L223.56,134.67z"/><path style="fill:#000020" d="M105.82,135.97L105.67,132.93L105.80,133.00z"/><path style="fill:#000020" d="M234.34,136.77L234.19,135.96L234.31,136.05z"/><path style="fill:#000020" d="M223.86,136.77L223.71,135.97L223.84,136.06z"/><path style="fill:#000020" d="M234.62,138.43L234.46,137.62L234.59,137.71z"/><path style="fill:#000020" d="M224.14,138.43L223.98,137.62L224.11,137.71z"/><path style="fill:#000020" d="M135.71,138.93L135.51,138.88L135.50,137.98L135.66,137.91z"/><path style="fill:#000020" d="M234.89,140.07L234.74,139.27L234.86,139.36z"/><path style="fill:#000020" d="M224.41,140.08L224.26,139.27L224.38,139.36z"/><path style="fill:#000020" d="M235.18,141.46L235.01,140.66L235.14,140.74z"/><path style="fill:#000020" d="M224.69,141.73L224.53,140.93L224.66,141.02z"/><path style="fill:#000020" d="M224.97,143.39L224.81,142.58L224.93,142.67z"/><path style="fill:#000020" d="M130.09,146.16L129.97,145.44L130.11,145.34z"/><path style="fill:#000020" d="M131.88,152.51L131.88,151.37L132.10,151.44z"/><path style="fill:#000020" d="M129.66,158.84L129.68,158.00L129.90,158.07z"/><path style="fill:#00fdff" d="M181.20,112.72L180.05,112.77L180.18,112.61z"/><path style="fill:#00fdff" d="M181.66,114.21L181.67,114.63L180.97,115.66L180.45,115.75L180.34,115.33L180.92,115.00L180.94,114.73L181.40,113.95z"/><path style="fill:#00fdff" d="M179.13,114.05L178.90,115.57L178.86,113.78L179.60,112.86L180.05,112.77z"/><path style="fill:#00fdff" d="M226.34,124.18L225.95,125.29L224.88,125.30L225.18,125.02L224.57,124.81L224.61,123.97L224.85,123.63L225.77,123.61z"/><path style="fill:#00fdff" d="M137.26,137.93L137.26,138.90L136.87,139.36L136.08,139.34L136.08,139.11L135.71,138.93L135.66,137.91L136.07,137.62L136.40,137.68L136.68,138.64L136.98,137.65z"/><path style="fill:#00fdff" d="M135.09,137.29L134.56,138.15L134.77,137.23L135.08,137.06z"/><path style="fill:#00fdff" d="M134.50,139.00L134.39,138.29L134.56,138.15z"/><path style="fill:#00001c" d="M182.33,115.00L182.35,113.87L182.47,113.98z"/><path style="fill:#00001c" d="M227.02,124.67L227.01,123.54L227.15,123.63z"/><path style="fill:#00001c" d="M225.49,126.49L224.47,126.35L225.58,126.35z"/><path style="fill:#1a1a1a" d="M260.79,62.67L261.21,63.14L261.12,63.41L260.14,64.07L241.78,82.39L239.46,83.97L238.90,84.02L239.05,83.32L240.54,82.25L246.35,76.48L248.81,74.25L250.45,72.53L250.60,64.79L251.00,63.76L251.59,63.24L256.44,61.70L258.14,61.70z"/><path style="fill:#1a1a1a" d="M258.99,84.71L258.94,83.31L259.10,83.34z"/><path style="fill:#1a1a1a" d="M237.91,81.56L236.51,82.63L230.90,83.64L228.97,84.47L225.24,88.46L223.20,89.46L221.17,89.63L221.17,89.42L224.14,88.47L226.03,86.77L228.39,84.17L230.08,83.37L233.03,82.95L235.86,82.26L237.23,80.88L238.54,80.84z"/><path style="fill:#1a1a1a" d="M221.07,89.79L217.58,90.18L217.57,89.97L220.33,89.56L221.17,89.63z"/><path style="fill:#1a1a1a" d="M217.48,90.34L215.93,90.45L215.93,90.25L216.74,90.10L217.58,90.18z"/><path style="fill:#1a1a1a" d="M215.83,90.62L212.34,91.01L212.33,90.80L214.82,90.38L215.93,90.45z"/><path style="fill:#1a1a1a" d="M212.24,91.17L210.69,91.28L210.69,91.08L211.50,90.93L212.34,91.01z"/><path style="fill:#1a1a1a" d="M210.59,91.44L207.10,91.83L207.09,91.62L209.58,91.21L210.69,91.28z"/><path style="fill:#1a1a1a" d="M207.00,92.00L205.45,92.11L205.45,91.91L206.27,91.75L207.10,91.83z"/><path style="fill:#1a1a1a" d="M205.35,92.27L201.86,92.66L201.85,92.45L204.34,92.04L205.45,92.11z"/><path style="fill:#1a1a1a" d="M201.77,92.83L196.62,93.49L196.61,93.28L201.03,92.59L201.86,92.66z"/><path style="fill:#1a1a1a" d="M196.53,93.65L191.38,94.32L191.37,94.11L195.79,93.42L196.62,93.49z"/><path style="fill:#1a1a1a" d="M191.29,94.48L186.15,95.14L186.15,94.94L190.55,94.24L191.38,94.32z"/><path style="fill:#1a1a1a" d="M186.05,95.31L182.56,95.69L182.55,95.48L185.03,95.07L186.15,95.14z"/><path style="fill:#1a1a1a" d="M182.46,95.86L180.91,95.97L180.91,95.77L181.72,95.62L182.56,95.69z"/><path style="fill:#1a1a1a" d="M225.54,96.58L225.52,96.97L224.93,97.59L224.41,97.36L224.46,96.52L224.96,96.65L225.02,96.30z"/><path style="fill:#1a1a1a" d="M180.81,96.13L177.32,96.52L177.31,96.31L179.79,95.90L180.91,95.97z"/><path style="fill:#1a1a1a" d="M177.22,96.69L175.67,96.80L175.67,96.59L176.48,96.44L177.32,96.52z"/><path style="fill:#1a1a1a" d="M175.57,96.96L172.08,97.35L172.07,97.14L174.55,96.73L175.67,96.80z"/><path style="fill:#1a1a1a" d="M171.98,97.51L166.84,98.18L166.83,97.97L171.24,97.28L172.08,97.35z"/><path style="fill:#1a1a1a" d="M166.74,98.34L161.60,99.00L161.59,98.79L166.00,98.10L166.84,98.18z"/><path style="fill:#1a1a1a" d="M225.54,99.62L225.52,100.01L225.09,100.49L224.59,100.49L224.52,99.57L224.95,99.69L225.01,99.34z"/><path style="fill:#1a1a1a" d="M161.50,99.17L156.37,99.83L156.36,99.63L160.76,98.93L161.60,99.00z"/><path style="fill:#1a1a1a" d="M127.13,99.83L127.12,99.62L127.95,99.48L129.07,99.62z"/><path style="fill:#1a1a1a" d="M127.03,99.99L125.48,100.11L125.48,99.90L126.29,99.75L127.13,99.83z"/><path style="fill:#1a1a1a" d="M156.26,99.99L152.78,100.38L152.77,100.17L155.25,99.76L156.37,99.83z"/><path style="fill:#1a1a1a" d="M152.68,100.55L151.13,100.66L151.13,100.45L151.94,100.30L152.78,100.38z"/><path style="fill:#1a1a1a" d="M151.02,100.82L147.54,101.21L147.53,101.00L150.01,100.59L151.13,100.66z"/><path style="fill:#1a1a1a" d="M147.44,101.37L145.89,101.48L145.89,101.28L146.70,101.13L147.54,101.21z"/><path style="fill:#1a1a1a" d="M145.78,101.65L142.30,102.04L142.29,101.83L144.77,101.41L145.89,101.48z"/><path style="fill:#1a1a1a" d="M225.54,102.65L225.52,103.04L225.09,103.52L224.56,103.54L224.79,103.13L225.00,102.37z"/><path style="fill:#1a1a1a" d="M140.55,102.49L137.06,102.79L137.05,102.66L141.46,101.97L142.30,102.04z"/><path style="fill:#1a1a1a" d="M135.50,110.38L136.13,110.37L136.12,111.34L135.50,111.23z"/><path style="fill:#1a1a1a" d="M241.02,112.76L240.64,113.81L240.58,112.55z"/><path style="fill:#1a1a1a" d="M220.80,115.63L225.76,144.59L225.57,145.95L225.20,144.88L224.97,143.39L224.93,142.67L224.81,142.58L224.69,141.73L224.66,141.02L224.53,140.93L224.41,140.08L224.38,139.36L224.26,139.27L224.14,138.43L224.11,137.71L223.98,137.62L223.86,136.77L223.84,136.06L223.71,135.97L223.59,135.38L223.56,134.67L223.43,134.58L223.31,133.74L223.28,133.02L223.15,132.93L223.03,132.08L223.00,131.36L222.88,131.27L222.76,130.43L222.73,129.71L222.60,129.62L222.48,128.77L222.45,128.05L222.33,127.95L221.94,125.74L221.90,125.02L221.78,124.93L221.66,124.09L221.63,123.37L221.50,123.28L221.38,122.43L221.35,121.71L221.22,121.62L221.10,120.78L221.07,120.06L220.95,119.97L220.83,119.12L220.80,118.40L220.68,118.30L220.28,116.09L220.25,115.36L220.10,115.29L219.73,114.16L220.00,113.97z"/><path style="fill:#1a1a1a" d="M136.17,114.38L135.87,114.70L135.35,114.48L135.44,114.19L135.71,113.37L136.14,113.39z"/><path style="fill:#1a1a1a" d="M239.25,116.32L239.09,116.34L239.09,115.03L239.25,115.05z"/><path style="fill:#1a1a1a" d="M136.43,116.68L135.86,117.73L135.34,117.49L135.39,116.65L135.89,116.78L135.95,116.44z"/><path style="fill:#1a1a1a" d="M231.29,130.36L230.62,131.08L229.79,131.19L229.66,131.00L230.65,130.00L230.86,129.08L231.27,129.13z"/><path style="fill:#1a1a1a" d="M231.01,135.99L231.02,137.26L230.63,137.71L229.69,137.70L230.47,136.70L230.52,135.93L230.76,135.74z"/><path style="fill:#1a1a1a" d="M125.11,140.96L127.59,148.18L127.59,151.58L126.76,157.37L126.76,160.33L126.38,160.52L125.96,159.41L125.96,158.28L127.07,150.56L127.03,148.46L124.60,140.91L124.86,140.72z"/><path style="fill:#1a1a1a" d="M233.50,143.05L232.38,143.87L232.17,143.50L232.67,143.03L232.97,141.98L233.47,141.80z"/><path style="fill:#1a1a1a" d="M132.03,144.82L132.02,146.08L131.63,146.53L130.69,146.52L131.47,145.81L131.54,144.55z"/><path style="fill:#1a1a1a" d="M132.59,151.73L132.58,152.41L132.29,152.97L131.62,153.46L131.09,153.43L131.22,153.12L131.88,152.51L132.10,151.44z"/><path style="fill:#1a1a1a" d="M130.39,158.35L130.37,159.02L129.98,159.76L128.75,159.75L129.66,158.84L129.90,158.07z"/><path style="fill:#171717" d="M252.55,65.70L252.52,66.39L251.86,66.39L251.96,65.51L252.27,65.41z"/><path style="fill:#171717" d="M17.73,103.12L17.58,103.42L16.90,103.32L17.00,102.47L17.31,102.37z"/><path style="fill:#171717" d="M22.86,103.78L22.81,104.12L21.95,104.43L21.96,103.57L22.54,103.46z"/><path style="fill:#171717" d="M17.75,109.44L17.57,110.05L16.90,109.94L17.01,109.08L17.54,108.98z"/><path style="fill:#171717" d="M22.81,112.99L22.14,112.99L22.14,112.31L22.81,112.31z"/><path style="fill:#171717" d="M32.98,113.77L33.37,113.66L33.43,114.47L32.99,114.57z"/><path style="fill:#171717" d="M35.83,119.65L35.10,119.61L35.25,118.63z"/><path style="fill:#171717" d="M41.71,120.79L41.28,120.93L41.17,119.79L41.33,119.72z"/><path style="fill:#171717" d="M115.25,135.65L114.61,135.51L114.53,134.70L114.71,134.61z"/><path style="fill:#ffffff" d="M34.13,108.40L33.36,108.38L33.37,107.58L33.81,107.60z"/><path style="fill:#ffffff" d="M34.17,110.95L34.13,111.33L33.37,111.36L33.36,110.63L33.85,110.61z"/><path style="fill:#ffffff" d="M116.36,112.00L116.59,112.53L115.86,112.54L115.65,111.99L115.77,111.71z"/><path style="fill:#ffffff" d="M34.17,113.98L34.12,114.35L33.43,114.47L33.37,113.66L33.86,113.65z"/><path style="fill:#ffffff" d="M135.44,114.19L135.33,113.60L135.71,113.37z"/><path style="fill:#ffffff" d="M116.36,115.02L116.59,115.57L115.84,115.55L115.78,114.77z"/><path style="fill:#ffffff" d="M116.59,118.38L116.49,118.69L115.98,118.71L115.78,118.53L115.93,118.14L116.33,117.99z"/><path style="fill:#ffffff" d="M36.72,118.56L36.89,119.59L35.83,119.65L35.25,118.63L35.62,118.28L36.39,118.24z"/><path style="fill:#ffffff" d="M42.97,120.06L42.93,120.68L42.58,120.93L41.71,120.79L41.33,119.72L41.73,119.45L42.38,119.47z"/><path style="fill:#ffffff" d="M230.86,129.08L230.65,130.00L229.66,131.00L229.30,130.55L229.31,129.78L229.88,128.91L230.44,128.83z"/><path style="fill:#ffffff" d="M110.25,133.56L110.13,134.42L108.98,134.33L108.88,134.04L108.95,132.95L109.67,132.98z"/><path style="fill:#ffffff" d="M116.31,134.65L116.30,135.59L115.25,135.65L114.71,134.61L115.48,134.11z"/><path style="fill:#ffffff" d="M230.52,135.93L230.47,136.70L229.69,137.70L229.09,137.35L229.10,136.22L229.52,135.72z"/><path style="fill:#ffffff" d="M232.97,141.98L232.67,143.03L232.17,143.50L231.53,143.21L231.53,142.19L232.01,141.51L232.63,141.57z"/><path style="fill:#ffffff" d="M131.47,145.81L130.69,146.52L130.09,146.16L130.11,145.34L130.54,144.60L131.54,144.55z"/><g id="Actor_.0"><g style="stroke:#000000;stroke-width:0.176"><path d="M17.90,110.18 L17.34,110.75 L16.85,109.70 L17.13,108.74 L17.74,109.17 "/><path d="M17.67,102.70 L16.93,102.37 L16.77,103.23 L17.45,104.32 L17.83,103.71 "/><path d="M23.05,113.40 L22.49,113.96 L22.00,112.99 L22.29,111.94 L22.89,112.39 "/><path d="M22.94,104.59 L22.39,105.15 L21.89,104.10 L22.19,103.13 L22.79,103.58 "/><path d="M21.81,98.44 L25.04,99.72 L25.27,119.52 "/><path d="M25.93,99.58 L25.13,99.71 L26.27,99.95 L26.46,100.43 L26.69,120.28 "/><path d="M106.03,103.74 L26.46,99.96 L26.71,99.72 "/><path d="M34.18,114.44 L33.14,114.54 L33.22,113.47 "/><path d="M34.14,111.39 L33.13,111.50 L32.88,111.08 L33.19,110.42 "/><path d="M33.17,107.35 L33.07,108.43 L34.11,108.33 "/><path d="M35.41,118.05 L35.01,118.70 L35.33,119.61 L36.28,119.90 L36.85,119.54 "/><path d="M41.47,119.26 L41.07,119.84 L41.38,120.82 L42.27,121.11 L42.91,120.72 "/><path d="M44.49,123.90 L45.10,123.08 "/><path d="M44.66,123.70 L44.69,123.68 "/><path d="M44.91,123.26 L46.11,121.98 "/><path d="M105.78,103.99 L114.10,103.60 L114.96,103.14 "/><path d="M106.32,103.99 L106.58,103.74 "/><path d="M108.83,132.77 L108.41,133.40 L108.74,134.34 L109.66,134.62 L110.26,134.24 "/><path d="M114.10,103.60 L114.36,103.35 "/><path d="M116.30,135.47 L115.37,135.84 L114.79,135.55 L114.46,134.67 L114.87,133.98 "/><path d="M115.67,117.65 L115.58,118.72 L116.63,118.62 "/><path d="M116.59,115.57 L115.55,115.66 L115.33,115.04 L115.63,114.60 "/><path d="M115.61,111.53 L115.51,112.61 L116.56,112.51 "/><path d="M115.40,100.40 L116.30,99.96 L122.79,100.27 L123.25,140.15 "/><path d="M116.38,99.95 L116.64,99.70 "/><path d="M123.05,100.02 L122.79,100.27 L124.51,100.19 L124.00,99.98 "/><path d="M131.71,99.80 L129.27,99.44 L124.51,100.19 L125.00,140.40 L127.75,148.77 L126.54,159.37 L127.76,161.38 "/><path d="M125.00,140.40 L124.52,140.35 "/><path d="M126.55,158.48 L126.01,158.27 "/><path d="M127.72,150.21 L127.18,150.00 "/><path d="M127.46,147.41 L126.93,147.20 "/><path d="M129.41,157.31 L130.10,157.67 L130.29,158.84 L129.51,159.80 L128.46,159.66 "/><path d="M128.74,99.23 L129.27,99.44 "/><path d="M131.67,150.74 L132.37,151.09 L132.56,152.27 L131.78,153.22 L130.73,153.09 "/><path d="M130.33,146.40 L131.37,146.54 L132.16,145.58 L131.97,144.41 L131.28,144.05 "/><path d="M135.29,117.23 L136.26,117.12 L136.33,116.41 L135.74,116.09 "/><path d="M135.25,114.18 L135.90,114.36 L136.32,113.85 L136.32,113.40 L135.70,113.04 "/><path d="M135.21,111.12 L136.19,111.01 L136.28,110.35 L135.67,109.99 "/><path d="M134.84,102.31 L137.41,102.75 L222.75,89.32 L222.46,89.07 "/><path d="M136.87,102.54 L137.41,102.75 "/><path d="M225.39,145.21 L225.92,145.42 L220.80,115.58 L219.59,113.04 L218.08,112.06 "/><path d="M220.26,115.37 L220.80,115.58 "/><path d="M227.07,85.36 L227.58,85.60 L225.41,88.16 L222.99,89.28 "/><path d="M224.89,102.06 L225.51,102.42 L225.42,103.08 L224.44,103.19 "/><path d="M224.41,100.14 L225.38,100.03 L225.43,99.29 L224.84,99.00 "/><path d="M224.37,97.09 L225.02,97.27 L225.44,96.76 L225.44,96.31 L224.82,95.95 "/><path d="M225.92,145.42 L226.43,146.16 "/><path d="M225.88,86.91 L226.41,87.13 "/><path d="M227.58,85.60 L228.74,84.46 L230.59,83.56 L235.76,82.68 L236.22,122.89 "/><path d="M229.27,137.57 L230.32,137.71 L231.11,136.75 L230.91,135.58 L230.22,135.23 "/><path d="M229.51,130.78 L230.56,130.92 L231.29,130.11 L231.34,129.14 L230.46,128.44 "/><path d="M231.02,83.43 L230.49,83.21 "/><path d="M231.68,143.41 L232.73,143.54 L233.49,142.66 L233.38,141.52 L232.63,141.06 "/><path d="M235.23,82.47 L236.59,82.46 L236.82,83.32 L237.27,122.20 "/><path d="M235.80,82.27 L236.81,82.32 L238.42,80.73 L237.41,80.68 "/><path d="M238.71,99.61 L238.85,98.25 L238.71,99.61 "/><path d="M238.73,96.56 L238.66,95.30 L238.73,96.56 "/><path d="M238.69,93.51 L238.83,92.25 L238.69,93.51 "/><path d="M238.42,80.73 L238.51,80.70 "/><path d="M239.37,115.72 L239.26,114.35 L238.97,116.24 L239.37,115.72 "/><path d="M238.79,83.44 L238.86,83.75 L239.55,83.64 L241.01,82.78 L240.00,82.73 "/><path d="M240.90,113.05 L240.65,114.00 L240.57,112.07 L240.90,113.05 "/><path d="M240.14,82.62 L241.01,82.78 "/><path d="M241.15,82.67 L261.08,63.03 L261.31,83.34 "/><path d="M250.66,72.25 L260.06,62.98 L261.15,62.88 "/><path d="M252.72,66.73 L252.45,67.29 L252.07,67.23 L251.68,66.42 L252.05,65.25 L252.56,65.71 "/><path d="M255.37,88.73 L255.88,88.43 L256.46,88.88 L256.78,89.96 L255.77,89.91 "/><path d="M256.78,89.96 L257.02,90.60 "/><path d="M256.19,61.63 L258.14,61.54 "/><path d="M257.35,87.24 L257.57,85.21 L257.19,86.10 L257.35,87.24 "/><path d="M257.25,61.68 L259.93,62.77 L259.94,63.11 "/><path d="M257.08,61.49 L257.05,61.50 "/><path d="M258.93,84.84 L259.08,82.80 L258.70,83.70 L258.93,84.84 "/><path d="M259.28,75.72 L259.34,76.06 L259.54,74.77 L259.28,75.72 "/><path d="M259.28,72.92 L259.32,71.90 L259.58,72.45 L259.28,72.92 "/><path d="M259.62,78.78 L259.53,79.12 L259.41,77.93 L259.62,78.78 "/><path d="M260.06,62.98 L260.82,62.60 "/></g><g style="stroke:#000000;stroke-width:0.529"><path d="M22.70,98.29 C24.64,99.10 24.69,99.12 26.71,99.72 C66.34,101.84 66.37,101.81 106.03,103.74 C110.36,103.59 110.38,103.59 114.70,103.28 "/><path d="M261.06,62.74 C261.26,72.82 261.26,72.83 261.38,82.92 C261.24,83.62 261.23,83.64 261.01,84.33 C259.11,87.44 259.10,87.45 257.13,90.52 "/><path d="M236.22,122.89 C235.03,126.75 235.03,126.76 233.93,130.65 C233.79,132.08 233.79,132.10 233.74,133.53 C234.39,137.91 234.39,137.92 235.13,142.28 "/><path d="M105.93,135.96 C105.91,134.38 105.91,134.35 105.76,132.79 C104.78,130.02 104.77,130.00 103.67,127.27 C102.72,125.92 102.71,125.90 101.67,124.62 "/><path d="M15.84,110.03 L15.95,101.02 L16.68,100.19 L22.70,98.29 "/><path d="M114.70,103.28 L115.14,102.79 L115.23,100.73 L116.26,99.74 L123.37,100.03 L130.00,99.22 L131.71,99.80 L134.67,102.19 L136.87,102.54 L222.46,89.07 L224.88,87.95 L227.94,84.46 L229.23,83.60 L235.68,82.35 L237.41,80.68 L238.67,80.99 L238.77,83.33 L240.14,82.62 L250.66,72.25 L250.64,64.78 L251.57,63.22 L257.60,61.42 L261.06,62.74 "/><path d="M257.13,90.52 L256.04,90.55 L255.37,88.73 L242.86,101.31 L242.02,105.49 L241.42,115.53 L237.32,122.12 L236.22,122.89 "/><path d="M235.13,142.28 L234.33,144.22 L232.60,145.36 L227.00,146.26 L225.49,145.51 L220.26,115.37 L219.32,113.22 L218.18,112.14 L215.95,111.79 L143.60,123.40 L141.34,125.36 L140.20,128.27 L135.69,159.95 L134.73,160.79 L128.48,161.64 L126.64,160.67 L126.00,159.16 L127.22,148.56 L124.53,140.38 L106.60,136.75 L105.93,135.96 "/><path d="M101.67,124.62 L100.13,123.78 L49.49,120.96 L47.67,121.18 L46.11,121.98 L44.55,123.84 L43.50,124.15 L27.93,121.03 L22.04,118.23 L16.82,112.35 L15.84,110.03 "/><path d="M17.87,109.57 L17.92,109.96 L17.73,109.22 L17.87,109.57 "/><path d="M17.66,103.09 L17.66,102.75 L17.84,103.49 L17.66,103.09 "/><path d="M22.77,103.86 L22.94,104.59 L22.77,103.86 "/><path d="M23.05,113.40 L22.88,112.44 L23.05,113.40 "/><path d="M33.10,107.55 L33.32,108.18 L34.12,108.31 L34.06,107.56 L33.37,107.28 L33.10,107.55 "/><path d="M34.03,114.48 L34.13,113.66 L33.31,113.41 L33.25,114.10 L34.03,114.48 "/><path d="M33.13,110.72 L33.54,111.37 L34.21,111.26 L33.93,110.45 L33.20,110.41 L33.13,110.72 "/><path d="M35.26,118.70 L35.87,119.56 L36.99,119.27 L36.82,118.31 L36.26,117.92 L35.36,118.11 L35.26,118.70 "/><path d="M41.31,119.98 L42.25,120.87 L43.04,120.49 L42.87,119.52 L42.31,119.13 L41.41,119.33 L41.31,119.98 "/><path d="M109.60,134.38 L108.69,133.53 L109.00,132.66 L109.66,132.64 L110.38,133.34 L110.26,134.24 L109.60,134.38 "/><path d="M115.32,135.50 L114.71,134.36 L115.05,133.87 L115.71,133.85 L116.27,134.24 L116.44,135.21 L115.32,135.50 "/><path d="M116.03,117.55 L116.69,118.04 L116.47,118.66 L115.70,118.28 L115.68,117.64 L116.03,117.55 "/><path d="M115.80,115.41 L115.65,114.58 L116.38,114.63 L116.60,115.54 L115.80,115.41 "/><path d="M115.63,112.18 L115.91,111.44 L116.66,112.16 L116.18,112.56 L115.63,112.18 "/><path d="M128.10,158.98 L128.45,159.66 L129.32,159.36 L129.75,158.64 L129.59,157.50 L129.11,157.33 L128.43,157.77 L128.10,158.98 "/><path d="M130.09,146.10 L130.22,144.65 L131.28,144.05 L131.69,144.95 L131.46,145.77 L130.47,146.41 L130.09,146.10 "/><path d="M131.24,153.01 L132.09,151.63 L131.84,150.88 L131.37,150.76 L130.36,151.99 L130.72,153.08 L131.24,153.01 "/><path d="M135.85,116.46 L135.40,117.20 L135.24,116.53 L135.53,116.18 L135.85,116.46 "/><path d="M135.25,114.18 L135.78,113.19 L135.20,113.47 L135.25,114.18 "/><path d="M135.70,110.71 L135.21,111.12 L135.46,110.07 L135.70,110.71 "/><path d="M224.89,102.87 L224.34,102.94 L224.68,102.14 L224.89,102.87 "/><path d="M224.98,99.37 L224.52,100.11 L224.36,99.44 L224.65,99.09 L224.98,99.37 "/><path d="M224.49,97.06 L224.81,95.95 L224.26,96.61 L224.49,97.06 "/><path d="M229.41,137.59 L230.57,136.54 L230.38,135.37 L229.60,135.39 L229.02,136.05 L228.91,136.90 L229.41,137.59 "/><path d="M229.60,130.79 L229.15,130.11 L229.26,129.27 L230.46,128.44 L230.82,129.76 L229.60,130.79 "/><path d="M231.89,143.41 L231.32,142.73 L231.44,141.89 L232.63,141.06 L232.98,142.38 L231.89,143.41 "/><path d="M252.57,66.20 L252.66,66.61 L252.56,65.71 L252.57,66.20 "/></g></g><g id="Actor_.1"><g style="stroke:#000000;stroke-width:0.176"><path d="M223.66,125.17 C223.59,124.86 223.59,124.86 223.54,124.55 C223.56,124.22 223.56,124.22 223.60,123.89 C223.66,123.73 223.67,123.73 223.73,123.58 C223.79,123.42 223.79,123.42 223.85,123.26 C224.05,123.00 224.05,123.00 224.26,122.74 C224.51,122.55 224.51,122.55 224.78,122.37 "/><path d="M223.48,125.10 C223.41,124.79 223.41,124.79 223.36,124.48 C223.38,124.15 223.38,124.15 223.43,123.82 C223.54,123.51 223.54,123.50 223.68,123.19 C223.87,122.93 223.87,122.92 224.08,122.67 C224.33,122.48 224.34,122.48 224.60,122.30 "/><path d="M223.74,125.15 C223.67,124.86 223.67,124.85 223.62,124.55 C223.65,124.23 223.65,124.23 223.69,123.91 C223.80,123.61 223.80,123.60 223.93,123.31 C224.12,123.05 224.12,123.05 224.32,122.80 C224.57,122.61 224.57,122.61 224.82,122.44 "/><path d="M226.78,123.01 C226.89,123.28 226.89,123.28 226.99,123.57 C227.01,123.88 227.01,123.88 227.01,124.19 C226.99,124.30 226.99,124.30 226.96,124.40 C226.91,124.61 226.92,124.62 226.86,124.83 C226.71,125.11 226.71,125.11 226.54,125.39 C226.32,125.62 226.32,125.62 226.08,125.83 C225.82,125.97 225.82,125.97 225.55,126.09 "/><path d="M224.58,122.31 C224.32,122.48 224.32,122.48 224.07,122.67 C223.86,122.92 223.86,122.93 223.67,123.19 C223.54,123.47 223.54,123.48 223.44,123.77 "/><path d="M225.47,123.65 C225.49,123.77 225.49,123.77 225.51,123.89 C225.50,124.01 225.50,124.01 225.49,124.14 C225.44,124.26 225.44,124.26 225.39,124.38 C225.32,124.48 225.32,124.48 225.24,124.58 C225.14,124.66 225.14,124.66 225.04,124.72 "/><path d="M225.46,125.32 C225.61,125.24 225.62,125.24 225.77,125.16 C225.91,125.04 225.91,125.04 226.04,124.91 C226.14,124.74 226.14,124.74 226.23,124.57 C226.28,124.39 226.28,124.39 226.32,124.20 C226.31,124.02 226.31,124.02 226.30,123.83 C226.24,123.67 226.24,123.66 226.18,123.50 "/><path d="M225.03,123.17 C224.88,123.27 224.88,123.27 224.74,123.38 C224.62,123.53 224.62,123.53 224.51,123.68 C224.43,123.86 224.43,123.86 224.36,124.04 C224.34,124.22 224.34,124.23 224.33,124.41 "/><path d="M225.72,123.50 C225.75,123.66 225.76,123.67 225.78,123.83 C225.77,124.01 225.77,124.01 225.75,124.19 C225.69,124.36 225.68,124.36 225.61,124.52 C225.51,124.67 225.51,124.67 225.39,124.81 C225.26,124.91 225.26,124.91 225.12,125.00 "/><path d="M225.42,125.24 C225.57,125.18 225.57,125.18 225.71,125.10 C225.84,124.98 225.84,124.98 225.97,124.85 C226.06,124.70 226.06,124.70 226.14,124.54 C226.19,124.37 226.19,124.37 226.23,124.19 C226.23,124.02 226.23,124.01 226.22,123.84 C226.16,123.68 226.16,123.68 226.10,123.53 "/><path d="M224.98,123.25 C224.86,123.33 224.86,123.33 224.75,123.41 C224.64,123.55 224.63,123.55 224.53,123.70 C224.46,123.87 224.45,123.87 224.39,124.04 C224.37,124.22 224.37,124.22 224.36,124.40 C224.38,124.53 224.38,124.54 224.41,124.67 "/><path d="M221.62,123.46 L221.63,123.30 "/><path d="M224.41,126.04 L223.96,125.69 L223.66,125.17 "/><path d="M224.78,122.37 L225.35,122.21 L225.92,122.25 "/><path d="M224.23,125.97 L223.78,125.62 L223.48,125.10 "/><path d="M224.60,122.30 L224.88,122.22 L225.17,122.14 L225.74,122.18 "/><path d="M223.89,125.41 L223.74,125.15 "/><path d="M224.82,122.44 L225.38,122.28 L225.93,122.33 L226.41,122.58 L226.78,123.01 "/><path d="M225.55,126.09 L224.99,126.15 L224.46,126.00 L224.03,125.66 L223.89,125.41 "/><path d="M223.44,123.77 L223.42,123.81 L223.35,124.47 L223.47,125.09 "/><path d="M225.03,123.21 L224.98,123.25 L225.17,123.31 L225.35,123.45 L225.47,123.65 "/><path d="M225.04,124.72 L224.82,124.79 L224.60,124.77 L224.41,124.67 L224.42,124.74 "/><path d="M224.33,124.41 L224.40,124.77 L224.57,125.06 L224.82,125.26 L225.13,125.35 L225.46,125.32 "/><path d="M226.18,123.50 L225.96,123.25 L225.68,123.11 L225.36,123.08 L225.03,123.17 "/><path d="M225.63,123.15 L225.45,123.14 L225.56,123.22 L225.72,123.50 "/><path d="M225.12,125.00 L224.81,125.09 L224.68,125.08 L224.81,125.19 L225.11,125.28 L225.42,125.24 "/><path d="M226.10,123.53 L225.90,123.29 L225.63,123.15 L225.64,123.15 "/><path d="M224.68,125.08 L224.58,125.01 L224.42,124.73 "/><path d="M224.82,125.20 L224.81,125.19 "/><path d="M225.45,123.14 L225.33,123.13 L225.02,123.22 "/></g><g style="stroke:#000000;stroke-width:0.529"><path d="M221.62,123.27 C221.62,123.36 221.62,123.37 221.62,123.46 C221.63,123.57 221.63,123.57 221.64,123.68 C221.68,123.81 221.68,123.81 221.71,123.93 C221.73,123.98 221.73,123.98 221.75,124.03 "/><path d="M223.78,125.61 C224.00,125.79 224.00,125.80 224.23,125.97 C224.31,126.01 224.32,126.01 224.41,126.04 C224.68,126.12 224.68,126.12 224.96,126.20 "/><path d="M225.53,126.14 C225.81,126.01 225.82,126.01 226.08,125.87 C226.33,125.65 226.33,125.65 226.56,125.42 C226.73,125.13 226.73,125.13 226.89,124.84 C226.97,124.52 226.97,124.51 227.04,124.19 C227.04,123.87 227.04,123.86 227.02,123.54 C226.92,123.25 226.92,123.25 226.80,122.96 "/><path d="M226.42,122.52 C226.17,122.39 226.17,122.39 225.92,122.25 C225.83,122.22 225.83,122.21 225.74,122.18 C225.45,122.15 225.45,122.15 225.16,122.13 "/><path d="M223.47,125.09 L223.78,125.61 "/><path d="M224.96,126.20 L225.53,126.14 "/><path d="M226.80,122.96 L226.42,122.52 "/><path d="M225.16,122.13 L224.58,122.31 "/></g></g><g id="Actor_.2"><g style="stroke:#000000;stroke-width:0.176"><path d="M179.05,115.30 C178.99,115.00 178.99,115.00 178.95,114.69 C178.98,114.38 178.98,114.37 179.04,114.06 C179.16,113.75 179.16,113.75 179.30,113.46 C179.49,113.21 179.49,113.20 179.70,112.96 C179.95,112.79 179.95,112.79 180.21,112.63 "/><path d="M182.14,113.28 C182.24,113.56 182.24,113.56 182.33,113.85 C182.34,114.16 182.34,114.16 182.34,114.48 C182.26,114.79 182.26,114.80 182.16,115.11 C182.00,115.39 182.00,115.39 181.82,115.66 C181.60,115.88 181.59,115.88 181.36,116.08 "/><path d="M180.17,112.56 C179.90,112.72 179.90,112.72 179.64,112.90 C179.42,113.15 179.43,113.16 179.22,113.41 C179.15,113.56 179.15,113.57 179.09,113.72 C179.02,113.88 179.01,113.88 178.95,114.03 C178.90,114.36 178.90,114.36 178.86,114.69 C178.91,115.00 178.91,115.01 178.97,115.32 "/><path d="M179.99,112.49 C179.72,112.65 179.72,112.65 179.46,112.83 C179.25,113.08 179.24,113.08 179.04,113.34 C178.90,113.65 178.90,113.65 178.77,113.96 C178.72,114.29 178.72,114.29 178.69,114.62 C178.73,114.93 178.73,114.94 178.79,115.25 "/><path d="M178.78,115.24 C178.72,114.93 178.72,114.93 178.68,114.61 C178.71,114.28 178.71,114.28 178.77,113.95 C178.89,113.65 178.89,113.64 179.03,113.34 C179.23,113.08 179.23,113.08 179.45,112.83 C179.71,112.65 179.71,112.65 179.98,112.49 "/><path d="M181.07,115.40 C181.21,115.28 181.21,115.28 181.34,115.15 C181.44,114.99 181.44,114.99 181.54,114.83 C181.59,114.64 181.59,114.64 181.64,114.46 C181.64,114.29 181.64,114.29 181.64,114.13 "/><path d="M180.39,113.37 C180.24,113.46 180.24,113.46 180.10,113.57 C179.97,113.71 179.97,113.71 179.86,113.86 C179.78,114.03 179.77,114.03 179.70,114.21 C179.67,114.39 179.67,114.40 179.65,114.58 C179.68,114.76 179.68,114.76 179.71,114.94 "/><path d="M181.08,115.27 C181.18,115.19 181.18,115.19 181.27,115.10 C181.37,114.95 181.37,114.95 181.46,114.79 C181.51,114.62 181.51,114.62 181.56,114.44 C181.56,114.27 181.56,114.27 181.55,114.09 C181.50,113.93 181.50,113.93 181.45,113.77 "/><path d="M181.06,113.75 C181.09,113.91 181.09,113.92 181.11,114.08 C181.09,114.26 181.09,114.26 181.07,114.44 C181.00,114.61 181.00,114.61 180.92,114.77 C180.81,114.91 180.81,114.91 180.70,115.05 C180.56,115.14 180.56,115.14 180.41,115.23 "/><path d="M180.34,114.95 C180.44,114.88 180.45,114.88 180.54,114.81 C180.63,114.72 180.63,114.72 180.71,114.62 C180.76,114.50 180.76,114.50 180.81,114.38 C180.83,114.26 180.83,114.26 180.84,114.13 C180.83,114.01 180.83,114.01 180.80,113.88 "/><path d="M179.73,114.88 C179.70,114.73 179.70,114.72 179.68,114.57 C179.70,114.39 179.70,114.39 179.73,114.21 C179.80,114.04 179.80,114.04 179.88,113.88 C179.99,113.74 179.99,113.73 180.11,113.60 C180.20,113.53 180.20,113.53 180.31,113.47 "/><path d="M179.34,115.84 L179.32,115.82 L179.05,115.30 "/><path d="M180.21,112.63 L180.48,112.56 L180.77,112.49 L181.32,112.56 L181.79,112.83 L182.14,113.28 "/><path d="M181.36,116.08 L180.82,116.32 L180.26,116.36 L179.74,116.18 L179.34,115.84 "/><path d="M181.30,112.49 L180.74,112.41 L180.17,112.56 "/><path d="M178.97,115.32 L179.25,115.85 L179.68,116.23 "/><path d="M180.56,112.34 L179.99,112.49 "/><path d="M178.79,115.25 L179.07,115.78 L179.50,116.15 "/><path d="M178.91,115.49 L178.78,115.24 "/><path d="M179.98,112.49 L180.11,112.45 "/><path d="M179.99,115.35 L180.12,115.46 L180.42,115.56 L180.75,115.54 L181.07,115.40 "/><path d="M181.64,114.13 L181.64,114.09 L181.53,113.75 L181.32,113.49 L181.04,113.33 L180.72,113.29 L180.69,113.30 L180.39,113.37 "/><path d="M179.71,114.94 L179.87,115.24 L179.99,115.35 "/><path d="M180.10,115.31 L180.01,115.30 L180.11,115.39 L180.40,115.49 L180.71,115.47 L181.01,115.33 L181.08,115.27 "/><path d="M181.45,113.77 L181.25,113.53 L180.99,113.38 L180.78,113.35 L180.91,113.46 L181.06,113.75 "/><path d="M180.41,115.23 L180.10,115.31 "/><path d="M180.01,115.30 L179.89,115.19 L179.74,114.91 L179.74,114.91 "/><path d="M180.12,115.39 L180.12,115.40 "/><path d="M179.74,114.91 L179.73,114.88 L179.90,114.97 L180.12,115.00 L180.34,114.95 "/><path d="M180.80,113.88 L180.70,113.68 L180.53,113.54 L180.33,113.47 L180.31,113.47 L180.39,113.41 "/><path d="M180.70,113.34 L180.39,113.42 "/><path d="M180.99,113.38 L180.99,113.37 "/><path d="M180.78,113.35 L180.70,113.34 "/></g><g style="stroke:#000000;stroke-width:0.529"><path d="M180.80,116.37 C181.08,116.25 181.09,116.25 181.36,116.12 C181.61,115.91 181.61,115.91 181.84,115.69 C182.02,115.41 182.02,115.41 182.19,115.12 C182.28,114.80 182.28,114.80 182.37,114.47 C182.37,114.15 182.37,114.15 182.36,113.83 C182.27,113.53 182.27,113.52 182.16,113.23 "/><path d="M178.91,115.49 L179.06,115.77 L179.50,116.15 L179.68,116.23 L180.21,116.40 L180.80,116.37 "/><path d="M182.16,113.23 L181.80,112.77 L181.30,112.49 L181.13,112.41 L180.55,112.34 L180.11,112.45 "/></g></g><g id="Actor_.3"><g style="stroke:#000000;stroke-width:0.176"><path d="M135.76,136.41 C135.50,136.59 135.50,136.60 135.25,136.80 C135.05,137.06 135.05,137.06 134.86,137.33 C134.74,137.65 134.74,137.65 134.63,137.97 C134.60,138.29 134.60,138.30 134.59,138.63 C134.65,138.93 134.65,138.94 134.73,139.24 "/><path d="M135.58,136.34 C135.32,136.52 135.32,136.53 135.08,136.72 C134.87,136.99 134.87,136.99 134.69,137.26 C134.56,137.58 134.56,137.58 134.46,137.90 C134.42,138.22 134.42,138.23 134.41,138.56 C134.47,138.86 134.47,138.87 134.55,139.17 "/><path d="M134.67,138.63 C134.69,138.31 134.69,138.30 134.72,137.99 C134.82,137.68 134.82,137.68 134.94,137.37 C135.12,137.11 135.12,137.11 135.32,136.85 C135.56,136.66 135.56,136.66 135.81,136.48 "/><path d="M138.07,138.13 C138.01,138.44 138.01,138.45 137.93,138.76 C137.79,139.05 137.79,139.06 137.63,139.34 C137.41,139.57 137.41,139.57 137.19,139.79 "/><path d="M134.54,139.15 C134.46,138.85 134.46,138.85 134.40,138.55 C134.41,138.22 134.41,138.22 134.45,137.89 C134.55,137.57 134.55,137.57 134.68,137.26 C134.86,136.99 134.86,136.99 135.06,136.73 C135.31,136.53 135.31,136.52 135.57,136.34 "/><path d="M136.54,139.31 C136.69,139.23 136.70,139.23 136.85,139.14 C136.98,139.01 136.98,139.01 137.11,138.88 C137.20,138.71 137.20,138.71 137.29,138.54 C137.33,138.35 137.33,138.35 137.37,138.16 "/><path d="M136.04,137.20 C135.89,137.30 135.89,137.30 135.75,137.42 C135.64,137.56 135.64,137.57 135.53,137.72 C135.48,137.85 135.48,137.85 135.44,137.97 C135.42,138.03 135.42,138.03 135.40,138.08 C135.38,138.27 135.38,138.27 135.37,138.46 C135.41,138.63 135.41,138.63 135.46,138.81 "/><path d="M136.11,138.71 C136.21,138.64 136.21,138.64 136.30,138.57 C136.38,138.47 136.38,138.46 136.45,138.36 C136.50,138.24 136.50,138.24 136.54,138.12 C136.55,137.99 136.55,137.99 136.56,137.86 C136.53,137.74 136.53,137.74 136.50,137.63 "/><path d="M136.75,137.47 C136.79,137.63 136.79,137.63 136.83,137.80 C136.82,137.97 136.82,137.98 136.80,138.15 C136.75,138.32 136.74,138.33 136.68,138.49 C136.58,138.64 136.58,138.64 136.47,138.78 C136.34,138.89 136.33,138.89 136.20,138.99 "/><path d="M136.50,139.24 C136.64,139.16 136.65,139.16 136.79,139.08 C136.92,138.96 136.92,138.96 137.04,138.83 C137.12,138.67 137.12,138.67 137.20,138.51 C137.25,138.33 137.25,138.33 137.28,138.15 C137.27,137.98 137.27,137.98 137.25,137.81 "/><path d="M135.46,138.67 C135.43,138.56 135.43,138.56 135.40,138.44 C135.41,138.26 135.41,138.26 135.43,138.08 C135.49,137.91 135.49,137.91 135.55,137.74 C135.66,137.59 135.66,137.59 135.77,137.45 C135.89,137.35 135.89,137.35 136.01,137.26 "/><path d="M136.90,136.24 L136.33,136.22 L135.76,136.41 "/><path d="M134.73,139.24 L134.79,139.33 L135.05,139.74 L135.51,140.07 "/><path d="M136.72,136.17 L136.15,136.15 L135.58,136.34 "/><path d="M134.55,139.17 L134.87,139.67 "/><path d="M135.81,136.48 L136.36,136.29 L136.92,136.32 L137.41,136.54 L137.79,136.95 L138.02,137.50 L138.06,138.10 L138.07,138.13 "/><path d="M137.19,139.79 L137.08,139.85 L136.66,140.08 L136.10,140.16 L135.57,140.03 L135.12,139.71 L134.81,139.22 L134.67,138.63 "/><path d="M134.56,139.19 L134.54,139.15 "/><path d="M135.57,136.34 L135.75,136.28 "/><path d="M135.90,139.28 L136.21,139.36 L136.54,139.31 "/><path d="M137.37,138.16 L137.36,138.10 L137.34,137.80 L137.20,137.48 L136.98,137.23 L136.69,137.10 L136.37,137.09 L136.04,137.20 "/><path d="M135.46,138.81 L135.64,139.09 L135.90,139.28 "/><path d="M135.48,138.78 L135.46,138.67 L135.47,138.69 L135.67,138.78 L135.89,138.79 L136.11,138.71 "/><path d="M136.50,137.63 L136.38,137.43 L136.20,137.31 L136.01,137.26 L136.04,137.24 "/><path d="M136.64,137.15 L136.50,137.14 L136.58,137.20 L136.75,137.47 "/><path d="M136.20,138.99 L135.89,139.09 L135.72,139.09 L135.89,139.21 L136.19,139.28 L136.50,139.24 "/><path d="M137.25,137.81 L137.13,137.50 L136.92,137.28 L136.64,137.15 L136.65,137.15 "/><path d="M135.89,139.21 L135.89,139.21 "/><path d="M135.65,139.04 L135.72,139.09 "/><path d="M135.65,139.04 L135.48,138.77 "/><path d="M136.50,137.14 L136.34,137.14 L136.04,137.24 "/></g><g style="stroke:#000000;stroke-width:0.529"><path d="M137.81,136.91 C137.94,137.19 137.94,137.19 138.05,137.48 C138.08,137.80 138.08,137.80 138.10,138.12 C138.04,138.45 138.04,138.45 137.96,138.77 C137.81,139.07 137.81,139.07 137.65,139.36 C137.43,139.60 137.42,139.60 137.19,139.83 C136.92,139.98 136.92,139.98 136.64,140.12 "/><path d="M135.75,136.28 L136.14,136.15 L136.72,136.17 L136.90,136.24 L137.41,136.48 L137.81,136.91 "/><path d="M136.64,140.12 L136.07,140.21 L135.51,140.07 L135.33,140.00 L134.86,139.66 L134.56,139.19 "/></g></g><g id="paperID" visibility="hidden" opacity="0.00" transform="scale(0.000100)"><path style="stroke:#000000;stroke-width:0.500;fill:#e6e6e6;fill-rule:evenodd" d="M-2000.00,-2000.00L2297.00,-2000.00L2297.00,2210.00L-2000.00,2210.00zM0.00,0.00L297.00,0.00L297.00,210.00L0.00,210.00z"/><path style="fill:#000000;fill-opacity:0.118" d="M3.00,210.00L297.00,210.00L297.00,3.00L300.00,3.00L300.00,213.00L3.00,213.00z"/></g><g id="ToolTip" visibility="hidden" opacity="0" transform="translate(0,0)"><rect id="ToolTipShadow" opacity="0.20" fill="black" stroke="none" x="0" y="0" width="30" height="8"/><rect id="ToolTipBG" fill="#ffffe1" stroke="black" x="0" y="0" width="30" height="8"/><text xml:space="preserve" id="ToolTipText" fill="black" x="0" y="0" width="30" height="8">tooltip</text></g></g></svg>
