<?xml version="1.0" encoding="UTF-8" standalone="no"?>
<svg xmlns="http://www.w3.org/2000/svg" xmlns:xlink="http://www.w3.org/1999/xlink" width="297.000mm" height="210.000mm" viewBox="0.000000 0.000000 297.000000 210.000000" stroke-linejoin="round" stroke-linecap="round" fill="none" fill-rule="evenodd"><desc>Composer Export</desc><script type="text/ecmascript"><![CDATA[
if(typeof(top) != "undefined")
{
	top.ShowPaper = ShowPaper;
}
function ShowHotSpot(evt,hotspotid)
{
	var svgDocument = evt.target.ownerDocument;
	var strId = "hotspot."+hotspotid;
	var hotspot = svgDocument.getElementById(strId);
	if(hotspot)
		hotspot.setAttribute("opacity",".5");
}
function HideHotSpot(evt,hotspotid)
{
	var svgDocument = evt.target.ownerDocument;
	var strId = "hotspot."+hotspotid;
	var hotspot = svgDocument.getElementById(strId);
	if(hotspot)
		hotspot.setAttribute("opacity","0");

	var toolTip = svgDocument.getElementById('ToolTip');
	if(toolTip)
		toolTip.setAttribute("visibility","hidden");
}
function ShowToolTip(evt,hotspotid,strTooltip)
{
	if(strTooltip=="")
	return;

	// change text
	var svgDocument = evt.target.ownerDocument;
	var tiptext = svgDocument.getElementById('ToolTipText');
	if( !tiptext )
	return;
	tiptext.firstChild.nodeValue = " " + strTooltip + "  " ;

	// show tooltip before, else some refresh issue

	var toolTip = svgDocument.getElementById('ToolTip');
	if(!toolTip)
	return;

	toolTip.setAttribute("visibility","visible");
	toolTip.setAttribute("opacity",".95");

	// move tooltip
	// get viewbox

	var root = svgDocument.documentElement;
	var vbox = (root.getAttribute("viewBox")).split(' ');
	var x0 = parseFloat(vbox[0]);
	var y0 = parseFloat(vbox[1]);
	var vboxW = parseFloat(vbox[2]);
	var vboxH = parseFloat(vbox[3]);

	// get default width of svg

	var strW = root.getAttribute("width");
	var svgW = parseFloat(strW);
	if(strW.indexOf('mm') != -1)
	svgW *= 3.779;

	var strH = root.getAttribute("height");
	var svgH = parseFloat(strH);
	if(strH.indexOf('mm') != -1)
	svgH *= 3.779;  	// 96 dpi  -> 96/25.4 = 3.779

	// update the viewbox / width / height if svg is embedded in html with zoom fit all
	var realx0 = x0;
	var realy0 = y0;
	var realvboxW = vboxW;
	var realvboxH = vboxH;
	var realsvgW = svgW;
	var realsvgH = svgH;

	if ((typeof(top) == "undefined") || (typeof(top.svgctl1) != "undefined")) // embedded in html
	{
		// get window size in pxl

		svgW = window.innerWidth;
		svgH = window.innerHeight;

		// calculate real viewbox

		realsvgW = svgW;
		realsvgH = svgH;
		if((svgW / svgH) > (vboxW / vboxH))
		{
			realvboxW = (vboxH * svgW) / svgH;
			realvboxH = vboxH;
			realx0 = x0 - (realvboxW - vboxW)/2 ;
		}
		else
		{
			realvboxH = (vboxW * svgH) / svgW;
			realvboxW = vboxW;
			realy0 = y0 - (realvboxH - vboxH)/2 ;
		}
	}

	// get user zoom/pan

	var newScale = root.currentScale;
	var translation = root.currentTranslate;

	// transform pxl to user unit

	var xPos = (((evt.clientX+10- translation.x)/newScale) * realvboxW)/realsvgW  + realx0 ;
	var yPos = (((evt.clientY+5- translation.y)/newScale) * realvboxH)/ realsvgH  + realy0 ;
	var scaleForWidth = ( (1 / newScale) * realvboxH) / realsvgH;

	// move tooltip

	toolTip.setAttribute("transform", "translate(" + xPos + "," + yPos + ")" );

	// resize tooltip

	var fontsize = 12;
	tiptext.setAttribute("font-size",fontsize*scaleForWidth);
	tiptext.setAttribute("y", fontsize*scaleForWidth);
	var tipBG = svgDocument.getElementById('ToolTipBG');
	var outline = tiptext.getBBox();
	if(tipBG)
	{
		tipBG.setAttribute("stroke-width", 1*scaleForWidth);
		tipBG.setAttribute("width", Number(outline.width) );
		tipBG.setAttribute("height", Number(outline.height) + fontsize*.5*scaleForWidth );
	}
	var ToolTipShadow = svgDocument.getElementById('ToolTipShadow');
	if(ToolTipShadow)
	{
		ToolTipShadow.setAttribute("width", Number(outline.width) );
		ToolTipShadow.setAttribute("height", Number(outline.height) + fontsize*.5*scaleForWidth );
		ToolTipShadow.setAttribute("x", 3*scaleForWidth);
		ToolTipShadow.setAttribute("y", 3*scaleForWidth);
	}
}
function ShowPaper()
{
  var svgDocument = getDocument();
  var paper = svgDocument.getElementById("paperID");
  if(paper)
  {
    paper.setAttribute("transform","scale(1)");
    paper.setAttribute("opacity","1");
    paper.setAttribute("visibility","visible");
  }
  var svg = svgDocument.getRootElement();
  if(svg)
  {
    svg.setAttribute("width","307.000mm");
    svg.setAttribute("height","220.000mm");
    svg.setAttribute("viewBox","-5.000000 -5.000000 307.000000 220.000000");
  }
}
]]></script><defs/><g><path style="fill:#ffffff" d="M296.92,210.05L0.08,210.05L0.08,0.08L296.92,0.08z"/><path style="fill:#1a1a1a" d="M56.71,59.71L52.49,61.04L52.46,62.32L52.61,71.71L52.73,80.53L52.76,85.39L56.71,86.69L58.97,88.02L61.70,92.18L63.04,93.04L133.92,114.27L135.77,114.25L137.79,112.42L139.24,111.89L140.66,111.89L145.04,113.14L152.24,113.27L152.98,113.43L153.53,113.97L153.53,115.84L153.80,116.47L154.42,116.98L162.42,117.81L218.40,118.37L245.81,118.41L249.84,117.41L250.68,117.41L251.52,117.54L245.51,118.94L245.34,136.96L245.16,138.93L243.88,139.64L241.56,140.03L228.34,141.81L226.68,141.80L224.66,139.63L222.55,138.65L215.11,138.37L184.50,138.10L169.85,138.09L167.75,138.80L166.65,139.62L165.95,140.58L163.42,146.60L163.18,149.94L162.41,150.62L155.53,151.61L144.22,153.10L143.73,153.09L143.02,154.88L141.28,161.15L141.93,167.21L142.22,172.28L141.55,173.48L141.36,173.63L139.44,173.56L135.56,172.47L134.73,171.64L134.52,170.15L134.48,169.13L134.36,169.04L134.24,167.67L134.20,166.65L134.08,166.56L133.96,165.47L133.92,164.17L133.81,164.07L133.69,162.98L133.65,161.96L133.53,161.87L133.41,160.50L133.37,159.48L133.26,159.39L133.13,158.30L133.09,157.00L132.99,156.90L132.86,155.81L132.82,154.79L132.70,154.70L132.59,153.33L132.55,152.31L132.43,152.22L132.30,151.13L132.27,149.83L132.16,149.73L132.03,148.64L132.00,147.62L131.88,147.53L131.75,146.44L131.72,145.14L131.61,145.04L131.48,143.96L131.44,142.94L131.32,142.84L131.21,141.47L131.17,140.46L131.05,140.35L130.34,137.43L128.99,135.47L127.59,134.39L114.35,130.26L68.68,116.58L68.59,116.47L66.99,116.63L66.26,116.72L65.83,117.12L64.69,119.30L61.31,141.84L60.40,149.40L60.12,149.54L59.28,149.54L54.77,148.19L53.43,147.05L52.89,145.88L52.85,145.15L52.73,145.06L52.72,143.67L53.29,140.09L53.84,136.24L53.95,134.66L53.84,134.57L53.71,133.74L53.69,133.01L53.56,132.92L52.34,127.96L52.31,127.22L52.18,127.13L51.51,125.55L51.23,125.20L51.23,78.58L51.51,60.94L51.92,60.46L55.79,59.37L56.83,59.35z"/><path style="fill:#171717" d="M258.30,119.22L259.42,120.59L259.41,129.25L258.57,130.89L251.29,136.85L245.16,138.93L245.34,136.96L245.51,118.94L251.52,117.54z"/><path style="fill:#171717" d="M66.00,117.84L65.29,120.22L64.75,124.10L64.57,124.93L64.77,125.95L64.54,126.07L64.35,126.12L64.31,126.84L64.18,127.67L64.02,128.78L62.54,139.27L62.38,140.08L61.14,148.84L60.40,149.40L61.31,141.84L64.69,119.30L65.83,117.12L66.26,116.72L66.99,116.63z"/><path style="fill:#00fdff" d="M98.40,120.56L99.08,121.59L99.06,123.55L98.53,124.19L97.51,124.21L96.72,123.62L96.19,122.72L96.19,121.34L96.63,120.62L98.08,120.29z"/><path style="fill:#00fdff" d="M61.72,126.35L62.12,127.11L62.11,129.34L61.87,129.73L60.31,129.69L59.76,129.14L59.46,128.34L59.45,126.74L60.29,125.90L60.85,125.81z"/><path style="fill:#00fdff" d="M135.05,148.17L135.58,148.97L135.49,151.15L135.29,151.58L134.67,151.80L133.92,151.80L133.39,151.47L132.81,150.40L132.83,148.55L133.55,147.88L134.49,147.88z"/><path style="fill:#00001c" d="M64.32,128.52L64.02,128.78L64.18,127.67z"/><path style="fill:#000020" d="M64.53,126.78L64.31,126.84L64.35,126.12L64.54,126.07z"/><path style="fill:#000020" d="M256.95,129.08L256.75,129.61L256.56,129.51L256.67,128.22z"/><path style="fill:#171717" d="M62.77,60.77L65.03,61.55L65.70,62.59L65.85,63.42L65.71,70.89L65.54,71.62L64.75,73.02L57.17,79.23L52.73,80.53L52.61,71.71L52.57,62.42L52.46,62.32L52.49,61.04L56.71,59.71L56.83,59.35z"/><path style="fill:#171717" d="M56.75,132.92L56.78,133.18L55.86,133.02L56.18,131.68L56.53,131.58z"/><path style="fill:#171717" d="M57.30,138.66L56.90,138.81L57.01,139.83L56.05,139.72L56.12,138.86L56.36,138.52L57.24,138.51z"/><path style="fill:#171717" d="M55.37,144.18L54.99,144.31L54.88,145.29L54.14,145.54L54.22,144.12L55.32,144.03z"/><path style="fill:#171717" d="M138.71,156.28L138.56,156.43L138.64,157.76L137.69,157.65L137.75,156.50L138.00,156.16z"/><path style="fill:#171717" d="M141.28,161.15L143.02,154.88L143.73,153.09L144.22,153.10L144.14,154.06L142.22,160.20L142.23,162.99L142.35,164.35L142.51,165.47L142.63,166.56L142.79,167.67L142.90,169.04L143.06,170.15L143.04,172.28L142.53,173.14L141.55,173.48L142.22,172.28L141.93,167.21z"/><path style="fill:#171717" d="M140.33,169.56L140.04,169.86L139.88,169.97L140.03,170.69L140.06,170.95L139.35,170.90L139.44,169.48L140.24,169.38z"/><path style="fill:#ffffff" d="M257.08,128.81L256.95,129.08L256.67,128.22L256.96,127.91z"/><path style="fill:#ffffff" d="M57.70,139.26L57.64,140.32L57.01,139.83L56.90,138.81L57.30,138.66z"/><path style="fill:#ffffff" d="M55.79,145.05L55.69,145.85L55.28,145.81L54.88,145.29L54.99,144.31L55.37,144.18z"/><path style="fill:#ffffff" d="M160.25,146.75L160.25,147.49L160.06,147.67L158.73,147.64L158.73,146.61L159.86,146.47z"/><path style="fill:#ffffff" d="M139.34,157.17L139.31,158.04L139.19,158.22L138.64,157.76L138.56,156.43L138.71,156.28L138.92,156.39z"/><path style="fill:#00e3e5" d="M98.13,121.69L98.13,122.09L96.97,122.64L96.97,121.50L97.83,121.39z"/><path style="fill:#00e3e5" d="M99.06,123.55L99.08,121.59L99.18,121.69z"/><path style="fill:#00e3e5" d="M61.47,127.50L61.40,127.90L61.07,127.90L60.93,127.12z"/><path style="fill:#00e3e5" d="M59.97,127.29L60.24,126.92L60.81,126.90L60.93,127.12L60.56,128.17L60.02,128.07z"/><path style="fill:#00e3e5" d="M65.16,127.70L65.01,128.18L64.32,128.52L64.18,127.67L64.31,126.84L64.53,126.78L65.03,126.85z"/><path style="fill:#00e3e5" d="M62.11,129.34L62.12,127.11L62.23,127.21z"/><path style="fill:#00e3e5" d="M134.77,149.57L134.42,149.65L134.47,149.00z"/><path style="fill:#00e3e5" d="M133.34,149.37L133.94,148.72L133.92,149.96L133.37,149.86z"/><path style="fill:#00fdff" d="M65.17,126.56L65.03,126.85L64.53,126.78L64.54,126.07L64.77,125.95z"/><path style="fill:#00001c" d="M52.61,71.71L52.46,62.32L52.57,62.42z"/><path style="fill:#000020" d="M65.85,63.42L65.70,62.59L65.82,62.69z"/><path style="fill:#000020" d="M56.03,64.79L56.33,64.29L56.53,64.32L56.33,65.35z"/><path style="fill:#000020" d="M56.01,65.66L55.92,65.93L55.77,65.18L55.90,65.07z"/><path style="fill:#000020" d="M56.05,73.37L56.30,72.86L56.62,73.05L56.32,73.64z"/><path style="fill:#000020" d="M55.93,74.77L55.77,74.22L56.17,74.17z"/><path style="fill:#000020" d="M61.70,101.11L61.47,100.68L61.56,100.37L61.72,100.47z"/><path style="fill:#000020" d="M61.71,104.15L61.44,103.69L61.56,103.40L61.72,103.51z"/><path style="fill:#000020" d="M68.68,116.58L66.99,116.63L68.59,116.47z"/><path style="fill:#000020" d="M256.79,121.88L257.05,121.39L257.36,121.60L257.09,122.45z"/><path style="fill:#000020" d="M256.95,122.73L256.72,123.08L256.51,122.27L256.66,122.16z"/><path style="fill:#000020" d="M238.00,125.96L237.19,126.04L237.25,125.84z"/><path style="fill:#000020" d="M65.16,127.70L65.03,126.85L65.17,126.56L65.30,126.67z"/><path style="fill:#000020" d="M52.34,127.96L52.18,127.13L52.31,127.22z"/><path style="fill:#000020" d="M153.00,128.23L152.27,128.23L152.32,128.03L152.95,128.03z"/><path style="fill:#000020" d="M257.37,127.91L257.08,128.81L256.96,127.91L257.22,127.75z"/><path style="fill:#000020" d="M238.00,128.99L237.19,129.07L237.25,128.87z"/><path style="fill:#000020" d="M153.02,131.26L152.25,131.26L152.32,131.06L152.95,131.06z"/><path style="fill:#000020" d="M152.95,132.02L152.32,132.02L152.25,131.82L153.02,131.82z"/><path style="fill:#000020" d="M56.86,131.79L56.75,132.92L56.53,131.58z"/><path style="fill:#000020" d="M53.71,133.74L53.56,132.92L53.69,133.01z"/><path style="fill:#000020" d="M53.84,136.24L53.84,134.57L53.95,134.66z"/><path style="fill:#000020" d="M235.40,137.81L234.68,137.67L235.50,137.67z"/><path style="fill:#000020" d="M57.81,140.29L57.64,140.32L57.70,139.26L57.83,139.35z"/><path style="fill:#000020" d="M131.21,141.47L131.05,140.35L131.17,140.46z"/><path style="fill:#000020" d="M131.48,143.96L131.32,142.84L131.44,142.94z"/><path style="fill:#000020" d="M56.00,145.36L55.69,145.85L55.79,145.05z"/><path style="fill:#000020" d="M52.89,145.88L52.73,145.06L52.85,145.15z"/><path style="fill:#000020" d="M131.75,146.44L131.61,145.04L131.72,145.14z"/><path style="fill:#000020" d="M160.52,147.01L160.25,147.49L160.25,146.75z"/><path style="fill:#000020" d="M132.03,148.64L131.88,147.53L132.00,147.62z"/><path style="fill:#000020" d="M153.50,148.84L152.78,148.70L153.60,148.70z"/><path style="fill:#000020" d="M60.01,149.68L59.28,149.54L60.12,149.54z"/><path style="fill:#000020" d="M132.30,151.13L132.16,149.73L132.27,149.83z"/><path style="fill:#000020" d="M132.59,153.33L132.43,152.22L132.55,152.31z"/><path style="fill:#000020" d="M132.86,155.81L132.70,154.70L132.82,154.79z"/><path style="fill:#000020" d="M139.31,158.04L139.34,157.17L139.46,157.29z"/><path style="fill:#000020" d="M133.13,158.30L132.99,156.90L133.09,157.00z"/><path style="fill:#000020" d="M133.41,160.50L133.26,159.39L133.37,159.48z"/><path style="fill:#000020" d="M133.69,162.98L133.53,161.87L133.65,161.96z"/><path style="fill:#000020" d="M142.51,165.47L142.35,164.35L142.47,164.45z"/><path style="fill:#000020" d="M133.96,165.47L133.81,164.07L133.92,164.17z"/><path style="fill:#000020" d="M142.79,167.67L142.63,166.56L142.75,166.65z"/><path style="fill:#000020" d="M134.24,167.67L134.08,166.56L134.20,166.65z"/><path style="fill:#000020" d="M143.06,170.15L142.90,169.04L143.03,169.13z"/><path style="fill:#000020" d="M134.52,170.15L134.36,169.04L134.48,169.13z"/><path style="fill:#000020" d="M140.03,170.69L139.88,169.97L140.04,169.86z"/><path style="fill:#171717" d="M61.56,100.37L61.47,100.68L60.74,100.84L60.75,100.19L61.41,100.14z"/><path style="fill:#171717" d="M61.56,103.40L61.44,103.69L60.84,103.88L60.75,103.23L61.41,103.17z"/><path style="fill:#171717" d="M61.45,106.20L61.73,106.86L60.85,106.89L60.85,106.05L61.14,105.96z"/><path style="fill:#171717" d="M135.08,122.23L135.05,122.61L134.48,122.93L134.36,122.24L134.80,121.95z"/><path style="fill:#171717" d="M135.09,125.27L135.04,125.67L134.38,125.67L134.46,125.09L134.80,124.98z"/><path style="fill:#171717" d="M135.10,128.32L135.04,128.71L134.38,128.70L134.37,128.04L134.76,127.98z"/><path style="fill:#171717" d="M228.30,138.43L227.86,138.34L227.98,137.61z"/><path style="fill:#171717" d="M138.43,162.91L138.16,164.04L137.43,164.29L137.51,162.86L138.32,162.75z"/><path style="fill:#1a1a1a" d="M64.16,63.80L64.19,64.72L63.93,65.05L63.25,65.30L63.07,64.85L63.42,63.93L63.39,63.70L63.63,63.48z"/><path style="fill:#1a1a1a" d="M57.30,64.90L56.89,66.00L56.07,66.14L55.92,65.93L56.01,65.66L56.33,65.35L56.53,64.32L56.71,64.31z"/><path style="fill:#1a1a1a" d="M64.16,70.14L64.19,71.06L63.93,71.40L63.25,71.64L63.08,71.20L63.43,70.28L63.38,70.04L63.63,69.83z"/><path style="fill:#1a1a1a" d="M57.01,74.38L56.43,74.97L55.93,74.77L56.17,74.17L56.32,73.64L56.62,73.05L56.99,73.15z"/><path style="fill:#1a1a1a" d="M258.07,121.96L258.06,122.34L257.47,123.22L256.72,123.08L256.95,122.73L257.09,122.45L257.36,121.60z"/><path style="fill:#1a1a1a" d="M250.98,122.72L250.57,124.00L249.67,124.02L249.60,123.81L250.04,123.18L250.15,122.49L250.87,122.51z"/><path style="fill:#1a1a1a" d="M256.75,129.61L256.95,129.08L257.08,128.81L257.37,127.91L257.74,128.02L257.76,129.26L257.52,129.59L256.90,129.75z"/><path style="fill:#1a1a1a" d="M250.86,131.37L250.89,131.99L250.48,132.74L249.66,132.87L249.60,132.39L250.03,131.21L250.35,131.06z"/><path style="fill:#ffffff" d="M63.42,63.93L63.07,64.85L63.02,64.14L63.39,63.70z"/><path style="fill:#ffffff" d="M56.33,65.35L56.01,65.66L55.90,65.07L56.03,64.79z"/><path style="fill:#ffffff" d="M63.43,70.28L63.08,71.20L62.93,70.40L63.38,70.04z"/><path style="fill:#ffffff" d="M56.32,73.64L56.17,74.17L55.77,74.22L56.05,73.37z"/><path style="fill:#ffffff" d="M257.09,122.45L256.95,122.73L256.66,122.16L256.79,121.88z"/><path style="fill:#ffffff" d="M250.04,123.18L249.60,123.81L249.71,122.85L250.15,122.49z"/><path style="fill:#ffffff" d="M153.27,125.53L152.90,125.88L152.38,125.85L152.30,125.28L152.99,125.26z"/><path style="fill:#ffffff" d="M238.22,126.48L237.20,126.49L237.19,126.04L238.00,125.96L238.23,126.14z"/><path style="fill:#ffffff" d="M152.27,128.23L153.00,128.23L152.88,128.91L152.39,128.91z"/><path style="fill:#ffffff" d="M238.13,129.43L237.21,129.53L237.19,129.07L238.00,128.99L238.19,129.13z"/><path style="fill:#ffffff" d="M153.02,131.82L152.25,131.82L152.25,131.26L153.02,131.26z"/><path style="fill:#ffffff" d="M238.16,132.18L238.12,132.45L237.23,132.56L237.31,131.99L237.65,131.89z"/><path style="fill:#ffffff" d="M57.57,132.73L57.57,133.42L57.31,133.68L56.78,133.18L56.75,132.92L56.86,131.79z"/><path style="fill:#ffffff" d="M249.60,132.39L249.67,131.34L250.03,131.21z"/><path style="fill:#ffffff" d="M235.75,136.55L236.02,137.24L235.50,137.67L234.68,137.67L234.22,136.84L234.77,136.29L235.41,136.29z"/><path style="fill:#ffffff" d="M229.67,137.41L229.55,138.26L228.30,138.43L227.98,137.61L228.41,137.11L229.37,137.11z"/><path style="fill:#ffffff" d="M153.85,147.58L154.12,148.27L153.60,148.70L152.78,148.70L152.32,147.87L152.87,147.32L153.51,147.32z"/><path style="fill:#ffffff" d="M138.74,163.22L138.90,164.83L138.16,164.04L138.43,162.91z"/><path style="fill:#ffffff" d="M140.84,170.51L140.85,171.43L140.06,170.95L140.03,170.69L140.04,169.86L140.33,169.56z"/><g id="Actor_.0"><g style="stroke:#000000;stroke-width:0.176"><path d="M133.40,151.14 C133.21,150.91 133.21,150.90 133.03,150.66 C132.90,150.36 132.90,150.36 132.78,150.06 C132.72,149.74 132.72,149.74 132.67,149.42 C132.68,149.11 132.68,149.11 132.71,148.81 C132.80,148.55 132.80,148.54 132.90,148.29 "/><path d="M134.53,148.00 C134.74,148.20 134.74,148.20 134.94,148.41 C135.10,148.68 135.10,148.68 135.25,148.96 C135.33,149.23 135.34,149.23 135.41,149.51 "/><path d="M133.31,149.90 C133.28,149.71 133.28,149.71 133.25,149.52 C133.25,149.34 133.25,149.34 133.27,149.16 C133.32,149.01 133.32,149.01 133.38,148.85 "/><path d="M134.34,148.68 C134.46,148.80 134.46,148.80 134.58,148.93 C134.67,149.09 134.67,149.09 134.76,149.25 C134.82,149.43 134.82,149.43 134.87,149.62 C134.88,149.80 134.88,149.81 134.89,149.99 C134.86,150.16 134.86,150.16 134.82,150.33 "/><path d="M133.93,150.73 C133.80,150.63 133.80,150.63 133.67,150.53 C133.56,150.39 133.56,150.39 133.46,150.25 C133.38,150.07 133.38,150.07 133.31,149.90 "/><path d="M133.46,148.89 C133.41,149.03 133.41,149.03 133.36,149.17 C133.34,149.34 133.34,149.34 133.34,149.51 C133.36,149.69 133.36,149.69 133.40,149.87 C133.46,150.04 133.46,150.04 133.54,150.20 C133.64,150.34 133.64,150.34 133.74,150.47 C133.86,150.57 133.86,150.57 133.98,150.66 "/><path d="M134.23,149.03 C134.20,149.14 134.20,149.14 134.18,149.25 C134.19,149.38 134.19,149.38 134.20,149.51 C134.23,149.63 134.23,149.63 134.27,149.75 C134.33,149.86 134.33,149.87 134.39,149.97 C134.47,150.06 134.47,150.06 134.55,150.14 "/><path d="M134.48,150.40 C134.37,150.29 134.36,150.29 134.26,150.17 C134.17,150.02 134.16,150.02 134.08,149.87 C134.03,149.69 134.03,149.69 133.98,149.52 C133.97,149.34 133.97,149.34 133.96,149.17 C133.99,149.01 133.99,149.00 134.02,148.85 "/><path d="M134.59,147.93 C134.80,148.14 134.81,148.14 135.01,148.36 C135.18,148.64 135.18,148.64 135.33,148.93 C135.43,149.25 135.43,149.25 135.52,149.57 C135.55,149.90 135.55,149.90 135.56,150.23 C135.51,150.52 135.50,150.53 135.44,150.82 "/><path d="M135.80,150.16 C135.79,149.83 135.79,149.83 135.76,149.50 C135.68,149.18 135.68,149.18 135.57,148.86 C135.42,148.57 135.42,148.57 135.25,148.29 C135.05,148.07 135.05,148.07 134.83,147.86 "/><path d="M135.70,150.74 C135.77,150.45 135.77,150.44 135.82,150.15 C135.81,149.82 135.81,149.82 135.78,149.49 C135.70,149.18 135.70,149.17 135.60,148.86 C135.44,148.57 135.44,148.57 135.28,148.30 C135.07,148.08 135.07,148.07 134.86,147.86 "/><path d="M133.65,151.34 L133.40,151.14 "/><path d="M132.90,148.29 L133.21,147.92 L133.62,147.73 L134.08,147.76 L134.53,148.00 "/><path d="M135.41,149.51 L135.43,149.59 L135.47,150.22 L135.35,150.80 L135.10,151.25 L134.73,151.53 L134.29,151.61 L133.83,151.47 L133.65,151.34 "/><path d="M133.38,148.85 L133.57,148.64 L133.80,148.53 L134.07,148.55 L134.34,148.68 "/><path d="M134.82,150.33 L134.67,150.59 L134.46,150.76 L134.23,150.80 L134.20,150.80 L133.93,150.73 "/><path d="M133.85,148.58 L133.86,148.58 L133.64,148.68 L133.46,148.89 "/><path d="M133.98,150.66 L134.24,150.73 L134.48,150.69 L134.47,150.69 "/><path d="M134.48,150.69 L134.67,150.54 L134.67,150.55 "/><path d="M134.41,148.79 L134.33,148.85 L134.23,149.03 "/><path d="M134.55,150.14 L134.73,150.23 L134.82,150.24 "/><path d="M134.69,150.51 L134.48,150.40 "/><path d="M134.02,148.85 L134.15,148.62 "/><path d="M134.67,150.54 L134.81,150.29 L134.87,149.98 "/><path d="M133.86,148.58 L134.10,148.60 L134.09,148.59 "/><path d="M134.57,148.95 L134.57,148.95 L134.35,148.72 L134.10,148.60 "/><path d="M134.57,148.95 L134.75,149.26 L134.82,149.51 L134.85,149.62 L134.87,149.97 "/><path d="M133.65,147.66 L134.12,147.69 L134.59,147.93 "/><path d="M135.44,150.82 L135.18,151.29 L134.80,151.57 "/><path d="M135.04,151.51 L135.42,151.22 L135.68,150.75 L135.78,150.28 L135.80,150.16 "/><path d="M134.83,147.86 L134.37,147.62 L133.89,147.59 "/><path d="M135.62,150.88 L135.70,150.74 "/><path d="M134.86,147.86 L134.76,147.81 "/></g><g style="stroke:#000000;stroke-width:0.529"><path d="M133.84,151.51 C133.62,151.35 133.61,151.35 133.40,151.18 C133.20,150.93 133.20,150.93 133.02,150.68 C132.89,150.37 132.89,150.37 132.77,150.06 C132.70,149.74 132.70,149.74 132.65,149.41 C132.67,149.10 132.66,149.09 132.69,148.78 C132.78,148.51 132.78,148.51 132.89,148.25 "/><path d="M135.62,150.88 L135.43,151.21 L135.06,151.50 L134.80,151.57 L134.33,151.66 L133.84,151.51 "/><path d="M132.89,148.25 L133.22,147.85 L133.65,147.66 L133.91,147.59 L134.38,147.62 L134.76,147.81 "/></g></g><g id="Actor_.1"><g style="stroke:#000000;stroke-width:0.176"><path d="M97.10,123.76 C96.93,123.62 96.93,123.62 96.77,123.47 C96.60,123.22 96.60,123.21 96.44,122.95 C96.33,122.65 96.32,122.64 96.22,122.33 C96.18,122.02 96.18,122.01 96.15,121.70 C96.19,121.40 96.19,121.40 96.24,121.10 C96.34,120.86 96.34,120.85 96.46,120.62 "/><path d="M97.69,120.26 C97.92,120.39 97.92,120.40 98.14,120.55 C98.34,120.77 98.34,120.77 98.52,121.00 C98.67,121.29 98.67,121.29 98.80,121.58 C98.88,121.90 98.88,121.90 98.95,122.22 C98.95,122.53 98.95,122.53 98.94,122.84 C98.87,123.12 98.87,123.12 98.78,123.39 "/><path d="M96.78,122.24 C96.83,122.43 96.83,122.43 96.90,122.61 C96.99,122.76 97.00,122.76 97.10,122.91 C97.22,123.03 97.22,123.03 97.35,123.14 "/><path d="M98.28,122.86 C98.33,122.70 98.33,122.70 98.37,122.54 C98.37,122.47 98.37,122.47 98.37,122.39 C98.37,122.28 98.37,122.28 98.37,122.18 "/><path d="M98.37,122.18 C98.34,121.99 98.34,121.99 98.29,121.80 C98.21,121.63 98.21,121.63 98.13,121.46 C98.02,121.33 98.02,121.32 97.90,121.19 C97.77,121.11 97.77,121.10 97.64,121.02 "/><path d="M96.91,121.24 C96.84,121.37 96.84,121.38 96.78,121.52 C96.75,121.69 96.75,121.69 96.73,121.87 C96.74,121.99 96.74,122.00 96.76,122.12 "/><path d="M96.99,121.27 C96.93,121.40 96.93,121.40 96.87,121.54 C96.84,121.70 96.84,121.70 96.82,121.87 C96.84,122.05 96.84,122.05 96.86,122.22 C96.92,122.40 96.92,122.40 96.98,122.57 C97.07,122.71 97.07,122.72 97.17,122.86 C97.28,122.97 97.28,122.97 97.40,123.07 "/><path d="M98.87,123.42 C98.96,123.14 98.96,123.14 99.03,122.85 C99.04,122.53 99.04,122.53 99.03,122.21 C99.00,122.04 99.00,122.04 98.96,121.88 C98.92,121.72 98.93,121.71 98.89,121.55 C98.75,121.25 98.75,121.25 98.60,120.96 C98.41,120.72 98.41,120.71 98.20,120.48 C97.98,120.33 97.98,120.33 97.74,120.19 "/><path d="M97.74,121.42 C97.71,121.53 97.71,121.53 97.68,121.64 C97.67,121.76 97.67,121.76 97.68,121.89 C97.70,122.01 97.70,122.01 97.73,122.14 C97.79,122.25 97.79,122.26 97.84,122.37 C97.92,122.46 97.92,122.46 98.00,122.55 C98.08,122.61 98.08,122.61 98.17,122.66 "/><path d="M97.55,121.22 C97.50,121.37 97.50,121.37 97.46,121.52 C97.45,121.70 97.45,121.70 97.46,121.87 C97.49,122.05 97.49,122.05 97.54,122.22 C97.61,122.39 97.61,122.39 97.69,122.54 C97.79,122.67 97.79,122.68 97.90,122.80 C98.02,122.88 98.03,122.88 98.15,122.96 "/><path d="M98.12,121.48 C98.20,121.64 98.20,121.65 98.27,121.81 C98.32,121.99 98.32,121.99 98.36,122.17 C98.36,122.34 98.36,122.35 98.35,122.52 "/><path d="M99.11,123.35 C99.20,123.07 99.20,123.07 99.27,122.78 C99.28,122.46 99.28,122.46 99.28,122.14 C99.25,121.97 99.24,121.98 99.21,121.81 C99.17,121.65 99.17,121.65 99.13,121.48 C98.99,121.18 98.99,121.18 98.84,120.89 C98.65,120.65 98.65,120.64 98.45,120.41 C98.22,120.26 98.22,120.26 97.99,120.12 "/><path d="M98.47,120.42 C98.67,120.65 98.67,120.65 98.86,120.89 C99.01,121.18 99.01,121.18 99.15,121.48 C99.23,121.80 99.23,121.80 99.30,122.13 C99.30,122.45 99.30,122.45 99.29,122.77 C99.22,123.05 99.22,123.06 99.13,123.33 "/><path d="M96.46,120.62 L96.81,120.30 L97.23,120.17 L97.69,120.26 "/><path d="M98.78,123.39 L98.50,123.80 L98.10,124.02 L97.66,124.04 L97.20,123.85 L97.10,123.76 "/><path d="M96.77,123.50 L96.77,123.50 "/><path d="M96.76,122.12 L96.78,122.24 "/><path d="M97.35,123.14 L97.62,123.25 L97.88,123.24 L98.11,123.10 L98.28,122.86 "/><path d="M97.64,121.02 L97.37,120.97 L97.12,121.05 L96.91,121.24 "/><path d="M97.41,121.02 L97.41,121.03 L97.19,121.09 L96.99,121.27 "/><path d="M97.40,123.07 L97.66,123.17 L97.91,123.16 L97.89,123.17 "/><path d="M96.43,122.96 L96.46,123.01 "/><path d="M98.17,124.07 L98.57,123.84 L98.87,123.42 "/><path d="M97.74,120.19 L97.27,120.10 "/><path d="M97.91,121.23 L97.85,121.26 L97.74,121.42 "/><path d="M98.17,122.66 L98.30,122.69 "/><path d="M97.65,121.07 L97.55,121.22 "/><path d="M98.15,122.96 L98.17,122.96 "/><path d="M97.91,123.16 L98.11,123.04 L98.10,123.05 "/><path d="M98.11,123.04 L98.27,122.82 L98.35,122.52 L98.35,122.53 "/><path d="M98.12,121.48 L97.90,121.23 L97.65,121.07 "/><path d="M97.66,121.07 L97.41,121.03 "/><path d="M98.41,124.00 L98.81,123.77 L99.11,123.35 "/><path d="M97.99,120.12 L97.51,120.03 "/><path d="M98.20,120.25 L98.47,120.42 "/><path d="M99.13,123.33 L99.11,123.37 "/></g><g style="stroke:#000000;stroke-width:0.529"><path d="M97.69,124.09 C97.92,124.08 97.92,124.08 98.15,124.07 C98.28,124.04 98.28,124.04 98.41,124.00 C98.62,123.89 98.62,123.88 98.83,123.76 "/><path d="M96.45,120.57 C96.33,120.82 96.33,120.82 96.22,121.07 C96.17,121.37 96.17,121.38 96.14,121.68 C96.16,122.01 96.17,122.01 96.21,122.34 C96.31,122.65 96.31,122.65 96.43,122.96 "/><path d="M96.46,123.01 L96.77,123.50 "/><path d="M96.77,123.50 L97.20,123.89 L97.68,124.09 L97.69,124.09 "/><path d="M98.83,123.76 L99.11,123.37 "/><path d="M98.20,120.25 L98.00,120.12 L97.51,120.03 L96.83,120.23 L96.45,120.57 "/></g></g><g id="Actor_.2"><g style="stroke:#000000;stroke-width:0.176"><path d="M59.40,127.97 C59.35,127.70 59.35,127.70 59.31,127.43 C59.33,127.12 59.33,127.12 59.36,126.82 C59.45,126.56 59.45,126.56 59.56,126.30 "/><path d="M61.25,126.12 C61.43,126.29 61.43,126.29 61.60,126.48 C61.76,126.75 61.76,126.76 61.91,127.04 C62.00,127.35 62.00,127.35 62.08,127.67 C62.09,127.75 62.09,127.75 62.09,127.83 C62.10,128.06 62.11,128.06 62.11,128.30 C62.06,128.58 62.05,128.59 61.99,128.87 "/><path d="M60.45,129.50 C60.23,129.34 60.23,129.34 60.02,129.16 C59.83,128.92 59.83,128.92 59.66,128.67 C59.53,128.37 59.54,128.37 59.42,128.07 C59.41,128.02 59.41,128.02 59.40,127.97 "/><path d="M59.95,127.92 C60.02,128.10 60.02,128.10 60.10,128.27 C60.20,128.42 60.20,128.42 60.31,128.56 C60.43,128.67 60.43,128.67 60.56,128.76 "/><path d="M61.46,128.39 C61.50,128.23 61.50,128.23 61.53,128.06 C61.53,127.98 61.53,127.98 61.53,127.90 C61.52,127.79 61.53,127.79 61.52,127.68 C61.47,127.50 61.47,127.50 61.41,127.31 C61.33,127.15 61.33,127.15 61.24,126.99 C61.12,126.86 61.12,126.86 61.00,126.74 "/><path d="M60.03,126.88 C59.97,127.03 59.97,127.03 59.92,127.18 C59.90,127.36 59.90,127.36 59.89,127.54 C59.91,127.68 59.91,127.69 59.94,127.83 "/><path d="M60.12,126.92 C60.06,127.06 60.06,127.06 60.01,127.20 C59.99,127.37 59.99,127.37 59.98,127.54 C60.00,127.72 60.01,127.72 60.04,127.89 C60.10,128.06 60.10,128.06 60.17,128.23 C60.27,128.37 60.27,128.37 60.37,128.50 C60.49,128.60 60.49,128.60 60.61,128.69 "/><path d="M61.26,125.99 C61.47,126.20 61.47,126.21 61.67,126.43 C61.84,126.71 61.84,126.71 61.99,127.00 C62.09,127.32 62.09,127.33 62.17,127.65 C62.19,127.98 62.19,127.98 62.20,128.31 C62.14,128.60 62.14,128.60 62.07,128.89 "/><path d="M62.32,128.82 C62.39,128.53 62.39,128.53 62.44,128.24 C62.44,127.91 62.44,127.91 62.42,127.58 C62.33,127.26 62.33,127.26 62.23,126.93 C62.08,126.65 62.08,126.64 61.92,126.36 C61.72,126.14 61.72,126.14 61.50,125.92 "/><path d="M61.11,128.44 C61.00,128.32 61.00,128.32 60.89,128.20 C60.80,128.05 60.80,128.05 60.72,127.89 C60.67,127.72 60.67,127.72 60.62,127.54 C60.61,127.37 60.61,127.37 60.61,127.19 C60.64,127.03 60.64,127.03 60.67,126.87 "/><path d="M60.88,127.06 C60.85,127.17 60.85,127.17 60.83,127.28 C60.83,127.41 60.83,127.41 60.84,127.54 C60.87,127.66 60.87,127.66 60.91,127.78 C60.92,127.81 60.92,127.81 60.93,127.83 "/><path d="M61.52,128.04 C61.51,127.86 61.51,127.86 61.50,127.68 C61.45,127.50 61.45,127.50 61.40,127.32 C61.32,127.16 61.32,127.16 61.23,127.01 "/><path d="M62.34,128.77 C62.41,128.50 62.41,128.50 62.46,128.23 C62.45,127.90 62.45,127.90 62.43,127.57 C62.35,127.25 62.35,127.25 62.25,126.93 C62.11,126.65 62.10,126.65 61.94,126.37 C61.75,126.16 61.75,126.15 61.55,125.95 "/><path d="M64.86,127.89 C64.94,127.77 64.94,127.77 65.01,127.64 C65.06,127.51 65.06,127.51 65.11,127.38 C65.12,127.27 65.12,127.27 65.14,127.16 C65.13,127.06 65.13,127.06 65.12,126.96 "/><path d="M64.97,126.61 C64.97,126.45 64.97,126.45 64.96,126.29 C64.92,126.17 64.92,126.17 64.89,126.05 C64.83,125.96 64.83,125.96 64.77,125.86 C64.70,125.78 64.70,125.77 64.62,125.69 C64.52,125.61 64.52,125.61 64.42,125.54 "/><path d="M59.56,126.30 L59.88,125.94 L60.29,125.77 L60.75,125.81 L61.20,126.06 L61.25,126.12 "/><path d="M61.99,128.87 L61.72,129.31 L61.35,129.58 L60.91,129.65 L60.45,129.50 "/><path d="M59.94,127.83 L59.95,127.92 "/><path d="M60.56,128.76 L60.83,128.85 L61.09,128.81 L61.30,128.65 L61.46,128.39 "/><path d="M61.00,126.74 L60.73,126.59 L60.46,126.57 L60.22,126.67 L60.03,126.88 "/><path d="M60.51,126.62 L60.52,126.62 L60.29,126.71 L60.12,126.92 "/><path d="M60.61,128.69 L60.87,128.77 L61.11,128.74 L61.10,128.74 "/><path d="M60.32,125.70 L60.79,125.74 L61.26,125.99 "/><path d="M62.07,128.89 L61.94,129.12 L61.80,129.35 L61.42,129.63 "/><path d="M60.75,126.64 L60.76,126.64 L60.52,126.62 "/><path d="M61.66,129.56 L62.05,129.28 L62.32,128.82 "/><path d="M61.50,125.92 L61.04,125.67 L60.56,125.63 "/><path d="M60.93,127.83 L61.03,128.01 L61.19,128.17 L61.37,128.27 L61.46,128.28 L61.45,128.35 L61.33,128.55 L61.11,128.44 "/><path d="M60.67,126.87 L60.80,126.66 L61.01,126.78 L61.06,126.83 L60.98,126.88 L60.88,127.06 "/><path d="M61.46,128.28 L61.52,128.04 "/><path d="M61.30,128.60 L61.31,128.59 L61.11,128.74 "/><path d="M61.31,128.59 L61.33,128.55 "/><path d="M61.06,126.83 L61.23,127.01 "/><path d="M60.80,126.66 L60.76,126.64 "/><path d="M65.12,126.96 L64.97,126.61 L64.23,126.81 "/></g><g style="stroke:#000000;stroke-width:0.529"><path d="M60.46,129.54 C60.24,129.38 60.23,129.38 60.02,129.20 C59.83,128.95 59.83,128.95 59.65,128.69 C59.52,128.38 59.52,128.38 59.40,128.07 C59.34,127.75 59.34,127.75 59.30,127.42 C59.31,127.11 59.31,127.10 59.35,126.79 C59.44,126.53 59.44,126.52 59.55,126.26 "/><path d="M64.42,125.51 C64.57,125.62 64.58,125.62 64.72,125.74 C64.85,125.90 64.85,125.90 64.96,126.07 C65.05,126.27 65.05,126.27 65.12,126.47 C65.16,126.68 65.16,126.68 65.19,126.90 C65.18,127.10 65.18,127.10 65.16,127.30 C65.10,127.47 65.10,127.47 65.03,127.64 C64.89,127.87 64.89,127.87 64.75,128.09 "/><path d="M62.34,128.77 L62.33,128.81 L62.06,129.27 L61.68,129.55 L61.42,129.63 L60.95,129.70 L60.46,129.54 "/><path d="M59.55,126.26 L59.88,125.88 L60.32,125.70 L60.58,125.63 L61.05,125.67 L61.53,125.93 L61.55,125.95 "/><path d="M64.75,128.09 L64.01,128.30 "/></g></g><g id="Actor_.3"><g style="stroke:#000000;stroke-width:0.176"><path d="M51.19,121.67 L51.24,116.47 L51.19,124.57 "/><path d="M51.22,118.41 L51.22,118.70 L51.23,118.21 "/><path d="M51.22,118.70 L51.22,118.38 "/><path d="M51.25,118.46 L51.22,118.46 "/><path d="M51.23,117.94 L51.23,118.14 "/><path d="M51.23,118.33 L51.23,118.29 "/><path d="M51.23,117.71 L51.24,116.93 L51.23,117.36 "/><path d="M51.23,115.78 L51.24,116.41 L51.28,115.27 L51.25,115.75 "/><path d="M51.25,116.50 L51.23,117.27 "/><path d="M51.28,115.27 L51.29,114.13 L51.28,115.27 "/><path d="M51.27,116.35 L51.25,115.79 "/><path d="M51.24,116.38 L51.25,116.14 "/><path d="M51.26,115.31 L51.23,115.68 L51.26,115.00 "/><path d="M51.27,114.32 L51.38,105.00 L51.38,105.46 "/><path d="M51.24,114.23 L51.24,114.91 L51.24,114.13 "/><path d="M51.28,113.19 L51.24,112.97 "/><path d="M51.25,113.41 L51.27,114.02 "/><path d="M51.27,113.67 L51.28,113.41 "/><path d="M51.25,113.67 L51.24,113.63 "/><path d="M51.29,111.89 L51.28,112.99 L51.29,111.38 "/><path d="M51.25,112.99 L51.28,108.13 "/><path d="M51.38,105.00 L51.41,102.72 L51.40,103.86 "/><path d="M51.39,101.84 L51.40,100.90 L51.42,101.63 "/><path d="M51.42,101.79 L51.41,102.72 L51.42,101.92 "/><path d="M51.40,100.71 L51.43,100.43 L51.40,100.71 "/><path d="M51.42,101.58 L51.40,100.90 "/><path d="M51.25,89.03 L51.26,88.44 L51.29,89.03 "/><path d="M51.29,88.45 L51.29,87.88 L51.26,88.44 "/><path d="M51.25,88.92 L51.26,87.88 L51.25,88.92 "/><path d="M51.25,88.87 L51.31,85.64 "/><path d="M51.29,87.46 L51.29,87.21 L51.29,87.88 "/><path d="M51.32,87.04 L51.29,87.04 "/><path d="M51.28,85.64 L51.28,85.56 "/><path d="M51.28,85.40 L51.29,85.12 L51.28,85.40 "/><path d="M51.29,85.12 L51.29,84.55 L51.29,84.79 "/><path d="M51.30,83.68 L51.29,84.46 L51.30,83.56 "/><path d="M51.28,84.24 L51.31,82.18 L51.30,82.93 "/><path d="M51.26,81.96 L51.31,81.50 L51.28,82.93 "/><path d="M51.30,82.50 L51.30,82.74 L51.29,82.42 "/><path d="M51.30,82.74 L51.30,82.89 "/><path d="M51.30,81.79 L51.29,82.09 "/><path d="M51.31,81.50 L51.30,81.75 L51.30,81.13 "/><path d="M51.30,81.41 L51.31,81.03 "/><path d="M51.30,81.75 L51.29,81.93 "/><path d="M51.27,80.88 L51.27,80.91 "/><path d="M51.32,80.29 L51.31,80.98 "/><path d="M51.31,80.85 L51.33,77.61 L51.32,78.75 "/><path d="M51.30,80.53 L51.30,80.72 "/><path d="M51.33,77.19 L51.36,77.22 "/><path d="M51.34,76.66 L51.39,74.21 "/><path d="M51.33,77.31 L51.33,77.61 L51.33,77.31 "/><path d="M51.35,75.91 L51.34,75.88 "/><path d="M51.34,76.06 L51.34,76.20 "/><path d="M51.34,76.26 L51.34,76.42 "/><path d="M51.35,75.33 L51.36,74.21 L51.35,75.33 "/><path d="M51.36,74.21 L51.36,73.92 L51.36,74.18 "/><path d="M51.37,73.19 L51.37,73.25 "/><path d="M51.37,73.02 L51.39,70.90 L51.39,71.90 L51.41,71.20 "/><path d="M51.38,72.89 L51.37,72.86 "/><path d="M51.40,70.85 L51.40,70.76 "/><path d="M51.40,69.85 L51.40,70.17 "/><path d="M51.40,70.23 L51.40,69.99 "/><path d="M52.99,85.49 L52.26,85.70 L51.86,125.38 "/><path d="M51.43,100.43 L51.45,98.17 L51.42,98.83 "/><path d="M51.42,101.42 L51.42,100.96 "/><path d="M51.42,100.52 L51.40,100.57 "/><path d="M51.44,99.29 L51.45,98.91 "/><path d="M51.45,98.17 L51.43,98.56 L51.43,97.88 L51.45,98.17 "/><path d="M51.43,98.15 L51.43,97.56 "/><path d="M51.45,97.95 L51.43,98.11 "/><path d="M51.45,97.51 L51.46,97.01 L51.43,97.88 "/><path d="M51.48,95.89 L51.46,97.01 L51.44,96.32 "/><path d="M51.46,94.43 L51.47,93.87 L51.45,95.87 L51.46,94.87 "/><path d="M51.48,95.87 L51.45,95.81 "/><path d="M51.46,94.55 L51.50,93.59 L51.47,94.49 "/><path d="M51.46,95.40 L51.46,95.77 "/><path d="M51.50,93.59 L51.54,87.28 L51.47,93.90 "/><path d="M51.47,93.87 L51.48,93.59 "/><path d="M51.56,87.88 L51.57,86.74 L51.54,87.28 "/><path d="M51.54,86.95 L51.55,85.79 "/><path d="M59.72,89.10 L58.99,89.31 L57.20,87.36 L52.00,85.60 L51.53,84.76 "/><path d="M51.55,86.26 L51.55,86.29 "/><path d="M51.54,86.44 L51.54,86.74 "/><path d="M51.54,86.36 L51.57,86.35 "/><path d="M52.63,85.23 L51.58,85.22 L51.58,84.46 L51.56,85.46 L51.56,84.76 "/><path d="M51.53,84.63 L51.48,65.05 L51.41,69.80 "/><path d="M51.58,85.46 L51.56,84.63 "/><path d="M51.58,84.46 L51.58,83.33 L51.58,84.46 "/><path d="M51.58,83.30 L52.62,83.26 "/><path d="M51.58,83.25 L52.56,83.25 "/><path d="M51.48,63.91 L51.48,65.05 L51.47,60.86 L52.39,60.87 L52.55,80.22 "/><path d="M51.43,67.34 L51.44,66.22 "/><path d="M52.68,80.16 L52.88,60.62 L52.14,60.40 "/><path d="M52.51,60.87 L57.12,59.42 L56.59,59.14 "/><path d="M55.02,143.71 L54.16,144.10 L54.14,145.31 L54.83,146.16 L55.64,146.01 "/><path d="M56.81,131.44 L55.97,131.79 L55.94,133.03 L56.67,133.91 L57.45,133.71 "/><path d="M56.31,72.75 L57.09,73.04 L57.08,73.99 L56.48,74.68 L55.81,74.42 "/><path d="M56.40,64.05 L57.18,64.34 L57.17,65.30 L56.57,65.99 L55.90,65.73 "/><path d="M57.01,138.16 L56.15,138.55 L56.13,139.76 L56.87,140.64 L57.65,140.44 "/><path d="M56.17,86.87 L56.90,86.66 "/><path d="M57.33,59.36 L64.40,61.13 "/><path d="M58.99,89.31 L60.79,92.06 L62.79,93.38 L133.36,114.51 L135.41,114.35 "/><path d="M59.70,149.34 L60.35,148.58 L64.59,119.57 L65.32,119.36 "/><path d="M60.35,148.58 L61.08,148.38 "/><path d="M59.97,90.95 L60.70,90.74 "/><path d="M61.43,105.99 L60.84,105.90 L60.68,106.46 L61.13,107.16 L61.66,106.80 "/><path d="M61.69,103.78 L61.32,104.18 L60.71,103.45 L61.01,102.80 L61.46,102.98 "/><path d="M61.49,99.96 L60.90,99.87 L60.79,100.66 L61.36,101.17 L61.72,100.77 "/><path d="M62.83,93.39 L63.52,93.18 "/><path d="M62.88,71.28 L63.55,71.54 L64.15,70.85 L64.16,69.89 L63.38,69.61 "/><path d="M63.45,63.22 L64.23,63.50 L64.22,64.46 L63.62,65.15 L62.94,64.89 "/><path d="M64.59,119.57 L65.58,117.17 L67.51,116.15 "/><path d="M133.36,114.51 L134.10,114.30 "/><path d="M134.95,128.00 L134.37,127.91 L134.25,128.70 L134.65,129.17 L135.18,128.80 "/><path d="M134.98,124.98 L134.40,124.89 L134.25,125.54 L134.68,126.16 L135.21,125.79 "/><path d="M135.01,121.97 L134.43,121.88 L134.26,122.44 L134.71,123.14 L135.24,122.78 "/><path d="M138.27,162.49 L137.41,162.88 L137.40,164.08 L138.14,164.96 L138.91,164.77 "/><path d="M138.60,155.92 L137.74,156.31 L137.73,157.51 L138.47,158.40 L139.25,158.20 "/><path d="M140.70,173.51 L141.61,173.03 L142.30,171.44 L141.31,160.92 L143.55,152.93 L143.98,113.15 L140.07,111.98 L138.06,112.11 "/><path d="M140.78,171.47 L140.31,171.73 L139.71,171.48 L139.17,170.36 L139.47,169.31 L140.14,169.19 "/><path d="M138.76,111.93 L138.79,111.90 "/><path d="M140.07,111.98 L140.81,111.78 "/><path d="M141.44,173.30 L141.37,173.29 "/><path d="M142.07,162.08 L141.33,162.28 "/><path d="M141.54,159.54 L142.28,159.34 "/><path d="M142.30,170.56 L143.03,170.36 "/><path d="M143.58,152.84 L144.26,152.81 "/><path d="M144.71,112.95 L143.98,113.15 L145.61,113.36 L145.21,152.72 "/><path d="M153.47,114.64 L153.23,113.93 L152.61,113.48 L145.61,113.36 L145.60,113.06 "/><path d="M153.28,131.35 L152.77,132.16 L151.98,131.82 L151.92,131.35 "/><path d="M152.18,147.79 L152.50,148.67 L153.07,148.92 L154.05,148.56 L154.25,147.78 "/><path d="M153.31,128.33 L152.80,129.15 L152.01,128.81 L151.95,128.34 "/><path d="M151.98,125.33 L152.60,126.15 L153.04,126.05 L153.34,125.32 "/><path d="M152.22,113.42 L152.22,113.12 "/><path d="M154.57,116.87 L154.57,117.17 L153.90,116.89 L153.45,115.68 "/><path d="M154.57,117.17 L162.60,118.01 L163.16,118.04 L163.16,117.74 "/><path d="M160.49,146.94 L160.28,147.72 L159.36,148.10 L158.53,147.56 L158.42,146.96 "/><path d="M162.60,118.01 L162.59,117.71 "/><path d="M163.16,118.04 L244.95,118.78 L244.75,138.82 "/><path d="M227.85,137.61 L228.17,138.48 L228.79,138.75 L229.72,138.37 L229.92,137.59 "/><path d="M236.16,136.75 L235.95,137.53 L235.03,137.91 L234.40,137.64 L234.09,136.77 "/><path d="M238.29,132.12 L237.78,132.93 L236.99,132.59 L236.93,132.12 "/><path d="M236.96,129.10 L237.58,129.93 L238.02,129.83 L238.32,129.10 "/><path d="M236.99,126.09 L237.15,126.68 L237.84,126.90 L238.35,126.09 "/><path d="M244.95,118.47 L244.95,118.78 L246.57,118.60 L246.38,138.14 "/><path d="M249.53,117.34 L250.17,117.52 L246.74,118.55 L245.84,118.38 "/><path d="M249.51,132.40 L250.30,132.60 L250.83,131.80 L250.72,130.89 L250.01,130.73 "/><path d="M250.10,122.03 L250.81,122.19 L250.92,123.11 L250.39,123.90 L249.60,123.71 "/><path d="M250.27,117.55 L251.72,117.52 L250.99,117.30 "/><path d="M251.72,117.52 L258.10,119.11 "/><path d="M257.08,127.58 L257.79,127.75 L257.90,128.66 L257.37,129.46 L256.58,129.26 "/><path d="M257.15,121.19 L257.86,121.36 L257.97,122.27 L257.44,123.07 L256.65,122.87 "/></g><g style="stroke:#000000;stroke-width:0.529"><path d="M64.86,72.52 C65.34,71.26 65.35,71.23 65.73,69.93 C65.81,66.93 65.76,66.92 65.79,63.91 C65.75,63.34 65.75,63.34 65.71,62.77 "/><path d="M129.26,135.26 C129.70,135.85 129.71,135.86 130.11,136.48 C130.58,137.85 130.61,137.85 131.00,139.24 C132.93,155.21 132.93,155.22 134.76,171.20 "/><path d="M163.23,146.49 C164.28,143.82 164.29,143.82 165.38,141.17 C165.78,140.45 165.78,140.44 166.23,139.74 C166.83,139.17 166.84,139.17 167.48,138.63 C168.24,138.26 168.25,138.25 169.02,137.92 C169.86,137.79 169.87,137.78 170.72,137.69 C195.98,137.90 195.98,137.89 221.23,138.15 C222.18,138.28 222.18,138.28 223.12,138.47 "/><path d="M227.32,141.65 C235.31,140.66 235.34,140.65 243.31,139.51 C244.72,138.95 244.70,138.84 246.11,138.23 C248.08,137.64 248.10,137.69 250.07,137.10 C250.81,136.73 250.82,136.73 251.53,136.31 C254.69,133.80 254.69,133.80 257.81,131.25 "/><path d="M258.16,119.14 C254.59,118.19 254.58,118.18 250.99,117.30 C250.27,117.28 250.26,117.29 249.53,117.34 C247.24,117.88 247.24,118.02 244.95,118.47 C203.79,118.20 203.77,118.17 162.59,117.71 C158.40,117.32 158.39,117.32 154.22,116.78 "/><path d="M52.55,80.22 L57.12,78.91 L64.86,72.52 "/><path d="M65.71,62.77 L64.97,61.42 L56.59,59.14 L51.54,60.69 L51.19,124.40 L51.86,125.38 L53.96,134.67 L52.75,144.64 L53.69,147.05 L54.83,147.91 L59.40,149.30 L61.00,148.67 L65.32,119.36 L66.25,117.07 L67.51,116.15 L127.14,133.80 L129.26,135.26 "/><path d="M134.76,171.20 L135.55,172.09 L140.06,173.44 L142.03,173.11 L143.04,171.24 L142.04,160.65 L144.22,152.93 L162.68,150.17 L163.12,149.27 L163.23,146.49 "/><path d="M223.12,138.47 L224.77,139.38 L226.40,141.35 L227.32,141.65 "/><path d="M257.81,131.25 L259.27,128.97 L259.49,121.52 L259.12,119.93 L258.16,119.14 "/><path d="M154.22,116.78 L153.50,116.01 L153.41,113.96 L152.61,113.18 L145.28,113.05 L139.77,111.65 L138.22,112.06 L135.41,114.35 L134.10,114.30 L63.52,93.18 L61.68,91.99 L59.02,88.15 L57.94,87.16 L52.67,85.33 L52.55,80.22 "/><path d="M54.77,144.46 L55.06,145.49 L55.62,145.98 L55.91,145.23 L55.72,144.40 L54.95,143.80 L54.77,144.46 "/><path d="M55.72,74.22 L56.34,73.77 L56.35,72.81 L55.85,73.24 L55.72,74.22 "/><path d="M55.77,65.21 L56.07,65.62 L56.28,65.38 L56.44,64.11 L55.77,65.21 "/><path d="M57.12,140.01 L56.76,138.92 L57.12,138.21 L57.90,139.68 L57.69,140.40 L57.12,140.01 "/><path d="M56.57,132.40 L57.41,133.71 L57.66,132.53 L57.01,131.52 L56.68,131.62 L56.57,132.40 "/><path d="M61.41,106.26 L61.57,106.69 L61.41,106.26 "/><path d="M61.46,102.98 L61.60,103.68 L61.46,102.98 "/><path d="M61.68,100.73 L61.47,100.12 L61.68,100.73 "/><path d="M62.79,71.08 L63.33,69.63 L63.42,70.63 L62.79,71.08 "/><path d="M62.82,64.37 L63.39,63.24 L63.33,64.54 L63.12,64.78 L62.82,64.37 "/><path d="M135.09,128.70 L134.98,128.02 L135.09,128.70 "/><path d="M135.12,125.68 L135.01,125.01 L135.12,125.68 "/><path d="M135.15,122.67 L135.12,122.12 L135.15,122.67 "/><path d="M138.02,163.24 L138.32,164.26 L138.87,164.76 L138.98,163.21 L138.22,162.57 L138.02,163.24 "/><path d="M139.25,158.20 L138.37,156.88 L138.47,156.10 L138.80,156.00 L139.45,157.01 L139.25,158.20 "/><path d="M140.50,171.31 L139.90,170.16 L140.21,169.22 L140.98,170.28 L140.83,171.43 L140.50,171.31 "/><path d="M151.92,131.35 L152.32,130.88 L153.25,131.25 L152.77,131.86 L151.92,131.35 "/><path d="M152.79,148.55 L152.18,147.79 L152.48,147.23 L153.07,146.94 L153.96,147.23 L154.08,148.20 L152.79,148.55 "/><path d="M152.01,128.16 L152.34,128.81 L153.30,128.42 L152.81,127.84 L152.01,128.16 "/><path d="M152.60,125.85 L153.34,125.32 L152.84,124.82 L151.98,125.33 L152.60,125.85 "/><path d="M158.53,147.26 L158.54,146.60 L159.05,146.16 L160.04,146.25 L160.46,146.77 L160.28,147.42 L159.71,147.77 L158.53,147.26 "/><path d="M228.46,138.36 L227.96,137.91 L227.97,137.25 L228.81,136.74 L229.48,136.90 L229.89,137.43 L229.75,138.01 L228.46,138.36 "/><path d="M234.15,136.96 L234.42,136.15 L235.05,135.90 L236.13,136.59 L235.95,137.23 L235.37,137.58 L234.69,137.52 L234.15,136.96 "/><path d="M237.07,132.39 L237.99,132.54 L238.17,131.86 L237.33,131.65 L237.07,132.39 "/><path d="M237.01,128.97 L237.35,129.57 L238.32,129.10 L237.82,128.60 L237.01,128.97 "/><path d="M237.39,125.62 L237.05,126.26 L237.38,126.56 L238.23,126.36 L238.24,125.83 L237.39,125.62 "/><path d="M249.51,132.40 L250.09,131.58 L249.84,130.83 L249.39,131.71 L249.51,132.40 "/><path d="M249.48,123.35 L249.55,123.64 L250.03,123.26 L250.19,122.23 L249.72,122.38 L249.48,123.35 "/><path d="M256.91,128.97 L256.64,129.24 L256.47,128.57 L256.91,127.69 L257.21,128.10 L256.91,128.97 "/><path d="M256.65,122.87 L256.53,122.18 L256.97,121.30 L257.23,122.05 L256.65,122.87 "/></g></g><g id="paperID" visibility="hidden" opacity="0.00" transform="scale(0.000100)"><path style="stroke:#000000;stroke-width:0.500;fill:#e6e6e6;fill-rule:evenodd" d="M-2000.00,-2000.00L2297.00,-2000.00L2297.00,2210.00L-2000.00,2210.00zM0.00,0.00L297.00,0.00L297.00,210.00L0.00,210.00z"/><path style="fill:#000000;fill-opacity:0.118" d="M3.00,210.00L297.00,210.00L297.00,3.00L300.00,3.00L300.00,213.00L3.00,213.00z"/></g><g id="ToolTip" visibility="hidden" opacity="0" transform="translate(0,0)"><rect id="ToolTipShadow" opacity="0.20" fill="black" stroke="none" x="0" y="0" width="30" height="8"/><rect id="ToolTipBG" fill="#ffffe1" stroke="black" x="0" y="0" width="30" height="8"/><text xml:space="preserve" id="ToolTipText" fill="black" x="0" y="0" width="30" height="8">tooltip</text></g></g></svg>
