<?xml version="1.0" encoding="UTF-8" standalone="no"?>
<svg xmlns="http://www.w3.org/2000/svg" xmlns:xlink="http://www.w3.org/1999/xlink" width="297.000mm" height="210.000mm" viewBox="0.000000 0.000000 297.000000 210.000000" stroke-linejoin="round" stroke-linecap="round" fill="none" fill-rule="evenodd"><desc>Composer Export</desc><script type="text/ecmascript"><![CDATA[
if(typeof(top) != "undefined")
{
	top.ShowPaper = ShowPaper;
}
function ShowHotSpot(evt,hotspotid)
{
	var svgDocument = evt.target.ownerDocument;
	var strId = "hotspot."+hotspotid;
	var hotspot = svgDocument.getElementById(strId);
	if(hotspot)
		hotspot.setAttribute("opacity",".5");
}
function HideHotSpot(evt,hotspotid)
{
	var svgDocument = evt.target.ownerDocument;
	var strId = "hotspot."+hotspotid;
	var hotspot = svgDocument.getElementById(strId);
	if(hotspot)
		hotspot.setAttribute("opacity","0");

	var toolTip = svgDocument.getElementById('ToolTip');
	if(toolTip)
		toolTip.setAttribute("visibility","hidden");
}
function ShowToolTip(evt,hotspotid,strTooltip)
{
	if(strTooltip=="")
	return;

	// change text
	var svgDocument = evt.target.ownerDocument;
	var tiptext = svgDocument.getElementById('ToolTipText');
	if( !tiptext )
	return;
	tiptext.firstChild.nodeValue = " " + strTooltip + "  " ;

	// show tooltip before, else some refresh issue

	var toolTip = svgDocument.getElementById('ToolTip');
	if(!toolTip)
	return;

	toolTip.setAttribute("visibility","visible");
	toolTip.setAttribute("opacity",".95");

	// move tooltip
	// get viewbox

	var root = svgDocument.documentElement;
	var vbox = (root.getAttribute("viewBox")).split(' ');
	var x0 = parseFloat(vbox[0]);
	var y0 = parseFloat(vbox[1]);
	var vboxW = parseFloat(vbox[2]);
	var vboxH = parseFloat(vbox[3]);

	// get default width of svg

	var strW = root.getAttribute("width");
	var svgW = parseFloat(strW);
	if(strW.indexOf('mm') != -1)
	svgW *= 3.779;

	var strH = root.getAttribute("height");
	var svgH = parseFloat(strH);
	if(strH.indexOf('mm') != -1)
	svgH *= 3.779;  	// 96 dpi  -> 96/25.4 = 3.779

	// update the viewbox / width / height if svg is embedded in html with zoom fit all
	var realx0 = x0;
	var realy0 = y0;
	var realvboxW = vboxW;
	var realvboxH = vboxH;
	var realsvgW = svgW;
	var realsvgH = svgH;

	if ((typeof(top) == "undefined") || (typeof(top.svgctl1) != "undefined")) // embedded in html
	{
		// get window size in pxl

		svgW = window.innerWidth;
		svgH = window.innerHeight;

		// calculate real viewbox

		realsvgW = svgW;
		realsvgH = svgH;
		if((svgW / svgH) > (vboxW / vboxH))
		{
			realvboxW = (vboxH * svgW) / svgH;
			realvboxH = vboxH;
			realx0 = x0 - (realvboxW - vboxW)/2 ;
		}
		else
		{
			realvboxH = (vboxW * svgH) / svgW;
			realvboxW = vboxW;
			realy0 = y0 - (realvboxH - vboxH)/2 ;
		}
	}

	// get user zoom/pan

	var newScale = root.currentScale;
	var translation = root.currentTranslate;

	// transform pxl to user unit

	var xPos = (((evt.clientX+10- translation.x)/newScale) * realvboxW)/realsvgW  + realx0 ;
	var yPos = (((evt.clientY+5- translation.y)/newScale) * realvboxH)/ realsvgH  + realy0 ;
	var scaleForWidth = ( (1 / newScale) * realvboxH) / realsvgH;

	// move tooltip

	toolTip.setAttribute("transform", "translate(" + xPos + "," + yPos + ")" );

	// resize tooltip

	var fontsize = 12;
	tiptext.setAttribute("font-size",fontsize*scaleForWidth);
	tiptext.setAttribute("y", fontsize*scaleForWidth);
	var tipBG = svgDocument.getElementById('ToolTipBG');
	var outline = tiptext.getBBox();
	if(tipBG)
	{
		tipBG.setAttribute("stroke-width", 1*scaleForWidth);
		tipBG.setAttribute("width", Number(outline.width) );
		tipBG.setAttribute("height", Number(outline.height) + fontsize*.5*scaleForWidth );
	}
	var ToolTipShadow = svgDocument.getElementById('ToolTipShadow');
	if(ToolTipShadow)
	{
		ToolTipShadow.setAttribute("width", Number(outline.width) );
		ToolTipShadow.setAttribute("height", Number(outline.height) + fontsize*.5*scaleForWidth );
		ToolTipShadow.setAttribute("x", 3*scaleForWidth);
		ToolTipShadow.setAttribute("y", 3*scaleForWidth);
	}
}
function ShowPaper()
{
  var svgDocument = getDocument();
  var paper = svgDocument.getElementById("paperID");
  if(paper)
  {
    paper.setAttribute("transform","scale(1)");
    paper.setAttribute("opacity","1");
    paper.setAttribute("visibility","visible");
  }
  var svg = svgDocument.getRootElement();
  if(svg)
  {
    svg.setAttribute("width","307.000mm");
    svg.setAttribute("height","220.000mm");
    svg.setAttribute("viewBox","-5.000000 -5.000000 307.000000 220.000000");
  }
}
]]></script><defs/><g><path style="fill:#ffffff" d="M296.92,210.05L0.08,210.05L0.08,0.08L296.92,0.08z"/><path style="fill:#00fdff" d="M148.01,78.40L148.59,79.24L148.40,79.77L147.64,80.07L145.85,80.45L145.40,80.62L146.08,80.81L145.89,83.78L145.31,83.92L144.42,83.64L143.87,83.09L143.73,81.63L143.91,80.50L143.88,80.04L143.61,79.77L143.59,78.51L144.30,77.84L146.90,77.84z"/><path style="fill:#00fdff" d="M110.49,89.72L111.48,90.44L111.37,91.31L110.94,91.63L108.86,92.08L108.18,92.21L108.90,92.31L109.11,92.47L108.93,95.35L108.35,95.50L107.46,95.22L106.91,94.67L106.78,93.49L106.95,92.36L106.93,91.65L106.68,91.28L106.67,90.17L107.35,89.43L109.95,89.43z"/><path style="fill:#00fdff" d="M139.75,110.93L139.79,111.41L138.82,112.08L137.01,112.46L136.84,112.58L137.29,112.86L137.06,115.77L135.59,115.64L135.07,115.00L135.05,111.79L134.80,111.39L134.79,110.59L135.48,109.83L138.36,109.83z"/><path style="fill:#00e3e5" d="M145.85,80.45L147.64,80.07L148.40,79.77L148.30,80.15L147.82,80.58L147.52,80.58L146.78,80.60L147.45,80.80L147.61,81.63L147.46,83.21L147.22,83.52L146.17,83.92L145.89,83.78L146.08,80.81z"/><path style="fill:#00e3e5" d="M108.90,92.31L108.86,92.08L110.94,91.63L111.37,91.31L111.46,91.55L110.79,92.64L110.50,94.79L109.50,95.50L108.93,95.35L109.11,92.47z"/><path style="fill:#00e3e5" d="M173.98,100.87L176.13,100.30L176.51,100.12L176.41,100.58L175.88,101.20L175.60,103.62L174.95,104.08L172.62,104.02L173.92,103.87L174.28,101.28L174.77,101.02z"/><path style="fill:#00e3e5" d="M137.01,112.46L138.82,112.08L139.79,111.41L139.48,112.18L138.92,113.05L138.63,115.19L138.25,115.64L137.06,115.77L137.29,112.86L138.37,112.61z"/><path style="fill:#00fdff" d="M175.85,98.54L176.55,99.28L176.51,100.12L176.13,100.30L173.98,100.87L173.79,100.99L174.28,101.28L173.92,103.87L172.62,104.02L171.99,103.50L171.86,102.04L172.03,100.91L171.74,99.84L171.72,98.98L172.23,98.32L173.90,97.98z"/><path style="fill:#6c737e" d="M182.85,118.64L178.04,120.13L174.65,120.88L174.34,121.42L176.59,121.44L182.49,119.73L182.78,120.03L181.20,132.15L180.84,131.83L180.55,131.33L180.09,131.30L178.64,130.25L178.36,129.89L178.07,129.40L177.61,129.37L176.15,128.31L175.88,127.96L175.59,127.47L175.13,127.44L173.67,126.38L173.40,126.03L173.11,125.54L172.65,125.51L171.19,124.45L170.91,124.10L170.63,123.61L170.16,123.58L168.71,122.52L168.43,122.17L168.15,121.67L167.68,121.65L167.05,121.07L166.77,120.58L166.31,120.55L165.94,120.24L165.66,119.74L165.20,119.72L164.57,119.14L164.28,118.65L163.83,118.62L163.46,118.31L163.18,117.82L162.72,117.79L161.54,116.65L161.51,115.63L161.39,115.53L160.71,114.23L156.54,109.57L134.76,93.85L134.62,92.94L134.81,92.12L135.24,91.39L141.29,89.44L142.50,89.42z"/><path style="fill:#6c737e" d="M105.62,101.70L106.63,102.12L143.03,128.33L144.29,129.60L144.18,130.46L143.58,130.89L137.99,132.75L136.70,133.39L135.84,135.02L134.50,146.08L133.82,147.06L131.45,147.99L128.03,148.44L127.93,149.19L126.75,149.02L124.30,147.33L109.93,136.06L109.36,135.52L109.39,133.38L111.02,132.53L114.13,131.51L114.37,131.19L114.36,129.96L113.27,128.30L96.42,109.57L95.59,108.49L95.35,107.83L95.32,107.10L95.19,107.00L95.30,104.95L96.61,103.50L102.68,101.58z"/><path style="fill:#616871" d="M183.46,119.38L183.45,120.80L182.88,125.75L182.62,127.41L182.22,130.71L182.09,130.83L182.22,131.56L182.38,131.77L185.97,130.82L186.93,130.19L187.04,130.45L186.64,131.22L184.94,131.99L181.90,132.77L181.20,132.15L182.78,120.03L182.49,119.73L176.59,121.44L174.34,121.42L174.65,120.88L178.04,120.13L182.85,118.64L183.05,118.68z"/><path style="fill:#616871" d="M144.30,130.72L144.04,131.36L142.40,132.19L137.25,133.94L136.67,135.02L136.29,137.34L135.46,143.96L135.19,145.88L134.76,147.17L133.55,148.16L129.62,149.26L127.93,149.19L128.03,148.44L131.45,147.99L133.82,147.06L134.50,146.08L135.84,135.02L136.70,133.39L137.99,132.75L143.58,130.89L144.18,130.46z"/><path style="fill:#ffffff" d="M136.51,127.46L136.29,127.92L135.95,128.03L135.14,128.00L133.74,127.48L134.30,127.20L135.10,127.10z"/><path style="fill:#000020" d="M146.08,80.81L145.40,80.62L145.85,80.45z"/><path style="fill:#000020" d="M147.61,81.63L147.45,80.80L147.52,80.58L147.82,80.58z"/><path style="fill:#000020" d="M145.31,83.92L145.89,83.78L146.17,83.92z"/><path style="fill:#000020" d="M106.68,91.28L106.53,90.26L106.67,90.17z"/><path style="fill:#000020" d="M111.70,90.74L111.46,91.55L111.37,91.31L111.48,90.44z"/><path style="fill:#000020" d="M108.90,92.31L108.18,92.21L108.86,92.08z"/><path style="fill:#000020" d="M137.91,92.84L137.32,93.16L136.98,92.93L137.84,92.61z"/><path style="fill:#000020" d="M145.52,95.76L145.16,95.86L145.26,95.50z"/><path style="fill:#000020" d="M142.58,95.64L142.36,95.57L142.29,95.16L143.12,95.19z"/><path style="fill:#000020" d="M108.35,95.50L108.93,95.35L109.50,95.50z"/><path style="fill:#000020" d="M144.71,96.16L143.69,96.02L144.24,95.91z"/><path style="fill:#000020" d="M150.51,99.33L149.55,99.38L150.28,99.10z"/><path style="fill:#000020" d="M176.51,100.12L176.55,99.28L176.70,99.38z"/><path style="fill:#000020" d="M104.54,103.32L103.95,103.64L103.61,103.41L104.47,103.09z"/><path style="fill:#000020" d="M95.35,107.83L95.19,107.00L95.32,107.10z"/><path style="fill:#000020" d="M110.56,110.91L111.72,110.79L111.81,111.24L111.02,111.27z"/><path style="fill:#000020" d="M134.80,111.39L134.65,110.69L134.79,110.59z"/><path style="fill:#000020" d="M168.17,112.03L166.79,112.04L167.43,111.61z"/><path style="fill:#000020" d="M161.54,116.65L161.39,115.53L161.51,115.63z"/><path style="fill:#000020" d="M175.33,119.74L174.37,119.78L175.10,119.50z"/><path style="fill:#000020" d="M183.45,120.80L183.46,119.38L183.57,119.49z"/><path style="fill:#000020" d="M129.36,123.73L128.77,124.05L128.43,123.81L129.29,123.49z"/><path style="fill:#000020" d="M134.30,127.20L133.74,127.48L133.48,126.88z"/><path style="fill:#000020" d="M136.80,127.68L136.29,127.92L136.51,127.46z"/><path style="fill:#000020" d="M135.83,128.16L135.14,128.00L135.95,128.03z"/><path style="fill:#000020" d="M187.04,130.45L186.93,130.19L187.05,129.31L187.16,129.42z"/><path style="fill:#000020" d="M141.95,130.33L141.17,130.24L141.47,129.91L141.99,130.00z"/><path style="fill:#000020" d="M144.30,130.72L144.18,130.46L144.29,129.60L144.42,129.70z"/><path style="fill:#000020" d="M182.22,131.56L182.09,130.83L182.22,130.71z"/><path style="fill:#000020" d="M128.18,146.31L127.11,146.23L127.98,145.96L128.20,146.03z"/><path style="fill:#000020" d="M128.05,149.36L127.93,149.19L129.62,149.26z"/><path style="fill:#00e3e5" d="M144.58,78.94L145.13,78.39L146.04,78.37L145.69,79.53L145.24,79.55z"/><path style="fill:#00e3e5" d="M108.07,91.05L107.89,90.29L108.47,89.95L109.12,89.98L109.15,90.63L108.73,91.11z"/><path style="fill:#00e3e5" d="M174.02,99.78L173.43,99.92L172.96,99.72L173.07,98.90L174.21,98.81z"/><path style="fill:#00e3e5" d="M136.19,111.44L135.99,110.67L136.29,110.36L137.25,110.39L137.14,111.53L136.39,111.55z"/><path style="fill:#00001c" d="M147.45,80.80L146.78,80.60L147.52,80.58z"/><path style="fill:#00001c" d="M173.43,99.92L174.02,99.78L174.18,99.92z"/><path style="fill:#00001c" d="M174.28,101.28L173.79,100.99L173.98,100.87L174.77,101.02z"/><path style="fill:#00001c" d="M137.29,112.86L136.84,112.58L137.01,112.46L138.37,112.61z"/><path style="fill:#6c737e" d="M186.65,128.55L187.05,129.31L186.93,130.19L185.97,130.82L182.38,131.77L182.22,131.56L182.22,130.71L182.62,127.41L182.88,125.75z"/><path style="fill:#616871" d="M136.57,92.44L136.83,92.17L137.82,92.19L137.84,92.61L136.98,92.93z"/><path style="fill:#616871" d="M142.12,94.66L143.59,94.38L143.65,95.12L143.12,95.19L142.29,95.16z"/><path style="fill:#616871" d="M148.80,98.35L149.67,98.26L149.66,98.89L149.30,99.15L148.80,99.10z"/><path style="fill:#616871" d="M103.20,102.92L103.46,102.65L104.45,102.67L104.47,103.09L103.61,103.41z"/><path style="fill:#616871" d="M106.71,106.66L105.63,107.22L105.42,107.16L105.43,106.28L106.64,105.97z"/><path style="fill:#616871" d="M111.72,110.79L110.56,110.91L110.45,110.52L111.25,110.07L111.59,110.11z"/><path style="fill:#616871" d="M167.43,111.61L166.79,112.04L166.35,111.86L166.46,111.03L167.29,110.94z"/><path style="fill:#616871" d="M172.02,115.36L170.50,115.73L170.49,115.11L171.07,114.77L171.70,114.80z"/><path style="fill:#616871" d="M163.46,118.31L162.88,118.12L162.72,117.79L163.18,117.82z"/><path style="fill:#616871" d="M164.57,119.14L163.98,118.95L163.83,118.62L164.28,118.65z"/><path style="fill:#616871" d="M173.61,118.76L174.49,118.67L174.48,119.30L174.12,119.56L173.62,119.51z"/><path style="fill:#616871" d="M165.94,120.24L165.36,120.04L165.20,119.72L165.66,119.74z"/><path style="fill:#616871" d="M167.05,121.07L166.47,120.88L166.31,120.55L166.77,120.58z"/><path style="fill:#616871" d="M168.43,122.17L167.85,121.97L167.68,121.65L168.15,121.67z"/><path style="fill:#616871" d="M128.02,123.33L128.28,123.06L129.27,123.08L129.29,123.49L128.43,123.81z"/><path style="fill:#616871" d="M170.91,124.10L170.33,123.91L170.16,123.58L170.63,123.61z"/><path style="fill:#616871" d="M173.40,126.03L172.81,125.84L172.65,125.51L173.11,125.54z"/><path style="fill:#616871" d="M135.10,127.10L134.30,127.20L133.48,126.88L134.11,126.35L134.74,126.38z"/><path style="fill:#616871" d="M175.88,127.96L175.29,127.77L175.13,127.44L175.59,127.47z"/><path style="fill:#616871" d="M178.36,129.89L177.77,129.70L177.61,129.37L178.07,129.40z"/><path style="fill:#616871" d="M140.24,129.24L141.36,129.12L141.19,129.80L140.63,130.11L140.23,129.98z"/><path style="fill:#616871" d="M180.84,131.83L180.25,131.63L180.09,131.30L180.55,131.33z"/><path style="fill:#616871" d="M112.86,134.97L113.43,134.62L114.09,134.64L114.12,135.39L113.35,135.63L112.92,135.49z"/><path style="fill:#616871" d="M126.36,145.15L127.58,145.12L127.39,145.78L126.83,146.11L126.45,145.98z"/><path style="fill:#ffffff" d="M137.32,93.16L137.91,92.84L138.37,93.05z"/><path style="fill:#ffffff" d="M144.24,95.91L143.69,96.02L142.58,95.64L143.12,95.19L143.65,95.12z"/><path style="fill:#ffffff" d="M103.95,103.64L104.54,103.32L105.01,103.53z"/><path style="fill:#ffffff" d="M108.06,107.09L108.33,107.33L107.66,107.67L105.63,107.22L106.71,106.66L106.89,106.82z"/><path style="fill:#ffffff" d="M128.77,124.05L129.36,123.73L129.83,123.93z"/><path style="fill:#ffffff" d="M141.17,130.24L140.63,130.11L141.19,129.80L141.47,129.91z"/><path style="fill:#ffffff" d="M114.08,135.59L113.35,135.63L114.12,135.39z"/><path style="fill:#ffffff" d="M127.11,146.23L126.83,146.11L127.39,145.78L127.98,145.96z"/><g id="Actor_.0"><g style="stroke:#000000;stroke-width:0.176"><path d="M105.65,102.75 C105.37,102.56 105.36,102.56 105.07,102.39 C104.88,102.33 104.87,102.33 104.67,102.28 C104.26,102.28 104.26,102.28 103.85,102.28 "/><path d="M115.21,134.80 C114.89,134.63 114.88,134.63 114.55,134.46 C114.34,134.41 114.34,134.41 114.13,134.38 C113.74,134.41 113.74,134.41 113.35,134.44 "/><path d="M125.95,147.38 C126.30,147.60 126.30,147.60 126.66,147.81 C127.09,147.97 127.09,147.97 127.53,148.11 C127.98,148.20 127.98,148.20 128.43,148.27 C128.92,148.28 128.92,148.28 129.41,148.28 C129.82,148.21 129.83,148.21 130.24,148.12 "/><path d="M135.14,145.72 L134.43,145.94 L135.84,134.83 L95.20,105.49 "/><path d="M96.97,103.28 L137.61,132.63 L137.50,133.42 "/><path d="M105.42,103.43 L105.73,103.17 L105.65,102.75 "/><path d="M103.85,102.28 L103.30,102.55 L103.23,102.89 L103.42,103.18 "/><path d="M105.43,106.79 L105.22,106.09 L106.76,105.61 L106.66,106.40 "/><path d="M106.76,105.61 L108.60,106.14 L108.90,107.16 L108.60,107.25 "/><path d="M108.50,106.93 L108.60,106.14 "/><path d="M109.84,135.70 L109.96,134.93 L109.49,134.43 L109.30,133.91 "/><path d="M109.96,134.93 L125.95,147.38 L125.83,148.16 "/><path d="M112.62,111.10 L112.93,110.84 L112.85,110.42 L112.61,110.22 L111.87,109.95 L111.05,109.95 L110.50,110.22 L110.43,110.56 L110.63,110.85 "/><path d="M115.12,135.62 L115.43,135.26 L115.21,134.80 "/><path d="M113.35,134.44 L113.07,134.58 L112.88,134.99 L113.07,135.30 "/><path d="M130.12,148.90 L130.24,148.12 L133.45,147.11 L113.65,131.69 "/><path d="M114.63,130.52 L134.43,145.94 L134.19,146.52 L133.45,147.11 L133.33,147.89 "/><path d="M126.40,145.68 L126.20,145.37 L126.40,144.96 L126.68,144.83 L127.46,144.76 L128.25,144.99 L128.54,145.19 L128.76,145.64 L128.45,146.00 "/><path d="M130.25,123.83 L130.57,123.58 L130.49,123.15 L130.25,122.95 L129.51,122.69 L128.69,122.69 L128.13,122.95 L128.07,123.30 L128.26,123.58 "/><path d="M136.76,127.59 L137.07,127.50 L136.77,126.48 L134.92,125.95 L133.38,126.43 L133.59,127.13 "/><path d="M134.57,145.04 L135.28,144.81 "/><path d="M134.83,126.74 L134.92,125.95 "/><path d="M136.56,134.61 L135.84,134.83 L136.26,133.73 L137.11,132.86 L137.61,132.63 L143.20,130.87 L143.84,130.57 L144.23,130.17 L144.34,129.69 "/><path d="M136.77,126.48 L136.67,127.27 "/><path d="M142.22,130.00 L142.53,129.75 L142.45,129.32 L142.21,129.12 L141.47,128.86 L140.65,128.86 L140.10,129.12 L140.03,129.47 L140.23,129.75 "/><path d="M143.20,130.87 L143.10,131.66 "/></g><g style="stroke:#000000;stroke-width:0.529"><path d="M96.32,109.18 C96.05,108.81 96.05,108.81 95.79,108.43 C95.59,107.97 95.59,107.96 95.40,107.50 C95.28,107.01 95.28,107.01 95.19,106.51 C95.18,106.04 95.18,106.04 95.19,105.57 C95.26,105.25 95.26,105.25 95.35,104.93 C95.47,104.68 95.47,104.68 95.60,104.43 C95.80,104.16 95.80,104.16 96.02,103.90 C96.24,103.70 96.24,103.70 96.48,103.52 C96.72,103.39 96.72,103.39 96.97,103.28 C99.76,102.40 99.76,102.39 102.56,101.52 C102.98,101.43 102.98,101.43 103.39,101.36 C103.86,101.35 103.86,101.35 104.33,101.35 C104.80,101.41 104.81,101.41 105.28,101.49 C105.72,101.62 105.72,101.61 106.15,101.77 C106.98,102.28 106.98,102.29 107.79,102.83 "/><path d="M107.79,102.83 C124.79,115.10 124.79,115.10 141.78,127.38 C142.72,128.06 142.73,128.05 143.66,128.74 C143.91,128.96 143.91,128.96 144.14,129.20 "/><path d="M143.74,131.36 C143.43,131.52 143.42,131.52 143.10,131.66 C140.31,132.55 140.30,132.54 137.50,133.42 C137.37,133.48 137.37,133.48 137.24,133.55 "/><path d="M134.29,147.28 C133.83,147.60 133.82,147.60 133.33,147.89 C131.73,148.41 131.73,148.40 130.12,148.90 C129.71,148.98 129.70,148.98 129.29,149.05 C128.82,149.06 128.82,149.06 128.35,149.05 C127.88,148.98 127.88,148.98 127.41,148.89 C126.97,148.74 126.97,148.74 126.54,148.58 C126.18,148.38 126.18,148.38 125.83,148.16 "/><path d="M109.80,133.00 C110.11,132.84 110.11,132.84 110.44,132.70 C112.04,132.18 112.05,132.20 113.65,131.69 C113.92,131.53 113.92,131.53 114.17,131.36 "/><path d="M114.63,130.52 C114.57,130.16 114.57,130.16 114.49,129.80 C114.36,129.46 114.36,129.46 114.21,129.12 C114.02,128.84 114.02,128.84 113.82,128.56 "/><path d="M112.62,111.10 C112.16,111.17 112.16,111.17 111.70,111.23 C111.50,111.20 111.49,111.20 111.29,111.16 C110.95,111.01 110.95,111.01 110.63,110.85 "/><path d="M142.19,130.02 C141.99,129.88 141.99,129.88 141.78,129.76 C141.58,129.70 141.58,129.70 141.37,129.65 C140.93,129.65 140.92,129.65 140.48,129.67 "/><path d="M144.14,129.20 L144.33,129.67 L144.24,130.49 L144.14,130.96 L143.74,131.36 "/><path d="M137.24,133.55 L136.78,134.01 L136.56,134.61 L135.14,145.72 L134.99,146.26 L134.29,147.28 "/><path d="M125.83,148.16 L109.84,135.70 L109.37,135.21 L109.18,134.69 L109.40,133.42 L109.80,133.00 "/><path d="M114.17,131.36 L114.63,130.52 "/><path d="M113.82,128.56 L96.32,109.18 "/><path d="M104.08,103.49 L104.92,103.56 L105.42,103.43 L104.57,103.07 L104.02,103.05 L103.42,103.18 L104.08,103.49 "/><path d="M105.50,106.76 L105.43,106.79 L105.52,107.11 L107.36,107.64 L108.60,107.25 L108.50,106.93 L106.66,106.40 L105.50,106.76 "/><path d="M110.78,110.79 L111.77,110.74 L112.62,111.10 "/><path d="M110.63,110.85 L110.78,110.79 "/><path d="M113.20,135.41 L113.96,135.72 L114.67,135.74 L115.10,135.63 L114.67,135.33 L114.01,135.16 L113.23,135.22 L113.07,135.30 L113.20,135.41 "/><path d="M126.55,145.81 L127.29,146.10 L128.10,146.11 L128.43,146.01 L128.13,145.77 L127.34,145.54 L126.40,145.68 L126.55,145.81 "/><path d="M128.43,123.69 L128.26,123.58 L128.99,123.44 L129.81,123.58 L130.25,123.83 L129.34,123.96 L128.43,123.69 "/><path d="M133.67,127.38 L135.53,127.98 L136.76,127.59 L136.67,127.27 L134.83,126.74 L133.59,127.13 L133.67,127.38 "/><path d="M140.48,129.67 L140.23,129.75 L140.89,130.07 L141.72,130.14 L142.19,130.02 "/></g></g><g id="Actor_.1"><g style="stroke:#000000;stroke-width:0.176"><path d="M182.14,118.63 C179.37,119.51 179.37,119.51 176.59,120.38 C176.16,120.47 176.15,120.47 175.71,120.56 C175.25,120.57 175.24,120.57 174.78,120.57 C174.30,120.50 174.30,120.50 173.83,120.43 C173.39,120.29 173.39,120.29 172.95,120.15 C172.60,119.96 172.59,119.96 172.24,119.76 "/><path d="M138.99,92.27 C138.71,92.08 138.70,92.08 138.41,91.91 C138.22,91.85 138.21,91.85 138.01,91.81 C137.61,91.80 137.61,91.80 137.21,91.80 "/><path d="M150.72,99.12 C150.31,98.94 150.30,98.94 149.88,98.77 C149.67,98.74 149.67,98.75 149.46,98.73 C149.09,98.80 149.09,98.80 148.73,98.87 "/><path d="M149.02,99.05 C149.41,99.16 149.41,99.16 149.81,99.26 C150.02,99.26 150.02,99.26 150.22,99.26 C150.55,99.16 150.55,99.16 150.87,99.05 "/><path d="M150.96,98.44 C150.67,98.26 150.67,98.25 150.38,98.08 C150.18,98.02 150.18,98.02 149.98,97.98 C149.57,97.97 149.57,97.97 149.16,97.98 C148.99,98.02 148.99,98.02 148.83,98.08 "/><path d="M166.46,110.82 C166.82,110.74 166.83,110.74 167.19,110.68 C167.40,110.69 167.40,110.69 167.61,110.71 C167.98,110.84 167.99,110.84 168.35,110.98 "/><path d="M168.51,111.79 C168.19,111.90 168.19,111.90 167.86,111.99 C167.65,112.00 167.65,112.00 167.44,111.99 C167.05,111.89 167.04,111.89 166.65,111.79 "/><path d="M168.36,111.86 C167.94,111.67 167.94,111.67 167.51,111.51 C167.31,111.48 167.30,111.48 167.09,111.47 C166.73,111.53 166.73,111.53 166.37,111.61 "/><path d="M172.15,120.55 C172.49,120.75 172.50,120.75 172.85,120.94 C173.29,121.09 173.29,121.09 173.73,121.22 C174.20,121.30 174.20,121.30 174.68,121.36 C175.14,121.36 175.15,121.36 175.61,121.35 C176.03,121.27 176.03,121.27 176.44,121.18 "/><path d="M141.50,89.29 L182.14,118.63 "/><path d="M172.24,119.76 L135.44,93.18 L134.96,92.71 L134.77,92.22 "/><path d="M135.44,93.18 L135.34,93.97 "/><path d="M138.76,92.95 L139.07,92.70 L138.99,92.27 "/><path d="M137.21,91.80 L136.64,92.07 L136.57,92.42 L136.77,92.70 "/><path d="M143.57,94.80 L143.67,94.01 L142.19,94.47 L142.34,95.19 "/><path d="M143.57,94.80 L145.42,95.33 L145.51,95.65 "/><path d="M145.42,95.33 L145.52,94.54 L143.67,94.01 "/><path d="M144.60,95.94 L145.82,95.56 L145.52,94.54 "/><path d="M150.87,99.05 L151.06,98.69 L150.96,98.44 "/><path d="M148.83,98.08 L148.51,98.44 L148.55,98.66 L149.02,99.05 "/><path d="M156.82,109.48 L172.15,120.55 L172.24,119.76 "/><path d="M181.77,132.36 L181.49,132.09 L181.34,131.69 L181.34,131.20 L161.54,115.77 "/><path d="M166.18,111.39 L166.14,111.18 L166.46,110.82 "/><path d="M168.35,110.98 L168.70,111.39 L168.51,111.79 "/><path d="M166.65,111.79 L166.18,111.39 "/><path d="M171.74,115.14 L173.58,115.67 L173.68,114.88 L173.99,115.90 L172.45,116.38 L170.60,115.85 L170.30,114.83 L171.84,114.35 L171.74,115.14 L170.51,115.53 "/><path d="M171.84,114.35 L173.68,114.88 "/><path d="M176.44,121.18 L176.54,120.39 "/><path d="M173.68,119.34 L174.23,119.59 L175.06,119.66 L175.71,119.46 L175.90,119.06 L175.79,118.85 L175.22,118.49 L174.39,118.35 L174.00,118.38 L173.51,118.59 L173.34,118.85 L173.39,119.07 L173.68,119.34 "/><path d="M173.57,119.28 L173.90,119.17 L174.72,119.18 L175.56,119.53 "/><path d="M173.58,115.67 L173.68,115.99 "/><path d="M176.44,121.18 L182.04,119.43 L182.14,118.63 L182.61,118.57 L183.01,118.68 "/><path d="M182.63,132.39 L182.75,131.62 L182.50,131.65 L182.13,131.46 L182.06,130.97 L181.34,131.20 L182.76,120.09 L182.67,119.60 L182.51,119.45 L182.04,119.43 "/><path d="M182.06,131.08 L182.75,131.62 L185.97,130.61 L185.85,131.38 "/><path d="M182.06,130.97 L182.20,130.07 L181.48,130.29 "/><path d="M182.20,130.07 L182.34,128.92 "/><path d="M181.91,119.47 L182.76,120.09 L183.47,119.86 "/><path d="M182.51,127.60 L183.03,127.78 L183.47,128.18 L183.53,128.43 L183.22,128.79 "/><path d="M182.41,128.39 L182.77,125.51 "/><path d="M185.97,130.61 L186.61,130.30 L187.00,129.88 L187.11,129.39 "/></g><g style="stroke:#000000;stroke-width:0.529"><path d="M156.82,109.48 C158.79,111.65 158.79,111.65 160.74,113.82 C160.94,114.09 160.94,114.10 161.13,114.38 C161.27,114.71 161.28,114.72 161.41,115.06 C161.49,115.66 161.47,115.67 161.54,116.27 C161.61,116.47 161.61,116.48 161.69,116.67 "/><path d="M182.77,125.51 L183.47,119.86 L183.46,119.36 L183.30,118.95 L183.01,118.68 L142.37,89.33 L141.97,89.22 L141.50,89.29 L135.90,91.05 L135.31,91.32 L134.87,91.75 L134.68,92.95 L134.87,93.51 L135.31,93.94 L156.82,109.48 "/><path d="M137.25,92.95 L138.18,93.08 L138.76,92.95 L137.91,92.60 L137.09,92.60 L136.77,92.70 L137.25,92.95 "/><path d="M144.60,95.94 L144.28,96.04 L142.44,95.51 L142.36,95.25 L143.57,94.80 "/><path d="M144.60,95.94 L143.57,94.80 "/><path d="M161.69,116.67 L161.97,116.94 L181.77,132.36 L182.17,132.46 L185.85,131.38 L186.49,131.08 L186.88,130.66 L187.11,129.39 L186.92,128.87 L186.44,128.38 L182.77,125.51 "/><path d="M182.34,128.92 L183.21,128.80 L182.91,128.56 L182.41,128.39 "/><path d="M182.41,128.39 L182.34,128.92 "/></g></g><g id="Actor_.2"><g style="stroke:#000000;stroke-width:0.176"><path d="M135.29,114.95 C135.52,115.12 135.52,115.12 135.76,115.27 C136.02,115.37 136.02,115.37 136.28,115.46 C136.57,115.49 136.57,115.48 136.86,115.50 C136.97,115.48 136.97,115.48 137.09,115.47 "/><path d="M135.01,111.47 C135.24,111.66 135.24,111.66 135.48,111.84 C135.80,112.00 135.81,112.00 136.14,112.14 C136.52,112.24 136.52,112.24 136.91,112.33 C137.31,112.36 137.31,112.36 137.71,112.38 C138.09,112.35 138.09,112.35 138.46,112.31 C138.61,112.26 138.61,112.26 138.75,112.21 C138.91,112.15 138.91,112.15 139.07,112.10 "/><path d="M139.11,111.81 C138.81,111.92 138.81,111.92 138.50,112.01 C138.31,112.04 138.31,112.03 138.12,112.05 C137.94,112.07 137.94,112.08 137.75,112.09 C137.35,112.07 137.35,112.07 136.94,112.04 C136.56,111.95 136.56,111.95 136.17,111.85 C135.84,111.71 135.84,111.71 135.52,111.55 C135.40,111.46 135.40,111.46 135.28,111.37 C135.16,111.27 135.16,111.27 135.05,111.18 "/><path d="M135.57,111.48 C135.88,111.63 135.88,111.63 136.21,111.77 C136.58,111.87 136.58,111.87 136.96,111.95 C137.35,111.99 137.35,111.99 137.74,112.01 C138.11,111.98 138.11,111.98 138.47,111.93 C138.77,111.84 138.78,111.84 139.07,111.73 "/><path d="M139.53,110.65 C139.37,110.45 139.36,110.45 139.18,110.26 C138.91,110.09 138.91,110.09 138.63,109.93 C138.28,109.80 138.28,109.80 137.92,109.69 C137.77,109.66 137.76,109.66 137.61,109.64 C137.37,109.60 137.37,109.60 137.14,109.57 C136.76,109.57 136.76,109.57 136.38,109.58 C136.04,109.64 136.04,109.64 135.70,109.72 C135.45,109.84 135.44,109.84 135.20,109.98 "/><path d="M135.65,111.95 C135.89,112.07 135.89,112.07 136.14,112.17 C136.52,112.27 136.52,112.27 136.91,112.36 C137.19,112.38 137.19,112.38 137.47,112.40 "/><path d="M136.01,110.30 C136.16,110.22 136.16,110.21 136.32,110.14 C136.52,110.10 136.52,110.10 136.72,110.06 C136.97,110.05 136.97,110.05 137.22,110.06 C137.44,110.09 137.44,110.09 137.65,110.12 C137.87,110.19 137.87,110.19 138.08,110.27 C138.25,110.36 138.25,110.36 138.41,110.47 C138.52,110.58 138.52,110.58 138.62,110.70 "/><path d="M138.35,111.35 C138.17,111.42 138.17,111.42 137.99,111.48 C137.77,111.50 137.77,111.50 137.55,111.52 C137.31,111.51 137.31,111.51 137.07,111.49 C136.85,111.44 136.85,111.44 136.62,111.38 C136.46,111.31 136.45,111.31 136.29,111.23 "/><path d="M138.08,111.43 C137.90,111.35 137.90,111.35 137.72,111.27 C137.50,111.21 137.50,111.21 137.28,111.16 C137.06,111.14 137.06,111.14 136.83,111.13 C136.62,111.15 136.62,111.15 136.41,111.18 C136.35,111.19 136.35,111.19 136.29,111.22 "/><path d="M138.56,110.76 C138.46,110.64 138.46,110.64 138.36,110.53 C138.20,110.43 138.20,110.43 138.04,110.34 C137.84,110.27 137.83,110.27 137.63,110.20 C137.41,110.17 137.41,110.17 137.18,110.13 C136.96,110.13 136.96,110.13 136.74,110.14 C136.54,110.18 136.54,110.18 136.35,110.22 C136.20,110.29 136.20,110.29 136.06,110.37 "/><path d="M136.00,111.00 C136.12,111.10 136.13,111.10 136.26,111.20 C136.44,111.29 136.44,111.29 136.63,111.37 C136.85,111.43 136.85,111.43 137.08,111.48 C137.32,111.50 137.32,111.50 137.56,111.51 C137.76,111.49 137.76,111.49 137.97,111.47 C138.14,111.41 138.14,111.41 138.32,111.35 "/><path d="M137.75,111.49 C137.66,111.45 137.66,111.45 137.57,111.41 C137.41,111.37 137.41,111.37 137.24,111.33 C137.07,111.31 137.07,111.31 136.90,111.30 C136.73,111.32 136.73,111.32 136.57,111.34 "/><path d="M135.28,114.94 L135.65,111.95 L135.49,111.88 L135.26,111.69 "/><path d="M137.09,115.47 L137.47,112.40 L137.70,112.41 L138.44,112.34 L138.95,112.16 "/><path d="M134.78,111.06 L135.01,111.47 "/><path d="M139.07,112.10 L139.49,111.79 L139.65,111.40 "/><path d="M139.68,111.11 L139.52,111.50 L139.11,111.81 "/><path d="M135.05,111.18 L134.81,110.77 L134.85,110.36 "/><path d="M134.91,110.32 L134.88,110.72 L135.11,111.12 L135.35,111.31 L135.57,111.48 "/><path d="M139.07,111.73 L139.47,111.43 L139.63,111.05 L139.53,110.65 "/><path d="M135.20,109.98 L134.91,110.32 "/><path d="M136.29,111.23 L136.23,111.20 L135.96,110.98 L135.82,110.74 L135.84,110.50 L136.01,110.30 "/><path d="M138.62,110.70 L138.68,110.95 L138.59,111.17 L138.57,111.19 L138.35,111.35 "/><path d="M138.62,110.98 L138.61,110.99 L138.56,110.76 "/><path d="M136.06,110.37 L135.89,110.57 L135.88,110.78 L135.87,110.77 "/><path d="M135.99,110.99 L136.00,111.00 L135.88,110.78 "/><path d="M137.09,115.47 L137.41,115.51 L137.85,115.44 L138.32,115.20 "/><path d="M138.31,111.35 L138.54,111.18 "/><path d="M138.53,111.18 L138.61,110.99 "/></g><g style="stroke:#000000;stroke-width:0.529"><path d="M135.26,111.69 C135.11,112.82 135.11,112.82 134.98,113.94 C135.00,114.21 135.01,114.21 135.05,114.47 C135.09,114.62 135.09,114.62 135.14,114.77 "/><path d="M135.14,114.77 C135.20,114.86 135.20,114.86 135.28,114.94 C135.39,115.05 135.39,115.06 135.50,115.16 C135.68,115.27 135.68,115.27 135.86,115.37 C136.08,115.45 136.08,115.45 136.31,115.53 C136.56,115.57 136.56,115.57 136.81,115.60 C137.06,115.60 137.06,115.61 137.30,115.60 C137.52,115.56 137.52,115.56 137.73,115.51 C138.03,115.36 138.03,115.36 138.32,115.20 C138.46,115.10 138.46,115.10 138.60,114.99 "/><path d="M139.58,110.67 C139.40,110.46 139.40,110.46 139.21,110.26 C138.94,110.09 138.93,110.09 138.65,109.92 C138.29,109.80 138.29,109.80 137.93,109.68 C137.54,109.61 137.54,109.61 137.14,109.56 C136.75,109.56 136.75,109.56 136.36,109.57 C136.02,109.64 136.02,109.63 135.68,109.71 C135.41,109.84 135.41,109.84 135.15,109.98 "/><path d="M138.60,114.99 L138.95,112.16 L139.06,112.12 L139.47,111.81 L139.64,111.42 L139.68,111.10 L139.58,110.67 "/><path d="M135.15,109.98 L134.85,110.35 L134.81,110.65 L134.78,111.07 L135.02,111.50 L135.26,111.69 "/></g></g><g id="Actor_.3"><g style="stroke:#000000;stroke-width:0.176"><path d="M144.40,80.02 C144.70,80.15 144.70,80.15 145.01,80.27 C145.40,80.36 145.40,80.36 145.79,80.44 C146.00,80.45 146.00,80.45 146.22,80.46 "/><path d="M143.82,79.59 C144.07,79.78 144.07,79.78 144.33,79.96 C144.66,80.11 144.66,80.11 145.01,80.24 C145.40,80.33 145.40,80.33 145.79,80.41 C146.19,80.43 146.19,80.43 146.59,80.44 C146.96,80.40 146.96,80.40 147.32,80.34 C147.62,80.23 147.62,80.23 147.91,80.11 "/><path d="M147.36,80.05 C147.00,80.11 146.99,80.11 146.63,80.15 C146.23,80.14 146.23,80.14 145.83,80.12 C145.43,80.04 145.43,80.04 145.04,79.95 C144.70,79.82 144.70,79.82 144.36,79.67 C144.11,79.49 144.10,79.49 143.86,79.30 "/><path d="M143.92,79.24 C144.16,79.42 144.16,79.43 144.41,79.60 C144.74,79.74 144.74,79.74 145.07,79.87 C145.45,79.96 145.45,79.96 145.84,80.03 C146.23,80.06 146.23,80.06 146.62,80.07 C146.98,80.02 146.98,80.02 147.33,79.97 C147.62,79.86 147.62,79.86 147.90,79.75 "/><path d="M148.24,78.64 C148.05,78.45 148.05,78.44 147.85,78.26 C147.57,78.09 147.56,78.09 147.27,77.94 C146.91,77.82 146.91,77.82 146.54,77.72 C146.15,77.66 146.15,77.66 145.76,77.62 C145.38,77.63 145.38,77.63 145.00,77.65 C144.68,77.73 144.67,77.73 144.35,77.82 C144.11,77.94 144.11,77.95 143.88,78.09 "/><path d="M146.51,79.55 C146.39,79.50 146.39,79.50 146.27,79.45 C146.10,79.41 146.10,79.41 145.93,79.38 C145.76,79.37 145.76,79.37 145.59,79.37 C145.46,79.38 145.46,79.38 145.32,79.40 "/><path d="M145.44,79.46 C145.67,79.51 145.67,79.52 145.90,79.56 C146.13,79.57 146.14,79.57 146.37,79.58 C146.59,79.55 146.59,79.55 146.80,79.52 C146.97,79.46 146.97,79.46 147.14,79.39 "/><path d="M147.35,78.72 C147.23,78.60 147.23,78.60 147.11,78.49 C146.94,78.39 146.94,78.39 146.76,78.30 C146.71,78.28 146.71,78.28 146.66,78.27 C146.49,78.22 146.49,78.21 146.33,78.17 C146.09,78.13 146.09,78.13 145.85,78.11 C145.63,78.11 145.62,78.11 145.40,78.13 C145.20,78.17 145.20,78.17 145.01,78.22 C144.86,78.30 144.86,78.30 144.72,78.39 "/><path d="M146.78,79.47 C146.59,79.38 146.59,79.38 146.40,79.31 C146.18,79.26 146.18,79.26 145.95,79.21 C145.73,79.20 145.73,79.20 145.50,79.19 C145.30,79.22 145.30,79.22 145.09,79.25 C145.06,79.26 145.06,79.26 145.03,79.27 "/><path d="M144.77,79.09 C144.92,79.20 144.92,79.20 145.08,79.30 C145.26,79.38 145.26,79.38 145.45,79.46 C145.68,79.51 145.68,79.51 145.90,79.55 C146.13,79.57 146.13,79.56 146.36,79.57 C146.41,79.57 146.41,79.56 146.46,79.56 C146.62,79.54 146.62,79.54 146.78,79.51 C146.95,79.45 146.95,79.45 147.11,79.38 "/><path d="M147.28,78.78 C147.18,78.67 147.17,78.67 147.06,78.56 C146.89,78.46 146.89,78.46 146.72,78.38 C146.52,78.31 146.51,78.31 146.30,78.25 C146.09,78.22 146.09,78.22 145.87,78.19 C145.64,78.20 145.64,78.20 145.42,78.21 C145.23,78.25 145.23,78.25 145.04,78.30 C144.90,78.38 144.90,78.38 144.77,78.46 "/><path d="M144.02,83.00 L144.40,80.02 "/><path d="M146.22,80.46 L145.83,83.53 L145.12,83.54 L144.60,83.37 L144.02,83.00 "/><path d="M143.55,79.19 L143.82,79.59 "/><path d="M147.91,80.11 L148.28,79.79 "/><path d="M148.43,79.10 L148.31,79.50 L147.94,79.82 L147.40,80.03 L147.36,80.05 "/><path d="M143.86,79.30 L143.58,78.90 L143.57,78.49 "/><path d="M147.90,79.75 L148.26,79.43 L148.38,79.05 L148.24,78.64 "/><path d="M143.88,78.09 L143.64,78.44 L143.65,78.84 L143.92,79.24 "/><path d="M144.40,80.02 L144.34,79.99 L144.01,79.75 "/><path d="M147.14,79.39 L147.27,79.27 L147.36,79.20 L147.43,78.97 L147.35,78.72 "/><path d="M144.72,78.39 L144.57,78.60 L144.58,78.84 L144.74,79.08 L144.77,79.10 L145.04,79.30 L145.44,79.46 "/><path d="M146.82,79.50 L146.78,79.47 "/><path d="M147.31,79.21 L147.30,79.21 L147.36,79.01 L147.28,78.78 "/><path d="M144.77,78.46 L144.63,78.67 L144.63,78.88 L144.63,78.86 "/><path d="M144.63,78.88 L144.78,79.09 "/><path d="M144.63,78.67 L144.63,78.67 "/><path d="M145.83,83.53 L146.24,83.57 L146.67,83.48 "/><path d="M146.22,80.46 L146.58,80.47 L147.30,80.37 L147.70,80.22 "/><path d="M147.10,79.39 L147.30,79.21 "/></g><g style="stroke:#000000;stroke-width:0.529"><path d="M144.01,79.75 C143.85,80.88 143.85,80.88 143.72,82.00 C143.76,82.30 143.77,82.30 143.81,82.59 C143.85,82.73 143.85,82.73 143.90,82.87 "/><path d="M144.02,83.00 C144.16,83.13 144.16,83.14 144.30,83.26 C144.48,83.37 144.49,83.37 144.68,83.46 C144.91,83.54 144.91,83.54 145.14,83.61 C145.39,83.64 145.39,83.64 145.64,83.67 C145.88,83.66 145.89,83.66 146.13,83.65 C146.34,83.60 146.34,83.60 146.54,83.54 C146.85,83.38 146.85,83.37 147.15,83.20 C147.25,83.13 147.25,83.13 147.35,83.05 "/><path d="M143.83,78.10 C144.07,77.95 144.08,77.94 144.33,77.81 C144.65,77.72 144.66,77.72 144.99,77.65 C145.37,77.62 145.37,77.62 145.75,77.61 C146.15,77.66 146.15,77.66 146.55,77.71 C146.92,77.82 146.92,77.82 147.28,77.94 C147.58,78.09 147.59,78.09 147.88,78.26 C148.09,78.45 148.09,78.46 148.28,78.66 "/><path d="M143.90,82.87 L144.02,83.00 "/><path d="M147.35,83.05 L147.70,80.22 "/><path d="M144.01,79.75 L143.83,79.62 L143.55,79.20 L143.53,78.78 L143.57,78.49 L143.83,78.10 "/><path d="M148.28,78.66 L148.43,79.10 L148.40,79.39 L148.27,79.80 L147.89,80.14 L147.70,80.22 "/></g></g><g id="Actor_.4"><g style="stroke:#000000;stroke-width:0.176"><path d="M171.99,99.94 C172.23,100.12 172.24,100.12 172.49,100.30 C172.83,100.45 172.83,100.45 173.17,100.58 C173.56,100.67 173.56,100.67 173.96,100.75 C174.36,100.77 174.36,100.77 174.76,100.78 C175.12,100.74 175.13,100.74 175.49,100.68 C175.78,100.57 175.79,100.57 176.07,100.45 "/><path d="M176.11,100.16 C175.82,100.28 175.82,100.28 175.53,100.39 C175.16,100.45 175.16,100.45 174.79,100.49 C174.39,100.48 174.39,100.48 173.99,100.46 C173.60,100.38 173.60,100.37 173.21,100.29 C173.18,100.28 173.18,100.28 173.15,100.27 C172.84,100.14 172.84,100.14 172.53,100.01 C172.27,99.83 172.27,99.83 172.02,99.64 "/><path d="M172.05,98.43 C172.28,98.29 172.28,98.28 172.52,98.16 C172.84,98.07 172.84,98.07 173.17,97.99 C173.55,97.97 173.55,97.97 173.93,97.96 C174.32,98.00 174.32,98.00 174.71,98.06 C175.07,98.16 175.07,98.16 175.43,98.28 C175.73,98.43 175.73,98.43 176.02,98.60 C176.22,98.78 176.22,98.79 176.40,98.98 "/><path d="M176.07,100.09 C175.79,100.20 175.78,100.20 175.50,100.31 C175.14,100.36 175.14,100.36 174.79,100.41 C174.40,100.40 174.39,100.40 174.00,100.37 C173.62,100.30 173.62,100.30 173.24,100.21 C172.91,100.08 172.91,100.08 172.58,99.94 C172.50,99.89 172.51,99.89 172.44,99.84 C172.26,99.71 172.26,99.71 172.08,99.58 "/><path d="M172.56,100.36 C172.87,100.49 172.87,100.49 173.18,100.61 C173.56,100.70 173.56,100.70 173.95,100.78 C174.17,100.79 174.17,100.79 174.38,100.80 "/><path d="M172.98,99.47 C173.09,99.56 173.09,99.56 173.21,99.64 C173.40,99.72 173.41,99.72 173.61,99.80 C173.84,99.86 173.84,99.86 174.07,99.90 C174.30,99.91 174.30,99.91 174.54,99.92 C174.75,99.89 174.75,99.90 174.97,99.86 C175.14,99.80 175.14,99.80 175.31,99.73 "/><path d="M175.51,99.06 C175.40,98.94 175.40,98.94 175.28,98.83 C175.11,98.73 175.11,98.73 174.93,98.64 C174.71,98.57 174.71,98.57 174.49,98.51 C174.26,98.47 174.26,98.47 174.02,98.45 C173.79,98.45 173.79,98.45 173.56,98.47 C173.37,98.51 173.37,98.51 173.17,98.56 C173.03,98.64 173.03,98.64 172.89,98.73 "/><path d="M175.45,99.12 C175.34,99.01 175.34,99.01 175.23,98.90 C175.06,98.80 175.06,98.80 174.89,98.72 C174.68,98.65 174.68,98.65 174.47,98.59 C174.26,98.56 174.26,98.56 174.04,98.53 C173.81,98.54 173.81,98.54 173.58,98.55 C173.39,98.59 173.39,98.59 173.21,98.64 C173.07,98.72 173.07,98.72 172.93,98.80 "/><path d="M172.95,99.43 C173.08,99.54 173.09,99.54 173.23,99.64 C173.42,99.72 173.42,99.72 173.62,99.80 C173.84,99.85 173.84,99.85 174.07,99.89 C174.30,99.91 174.30,99.91 174.53,99.91 C174.71,99.89 174.71,99.89 174.90,99.86 C174.92,99.86 174.92,99.86 174.94,99.85 C175.11,99.79 175.11,99.79 175.28,99.72 "/><path d="M174.67,99.89 C174.55,99.84 174.55,99.84 174.43,99.79 C174.27,99.75 174.27,99.75 174.10,99.72 C173.93,99.71 173.93,99.71 173.76,99.71 C173.62,99.72 173.62,99.72 173.49,99.74 "/><path d="M174.95,99.81 C174.76,99.72 174.75,99.72 174.56,99.65 C174.34,99.60 174.34,99.60 174.12,99.55 C173.90,99.54 173.90,99.54 173.67,99.53 C173.46,99.56 173.46,99.56 173.26,99.59 C173.23,99.60 173.23,99.60 173.20,99.61 "/><path d="M171.71,99.53 L171.99,99.94 "/><path d="M176.07,100.45 L176.44,100.13 "/><path d="M176.60,99.44 L176.48,99.84 L176.30,100.00 L176.11,100.16 "/><path d="M172.02,99.64 L171.75,99.24 L171.74,98.83 "/><path d="M171.80,98.78 L172.05,98.43 "/><path d="M176.40,98.98 L176.55,99.39 L176.43,99.77 L176.07,100.09 "/><path d="M172.08,99.58 L171.82,99.18 L171.80,98.78 "/><path d="M172.76,103.71 L172.19,103.34 L172.56,100.36 "/><path d="M174.38,100.80 L174.00,103.87 L173.29,103.88 L172.76,103.71 "/><path d="M172.56,100.36 L172.50,100.33 L172.17,100.10 "/><path d="M175.31,99.73 L175.53,99.54 L175.60,99.31 L175.51,99.06 "/><path d="M172.89,98.73 L172.74,98.94 L172.75,99.18 L172.91,99.42 L172.98,99.47 "/><path d="M175.48,99.55 L175.47,99.55 L175.53,99.35 L175.45,99.12 "/><path d="M172.93,98.80 L172.79,99.01 L172.80,99.22 L172.79,99.20 "/><path d="M172.94,99.43 L172.95,99.43 L172.80,99.22 "/><path d="M172.79,99.01 L172.79,99.01 "/><path d="M174.00,103.87 L174.40,103.91 L174.84,103.82 "/><path d="M174.99,99.84 L174.95,99.81 "/><path d="M174.38,100.80 L174.75,100.81 L175.47,100.71 L175.87,100.56 "/><path d="M175.27,99.73 L175.47,99.55 "/></g><g style="stroke:#000000;stroke-width:0.529"><path d="M172.17,100.10 C172.02,101.22 172.02,101.22 171.89,102.34 C171.92,102.64 171.93,102.64 171.98,102.94 C172.02,103.07 172.02,103.07 172.07,103.21 "/><path d="M172.19,103.34 C172.32,103.47 172.33,103.48 172.47,103.60 C172.65,103.71 172.65,103.71 172.84,103.80 C173.07,103.88 173.07,103.88 173.31,103.95 C173.56,103.98 173.56,103.98 173.81,104.01 C174.05,104.00 174.05,104.00 174.29,103.99 C174.50,103.94 174.51,103.94 174.71,103.88 C175.02,103.72 175.02,103.71 175.32,103.54 C175.42,103.47 175.42,103.47 175.51,103.39 "/><path d="M172.00,98.44 C172.24,98.29 172.24,98.28 172.49,98.15 C172.82,98.06 172.82,98.06 173.15,97.99 C173.54,97.96 173.54,97.96 173.92,97.95 C174.32,98.00 174.32,98.00 174.72,98.05 C175.08,98.16 175.09,98.16 175.45,98.28 C175.75,98.43 175.75,98.43 176.05,98.60 C176.25,98.79 176.25,98.80 176.45,99.00 "/><path d="M172.07,103.21 L172.19,103.34 "/><path d="M175.51,103.39 L175.87,100.56 "/><path d="M172.17,100.10 L171.99,99.96 L171.71,99.54 L171.70,99.12 L171.74,98.83 L172.00,98.44 "/><path d="M176.45,99.00 L176.60,99.44 L176.56,99.73 L176.44,100.14 L176.06,100.48 L175.87,100.56 "/></g></g><g id="Actor_.5"><g style="stroke:#000000;stroke-width:0.176"><path d="M106.91,91.19 C107.15,91.38 107.16,91.38 107.41,91.56 C107.75,91.71 107.75,91.71 108.09,91.84 C108.48,91.93 108.48,91.93 108.88,92.01 C109.28,92.03 109.28,92.03 109.68,92.04 C110.04,92.00 110.05,92.00 110.41,91.94 C110.70,91.83 110.70,91.83 110.99,91.71 "/><path d="M107.48,91.62 C107.79,91.75 107.79,91.75 108.10,91.87 C108.48,91.96 108.48,91.96 108.87,92.04 C109.09,92.05 109.09,92.05 109.30,92.06 "/><path d="M111.03,91.42 C110.74,91.54 110.74,91.54 110.45,91.65 C110.08,91.71 110.08,91.71 109.71,91.75 C109.31,91.74 109.31,91.74 108.91,91.72 C108.52,91.64 108.52,91.64 108.13,91.55 C107.79,91.42 107.78,91.42 107.45,91.27 C107.19,91.09 107.19,91.09 106.94,90.90 "/><path d="M107.00,90.84 C107.24,91.02 107.25,91.03 107.49,91.20 C107.82,91.34 107.83,91.34 108.16,91.47 C108.54,91.56 108.54,91.56 108.92,91.63 C109.31,91.66 109.31,91.66 109.70,91.67 C110.06,91.62 110.06,91.62 110.42,91.57 C110.70,91.46 110.71,91.46 110.99,91.35 "/><path d="M111.32,90.24 C111.14,90.05 111.14,90.04 110.94,89.86 C110.65,89.69 110.65,89.69 110.35,89.54 C109.99,89.42 109.99,89.42 109.63,89.32 C109.24,89.26 109.24,89.26 108.85,89.22 C108.47,89.23 108.47,89.23 108.09,89.25 C107.94,89.29 107.94,89.29 107.79,89.33 C107.61,89.37 107.61,89.37 107.44,89.42 C107.20,89.55 107.20,89.55 106.97,89.69 "/><path d="M107.83,90.68 C107.97,90.79 107.97,90.79 108.13,90.90 C108.32,90.98 108.32,90.98 108.53,91.06 C108.75,91.11 108.76,91.11 108.99,91.16 C109.22,91.17 109.22,91.17 109.46,91.18 C109.67,91.15 109.67,91.15 109.89,91.12 C110.06,91.06 110.06,91.06 110.23,90.99 "/><path d="M110.43,90.32 C110.32,90.20 110.32,90.20 110.20,90.09 C110.03,89.99 110.03,89.99 109.85,89.90 C109.63,89.83 109.63,89.83 109.41,89.77 C109.18,89.73 109.17,89.73 108.94,89.71 C108.71,89.71 108.71,89.71 108.48,89.73 C108.29,89.77 108.28,89.77 108.09,89.82 C107.95,89.90 107.95,89.90 107.81,89.99 "/><path d="M110.37,90.38 C110.26,90.27 110.26,90.27 110.15,90.16 C109.98,90.06 109.98,90.06 109.81,89.97 C109.60,89.91 109.60,89.91 109.39,89.85 C109.17,89.81 109.16,89.81 108.94,89.79 C108.72,89.80 108.72,89.80 108.50,89.81 C108.31,89.85 108.31,89.85 108.13,89.90 C107.99,89.98 107.99,89.98 107.85,90.06 "/><path d="M109.59,91.15 C109.47,91.10 109.47,91.10 109.35,91.05 C109.19,91.01 109.18,91.01 109.02,90.98 C108.85,90.97 108.85,90.97 108.68,90.97 C108.54,90.98 108.54,90.98 108.41,91.00 "/><path d="M109.86,91.06 C109.67,90.98 109.67,90.98 109.48,90.91 C109.26,90.86 109.26,90.86 109.04,90.81 C108.82,90.80 108.81,90.80 108.59,90.79 C108.38,90.82 108.38,90.82 108.18,90.85 C108.15,90.86 108.15,90.86 108.12,90.87 "/><path d="M107.87,90.69 C108.00,90.80 108.01,90.80 108.15,90.90 C108.34,90.98 108.34,90.98 108.54,91.06 C108.76,91.11 108.76,91.11 108.99,91.15 C109.22,91.17 109.22,91.16 109.45,91.17 C109.52,91.16 109.52,91.16 109.59,91.15 C109.73,91.13 109.73,91.14 109.86,91.11 C110.03,91.05 110.03,91.05 110.20,90.98 "/><path d="M106.63,90.79 L106.91,91.19 "/><path d="M110.99,91.71 L111.36,91.39 "/><path d="M107.68,94.97 L107.11,94.60 L107.48,91.62 "/><path d="M109.30,92.06 L108.92,95.13 L108.21,95.14 L107.68,94.97 "/><path d="M111.52,90.70 L111.40,91.10 L111.21,91.26 L111.03,91.42 "/><path d="M106.94,90.90 L106.67,90.50 L106.66,90.09 "/><path d="M107.48,91.62 L107.42,91.59 L107.09,91.35 "/><path d="M110.99,91.35 L111.35,91.03 L111.47,90.65 L111.32,90.24 "/><path d="M106.97,89.69 L106.72,90.04 L106.74,90.44 L107.00,90.84 "/><path d="M107.73,90.54 L107.83,90.68 "/><path d="M110.23,90.99 L110.45,90.80 L110.52,90.56 L110.43,90.32 "/><path d="M107.81,89.99 L107.66,90.20 L107.67,90.44 L107.73,90.54 "/><path d="M110.40,90.80 L110.39,90.81 L110.45,90.61 L110.37,90.38 "/><path d="M107.85,90.06 L107.71,90.27 L107.72,90.47 L107.71,90.46 "/><path d="M107.72,90.47 L107.87,90.69 L107.86,90.69 "/><path d="M107.71,90.27 L107.71,90.27 "/><path d="M108.92,95.13 L109.32,95.17 L109.76,95.07 "/><path d="M109.91,91.10 L109.86,91.06 "/><path d="M109.30,92.06 L109.67,92.07 L110.39,91.97 L110.79,91.82 "/><path d="M110.19,90.99 L110.39,90.81 "/></g><g style="stroke:#000000;stroke-width:0.529"><path d="M106.92,89.69 C107.16,89.55 107.16,89.54 107.41,89.41 C107.74,89.32 107.74,89.32 108.07,89.25 C108.45,89.22 108.46,89.22 108.84,89.21 C109.24,89.26 109.24,89.26 109.64,89.31 C110.00,89.42 110.01,89.42 110.37,89.54 C110.67,89.69 110.67,89.69 110.97,89.86 C111.17,90.05 111.17,90.05 111.37,90.26 "/><path d="M110.24,94.80 C109.94,94.98 109.94,94.98 109.63,95.14 C109.43,95.20 109.43,95.20 109.22,95.25 C108.97,95.26 108.97,95.26 108.73,95.27 C108.48,95.24 108.48,95.24 108.23,95.21 C107.99,95.14 107.99,95.14 107.76,95.06 C107.57,94.97 107.57,94.96 107.39,94.86 C107.24,94.74 107.25,94.73 107.11,94.60 C107.05,94.54 107.05,94.54 106.99,94.47 "/><path d="M107.09,91.35 L106.91,91.22 L106.63,90.80 L106.62,90.38 L106.66,90.09 L106.92,89.69 "/><path d="M111.37,90.26 L111.52,90.70 L111.48,90.99 L111.36,91.40 L110.98,91.74 L110.79,91.82 "/><path d="M110.79,91.82 L110.43,94.65 L110.24,94.80 "/><path d="M106.99,94.47 L106.90,94.19 L106.81,93.60 L107.09,91.35 "/></g></g><g id="paperID" visibility="hidden" opacity="0.00" transform="scale(0.000100)"><path style="stroke:#000000;stroke-width:0.500;fill:#e6e6e6;fill-rule:evenodd" d="M-2000.00,-2000.00L2297.00,-2000.00L2297.00,2210.00L-2000.00,2210.00zM0.00,0.00L297.00,0.00L297.00,210.00L0.00,210.00z"/><path style="fill:#000000;fill-opacity:0.118" d="M3.00,210.00L297.00,210.00L297.00,3.00L300.00,3.00L300.00,213.00L3.00,213.00z"/></g><g id="ToolTip" visibility="hidden" opacity="0" transform="translate(0,0)"><rect id="ToolTipShadow" opacity="0.20" fill="black" stroke="none" x="0" y="0" width="30" height="8"/><rect id="ToolTipBG" fill="#ffffe1" stroke="black" x="0" y="0" width="30" height="8"/><text xml:space="preserve" id="ToolTipText" fill="black" x="0" y="0" width="30" height="8">tooltip</text></g></g></svg>
