<?xml version="1.0" encoding="UTF-8" standalone="no"?>
<svg xmlns="http://www.w3.org/2000/svg" xmlns:xlink="http://www.w3.org/1999/xlink" width="297.000mm" height="210.000mm" viewBox="0.000000 0.000000 297.000000 210.000000" stroke-linejoin="round" stroke-linecap="round" fill="none" fill-rule="evenodd"><desc>Composer Export</desc><script type="text/ecmascript"><![CDATA[
if(typeof(top) != "undefined")
{
	top.ShowPaper = ShowPaper;
}
function ShowHotSpot(evt,hotspotid)
{
	var svgDocument = evt.target.ownerDocument;
	var strId = "hotspot."+hotspotid;
	var hotspot = svgDocument.getElementById(strId);
	if(hotspot)
		hotspot.setAttribute("opacity",".5");
}
function HideHotSpot(evt,hotspotid)
{
	var svgDocument = evt.target.ownerDocument;
	var strId = "hotspot."+hotspotid;
	var hotspot = svgDocument.getElementById(strId);
	if(hotspot)
		hotspot.setAttribute("opacity","0");

	var toolTip = svgDocument.getElementById('ToolTip');
	if(toolTip)
		toolTip.setAttribute("visibility","hidden");
}
function ShowToolTip(evt,hotspotid,strTooltip)
{
	if(strTooltip=="")
	return;

	// change text
	var svgDocument = evt.target.ownerDocument;
	var tiptext = svgDocument.getElementById('ToolTipText');
	if( !tiptext )
	return;
	tiptext.firstChild.nodeValue = " " + strTooltip + "  " ;

	// show tooltip before, else some refresh issue

	var toolTip = svgDocument.getElementById('ToolTip');
	if(!toolTip)
	return;

	toolTip.setAttribute("visibility","visible");
	toolTip.setAttribute("opacity",".95");

	// move tooltip
	// get viewbox

	var root = svgDocument.documentElement;
	var vbox = (root.getAttribute("viewBox")).split(' ');
	var x0 = parseFloat(vbox[0]);
	var y0 = parseFloat(vbox[1]);
	var vboxW = parseFloat(vbox[2]);
	var vboxH = parseFloat(vbox[3]);

	// get default width of svg

	var strW = root.getAttribute("width");
	var svgW = parseFloat(strW);
	if(strW.indexOf('mm') != -1)
	svgW *= 3.779;

	var strH = root.getAttribute("height");
	var svgH = parseFloat(strH);
	if(strH.indexOf('mm') != -1)
	svgH *= 3.779;  	// 96 dpi  -> 96/25.4 = 3.779

	// update the viewbox / width / height if svg is embedded in html with zoom fit all
	var realx0 = x0;
	var realy0 = y0;
	var realvboxW = vboxW;
	var realvboxH = vboxH;
	var realsvgW = svgW;
	var realsvgH = svgH;

	if ((typeof(top) == "undefined") || (typeof(top.svgctl1) != "undefined")) // embedded in html
	{
		// get window size in pxl

		svgW = window.innerWidth;
		svgH = window.innerHeight;

		// calculate real viewbox

		realsvgW = svgW;
		realsvgH = svgH;
		if((svgW / svgH) > (vboxW / vboxH))
		{
			realvboxW = (vboxH * svgW) / svgH;
			realvboxH = vboxH;
			realx0 = x0 - (realvboxW - vboxW)/2 ;
		}
		else
		{
			realvboxH = (vboxW * svgH) / svgW;
			realvboxW = vboxW;
			realy0 = y0 - (realvboxH - vboxH)/2 ;
		}
	}

	// get user zoom/pan

	var newScale = root.currentScale;
	var translation = root.currentTranslate;

	// transform pxl to user unit

	var xPos = (((evt.clientX+10- translation.x)/newScale) * realvboxW)/realsvgW  + realx0 ;
	var yPos = (((evt.clientY+5- translation.y)/newScale) * realvboxH)/ realsvgH  + realy0 ;
	var scaleForWidth = ( (1 / newScale) * realvboxH) / realsvgH;

	// move tooltip

	toolTip.setAttribute("transform", "translate(" + xPos + "," + yPos + ")" );

	// resize tooltip

	var fontsize = 12;
	tiptext.setAttribute("font-size",fontsize*scaleForWidth);
	tiptext.setAttribute("y", fontsize*scaleForWidth);
	var tipBG = svgDocument.getElementById('ToolTipBG');
	var outline = tiptext.getBBox();
	if(tipBG)
	{
		tipBG.setAttribute("stroke-width", 1*scaleForWidth);
		tipBG.setAttribute("width", Number(outline.width) );
		tipBG.setAttribute("height", Number(outline.height) + fontsize*.5*scaleForWidth );
	}
	var ToolTipShadow = svgDocument.getElementById('ToolTipShadow');
	if(ToolTipShadow)
	{
		ToolTipShadow.setAttribute("width", Number(outline.width) );
		ToolTipShadow.setAttribute("height", Number(outline.height) + fontsize*.5*scaleForWidth );
		ToolTipShadow.setAttribute("x", 3*scaleForWidth);
		ToolTipShadow.setAttribute("y", 3*scaleForWidth);
	}
}
function ShowPaper()
{
  var svgDocument = getDocument();
  var paper = svgDocument.getElementById("paperID");
  if(paper)
  {
    paper.setAttribute("transform","scale(1)");
    paper.setAttribute("opacity","1");
    paper.setAttribute("visibility","visible");
  }
  var svg = svgDocument.getRootElement();
  if(svg)
  {
    svg.setAttribute("width","307.000mm");
    svg.setAttribute("height","220.000mm");
    svg.setAttribute("viewBox","-5.000000 -5.000000 307.000000 220.000000");
  }
}
]]></script><defs/><g><path style="fill:#ffffff" d="M296.92,210.05L0.08,210.05L0.08,0.08L296.92,0.08z"/><path style="fill:#000020" d="M72.30,105.29L72.30,105.91L72.18,106.16L72.07,104.89L72.22,104.83z"/><path style="fill:#6c737e" d="M228.88,65.42L232.47,65.42L233.58,65.59L234.42,65.57L235.15,65.72L235.67,66.37L91.66,105.72L88.07,106.82L87.76,107.83L87.49,106.70L87.34,106.51L84.12,106.23L83.81,106.12L83.01,105.95L72.30,105.29L72.22,104.83L75.66,103.79L128.04,89.43L133.75,89.56L134.51,89.74L135.04,89.73L134.88,89.41L144.48,86.81L144.99,87.03L145.06,86.67L156.73,83.37L157.68,83.28L158.19,83.49L158.28,83.05L160.86,82.28L161.62,82.15L162.05,82.09L162.21,81.67L162.35,81.75L163.35,81.73L164.66,81.31L166.22,80.90L164.63,80.87L162.47,80.60L162.09,81.35L161.93,81.35L161.96,80.34L176.59,76.21L217.94,64.89L220.60,64.87z"/><path style="fill:#000020" d="M233.58,65.59L232.47,65.42L233.30,65.30L233.60,65.34z"/><path style="fill:#000020" d="M162.21,81.67L162.05,82.09L161.62,82.15L161.93,81.35L162.09,81.35z"/><path style="fill:#6c737e" d="M249.28,61.56L250.12,61.85L249.12,62.15L249.01,62.59L245.78,62.69L248.91,62.77L249.01,62.59L250.86,62.40L250.86,64.45L250.66,65.02L249.58,65.14L249.16,65.49L248.29,85.14L248.67,85.23L249.91,87.94L249.80,88.22L249.29,95.69L249.13,95.79L249.01,97.35L248.85,97.44L248.74,99.00L248.57,99.10L248.20,101.71L248.02,101.89L246.98,101.88L246.46,101.56L245.88,100.49L245.66,98.72L245.58,98.51L245.29,98.52L245.15,98.90L244.86,99.05L244.06,99.28L242.13,99.32L240.92,97.99L238.42,93.86L238.41,93.39L238.80,92.87L240.65,92.21L235.73,62.40L235.47,62.02L235.41,61.87L233.56,61.98L233.37,62.13L233.23,63.97L233.08,63.99L232.96,63.15L232.95,62.31L233.66,61.03L234.49,60.76L237.15,60.73z"/><path style="fill:#6c737e" d="M224.17,97.04L226.02,99.94L227.66,101.33L228.41,102.56L228.15,102.94L80.90,143.22L80.59,144.52L80.44,143.20L80.31,143.12L79.89,142.64L79.63,141.76L79.61,140.72L79.47,140.65L77.41,137.41L77.14,136.23L77.28,135.68L77.59,136.71L223.84,96.88z"/><path style="fill:#6c737e" d="M70.60,110.24L72.00,110.51L70.41,110.95L69.37,111.84L69.28,114.47L69.13,114.65L68.10,114.76L67.65,114.78L66.92,129.52L66.93,134.96L67.26,135.10L68.19,137.33L68.00,137.78L67.84,144.22L67.67,144.32L67.56,145.88L67.40,145.98L67.28,147.53L67.12,147.63L67.01,149.19L66.46,151.33L66.19,151.47L65.36,151.45L64.43,150.41L64.19,149.75L64.16,148.73L63.97,148.63L63.91,148.18L63.47,148.35L59.46,142.13L59.23,141.20L59.20,140.46L59.07,140.37L58.95,139.53L58.92,138.81L58.80,138.72L58.68,137.87L58.65,137.16L58.52,137.06L58.40,136.22L58.37,135.50L58.25,135.41L58.13,134.56L58.10,133.85L57.97,133.76L57.85,132.91L57.82,132.19L57.70,132.10L57.58,131.26L57.54,130.54L57.42,130.45L57.30,129.60L57.27,128.88L57.14,128.79L57.02,127.95L56.99,127.23L56.87,127.14L56.75,126.29L56.72,125.57L56.59,125.48L56.47,124.64L56.44,123.92L56.32,123.83L56.20,122.98L56.17,122.26L56.04,122.17L55.92,121.33L55.89,120.61L55.76,120.52L55.64,119.67L55.61,118.95L55.49,118.86L55.36,118.03L55.34,117.01L55.22,116.92L55.09,116.09L55.06,115.37L54.94,115.28L54.82,114.43L54.79,113.72L54.66,113.62L54.54,112.78L54.51,112.06L54.39,111.96L54.19,110.48L54.97,109.84L57.07,109.42L58.47,109.42z"/><path style="fill:#616871" d="M235.73,62.40L240.65,92.21L238.80,92.87L237.93,92.11L237.91,91.10L237.77,91.01L237.66,90.72L237.63,89.44L237.50,89.35L237.38,89.06L237.35,87.79L237.22,87.70L237.10,87.41L237.08,86.13L236.95,86.04L236.83,85.75L236.80,84.48L236.67,84.39L236.55,84.10L236.53,82.83L236.40,82.73L236.28,82.44L236.25,81.17L236.12,81.08L236.00,80.79L235.97,79.52L235.85,79.42L235.73,79.13L235.70,77.86L235.57,77.77L235.45,77.48L235.42,76.21L235.29,76.12L235.17,75.83L235.15,74.55L235.02,74.46L234.90,74.17L234.87,72.90L234.74,72.81L234.62,72.52L234.59,71.23L234.40,71.19L233.59,71.37L220.62,75.07L220.43,75.13L220.54,75.83L220.67,76.67L220.83,77.48L220.95,78.33L221.10,79.14L221.22,79.98L221.38,80.79L221.50,81.64L221.66,82.45L221.78,83.29L221.93,84.10L222.05,84.94L222.21,85.75L222.33,86.60L222.48,87.41L222.60,88.25L222.76,89.06L222.88,89.91L223.03,90.72L223.15,91.56L223.31,92.37L223.43,93.22L223.59,94.03L223.71,94.87L223.86,95.70L224.17,97.04L223.84,96.88L77.59,136.71L77.28,135.68L77.16,135.39L77.13,134.12L77.00,134.03L76.88,133.74L76.86,132.46L76.73,132.37L76.61,132.08L76.58,130.81L76.45,130.72L76.33,130.43L76.31,129.15L76.18,129.06L76.06,128.77L76.03,127.50L75.90,127.41L75.78,127.12L75.75,125.85L75.63,125.75L75.51,125.46L75.48,124.19L75.35,124.10L75.23,123.81L75.20,122.54L75.07,122.45L74.95,121.88L74.93,120.89L74.80,120.80L74.67,120.22L74.65,119.24L74.52,119.14L74.39,118.57L74.38,117.58L74.24,117.49L74.12,116.91L74.10,115.93L73.97,115.83L73.84,115.26L73.83,114.27L73.69,114.18L73.57,113.60L73.55,112.62L73.42,112.52L73.29,111.95L73.28,110.96L73.14,110.87L73.02,110.30L73.00,109.31L72.86,109.21L72.74,108.64L72.72,107.65L72.59,107.56L72.46,106.99L72.43,106.00L72.30,105.91L72.30,105.29L83.01,105.95L83.81,106.12L84.12,106.23L87.34,106.51L87.49,106.70L87.50,108.94L87.31,109.66L86.57,110.08L86.39,110.15L86.39,110.73L86.56,110.81L86.75,111.00L87.60,111.07L87.63,108.93L87.76,107.83L88.07,106.82L91.66,105.72L235.67,66.37L235.15,65.72L234.42,65.57L233.60,65.34L233.36,64.55L233.23,63.97L233.37,62.13L233.56,61.98L235.47,62.02z"/><path style="fill:#616871" d="M249.01,62.59L249.12,62.15L250.12,61.85L250.96,61.69L251.30,62.04L251.28,63.44L251.16,64.76L250.66,65.02L250.86,64.45L250.86,62.40z"/><path style="fill:#616871" d="M164.63,80.87L164.66,81.31L163.35,81.73L162.35,81.75L162.21,81.67L162.09,81.35L162.47,80.60z"/><path style="fill:#616871" d="M167.15,81.83L166.84,82.14L166.09,82.01L167.01,81.69z"/><path style="fill:#616871" d="M248.67,85.23L248.29,85.14L249.16,65.49L249.58,65.14z"/><path style="fill:#616871" d="M249.91,90.74L249.79,93.75L249.50,95.70L249.29,95.69L249.80,88.22z"/><path style="fill:#616871" d="M249.37,96.53L249.22,97.35L249.01,97.35L249.13,95.79L249.29,95.69z"/><path style="fill:#616871" d="M249.09,98.18L248.95,99.01L248.74,99.00L248.85,97.44L249.01,97.35z"/><path style="fill:#616871" d="M248.81,99.83L248.67,101.14L248.20,101.71L248.57,99.10L248.74,99.00z"/><path style="fill:#616871" d="M216.94,109.28L216.02,109.28L206.99,111.86L204.53,114.08L202.98,114.51L201.84,114.52L200.39,113.68L190.72,116.27L188.56,118.24L187.08,118.96L185.23,118.93L184.45,118.29L184.39,118.14L183.11,118.26L174.45,120.67L172.29,122.66L170.81,123.38L168.93,123.38L167.94,122.66L167.84,122.51L167.11,122.65L157.83,125.29L155.76,127.35L154.53,127.78L152.41,127.77L151.67,127.07L151.57,126.93L150.84,127.06L141.56,129.70L139.61,131.62L138.34,132.27L136.68,132.50L135.32,131.61L134.40,131.63L125.29,134.11L123.22,136.18L121.36,136.85L120.23,136.83L119.04,136.03L118.12,136.03L109.01,138.52L106.63,140.83L105.08,141.26L103.94,141.26L102.50,140.43L92.83,143.02L90.52,145.12L88.90,145.70L87.34,145.68L86.55,145.04L86.49,144.89L85.19,144.98L82.63,145.78L80.32,146.09L80.29,145.63L80.59,144.52L80.90,143.22L228.15,102.94L228.41,102.56L228.56,105.08L228.35,105.85L228.17,106.01L223.18,107.36L221.11,109.43L219.26,110.10L218.13,110.08z"/><path style="fill:#616871" d="M72.21,110.80L69.87,111.77L69.69,112.49L69.56,114.19L69.28,114.47L69.37,111.84L70.41,110.95L72.00,110.51z"/><path style="fill:#616871" d="M67.93,115.35L67.07,133.20L67.26,135.10L66.93,134.96L66.92,129.52L67.65,114.78L68.10,114.76z"/><path style="fill:#616871" d="M68.00,137.78L68.19,137.33L68.31,137.43L68.18,142.58L68.05,144.23L67.84,144.22z"/><path style="fill:#616871" d="M67.91,145.06L67.77,145.89L67.56,145.88L67.67,144.32L67.84,144.22z"/><path style="fill:#616871" d="M67.64,146.71L67.49,147.54L67.28,147.53L67.40,145.98L67.56,145.88z"/><path style="fill:#616871" d="M67.36,148.37L67.22,149.20L67.01,149.19L67.12,147.63L67.28,147.53z"/><path style="fill:#616871" d="M67.08,150.03L66.95,151.07L66.46,151.33L67.01,149.19z"/><path style="fill:#ffffff" d="M199.73,80.84L201.96,80.07L204.60,79.45L204.56,79.68L204.37,80.51L203.97,81.26L202.80,82.29L200.92,82.29L200.13,81.70z"/><path style="fill:#ffffff" d="M215.30,85.56L216.23,87.15L216.41,87.95L216.41,88.53L216.24,89.33L215.87,90.20L215.55,90.62L214.27,91.60L213.17,91.60L211.99,90.81L211.17,89.09L211.17,87.67L212.26,85.68L213.53,85.00z"/><path style="fill:#ffffff" d="M183.72,86.05L183.86,86.87L184.01,87.70L183.72,89.34L183.84,89.73L184.45,90.14L184.54,91.02L184.69,91.83L184.82,92.67L184.97,93.48L185.10,94.33L185.25,95.14L185.26,95.46L184.92,95.85L184.94,96.88L185.63,97.63L185.81,98.43L185.92,99.30L186.08,100.09L186.20,100.95L186.36,101.75L186.42,103.09L185.75,103.84L182.10,104.92L181.40,104.90L181.17,104.75L181.07,104.59L180.35,104.73L179.68,105.50L176.03,106.57L175.33,106.54L174.67,106.07L174.49,105.35L174.47,104.61L174.34,104.52L174.22,103.68L174.19,102.96L174.07,102.87L173.95,102.03L173.90,101.29L173.78,101.20L174.08,100.11L174.21,99.37L174.07,99.27L173.45,98.67L173.24,97.91L173.12,97.06L173.09,96.34L172.97,96.25L172.85,95.41L172.81,94.69L172.68,94.59L172.84,91.91L172.27,91.37L172.01,90.46L171.99,89.72L171.86,89.63L171.76,88.77L171.80,88.31L183.61,85.17z"/><path style="fill:#ffffff" d="M205.99,88.85L206.34,89.61L206.56,89.95L206.51,91.86L205.91,93.12L204.73,94.15L203.13,94.14L202.03,93.32L201.47,92.22L201.48,90.07L202.33,88.44L203.61,87.77L204.53,87.76z"/><path style="fill:#ffffff" d="M195.43,90.81L196.63,92.43L196.68,93.20L196.69,94.05L196.30,95.44L195.97,95.86L194.80,96.91L193.48,96.90L192.40,96.32L191.82,95.53L191.46,93.30L192.54,91.05L193.39,90.53L194.89,90.53z"/><path style="fill:#ffffff" d="M165.79,90.42L165.94,91.27L166.07,92.12L166.21,92.93L166.34,93.77L166.49,94.59L166.62,95.43L166.76,96.24L166.89,97.08L167.04,97.90L167.17,98.74L167.32,99.55L167.45,100.39L167.59,101.20L167.72,102.05L167.87,102.86L168.00,103.71L168.15,104.50L168.28,105.34L168.27,107.01L167.60,107.76L163.99,110.22L136.80,117.82L134.84,117.81L132.09,117.53L131.16,116.49L130.93,115.82L130.90,115.09L130.77,115.00L130.65,114.16L130.62,113.44L130.50,113.35L130.38,112.50L130.35,111.78L130.22,111.69L130.10,110.85L130.07,110.13L129.95,110.04L129.83,109.19L129.80,108.48L129.67,108.38L129.55,107.54L129.52,106.82L129.39,106.73L129.27,105.89L129.24,105.17L129.12,105.08L129.00,104.23L128.97,103.51L128.84,103.42L128.73,102.30L128.69,101.58L128.57,101.49L128.46,100.63L128.51,100.16L165.66,89.99z"/><path style="fill:#ffffff" d="M122.49,102.58L122.64,103.41L122.79,104.25L122.72,105.01L122.55,105.18L122.64,106.17L123.28,106.77L123.32,107.55L123.47,108.38L123.60,109.22L123.75,110.03L123.87,110.87L124.03,111.69L124.06,112.27L123.74,112.77L123.62,112.88L123.76,113.61L124.41,114.17L124.57,114.99L124.70,115.84L124.85,116.65L124.98,117.49L125.12,118.30L125.28,119.15L125.11,119.89L124.46,120.60L121.44,121.44L120.15,121.42L119.39,121.34L118.95,121.42L118.79,121.89L118.53,122.12L115.37,123.09L113.79,123.08L113.53,122.81L113.28,121.89L113.25,121.16L113.12,121.07L113.00,120.23L112.97,119.51L112.85,119.42L112.73,118.57L112.69,117.84L112.58,117.77L112.85,116.95L112.99,115.90L112.84,115.82L112.19,115.26L111.90,113.62L111.87,112.60L111.75,112.51L111.63,111.68L111.59,110.96L111.46,110.86L111.58,109.64L111.87,108.99L111.02,107.66L110.80,106.73L110.76,105.99L110.62,105.88L110.66,105.15L118.13,102.96L122.46,101.82z"/><path style="fill:#ffffff" d="M84.10,109.81L84.43,110.62L84.61,111.11L84.61,112.54L84.43,113.03L84.05,113.91L83.74,114.35L82.56,115.10L81.25,115.10L80.14,114.28L79.58,113.18L79.59,110.75L80.73,109.13L81.43,108.73L82.65,108.73z"/><path style="fill:#ffffff" d="M89.56,111.13L89.88,110.62L94.25,109.46L94.38,110.02L93.99,111.15L93.56,111.75L92.11,112.58L91.29,112.56L89.82,111.50z"/><path style="fill:#ffffff" d="M105.27,115.89L106.12,117.17L106.23,117.75L106.23,118.87L106.17,119.64L105.53,120.70L104.24,121.66L103.11,121.68L101.65,120.62L101.09,119.24L100.97,118.31L101.30,116.99L102.65,115.36L103.11,115.20L104.52,115.21z"/><path style="fill:#ffffff" d="M95.65,118.62L96.27,119.98L96.46,120.76L96.45,121.35L96.28,122.14L95.91,123.01L95.59,123.44L94.70,124.21L92.82,124.21L92.03,123.62L91.21,121.91L91.23,120.24L92.03,118.78L92.75,118.12L94.22,117.81z"/><path style="fill:#ffffff" d="M85.12,120.87L86.26,122.14L86.50,122.81L86.55,124.67L85.84,126.10L84.49,126.96L83.17,126.97L81.82,125.83L81.52,125.03L81.52,122.88L82.37,121.26L83.36,120.59L84.58,120.59z"/><path style="fill:#00001c" d="M235.47,62.02L233.56,61.98L235.41,61.87z"/><path style="fill:#00001c" d="M234.42,65.57L233.58,65.59L233.60,65.34z"/><path style="fill:#00001c" d="M164.66,81.31L164.63,80.87L166.22,80.90z"/><path style="fill:#00001c" d="M166.84,82.14L167.15,81.83L167.60,82.00z"/><path style="fill:#00001c" d="M171.06,88.31L171.80,88.31L171.76,88.77z"/><path style="fill:#00001c" d="M127.76,100.16L128.51,100.16L128.46,100.63z"/><path style="fill:#00001c" d="M87.76,107.83L87.63,108.93L87.50,108.94L87.49,106.70z"/><path style="fill:#00001c" d="M86.56,110.81L86.39,110.73L86.39,110.15L86.57,110.08z"/><path style="fill:#000020" d="M250.96,61.69L250.12,61.85L249.28,61.56z"/><path style="fill:#000020" d="M248.91,62.77L245.78,62.69L249.01,62.59z"/><path style="fill:#000020" d="M251.28,63.44L251.30,62.04L251.42,62.12z"/><path style="fill:#000020" d="M234.66,64.22L234.19,64.16L234.19,63.82L234.42,63.74z"/><path style="fill:#000020" d="M233.36,64.55L233.24,64.81L233.08,63.99L233.23,63.97z"/><path style="fill:#000020" d="M233.59,71.37L234.40,71.19L234.37,71.66z"/><path style="fill:#000020" d="M234.74,72.81L234.60,73.35L234.45,72.54L234.62,72.52z"/><path style="fill:#000020" d="M235.02,74.46L234.88,75.01L234.73,74.19L234.90,74.17z"/><path style="fill:#000020" d="M248.13,75.20L247.83,74.75L247.97,74.46L248.13,74.55z"/><path style="fill:#000020" d="M220.54,75.83L220.43,75.13L220.62,75.07z"/><path style="fill:#000020" d="M235.29,76.12L235.15,76.66L235.01,75.85L235.17,75.83z"/><path style="fill:#000020" d="M236.79,77.12L236.42,77.12L236.42,76.75L236.79,76.75z"/><path style="fill:#000020" d="M220.83,77.48L220.67,76.67L220.80,76.76z"/><path style="fill:#000020" d="M235.57,77.77L235.43,78.32L235.28,77.50L235.45,77.48z"/><path style="fill:#000020" d="M209.52,78.31L209.37,77.87L209.83,77.80z"/><path style="fill:#000020" d="M221.10,79.14L220.95,78.33L221.07,78.42z"/><path style="fill:#000020" d="M235.85,79.42L235.71,79.97L235.56,79.16L235.73,79.13z"/><path style="fill:#000020" d="M212.25,79.89L211.21,79.77L212.34,79.74z"/><path style="fill:#000020" d="M204.69,80.25L204.37,80.51L204.56,79.68z"/><path style="fill:#000020" d="M221.38,80.79L221.22,79.98L221.35,80.07z"/><path style="fill:#000020" d="M236.12,81.08L235.98,81.62L235.84,80.81L236.00,80.79z"/><path style="fill:#000020" d="M219.97,81.22L220.27,81.19L220.27,81.79L219.97,81.76z"/><path style="fill:#000020" d="M221.66,82.45L221.50,81.64L221.63,81.73z"/><path style="fill:#000020" d="M236.40,82.73L236.26,83.28L236.11,82.47L236.28,82.44z"/><path style="fill:#000020" d="M158.19,83.49L157.68,83.28L158.28,83.05z"/><path style="fill:#000020" d="M221.93,84.10L221.78,83.29L221.90,83.38z"/><path style="fill:#000020" d="M236.67,84.39L236.53,84.93L236.39,84.12L236.55,84.10z"/><path style="fill:#000020" d="M222.21,85.75L222.05,84.94L222.18,85.04z"/><path style="fill:#000020" d="M236.95,86.04L236.81,86.59L236.66,85.78L236.83,85.75z"/><path style="fill:#000020" d="M184.00,86.32L183.86,86.87L183.72,86.05L183.89,86.03z"/><path style="fill:#000020" d="M144.48,86.81L145.06,86.67L144.99,87.03z"/><path style="fill:#000020" d="M222.48,87.41L222.33,86.60L222.45,86.69z"/><path style="fill:#000020" d="M216.54,87.41L216.41,87.95L216.23,87.15z"/><path style="fill:#000020" d="M237.22,87.70L237.09,88.24L236.94,87.43L237.10,87.41z"/><path style="fill:#000020" d="M222.76,89.06L222.60,88.25L222.73,88.34z"/><path style="fill:#000020" d="M216.56,89.08L216.43,89.37L216.24,89.33L216.41,88.53z"/><path style="fill:#000020" d="M135.04,89.73L134.51,89.74L133.75,89.56L134.88,89.41z"/><path style="fill:#000020" d="M237.50,89.35L237.36,89.90L237.21,89.09L237.38,89.06z"/><path style="fill:#000020" d="M239.00,90.36L238.63,90.36L238.63,89.99L239.00,89.99z"/><path style="fill:#000020" d="M172.01,90.46L171.86,89.63L171.99,89.72z"/><path style="fill:#000020" d="M249.91,90.74L249.80,88.22L249.91,87.94L250.04,88.04z"/><path style="fill:#000020" d="M223.03,90.72L222.88,89.91L223.00,90.00z"/><path style="fill:#000020" d="M166.07,90.72L165.94,91.27L165.79,90.42z"/><path style="fill:#000020" d="M237.77,91.01L237.63,91.58L237.49,90.74L237.66,90.72z"/><path style="fill:#000020" d="M214.18,91.74L213.17,91.60L214.27,91.60z"/><path style="fill:#000020" d="M184.83,91.28L184.69,91.83L184.54,91.02L184.71,90.99z"/><path style="fill:#000020" d="M223.31,92.37L223.15,91.56L223.28,91.65z"/><path style="fill:#000020" d="M166.35,92.39L166.21,92.93L166.07,92.12L166.23,92.10z"/><path style="fill:#000020" d="M185.10,92.94L184.97,93.48L184.82,92.67L184.98,92.65z"/><path style="fill:#000020" d="M223.59,94.03L223.43,93.22L223.56,93.31z"/><path style="fill:#000020" d="M196.84,94.05L196.69,94.05L196.68,93.20L196.85,93.19z"/><path style="fill:#000020" d="M166.63,94.04L166.49,94.59L166.34,93.77L166.51,93.75z"/><path style="fill:#000020" d="M222.45,94.77L222.08,94.77L222.08,94.40L222.45,94.40z"/><path style="fill:#000020" d="M185.38,94.88L185.25,95.14L185.10,94.33L185.25,94.30z"/><path style="fill:#000020" d="M172.85,95.41L172.68,94.59L172.81,94.69z"/><path style="fill:#000020" d="M223.86,95.70L223.71,94.87L223.83,94.96z"/><path style="fill:#000020" d="M166.90,95.69L166.76,96.24L166.62,95.43L166.78,95.40z"/><path style="fill:#000020" d="M249.37,96.53L249.29,95.69L249.50,95.70z"/><path style="fill:#000020" d="M173.12,97.06L172.97,96.25L173.09,96.34z"/><path style="fill:#000020" d="M167.18,97.35L167.04,97.90L166.89,97.08L167.06,97.06z"/><path style="fill:#000020" d="M249.09,98.18L249.01,97.35L249.22,97.35z"/><path style="fill:#000020" d="M185.93,98.16L185.81,98.43L185.63,97.63z"/><path style="fill:#000020" d="M173.45,98.67L173.28,98.62L173.24,97.91z"/><path style="fill:#000020" d="M167.46,99.00L167.32,99.55L167.17,98.74L167.34,98.71z"/><path style="fill:#000020" d="M248.81,99.83L248.74,99.00L248.95,99.01z"/><path style="fill:#000020" d="M186.20,99.84L186.08,100.09L185.92,99.30L186.08,99.27z"/><path style="fill:#000020" d="M174.08,100.11L174.07,99.27L174.21,99.37z"/><path style="fill:#000020" d="M167.73,100.66L167.59,101.20L167.45,100.39L167.61,100.37z"/><path style="fill:#000020" d="M186.48,101.49L186.36,101.75L186.20,100.95L186.36,100.92z"/><path style="fill:#000020" d="M173.95,102.03L173.78,101.20L173.90,101.29z"/><path style="fill:#000020" d="M128.73,102.30L128.57,101.49L128.69,101.58z"/><path style="fill:#000020" d="M168.01,102.31L167.87,102.86L167.72,102.05L167.89,102.02z"/><path style="fill:#000020" d="M122.78,102.86L122.64,103.41L122.49,102.58L122.68,102.55z"/><path style="fill:#000020" d="M174.22,103.68L174.07,102.87L174.19,102.96z"/><path style="fill:#000020" d="M129.00,104.23L128.84,103.42L128.97,103.51z"/><path style="fill:#000020" d="M168.28,104.25L168.15,104.50L168.00,103.71L168.15,103.68z"/><path style="fill:#000020" d="M181.17,104.75L180.35,104.73L181.07,104.59z"/><path style="fill:#000020" d="M122.91,105.04L122.72,105.01L122.79,104.25L122.94,104.25z"/><path style="fill:#000020" d="M174.49,105.35L174.34,104.52L174.47,104.61z"/><path style="fill:#000020" d="M228.62,105.36L228.35,105.85L228.56,105.08z"/><path style="fill:#000020" d="M129.27,105.89L129.12,105.08L129.24,105.17z"/><path style="fill:#000020" d="M110.80,106.73L110.62,105.88L110.76,105.99z"/><path style="fill:#000020" d="M168.56,105.89L168.55,106.73L168.27,107.01L168.28,105.34L168.43,105.33z"/><path style="fill:#000020" d="M129.55,107.54L129.39,106.73L129.52,106.82z"/><path style="fill:#000020" d="M72.59,107.56L72.46,107.81L72.31,107.02L72.46,106.99z"/><path style="fill:#000020" d="M123.61,107.83L123.47,108.38L123.32,107.55L123.50,107.52z"/><path style="fill:#000020" d="M129.83,109.19L129.67,108.38L129.80,108.48z"/><path style="fill:#000020" d="M72.86,109.21L72.74,109.47L72.58,108.67L72.74,108.64z"/><path style="fill:#000020" d="M123.88,109.48L123.75,110.03L123.60,109.22L123.76,109.19z"/><path style="fill:#000020" d="M94.54,110.04L94.38,110.02L94.25,109.46L94.74,109.23z"/><path style="fill:#000020" d="M219.14,110.22L218.13,110.08L219.26,110.10z"/><path style="fill:#000020" d="M130.10,110.85L129.95,110.04L130.07,110.13z"/><path style="fill:#000020" d="M89.56,111.13L89.41,110.68L89.88,110.62z"/><path style="fill:#000020" d="M73.14,110.87L73.02,111.12L72.86,110.33L73.02,110.30z"/><path style="fill:#000020" d="M124.16,111.14L124.03,111.69L123.87,110.87L124.04,110.85z"/><path style="fill:#000020" d="M111.63,111.68L111.46,110.86L111.59,110.96z"/><path style="fill:#000020" d="M130.38,112.50L130.22,111.69L130.35,111.78z"/><path style="fill:#000020" d="M92.00,112.71L91.29,112.56L92.11,112.58z"/><path style="fill:#000020" d="M73.42,112.52L73.29,112.78L73.13,111.98L73.29,111.95z"/><path style="fill:#000020" d="M54.54,112.78L54.39,111.96L54.51,112.06z"/><path style="fill:#000020" d="M123.76,113.61L123.62,112.88L123.74,112.77z"/><path style="fill:#000020" d="M111.90,113.62L111.75,112.51L111.87,112.60z"/><path style="fill:#000020" d="M130.65,114.16L130.50,113.35L130.62,113.44z"/><path style="fill:#000020" d="M73.69,114.18L73.57,114.43L73.41,113.63L73.57,113.60z"/><path style="fill:#000020" d="M54.82,114.43L54.66,113.62L54.79,113.72z"/><path style="fill:#000020" d="M124.72,114.43L124.57,114.99L124.41,114.17z"/><path style="fill:#000020" d="M130.93,115.82L130.77,115.00L130.90,115.09z"/><path style="fill:#000020" d="M73.97,115.83L73.84,116.09L73.68,115.29L73.84,115.26z"/><path style="fill:#000020" d="M55.09,116.09L54.94,115.28L55.06,115.37z"/><path style="fill:#000020" d="M124.99,116.10L124.85,116.65L124.70,115.84L124.87,115.81z"/><path style="fill:#000020" d="M112.85,116.95L112.84,115.82L112.99,115.90z"/><path style="fill:#000020" d="M74.24,117.49L74.12,117.74L73.96,116.94L74.12,116.91z"/><path style="fill:#000020" d="M55.36,118.03L55.22,116.92L55.34,117.01z"/><path style="fill:#000020" d="M184.45,118.29L183.11,118.26L184.39,118.14z"/><path style="fill:#000020" d="M125.26,117.75L125.12,118.30L124.98,117.49L125.14,117.47z"/><path style="fill:#000020" d="M112.73,118.57L112.58,117.77L112.69,117.84z"/><path style="fill:#000020" d="M128.97,118.76L128.60,118.76L128.60,118.39L128.97,118.39z"/><path style="fill:#000020" d="M106.40,118.88L106.23,118.87L106.23,117.75L106.40,117.73z"/><path style="fill:#000020" d="M74.52,119.14L74.40,119.39L74.24,118.60L74.39,118.57z"/><path style="fill:#000020" d="M55.64,119.67L55.49,118.86L55.61,118.95z"/><path style="fill:#000020" d="M146.09,120.04L145.49,120.04L145.42,119.74L145.79,119.74z"/><path style="fill:#000020" d="M113.00,120.23L112.85,119.42L112.97,119.51z"/><path style="fill:#000020" d="M96.59,120.22L96.46,120.76L96.27,119.98z"/><path style="fill:#000020" d="M74.80,120.80L74.67,121.05L74.51,120.25L74.67,120.22z"/><path style="fill:#000020" d="M55.92,121.33L55.76,120.52L55.89,120.61z"/><path style="fill:#000020" d="M113.28,121.89L113.12,121.07L113.25,121.16z"/><path style="fill:#000020" d="M104.15,121.80L103.11,121.68L104.24,121.66z"/><path style="fill:#000020" d="M96.60,121.90L96.47,122.18L96.28,122.14L96.45,121.35z"/><path style="fill:#000020" d="M167.94,122.66L167.11,122.65L167.84,122.51z"/><path style="fill:#000020" d="M75.07,122.45L74.95,122.70L74.79,121.91L74.95,121.88z"/><path style="fill:#000020" d="M56.20,122.98L56.04,122.17L56.17,122.26z"/><path style="fill:#000020" d="M75.35,124.10L75.21,124.64L75.06,123.83L75.23,123.81z"/><path style="fill:#000020" d="M56.47,124.64L56.32,123.83L56.44,123.92z"/><path style="fill:#000020" d="M75.63,125.75L75.49,126.30L75.34,125.49L75.51,125.46z"/><path style="fill:#000020" d="M56.75,126.29L56.59,125.48L56.72,125.57z"/><path style="fill:#000020" d="M154.28,126.36L154.59,126.41L154.65,126.73L154.33,126.67z"/><path style="fill:#000020" d="M151.67,127.07L150.84,127.06L151.57,126.93z"/><path style="fill:#000020" d="M75.90,127.41L75.76,127.95L75.62,127.14L75.78,127.12z"/><path style="fill:#000020" d="M57.02,127.95L56.87,127.14L56.99,127.23z"/><path style="fill:#000020" d="M76.18,129.06L76.04,129.61L75.89,128.80L76.06,128.77z"/><path style="fill:#000020" d="M57.30,129.60L57.14,128.79L57.27,128.88z"/><path style="fill:#000020" d="M80.71,130.35L80.34,130.35L80.34,129.98L80.71,129.98z"/><path style="fill:#000020" d="M76.45,130.72L76.31,131.26L76.17,130.45L76.33,130.43z"/><path style="fill:#000020" d="M57.58,131.26L57.42,130.45L57.54,130.54z"/><path style="fill:#000020" d="M76.73,132.37L76.59,132.92L76.44,132.11L76.61,132.08z"/><path style="fill:#000020" d="M57.85,132.91L57.70,132.10L57.82,132.19z"/><path style="fill:#000020" d="M77.00,134.03L76.87,134.57L76.72,133.76L76.88,133.74z"/><path style="fill:#000020" d="M58.13,134.56L57.97,133.76L58.10,133.85z"/><path style="fill:#000020" d="M77.28,135.68L77.14,136.23L76.99,135.41L77.16,135.39z"/><path style="fill:#000020" d="M58.40,136.22L58.25,135.41L58.37,135.50z"/><path style="fill:#000020" d="M121.25,136.97L120.23,136.83L121.36,136.85z"/><path style="fill:#000020" d="M58.68,137.87L58.52,137.06L58.65,137.16z"/><path style="fill:#000020" d="M58.95,139.53L58.80,138.72L58.92,138.81z"/><path style="fill:#000020" d="M59.23,141.20L59.07,140.37L59.20,140.46z"/><path style="fill:#000020" d="M79.63,141.76L79.47,140.65L79.61,140.72z"/><path style="fill:#000020" d="M89.36,144.74L88.98,144.99L88.87,144.61L89.06,144.45z"/><path style="fill:#000020" d="M86.55,145.04L85.19,144.98L86.49,144.89z"/><path style="fill:#000020" d="M67.91,145.06L67.84,144.22L68.05,144.23z"/><path style="fill:#000020" d="M80.59,144.52L80.29,145.63L80.31,143.12L80.44,143.20z"/><path style="fill:#000020" d="M67.64,146.71L67.56,145.88L67.77,145.89z"/><path style="fill:#000020" d="M67.36,148.37L67.28,147.53L67.49,147.54z"/><path style="fill:#000020" d="M65.80,149.70L65.31,149.46L65.40,149.19L65.59,149.28z"/><path style="fill:#000020" d="M64.19,149.75L63.97,148.63L64.16,148.73z"/><path style="fill:#000020" d="M67.08,150.03L67.01,149.19L67.22,149.20z"/><path style="fill:#000020" d="M66.07,151.61L65.36,151.45L66.19,151.47z"/><path style="fill:#6c737e" d="M234.42,63.74L234.89,63.80L234.89,64.14L234.66,64.22z"/><path style="fill:#6c737e" d="M233.60,65.34L233.30,65.30L233.24,64.81L233.36,64.55z"/><path style="fill:#6c737e" d="M234.62,72.52L234.45,72.54L234.37,71.66L234.40,71.19L234.59,71.23z"/><path style="fill:#6c737e" d="M234.90,74.17L234.73,74.19L234.60,73.35L234.74,72.81L234.87,72.90z"/><path style="fill:#6c737e" d="M235.17,75.83L235.01,75.85L234.88,75.01L235.02,74.46L235.15,74.55z"/><path style="fill:#6c737e" d="M235.45,77.48L235.28,77.50L235.15,76.66L235.29,76.12L235.42,76.21z"/><path style="fill:#6c737e" d="M214.55,77.50L214.17,78.48L213.94,78.34L214.36,77.18z"/><path style="fill:#6c737e" d="M235.73,79.13L235.56,79.16L235.43,78.32L235.57,77.77L235.70,77.86z"/><path style="fill:#6c737e" d="M204.93,79.70L204.69,80.25L204.56,79.68L204.60,79.45z"/><path style="fill:#6c737e" d="M236.00,80.79L235.84,80.81L235.71,79.97L235.85,79.42L235.97,79.52z"/><path style="fill:#6c737e" d="M236.28,82.44L236.11,82.47L235.98,81.62L236.12,81.08L236.25,81.17z"/><path style="fill:#6c737e" d="M194.90,83.21L194.59,83.72L194.36,83.58L194.70,82.22L194.88,82.27z"/><path style="fill:#6c737e" d="M236.55,84.10L236.39,84.12L236.26,83.28L236.40,82.73L236.53,82.83z"/><path style="fill:#6c737e" d="M236.83,85.75L236.66,85.78L236.53,84.93L236.67,84.39L236.80,84.48z"/><path style="fill:#6c737e" d="M183.89,86.03L183.72,86.05L183.61,85.17L183.88,85.02z"/><path style="fill:#6c737e" d="M237.10,87.41L236.94,87.43L236.81,86.59L236.95,86.04L237.08,86.13z"/><path style="fill:#6c737e" d="M184.01,87.70L183.86,86.87L184.00,86.32L184.13,86.41z"/><path style="fill:#6c737e" d="M237.38,89.06L237.21,89.09L237.09,88.24L237.22,87.70L237.35,87.79z"/><path style="fill:#6c737e" d="M216.56,89.08L216.41,88.53L216.41,87.95L216.54,87.41L216.67,87.48z"/><path style="fill:#6c737e" d="M206.50,89.16L206.34,89.61L205.99,88.85z"/><path style="fill:#6c737e" d="M216.10,90.34L215.87,90.20L216.24,89.33L216.43,89.37z"/><path style="fill:#6c737e" d="M237.66,90.72L237.49,90.74L237.36,89.90L237.50,89.35L237.63,89.44z"/><path style="fill:#6c737e" d="M184.71,90.99L184.54,91.02L184.45,90.14L184.69,89.99z"/><path style="fill:#6c737e" d="M237.93,92.11L237.63,91.58L237.77,91.01L237.91,91.10z"/><path style="fill:#6c737e" d="M206.74,92.01L206.51,91.86L206.56,89.95L206.70,90.01z"/><path style="fill:#6c737e" d="M166.23,92.10L166.07,92.12L165.94,91.27L166.07,90.72L166.21,90.80z"/><path style="fill:#6c737e" d="M184.98,92.65L184.82,92.67L184.69,91.83L184.83,91.28L184.96,91.38z"/><path style="fill:#6c737e" d="M196.85,93.19L196.68,93.20L196.63,92.43L196.80,92.48z"/><path style="fill:#6c737e" d="M166.51,93.75L166.34,93.77L166.21,92.93L166.35,92.39L166.48,92.48z"/><path style="fill:#6c737e" d="M185.25,94.30L185.10,94.33L184.97,93.48L185.10,92.94L185.23,93.03z"/><path style="fill:#6c737e" d="M166.78,95.40L166.62,95.43L166.49,94.59L166.63,94.04L166.76,94.13z"/><path style="fill:#6c737e" d="M196.82,95.08L196.52,95.58L196.30,95.44L196.69,94.05L196.84,94.05z"/><path style="fill:#6c737e" d="M185.53,95.58L185.26,95.46L185.25,95.14L185.38,94.88L185.53,95.00z"/><path style="fill:#6c737e" d="M167.06,97.06L166.89,97.08L166.76,96.24L166.90,95.69L167.03,95.79z"/><path style="fill:#6c737e" d="M167.34,98.71L167.17,98.74L167.04,97.90L167.18,97.35L167.31,97.44z"/><path style="fill:#6c737e" d="M186.08,99.27L185.92,99.30L185.81,98.43L185.93,98.16L186.07,98.26z"/><path style="fill:#6c737e" d="M170.33,99.74L169.96,99.74L169.96,99.37L170.33,99.37z"/><path style="fill:#6c737e" d="M190.68,99.88L191.00,99.94L191.05,100.25L190.73,100.20z"/><path style="fill:#6c737e" d="M167.61,100.37L167.45,100.39L167.32,99.55L167.46,99.00L167.58,99.10z"/><path style="fill:#6c737e" d="M186.36,100.92L186.20,100.95L186.08,100.09L186.20,99.84L186.34,99.93z"/><path style="fill:#6c737e" d="M167.89,102.02L167.72,102.05L167.59,101.20L167.73,100.66L167.86,100.75z"/><path style="fill:#6c737e" d="M122.68,102.55L122.49,102.58L122.46,101.82L122.62,101.83z"/><path style="fill:#6c737e" d="M186.58,103.04L186.42,103.09L186.36,101.75L186.48,101.49L186.61,101.58z"/><path style="fill:#6c737e" d="M168.15,103.68L168.00,103.71L167.87,102.86L168.01,102.31L168.14,102.40z"/><path style="fill:#6c737e" d="M122.94,104.25L122.79,104.25L122.64,103.41L122.78,102.86L122.91,102.96z"/><path style="fill:#6c737e" d="M168.43,105.33L168.28,105.34L168.15,104.50L168.28,104.25L168.42,104.34z"/><path style="fill:#6c737e" d="M122.64,106.17L122.55,105.18L122.72,105.01L122.91,105.04z"/><path style="fill:#6c737e" d="M168.55,106.73L168.56,105.89L168.69,106.01z"/><path style="fill:#6c737e" d="M72.46,106.99L72.31,107.02L72.18,106.16L72.30,105.91L72.43,106.00z"/><path style="fill:#6c737e" d="M123.50,107.52L123.32,107.55L123.28,106.77L123.44,106.82z"/><path style="fill:#6c737e" d="M104.45,107.71L104.19,107.55L104.30,106.97L104.45,107.08z"/><path style="fill:#6c737e" d="M72.74,108.64L72.58,108.67L72.46,107.81L72.59,107.56L72.72,107.65z"/><path style="fill:#6c737e" d="M123.76,109.19L123.60,109.22L123.47,108.38L123.61,107.83L123.74,107.92z"/><path style="fill:#6c737e" d="M84.62,110.11L84.43,110.62L84.10,109.81z"/><path style="fill:#6c737e" d="M73.02,110.30L72.86,110.33L72.74,109.47L72.86,109.21L73.00,109.31z"/><path style="fill:#6c737e" d="M124.04,110.85L123.87,110.87L123.75,110.03L123.88,109.48L124.01,109.57z"/><path style="fill:#6c737e" d="M86.56,110.81L86.57,110.08L87.31,109.66L87.50,108.94L87.63,108.93L87.60,111.07L86.75,111.00z"/><path style="fill:#6c737e" d="M127.50,110.92L127.85,110.94L127.90,111.59L127.58,111.54z"/><path style="fill:#6c737e" d="M94.58,110.31L94.21,111.30L93.99,111.15L94.38,110.02L94.54,110.04z"/><path style="fill:#6c737e" d="M73.29,111.95L73.13,111.98L73.02,111.12L73.14,110.87L73.28,110.96z"/><path style="fill:#6c737e" d="M124.29,112.42L124.06,112.27L124.03,111.69L124.16,111.14L124.29,111.22z"/><path style="fill:#6c737e" d="M84.85,112.70L84.61,112.54L84.61,111.11L84.85,110.95z"/><path style="fill:#6c737e" d="M203.70,113.52L203.33,113.52L203.33,113.16L203.70,113.16z"/><path style="fill:#6c737e" d="M73.57,113.60L73.41,113.63L73.29,112.78L73.42,112.52L73.55,112.62z"/><path style="fill:#6c737e" d="M84.63,113.32L84.28,114.06L84.05,113.91L84.43,113.03z"/><path style="fill:#6c737e" d="M73.84,115.26L73.68,115.29L73.57,114.43L73.69,114.18L73.83,114.27z"/><path style="fill:#6c737e" d="M124.87,115.81L124.70,115.84L124.57,114.99L124.72,114.43L124.85,114.51z"/><path style="fill:#6c737e" d="M74.12,116.91L73.96,116.94L73.84,116.09L73.97,115.83L74.10,115.93z"/><path style="fill:#6c737e" d="M125.14,117.47L124.98,117.49L124.85,116.65L124.99,116.10L125.12,116.19z"/><path style="fill:#6c737e" d="M187.09,117.53L187.41,117.59L187.46,117.90L187.15,117.85z"/><path style="fill:#6c737e" d="M106.40,117.73L106.23,117.75L106.12,117.17L106.37,117.02z"/><path style="fill:#6c737e" d="M74.39,118.57L74.24,118.60L74.12,117.74L74.24,117.49L74.38,117.58z"/><path style="fill:#6c737e" d="M125.28,119.15L125.12,118.30L125.26,117.75L125.39,117.85z"/><path style="fill:#6c737e" d="M106.46,119.17L106.17,119.64L106.23,118.87L106.40,118.88z"/><path style="fill:#6c737e" d="M74.67,120.22L74.51,120.25L74.40,119.39L74.52,119.14L74.65,119.24z"/><path style="fill:#6c737e" d="M75.93,120.57L76.28,120.59L76.33,121.24L76.01,121.19z"/><path style="fill:#6c737e" d="M96.60,121.90L96.45,121.35L96.46,120.76L96.59,120.22L96.72,120.30z"/><path style="fill:#6c737e" d="M74.95,121.88L74.79,121.91L74.67,121.05L74.80,120.80L74.93,120.89z"/><path style="fill:#6c737e" d="M170.82,121.95L171.14,122.00L171.19,122.31L170.88,122.26z"/><path style="fill:#6c737e" d="M119.04,122.06L118.79,121.89L118.95,121.42L119.39,121.34z"/><path style="fill:#6c737e" d="M86.79,122.50L86.79,124.83L86.55,124.67L86.50,122.81L86.26,122.14L86.49,122.00z"/><path style="fill:#6c737e" d="M109.11,122.62L108.74,122.62L108.74,122.26L109.11,122.26z"/><path style="fill:#6c737e" d="M96.14,123.15L95.91,123.01L96.28,122.14L96.47,122.18z"/><path style="fill:#6c737e" d="M75.23,123.81L75.06,123.83L74.95,122.70L75.07,122.45L75.20,122.54z"/><path style="fill:#6c737e" d="M75.51,125.46L75.34,125.49L75.21,124.64L75.35,124.10L75.48,124.19z"/><path style="fill:#6c737e" d="M75.78,127.12L75.62,127.14L75.49,126.30L75.63,125.75L75.75,125.85z"/><path style="fill:#6c737e" d="M76.06,128.77L75.89,128.80L75.76,127.95L75.90,127.41L76.03,127.50z"/><path style="fill:#6c737e" d="M76.33,130.43L76.17,130.45L76.04,129.61L76.18,129.06L76.31,129.15z"/><path style="fill:#6c737e" d="M76.61,132.08L76.44,132.11L76.31,131.26L76.45,130.72L76.58,130.81z"/><path style="fill:#6c737e" d="M76.88,133.74L76.72,133.76L76.59,132.92L76.73,132.37L76.86,132.46z"/><path style="fill:#6c737e" d="M78.50,134.21L78.13,134.21L78.13,133.84L78.50,133.84z"/><path style="fill:#6c737e" d="M77.16,135.39L76.99,135.41L76.87,134.57L77.00,134.03L77.13,134.12z"/><path style="fill:#6c737e" d="M105.80,140.27L105.43,140.27L105.43,139.90L105.80,139.90z"/><path style="fill:#6c737e" d="M89.06,144.45L89.55,144.31L89.56,144.63L89.36,144.74z"/><path style="fill:#616871" d="M250.35,64.14L250.02,64.13L249.64,63.74L250.06,63.50z"/><path style="fill:#616871" d="M248.41,67.65L248.41,68.02L248.11,67.95L248.11,67.35z"/><path style="fill:#616871" d="M247.97,74.46L247.83,74.75L247.43,74.51L247.85,74.26z"/><path style="fill:#616871" d="M162.38,83.35L161.09,83.35L161.37,83.07L162.10,83.07z"/><path style="fill:#616871" d="M145.06,87.96L144.39,88.14L144.31,87.80L144.97,87.80z"/><path style="fill:#616871" d="M248.67,88.43L248.58,88.08L248.89,88.03z"/><path style="fill:#616871" d="M140.03,89.53L139.32,89.53L139.32,89.16L140.03,89.16z"/><path style="fill:#616871" d="M248.96,93.57L248.96,93.94L248.66,93.87L248.66,93.27z"/><path style="fill:#616871" d="M240.04,93.82L240.36,93.87L240.41,94.19L240.10,94.13z"/><path style="fill:#616871" d="M242.03,96.98L241.66,96.98L241.66,96.61L242.03,96.61z"/><path style="fill:#616871" d="M245.66,98.72L245.15,98.90L245.29,98.52L245.58,98.51z"/><path style="fill:#616871" d="M223.83,98.91L223.46,98.91L223.46,98.54L223.83,98.54z"/><path style="fill:#616871" d="M242.13,99.32L244.06,99.28L242.56,99.68z"/><path style="fill:#616871" d="M247.30,99.74L246.60,99.74L246.60,99.37L247.30,99.37z"/><path style="fill:#616871" d="M68.61,113.43L68.61,113.80L68.31,113.73L68.31,113.13z"/><path style="fill:#616871" d="M169.25,113.53L169.15,113.17L169.47,113.12z"/><path style="fill:#616871" d="M133.67,123.18L133.58,122.83L133.90,122.77z"/><path style="fill:#616871" d="M66.11,124.28L66.02,123.93L66.33,123.88z"/><path style="fill:#616871" d="M81.28,141.11L81.19,140.75L81.50,140.70z"/><path style="fill:#616871" d="M65.02,142.38L65.02,142.75L64.72,142.68L64.72,142.08z"/><path style="fill:#616871" d="M63.97,148.63L63.47,148.35L63.91,148.18z"/><path style="fill:#616871" d="M65.40,149.19L65.31,149.46L65.14,149.36L65.25,148.70z"/><path style="fill:#ffffff" d="M209.52,78.31L209.83,77.80L214.21,76.76L214.36,77.18L213.94,78.34L213.62,78.76L212.34,79.74L211.21,79.77L210.34,79.22z"/><path style="fill:#ffffff" d="M189.83,83.35L193.96,82.25L194.70,82.22L194.36,83.58L194.04,84.00L192.87,85.05L191.55,85.05L190.47,84.47z"/><path style="fill:#ffffff" d="M99.38,108.19L104.20,106.82L104.30,106.97L104.19,107.55L103.60,108.84L102.31,109.80L100.93,109.80L100.03,109.28z"/><g id="Actor_.0"><g style="stroke:#000000;stroke-width:0.176"><path d="M233.62,65.37 C233.40,64.11 233.40,64.11 233.20,62.84 C233.18,62.64 233.18,62.64 233.18,62.45 C233.22,62.25 233.22,62.25 233.27,62.06 "/><path d="M238.79,93.76 C240.26,96.09 240.26,96.09 241.73,98.41 C241.84,98.56 241.84,98.56 241.97,98.70 C242.12,98.81 242.12,98.82 242.28,98.93 C242.46,99.01 242.46,99.01 242.64,99.08 C242.83,99.11 242.83,99.12 243.02,99.14 C243.19,99.13 243.19,99.13 243.36,99.10 "/><path d="M248.28,100.70 C248.86,97.45 248.86,97.44 249.36,94.19 C249.53,91.42 249.50,91.41 249.63,88.64 C249.62,88.49 249.62,88.48 249.61,88.33 C249.53,88.01 249.54,88.01 249.45,87.70 C248.91,86.39 248.89,86.40 248.36,85.09 C248.31,84.78 248.31,84.78 248.28,84.46 "/><path d="M233.27,62.06 L233.63,61.56 L235.51,61.70 L240.53,92.02 "/><path d="M233.20,62.84 L232.98,62.82 "/><path d="M234.43,64.11 L234.69,64.11 L234.91,63.80 L234.82,63.42 L234.61,63.30 L234.49,63.32 "/><path d="M233.63,61.56 L233.51,61.46 "/><path d="M233.74,61.58 L233.68,61.21 L233.46,61.13 "/><path d="M233.68,61.21 L247.54,62.15 L247.60,62.52 L236.14,61.74 L241.12,91.84 L245.24,98.37 L245.33,98.24 L245.45,98.23 L245.27,98.31 "/><path d="M237.72,91.43 L237.93,91.44 L234.52,70.85 "/><path d="M235.51,61.70 L236.14,61.74 "/><path d="M238.83,60.72 L248.99,61.43 L235.36,60.51 "/><path d="M235.53,60.99 L235.53,61.05 L235.78,61.04 L236.32,60.89 L235.99,60.88 L235.53,60.99 "/><path d="M236.66,76.42 L236.90,76.45 L236.99,76.53 L237.08,76.91 L236.86,77.22 L236.60,77.22 "/><path d="M238.67,93.98 L238.79,93.76 L238.65,93.44 L238.63,93.13 L238.72,92.86 "/><path d="M243.36,99.10 L243.24,99.33 "/><path d="M238.83,92.42 L238.52,92.32 L238.25,92.11 L238.05,91.81 L237.93,91.44 "/><path d="M238.78,90.33 L239.03,90.33 L239.25,90.02 L239.16,89.63 L238.96,89.52 L238.83,89.53 "/><path d="M239.86,93.82 L239.88,93.69 L240.05,93.56 L240.43,93.63 L240.65,93.93 L240.52,94.19 "/><path d="M245.49,98.25 L245.54,98.29 L245.24,98.37 L245.09,98.54 L244.74,98.73 L240.58,92.13 "/><path d="M241.17,61.22 L240.57,61.36 L240.95,61.38 L241.40,61.24 L241.17,61.22 "/><path d="M241.73,98.41 L241.60,98.64 "/><path d="M242.27,96.95 L242.39,96.70 L242.17,96.40 L241.79,96.33 L241.62,96.46 L241.60,96.59 "/><path d="M243.36,99.10 L244.74,98.73 L244.61,98.95 "/><path d="M247.03,98.98 L246.90,98.94 L246.71,99.08 L246.68,99.63 L246.97,100.12 L247.19,100.18 L247.33,100.07 "/><path d="M246.41,92.27 L246.22,92.23 L246.09,92.39 L246.12,92.87 L246.38,93.23 L246.57,93.22 L246.64,93.11 "/><path d="M246.89,87.75 L246.81,87.85 L246.62,87.86 L246.36,87.51 L246.33,87.03 L246.47,86.86 L246.66,86.91 "/><path d="M245.69,61.68 L246.45,61.57 L246.04,61.72 L245.65,61.73 L245.69,61.68 "/><path d="M247.47,101.71 L247.83,101.58 L248.12,101.23 L248.28,100.70 L248.59,100.61 "/><path d="M247.56,80.78 L247.37,80.74 L247.24,80.90 L247.26,81.38 L247.53,81.73 L247.71,81.73 L247.79,81.62 "/><path d="M247.80,74.34 L247.49,74.42 L247.54,74.76 L247.80,75.14 L248.00,75.17 L248.10,75.05 "/><path d="M247.49,74.42 L247.57,74.05 L247.75,73.97 L247.86,74.01 "/><path d="M247.50,74.31 L247.80,74.22 "/><path d="M248.19,67.14 L247.99,67.09 L247.87,67.24 L247.89,67.74 L248.15,68.09 L248.34,68.08 L248.41,67.98 "/><path d="M247.60,62.52 L248.30,62.49 L249.33,62.29 L249.27,61.92 L248.18,62.12 L247.54,62.15 "/><path d="M248.28,84.46 L249.15,65.54 L249.46,65.46 "/><path d="M248.68,93.08 L248.49,93.03 L248.36,93.19 L248.38,93.68 L248.65,94.03 L248.84,94.02 L248.91,93.92 "/><path d="M248.93,87.71 L248.74,87.67 L248.61,87.82 L248.63,88.31 L248.89,88.67 L249.08,88.66 L249.16,88.55 "/><path d="M248.46,85.40 L248.77,85.32 "/><path d="M248.28,84.46 L248.59,84.38 "/><path d="M248.18,61.85 L248.94,61.73 L248.89,61.81 L248.53,61.89 L248.14,61.90 L248.18,61.85 "/><path d="M248.99,61.43 L250.65,61.55 L250.66,61.93 L249.87,62.15 L250.97,62.24 L250.89,64.06 L251.19,63.98 "/><path d="M249.38,94.00 L249.69,93.92 "/><path d="M249.36,94.19 L249.67,94.10 "/><path d="M249.63,88.64 L249.93,88.56 "/><path d="M249.45,87.70 L249.75,87.62 "/><path d="M249.74,64.78 L249.48,64.82 L249.31,64.97 L249.15,65.54 "/><path d="M250.26,64.10 L250.19,64.21 L250.00,64.21 L249.73,63.86 L249.71,63.38 L249.84,63.22 L250.03,63.26 "/><path d="M250.85,61.53 L249.27,61.92 "/><path d="M250.00,61.48 L250.83,61.53 L250.11,61.49 "/><path d="M249.83,62.16 L249.33,62.29 "/><path d="M250.56,64.78 L250.72,64.63 L250.84,64.38 L250.89,64.06 "/><path d="M250.71,61.91 L250.86,61.94 L250.97,62.21 L251.28,62.15 "/><path d="M250.82,61.91 L250.78,61.91 "/></g><g style="stroke:#000000;stroke-width:0.529"><path d="M233.40,65.36 C233.19,64.09 233.19,64.09 232.98,62.82 C232.97,62.63 232.97,62.63 232.97,62.43 C233.01,62.24 233.01,62.24 233.06,62.05 C233.14,61.88 233.14,61.88 233.24,61.72 C233.36,61.59 233.36,61.59 233.49,61.46 "/><path d="M251.18,61.78 C251.24,61.96 251.24,61.96 251.28,62.15 C251.25,63.06 251.25,63.07 251.19,63.98 C251.12,64.27 251.12,64.27 251.03,64.55 "/><path d="M249.46,65.46 C249.01,74.92 249.01,74.92 248.59,84.38 C248.62,84.69 248.61,84.70 248.66,85.01 C249.19,86.32 249.21,86.31 249.75,87.62 C249.84,87.93 249.84,87.93 249.92,88.25 C249.93,88.40 249.93,88.40 249.93,88.56 C249.80,91.33 249.83,91.33 249.67,94.10 C249.16,97.36 249.13,97.36 248.59,100.61 C248.51,100.88 248.51,100.88 248.42,101.14 "/><path d="M247.05,101.62 C246.84,101.47 246.83,101.47 246.63,101.31 C246.44,101.06 246.44,101.06 246.25,100.81 C246.10,100.49 246.10,100.49 245.96,100.17 C245.86,99.83 245.86,99.83 245.78,99.48 C245.74,99.07 245.74,99.07 245.72,98.66 "/><path d="M245.56,98.30 C245.41,98.46 245.41,98.46 245.26,98.60 C245.05,98.74 245.05,98.75 244.83,98.87 C244.04,99.11 244.03,99.10 243.24,99.33 C243.06,99.35 243.06,99.35 242.89,99.37 C242.71,99.34 242.70,99.34 242.52,99.31 "/><path d="M238.92,92.64 C239.06,92.57 239.06,92.57 239.20,92.51 C239.95,92.30 239.96,92.32 240.70,92.10 C240.92,91.98 240.92,91.98 241.12,91.84 "/><path d="M241.12,91.84 C240.14,92.12 240.14,92.12 239.16,92.39 C239.00,92.41 238.99,92.41 238.83,92.42 C238.57,92.37 238.57,92.37 238.31,92.31 "/><path d="M233.49,61.46 L233.46,61.13 L233.52,61.05 L235.36,60.51 L250.85,61.53 L251.18,61.78 "/><path d="M251.03,64.55 L250.86,64.70 L250.35,64.83 L249.74,64.78 L249.51,65.14 L249.46,65.46 "/><path d="M248.42,101.14 L248.14,101.49 L247.47,101.71 L247.05,101.62 "/><path d="M245.72,98.66 L245.56,98.30 "/><path d="M242.52,99.31 L241.84,98.92 L241.60,98.64 L238.67,93.98 L238.53,93.67 L238.50,93.36 L238.72,92.86 L238.92,92.64 "/><path d="M238.31,92.31 L238.04,92.10 L237.83,91.79 L237.72,91.43 L234.32,70.90 "/><path d="M234.28,63.97 L234.24,63.57 L234.47,63.32 L234.67,63.51 L234.69,63.79 L234.48,64.10 L234.28,63.97 "/><path d="M236.71,77.16 L236.60,77.22 L236.53,77.18 L236.39,76.82 L236.48,76.56 L236.66,76.42 L236.77,76.51 L236.87,76.76 L236.82,77.02 L236.71,77.16 "/><path d="M238.85,89.54 L238.65,89.67 L238.56,89.93 L238.63,90.19 L238.78,90.33 L238.92,90.24 L239.04,90.00 L239.01,89.73 L238.85,89.54 "/><path d="M239.87,93.90 L239.92,93.79 L240.18,93.80 L240.41,93.94 L240.52,94.16 L240.40,94.23 L240.14,94.18 L239.87,93.90 "/><path d="M241.60,96.59 L241.79,96.54 L242.05,96.63 L242.27,96.93 L242.14,96.99 L241.88,96.94 L241.67,96.78 L241.60,96.59 "/><path d="M246.42,92.79 L246.64,93.11 L246.66,92.68 L246.42,92.27 L246.37,92.45 L246.42,92.79 "/><path d="M246.76,87.60 L246.62,87.26 L246.67,86.91 L246.83,87.13 L246.93,87.48 L246.89,87.72 L246.76,87.60 "/><path d="M247.27,100.04 L246.99,99.55 L247.01,99.00 L247.14,99.06 L247.34,99.40 L247.40,99.80 L247.33,100.07 L247.27,100.04 "/><path d="M247.79,81.62 L247.57,81.30 L247.54,80.82 L247.67,80.88 L247.80,81.19 L247.79,81.62 "/><path d="M247.80,74.34 L247.85,74.68 L248.10,75.05 L248.15,74.56 L248.04,74.23 L247.87,74.02 L247.80,74.34 "/><path d="M248.82,93.83 L248.91,93.92 L248.93,93.48 L248.69,93.08 L248.65,93.43 L248.82,93.83 "/><path d="M248.94,88.24 L249.16,88.55 L249.17,88.12 L248.94,87.72 L248.88,87.90 L248.94,88.24 "/><path d="M248.26,67.81 L248.41,67.98 L248.43,67.55 L248.19,67.14 L248.15,67.49 L248.26,67.81 "/><path d="M250.01,63.67 L250.11,63.92 L250.26,64.10 L250.28,63.67 L250.04,63.26 L250.01,63.67 "/></g></g><g id="Actor_.1"><g style="stroke:#000000;stroke-width:0.176"><path d="M72.15,105.37 L72.54,104.98 L73.60,105.05 L72.36,105.39 L77.52,136.52 L77.30,136.50 "/><path d="M129.07,89.15 L72.58,104.58 L72.54,104.98 "/><path d="M72.34,104.64 L83.17,105.34 L87.41,105.91 L87.87,106.96 L87.48,111.01 L89.33,110.51 "/><path d="M73.60,105.05 L83.24,105.71 L83.25,105.34 "/><path d="M73.87,107.11 L74.28,107.60 L73.81,107.91 "/><path d="M75.02,104.47 L75.75,104.31 L75.02,104.47 "/><path d="M75.98,121.02 L76.46,120.64 L76.04,120.22 "/><path d="M76.83,108.15 L77.30,107.78 L76.89,107.38 "/><path d="M223.94,96.52 L77.52,136.52 L78.16,136.65 L224.04,96.80 "/><path d="M79.41,140.06 L79.54,139.83 L77.62,136.80 L77.50,137.02 "/><path d="M78.22,133.33 L78.62,133.82 L78.16,134.13 "/><path d="M80.39,145.63 L80.67,145.92 "/><path d="M80.37,142.90 L80.46,142.73 L80.69,143.26 L80.60,145.76 "/><path d="M79.89,142.14 L80.01,141.92 L80.49,142.67 L228.34,102.29 "/><path d="M80.01,141.92 L79.70,140.27 L79.58,140.49 "/><path d="M79.85,141.48 L79.73,141.70 "/><path d="M79.54,139.83 L79.70,140.27 "/><path d="M79.32,137.86 L79.89,137.68 L79.98,138.23 "/><path d="M80.33,104.72 L80.13,104.78 L80.84,104.74 L80.33,104.72 "/><path d="M80.48,145.80 L80.45,145.79 "/><path d="M228.55,103.08 L80.70,143.46 L80.48,143.32 "/><path d="M81.06,140.63 L81.63,140.44 L81.73,141.00 "/><path d="M80.56,129.53 L80.82,129.57 L80.95,130.06 L80.50,130.30 "/><path d="M81.99,108.31 L82.94,108.42 L84.25,109.47 L84.80,110.59 L84.94,111.70 L84.26,113.95 L82.82,115.05 L81.65,115.17 "/><path d="M83.95,120.15 L84.86,120.26 L85.75,120.75 L86.81,122.56 L86.92,123.68 L86.23,125.79 L85.50,126.54 L84.62,126.97 L83.61,127.01 "/><path d="M83.40,105.37 L83.31,105.71 "/><path d="M83.47,105.73 L84.42,106.02 L84.36,105.65 "/><path d="M84.51,105.67 L84.42,106.02 "/><path d="M84.57,106.04 L87.32,106.23 L87.87,106.96 L235.71,66.57 "/><path d="M85.91,105.01 L85.21,105.13 L85.91,105.01 "/><path d="M86.52,144.71 L87.49,145.38 "/><path d="M86.71,110.59 L86.49,110.01 L86.71,110.59 "/><path d="M86.71,110.67 L87.11,110.92 L87.42,110.60 L86.73,110.33 "/><path d="M235.55,70.15 L87.70,110.54 L87.52,109.47 L86.49,110.01 "/><path d="M87.35,145.28 L87.27,145.24 "/><path d="M87.48,111.01 L87.19,110.98 "/><path d="M87.48,110.40 L87.44,110.57 "/><path d="M87.64,106.82 L87.52,109.45 "/><path d="M87.32,106.23 L87.25,105.86 L235.10,65.47 "/><path d="M88.17,105.19 L87.70,105.30 L88.39,105.26 L88.17,105.19 "/><path d="M88.84,144.76 L89.54,144.62 L89.60,144.10 L89.37,143.93 "/><path d="M91.49,112.48 L92.50,112.44 L94.11,111.26 L94.59,110.27 L94.78,109.02 "/><path d="M93.45,124.33 L94.46,124.29 L95.34,123.85 L96.18,122.87 L96.76,121.00 L96.65,119.87 L95.63,118.12 L94.75,117.58 L93.79,117.46 "/><path d="M99.17,107.82 L94.58,109.07 "/><path d="M104.62,106.33 L103.94,108.57 L102.34,109.75 L101.33,109.80 "/><path d="M103.80,140.93 L102.85,140.26 "/><path d="M103.58,140.79 L103.67,140.83 "/><path d="M103.29,121.64 L104.30,121.60 L105.18,121.17 L105.91,120.42 L106.58,118.40 L106.09,116.17 L104.58,114.89 L103.62,114.78 "/><path d="M110.41,104.75 L104.42,106.39 "/><path d="M105.15,140.31 L105.85,140.16 L105.91,139.63 L105.68,139.48 "/><path d="M108.76,122.59 L109.22,122.22 L108.80,121.82 "/><path d="M111.00,108.63 L111.32,108.88 L110.97,109.11 "/><path d="M112.19,116.47 L112.54,116.25 L112.24,116.00 "/><path d="M113.46,123.36 L113.76,123.58 L113.41,123.84 "/><path d="M114.30,123.32 L114.53,123.33 L114.32,123.32 "/><path d="M114.53,123.33 L118.65,122.20 L119.63,121.18 "/><path d="M120.12,136.47 L119.15,135.80 "/><path d="M118.65,122.20 L118.44,122.19 "/><path d="M118.84,121.73 L119.05,121.76 "/><path d="M119.90,136.33 L119.98,136.37 "/><path d="M119.53,122.17 L119.88,121.94 L119.57,121.69 "/><path d="M120.44,121.64 L120.41,121.65 "/><path d="M119.70,95.97 L120.41,95.83 L119.70,95.97 "/><path d="M121.47,135.85 L122.17,135.71 L121.99,135.02 "/><path d="M124.14,111.68 L124.33,112.04 L123.96,113.18 L124.75,114.10 L125.55,119.40 L124.91,120.47 L120.59,121.67 "/><path d="M123.31,106.72 L123.45,106.53 L122.74,105.81 L122.94,104.95 L122.73,104.94 "/><path d="M122.94,104.95 L123.13,104.33 L122.64,101.41 "/><path d="M122.44,101.46 L128.25,99.87 "/><path d="M124.35,111.70 L123.53,106.74 "/><path d="M123.16,106.26 L122.95,106.25 "/><path d="M123.24,105.28 L123.56,105.54 L123.21,105.77 "/><path d="M123.13,104.33 L122.92,104.32 "/><path d="M124.96,120.06 L125.17,120.07 "/><path d="M124.77,120.53 L124.56,120.52 "/><path d="M124.75,114.10 L124.53,114.09 "/><path d="M124.46,112.65 L124.78,112.90 L124.43,113.13 "/><path d="M124.17,113.61 L124.38,113.63 "/><path d="M124.16,112.32 L123.96,112.30 "/><path d="M124.42,90.63 L124.19,90.72 L124.81,90.88 L126.38,90.50 L124.42,90.63 "/><path d="M125.38,119.68 L125.17,119.67 "/><path d="M125.69,120.02 L126.00,120.24 L125.65,120.49 "/><path d="M125.36,119.04 L125.57,119.06 "/><path d="M128.20,90.83 L128.78,90.58 L127.69,90.50 L125.96,90.97 L128.20,90.83 L126.62,91.09 "/><path d="M127.57,110.61 L127.85,110.66 L127.97,111.16 L127.52,111.40 "/><path d="M127.39,93.86 L128.05,93.82 L127.39,93.86 "/><path d="M128.15,93.76 L128.15,93.78 "/><path d="M128.74,118.77 L129.21,118.40 L128.79,117.97 "/><path d="M129.82,89.60 L130.32,89.52 L129.82,89.60 "/><path d="M132.59,118.62 L132.97,118.95 L132.57,119.25 "/><path d="M134.05,123.23 L133.90,122.65 L133.39,122.86 "/><path d="M135.03,91.77 L135.70,91.73 L135.03,91.77 "/><path d="M136.29,131.92 L135.48,131.35 "/><path d="M136.14,117.79 L136.78,117.76 L136.57,117.75 "/><path d="M136.22,131.88 L136.43,132.01 "/><path d="M136.78,117.76 L163.86,110.36 L163.65,110.35 "/><path d="M137.78,131.40 L138.45,131.29 L138.57,130.78 L138.31,130.56 "/><path d="M142.16,88.87 L142.48,88.53 L140.68,88.64 L139.01,89.15 L139.49,89.31 "/><path d="M142.87,89.62 L142.68,89.68 L143.34,89.64 L142.87,89.62 "/><path d="M147.26,87.47 L147.58,87.14 L145.69,87.26 L144.11,87.76 L144.59,87.92 "/><path d="M145.37,119.59 L145.51,119.36 L145.99,119.45 L146.03,119.96 "/><path d="M151.78,126.89 L152.75,127.56 "/><path d="M152.52,127.42 L152.61,127.46 "/><path d="M154.10,126.94 L154.80,126.80 L154.62,126.11 "/><path d="M157.76,116.75 L157.60,116.17 L157.10,116.39 "/><path d="M161.52,83.29 L161.05,83.23 L162.50,82.66 L164.50,82.52 L163.84,82.96 L162.59,83.02 "/><path d="M162.93,83.15 L162.80,83.18 "/><path d="M162.75,82.99 L164.13,82.87 "/><path d="M162.15,81.86 L166.69,80.47 L162.42,80.08 L163.01,79.88 L218.90,64.61 "/><path d="M162.34,81.81 L162.19,80.85 L163.44,80.51 L162.48,80.45 L161.98,80.84 "/><path d="M162.37,80.44 L162.17,80.10 "/><path d="M163.86,110.36 L164.07,110.15 "/><path d="M163.44,80.51 L166.30,80.71 "/><path d="M164.29,110.17 L167.86,107.76 L168.67,106.30 L165.98,89.57 "/><path d="M165.24,79.94 L165.99,79.87 L165.24,79.94 "/><path d="M171.59,88.04 L165.78,89.62 "/><path d="M166.31,81.63 L166.30,81.88 L167.24,81.87 L169.64,81.30 L168.31,81.15 L166.31,81.63 "/><path d="M166.36,80.35 L166.41,80.66 "/><path d="M169.29,81.46 L166.61,81.90 "/><path d="M169.06,123.10 L168.10,122.44 "/><path d="M167.85,109.61 L168.23,109.42 L167.88,108.98 "/><path d="M167.86,107.76 L167.64,107.75 "/><path d="M168.44,105.69 L168.65,105.70 "/><path d="M168.60,78.59 L167.63,78.85 L168.24,79.01 L169.81,78.64 L168.60,78.59 "/><path d="M168.92,123.00 L168.84,122.96 "/><path d="M169.74,113.48 L169.58,112.90 L169.08,113.12 "/><path d="M169.54,79.01 L169.42,79.18 L170.08,79.22 L172.18,78.76 L171.13,78.64 L169.54,79.01 "/><path d="M170.94,121.65 L171.11,122.34 L170.41,122.48 "/><path d="M169.98,99.02 L170.27,99.08 L170.39,99.57 L169.95,99.82 "/><path d="M170.08,79.22 L171.63,78.97 "/><path d="M171.16,107.18 L171.63,106.80 L171.20,106.38 "/><path d="M172.15,92.40 L172.50,92.17 L172.19,91.92 "/><path d="M173.41,99.29 L173.72,99.54 L173.37,99.76 "/><path d="M173.84,81.21 L173.35,81.29 L174.03,81.23 L173.84,81.21 "/><path d="M174.63,106.65 L174.94,106.87 L174.59,107.13 "/><path d="M175.47,106.61 L175.71,106.62 L175.50,106.60 "/><path d="M175.71,106.62 L179.76,105.51 L180.17,105.19 L180.02,105.02 "/><path d="M179.62,105.48 L179.83,105.49 "/><path d="M180.23,105.04 L180.81,104.47 "/><path d="M180.74,104.97 L181.06,105.20 L180.71,105.45 "/><path d="M181.59,104.94 L181.83,104.95 L181.61,104.93 "/><path d="M181.83,104.95 L185.95,103.82 L186.56,102.97 L186.35,102.96 "/><path d="M181.49,79.12 L181.00,79.20 L181.49,79.12 "/><path d="M183.82,84.70 L184.31,87.62 L183.88,88.87 L184.34,89.55 L184.13,89.54 "/><path d="M184.12,88.24 L183.91,88.23 "/><path d="M184.09,87.60 L184.31,87.62 "/><path d="M183.62,84.75 L189.61,83.11 "/><path d="M185.24,118.55 L185.15,118.51 "/><path d="M185.37,118.65 L184.41,117.97 "/><path d="M185.13,95.59 L185.34,95.61 L185.14,96.47 L185.93,97.39 L186.75,102.35 L186.53,102.33 "/><path d="M185.35,96.90 L185.56,96.92 "/><path d="M185.34,95.61 L185.53,94.98 L184.71,90.02 L184.34,89.55 "/><path d="M185.31,94.97 L185.53,94.98 "/><path d="M184.71,90.02 L184.49,90.01 "/><path d="M184.38,89.06 L184.74,88.83 L184.42,88.57 "/><path d="M186.35,103.36 L186.13,103.35 "/><path d="M185.95,103.82 L185.73,103.81 "/><path d="M185.93,97.39 L185.71,97.37 "/><path d="M185.60,96.42 L185.96,96.19 L185.65,95.94 "/><path d="M186.73,118.03 L187.43,117.88 L187.25,117.20 "/><path d="M186.56,102.97 L186.75,102.35 "/><path d="M186.82,103.78 L187.18,103.56 L186.87,103.31 "/><path d="M188.70,77.10 L188.52,77.17 L189.25,77.10 L188.70,77.10 "/><path d="M190.62,100.22 L191.09,99.85 L190.67,99.45 "/><path d="M191.77,85.09 L192.78,85.05 L194.28,83.98 L194.88,82.88 L195.07,81.62 "/><path d="M193.73,96.93 L194.74,96.89 L195.62,96.46 L196.35,95.71 L197.04,93.60 L196.93,92.48 L195.91,90.73 L195.03,90.19 L194.05,90.07 "/><path d="M199.45,80.43 L194.86,81.68 "/><path d="M196.40,75.00 L196.21,75.06 L196.87,75.02 L196.40,75.00 "/><path d="M201.69,114.19 L200.72,113.52 "/><path d="M201.55,114.09 L201.47,114.05 "/><path d="M201.61,82.40 L202.62,82.36 L204.23,81.18 L204.91,78.94 "/><path d="M203.57,112.74 L203.74,113.43 L203.04,113.57 "/><path d="M203.89,87.38 L204.87,87.50 L205.71,87.98 L206.37,88.77 L206.88,90.92 L206.19,93.02 L205.46,93.77 L204.58,94.21 L203.57,94.25 "/><path d="M204.70,78.99 L209.29,77.74 "/><path d="M214.74,76.25 L214.56,77.50 L214.07,78.49 L212.46,79.67 L211.45,79.72 "/><path d="M213.73,84.70 L214.71,84.81 L216.14,86.01 L216.61,87.10 L216.72,88.24 L216.03,90.34 L215.30,91.09 L214.42,91.52 L213.41,91.56 "/><path d="M220.33,74.72 L214.54,76.31 "/><path d="M218.00,109.73 L217.04,109.06 "/><path d="M217.87,109.63 L217.78,109.59 "/><path d="M219.88,108.28 L220.05,108.97 L219.35,109.11 "/><path d="M218.92,91.74 L219.34,92.14 L218.87,92.51 "/><path d="M219.46,65.00 L219.21,65.05 L219.83,65.04 L219.46,65.00 "/><path d="M220.05,81.67 L220.53,81.36 L220.11,80.87 "/><path d="M222.28,93.98 L222.70,94.47 L222.22,94.77 "/><path d="M224.06,98.87 L224.18,98.62 L223.91,98.30 L223.39,98.51 "/><path d="M224.21,65.43 L224.90,65.31 L224.21,65.43 "/><path d="M225.14,101.28 L225.71,101.09 L225.80,101.64 "/><path d="M229.29,65.78 L229.98,65.65 L229.29,65.78 "/><path d="M231.90,65.90 L231.74,65.99 L232.42,65.92 L231.90,65.90 "/></g><g style="stroke:#000000;stroke-width:0.529"><path d="M216.83,108.96 C216.49,108.95 216.48,108.95 216.14,108.96 C211.61,110.18 211.60,110.19 207.08,111.44 C206.72,111.61 206.71,111.61 206.37,111.82 C205.40,112.79 205.39,112.80 204.44,113.80 "/><path d="M200.18,113.37 C195.55,114.58 195.54,114.58 190.93,115.85 C190.36,116.15 190.35,116.17 189.81,116.52 C189.15,117.23 189.14,117.24 188.51,117.98 "/><path d="M128.93,89.18 C131.02,89.32 131.02,89.32 133.11,89.43 C134.11,89.35 134.11,89.35 135.10,89.22 C148.63,85.57 148.64,85.57 162.15,81.86 "/><path d="M220.33,74.72 L223.94,96.52 L225.96,99.84 L227.70,101.33 L228.43,102.47 L228.35,105.59 L223.03,107.13 L221.14,109.07 L219.96,109.60 L218.29,109.88 L216.83,108.96 "/><path d="M204.44,113.80 L202.67,114.33 L202.09,114.35 L200.18,113.37 "/><path d="M188.51,117.98 L187.58,118.45 L186.00,118.83 L184.23,117.89 L183.51,117.88 L174.18,120.46 L171.45,122.85 L169.35,123.24 L167.89,122.33 L167.20,122.33 L158.13,124.81 L155.50,127.17 L154.08,127.60 L153.04,127.70 L151.57,126.79 L150.89,126.79 L141.46,129.41 L139.57,131.35 L138.45,131.87 L136.72,132.16 L135.26,131.24 L134.57,131.24 L125.50,133.72 L124.49,134.40 L123.26,135.81 L122.31,136.28 L120.41,136.61 L118.94,135.70 L118.35,135.69 L109.19,138.18 L106.56,140.53 L104.95,141.02 L104.09,141.07 L102.30,140.11 L92.88,142.63 L90.24,144.99 L88.47,145.52 L87.78,145.53 L85.98,144.56 L80.79,145.94 L80.45,145.79 L80.45,143.10 L79.78,141.92 L79.52,140.27 L77.30,136.50 L72.23,104.74 L128.93,89.18 "/><path d="M162.15,81.86 L162.06,80.20 L163.01,79.87 L218.76,64.64 L235.10,65.47 L235.54,65.84 L235.71,66.57 L235.33,70.63 L220.33,74.72 "/><path d="M73.60,107.65 L73.95,107.83 L73.88,107.13 L73.60,107.65 "/><path d="M75.83,120.88 L76.20,120.83 L76.05,120.24 L75.83,120.88 "/><path d="M76.63,107.69 L76.95,107.42 L76.92,108.10 L76.63,107.69 "/><path d="M78.08,134.09 L77.96,133.59 L78.32,133.42 L78.37,133.94 L78.08,134.09 "/><path d="M79.26,112.24 L79.66,110.03 L81.09,108.55 L82.62,108.39 L83.57,108.89 L84.23,109.68 L84.73,111.70 L84.56,112.82 L84.05,113.94 L83.33,114.68 L82.45,115.11 L80.82,114.89 L80.06,114.24 L79.26,112.24 "/><path d="M79.33,137.94 L79.92,138.26 L79.64,137.84 L79.33,137.94 "/><path d="M80.30,129.98 L80.47,129.57 L80.70,129.67 L80.68,130.17 L80.50,130.30 L80.30,129.98 "/><path d="M81.13,140.82 L81.60,141.04 L81.69,140.86 L81.25,140.59 L81.13,140.82 "/><path d="M81.47,125.11 L82.02,126.09 L83.61,127.01 L85.29,126.53 L85.97,125.82 L86.71,123.67 L86.60,122.54 L85.58,120.79 L83.94,120.15 L82.24,120.99 L81.30,122.87 L81.47,125.11 "/><path d="M88.79,144.61 L89.21,144.62 L89.34,143.93 L88.79,144.61 "/><path d="M94.58,109.07 L93.89,111.25 L92.29,112.43 L90.66,112.20 L89.90,111.55 L89.33,110.51 "/><path d="M89.33,110.51 L94.58,109.07 "/><path d="M91.56,122.88 L91.06,121.40 L91.11,120.26 L92.01,118.40 L92.89,117.71 L93.79,117.47 L95.37,118.05 L96.44,119.85 L96.34,122.10 L95.85,123.09 L95.13,123.84 L93.45,124.33 L92.67,124.06 L91.56,122.88 "/><path d="M99.17,107.82 L99.74,108.87 L100.45,109.47 L101.33,109.80 L102.13,109.74 L103.73,108.56 L104.42,106.39 "/><path d="M99.17,107.82 L104.42,106.39 "/><path d="M101.16,119.79 L101.70,120.71 L103.29,121.64 L104.95,121.16 L105.69,120.40 L106.18,119.41 L106.29,117.29 L105.26,115.41 L103.62,114.78 L101.92,115.62 L100.95,117.57 L101.16,119.79 "/><path d="M105.16,139.84 L105.25,140.31 L105.73,139.63 L105.52,139.50 L105.16,139.84 "/><path d="M108.54,122.27 L108.76,121.83 L108.94,121.95 L108.92,122.45 L108.75,122.59 L108.54,122.27 "/><path d="M122.44,101.46 L122.92,104.32 L122.49,105.57 L123.31,106.72 L124.14,111.68 L123.71,112.93 L124.53,114.09 L125.33,119.39 L124.56,120.52 L120.40,121.65 L119.41,121.16 L118.44,122.19 L114.32,123.32 L113.33,122.40 L112.51,117.44 L112.90,115.96 L112.12,115.05 L111.29,110.08 L111.68,108.59 L110.89,107.67 L110.41,104.75 "/><path d="M122.44,101.46 L110.41,104.75 "/><path d="M110.87,108.91 L111.10,108.78 L111.05,109.04 L110.87,108.91 "/><path d="M112.09,116.28 L112.19,116.47 L112.29,116.06 L112.09,116.28 "/><path d="M113.31,123.55 L113.46,123.36 L113.49,123.76 L113.31,123.55 "/><path d="M119.43,121.88 L119.57,121.69 L119.61,122.09 L119.43,121.88 "/><path d="M121.42,135.54 L122.04,135.10 L121.84,135.70 L121.57,135.85 L121.42,135.54 "/><path d="M123.13,105.40 L123.12,105.66 L123.33,105.61 L123.13,105.40 "/><path d="M124.34,113.02 L124.52,112.72 L124.34,113.02 "/><path d="M125.62,120.05 L125.65,120.49 L125.62,120.05 "/><path d="M127.30,111.07 L127.61,111.35 L127.64,110.65 L127.30,111.07 "/><path d="M165.78,89.62 L168.44,105.69 L168.11,107.23 L163.65,110.35 L152.97,113.27 L136.57,117.75 L131.83,117.33 L130.98,116.17 L128.25,99.87 L165.78,89.62 "/><path d="M128.71,118.75 L128.53,118.29 L128.86,118.01 L128.98,118.51 L128.71,118.75 "/><path d="M132.49,119.18 L132.59,118.62 L132.74,119.04 L132.49,119.18 "/><path d="M133.50,123.11 L133.39,122.89 L133.64,122.83 L134.04,123.15 L133.50,123.11 "/><path d="M137.88,130.78 L137.78,131.40 L138.37,130.79 L138.31,130.56 L137.88,130.78 "/><path d="M139.49,89.31 L142.16,88.87 L139.49,89.31 "/><path d="M144.74,87.92 L147.26,87.47 L144.74,87.92 "/><path d="M145.59,119.92 L145.50,119.55 L146.03,119.96 L145.59,119.92 "/><path d="M154.05,126.63 L154.08,126.91 L154.34,126.89 L154.62,126.11 L154.05,126.63 "/><path d="M157.10,116.41 L157.70,116.78 L157.48,116.40 L157.10,116.41 "/><path d="M161.64,83.30 L162.72,83.19 L162.59,83.02 L161.64,83.30 "/><path d="M167.77,109.54 L167.99,109.08 L167.70,109.24 L167.77,109.54 "/><path d="M169.71,113.49 L169.08,113.14 L169.58,113.20 L169.71,113.49 "/><path d="M170.42,122.01 L170.51,122.48 L170.98,121.76 L170.42,122.01 "/><path d="M169.82,99.73 L169.94,99.03 L170.20,99.42 L169.82,99.73 "/><path d="M170.94,106.85 L171.25,107.13 L171.28,106.43 L170.94,106.85 "/><path d="M183.62,84.75 L184.09,87.60 L183.67,88.86 L184.49,90.01 L185.32,95.14 L184.89,96.22 L185.71,97.37 L186.51,102.67 L185.73,103.81 L181.61,104.93 L180.59,104.45 L179.75,105.42 L175.50,106.60 L174.51,105.69 L173.69,100.73 L174.08,99.25 L173.29,98.33 L172.47,93.37 L172.86,91.88 L172.07,90.96 L171.59,88.04 "/><path d="M183.62,84.75 L171.59,88.04 "/><path d="M172.06,92.29 L172.25,91.98 L172.06,92.29 "/><path d="M173.33,99.73 L173.41,99.29 L173.33,99.73 "/><path d="M174.50,106.99 L174.72,106.79 L174.50,106.99 "/><path d="M180.60,105.26 L180.84,105.12 L180.79,105.38 L180.60,105.26 "/><path d="M184.31,88.68 L184.30,88.95 L184.51,88.90 L184.31,88.68 "/><path d="M185.50,96.22 L185.60,96.42 L185.72,96.06 L185.50,96.22 "/><path d="M186.73,117.56 L186.82,118.03 L187.29,117.29 L186.73,117.56 "/><path d="M186.80,103.34 L186.82,103.78 L186.80,103.34 "/><path d="M194.86,81.68 L194.17,83.85 L192.57,85.04 L190.94,84.81 L190.18,84.16 L189.61,83.11 "/><path d="M194.86,81.68 L189.61,83.11 "/><path d="M190.47,99.64 L190.71,100.18 L190.87,99.71 L190.74,99.49 L190.47,99.64 "/><path d="M191.60,95.09 L191.39,92.86 L192.36,90.91 L194.05,90.07 L195.66,90.65 L196.72,92.46 L196.63,94.71 L196.14,95.70 L195.39,96.46 L193.73,96.93 L192.21,96.06 L191.60,95.09 "/><path d="M199.45,80.43 L204.70,78.99 "/><path d="M204.70,78.99 L204.01,81.17 L202.41,82.35 L200.78,82.12 L199.45,80.43 "/><path d="M201.63,92.71 L202.74,93.97 L203.57,94.25 L205.11,93.83 L205.97,93.01 L206.67,90.90 L206.39,89.36 L205.54,88.02 L203.89,87.38 L202.20,88.23 L201.23,90.18 L201.18,91.32 L201.63,92.71 "/><path d="M202.99,113.42 L203.21,112.89 L203.61,112.82 L203.41,113.42 L202.99,113.42 "/><path d="M209.29,77.74 L209.86,78.79 L210.62,79.43 L212.14,79.67 L213.85,78.48 L214.54,76.31 "/><path d="M209.29,77.74 L214.54,76.31 "/><path d="M211.03,88.54 L211.28,89.71 L212.14,90.90 L213.26,91.51 L214.21,91.50 L215.82,90.32 L216.50,88.24 L216.40,87.13 L215.34,85.28 L214.49,84.80 L213.30,84.77 L212.14,85.46 L211.42,86.42 L211.03,88.54 "/><path d="M218.67,92.19 L218.84,91.78 L219.06,91.87 L219.04,92.37 L218.87,92.51 L218.67,92.19 "/><path d="M219.46,108.50 L219.35,109.11 L219.94,108.51 L219.88,108.28 L219.46,108.50 "/><path d="M219.84,81.27 L220.11,80.87 L220.29,81.07 L220.05,81.67 L219.84,81.27 "/><path d="M222.10,94.12 L222.46,94.18 L222.19,94.76 L222.10,94.12 "/><path d="M223.81,98.91 L223.41,98.59 L223.84,98.55 L224.02,98.74 L223.81,98.91 "/><path d="M225.47,101.65 L225.15,101.35 L225.33,101.23 L225.81,101.62 L225.47,101.65 "/></g></g><g id="Actor_.2"><g style="stroke:#000000;stroke-width:0.176"><path d="M66.66,134.07 C66.68,134.39 66.68,134.39 66.73,134.70 C67.26,136.01 67.28,136.00 67.82,137.31 C67.91,137.62 67.92,137.63 67.99,137.94 C67.89,140.78 67.89,140.78 67.76,143.61 "/><path d="M63.58,148.23 L63.61,147.98 L59.50,141.43 L54.43,110.88 L69.35,111.85 L69.43,111.42 L69.58,111.17 L70.05,110.88 L54.76,109.84 "/><path d="M54.43,110.83 L54.27,110.68 "/><path d="M54.43,110.83 L54.39,110.41 "/><path d="M59.37,141.43 L57.77,131.81 "/><path d="M57.45,109.62 L57.33,109.68 L57.67,109.70 L58.14,109.58 L57.96,109.53 L57.45,109.62 "/><path d="M58.33,135.16 L58.27,134.85 "/><path d="M62.53,109.97 L62.41,110.03 L62.80,110.04 L63.22,109.92 L63.04,109.88 L62.53,109.97 "/><path d="M63.87,147.86 L63.91,147.89 L63.64,147.97 L63.78,147.83 L63.83,147.84 L63.65,147.92 "/><path d="M63.92,147.90 L63.90,148.03 L64.03,148.08 L63.91,147.89 "/><path d="M64.04,148.07 L64.07,148.17 L64.01,148.28 "/><path d="M64.07,148.17 L64.10,148.26 "/><path d="M65.02,142.72 L64.94,142.83 L64.76,142.84 L64.49,142.48 L64.46,142.00 L64.57,141.86 L64.79,141.88 "/><path d="M65.26,137.36 L65.19,137.46 L65.00,137.47 L64.74,137.12 L64.71,136.64 L64.84,136.47 L65.04,136.52 "/><path d="M68.06,143.53 L67.76,143.61 L66.66,150.31 L66.50,150.80 L66.33,151.04 L66.21,151.19 L65.84,151.32 "/><path d="M65.70,149.68 L65.60,149.78 L65.34,149.73 L65.06,149.24 L65.08,148.69 L65.23,148.56 L65.41,148.59 "/><path d="M66.17,131.23 L66.09,131.34 L65.90,131.34 L65.64,130.99 L65.61,130.51 L65.75,130.35 L65.94,130.39 "/><path d="M66.17,123.95 L65.88,124.03 L65.92,124.37 L66.18,124.75 L66.38,124.78 L66.48,124.67 "/><path d="M65.87,124.03 L65.95,123.66 L66.13,123.58 L66.23,123.62 "/><path d="M66.66,150.31 L66.96,150.22 "/><path d="M67.29,143.53 L67.21,143.63 L67.02,143.64 L66.76,143.29 L66.73,142.81 L66.87,142.64 L67.06,142.69 "/><path d="M67.53,138.16 L67.46,138.27 L67.27,138.28 L67.01,137.92 L66.98,137.45 L67.11,137.28 L67.30,137.32 "/><path d="M66.97,133.99 L66.66,134.07 L67.53,115.15 L67.83,115.07 "/><path d="M66.84,135.01 L67.15,134.93 "/><path d="M65.88,123.92 L66.18,123.84 "/><path d="M66.56,116.75 L66.37,116.71 L66.24,116.87 L66.26,117.35 L66.53,117.70 L66.72,117.69 L66.79,117.59 "/><path d="M67.74,143.80 L68.04,143.71 "/><path d="M68.00,138.25 L68.31,138.17 "/><path d="M67.82,137.31 L68.13,137.23 "/><path d="M67.53,115.15 L67.69,114.58 L67.86,114.43 L68.11,114.39 "/><path d="M68.64,113.71 L68.56,113.82 L68.37,113.82 L68.11,113.47 L68.08,112.99 L68.22,112.83 L68.41,112.87 "/><path d="M67.61,110.31 L67.49,110.37 L67.75,110.40 L68.30,110.27 L68.12,110.22 L67.61,110.31 "/><path d="M69.57,113.59 L69.26,113.67 L69.21,113.99 L69.10,114.24 L68.93,114.39 "/><path d="M69.26,113.67 L69.35,111.85 L69.65,111.76 "/><path d="M71.48,110.87 L71.42,110.50 L70.05,110.88 L70.11,111.25 "/><path d="M70.02,110.52 L70.78,110.40 L70.73,110.47 L70.37,110.56 L69.98,110.56 L70.02,110.52 "/><path d="M71.42,110.50 L71.95,110.26 "/></g><g style="stroke:#000000;stroke-width:0.529"><path d="M67.84,115.05 C67.39,124.52 67.39,124.52 66.97,133.99 C66.99,134.30 66.99,134.31 67.04,134.62 C67.57,135.93 67.59,135.92 68.13,137.23 C68.22,137.54 68.23,137.54 68.30,137.86 C68.20,140.69 68.22,140.70 68.06,143.53 C67.55,146.88 67.52,146.88 66.96,150.22 C66.89,150.49 66.89,150.49 66.80,150.75 "/><path d="M65.43,151.23 C65.21,151.08 65.21,151.08 65.01,150.92 C64.81,150.67 64.81,150.67 64.63,150.42 C64.48,150.10 64.48,150.10 64.34,149.78 C64.24,149.44 64.24,149.44 64.16,149.09 C64.12,148.68 64.12,148.68 64.10,148.27 "/><path d="M54.71,113.35 L54.27,110.68 L54.51,110.04 L54.76,109.84 L56.87,109.31 L57.87,109.23 L71.73,110.18 L71.95,110.26 L72.01,110.59 L71.95,110.70 L70.11,111.25 L69.79,111.44 L69.65,111.76 L69.57,113.59 L69.41,114.16 L69.24,114.31 L68.73,114.44 L68.11,114.40 L67.88,114.75 L67.84,115.05 "/><path d="M66.80,150.75 L66.64,150.95 L66.52,151.10 L66.15,151.24 L65.88,151.32 L65.43,151.23 "/><path d="M64.10,148.27 L63.82,148.32 L63.58,148.23 L59.44,141.66 L59.50,141.45 L59.40,141.45 L59.25,140.74 L54.71,113.35 "/><path d="M64.75,142.07 L64.80,142.40 L65.02,142.72 L65.06,142.46 L64.98,142.13 L64.80,141.88 L64.75,142.07 "/><path d="M65.52,148.67 L65.76,149.21 L65.70,149.68 L65.53,149.53 L65.36,149.16 L65.39,148.61 L65.52,148.67 "/><path d="M65.27,137.33 L65.28,136.92 L65.04,136.52 L64.99,136.70 L65.04,137.04 L65.27,137.33 "/><path d="M66.21,130.97 L66.17,131.23 L65.95,130.91 L65.92,130.43 L66.12,130.63 L66.21,130.97 "/><path d="M66.51,124.60 L66.49,124.00 L66.23,123.62 L66.17,123.95 L66.22,124.29 L66.38,124.58 L66.48,124.67 L66.51,124.60 "/><path d="M66.82,117.48 L66.80,117.16 L66.57,116.75 L66.52,116.93 L66.57,117.27 L66.79,117.59 L66.82,117.48 "/><path d="M67.26,142.98 L67.33,143.25 L67.29,143.53 L67.07,143.21 L67.04,142.73 L67.16,142.79 L67.26,142.98 "/><path d="M67.57,137.88 L67.53,138.16 L67.31,137.84 L67.26,137.51 L67.30,137.32 L67.49,137.57 L67.57,137.88 "/><path d="M68.51,112.97 L68.42,112.87 L68.37,113.22 L68.49,113.54 L68.64,113.71 L68.65,113.28 L68.51,112.97 "/></g></g><g id="Actor_.3"><g style="stroke:#000000;stroke-width:0.176"><path d="M168.14,81.74 L168.10,81.56 "/><path d="M168.52,80.46 L168.53,80.53 L167.87,80.59 L167.86,80.52 L168.52,80.46 L169.12,80.30 "/><path d="M167.86,80.52 L167.79,80.41 "/><path d="M168.44,80.43 L168.42,80.28 L168.00,80.40 L168.05,80.47 L168.50,80.43 L168.91,80.32 L168.87,80.24 L168.88,80.32 "/><path d="M167.87,80.59 L167.86,80.57 "/><path d="M168.53,80.53 L169.06,80.39 "/><path d="M168.42,80.28 L168.87,80.24 "/><path d="M168.69,81.49 L168.71,81.62 "/></g><g style="stroke:#000000;stroke-width:0.529"><path d="M168.10,81.75 L168.07,81.57 "/><path d="M167.86,80.57 L167.81,80.48 L167.79,80.41 L168.40,80.25 L169.06,80.19 L169.12,80.30 L169.13,80.37 L169.06,80.39 "/><path d="M169.24,81.47 L169.24,81.46 "/></g></g><g id="Actor_.4"><g style="stroke:#000000;stroke-width:0.176"><path d="M134.23,89.77 L134.22,89.71 L134.89,89.65 L135.49,89.49 "/><path d="M134.89,89.65 L134.90,89.72 L135.42,89.57 "/><path d="M134.22,89.71 L134.16,89.60 "/><path d="M134.90,89.72 L134.27,89.77 "/><path d="M135.25,89.51 L135.24,89.43 L134.78,89.47 L134.81,89.62 "/><path d="M134.78,89.47 L134.37,89.58 L134.41,89.66 L134.87,89.62 L135.28,89.50 L135.24,89.43 "/><path d="M134.23,89.76 L134.22,89.75 "/></g><g style="stroke:#000000;stroke-width:0.529"><path d="M134.23,89.76 L134.23,89.77 L134.27,89.77 "/><path d="M135.42,89.57 L135.50,89.55 L135.49,89.49 L135.43,89.38 L134.76,89.44 L134.16,89.60 L134.17,89.67 L134.22,89.75 "/></g></g><g id="Actor_.5"><g style="stroke:#000000;stroke-width:0.176"><path d="M144.66,87.92 L144.66,87.89 "/><path d="M144.47,86.99 L145.09,86.93 L145.08,86.86 L144.42,86.92 L144.36,86.82 "/><path d="M144.42,86.92 L144.43,86.99 L144.43,86.99 "/><path d="M145.08,86.86 L145.69,86.70 "/><path d="M145.10,86.93 L145.62,86.79 "/><path d="M145.45,86.73 L145.43,86.65 L145.48,86.72 L145.06,86.83 L144.61,86.87 L144.57,86.80 L144.98,86.68 L145.00,86.84 "/><path d="M144.98,86.68 L145.43,86.65 "/><path d="M145.25,87.89 L145.22,87.74 "/></g><g style="stroke:#000000;stroke-width:0.529"><path d="M144.62,87.92 L144.62,87.91 "/><path d="M144.43,86.99 L144.37,86.88 L144.36,86.82 L144.96,86.65 L145.62,86.59 L145.69,86.70 L145.70,86.77 L145.62,86.79 "/><path d="M144.43,86.99 L144.47,86.99 "/><path d="M145.79,87.82 L145.76,87.63 "/></g></g><g id="Actor_.6"><g style="stroke:#000000;stroke-width:0.176"><path d="M157.60,83.20 L157.66,83.31 L157.67,83.37 L157.67,83.37 "/><path d="M157.66,83.31 L158.33,83.25 L158.34,83.32 L158.86,83.17 "/><path d="M158.33,83.25 L158.93,83.08 "/><path d="M158.34,83.32 L157.71,83.37 "/><path d="M158.69,83.11 L158.67,83.03 L158.72,83.10 L158.31,83.21 L157.85,83.25 L157.81,83.18 L158.22,83.07 L158.24,83.22 "/><path d="M158.22,83.07 L158.67,83.03 "/></g><g style="stroke:#000000;stroke-width:0.529"><path d="M158.86,83.17 L158.94,83.15 L158.93,83.08 L158.86,82.98 L158.20,83.03 L157.60,83.20 L157.61,83.27 L157.67,83.37 "/><path d="M157.67,83.37 L157.71,83.37 "/></g></g><g id="paperID" visibility="hidden" opacity="0.00" transform="scale(0.000100)"><path style="stroke:#000000;stroke-width:0.500;fill:#e6e6e6;fill-rule:evenodd" d="M-2000.00,-2000.00L2297.00,-2000.00L2297.00,2210.00L-2000.00,2210.00zM0.00,0.00L297.00,0.00L297.00,210.00L0.00,210.00z"/><path style="fill:#000000;fill-opacity:0.118" d="M3.00,210.00L297.00,210.00L297.00,3.00L300.00,3.00L300.00,213.00L3.00,213.00z"/></g><g id="ToolTip" visibility="hidden" opacity="0" transform="translate(0,0)"><rect id="ToolTipShadow" opacity="0.20" fill="black" stroke="none" x="0" y="0" width="30" height="8"/><rect id="ToolTipBG" fill="#ffffe1" stroke="black" x="0" y="0" width="30" height="8"/><text xml:space="preserve" id="ToolTipText" fill="black" x="0" y="0" width="30" height="8">tooltip</text></g></g></svg>
