<?xml version="1.0" encoding="UTF-8" standalone="no"?>
<svg xmlns="http://www.w3.org/2000/svg" xmlns:xlink="http://www.w3.org/1999/xlink" width="297.000mm" height="210.000mm" viewBox="0.000000 0.000000 297.000000 210.000000" stroke-linejoin="round" stroke-linecap="round" fill="none" fill-rule="evenodd"><desc>Composer Export</desc><script type="text/ecmascript"><![CDATA[
if(typeof(top) != "undefined")
{
	top.ShowPaper = ShowPaper;
}
function ShowHotSpot(evt,hotspotid)
{
	var svgDocument = evt.target.ownerDocument;
	var strId = "hotspot."+hotspotid;
	var hotspot = svgDocument.getElementById(strId);
	if(hotspot)
		hotspot.setAttribute("opacity",".5");
}
function HideHotSpot(evt,hotspotid)
{
	var svgDocument = evt.target.ownerDocument;
	var strId = "hotspot."+hotspotid;
	var hotspot = svgDocument.getElementById(strId);
	if(hotspot)
		hotspot.setAttribute("opacity","0");

	var toolTip = svgDocument.getElementById('ToolTip');
	if(toolTip)
		toolTip.setAttribute("visibility","hidden");
}
function ShowToolTip(evt,hotspotid,strTooltip)
{
	if(strTooltip=="")
	return;

	// change text
	var svgDocument = evt.target.ownerDocument;
	var tiptext = svgDocument.getElementById('ToolTipText');
	if( !tiptext )
	return;
	tiptext.firstChild.nodeValue = " " + strTooltip + "  " ;

	// show tooltip before, else some refresh issue

	var toolTip = svgDocument.getElementById('ToolTip');
	if(!toolTip)
	return;

	toolTip.setAttribute("visibility","visible");
	toolTip.setAttribute("opacity",".95");

	// move tooltip
	// get viewbox

	var root = svgDocument.documentElement;
	var vbox = (root.getAttribute("viewBox")).split(' ');
	var x0 = parseFloat(vbox[0]);
	var y0 = parseFloat(vbox[1]);
	var vboxW = parseFloat(vbox[2]);
	var vboxH = parseFloat(vbox[3]);

	// get default width of svg

	var strW = root.getAttribute("width");
	var svgW = parseFloat(strW);
	if(strW.indexOf('mm') != -1)
	svgW *= 3.779;

	var strH = root.getAttribute("height");
	var svgH = parseFloat(strH);
	if(strH.indexOf('mm') != -1)
	svgH *= 3.779;  	// 96 dpi  -> 96/25.4 = 3.779

	// update the viewbox / width / height if svg is embedded in html with zoom fit all
	var realx0 = x0;
	var realy0 = y0;
	var realvboxW = vboxW;
	var realvboxH = vboxH;
	var realsvgW = svgW;
	var realsvgH = svgH;

	if ((typeof(top) == "undefined") || (typeof(top.svgctl1) != "undefined")) // embedded in html
	{
		// get window size in pxl

		svgW = window.innerWidth;
		svgH = window.innerHeight;

		// calculate real viewbox

		realsvgW = svgW;
		realsvgH = svgH;
		if((svgW / svgH) > (vboxW / vboxH))
		{
			realvboxW = (vboxH * svgW) / svgH;
			realvboxH = vboxH;
			realx0 = x0 - (realvboxW - vboxW)/2 ;
		}
		else
		{
			realvboxH = (vboxW * svgH) / svgW;
			realvboxW = vboxW;
			realy0 = y0 - (realvboxH - vboxH)/2 ;
		}
	}

	// get user zoom/pan

	var newScale = root.currentScale;
	var translation = root.currentTranslate;

	// transform pxl to user unit

	var xPos = (((evt.clientX+10- translation.x)/newScale) * realvboxW)/realsvgW  + realx0 ;
	var yPos = (((evt.clientY+5- translation.y)/newScale) * realvboxH)/ realsvgH  + realy0 ;
	var scaleForWidth = ( (1 / newScale) * realvboxH) / realsvgH;

	// move tooltip

	toolTip.setAttribute("transform", "translate(" + xPos + "," + yPos + ")" );

	// resize tooltip

	var fontsize = 12;
	tiptext.setAttribute("font-size",fontsize*scaleForWidth);
	tiptext.setAttribute("y", fontsize*scaleForWidth);
	var tipBG = svgDocument.getElementById('ToolTipBG');
	var outline = tiptext.getBBox();
	if(tipBG)
	{
		tipBG.setAttribute("stroke-width", 1*scaleForWidth);
		tipBG.setAttribute("width", Number(outline.width) );
		tipBG.setAttribute("height", Number(outline.height) + fontsize*.5*scaleForWidth );
	}
	var ToolTipShadow = svgDocument.getElementById('ToolTipShadow');
	if(ToolTipShadow)
	{
		ToolTipShadow.setAttribute("width", Number(outline.width) );
		ToolTipShadow.setAttribute("height", Number(outline.height) + fontsize*.5*scaleForWidth );
		ToolTipShadow.setAttribute("x", 3*scaleForWidth);
		ToolTipShadow.setAttribute("y", 3*scaleForWidth);
	}
}
function ShowPaper()
{
  var svgDocument = getDocument();
  var paper = svgDocument.getElementById("paperID");
  if(paper)
  {
    paper.setAttribute("transform","scale(1)");
    paper.setAttribute("opacity","1");
    paper.setAttribute("visibility","visible");
  }
  var svg = svgDocument.getRootElement();
  if(svg)
  {
    svg.setAttribute("width","307.000mm");
    svg.setAttribute("height","220.000mm");
    svg.setAttribute("viewBox","-5.000000 -5.000000 307.000000 220.000000");
  }
}
]]></script><defs/><g><path style="fill:#6c737e" d="M290.56,115.64L296.93,117.76L296.94,189.46L296.73,189.39L296.67,181.24L292.49,179.63L170.40,135.76L170.22,135.69L170.20,135.38L170.59,133.63L179.57,119.68L179.71,118.67L179.59,118.56L178.91,117.54L178.16,116.86L178.05,116.21L173.91,114.55L97.26,86.95L94.12,86.95L91.89,88.03L83.22,101.14L82.10,103.84L0.45,74.53L0.06,120.51L0.04,11.05z"/><path style="fill:#6c737e" d="M246.71,209.41L248.18,210.09L236.89,210.08L235.97,209.67L234.21,209.67L233.29,210.08L225.85,210.08L223.02,208.55L218.90,203.85L216.10,202.52L192.50,194.07L191.09,194.07L188.18,195.35L185.20,195.35L180.81,193.68L178.07,191.18L175.88,188.41L173.08,187.07L149.09,178.51L148.18,178.50L144.52,179.87L142.55,179.87L137.78,178.24L135.88,176.84L132.80,173.03L130.34,171.62L106.36,163.06L104.60,163.07L100.95,164.43L99.81,164.42L96.97,163.63L93.69,162.22L91.74,160.04L89.29,157.25L86.49,155.91L63.17,147.46L61.48,147.46L58.30,148.75L55.60,148.75L51.20,147.08L48.46,144.57L46.27,141.80L42.93,140.18L19.48,131.90L18.57,131.89L14.64,133.27L12.94,133.27L8.17,131.65L6.27,130.24L3.21,126.40L0.73,125.00L0.06,124.91L0.08,120.79L0.73,120.86z"/><path style="fill:#ffffff" d="M183.40,101.13L183.57,101.30L184.69,102.66L184.68,103.88L184.01,105.04L183.72,104.50L182.74,104.05L181.82,104.03L180.40,104.87L180.91,106.50L180.83,106.72L178.70,106.49L176.96,105.42L176.37,104.35L176.26,103.70L177.24,101.95L178.52,101.03L179.78,100.59L181.38,100.49z"/><path style="fill:#00fdff" d="M94.61,72.56L94.67,73.65L94.48,74.09L93.58,74.57L91.83,74.50L91.65,74.35L91.74,72.71L93.02,72.04z"/><path style="fill:#00fdff" d="M121.63,82.21L121.56,83.82L120.86,84.18L118.85,84.17L118.59,84.05L118.50,83.58L118.52,82.44L119.77,81.70L120.70,81.70z"/><path style="fill:#00fdff" d="M156.28,94.67L156.84,95.49L156.88,96.24L155.63,96.91L153.87,96.84L153.70,96.69L153.79,95.05L155.07,94.38z"/><path style="fill:#00fdff" d="M183.72,104.50L183.72,105.89L182.91,106.52L180.91,106.50L180.40,104.87L181.82,104.03L182.74,104.05z"/><path style="fill:#00e3e5" d="M94.26,73.09L94.05,73.83L93.77,73.91L93.04,73.71L92.93,73.94L92.29,74.03L92.19,72.90L92.74,72.59L93.69,72.59z"/><path style="fill:#00e3e5" d="M120.95,82.56L121.29,83.46L120.81,83.56L120.69,83.38L120.06,83.36L119.94,83.57L119.30,83.75L119.22,82.55L119.77,82.24L120.42,82.24z"/><path style="fill:#00e3e5" d="M156.31,95.43L156.10,96.17L155.82,96.26L155.71,96.08L155.07,96.05L154.98,96.26L154.34,96.36L154.24,95.24L154.78,94.93L155.73,94.93z"/><path style="fill:#00e3e5" d="M183.34,105.07L183.12,105.82L182.84,105.89L182.11,105.70L182.00,105.92L181.28,106.10L181.27,104.88L181.82,104.57L182.45,104.59z"/><path style="fill:#616871" d="M52.10,41.35L51.01,41.59L50.61,42.10L50.63,40.98L52.08,40.91z"/><path style="fill:#616871" d="M112.75,63.13L111.98,63.40L111.21,63.62L111.44,62.92L111.77,62.67L112.74,62.69z"/><path style="fill:#616871" d="M111.32,74.57L111.43,75.21L109.78,74.66L108.35,74.66L106.82,75.11L105.12,76.44L104.43,78.32L104.41,76.83L104.99,75.76L106.54,74.55L108.19,74.00L109.66,74.00z"/><path style="fill:#616871" d="M82.10,103.84L83.22,101.14L91.89,88.03L94.12,86.95L97.26,86.95L173.91,114.55L178.05,116.21L178.16,116.86L97.32,87.66L96.52,87.47L94.67,87.50L93.66,87.87L91.89,88.85L86.53,97.01L82.89,102.76L82.78,103.67L82.94,104.81L83.22,106.08L82.57,107.11L81.93,107.63L78.31,107.75L78.03,107.87L77.84,107.93L77.98,108.93L78.10,109.76L78.26,110.57L78.38,111.41L78.53,112.52L78.65,113.35L78.81,114.16L78.93,114.99L79.08,116.10L79.21,116.93L79.36,117.74L79.48,118.58L79.63,119.68L79.76,120.52L79.91,121.33L80.04,122.16L80.18,123.27L80.31,124.10L80.46,124.91L80.59,125.75L80.74,126.85L80.86,127.69L81.01,128.50L81.14,129.33L81.29,130.44L81.41,131.27L81.57,132.08L81.69,132.92L81.84,134.02L81.96,134.86L82.12,135.67L82.24,136.50L82.39,137.61L82.51,138.44L82.67,139.25L82.79,140.10L82.94,140.92L84.36,143.36L84.01,143.59L84.00,144.02L85.11,144.88L96.43,151.21L162.05,174.93L170.32,177.70L179.43,179.06L181.29,179.08L182.01,178.48L182.26,177.90L182.23,177.32L182.19,176.30L182.07,176.21L181.95,175.38L181.92,174.66L181.79,174.57L181.67,173.74L181.64,172.72L181.52,172.63L181.39,171.79L181.36,171.07L181.24,170.98L181.11,170.15L181.09,169.13L180.97,169.04L180.84,168.21L180.81,167.49L180.69,167.40L180.57,166.55L180.53,165.83L180.41,165.74L180.29,164.63L180.26,163.90L180.13,163.81L180.02,162.97L179.98,162.25L179.86,162.16L179.74,161.04L179.71,160.32L179.58,160.23L179.46,159.38L179.43,158.66L179.30,158.57L179.19,157.46L179.16,156.73L179.03,156.64L178.91,155.80L178.88,155.08L178.75,154.99L178.64,153.87L178.61,153.15L178.48,153.06L178.36,152.21L178.33,151.49L178.20,151.40L178.09,150.29L178.05,149.56L177.93,149.47L177.81,148.63L177.78,147.91L177.65,147.82L177.54,146.70L177.50,145.97L177.38,145.88L176.71,144.00L175.29,142.39L171.73,139.88L170.90,139.07L170.59,138.27L170.36,136.79L170.40,135.76L292.49,179.63L296.67,181.24L296.73,189.39L295.44,189.54L294.02,190.05L293.34,191.09L293.35,191.94L293.86,193.42L295.88,196.29L295.72,196.44L295.80,197.26L296.65,198.08L296.93,208.20L296.91,208.48L296.57,208.58L296.11,209.86L283.02,209.70L283.95,208.96L283.78,208.70L284.23,208.13L284.23,206.63L282.84,203.89L280.64,201.68L277.05,199.47L275.19,198.79L274.39,198.61L273.29,198.49L272.44,198.48L270.89,198.92L270.20,199.65L270.18,201.05L271.02,203.02L272.73,205.13L272.26,205.79L273.21,206.90L277.06,209.12L278.72,209.68L248.74,210.08L248.18,210.09L246.71,209.41L0.73,120.86L0.08,120.79L0.06,120.51L0.45,74.53z"/><path style="fill:#616871" d="M124.86,79.50L124.87,79.97L123.18,79.50L121.32,79.63L120.05,80.06L119.47,80.59L118.40,81.72L117.96,83.31L117.92,81.79L118.94,80.06L121.15,78.96L123.73,78.96z"/><path style="fill:#616871" d="M78.49,83.67L78.62,84.30L77.13,83.92L75.56,84.06L73.96,85.00L73.13,86.33L73.27,84.85L74.83,83.65L75.65,83.37L77.68,83.37z"/><path style="fill:#616871" d="M169.57,95.45L169.85,96.21L167.95,95.62L167.11,95.63L165.90,95.86L163.89,96.88L163.31,97.67L162.78,98.99L162.87,97.51L163.97,96.13L165.54,95.22L167.84,94.95z"/><path style="fill:#616871" d="M213.96,99.53L213.19,99.80L212.42,100.02L212.50,99.48L213.27,99.06L213.94,99.08z"/><path style="fill:#616871" d="M183.29,100.49L183.40,101.13L181.38,100.49L179.78,100.59L178.52,101.03L177.24,101.95L176.26,103.70L176.38,102.20L177.68,100.74L179.61,99.91L181.92,99.91z"/><path style="fill:#616871" d="M254.50,114.14L253.73,114.42L252.96,114.64L253.18,113.93L253.51,113.68L254.48,113.71z"/><path style="fill:#616871" d="M193.49,125.04L193.62,125.67L192.14,125.31L190.81,125.41L189.26,126.11L188.11,127.68L188.24,126.46L188.99,125.57L190.64,124.73L192.67,124.73z"/><path style="fill:#616871" d="M53.46,145.59L53.74,146.13L53.13,146.36L53.15,145.04z"/><path style="fill:#616871" d="M183.07,192.19L183.35,192.73L182.74,192.96L182.76,191.65z"/><path style="fill:#6c737e" d="M8.20,110.65L11.49,112.60L14.60,113.69L17.09,113.67L17.94,113.28L18.14,113.78L16.93,114.28L13.69,114.27L11.22,113.43L8.20,111.75L6.78,110.66L6.80,109.95L7.16,109.71z"/><path style="fill:#6c737e" d="M66.18,138.79L66.88,138.88L66.95,138.71L67.77,138.45L67.77,138.89L66.84,139.36L65.24,139.37L53.94,135.20L53.95,134.47L54.09,134.28z"/><path style="fill:#6c737e" d="M96.69,150.40L167.02,175.76L171.52,177.11L178.69,178.21L181.76,178.38L182.01,178.48L181.29,179.08L179.43,179.06L170.32,177.70L162.05,174.93L96.43,151.21L85.11,144.88L84.00,144.02L84.01,143.59L84.36,143.36z"/><path style="fill:#6c737e" d="M245.36,178.77L248.37,180.44L251.48,181.53L253.17,181.53L254.55,181.12L254.74,181.61L253.53,182.11L250.57,182.11L247.26,181.00L243.97,178.78L243.68,178.50L243.60,177.69L243.76,177.54z"/><path style="fill:#6c737e" d="M200.67,187.07L211.77,191.17L212.80,191.30L212.89,191.15L213.28,190.90L214.18,190.90L215.43,191.68L215.18,192.33L214.76,192.31L213.92,191.73L210.85,191.77L200.14,187.87L199.45,187.32L199.92,186.66z"/><path style="fill:#6c737e" d="M270.73,187.59L273.75,189.54L277.68,190.90L279.09,190.90L280.75,190.50L280.92,190.76L279.73,191.49L276.77,191.48L274.56,190.93L271.83,189.52L269.59,187.88L269.60,187.16L269.97,186.92z"/><path style="fill:#ffffff" d="M111.43,75.21L112.84,76.66L112.84,78.04L111.63,79.64L109.59,80.63L107.16,80.63L105.26,79.77L104.43,78.32L105.12,76.44L106.82,75.11L108.35,74.66L109.78,74.66z"/><path style="fill:#ffffff" d="M124.87,79.97L125.69,80.58L126.37,81.60L126.35,83.01L124.99,84.73L121.95,85.77L121.84,84.11L121.79,82.27L121.63,82.21L120.70,81.70L119.77,81.70L118.52,82.44L118.31,83.51L117.96,83.31L118.40,81.72L119.47,80.59L120.05,80.06L121.32,79.63L123.18,79.50z"/><path style="fill:#ffffff" d="M78.62,84.30L79.75,85.49L79.75,86.30L78.54,87.92L76.96,88.59L75.27,88.59L73.83,87.77L73.26,87.23L73.13,86.33L73.96,85.00L75.56,84.06L77.13,83.92z"/><path style="fill:#ffffff" d="M8.73,85.58L12.32,87.79L14.01,89.41L15.77,92.38L15.78,94.31L15.41,94.89L14.17,95.25L12.04,95.23L9.83,94.69L6.82,93.28L4.16,91.27L2.39,88.61L1.82,86.96L1.81,85.93L2.04,85.32L3.84,84.59L5.26,84.59L6.25,84.76z"/><path style="fill:#ffffff" d="M97.32,87.66L178.16,116.86L178.91,117.54L179.59,118.56L179.57,119.68L170.59,133.63L170.20,135.38L170.22,135.69L170.36,136.79L170.59,138.27L170.90,139.07L171.73,139.88L175.29,142.39L176.71,144.00L177.38,145.88L177.54,146.70L177.65,147.82L177.81,148.63L177.93,149.47L178.09,150.29L178.20,151.40L178.36,152.21L178.48,153.06L178.64,153.87L178.75,154.99L178.91,155.80L179.03,156.64L179.19,157.46L179.30,158.57L179.46,159.38L179.58,160.23L179.74,161.04L179.86,162.16L180.02,162.97L180.13,163.81L180.29,164.63L180.41,165.74L180.57,166.55L180.69,167.40L180.84,168.21L180.97,169.04L181.11,170.15L181.24,170.98L181.39,171.79L181.52,172.63L181.67,173.74L181.79,174.57L181.95,175.38L182.07,176.21L182.23,177.32L182.26,177.90L181.76,178.38L178.69,178.21L171.52,177.11L167.02,175.76L96.69,150.40L84.36,143.36L82.94,140.92L82.91,140.19L82.79,140.10L82.67,139.25L82.64,138.53L82.51,138.44L82.39,137.61L82.36,136.59L82.24,136.50L82.12,135.67L82.09,134.95L81.96,134.86L81.84,134.02L81.81,133.01L81.69,132.92L81.57,132.08L81.54,131.36L81.41,131.27L81.29,130.44L81.26,129.42L81.14,129.33L81.01,128.50L80.99,127.78L80.86,127.69L80.74,126.85L80.71,125.84L80.59,125.75L80.46,124.91L80.43,124.19L80.31,124.10L80.18,123.27L80.16,122.25L80.04,122.16L79.91,121.33L79.88,120.61L79.76,120.52L79.63,119.68L79.60,118.67L79.48,118.58L79.36,117.74L79.33,117.02L79.21,116.93L79.08,116.10L79.05,115.08L78.93,114.99L78.81,114.16L78.78,113.44L78.65,113.35L78.53,112.52L78.50,111.50L78.38,111.41L78.26,110.57L78.23,109.85L78.10,109.76L77.98,108.93L78.03,107.87L78.31,107.75L81.93,107.63L82.57,107.11L83.22,106.08L82.94,104.81L82.91,103.77L82.78,103.67L82.89,102.76L86.53,97.01L91.89,88.85L93.66,87.87L94.67,87.50L96.52,87.47z"/><path style="fill:#ffffff" d="M73.86,91.27L74.74,92.14L74.79,93.21L74.66,93.43L73.06,94.63L72.25,94.82L70.23,94.40L69.43,93.49L69.68,92.29L70.97,91.37L71.79,91.09z"/><path style="fill:#ffffff" d="M37.68,97.17L44.86,99.92L46.24,101.29L47.15,101.55L47.88,101.68L47.97,101.53L48.37,101.28L49.28,101.28L60.58,105.43L62.80,107.35L63.21,108.65L63.37,109.47L63.49,110.32L63.65,111.13L63.76,112.24L63.92,113.06L64.04,113.90L64.21,114.71L64.21,115.55L63.80,115.61L63.38,116.12L62.94,116.73L63.36,117.82L64.41,118.69L64.85,119.42L65.02,120.22L65.14,121.07L65.30,121.88L65.42,122.71L65.57,123.82L65.69,124.65L65.85,125.47L65.98,126.31L65.65,127.11L65.08,127.63L64.89,127.77L65.00,129.15L66.38,130.24L66.80,131.81L66.95,132.64L67.08,133.47L67.22,134.58L67.35,135.41L67.50,136.22L67.63,137.05L67.79,138.17L67.77,138.45L66.95,138.71L66.18,138.79L54.09,134.28L53.54,133.46L52.59,132.73L49.53,132.75L38.25,128.57L38.04,128.47L37.28,127.68L36.87,127.19L36.41,127.05L36.09,126.28L35.79,124.64L35.76,123.92L35.63,123.83L35.51,122.99L35.48,121.98L35.36,121.89L35.24,121.05L35.21,120.33L35.08,120.24L34.95,119.40L35.03,118.64L36.05,117.95L36.06,116.71L35.57,116.33L34.73,115.51L34.13,113.90L34.10,113.16L33.98,113.07L33.86,112.23L33.83,111.51L33.70,111.41L33.59,110.30L33.55,109.58L33.43,109.49L33.31,108.65L33.26,107.91L33.13,107.81L33.19,107.36L34.25,106.45L34.39,105.43L34.25,105.33L33.72,104.82L33.08,104.19L32.47,103.14L32.45,102.41L32.33,102.32L32.21,101.47L32.17,100.75L32.05,100.66L31.93,99.55L31.90,98.82L31.77,98.73L31.65,97.89L31.62,97.17L31.49,97.07L31.62,95.88L32.36,95.48L32.99,95.49z"/><path style="fill:#ffffff" d="M8.84,103.07L11.21,103.78L13.70,105.16L15.90,106.81L17.32,108.43L18.66,111.22L18.68,112.73L17.94,113.28L17.09,113.67L14.60,113.69L11.49,112.60L8.20,110.65L7.16,109.71L5.17,107.07L4.57,104.70L4.80,103.80L5.60,103.22L7.70,102.91z"/><path style="fill:#ffffff" d="M3.21,126.40L6.27,130.24L8.17,131.65L12.94,133.27L14.64,133.27L18.57,131.89L19.48,131.90L42.93,140.18L46.27,141.80L48.46,144.57L51.20,147.08L55.60,148.75L58.30,148.75L61.48,147.46L63.17,147.46L86.49,155.91L89.29,157.25L91.74,160.04L93.69,162.22L96.97,163.63L99.81,164.42L100.95,164.43L104.60,163.07L106.36,163.06L130.34,171.62L132.80,173.03L135.88,176.84L137.78,178.24L142.55,179.87L144.52,179.87L148.18,178.50L149.09,178.51L173.08,187.07L175.88,188.41L178.07,191.18L180.81,193.68L185.20,195.35L188.18,195.35L191.09,194.07L192.50,194.07L216.10,202.52L218.90,203.85L223.02,208.55L225.85,210.08L0.08,210.05L0.06,124.91L0.73,125.00z"/><path style="fill:#ffffff" d="M193.62,125.67L194.74,126.85L194.74,127.96L194.22,128.86L192.23,129.96L190.01,129.94L188.56,128.85L188.23,128.35L188.11,127.68L189.26,126.11L190.81,125.41L192.14,125.31z"/><path style="fill:#ffffff" d="M188.85,132.64L189.74,133.51L189.78,134.58L189.12,135.34L187.63,136.06L186.03,136.06L184.96,135.48L184.42,134.84L184.96,133.39L185.96,132.74L186.78,132.46z"/><path style="fill:#ffffff" d="M195.71,153.96L206.74,158.10L208.64,159.78L210.21,159.75L210.41,159.62L211.51,159.63L221.61,163.36L223.29,164.17L223.85,164.98L224.38,165.28L225.07,166.02L225.24,166.83L225.36,167.67L225.52,168.48L225.64,169.32L225.79,170.43L225.91,171.26L226.07,172.07L226.21,172.91L225.89,173.98L225.30,174.51L225.10,174.66L225.19,175.78L225.50,176.29L226.59,177.13L227.02,178.42L227.17,179.24L227.30,180.07L227.44,181.18L227.57,182.01L227.72,182.82L227.85,183.66L228.02,184.77L228.01,185.33L227.33,185.40L227.15,185.84L226.90,186.15L226.75,186.24L226.88,186.98L227.15,187.62L227.98,188.16L228.65,189.19L228.83,189.99L228.95,190.83L229.10,191.94L229.22,192.77L229.38,193.58L229.50,194.41L229.65,195.52L229.79,196.34L229.19,196.87L228.95,197.00L228.24,197.02L216.68,192.83L216.20,192.44L215.43,191.68L214.18,190.90L213.28,190.90L212.89,191.15L211.77,191.17L200.67,187.07L199.92,186.66L199.38,186.11L198.54,185.28L197.93,183.95L197.91,182.92L197.79,182.83L197.66,182.00L197.63,181.28L197.51,181.19L197.38,180.35L197.36,179.34L197.24,179.25L197.12,178.41L197.06,177.68L196.93,177.58L196.99,177.13L197.91,176.43L198.07,175.95L198.20,175.21L198.06,175.11L197.52,174.59L196.89,173.96L196.29,173.18L196.25,172.17L196.14,172.07L196.01,171.24L195.98,170.52L195.85,170.43L195.73,169.60L195.70,168.58L195.58,168.49L195.46,167.66L195.43,166.94L195.30,166.85L195.34,165.56L196.27,164.81L196.53,164.14L195.80,163.21L195.23,162.64L194.58,161.71L194.36,160.49L194.32,159.77L194.20,159.68L194.08,158.83L194.05,158.11L193.92,158.02L193.81,156.91L193.77,156.18L193.65,156.09L193.53,155.25L193.48,154.51L193.37,154.44L194.47,153.71z"/><path style="fill:#ffffff" d="M246.00,170.91L247.81,171.63L250.03,172.72L251.99,174.07L254.19,176.56L255.28,178.50L255.29,180.56L254.55,181.12L253.17,181.53L251.48,181.53L248.37,180.44L245.36,178.77L243.76,177.54L241.74,174.67L241.23,173.19L241.22,172.34L241.90,171.30L243.32,170.80z"/><path style="fill:#ffffff" d="M271.92,180.29L274.02,181.00L276.50,182.38L278.71,184.03L280.12,185.65L281.33,187.80L281.34,190.01L280.75,190.50L279.09,190.90L277.68,190.90L273.75,189.54L270.73,187.59L269.97,186.92L268.50,185.14L267.67,183.49L267.37,182.66L267.37,181.63L267.94,180.54L268.59,180.29L270.79,180.13z"/><path style="fill:#ffffff" d="M249.48,189.54L252.51,190.92L255.26,192.86L256.96,194.75L258.16,197.18L258.18,198.83L257.78,199.38L256.84,199.76L254.15,199.76L251.94,199.21L248.40,197.23L246.56,195.79L245.34,194.24L244.49,192.87L244.12,190.64L244.97,189.54L246.25,189.11L247.09,189.12z"/><path style="fill:#ffffff" d="M275.19,198.79L277.05,199.47L280.64,201.68L282.84,203.89L284.23,206.63L284.23,208.13L283.78,208.70L282.77,209.14L280.08,209.13L276.78,208.02L273.76,206.07L272.73,205.13L271.02,203.02L270.18,201.05L270.20,199.65L270.89,198.92L272.44,198.48L273.29,198.49L274.39,198.61z"/><path style="fill:#00fdff" d="M93.77,73.91L92.93,73.94L93.04,73.71z"/><path style="fill:#00fdff" d="M120.81,83.56L119.94,83.57L120.06,83.36L120.69,83.38z"/><path style="fill:#00fdff" d="M155.82,96.26L154.98,96.26L155.07,96.05L155.71,96.08z"/><path style="fill:#00fdff" d="M182.84,105.89L182.00,105.92L182.11,105.70z"/><path style="fill:#00001c" d="M94.25,73.80L94.05,73.83L94.26,73.09z"/><path style="fill:#00001c" d="M156.29,96.14L156.10,96.17L156.31,95.43z"/><path style="fill:#00001c" d="M183.32,105.79L183.12,105.82L183.34,105.07z"/><path style="fill:#00e3e5" d="M93.12,74.39L92.93,73.94L93.77,73.91z"/><path style="fill:#00e3e5" d="M93.58,74.57L94.48,74.09L94.67,73.65L94.81,73.64L94.79,76.04L94.16,76.78L92.82,76.77L92.05,76.11L92.01,75.38L91.88,75.28L91.83,74.50z"/><path style="fill:#00e3e5" d="M121.84,84.11L121.95,85.77L120.77,86.64L119.96,86.65L119.13,85.98L118.91,85.23L118.79,84.63L118.85,84.17L120.86,84.18L121.56,83.82z"/><path style="fill:#00e3e5" d="M120.14,84.05L119.94,83.57L120.81,83.56z"/><path style="fill:#00e3e5" d="M155.71,96.45L154.98,96.26L155.82,96.26z"/><path style="fill:#00e3e5" d="M155.63,96.91L156.88,96.24L156.97,97.62L156.97,98.45L156.20,99.11L154.87,99.11L154.10,98.44L154.06,97.72L153.93,97.62L153.87,96.84z"/><path style="fill:#00e3e5" d="M182.19,106.38L182.00,105.92L182.84,105.89z"/><path style="fill:#00e3e5" d="M182.91,106.52L183.72,105.89L183.88,105.91L183.87,108.31L182.82,108.98L182.01,108.98L181.17,108.33L180.98,107.26L180.83,106.72L180.91,106.50z"/><path style="fill:#000020" d="M52.05,41.54L51.01,41.59L52.10,41.35z"/><path style="fill:#000020" d="M112.71,63.32L111.98,63.40L112.75,63.13z"/><path style="fill:#000020" d="M94.81,73.64L94.67,73.65L94.61,72.56L94.77,72.62z"/><path style="fill:#000020" d="M92.05,76.11L91.88,75.28L92.01,75.38z"/><path style="fill:#000020" d="M112.84,78.04L112.84,76.66L112.97,76.74z"/><path style="fill:#000020" d="M126.35,83.01L126.37,81.60L126.49,81.71z"/><path style="fill:#000020" d="M118.50,83.58L118.31,83.51L118.52,82.44z"/><path style="fill:#000020" d="M93.48,83.50L93.30,83.46L93.25,82.74L93.45,82.78z"/><path style="fill:#000020" d="M121.84,84.11L121.56,83.82L121.63,82.21L121.79,82.27z"/><path style="fill:#000020" d="M118.59,84.05L118.85,84.17L118.79,84.63L118.46,84.46z"/><path style="fill:#000020" d="M119.13,85.98L118.95,85.93L118.91,85.23z"/><path style="fill:#000020" d="M79.75,86.30L79.75,85.49L79.90,85.59z"/><path style="fill:#000020" d="M120.68,86.79L119.96,86.65L120.77,86.64z"/><path style="fill:#000020" d="M120.51,93.15L120.32,93.11L120.27,92.39L120.50,92.46z"/><path style="fill:#000020" d="M74.79,93.21L74.74,92.14L74.90,92.21z"/><path style="fill:#000020" d="M15.78,94.31L15.77,92.38L15.90,92.47z"/><path style="fill:#000020" d="M31.65,97.89L31.49,97.07L31.62,97.17z"/><path style="fill:#000020" d="M156.97,98.45L156.97,97.62L157.10,97.74z"/><path style="fill:#000020" d="M154.10,98.44L153.93,97.62L154.06,97.72z"/><path style="fill:#000020" d="M31.93,99.55L31.77,98.73L31.90,98.82z"/><path style="fill:#000020" d="M213.91,99.72L213.19,99.80L213.96,99.53z"/><path style="fill:#000020" d="M32.21,101.47L32.05,100.66L32.17,100.75z"/><path style="fill:#000020" d="M47.88,101.68L47.15,101.55L47.97,101.53z"/><path style="fill:#000020" d="M32.47,103.14L32.33,102.32L32.45,102.41z"/><path style="fill:#000020" d="M82.94,104.81L82.78,103.67L82.91,103.77z"/><path style="fill:#000020" d="M184.01,105.04L183.88,105.91L183.72,105.89L183.72,104.50z"/><path style="fill:#000020" d="M155.53,105.83L155.35,105.79L155.29,105.07L155.50,105.12z"/><path style="fill:#000020" d="M34.25,106.45L34.25,105.33L34.39,105.43z"/><path style="fill:#000020" d="M181.17,108.33L181.00,108.28L180.98,107.26z"/><path style="fill:#000020" d="M33.31,108.65L33.13,107.81L33.26,107.91z"/><path style="fill:#000020" d="M77.98,108.93L77.84,107.93L78.03,107.87z"/><path style="fill:#000020" d="M182.73,109.13L182.01,108.98L182.82,108.98z"/><path style="fill:#000020" d="M63.37,109.47L63.21,108.65L63.34,108.75z"/><path style="fill:#000020" d="M33.59,110.30L33.43,109.49L33.55,109.58z"/><path style="fill:#000020" d="M78.26,110.57L78.10,109.76L78.23,109.85z"/><path style="fill:#000020" d="M63.65,111.13L63.49,110.32L63.61,110.41z"/><path style="fill:#000020" d="M33.86,112.23L33.70,111.41L33.83,111.51z"/><path style="fill:#000020" d="M78.53,112.52L78.38,111.41L78.50,111.50z"/><path style="fill:#000020" d="M72.76,113.09L71.95,112.73L72.45,112.54z"/><path style="fill:#000020" d="M63.92,113.06L63.76,112.24L63.88,112.34z"/><path style="fill:#000020" d="M34.13,113.90L33.98,113.07L34.10,113.16z"/><path style="fill:#000020" d="M78.81,114.16L78.65,113.35L78.78,113.44z"/><path style="fill:#000020" d="M254.45,114.34L253.73,114.42L254.50,114.14z"/><path style="fill:#000020" d="M64.21,114.71L64.04,113.90L64.16,113.99z"/><path style="fill:#000020" d="M182.55,115.48L182.37,115.44L182.32,114.73L182.55,114.80z"/><path style="fill:#000020" d="M79.08,116.10L78.93,114.99L79.05,115.08z"/><path style="fill:#000020" d="M79.36,117.74L79.21,116.93L79.33,117.02z"/><path style="fill:#000020" d="M34.95,119.40L34.83,118.70L35.03,118.64z"/><path style="fill:#000020" d="M179.57,119.68L179.59,118.56L179.71,118.67z"/><path style="fill:#000020" d="M79.63,119.68L79.48,118.58L79.60,118.67z"/><path style="fill:#000020" d="M65.02,120.22L64.85,119.42L64.99,119.50z"/><path style="fill:#000020" d="M35.24,121.05L35.08,120.24L35.21,120.33z"/><path style="fill:#000020" d="M79.91,121.33L79.76,120.52L79.88,120.61z"/><path style="fill:#000020" d="M65.30,121.88L65.14,121.07L65.27,121.16z"/><path style="fill:#000020" d="M35.51,122.99L35.36,121.89L35.48,121.98z"/><path style="fill:#000020" d="M80.18,123.27L80.04,122.16L80.16,122.25z"/><path style="fill:#000020" d="M65.57,123.82L65.42,122.71L65.54,122.81z"/><path style="fill:#000020" d="M35.79,124.64L35.63,123.83L35.76,123.92z"/><path style="fill:#000020" d="M80.46,124.91L80.31,124.10L80.43,124.19z"/><path style="fill:#000020" d="M65.85,125.47L65.69,124.65L65.82,124.75z"/><path style="fill:#000020" d="M80.74,126.85L80.59,125.75L80.71,125.84z"/><path style="fill:#000020" d="M65.65,127.11L65.98,126.31L66.13,127.31L65.97,127.42z"/><path style="fill:#000020" d="M194.74,127.96L194.74,126.85L194.88,126.94z"/><path style="fill:#000020" d="M81.01,128.50L80.86,127.69L80.99,127.78z"/><path style="fill:#000020" d="M81.29,130.44L81.14,129.33L81.26,129.42z"/><path style="fill:#000020" d="M81.57,132.08L81.41,131.27L81.54,131.36z"/><path style="fill:#000020" d="M66.95,132.64L66.80,131.81L66.92,131.91z"/><path style="fill:#000020" d="M81.84,134.02L81.69,132.92L81.81,133.01z"/><path style="fill:#000020" d="M189.78,134.58L189.74,133.51L189.90,133.58z"/><path style="fill:#000020" d="M67.22,134.58L67.08,133.47L67.19,133.56z"/><path style="fill:#000020" d="M82.12,135.67L81.96,134.86L82.09,134.95z"/><path style="fill:#000020" d="M67.50,136.22L67.35,135.41L67.47,135.50z"/><path style="fill:#000020" d="M170.36,136.79L170.22,135.69L170.40,135.76z"/><path style="fill:#000020" d="M82.39,137.61L82.24,136.50L82.36,136.59z"/><path style="fill:#000020" d="M67.79,138.17L67.63,137.05L67.74,137.14z"/><path style="fill:#000020" d="M66.88,138.88L66.18,138.79L66.95,138.71z"/><path style="fill:#000020" d="M82.67,139.25L82.51,138.44L82.64,138.53z"/><path style="fill:#000020" d="M82.94,140.92L82.79,140.10L82.91,140.19z"/><path style="fill:#000020" d="M53.46,145.59L53.15,145.04L53.49,144.84z"/><path style="fill:#000020" d="M177.54,146.70L177.38,145.88L177.50,145.97z"/><path style="fill:#000020" d="M177.81,148.63L177.65,147.82L177.78,147.91z"/><path style="fill:#000020" d="M178.09,150.29L177.93,149.47L178.05,149.56z"/><path style="fill:#000020" d="M178.36,152.21L178.20,151.40L178.33,151.49z"/><path style="fill:#000020" d="M178.64,153.87L178.48,153.06L178.61,153.15z"/><path style="fill:#000020" d="M193.53,155.25L193.37,154.44L193.48,154.51z"/><path style="fill:#000020" d="M178.91,155.80L178.75,154.99L178.88,155.08z"/><path style="fill:#000020" d="M193.81,156.91L193.65,156.09L193.77,156.18z"/><path style="fill:#000020" d="M179.19,157.46L179.03,156.64L179.16,156.73z"/><path style="fill:#000020" d="M194.08,158.83L193.92,158.02L194.05,158.11z"/><path style="fill:#000020" d="M179.46,159.38L179.30,158.57L179.43,158.66z"/><path style="fill:#000020" d="M211.51,159.63L210.41,159.62L211.42,159.48z"/><path style="fill:#000020" d="M194.36,160.49L194.20,159.68L194.32,159.77z"/><path style="fill:#000020" d="M179.74,161.04L179.58,160.23L179.71,160.32z"/><path style="fill:#000020" d="M98.08,162.06L97.36,161.94L98.13,161.87z"/><path style="fill:#000020" d="M180.02,162.97L179.86,162.16L179.98,162.25z"/><path style="fill:#000020" d="M180.29,164.63L180.13,163.81L180.26,163.90z"/><path style="fill:#000020" d="M180.57,166.55L180.41,165.74L180.53,165.83z"/><path style="fill:#000020" d="M225.24,166.83L225.07,166.02L225.22,166.10z"/><path style="fill:#000020" d="M195.46,167.66L195.30,166.85L195.43,166.94z"/><path style="fill:#000020" d="M180.84,168.21L180.69,167.40L180.81,167.49z"/><path style="fill:#000020" d="M225.52,168.48L225.36,167.67L225.49,167.77z"/><path style="fill:#000020" d="M195.73,169.60L195.58,168.49L195.70,168.58z"/><path style="fill:#000020" d="M181.11,170.15L180.97,169.04L181.09,169.13z"/><path style="fill:#000020" d="M225.79,170.43L225.64,169.32L225.76,169.41z"/><path style="fill:#000020" d="M196.01,171.24L195.85,170.43L195.98,170.52z"/><path style="fill:#000020" d="M181.39,171.79L181.24,170.98L181.36,171.07z"/><path style="fill:#000020" d="M226.07,172.07L225.91,171.26L226.04,171.35z"/><path style="fill:#000020" d="M196.29,173.18L196.14,172.07L196.25,172.17z"/><path style="fill:#000020" d="M181.67,173.74L181.52,172.63L181.64,172.72z"/><path style="fill:#000020" d="M226.34,174.00L225.89,173.98L226.21,172.91L226.31,173.00z"/><path style="fill:#000020" d="M181.95,175.38L181.79,174.57L181.92,174.66z"/><path style="fill:#000020" d="M198.07,175.95L198.06,175.11L198.20,175.21z"/><path style="fill:#000020" d="M182.23,177.32L182.07,176.21L182.19,176.30z"/><path style="fill:#000020" d="M197.12,178.41L196.93,177.58L197.06,177.68z"/><path style="fill:#000020" d="M182.01,178.48L181.76,178.38L182.26,177.90z"/><path style="fill:#000020" d="M227.17,179.24L227.02,178.42L227.14,178.52z"/><path style="fill:#000020" d="M197.38,180.35L197.24,179.25L197.36,179.34z"/><path style="fill:#000020" d="M227.44,181.18L227.30,180.07L227.41,180.16z"/><path style="fill:#000020" d="M197.66,182.00L197.51,181.19L197.63,181.28z"/><path style="fill:#000020" d="M227.72,182.82L227.57,182.01L227.69,182.10z"/><path style="fill:#000020" d="M197.93,183.95L197.79,182.83L197.91,182.92z"/><path style="fill:#000020" d="M228.02,184.77L227.85,183.66L227.96,183.75z"/><path style="fill:#000020" d="M226.88,186.98L226.75,186.24L226.90,186.15z"/><path style="fill:#000020" d="M281.34,190.01L281.33,187.80L281.46,187.88z"/><path style="fill:#000020" d="M228.83,189.99L228.65,189.19L228.80,189.27z"/><path style="fill:#000020" d="M212.80,191.30L211.77,191.17L212.89,191.15z"/><path style="fill:#000020" d="M229.10,191.94L228.95,190.83L229.07,190.92z"/><path style="fill:#000020" d="M183.07,192.19L182.76,191.65L183.10,191.44z"/><path style="fill:#000020" d="M229.38,193.58L229.22,192.77L229.35,192.86z"/><path style="fill:#000020" d="M229.65,195.52L229.50,194.41L229.62,194.50z"/><path style="fill:#000020" d="M229.95,196.88L229.19,196.87L229.79,196.34z"/><path style="fill:#000020" d="M258.18,198.83L258.16,197.18L258.30,197.26z"/><path style="fill:#000020" d="M227.68,208.67L226.97,208.54L227.74,208.48z"/><path style="fill:#616871" d="M72.22,48.35L72.18,48.70L70.67,49.00L70.76,48.47L71.91,48.03z"/><path style="fill:#616871" d="M92.61,56.12L91.92,56.04L91.16,56.71L91.17,55.60L92.59,55.54z"/><path style="fill:#616871" d="M95.88,82.00L95.96,82.72L95.04,82.24L94.41,82.24L93.45,82.78L93.25,82.74L93.38,82.08L94.12,81.71L95.34,81.70z"/><path style="fill:#616871" d="M73.85,90.80L73.86,91.27L71.79,91.09L70.97,91.37L69.68,92.29L69.43,93.49L69.38,91.99L70.13,91.09L71.23,90.53L73.58,90.51z"/><path style="fill:#616871" d="M122.90,91.65L122.95,92.64L122.61,92.24L121.78,91.90L120.50,92.46L120.27,92.39L120.41,91.73L121.15,91.35L122.07,91.36z"/><path style="fill:#616871" d="M193.82,92.52L193.13,92.45L192.39,92.87L192.37,92.01L193.80,91.94z"/><path style="fill:#616871" d="M84.93,93.45L84.19,93.56L83.49,94.05L83.32,93.29L83.61,92.99L84.86,93.03z"/><path style="fill:#616871" d="M157.93,104.34L158.00,105.06L157.09,104.58L156.45,104.58L155.50,105.12L155.29,105.07L155.43,104.42L156.16,104.04L157.39,104.04z"/><path style="fill:#616871" d="M234.36,107.14L233.67,107.06L232.93,107.48L232.91,106.62L234.34,106.56z"/><path style="fill:#616871" d="M184.95,113.99L185.03,114.70L183.83,114.23L182.55,114.80L182.32,114.73L182.45,114.07L183.20,113.69L184.12,113.70z"/><path style="fill:#616871" d="M179.23,127.39L178.21,127.46L177.85,128.18L177.67,128.13L177.76,127.02L179.19,126.94z"/><path style="fill:#616871" d="M10.47,130.42L9.74,130.64L9.83,129.48L10.20,129.39z"/><path style="fill:#616871" d="M188.85,132.17L188.85,132.64L186.78,132.46L185.96,132.74L184.96,133.39L184.42,134.84L184.38,133.36L185.13,132.45L186.22,131.89L188.57,131.87z"/><path style="fill:#616871" d="M96.79,161.57L96.62,161.70L96.14,161.72L96.13,160.66L96.51,160.56z"/><path style="fill:#616871" d="M140.03,177.07L139.36,177.24L139.44,176.09L139.81,175.99z"/><path style="fill:#616871" d="M226.40,208.17L226.23,208.31L225.75,208.32L225.74,207.26L226.13,207.15z"/><path style="fill:#6c737e" d="M19.26,86.39L19.23,87.06L18.64,87.01L18.27,86.75L18.36,86.22L18.95,86.07z"/><path style="fill:#6c737e" d="M6.82,93.28L9.83,94.69L12.04,95.23L14.17,95.25L15.41,94.89L15.35,95.30L14.44,95.80L12.50,96.07L11.49,96.08L9.27,95.52L5.73,93.54L4.03,92.18L4.04,91.45L4.16,91.27z"/><path style="fill:#6c737e" d="M31.06,94.81L30.41,94.76L30.39,94.41L30.81,94.36z"/><path style="fill:#6c737e" d="M47.39,100.45L46.38,100.54L46.38,100.20L47.10,100.16z"/><path style="fill:#6c737e" d="M71.12,101.86L71.07,102.22L70.18,102.16L69.85,101.82L70.25,101.29z"/><path style="fill:#6c737e" d="M33.72,104.82L33.54,105.25L32.70,105.16L32.72,104.43L33.08,104.19z"/><path style="fill:#6c737e" d="M80.46,105.47L80.46,105.80L79.57,105.71L79.58,105.24L79.89,105.14z"/><path style="fill:#6c737e" d="M32.78,105.99L32.74,106.37L32.16,106.28L32.07,105.70L32.45,105.65z"/><path style="fill:#6c737e" d="M63.33,106.39L62.68,106.34L62.66,105.99L63.08,105.94z"/><path style="fill:#6c737e" d="M72.76,113.09L72.73,113.82L72.14,113.77L71.77,113.50L71.76,112.88L71.95,112.73z"/><path style="fill:#6c737e" d="M35.57,116.33L35.17,116.84L34.67,116.76L34.27,116.16L34.73,115.51z"/><path style="fill:#6c737e" d="M64.25,115.80L63.90,116.34L63.38,116.12L63.80,115.61L64.21,115.55z"/><path style="fill:#6c737e" d="M65.29,117.85L64.41,117.85L64.42,117.37L64.72,117.28z"/><path style="fill:#6c737e" d="M34.70,117.55L33.78,117.55L33.73,117.26L34.41,117.26z"/><path style="fill:#6c737e" d="M24.76,121.15L23.59,121.16L23.58,120.66L23.92,120.31z"/><path style="fill:#6c737e" d="M37.28,127.68L37.04,128.05L36.30,128.07L36.22,127.22L36.41,127.05L36.87,127.19z"/><path style="fill:#6c737e" d="M65.97,127.42L65.84,127.60L65.08,127.63L65.65,127.11z"/><path style="fill:#6c737e" d="M49.53,132.75L52.59,132.73L53.54,133.46L53.13,134.20L51.22,133.30L50.58,133.57L49.25,133.58L37.94,129.44L37.58,129.22L37.68,128.71L38.04,128.47L38.25,128.57z"/><path style="fill:#6c737e" d="M66.91,129.28L66.26,129.23L66.24,128.88L66.66,128.83z"/><path style="fill:#6c737e" d="M36.33,129.16L35.75,129.16L35.66,128.58L36.00,128.58z"/><path style="fill:#6c737e" d="M75.49,130.56L75.49,131.17L74.62,131.10L74.54,130.25L74.90,130.20z"/><path style="fill:#6c737e" d="M52.59,134.95L52.00,134.98L51.65,134.61L52.04,134.38z"/><path style="fill:#6c737e" d="M173.94,139.36L173.06,139.36L173.07,138.88L173.37,138.79z"/><path style="fill:#6c737e" d="M68.62,140.45L68.59,140.84L68.01,140.75L68.00,140.25L68.33,140.16z"/><path style="fill:#6c737e" d="M77.43,142.38L76.26,142.39L76.29,141.63L76.59,141.54z"/><path style="fill:#6c737e" d="M183.28,142.13L183.59,142.66L182.71,142.71L182.35,142.45L182.35,141.84L182.73,141.78z"/><path style="fill:#6c737e" d="M87.08,148.18L86.19,148.18L86.12,147.61L86.76,147.61z"/><path style="fill:#6c737e" d="M193.00,152.88L193.00,153.21L192.28,152.92L192.28,152.58L192.66,152.53z"/><path style="fill:#6c737e" d="M185.29,153.70L185.25,154.06L184.09,153.97L184.08,153.48L184.41,153.13z"/><path style="fill:#6c737e" d="M209.24,158.94L208.65,158.94L208.56,158.36L208.90,158.36z"/><path style="fill:#6c737e" d="M195.80,163.21L195.42,163.69L194.48,163.04L195.23,162.64z"/><path style="fill:#6c737e" d="M236.25,164.71L236.17,165.01L235.68,165.04L235.13,164.71L235.10,164.23L235.43,163.88z"/><path style="fill:#6c737e" d="M194.90,164.45L194.02,164.45L194.03,163.97L194.33,163.88z"/><path style="fill:#6c737e" d="M225.50,164.74L224.91,164.76L224.55,164.39L224.94,164.16z"/><path style="fill:#6c737e" d="M187.99,171.33L187.91,171.63L187.43,171.66L186.86,171.32L186.77,170.78L187.42,170.75z"/><path style="fill:#6c737e" d="M197.52,174.59L197.35,175.02L196.78,174.98L196.42,174.72L196.52,174.21L196.89,173.96z"/><path style="fill:#6c737e" d="M226.26,174.40L225.30,174.51L225.89,173.98L226.34,174.00z"/><path style="fill:#6c737e" d="M196.58,175.76L196.58,176.10L195.86,175.81L195.86,175.47L196.25,175.42z"/><path style="fill:#6c737e" d="M227.13,176.16L226.48,176.11L226.46,175.76L226.88,175.71z"/><path style="fill:#6c737e" d="M180.56,181.82L179.67,181.82L179.61,181.25L180.24,181.25z"/><path style="fill:#6c737e" d="M189.69,182.67L189.65,183.02L188.77,182.96L188.42,182.72L188.51,182.18L189.08,182.06z"/><path style="fill:#6c737e" d="M199.38,186.11L199.01,186.57L198.17,186.22L198.14,185.77L198.54,185.28z"/><path style="fill:#6c737e" d="M228.06,185.58L227.62,186.03L227.15,185.84L227.33,185.40L228.01,185.33z"/><path style="fill:#6c737e" d="M198.23,187.05L198.20,187.44L197.62,187.36L197.61,186.86L197.94,186.76z"/><path style="fill:#6c737e" d="M228.84,187.33L228.81,187.72L228.23,187.63L228.22,187.13L228.55,187.04z"/><path style="fill:#6c737e" d="M216.68,192.83L228.24,197.02L228.95,197.00L229.19,196.87L229.95,196.88L229.94,197.09L228.43,197.84L225.47,197.00L216.38,193.68L215.82,193.39L215.79,192.94L216.20,192.44z"/><path style="fill:#6c737e" d="M214.45,193.26L213.80,193.21L213.78,192.86L214.19,192.81z"/><path style="fill:#6c737e" d="M248.40,197.23L251.94,199.21L254.15,199.76L256.84,199.76L257.78,199.38L257.66,199.73L256.29,200.59L253.88,200.58L251.67,200.04L248.92,198.65L247.02,197.24L246.43,196.69L246.44,195.96L246.56,195.79z"/><path style="fill:#6c737e" d="M296.93,196.91L296.93,208.20L296.65,198.08L295.80,197.26L295.72,196.44L295.88,196.29z"/><path style="fill:#6c737e" d="M241.55,198.92L241.50,199.29L240.34,199.19L240.35,198.73L241.23,198.60z"/><path style="fill:#6c737e" d="M230.72,199.05L230.07,199.00L230.05,198.65L230.47,198.60z"/><path style="fill:#6c737e" d="M273.76,206.07L276.78,208.02L280.08,209.13L282.77,209.14L283.78,208.70L283.95,208.96L283.02,209.70L296.11,209.86L296.19,210.09L248.74,210.08L278.72,209.68L277.06,209.12L273.21,206.90L272.26,205.79L272.73,205.13z"/><path style="fill:#ffffff" d="M0.04,11.05L0.08,0.08L296.92,0.08L296.93,117.76L290.56,115.64z"/><path style="fill:#ffffff" d="M95.96,82.72L95.88,83.20L94.96,83.67L93.93,83.70L93.48,83.50L93.45,82.78L94.41,82.24L95.04,82.24z"/><path style="fill:#ffffff" d="M122.61,92.24L122.95,92.64L122.24,93.28L120.95,93.34L120.51,93.15L120.50,92.46L121.78,91.90z"/><path style="fill:#ffffff" d="M85.15,93.84L84.81,94.15L83.63,94.23L83.49,94.05L84.19,93.56L84.93,93.45z"/><path style="fill:#ffffff" d="M169.85,96.21L170.33,96.63L171.17,97.70L171.17,98.92L170.23,100.46L168.05,101.59L165.35,101.59L164.01,101.00L163.17,100.18L162.78,98.99L163.31,97.67L163.89,96.88L165.90,95.86L167.11,95.63L167.95,95.62z"/><path style="fill:#ffffff" d="M158.00,105.06L157.93,105.53L157.01,106.01L155.98,106.04L155.53,105.83L155.50,105.12L156.45,104.58L157.09,104.58z"/><path style="fill:#ffffff" d="M185.03,114.70L184.98,115.21L184.32,115.66L183.00,115.68L182.55,115.48L182.55,114.80L183.83,114.23z"/><path style="fill:#ffffff" d="M179.09,128.06L177.85,128.18L178.21,127.46L179.23,127.39z"/><path style="fill:#ffffff" d="M11.78,130.51L11.68,130.82L10.97,130.81L10.47,130.42L10.20,129.39L10.96,129.39z"/><path style="fill:#ffffff" d="M54.83,145.70L54.79,146.35L53.96,146.25L53.74,146.13L53.46,145.59L53.49,144.84L53.68,144.82z"/><path style="fill:#ffffff" d="M97.82,160.84L98.13,161.87L97.36,161.94L96.79,161.57L96.51,160.56L97.56,160.56z"/><path style="fill:#ffffff" d="M141.39,177.12L141.30,177.43L140.54,177.45L140.03,177.07L139.81,175.99L140.57,175.99z"/><path style="fill:#ffffff" d="M184.44,192.30L184.40,192.96L183.57,192.85L183.35,192.73L183.07,192.19L183.10,191.44L183.29,191.43z"/><path style="fill:#ffffff" d="M293.35,191.94L293.34,191.09L294.02,190.05L295.44,189.54L296.73,189.39L296.94,189.46L296.93,196.91L295.88,196.29L293.86,193.42z"/><path style="fill:#ffffff" d="M227.75,208.01L227.74,208.48L226.97,208.54L226.40,208.17L226.13,207.15L226.88,207.15z"/><path style="fill:#ffffff" d="M236.89,210.08L233.29,210.08L234.21,209.67L235.97,209.67z"/><path style="fill:#ffffff" d="M296.92,210.07L296.19,210.09L296.11,209.86L296.57,208.58L296.91,208.48z"/><g id="Actor_.0"><g style="stroke:#000000;stroke-width:0.176"><path d="M6.93,94.18 C4.84,92.49 4.82,92.48 2.80,90.72 C2.15,89.79 2.16,89.77 1.58,88.79 C1.32,87.95 1.32,87.94 1.13,87.08 "/><path d="M14.68,114.30 C12.21,113.49 12.20,113.48 9.76,112.57 C8.60,111.82 8.59,111.81 7.49,110.98 C5.97,109.20 5.96,109.19 4.52,107.35 "/><path d="M97.33,151.29 C96.71,151.09 96.70,151.09 96.09,150.85 C90.95,148.03 90.91,148.07 85.83,145.17 C84.25,143.80 84.23,143.78 82.75,142.30 "/><path d="M251.27,182.09 C248.85,181.27 248.84,181.26 246.45,180.35 C245.29,179.60 245.28,179.59 244.17,178.75 C242.61,176.91 242.60,176.90 241.12,175.00 "/><path d="M272.51,189.72 C270.42,188.04 270.40,188.02 268.38,186.26 C267.73,185.33 267.74,185.31 267.15,184.33 C266.89,183.45 266.89,183.44 266.69,182.54 "/><path d="M274.81,207.74 C272.99,206.24 272.98,206.23 271.21,204.65 C270.57,203.72 270.57,203.70 269.99,202.72 C269.73,201.86 269.73,201.85 269.53,200.97 "/><path d="M297.00,198.00 C295.70,196.85 295.69,196.84 294.44,195.64 C293.80,194.70 293.79,194.68 293.21,193.70 C292.95,192.83 292.95,192.82 292.75,191.94 "/><path d="M250.19,210.00 L0.00,119.99 "/><path d="M0.00,120.33 L249.25,210.00 "/><path d="M15.61,94.57 L13.77,95.87 L11.75,95.92 L6.93,94.18 "/><path d="M1.13,87.08 L1.80,85.24 "/><path d="M82.33,107.11 L82.25,103.93 L-0.00,74.34 "/><path d="M-0.00,71.40 L83.00,101.26 L91.20,88.68 L91.29,89.25 "/><path d="M0.00,11.96 L297.00,118.81 "/><path d="M18.45,112.96 L16.61,114.26 L14.68,114.30 "/><path d="M4.52,107.35 L3.94,105.39 L4.63,103.63 "/><path d="M11.80,130.79 L10.74,131.23 L10.04,130.81 L9.60,129.73 L10.11,129.05 "/><path d="M18.38,85.50 L17.86,86.01 L18.49,86.65 L19.47,86.77 L19.43,86.18 "/><path d="M24.73,120.58 L24.84,121.06 L23.80,121.05 L23.16,120.42 L23.68,119.90 "/><path d="M29.95,94.15 L30.49,93.86 L31.10,94.49 L29.95,94.15 "/><path d="M30.80,96.12 L31.16,95.57 L30.81,95.88 L31.99,103.82 L33.64,105.69 L33.80,106.73 "/><path d="M31.25,95.56 L31.16,95.57 "/><path d="M35.56,118.16 L35.40,117.12 L33.75,115.26 L32.69,107.13 L32.57,107.56 "/><path d="M32.69,106.15 L31.71,105.33 L32.52,105.44 L32.69,106.15 "/><path d="M31.99,103.82 L32.42,103.16 "/><path d="M33.86,117.42 L33.47,116.76 L34.57,117.17 L33.86,117.42 "/><path d="M33.75,115.26 L34.19,114.60 "/><path d="M32.93,107.01 L33.01,107.00 "/><path d="M32.86,104.94 L33.29,104.27 "/><path d="M37.60,127.90 L37.27,128.40 L36.82,128.16 L35.52,126.69 L34.45,118.57 L34.33,118.99 "/><path d="M34.69,118.44 L34.77,118.43 "/><path d="M35.05,115.71 L34.62,116.37 "/><path d="M35.44,128.71 L36.34,128.97 L35.66,128.12 L35.24,128.20 L35.44,128.71 "/><path d="M35.52,126.69 L35.95,126.03 "/><path d="M36.38,127.81 L36.82,127.14 "/><path d="M37.16,128.56 L38.45,129.51 L49.36,133.44 L49.79,132.78 "/><path d="M38.45,129.51 L38.88,128.85 "/><path d="M46.30,100.18 L46.52,99.63 L47.25,100.49 L46.30,100.18 "/><path d="M49.36,133.44 L51.58,133.17 L54.65,135.34 L65.92,139.36 L67.76,138.80 L67.90,138.25 "/><path d="M50.48,133.35 L50.91,132.69 "/><path d="M50.56,41.84 L51.09,40.65 L52.30,40.99 L51.72,42.08 L50.56,41.84 "/><path d="M50.53,41.79 L51.31,41.17 L52.35,41.51 "/><path d="M51.87,134.72 L51.43,134.02 L52.53,134.44 L51.87,134.72 "/><path d="M55.01,146.33 L54.21,146.81 L53.24,146.35 L52.81,145.27 L53.31,144.60 "/><path d="M53.37,134.39 L53.80,133.72 "/><path d="M54.65,135.34 L55.08,134.68 "/><path d="M63.16,116.31 L64.38,115.38 "/><path d="M63.24,106.38 L62.35,105.55 L63.16,105.66 L63.24,106.38 "/><path d="M64.24,117.42 L65.28,117.66 L64.34,116.88 L64.24,117.42 "/><path d="M63.79,116.06 L64.22,115.40 "/><path d="M65.98,126.84 L64.92,127.74 "/><path d="M65.56,139.26 L65.99,138.60 "/><path d="M65.90,128.71 L67.04,129.09 L66.50,128.42 L65.90,128.71 "/><path d="M65.55,127.50 L66.14,126.81 "/><path d="M67.64,140.07 L68.74,140.63 L68.07,139.78 L67.64,140.07 "/><path d="M66.69,139.18 L67.12,138.52 "/><path d="M67.75,138.27 L67.31,138.93 "/><path d="M71.18,101.51 L70.78,102.18 L70.19,101.96 L69.54,101.31 L70.06,100.77 "/><path d="M74.96,92.29 L74.22,90.74 L71.60,90.20 L69.60,91.45 L69.30,93.21 "/><path d="M72.60,48.80 L71.80,47.87 L70.68,48.90 L72.20,48.50 L72.60,48.80 L72.26,49.22 L70.79,49.07 "/><path d="M72.96,112.97 L72.55,113.61 L71.95,113.40 L71.25,112.52 L71.82,112.21 "/><path d="M79.90,85.58 L78.60,83.55 L75.81,83.11 L73.40,84.61 L73.04,86.75 "/><path d="M74.51,129.65 L74.00,130.19 L74.37,130.65 L75.48,131.05 L75.63,130.39 "/><path d="M76.27,141.08 L75.70,141.40 L76.41,142.28 L77.25,142.48 L77.40,141.82 "/><path d="M97.70,150.72 L97.33,151.29 "/><path d="M82.75,142.30 L77.43,109.07 L77.90,107.72 "/><path d="M77.43,109.07 L77.86,108.40 "/><path d="M80.41,105.12 L80.41,105.82 L79.52,105.50 L79.32,104.72 L79.89,104.77 "/><path d="M82.41,141.33 L82.84,140.67 "/><path d="M82.68,103.27 L82.44,103.64 L83.00,101.26 L83.08,101.83 "/><path d="M83.04,105.57 L82.60,106.23 "/><path d="M82.97,106.13 L83.01,106.07 "/><path d="M85.25,93.57 L84.26,92.63 L83.27,93.30 L83.37,93.86 "/><path d="M86.41,147.08 L85.70,147.26 L86.18,147.90 L86.94,148.13 L86.93,147.43 "/><path d="M85.71,145.11 L86.15,144.44 "/><path d="M91.20,88.68 L93.25,87.01 L94.62,86.60 L97.72,86.94 L177.30,115.56 L177.43,116.15 "/><path d="M92.85,56.09 L92.22,56.65 L91.12,56.45 L91.16,55.45 L91.94,55.16 L92.85,56.09 L92.03,55.73 L91.04,56.36 "/><path d="M93.22,82.59 L93.14,82.01 L93.26,83.31 "/><path d="M93.14,82.01 L94.46,81.29 L94.60,81.83 "/><path d="M95.97,82.32 L95.95,81.77 L94.52,81.29 "/><path d="M98.21,161.88 L97.12,162.31 L96.45,161.89 L96.01,160.81 L96.52,160.14 "/><path d="M96.09,150.85 L96.52,150.19 "/><path d="M97.27,151.39 L168.99,177.19 L170.14,177.49 L170.57,176.82 "/><path d="M97.41,86.83 L97.50,87.40 "/><path d="M113.07,76.91 L111.92,74.67 L109.54,73.79 L107.92,73.85 L105.39,75.09 L104.59,76.10 L104.40,78.42 "/><path d="M113.10,63.37 L113.06,62.85 L111.98,62.46 L111.29,63.65 L112.39,63.01 L112.98,63.59 L111.29,63.65 "/><path d="M126.57,81.76 L125.42,79.52 L123.09,78.65 L121.42,78.70 L118.89,79.94 L118.10,80.96 L117.90,83.28 "/><path d="M120.24,93.02 L120.14,91.73 L120.23,92.30 "/><path d="M120.14,91.73 L121.52,90.97 L121.61,91.54 "/><path d="M121.52,90.97 L122.86,91.45 L122.98,92.04 "/><path d="M141.42,177.42 L140.72,177.91 L139.66,177.44 L139.22,176.36 L139.72,175.69 "/><path d="M155.33,105.64 L155.21,104.34 L155.30,104.92 "/><path d="M155.21,104.34 L156.59,103.59 L156.67,104.16 "/><path d="M156.59,103.59 L158.02,104.10 L158.04,104.65 "/><path d="M162.73,99.41 L162.92,97.10 L163.72,96.07 L166.00,94.91 L167.70,94.74 L170.25,95.65 L171.39,97.89 "/><path d="M168.99,177.19 L169.43,176.53 "/><path d="M170.14,177.49 L179.56,178.93 L180.29,178.31 "/><path d="M297.00,181.19 L170.29,135.60 "/><path d="M297.00,178.24 L171.03,132.93 "/><path d="M173.80,138.70 L173.91,139.41 L172.96,139.12 L172.75,138.33 L173.32,138.38 "/><path d="M184.90,102.75 L183.74,100.51 L182.59,99.88 L179.74,99.69 L177.30,100.87 L176.43,101.94 L176.23,104.26 "/><path d="M177.61,127.77 L177.52,127.21 L178.43,126.55 L179.36,126.84 L179.49,127.48 "/><path d="M177.35,115.58 L179.18,116.93 L179.72,118.45 "/><path d="M180.33,181.01 L180.37,181.75 L179.56,181.48 L179.25,180.66 L179.84,180.69 "/><path d="M179.86,178.97 L181.78,178.69 L182.26,177.99 "/><path d="M184.62,192.96 L183.56,193.41 L182.86,192.98 L182.42,191.90 L182.92,191.23 "/><path d="M183.51,141.92 L183.36,142.58 L182.53,142.38 L181.82,141.50 L182.39,141.18 "/><path d="M185.05,114.37 L185.03,113.82 L183.59,113.30 L182.26,114.03 L182.33,115.36 "/><path d="M182.21,114.06 L182.30,114.63 "/><path d="M185.28,153.35 L185.12,154.02 L184.07,153.66 L183.58,152.93 L184.15,152.62 "/><path d="M183.68,113.87 L183.59,113.30 "/><path d="M190.00,133.68 L189.25,132.12 L186.63,131.59 L184.45,133.06 L184.34,134.60 "/><path d="M187.97,170.80 L187.57,171.47 L186.98,171.25 L186.30,170.48 L186.84,170.06 "/><path d="M188.59,181.49 L188.09,182.03 L188.46,182.49 L189.57,182.89 L189.73,182.23 "/><path d="M188.03,127.76 L188.07,128.13 "/><path d="M194.93,126.97 L194.24,125.38 L191.98,124.42 L188.85,125.48 L187.95,127.25 "/><path d="M191.98,152.44 L192.56,152.16 L193.12,152.74 L191.98,152.44 "/><path d="M194.44,161.45 L194.01,162.11 L192.87,154.68 L193.27,153.85 "/><path d="M192.82,154.41 L193.18,153.86 "/><path d="M194.11,92.51 L193.11,91.59 L192.20,92.61 L193.08,92.17 L194.11,92.51 L193.11,93.14 L192.30,92.79 "/><path d="M194.16,164.30 L193.73,163.61 L194.79,163.97 L194.83,164.39 L194.16,164.30 "/><path d="M194.01,162.11 L195.66,163.98 L195.82,165.01 "/><path d="M194.59,165.84 L194.71,165.42 L195.77,173.55 L196.21,172.88 "/><path d="M194.95,165.30 L195.03,165.28 "/><path d="M194.88,163.22 L195.30,162.58 "/><path d="M197.97,184.32 L197.62,184.85 L196.35,177.28 L196.79,176.72 "/><path d="M196.35,177.28 L196.71,176.73 "/><path d="M195.75,175.61 L195.63,174.96 L196.65,175.61 L195.75,175.61 "/><path d="M197.07,174.00 L196.64,174.66 L195.77,173.55 "/><path d="M197.25,186.69 L197.85,186.47 L198.41,187.05 L197.25,186.69 "/><path d="M197.54,184.98 L200.47,187.80 L211.74,191.82 L213.60,191.45 L216.67,193.63 L227.58,197.55 L228.01,196.89 "/><path d="M197.58,176.45 L196.64,174.66 "/><path d="M198.84,185.43 L198.40,186.09 "/><path d="M199.62,186.18 L199.18,186.85 "/><path d="M200.47,187.80 L200.90,187.14 "/><path d="M208.92,158.82 L208.33,157.91 L209.12,158.23 L208.92,158.82 "/><path d="M211.38,191.72 L211.81,191.06 "/><path d="M213.43,192.39 L214.44,193.14 L214.25,192.41 L213.43,192.39 "/><path d="M212.50,191.64 L212.94,190.97 "/><path d="M212.42,99.65 L213.25,98.89 L214.41,99.52 L213.36,100.43 L212.42,99.65 "/><path d="M212.55,100.07 L213.33,99.46 L214.37,99.80 "/><path d="M215.39,192.68 L215.82,192.01 "/><path d="M216.67,193.63 L217.10,192.96 "/><path d="M224.62,164.40 L224.53,163.74 L225.52,164.40 L224.62,164.40 "/><path d="M226.13,206.77 L225.65,207.74 L226.07,208.52 L227.14,208.99 L227.83,208.50 "/><path d="M225.18,174.60 L226.40,173.67 "/><path d="M225.81,174.35 L226.24,173.69 "/><path d="M226.94,186.03 L228.16,185.10 "/><path d="M226.96,176.10 L226.13,175.27 L227.19,175.63 L226.96,176.10 "/><path d="M229.77,196.56 L228.52,197.60 L227.58,197.55 "/><path d="M228.00,187.12 L228.27,186.62 L229.03,187.42 L228.00,187.12 "/><path d="M227.57,185.79 L228.00,185.12 "/><path d="M228.71,197.47 L229.14,196.80 "/><path d="M230.37,198.94 L229.82,198.05 L230.81,198.68 L230.37,198.94 "/><path d="M229.33,197.22 L229.92,196.54 "/><path d="M234.62,107.08 L233.76,106.73 L232.84,107.26 L233.49,106.17 L234.58,106.56 L234.62,107.08 L233.76,107.70 L232.81,107.36 "/><path d="M236.26,164.18 L236.17,164.84 L235.32,164.66 L234.63,163.81 L235.22,163.50 "/><path d="M241.56,198.58 L241.44,199.26 L240.54,198.99 L239.94,198.21 L240.52,197.90 "/><path d="M255.13,180.74 L253.30,182.04 L251.27,182.09 "/><path d="M241.12,175.00 L240.63,173.17 L241.32,171.41 "/><path d="M257.96,199.13 L256.35,200.33 L254.09,200.47 L249.24,198.71 L245.20,195.32 L243.93,193.35 L243.47,191.56 L244.15,189.80 "/><path d="M252.96,114.12 L253.92,115.00 L254.87,114.37 L254.38,113.50 L252.96,114.12 "/><path d="M253.06,114.65 L253.83,114.03 L254.87,114.37 "/><path d="M281.19,190.11 L279.35,191.41 L277.33,191.46 L272.51,189.72 "/><path d="M266.69,182.54 L267.37,180.78 "/><path d="M284.02,208.50 L282.32,209.74 L280.16,209.85 L274.81,207.74 "/><path d="M269.53,200.97 L270.21,199.17 "/><path d="M292.75,191.94 L293.43,190.16 "/><path d="M295.65,210.00 L296.27,208.55 "/></g><g style="stroke:#000000;stroke-width:0.529"><path d="M3.09,125.98 C4.89,128.17 4.90,128.18 6.78,130.31 C7.69,130.94 7.72,130.94 8.68,131.50 C11.02,132.32 11.03,132.32 13.40,133.08 "/><path d="M18.60,131.56 C19.46,131.63 19.48,131.63 20.33,131.77 C27.68,134.36 27.67,134.39 35.01,137.03 C40.09,138.89 40.09,138.89 45.17,140.76 "/><path d="M61.81,147.10 C62.75,147.19 62.76,147.19 63.69,147.35 C75.70,151.63 75.71,151.63 87.70,155.98 C88.61,156.49 88.63,156.49 89.51,157.07 C91.65,159.41 91.66,159.42 93.73,161.83 "/><path d="M6.56,84.48 C7.80,84.90 7.81,84.91 9.03,85.38 C10.34,86.13 10.35,86.12 11.61,86.94 C13.31,88.59 13.33,88.60 14.96,90.32 "/><path d="M180.29,178.31 C174.84,177.59 174.79,177.58 169.39,176.51 C133.50,163.79 133.47,163.78 97.70,150.72 C91.70,147.64 91.74,147.51 85.83,144.23 C84.84,143.48 84.84,143.47 83.90,142.66 "/><path d="M280.62,185.96 C278.83,184.10 278.82,184.09 276.98,182.30 C275.81,181.56 275.79,181.58 274.58,180.90 C273.37,180.44 273.36,180.44 272.13,180.02 "/><path d="M274.97,198.42 C277.40,199.51 277.42,199.51 279.81,200.69 C280.88,201.52 280.88,201.55 281.90,202.44 C282.69,203.38 282.70,203.38 283.45,204.35 "/><path d="M0.00,124.44 L3.09,125.98 "/><path d="M13.40,133.08 L18.60,131.56 "/><path d="M45.17,140.76 L50.82,146.50 L55.33,148.28 L57.52,148.63 L61.81,147.10 "/><path d="M93.73,161.83 L98.23,163.71 L100.51,164.18 L105.02,162.65 L106.90,162.89 L131.84,171.97 L136.40,176.94 L140.03,178.75 L143.93,179.72 L147.94,178.27 L149.91,178.39 L174.84,187.42 L180.35,193.06 L185.20,195.00 L187.14,195.27 L192.35,193.74 L217.31,202.62 L219.08,203.67 L222.80,208.03 L226.90,210.00 "/><path d="M297.00,117.86 L-0.00,11.01 "/><path d="M2.26,88.52 L1.54,86.33 L2.56,84.58 L6.56,84.48 "/><path d="M14.96,90.32 L15.92,92.58 L15.81,94.24 L14.21,95.21 L9.82,94.67 L5.08,91.92 L2.26,88.52 "/><path d="M4.45,105.00 L6.03,108.39 L10.00,111.77 L14.68,113.56 L16.94,113.60 L18.81,112.36 L17.89,108.82 L16.33,106.90 L12.04,103.87 L7.16,102.60 L4.63,103.63 L4.45,105.00 "/><path d="M10.14,129.84 L10.03,129.30 L10.92,129.10 L11.80,130.79 L10.81,130.64 L10.14,129.84 "/><path d="M18.92,85.99 L18.43,85.58 L19.43,86.18 L18.92,85.99 "/><path d="M23.68,119.90 L24.51,120.53 L23.68,119.90 "/><path d="M31.62,97.95 L31.25,95.56 L33.16,95.21 L44.07,99.13 L46.64,101.12 L49.36,101.04 L60.27,104.96 L62.93,107.21 L64.34,115.16 L63.11,116.95 L64.97,119.21 L66.14,126.81 L65.03,127.58 L64.87,128.39 L66.73,130.65 L67.90,138.25 L65.99,138.60 L54.71,134.51 L52.52,132.69 L49.79,132.78 L38.88,128.85 L36.22,126.60 L34.80,118.55 L36.05,116.86 L34.19,114.60 L33.06,107.26 L34.29,105.43 L32.42,103.16 L31.62,97.95 "/><path d="M54.21,146.27 L53.27,145.21 L53.75,144.54 L54.98,145.53 L55.01,146.33 L54.21,146.27 "/><path d="M69.59,93.71 L70.84,94.53 L73.05,94.53 L74.33,93.71 L74.96,92.29 L73.64,90.95 L71.68,90.77 L69.51,92.25 L69.59,93.71 "/><path d="M70.35,101.11 L70.93,101.44 L70.15,100.78 L70.35,101.11 "/><path d="M71.89,112.32 L72.69,112.88 L71.89,112.32 "/><path d="M73.40,87.37 L72.99,86.37 L73.40,85.30 L75.66,83.76 L77.92,83.78 L79.08,84.33 L79.90,85.58 L79.47,86.94 L77.58,88.34 L75.29,88.49 L73.40,87.37 "/><path d="M74.51,129.65 L75.45,130.15 L74.53,129.69 "/><path d="M76.34,141.19 L77.21,141.59 L76.34,141.19 "/><path d="M77.92,108.77 L77.90,107.72 L78.50,107.41 L82.33,107.11 L82.97,106.13 L82.93,102.10 L91.29,89.25 L93.33,87.59 L95.99,87.12 L178.43,116.68 L179.72,118.45 L179.24,120.35 L171.03,132.93 L170.29,135.60 L171.09,138.87 L175.50,142.26 L177.30,144.87 L182.26,177.97 L180.29,178.31 "/><path d="M83.90,142.66 L82.84,140.67 L77.92,108.77 "/><path d="M79.92,104.80 L80.37,105.09 L79.92,104.80 "/><path d="M83.45,93.71 L84.11,94.24 L85.25,93.57 L84.35,93.20 L83.45,93.71 "/><path d="M86.41,147.08 L86.70,147.31 L86.41,147.08 "/><path d="M93.22,82.59 L93.26,83.31 L94.62,83.81 L95.99,83.05 L94.86,81.92 L93.22,82.59 "/><path d="M97.12,161.65 L96.48,160.76 L96.95,160.08 L98.28,161.45 L98.21,161.88 L97.12,161.65 "/><path d="M104.76,79.03 L107.25,80.63 L110.14,80.45 L112.26,79.03 L113.07,76.91 L112.01,75.24 L110.94,74.66 L108.00,74.42 L105.48,75.66 L104.68,76.67 L104.33,77.81 L104.76,79.03 "/><path d="M121.82,85.56 L124.91,84.68 L126.48,82.67 L126.41,81.29 L124.35,79.47 L121.51,79.28 L118.98,80.52 L117.91,82.42 L117.90,83.28 L118.93,84.61 "/><path d="M120.26,93.03 L121.61,91.54 L122.98,92.04 L123.00,92.58 L121.63,93.52 L120.26,93.03 "/><path d="M139.68,176.30 L140.40,177.26 L141.46,177.26 L140.53,175.73 L139.72,175.69 L139.68,176.30 "/><path d="M155.84,105.83 L155.30,105.00 L156.67,104.16 L158.04,104.65 L158.07,105.38 L156.97,105.98 L155.84,105.83 "/><path d="M163.44,100.48 L162.66,98.79 L163.01,97.66 L164.80,95.97 L167.79,95.31 L170.34,96.22 L171.14,97.13 L171.31,98.80 L170.73,99.89 L168.46,101.43 L165.58,101.61 L163.44,100.48 "/><path d="M173.32,138.38 L173.80,138.70 L173.32,138.38 "/><path d="M180.93,106.49 L178.07,106.13 L176.23,104.26 L176.44,102.74 L178.43,100.74 L181.29,100.16 L183.83,101.08 L184.90,102.75 L183.78,105.16 "/><path d="M177.76,127.93 L179.45,127.60 L178.59,127.10 L177.76,127.93 "/><path d="M179.91,180.76 L180.33,181.01 L179.91,180.76 "/><path d="M182.93,191.94 L184.00,192.98 L184.69,192.53 L183.74,191.28 L182.92,191.23 L182.93,191.94 "/><path d="M182.46,141.29 L183.51,141.92 L182.46,141.29 "/><path d="M182.32,115.16 L183.70,115.85 L184.95,115.16 L185.05,114.37 L183.68,113.87 L182.30,114.63 L182.32,115.16 "/><path d="M184.72,153.15 L185.20,153.33 L184.24,152.63 L184.72,153.15 "/><path d="M185.04,135.48 L184.34,134.60 L184.54,133.63 L185.81,132.46 L188.58,132.28 L190.00,133.68 L189.72,134.62 L188.08,135.91 L186.33,136.04 L185.04,135.48 "/><path d="M187.41,170.59 L187.97,170.80 L186.84,170.06 L187.41,170.59 "/><path d="M188.59,128.94 L188.07,128.13 L188.30,126.85 L190.16,125.32 L193.11,125.19 L194.76,126.45 L194.40,128.50 L192.61,129.72 L190.32,129.87 L188.59,128.94 "/><path d="M189.47,182.17 L188.69,181.51 L189.47,182.17 "/><path d="M194.10,159.19 L194.72,162.02 L196.31,163.71 L195.14,165.97 L196.29,173.16 L198.07,175.15 L196.88,177.26 L198.50,185.16 L200.90,187.14 L211.81,191.06 L214.03,190.79 L217.10,192.96 L228.01,196.89 L229.77,196.56 L228.75,188.94 L226.89,186.67 L227.38,185.37 L228.16,185.10 L226.99,177.50 L225.13,175.24 L225.61,173.94 L226.24,173.69 L226.25,172.74 L224.69,165.21 L222.29,163.25 L211.38,159.32 L209.16,159.59 L206.09,157.42 L194.82,153.40 L193.43,153.83 L194.10,159.19 "/><path d="M226.98,208.43 L226.10,207.39 L226.57,206.71 L227.90,208.08 L227.83,208.50 L226.98,208.43 "/><path d="M237.84,210.00 L234.89,209.28 L232.59,210.00 "/><path d="M235.48,163.81 L236.02,164.12 L235.28,163.51 L235.48,163.81 "/><path d="M240.52,197.90 L241.40,198.39 L240.52,197.90 "/><path d="M241.52,174.29 L241.27,171.61 L242.09,170.75 L243.85,170.38 L248.44,171.50 L253.27,175.00 L255.38,178.39 L255.49,180.14 L253.73,181.38 L248.92,180.65 L244.60,178.09 L241.52,174.29 "/><path d="M243.90,190.89 L244.84,189.20 L246.69,188.77 L251.36,189.92 L255.85,193.06 L258.26,196.88 L258.33,198.53 L256.56,199.77 L254.54,199.81 L249.72,198.08 L245.59,194.62 L243.90,190.89 "/><path d="M267.59,183.67 L270.61,187.42 L275.40,190.21 L279.78,190.75 L281.45,189.68 L281.49,187.86 L280.62,185.96 "/><path d="M272.13,180.02 L268.14,180.12 L267.14,181.77 L267.59,183.67 "/><path d="M271.03,203.01 L269.95,200.27 L270.21,199.17 L272.74,198.14 L274.97,198.42 "/><path d="M283.45,204.35 L284.38,207.74 L284.04,208.48 L282.62,209.14 L278.23,208.60 L273.50,205.86 L271.03,203.01 "/><path d="M297.00,189.25 L294.20,189.49 L293.17,191.25 L294.74,194.77 L297.00,197.04 "/><path d="M296.10,210.00 L296.19,208.87 L297.00,207.92 "/></g></g><g id="Actor_.1"><g style="stroke:#000000;stroke-width:0.176"><path d="M92.33,76.22 C92.43,76.32 92.43,76.32 92.53,76.41 C92.61,76.47 92.61,76.47 92.70,76.53 C92.76,76.56 92.76,76.56 92.82,76.59 C92.88,76.61 92.88,76.61 92.94,76.63 C92.99,76.64 92.99,76.64 93.04,76.64 C93.13,76.64 93.13,76.64 93.22,76.63 "/><path d="M93.50,76.49 C93.67,76.53 93.67,76.53 93.84,76.57 C93.92,76.57 93.92,76.57 94.01,76.56 C94.07,76.55 94.07,76.55 94.13,76.53 C94.19,76.51 94.19,76.51 94.24,76.48 C94.29,76.45 94.29,76.45 94.34,76.41 C94.43,76.33 94.43,76.33 94.52,76.25 "/><path d="M93.69,73.78 C93.57,73.75 93.57,73.75 93.45,73.73 C93.32,73.73 93.32,73.73 93.20,73.74 C93.08,73.77 93.08,73.77 92.96,73.81 C92.86,73.87 92.85,73.88 92.76,73.94 "/><path d="M93.22,76.63 L93.50,76.49 "/><path d="M94.52,76.25 L94.85,75.75 L94.86,75.75 "/><path d="M94.74,73.86 L94.72,73.76 L93.19,74.60 L91.60,74.03 "/><path d="M92.20,73.80 L92.04,72.79 L93.09,72.21 L94.18,72.61 L94.22,73.58 L93.17,74.15 L92.08,73.76 L92.04,72.79 "/><path d="M94.08,73.65 L93.27,73.36 L92.35,73.86 "/><path d="M93.19,74.60 L93.21,74.70 L91.82,74.21 "/><path d="M93.21,74.70 L93.22,74.69 L93.50,76.49 "/><path d="M93.22,74.69 L94.57,73.95 L94.85,75.75 "/><path d="M93.76,73.83 L93.69,73.78 "/><path d="M92.76,73.94 L92.72,73.99 "/><path d="M93.27,73.36 L93.09,72.21 "/><path d="M94.72,73.76 L94.66,72.34 "/><path d="M94.57,73.95 L94.70,73.88 "/></g><g style="stroke:#000000;stroke-width:0.529"><path d="M94.70,73.88 C94.75,74.19 94.75,74.19 94.80,74.50 C94.83,74.87 94.83,74.87 94.87,75.23 C94.88,75.43 94.88,75.43 94.88,75.62 "/><path d="M94.86,75.75 C94.80,75.89 94.80,75.90 94.73,76.03 C94.61,76.19 94.61,76.19 94.48,76.34 C94.31,76.46 94.31,76.46 94.13,76.57 C93.93,76.63 93.93,76.63 93.73,76.69 "/><path d="M93.71,76.70 C93.49,76.71 93.48,76.71 93.26,76.72 C93.05,76.67 93.05,76.67 92.85,76.62 C92.67,76.53 92.67,76.53 92.50,76.42 "/><path d="M94.88,75.62 L94.88,75.69 L94.86,75.75 "/><path d="M93.73,76.69 L93.71,76.70 "/><path d="M92.50,76.42 L92.33,76.22 L92.10,75.99 L91.82,74.21 L91.61,74.13 L91.60,74.03 L91.54,72.61 L93.07,71.77 L94.66,72.34 L94.68,72.45 L94.74,73.86 L94.70,73.88 "/></g></g><g id="Actor_.2"><g style="stroke:#000000;stroke-width:0.176"><path d="M181.27,108.14 C181.44,108.31 181.44,108.31 181.62,108.47 C181.69,108.52 181.69,108.52 181.76,108.56 C181.83,108.60 181.83,108.60 181.91,108.64 C181.99,108.66 181.99,108.66 182.07,108.68 C182.11,108.69 182.11,108.69 182.16,108.69 C182.28,108.66 182.28,108.67 182.39,108.64 C182.48,108.59 182.49,108.59 182.57,108.53 "/><path d="M182.57,108.53 C182.69,108.57 182.69,108.57 182.80,108.60 C182.94,108.61 182.94,108.61 183.07,108.61 C183.13,108.60 183.13,108.60 183.18,108.58 C183.24,108.56 183.24,108.56 183.29,108.53 C183.38,108.48 183.38,108.48 183.46,108.42 C183.52,108.36 183.52,108.36 183.58,108.30 C183.63,108.24 183.63,108.24 183.68,108.17 C183.77,108.05 183.77,108.05 183.85,107.92 C183.89,107.86 183.89,107.86 183.92,107.79 "/><path d="M181.89,105.94 C182.00,105.88 182.00,105.88 182.11,105.83 C182.23,105.80 182.23,105.79 182.35,105.77 C182.48,105.77 182.48,105.77 182.60,105.78 C182.72,105.82 182.73,105.82 182.84,105.87 "/><path d="M180.67,106.07 L182.26,106.64 L183.80,105.80 L183.81,105.91 "/><path d="M183.92,107.79 L183.65,106.00 L182.30,106.74 L182.57,108.53 "/><path d="M180.90,106.25 L182.28,106.75 L182.26,106.64 "/><path d="M181.79,106.03 L181.89,105.94 "/><path d="M181.43,105.90 L182.34,105.40 L183.16,105.70 "/><path d="M182.34,105.40 L182.16,104.26 L181.11,104.83 L181.27,105.85 "/><path d="M181.11,104.83 L181.15,105.80 L182.06,106.13 L182.24,106.20 L183.29,105.62 L183.25,104.65 L182.16,104.26 "/><path d="M182.30,106.74 L182.28,106.75 "/><path d="M183.95,107.73 L183.92,107.79 "/><path d="M183.80,105.80 L183.74,104.39 "/><path d="M183.65,106.00 L183.78,105.93 "/></g><g style="stroke:#000000;stroke-width:0.529"><path d="M183.78,105.93 C183.83,106.24 183.83,106.24 183.87,106.55 C183.91,106.92 183.91,106.92 183.94,107.29 C183.95,107.48 183.95,107.48 183.96,107.66 "/><path d="M183.74,108.19 C183.60,108.33 183.60,108.33 183.45,108.47 C183.26,108.57 183.26,108.57 183.06,108.67 C183.01,108.68 183.00,108.68 182.94,108.69 C182.79,108.73 182.79,108.73 182.63,108.76 C182.41,108.76 182.41,108.76 182.19,108.74 C181.99,108.68 181.99,108.68 181.79,108.61 "/><path d="M183.96,107.66 L183.95,107.73 L183.74,108.19 "/><path d="M181.79,108.61 L181.48,108.38 L181.17,108.03 L180.90,106.25 L180.69,106.17 L180.67,106.07 L180.61,104.65 L182.14,103.81 L183.74,104.39 L183.75,104.49 L183.81,105.91 L183.78,105.93 "/></g></g><g id="Actor_.3"><g style="stroke:#000000;stroke-width:0.176"><path d="M154.40,98.55 C154.50,98.64 154.50,98.65 154.60,98.74 C154.68,98.80 154.68,98.80 154.77,98.86 C154.83,98.89 154.83,98.89 154.89,98.92 C154.95,98.94 154.95,98.94 155.00,98.96 C155.06,98.96 155.06,98.97 155.11,98.97 C155.20,98.97 155.20,98.97 155.29,98.96 "/><path d="M155.57,98.82 C155.74,98.86 155.74,98.86 155.91,98.90 C155.99,98.90 155.99,98.90 156.08,98.89 C156.14,98.88 156.14,98.88 156.20,98.86 C156.26,98.84 156.26,98.84 156.31,98.81 C156.36,98.78 156.36,98.78 156.41,98.74 C156.50,98.66 156.50,98.66 156.59,98.58 "/><path d="M154.82,96.27 C154.92,96.20 154.92,96.20 155.03,96.14 C155.15,96.10 155.15,96.10 155.27,96.07 C155.39,96.06 155.39,96.06 155.52,96.06 C155.64,96.08 155.64,96.08 155.76,96.11 C155.80,96.13 155.80,96.13 155.83,96.16 "/><path d="M155.29,98.96 L155.57,98.82 "/><path d="M156.59,98.58 L156.92,98.08 L156.93,98.08 "/><path d="M156.81,96.19 L156.79,96.09 L155.26,96.93 L153.67,96.36 "/><path d="M154.26,96.13 L154.11,95.12 L155.16,94.54 L156.25,94.94 L156.29,95.91 L155.24,96.48 L154.15,96.09 L154.11,95.12 "/><path d="M155.16,94.54 L155.34,95.69 L154.42,96.19 "/><path d="M155.26,96.93 L155.28,97.03 L153.89,96.54 "/><path d="M156.92,98.08 L156.64,96.28 L155.29,97.02 L155.57,98.82 "/><path d="M154.79,96.32 L154.82,96.27 "/><path d="M155.29,97.02 L155.28,97.03 "/><path d="M155.34,95.69 L156.15,95.98 "/><path d="M156.79,96.09 L156.73,94.67 "/><path d="M156.64,96.28 L156.77,96.21 "/></g><g style="stroke:#000000;stroke-width:0.529"><path d="M154.57,98.75 C154.74,98.86 154.74,98.86 154.92,98.95 C155.12,99.00 155.12,99.00 155.33,99.05 C155.55,99.04 155.55,99.04 155.77,99.03 C155.99,98.97 155.99,98.97 156.20,98.90 C156.38,98.79 156.38,98.79 156.55,98.67 C156.68,98.52 156.68,98.52 156.80,98.36 C156.87,98.23 156.87,98.22 156.93,98.08 "/><path d="M156.77,96.21 L156.81,96.19 L156.75,94.78 L156.73,94.67 L155.14,94.10 L153.61,94.94 L153.67,96.36 L153.68,96.46 L153.89,96.54 L154.17,98.32 L154.40,98.55 L154.57,98.75 "/><path d="M156.93,98.08 L156.95,98.02 L156.95,97.95 L156.93,97.56 L156.87,96.83 L156.77,96.21 "/></g></g><g id="Actor_.4"><g style="stroke:#000000;stroke-width:0.176"><path d="M119.34,85.93 C119.43,86.03 119.43,86.03 119.53,86.13 C119.62,86.19 119.62,86.19 119.70,86.24 C119.76,86.27 119.76,86.27 119.83,86.30 C119.88,86.32 119.88,86.32 119.94,86.34 C119.99,86.35 119.99,86.35 120.04,86.36 C120.13,86.35 120.13,86.35 120.22,86.34 "/><path d="M120.50,86.20 C120.67,86.25 120.67,86.25 120.84,86.29 C120.93,86.29 120.93,86.28 121.01,86.28 C121.08,86.26 121.08,86.26 121.14,86.24 C121.19,86.22 121.19,86.22 121.24,86.20 C121.29,86.16 121.29,86.16 121.34,86.13 C121.43,86.05 121.43,86.05 121.52,85.96 "/><path d="M120.69,83.50 C120.57,83.47 120.57,83.47 120.45,83.44 C120.33,83.44 120.33,83.44 120.20,83.45 C120.08,83.49 120.08,83.49 119.96,83.53 C119.86,83.59 119.86,83.59 119.76,83.66 "/><path d="M120.22,86.34 L120.50,86.20 "/><path d="M121.52,85.96 L121.85,85.46 L121.86,85.47 "/><path d="M121.74,83.58 L121.73,83.47 L120.19,84.31 L118.60,83.74 "/><path d="M119.36,83.57 L120.27,83.07 L121.09,83.37 "/><path d="M120.19,84.31 L120.21,84.42 L118.83,83.92 "/><path d="M119.04,82.51 L119.08,83.47 L120.18,83.87 L121.23,83.29 L121.18,82.32 L120.09,81.93 L119.04,82.51 L119.20,83.52 "/><path d="M120.50,86.20 L120.23,84.41 L120.21,84.42 "/><path d="M120.77,83.54 L120.69,83.50 "/><path d="M119.76,83.66 L119.72,83.70 "/><path d="M120.23,84.41 L121.58,83.67 L121.85,85.46 "/><path d="M120.27,83.07 L120.09,81.93 "/><path d="M121.71,83.60 L121.58,83.67 "/><path d="M121.73,83.47 L121.67,82.06 "/></g><g style="stroke:#000000;stroke-width:0.529"><path d="M121.71,83.60 C121.76,83.91 121.76,83.91 121.80,84.22 C121.84,84.58 121.84,84.58 121.87,84.95 C121.88,85.14 121.88,85.14 121.89,85.33 "/><path d="M121.86,85.47 C121.81,85.61 121.80,85.61 121.74,85.75 C121.62,85.90 121.62,85.90 121.49,86.05 C121.31,86.17 121.31,86.17 121.13,86.28 C120.92,86.35 120.92,86.35 120.71,86.41 C120.49,86.43 120.49,86.43 120.27,86.43 C120.06,86.39 120.05,86.39 119.85,86.34 C119.68,86.24 119.67,86.24 119.51,86.14 "/><path d="M121.89,85.33 L121.88,85.40 L121.86,85.47 "/><path d="M119.51,86.14 L119.34,85.93 L119.10,85.70 L118.83,83.92 L118.62,83.84 L118.60,83.74 L118.54,82.32 L120.07,81.48 L121.67,82.06 L121.68,82.16 L121.74,83.58 L121.71,83.60 "/></g></g><g id="paperID" visibility="hidden" opacity="0.00" transform="scale(0.000100)"><path style="stroke:#000000;stroke-width:0.500;fill:#e6e6e6;fill-rule:evenodd" d="M-2000.00,-2000.00L2297.00,-2000.00L2297.00,2210.00L-2000.00,2210.00zM0.00,0.00L297.00,0.00L297.00,210.00L0.00,210.00z"/><path style="fill:#000000;fill-opacity:0.118" d="M3.00,210.00L297.00,210.00L297.00,3.00L300.00,3.00L300.00,213.00L3.00,213.00z"/></g><g id="ToolTip" visibility="hidden" opacity="0" transform="translate(0,0)"><rect id="ToolTipShadow" opacity="0.20" fill="black" stroke="none" x="0" y="0" width="30" height="8"/><rect id="ToolTipBG" fill="#ffffe1" stroke="black" x="0" y="0" width="30" height="8"/><text xml:space="preserve" id="ToolTipText" fill="black" x="0" y="0" width="30" height="8">tooltip</text></g></g></svg>
