<?xml version="1.0" encoding="UTF-8" standalone="no"?>
<svg xmlns="http://www.w3.org/2000/svg" xmlns:xlink="http://www.w3.org/1999/xlink" width="297.000mm" height="210.000mm" viewBox="0.000000 0.000000 297.000000 210.000000" stroke-linejoin="round" stroke-linecap="round" fill="none" fill-rule="evenodd"><desc>Composer Export</desc><script type="text/ecmascript"><![CDATA[
if(typeof(top) != "undefined")
{
	top.ShowPaper = ShowPaper;
}
function ShowHotSpot(evt,hotspotid)
{
	var svgDocument = evt.target.ownerDocument;
	var strId = "hotspot."+hotspotid;
	var hotspot = svgDocument.getElementById(strId);
	if(hotspot)
		hotspot.setAttribute("opacity",".5");
}
function HideHotSpot(evt,hotspotid)
{
	var svgDocument = evt.target.ownerDocument;
	var strId = "hotspot."+hotspotid;
	var hotspot = svgDocument.getElementById(strId);
	if(hotspot)
		hotspot.setAttribute("opacity","0");

	var toolTip = svgDocument.getElementById('ToolTip');
	if(toolTip)
		toolTip.setAttribute("visibility","hidden");
}
function ShowToolTip(evt,hotspotid,strTooltip)
{
	if(strTooltip=="")
	return;

	// change text
	var svgDocument = evt.target.ownerDocument;
	var tiptext = svgDocument.getElementById('ToolTipText');
	if( !tiptext )
	return;
	tiptext.firstChild.nodeValue = " " + strTooltip + "  " ;

	// show tooltip before, else some refresh issue

	var toolTip = svgDocument.getElementById('ToolTip');
	if(!toolTip)
	return;

	toolTip.setAttribute("visibility","visible");
	toolTip.setAttribute("opacity",".95");

	// move tooltip
	// get viewbox

	var root = svgDocument.documentElement;
	var vbox = (root.getAttribute("viewBox")).split(' ');
	var x0 = parseFloat(vbox[0]);
	var y0 = parseFloat(vbox[1]);
	var vboxW = parseFloat(vbox[2]);
	var vboxH = parseFloat(vbox[3]);

	// get default width of svg

	var strW = root.getAttribute("width");
	var svgW = parseFloat(strW);
	if(strW.indexOf('mm') != -1)
	svgW *= 3.779;

	var strH = root.getAttribute("height");
	var svgH = parseFloat(strH);
	if(strH.indexOf('mm') != -1)
	svgH *= 3.779;  	// 96 dpi  -> 96/25.4 = 3.779

	// update the viewbox / width / height if svg is embedded in html with zoom fit all
	var realx0 = x0;
	var realy0 = y0;
	var realvboxW = vboxW;
	var realvboxH = vboxH;
	var realsvgW = svgW;
	var realsvgH = svgH;

	if ((typeof(top) == "undefined") || (typeof(top.svgctl1) != "undefined")) // embedded in html
	{
		// get window size in pxl

		svgW = window.innerWidth;
		svgH = window.innerHeight;

		// calculate real viewbox

		realsvgW = svgW;
		realsvgH = svgH;
		if((svgW / svgH) > (vboxW / vboxH))
		{
			realvboxW = (vboxH * svgW) / svgH;
			realvboxH = vboxH;
			realx0 = x0 - (realvboxW - vboxW)/2 ;
		}
		else
		{
			realvboxH = (vboxW * svgH) / svgW;
			realvboxW = vboxW;
			realy0 = y0 - (realvboxH - vboxH)/2 ;
		}
	}

	// get user zoom/pan

	var newScale = root.currentScale;
	var translation = root.currentTranslate;

	// transform pxl to user unit

	var xPos = (((evt.clientX+10- translation.x)/newScale) * realvboxW)/realsvgW  + realx0 ;
	var yPos = (((evt.clientY+5- translation.y)/newScale) * realvboxH)/ realsvgH  + realy0 ;
	var scaleForWidth = ( (1 / newScale) * realvboxH) / realsvgH;

	// move tooltip

	toolTip.setAttribute("transform", "translate(" + xPos + "," + yPos + ")" );

	// resize tooltip

	var fontsize = 12;
	tiptext.setAttribute("font-size",fontsize*scaleForWidth);
	tiptext.setAttribute("y", fontsize*scaleForWidth);
	var tipBG = svgDocument.getElementById('ToolTipBG');
	var outline = tiptext.getBBox();
	if(tipBG)
	{
		tipBG.setAttribute("stroke-width", 1*scaleForWidth);
		tipBG.setAttribute("width", Number(outline.width) );
		tipBG.setAttribute("height", Number(outline.height) + fontsize*.5*scaleForWidth );
	}
	var ToolTipShadow = svgDocument.getElementById('ToolTipShadow');
	if(ToolTipShadow)
	{
		ToolTipShadow.setAttribute("width", Number(outline.width) );
		ToolTipShadow.setAttribute("height", Number(outline.height) + fontsize*.5*scaleForWidth );
		ToolTipShadow.setAttribute("x", 3*scaleForWidth);
		ToolTipShadow.setAttribute("y", 3*scaleForWidth);
	}
}
function ShowPaper()
{
  var svgDocument = getDocument();
  var paper = svgDocument.getElementById("paperID");
  if(paper)
  {
    paper.setAttribute("transform","scale(1)");
    paper.setAttribute("opacity","1");
    paper.setAttribute("visibility","visible");
  }
  var svg = svgDocument.getRootElement();
  if(svg)
  {
    svg.setAttribute("width","307.000mm");
    svg.setAttribute("height","220.000mm");
    svg.setAttribute("viewBox","-5.000000 -5.000000 307.000000 220.000000");
  }
}
]]></script><defs/><g><path style="fill:#ffffff" d="M296.92,210.05L0.08,210.05L0.08,0.08L296.92,0.08z"/><path style="fill:#6c737e" d="M178.71,81.28L179.19,81.44L183.39,85.15L182.10,85.31L82.00,109.30L80.96,110.47L80.88,114.93L81.61,114.95L81.84,115.00L82.62,117.31L94.21,134.95L95.61,137.70L95.63,138.67L94.96,138.79L95.04,147.72L94.61,149.15L94.02,149.43L93.39,149.29L87.90,144.57L86.05,141.72L86.11,141.46L86.24,140.44L86.11,140.33L85.43,139.32L85.13,139.06L84.47,138.99L84.10,138.76L78.22,133.84L77.45,133.18L77.47,132.69L78.38,131.81L78.52,131.09L78.38,130.99L78.34,130.48L78.56,129.96L78.26,129.67L77.81,129.63L77.50,129.54L76.09,129.53L76.01,123.08L75.90,122.98L75.77,113.07L75.78,107.00L77.22,105.01L90.73,101.82L134.85,91.22L135.68,91.06L173.73,81.96L176.59,81.16z"/><path style="fill:#616871" d="M184.29,86.02L184.43,87.43L184.51,90.13L183.75,90.39L183.58,86.95L183.06,86.12L182.00,86.25L178.21,87.21L177.93,87.47L178.15,107.19L177.57,107.49L175.95,107.89L175.10,107.89L173.93,107.36L173.78,107.02L173.91,102.13L173.67,88.33L173.17,88.53L163.53,90.67L82.75,109.99L81.78,110.73L81.69,114.17L81.61,114.95L80.88,114.93L80.96,110.47L82.00,109.30L182.10,85.31L183.39,85.15L183.88,85.29z"/><path style="fill:#6c737e" d="M183.58,86.95L183.75,90.39L184.51,90.13L185.49,92.76L195.42,107.93L198.18,112.61L198.49,114.14L197.82,114.25L197.63,124.00L197.46,124.65L196.34,124.70L191.31,120.58L186.63,113.96L178.70,107.50L178.15,107.19L177.93,87.47L178.21,87.21L182.00,86.25L183.06,86.12z"/><path style="fill:#00fdff" d="M130.67,80.31L130.66,81.06L130.17,81.07L130.08,80.63L129.68,80.85L130.17,81.07L129.15,81.44L129.00,84.32L128.21,84.76L127.76,84.57L127.61,83.57L127.58,81.45L127.46,81.34L127.49,80.30L127.67,80.17L128.07,80.98L129.00,80.97L128.98,80.37L128.19,80.02L128.77,79.91L129.62,79.90L130.38,80.04z"/><path style="fill:#00fdff" d="M82.06,91.47L82.05,91.91L83.19,92.03L83.31,91.09L83.86,90.91L84.74,91.27L84.66,92.11L83.70,91.90L83.72,92.16L83.12,92.48L83.00,95.63L82.17,95.76L81.79,95.51L81.57,92.39L81.56,91.26L82.44,90.92L83.00,91.07z"/><path style="fill:#00fdff" d="M203.16,100.18L203.31,101.20L203.26,102.03L202.87,101.84L199.76,102.41L199.52,103.03L199.12,103.22L198.44,102.42L198.46,100.56L201.97,99.34L202.33,99.34z"/><path style="fill:#00fdff" d="M210.88,109.83L211.03,110.85L210.99,111.69L210.59,111.49L207.47,112.06L207.09,112.76L206.81,112.85L206.16,112.07L206.18,110.21L207.19,109.56L209.48,109.07L209.79,108.74z"/><path style="fill:#00fdff" d="M71.11,119.72L71.50,120.76L71.37,121.35L71.06,121.51L68.46,122.24L67.82,123.46L66.84,122.88L66.64,121.99L66.61,120.38L66.84,120.06L68.94,119.62L70.80,119.48z"/><path style="fill:#00fdff" d="M78.34,130.48L78.38,130.99L78.27,131.27L77.99,131.47L76.76,131.92L75.11,132.47L74.76,133.47L74.39,133.60L73.82,132.99L73.52,132.20L73.50,130.30L73.91,129.95L74.63,130.09L74.74,129.95L75.82,129.55L76.09,129.53L77.50,129.54L77.81,129.63z"/><path style="fill:#00fdff" d="M85.43,139.32L86.11,140.33L86.00,140.63L85.33,141.32L83.08,141.82L82.44,143.04L81.46,142.47L81.28,141.75L81.25,141.01L81.12,140.91L81.21,139.96L81.45,139.64L83.57,139.22L84.47,138.99L85.13,139.06z"/><path style="fill:#00e3e5" d="M176.55,70.32L176.32,73.74L174.02,73.72L174.75,73.54L175.00,70.50L175.12,70.30L176.46,70.07z"/><path style="fill:#00e3e5" d="M130.50,84.39L130.25,84.78L128.21,84.76L129.00,84.32L129.15,81.44L130.17,81.07L130.66,81.06z"/><path style="fill:#00e3e5" d="M105.97,86.97L107.48,86.58L107.61,86.86L107.45,90.08L107.13,90.31L105.07,90.26L106.00,90.00z"/><path style="fill:#00e3e5" d="M71.49,121.89L71.10,122.41L67.82,123.46L68.46,122.24L71.06,121.51L71.37,121.35z"/><path style="fill:#00e3e5" d="M78.38,131.81L77.47,132.69L76.92,132.85L74.76,133.47L75.11,132.47L76.76,131.92L77.99,131.47L78.27,131.27z"/><path style="fill:#00e3e5" d="M86.11,141.46L86.05,141.72L85.71,141.96L82.44,143.04L83.08,141.82L85.33,141.32L86.00,140.63z"/><path style="fill:#616871" d="M175.37,83.49L174.91,83.67L175.68,83.79L176.16,83.94L174.16,83.97L173.80,83.72L173.80,83.12L175.30,82.81z"/><path style="fill:#616871" d="M152.21,88.99L152.07,89.14L152.52,89.59L151.27,89.48L150.92,89.23L150.91,88.63L152.16,88.36z"/><path style="fill:#616871" d="M105.55,100.39L104.85,100.27L104.87,99.67L106.33,99.34L106.54,100.09L106.46,100.62L106.17,100.61L106.06,100.19z"/><path style="fill:#616871" d="M198.62,115.26L198.63,123.56L198.24,124.33L197.46,124.65L197.63,124.00L197.82,114.25L198.49,114.14z"/><path style="fill:#616871" d="M94.96,138.79L95.63,138.67L95.76,138.98L95.90,144.23L95.91,147.54L95.62,148.86L94.87,149.26L94.61,149.15L95.04,147.72z"/><path style="fill:#000020" d="M176.55,70.32L176.46,70.07L176.52,69.24L176.67,69.32z"/><path style="fill:#000020" d="M173.40,70.30L173.25,69.60L173.40,69.49z"/><path style="fill:#000020" d="M173.65,73.36L173.52,70.61L173.64,70.70z"/><path style="fill:#000020" d="M130.17,81.07L129.68,80.85L130.08,80.63z"/><path style="fill:#000020" d="M127.61,83.57L127.46,81.34L127.58,81.45z"/><path style="fill:#000020" d="M107.61,86.86L107.48,86.58L107.78,86.04z"/><path style="fill:#000020" d="M184.43,87.43L184.29,86.02L184.40,86.12z"/><path style="fill:#000020" d="M104.71,89.91L104.55,86.86L104.69,86.95z"/><path style="fill:#000020" d="M83.86,90.91L83.31,91.09L83.00,91.07L82.44,90.92z"/><path style="fill:#000020" d="M191.72,91.52L191.72,91.85L191.58,92.12L191.59,90.72z"/><path style="fill:#000020" d="M84.97,91.57L84.66,92.11L84.74,91.27z"/><path style="fill:#000020" d="M81.57,92.39L81.42,91.35L81.56,91.26z"/><path style="fill:#000020" d="M192.20,93.29L192.73,93.13L193.61,93.29z"/><path style="fill:#000020" d="M181.40,94.21L180.84,93.77L180.94,93.50L181.13,93.55z"/><path style="fill:#000020" d="M181.67,94.95L181.67,95.32L181.37,95.25L181.37,94.65z"/><path style="fill:#000020" d="M82.17,95.76L83.00,95.63L84.12,95.76z"/><path style="fill:#000020" d="M203.53,101.51L203.26,102.03L203.31,101.20z"/><path style="fill:#000020" d="M199.30,102.50L199.12,101.77L199.30,101.87z"/><path style="fill:#000020" d="M173.39,102.87L173.24,92.10L173.36,92.20z"/><path style="fill:#000020" d="M188.10,104.22L187.73,103.95L187.81,103.44L187.97,103.50z"/><path style="fill:#000020" d="M188.26,105.27L188.10,104.22L188.25,104.35z"/><path style="fill:#000020" d="M178.70,107.50L177.57,107.49L178.15,107.19z"/><path style="fill:#000020" d="M186.33,110.79L186.15,109.73L186.33,109.84z"/><path style="fill:#000020" d="M210.99,111.69L211.03,110.85L211.16,110.97z"/><path style="fill:#000020" d="M207.04,111.87L206.75,111.43L206.88,111.13L207.05,111.23z"/><path style="fill:#000020" d="M206.81,112.85L207.09,112.76L208.22,112.86z"/><path style="fill:#000020" d="M196.00,114.08L195.74,114.03L195.44,113.36L195.55,113.08L195.71,113.16z"/><path style="fill:#000020" d="M196.26,114.79L195.90,114.88L196.00,114.53z"/><path style="fill:#000020" d="M81.84,115.00L81.61,114.95L81.69,114.17L81.82,114.26z"/><path style="fill:#000020" d="M71.49,121.89L71.37,121.35L71.50,120.76L71.61,120.88z"/><path style="fill:#000020" d="M196.52,122.10L196.28,121.07L196.40,120.79L196.55,120.87z"/><path style="fill:#000020" d="M198.63,123.56L198.62,115.26L198.72,115.36z"/><path style="fill:#000020" d="M197.34,124.83L196.34,124.70L197.46,124.65z"/><path style="fill:#000020" d="M85.40,129.54L85.21,128.50L85.40,128.60z"/><path style="fill:#000020" d="M76.09,129.53L75.82,129.55L75.90,122.98L76.01,123.08z"/><path style="fill:#000020" d="M74.63,130.09L73.91,129.95L74.74,129.95z"/><path style="fill:#000020" d="M78.38,131.81L78.27,131.27L78.38,130.99L78.52,131.09z"/><path style="fill:#000020" d="M76.92,132.85L77.47,132.69L77.45,133.18z"/><path style="fill:#000020" d="M83.49,134.76L83.21,134.34L83.34,134.04L83.50,134.14z"/><path style="fill:#000020" d="M92.69,137.96L92.93,137.84L93.17,138.32z"/><path style="fill:#000020" d="M93.43,139.07L93.43,139.44L93.13,139.37L93.13,138.77z"/><path style="fill:#000020" d="M84.47,138.99L83.57,139.22L84.10,138.76z"/><path style="fill:#000020" d="M86.11,141.46L86.00,140.63L86.11,140.33L86.24,140.44z"/><path style="fill:#000020" d="M81.28,141.75L81.12,140.91L81.25,141.01z"/><path style="fill:#000020" d="M95.90,144.23L95.76,138.98L95.88,139.08z"/><path style="fill:#000020" d="M94.02,149.43L94.61,149.15L94.87,149.26z"/><path style="fill:#00fdff" d="M176.52,69.24L176.46,70.07L175.12,70.30L175.02,69.28L174.16,69.41L174.09,69.93L175.12,70.30L175.00,70.50L174.75,73.54L174.02,73.72L173.65,73.36L173.64,70.70L173.52,70.61L173.40,70.30L173.40,69.49L173.81,69.01L175.29,68.74z"/><path style="fill:#00fdff" d="M153.80,74.84L153.56,75.56L152.33,75.77L152.13,74.81L150.99,74.93L150.91,75.45L151.86,75.65L151.86,79.05L151.10,79.25L150.64,79.05L150.36,75.54L150.51,74.73L150.65,74.53L152.40,74.25z"/><path style="fill:#00fdff" d="M107.78,86.04L107.48,86.58L105.97,86.97L106.00,90.00L105.07,90.26L104.71,89.91L104.69,86.95L104.55,86.86L104.38,86.21L104.62,85.59L105.60,85.42L106.74,85.42L107.50,85.55z"/><path style="fill:#00fdff" d="M196.27,89.97L196.53,91.10L196.38,92.17L195.98,91.89L192.84,92.48L192.73,93.13L192.20,93.29L191.82,93.03L191.58,92.12L191.72,91.85L192.44,91.98L192.16,91.36L191.72,91.52L191.59,90.72L192.56,89.98L194.43,89.70L195.17,89.16z"/><path style="fill:#00e3e5" d="M174.09,69.93L174.16,69.41L175.02,69.28L175.12,70.30z"/><path style="fill:#00e3e5" d="M150.91,75.45L150.99,74.93L152.13,74.81L152.33,75.77L153.56,75.56L153.53,78.79L153.14,79.24L151.10,79.25L151.86,79.05L151.86,75.65z"/><path style="fill:#00e3e5" d="M128.98,80.37L129.00,80.97L128.07,80.98L127.67,80.17L128.19,80.02z"/><path style="fill:#00e3e5" d="M106.11,86.49L105.13,86.49L105.13,85.86L106.11,85.86z"/><path style="fill:#00e3e5" d="M192.44,91.98L191.72,91.85L191.72,91.52L192.16,91.36z"/><path style="fill:#00e3e5" d="M82.06,91.47L83.00,91.07L83.31,91.09L83.19,92.03L82.05,91.91z"/><path style="fill:#00e3e5" d="M196.38,92.17L196.26,92.85L193.61,93.29L192.73,93.13L192.84,92.48L195.98,91.89z"/><path style="fill:#00e3e5" d="M84.66,92.11L84.60,95.34L84.12,95.76L83.00,95.63L83.12,92.48L83.72,92.16L83.70,91.90z"/><path style="fill:#00e3e5" d="M203.26,102.03L203.06,102.98L200.85,103.23L199.12,103.22L199.52,103.03L199.76,102.41L202.87,101.84z"/><path style="fill:#00e3e5" d="M199.12,101.77L198.59,101.91L198.65,101.28L198.99,101.22z"/><path style="fill:#00e3e5" d="M206.88,111.13L206.75,111.43L206.34,111.29L206.35,110.93L206.72,110.90z"/><path style="fill:#00e3e5" d="M210.99,111.69L210.88,112.44L208.22,112.86L207.09,112.76L207.47,112.06L210.59,111.49z"/><path style="fill:#00e3e5" d="M67.48,120.86L67.12,120.95L67.21,120.60z"/><path style="fill:#00e3e5" d="M74.07,131.15L73.72,131.06L74.12,130.84z"/><path style="fill:#00e3e5" d="M82.09,140.44L81.74,140.53L81.83,140.18z"/><path style="fill:#00001c" d="M175.68,83.79L174.91,83.67L175.37,83.49z"/><path style="fill:#00001c" d="M175.96,88.02L175.89,88.25L175.37,88.18L175.22,87.75z"/><path style="fill:#00001c" d="M153.01,89.43L152.52,89.59L152.07,89.14L152.21,88.99z"/><path style="fill:#00001c" d="M129.89,94.90L129.27,95.01L128.47,94.94L129.37,94.48z"/><path style="fill:#00001c" d="M107.01,100.40L106.46,100.62L106.54,100.09z"/><path style="fill:#00001c" d="M106.17,100.61L105.55,100.39L106.06,100.19z"/><path style="fill:#00001c" d="M83.68,105.73L84.01,105.69L83.79,106.10L82.65,105.91L83.23,105.60z"/><path style="fill:#00001c" d="M78.80,119.17L78.79,120.15L78.39,118.95z"/><path style="fill:#616871" d="M180.94,93.50L180.84,93.77L180.42,93.65L180.54,92.98z"/><path style="fill:#616871" d="M129.37,94.48L128.47,94.94L127.74,94.66L128.06,94.16L129.24,93.85z"/><path style="fill:#616871" d="M187.81,103.44L187.73,103.95L187.04,103.77L187.46,103.19z"/><path style="fill:#616871" d="M181.43,105.43L181.37,105.82L180.71,105.81L180.70,105.15L181.09,105.09z"/><path style="fill:#616871" d="M83.23,105.60L82.65,105.91L81.97,105.79L81.98,105.19L83.20,104.87z"/><path style="fill:#616871" d="M186.07,109.23L186.15,109.73L185.48,109.94L185.50,109.08L185.81,108.99z"/><path style="fill:#616871" d="M195.55,113.08L195.44,113.36L195.05,113.23L195.16,112.56z"/><path style="fill:#616871" d="M191.56,116.84L190.87,117.08L190.91,116.46L191.31,116.41z"/><path style="fill:#616871" d="M78.22,118.22L77.53,118.46L77.57,117.84L77.97,117.79z"/><path style="fill:#616871" d="M196.40,120.79L196.28,121.07L195.88,120.94L195.98,120.28z"/><path style="fill:#616871" d="M85.16,128.00L85.21,128.50L84.44,128.40L84.46,127.77L84.84,127.70z"/><path style="fill:#616871" d="M78.56,129.96L78.34,130.48L77.81,129.63L78.26,129.67z"/><path style="fill:#616871" d="M83.34,134.04L83.21,134.34L82.81,134.19L82.92,133.52z"/><path style="fill:#616871" d="M92.93,137.84L92.69,137.96L92.27,138.07L92.19,137.43L92.57,137.36z"/><path style="fill:#616871" d="M88.74,140.98L88.62,141.59L88.05,141.67L88.15,140.79L88.47,140.70z"/><path style="fill:#616871" d="M93.70,145.42L93.02,145.52L93.01,144.85L93.36,144.84z"/><path style="fill:#6c737e" d="M176.43,88.30L176.42,89.27L176.03,89.72L175.20,89.72L175.33,89.42L175.90,89.00L175.89,88.25L175.96,88.02z"/><path style="fill:#6c737e" d="M173.24,92.10L173.17,88.53L173.67,88.33L173.91,102.13L173.78,107.02L173.64,106.86L173.39,102.87L173.36,92.20z"/><path style="fill:#6c737e" d="M176.72,104.03L176.70,104.70L176.31,105.16L175.21,105.26L175.14,105.05L176.07,104.34L176.21,103.74z"/><path style="fill:#ffffff" d="M175.90,89.00L175.33,89.42L174.93,89.24L175.02,88.44L175.37,88.18L175.89,88.25z"/><path style="fill:#ffffff" d="M176.07,104.34L175.14,105.05L175.29,104.15L175.76,103.74L176.21,103.74z"/><g id="Actor_.0"><g style="stroke:#000000;stroke-width:0.176"><path d="M150.65,78.30 C150.75,78.46 150.75,78.46 150.86,78.61 C150.98,78.75 150.98,78.75 151.11,78.89 C151.16,78.92 151.16,78.92 151.21,78.96 C151.27,78.99 151.27,78.99 151.32,79.01 C151.36,79.02 151.36,79.02 151.40,79.02 C151.45,79.02 151.45,79.02 151.50,79.02 C151.56,79.01 151.56,79.01 151.62,78.99 C151.68,78.96 151.68,78.96 151.73,78.92 C151.83,78.84 151.83,78.84 151.92,78.76 C151.96,78.71 151.96,78.71 152.00,78.66 "/><path d="M152.55,79.03 C152.63,79.03 152.63,79.03 152.71,79.02 C152.77,79.01 152.77,79.01 152.82,78.99 C152.88,78.95 152.88,78.95 152.95,78.91 C153.00,78.86 153.00,78.86 153.06,78.81 "/><path d="M152.00,78.66 L152.41,78.99 L152.55,79.03 "/><path d="M153.06,78.81 L153.25,78.58 L153.42,78.33 L153.45,78.56 "/><path d="M153.64,74.59 L153.56,75.39 L151.95,75.77 L151.96,75.92 L150.62,75.56 "/><path d="M151.95,75.77 L150.42,75.36 "/><path d="M150.98,74.69 L152.09,74.43 L153.13,74.71 L153.08,75.26 L151.98,75.52 L150.93,75.24 L150.98,74.69 L150.99,75.26 "/><path d="M152.00,78.66 L151.97,75.92 L153.38,75.58 L153.42,78.33 "/><path d="M151.97,75.92 L151.96,75.92 "/><path d="M152.09,74.43 L152.10,75.49 "/><path d="M153.56,75.54 L153.56,75.39 "/><path d="M153.38,75.58 L153.46,75.56 "/></g><g style="stroke:#000000;stroke-width:0.529"><path d="M153.35,78.76 C153.25,78.85 153.24,78.85 153.13,78.93 C152.97,79.00 152.97,79.00 152.80,79.06 C152.60,79.11 152.60,79.11 152.39,79.14 C152.17,79.15 152.17,79.15 151.95,79.16 C151.73,79.14 151.73,79.14 151.52,79.11 C151.33,79.06 151.33,79.06 151.15,79.01 C151.01,78.94 151.01,78.93 150.88,78.86 "/><path d="M150.88,78.86 C150.81,78.76 150.81,78.76 150.74,78.67 C150.71,78.60 150.71,78.60 150.68,78.53 C150.67,78.50 150.68,78.50 150.67,78.46 C150.66,78.38 150.66,78.38 150.65,78.30 "/><path d="M153.46,75.56 L153.49,77.63 L153.47,78.29 L153.46,78.54 L153.35,78.76 "/><path d="M150.65,78.30 L150.62,75.56 L150.43,75.51 L150.42,75.36 L150.50,74.56 L152.11,74.18 L153.64,74.59 L153.64,74.74 L153.56,75.54 L153.46,75.56 "/></g></g><g id="Actor_.1"><g style="stroke:#000000;stroke-width:0.176"><path d="M81.74,94.77 C81.84,94.93 81.84,94.93 81.95,95.08 C82.07,95.22 82.07,95.22 82.19,95.35 C82.25,95.39 82.25,95.39 82.30,95.43 C82.36,95.45 82.36,95.45 82.41,95.48 C82.45,95.48 82.45,95.48 82.49,95.49 C82.54,95.49 82.54,95.49 82.58,95.49 C82.65,95.47 82.65,95.47 82.71,95.45 C82.77,95.42 82.77,95.42 82.82,95.39 C82.92,95.31 82.92,95.31 83.01,95.22 C83.05,95.18 83.05,95.18 83.09,95.13 "/><path d="M83.64,95.50 C83.72,95.50 83.72,95.50 83.80,95.49 C83.85,95.47 83.85,95.47 83.91,95.45 C83.97,95.42 83.97,95.42 84.03,95.38 C84.09,95.33 84.09,95.33 84.15,95.28 "/><path d="M83.09,95.13 L83.49,95.46 L83.64,95.50 "/><path d="M84.15,95.28 L84.34,95.05 L84.51,94.79 L84.54,95.02 "/><path d="M81.51,91.83 L83.04,92.24 L84.65,91.85 L84.65,92.00 "/><path d="M83.04,92.24 L83.04,92.39 L81.71,92.03 "/><path d="M82.56,91.85 L82.02,91.71 L82.07,91.16 L83.17,90.90 L84.22,91.18 L84.17,91.72 L83.07,91.99 L82.56,91.85 "/><path d="M82.07,91.16 L82.08,91.72 "/><path d="M83.09,95.13 L83.05,92.39 L84.47,92.05 L84.51,94.79 "/><path d="M83.19,91.96 L83.17,90.90 "/><path d="M83.04,92.39 L83.05,92.39 "/><path d="M84.47,92.05 L84.55,92.03 "/><path d="M84.65,91.85 L84.73,91.06 "/></g><g style="stroke:#000000;stroke-width:0.529"><path d="M84.44,95.22 C84.33,95.31 84.33,95.31 84.22,95.40 C84.06,95.47 84.06,95.47 83.89,95.53 C83.69,95.57 83.68,95.57 83.48,95.61 C83.26,95.62 83.26,95.62 83.03,95.63 C82.82,95.61 82.82,95.61 82.60,95.58 C82.42,95.53 82.42,95.53 82.24,95.48 C82.10,95.40 82.10,95.40 81.97,95.32 "/><path d="M81.97,95.32 C81.90,95.23 81.90,95.23 81.83,95.14 C81.80,95.07 81.80,95.07 81.77,95.00 C81.76,94.96 81.76,94.96 81.76,94.92 C81.75,94.85 81.75,94.85 81.74,94.77 "/><path d="M84.55,92.03 L84.58,94.09 L84.56,94.76 L84.54,95.00 L84.44,95.22 "/><path d="M81.74,94.77 L81.71,92.03 L81.51,91.98 L81.51,91.83 L81.59,91.03 L83.20,90.65 L84.73,91.06 L84.73,91.21 L84.65,92.00 L84.55,92.03 "/></g></g><g id="Actor_.2"><g style="stroke:#000000;stroke-width:0.176"><path d="M206.41,111.30 C206.39,111.17 206.39,111.17 206.38,111.04 C206.38,110.93 206.38,110.93 206.39,110.82 C206.41,110.74 206.41,110.74 206.43,110.66 "/><path d="M206.73,110.61 C206.79,110.68 206.79,110.68 206.85,110.75 C206.90,110.85 206.90,110.85 206.95,110.95 C206.99,111.07 206.99,111.07 207.03,111.18 C207.05,111.31 207.05,111.31 207.07,111.43 C207.08,111.55 207.08,111.55 207.08,111.66 C207.07,111.76 207.07,111.76 207.05,111.86 C207.03,111.92 207.02,111.92 206.99,111.99 "/><path d="M206.79,112.02 C206.73,111.97 206.73,111.97 206.67,111.92 C206.61,111.83 206.61,111.83 206.56,111.75 C206.51,111.64 206.51,111.64 206.47,111.53 C206.44,111.41 206.44,111.41 206.41,111.30 "/><path d="M206.63,110.02 C206.73,110.11 206.73,110.11 206.83,110.20 C206.93,110.35 206.93,110.35 207.03,110.50 C207.11,110.69 207.11,110.69 207.19,110.89 C207.25,111.10 207.25,111.10 207.30,111.31 C207.33,111.53 207.33,111.53 207.35,111.75 C207.35,111.94 207.35,111.94 207.34,112.12 C207.30,112.27 207.30,112.27 207.25,112.41 "/><path d="M207.68,110.21 C207.58,110.36 207.58,110.36 207.48,110.50 C207.41,110.67 207.41,110.67 207.35,110.84 C207.34,110.90 207.34,110.90 207.33,110.97 C207.34,111.03 207.34,111.04 207.35,111.10 C207.36,111.14 207.36,111.14 207.37,111.19 C207.40,111.24 207.40,111.24 207.43,111.29 C207.48,111.36 207.48,111.36 207.53,111.42 C207.59,111.48 207.59,111.48 207.66,111.53 C207.79,111.61 207.79,111.61 207.93,111.70 C207.99,111.73 208.00,111.73 208.06,111.76 "/><path d="M208.06,111.76 C207.81,111.94 207.81,111.94 207.55,112.13 C207.49,112.18 207.49,112.18 207.44,112.24 C207.40,112.30 207.40,112.30 207.37,112.35 "/><path d="M206.43,110.66 L206.51,110.56 L206.62,110.55 L206.73,110.61 "/><path d="M206.99,111.99 L206.90,112.04 L206.79,112.02 "/><path d="M206.27,110.07 L206.43,109.98 L206.63,110.02 "/><path d="M207.25,112.41 L207.11,112.58 L206.93,112.61 "/><path d="M206.94,109.60 L206.87,109.67 L206.73,109.88 L206.73,109.95 L206.78,110.03 L206.88,110.09 L206.98,110.12 L207.32,110.18 L207.68,110.21 "/><path d="M207.37,112.35 L207.35,112.42 L207.37,112.50 L207.41,112.55 L207.54,112.64 L207.71,112.70 "/><path d="M208.06,111.76 L210.86,111.10 L210.51,112.03 L210.35,112.07 "/><path d="M207.68,110.21 L210.48,109.55 L210.86,111.10 "/><path d="M209.59,108.97 L209.74,108.93 L210.48,109.55 "/><path d="M210.68,109.38 L210.53,109.42 L209.69,108.72 "/><path d="M210.53,109.42 L210.96,111.18 L210.56,112.24 "/><path d="M210.96,111.18 L211.11,111.14 "/></g><g style="stroke:#000000;stroke-width:0.529"><path d="M206.21,111.49 C206.27,111.70 206.27,111.70 206.34,111.90 C206.43,112.08 206.43,112.08 206.53,112.25 C206.62,112.38 206.62,112.38 206.73,112.50 "/><path d="M206.27,110.07 C206.21,110.19 206.21,110.19 206.16,110.31 C206.13,110.47 206.13,110.48 206.11,110.64 C206.11,110.85 206.11,110.85 206.12,111.05 C206.16,111.27 206.16,111.27 206.21,111.49 "/><path d="M206.73,112.50 L206.93,112.61 L207.18,112.65 L207.71,112.70 L210.35,112.07 L210.56,112.24 L210.71,112.21 L211.11,111.14 L210.68,109.38 L209.84,108.69 L209.69,108.72 L209.59,108.97 L206.94,109.60 L206.27,110.07 "/></g></g><g id="Actor_.3"><g style="stroke:#000000;stroke-width:0.176"><path d="M80.81,110.59 C80.77,112.09 80.77,112.09 80.76,113.59 C80.91,114.67 80.91,114.67 81.09,115.74 C81.33,116.40 81.35,116.40 81.61,117.05 C81.76,117.34 81.76,117.34 81.92,117.63 "/><path d="M94.94,148.03 C95.00,147.50 95.00,147.50 95.05,146.97 C95.01,143.40 95.04,143.39 94.95,139.82 C94.65,138.23 94.65,138.22 94.25,136.64 "/><path d="M183.52,86.61 C183.55,88.34 183.55,88.35 183.64,90.09 C183.92,91.15 183.90,91.18 184.25,92.21 C190.36,101.74 190.44,101.70 196.58,111.22 C197.02,112.15 197.02,112.16 197.41,113.11 C197.60,114.17 197.60,114.18 197.74,115.26 C197.81,118.83 197.82,118.84 197.84,122.41 C197.71,123.25 197.71,123.26 197.54,124.09 "/><path d="M75.75,106.82 L75.97,107.22 L76.26,129.42 "/><path d="M76.07,129.47 L76.01,125.08 "/><path d="M76.13,106.45 L75.98,107.15 L76.28,107.47 L80.73,111.17 L81.55,110.97 "/><path d="M77.82,129.60 L77.93,129.35 L78.19,129.34 L78.63,130.05 L78.71,130.98 L78.36,131.28 "/><path d="M77.36,118.33 L77.72,117.37 L78.47,118.00 L78.87,119.58 L78.55,120.43 L77.75,119.92 L77.36,118.33 L78.17,118.14 L78.57,119.72 L77.75,119.92 "/><path d="M77.05,105.31 L77.66,105.02 L77.45,104.83 "/><path d="M82.49,109.78 L82.48,109.02 L83.71,108.65 L182.54,85.04 L177.78,81.09 L77.72,105.00 L82.48,108.95 L81.44,109.54 L80.81,110.59 "/><path d="M81.92,117.63 L82.74,117.44 "/><path d="M78.57,119.72 L78.75,119.88 "/><path d="M78.17,118.14 L78.28,117.84 "/><path d="M80.76,113.59 L81.58,113.39 "/><path d="M94.38,149.07 L94.94,148.03 "/><path d="M94.25,136.64 L81.92,117.63 "/><path d="M81.93,105.57 L81.92,104.89 L81.93,105.57 "/><path d="M81.93,105.62 L83.38,105.37 L83.37,104.65 L81.92,104.89 "/><path d="M82.12,105.67 L83.23,105.97 L84.68,105.63 L84.75,104.91 L83.37,104.54 "/><path d="M83.23,135.31 L82.78,134.73 L82.63,134.08 L82.90,133.31 L83.35,133.76 L83.54,134.39 L83.50,135.15 L83.23,135.31 "/><path d="M83.38,105.37 L84.50,105.67 "/><path d="M85.41,129.75 L84.59,129.95 L85.34,130.58 L85.59,129.91 "/><path d="M84.59,129.95 L84.20,128.36 L85.01,128.17 "/><path d="M84.20,128.36 L84.56,127.41 L85.12,127.88 "/><path d="M88.03,141.15 L88.30,142.18 L88.77,142.53 L88.97,142.07 L88.75,140.98 L88.35,140.55 L88.08,140.75 L88.03,141.15 "/><path d="M93.75,145.46 L93.80,146.23 L93.47,146.55 L92.96,145.74 L93.01,144.61 L93.45,144.75 L93.74,145.45 "/><path d="M93.34,139.46 L93.14,140.00 L92.38,139.53 L91.94,137.92 L92.76,137.72 "/><path d="M92.34,139.50 L93.16,139.31 "/><path d="M91.94,137.92 L92.30,136.96 L92.87,137.43 "/><path d="M93.79,135.78 L94.61,135.59 "/><path d="M95.05,146.97 L95.86,146.77 "/><path d="M94.95,139.82 L95.77,139.63 "/><path d="M104.90,100.14 L104.90,99.51 L106.34,99.05 L106.35,99.84 L105.09,100.18 "/><path d="M106.34,99.05 L107.72,99.42 L107.65,100.14 L106.20,100.48 L105.17,100.21 L104.82,100.11 L104.89,99.40 "/><path d="M107.47,100.18 L106.35,99.88 "/><path d="M127.87,94.65 L127.86,93.91 L129.31,93.56 L129.32,94.39 L128.06,94.70 "/><path d="M129.31,93.56 L130.69,93.93 L130.63,94.54 L129.17,95.00 L127.79,94.63 L127.86,93.91 "/><path d="M129.32,94.39 L130.44,94.69 "/><path d="M150.82,88.58 L150.76,89.14 L152.14,89.51 L153.59,89.16 L153.66,88.45 L152.28,88.07 L150.83,88.42 L150.82,88.58 "/><path d="M150.83,88.42 L150.84,89.16 "/><path d="M151.03,89.21 L152.29,88.90 L152.28,88.07 "/><path d="M152.29,88.90 L153.41,89.20 "/><path d="M174.30,107.20 L173.93,106.15 L173.50,105.80 "/><path d="M173.93,106.15 L173.69,87.98 L177.37,87.11 L177.63,107.21 "/><path d="M173.69,87.98 L173.27,88.09 "/><path d="M173.81,82.93 L175.25,82.59 L175.26,83.41 L176.21,83.67 L175.11,84.02 L173.74,83.65 L173.81,82.93 L173.82,83.67 "/><path d="M175.26,83.41 L174.00,83.72 "/><path d="M176.21,103.40 L176.70,103.87 L176.50,104.78 L175.68,105.26 L174.98,104.88 "/><path d="M174.78,89.33 L175.45,89.70 L176.29,89.22 L176.50,88.36 L176.01,87.84 "/><path d="M176.12,83.78 L176.52,83.68 L176.63,82.96 L175.25,82.59 "/><path d="M176.21,83.67 L176.38,83.71 "/><path d="M177.37,87.11 L178.80,86.76 L179.08,107.39 "/><path d="M178.80,86.76 L182.55,85.87 L182.54,85.04 L183.47,85.10 L183.99,85.44 "/><path d="M180.60,105.67 L180.94,106.54 L181.38,106.69 L181.46,105.65 L180.98,104.79 L180.67,104.86 L180.60,105.67 "/><path d="M181.07,93.28 L180.51,92.81 L180.15,93.77 L180.51,95.25 L181.36,95.16 "/><path d="M180.54,95.35 L181.29,95.98 L181.54,95.32 "/><path d="M180.15,93.77 L180.96,93.57 "/><path d="M182.87,86.07 L183.47,86.57 L183.33,86.08 L182.62,85.86 L182.87,86.07 "/><path d="M182.55,85.87 L182.62,85.86 "/><path d="M184.34,86.41 L183.52,86.61 "/><path d="M197.54,124.09 L197.17,124.51 "/><path d="M183.55,89.03 L184.37,88.83 "/><path d="M185.77,110.53 L185.41,109.36 L185.62,108.77 L186.03,109.02 L186.35,109.99 L186.22,110.71 L185.77,110.53 "/><path d="M184.71,93.07 L185.53,92.87 "/><path d="M188.38,105.35 L188.13,106.01 L187.38,105.39 L188.20,105.19 "/><path d="M187.38,105.39 L186.98,103.80 L187.80,103.61 "/><path d="M186.98,103.80 L187.35,102.84 L187.91,103.31 "/><path d="M191.04,117.54 L190.82,116.58 L190.91,116.10 L191.16,115.98 L191.61,116.56 L191.76,117.52 L191.49,117.98 L191.04,117.54 "/><path d="M196.13,114.90 L195.88,115.57 L195.08,114.75 L194.73,113.35 L195.55,113.16 "/><path d="M194.73,113.35 L195.07,112.46 L195.66,112.87 "/><path d="M196.03,121.79 L196.46,121.94 L196.60,121.23 L196.37,120.43 L195.86,120.00 L195.68,120.92 L196.03,121.79 "/><path d="M195.13,114.94 L195.94,114.74 "/><path d="M196.58,111.22 L197.40,111.02 "/><path d="M197.84,122.41 L198.65,122.21 "/><path d="M197.74,115.26 L198.56,115.07 "/></g><g style="stroke:#000000;stroke-width:0.529"><path d="M86.05,141.26 C87.08,142.93 87.10,142.96 88.25,144.56 C90.76,146.76 90.81,146.72 93.38,148.87 C93.64,149.02 93.64,149.02 93.91,149.15 "/><path d="M95.48,148.55 C95.70,147.73 95.70,147.72 95.86,146.89 C95.85,143.26 95.84,143.25 95.77,139.63 C95.63,138.55 95.63,138.54 95.44,137.47 C95.05,136.52 95.05,136.51 94.61,135.59 C88.47,126.07 88.39,126.10 82.28,116.57 C81.92,115.54 81.94,115.52 81.67,114.45 C81.58,112.72 81.58,112.71 81.55,110.97 "/><path d="M179.08,107.39 C183.06,110.54 183.09,110.57 186.92,113.91 C189.06,116.86 188.90,117.03 191.04,119.99 C193.78,122.36 193.82,122.39 196.70,124.58 "/><path d="M198.58,123.17 C198.60,119.13 198.60,119.11 198.56,115.07 C198.42,113.99 198.42,113.98 198.23,112.91 C197.84,111.96 197.84,111.95 197.40,111.02 C191.26,101.50 191.18,101.54 185.07,92.01 C184.71,90.98 184.73,90.96 184.46,89.89 C184.37,88.16 184.42,88.15 184.34,86.41 C184.19,85.92 184.18,85.91 183.99,85.44 "/><path d="M93.91,149.15 L95.18,148.88 L95.48,148.55 "/><path d="M81.55,110.97 L81.88,110.16 L82.49,109.78 L173.15,88.11 L173.50,105.80 L173.88,106.85 L174.73,107.53 L175.27,107.68 L177.95,107.16 L179.08,107.39 "/><path d="M196.70,124.58 L197.99,124.31 L198.58,123.17 "/><path d="M183.99,85.44 L178.89,81.23 L177.23,80.97 L77.26,104.88 L75.75,106.82 L76.06,129.47 "/><path d="M84.47,138.87 L76.99,132.53 "/><path d="M85.59,129.91 L85.01,128.17 L85.12,127.88 L85.70,129.62 L85.59,129.91 "/><path d="M92.77,137.70 L93.34,139.46 L93.45,139.17 L93.09,137.70 L92.88,137.44 L92.77,137.70 "/><path d="M93.74,145.45 L93.75,145.46 "/><path d="M175.25,104.91 L176.07,104.43 L176.30,103.82 L176.10,103.37 L175.51,103.51 L175.04,103.99 L174.91,104.61 L174.98,104.88 L175.25,104.91 "/><path d="M175.05,89.35 L175.87,88.87 L176.07,88.36 L175.90,87.81 L175.30,87.95 L174.89,88.36 L174.70,89.05 L174.78,89.32 L175.05,89.35 "/><path d="M181.18,94.46 L181.07,93.28 L181.42,94.10 L181.57,95.25 L181.36,95.16 L181.18,94.46 "/><path d="M188.01,104.43 L187.91,103.31 L188.49,105.06 L188.38,105.35 L188.01,104.43 "/><path d="M196.09,114.86 L195.55,113.16 L195.66,112.87 L196.24,114.61 L196.09,114.86 "/></g></g><g id="Actor_.4"><g style="stroke:#000000;stroke-width:0.176"><path d="M192.66,92.83 C192.71,92.69 192.71,92.69 192.75,92.54 C192.76,92.35 192.76,92.35 192.76,92.16 C192.74,91.95 192.74,91.95 192.71,91.73 C192.66,91.52 192.66,91.52 192.60,91.30 C192.52,91.11 192.52,91.11 192.44,90.92 C192.35,90.77 192.35,90.76 192.25,90.62 C192.15,90.52 192.14,90.52 192.04,90.43 "/><path d="M192.20,92.44 C192.14,92.39 192.14,92.39 192.08,92.33 C192.03,92.25 192.03,92.25 191.97,92.16 C191.92,92.05 191.92,92.05 191.88,91.94 C191.85,91.82 191.85,91.82 191.82,91.70 C191.80,91.58 191.80,91.58 191.79,91.45 C191.79,91.35 191.79,91.35 191.80,91.24 C191.82,91.16 191.82,91.16 191.84,91.07 "/><path d="M192.14,91.03 C192.20,91.10 192.20,91.10 192.26,91.17 C192.31,91.26 192.31,91.27 192.36,91.36 C192.39,91.46 192.39,91.46 192.42,91.55 C192.46,91.70 192.46,91.70 192.49,91.85 C192.49,91.96 192.49,91.96 192.50,92.08 C192.48,92.18 192.48,92.18 192.47,92.27 C192.44,92.34 192.44,92.34 192.40,92.40 "/><path d="M193.09,90.63 C192.99,90.77 192.99,90.77 192.89,90.92 C192.82,91.08 192.82,91.09 192.76,91.25 C192.75,91.32 192.75,91.32 192.75,91.38 C192.75,91.45 192.75,91.45 192.76,91.52 C192.77,91.56 192.77,91.56 192.79,91.60 C192.81,91.66 192.81,91.66 192.84,91.71 C192.89,91.77 192.89,91.77 192.94,91.84 C193.01,91.89 193.01,91.89 193.07,91.94 C193.20,92.03 193.20,92.03 193.34,92.11 C193.41,92.15 193.41,92.15 193.48,92.18 "/><path d="M193.48,92.18 C193.22,92.36 193.22,92.36 192.96,92.54 C192.90,92.60 192.91,92.60 192.85,92.66 C192.81,92.71 192.81,92.71 192.78,92.77 "/><path d="M192.34,93.03 L192.52,93.00 L192.66,92.83 "/><path d="M192.04,90.43 L191.84,90.39 L191.68,90.49 "/><path d="M191.84,91.07 L191.92,90.98 L192.03,90.96 L192.14,91.03 "/><path d="M192.40,92.40 L192.31,92.46 L192.20,92.44 "/><path d="M192.35,90.02 L192.28,90.08 L192.14,90.29 L192.14,90.37 L192.19,90.44 L192.30,90.50 L192.39,90.54 L192.73,90.60 L193.09,90.63 "/><path d="M192.78,92.77 L192.76,92.84 L192.78,92.91 L192.82,92.97 L192.95,93.06 L193.12,93.12 "/><path d="M193.48,92.18 L196.27,91.51 L195.92,92.45 L195.77,92.49 "/><path d="M193.09,90.63 L195.89,89.96 L196.27,91.51 "/><path d="M195.97,92.66 L196.37,91.60 L196.52,91.56 "/><path d="M195.89,89.96 L195.15,89.35 L195.01,89.38 "/><path d="M196.09,89.80 L195.94,89.83 L196.37,91.60 "/><path d="M195.94,89.83 L195.10,89.14 "/></g><g style="stroke:#000000;stroke-width:0.529"><path d="M192.14,92.91 C192.04,92.79 192.04,92.79 191.94,92.67 C191.84,92.50 191.84,92.49 191.76,92.32 C191.68,92.11 191.68,92.11 191.62,91.91 C191.57,91.69 191.57,91.69 191.53,91.47 C191.52,91.27 191.52,91.27 191.52,91.06 C191.54,90.89 191.54,90.89 191.57,90.72 C191.62,90.61 191.62,90.60 191.68,90.49 "/><path d="M192.34,93.03 L192.14,92.91 "/><path d="M191.68,90.49 L192.35,90.02 L195.01,89.38 L195.10,89.14 L195.25,89.10 L196.09,89.80 L196.52,91.56 L196.12,92.62 L195.97,92.66 L195.77,92.49 L193.12,93.12 L192.59,93.06 L192.34,93.03 "/></g></g><g id="Actor_.5"><g style="stroke:#000000;stroke-width:0.176"><path d="M85.94,140.49 C85.96,140.40 85.96,140.40 85.97,140.31 C85.97,140.22 85.97,140.22 85.96,140.13 C85.94,140.07 85.94,140.07 85.92,140.01 C85.88,139.95 85.88,139.95 85.84,139.89 C85.79,139.83 85.79,139.83 85.74,139.78 "/><path d="M85.99,141.26 C85.99,141.29 85.99,141.29 85.99,141.32 C85.98,141.35 85.98,141.35 85.97,141.37 C85.95,141.41 85.95,141.41 85.92,141.46 C85.89,141.50 85.89,141.50 85.85,141.54 "/><path d="M85.43,139.08 C85.41,139.05 85.41,139.05 85.38,139.03 C85.34,139.00 85.34,139.00 85.29,138.98 C85.24,138.96 85.24,138.96 85.18,138.94 "/><path d="M81.42,140.51 L81.37,140.64 L81.67,141.84 L82.24,142.32 L82.52,141.59 L82.22,140.38 L81.64,139.91 L81.42,140.51 "/><path d="M81.37,140.64 L82.23,140.43 "/><path d="M81.51,139.35 L82.35,140.05 L82.40,140.26 L82.78,141.81 L82.38,142.87 "/><path d="M81.67,141.84 L82.50,141.64 "/><path d="M85.63,141.02 L85.94,140.49 "/><path d="M85.74,139.78 L85.50,139.61 L85.25,139.47 L82.52,140.12 L82.91,141.67 L85.63,141.02 L85.72,141.05 L85.89,141.13 L85.95,141.19 L85.99,141.26 "/><path d="M85.85,141.54 L85.58,141.76 "/><path d="M82.52,140.12 L82.50,140.01 L82.35,140.05 "/><path d="M82.50,140.01 L81.86,139.49 "/><path d="M82.78,141.81 L82.93,141.77 L82.62,142.59 "/><path d="M82.91,141.67 L82.93,141.77 "/><path d="M85.25,139.47 L85.44,139.24 L85.46,139.16 L85.43,139.08 "/><path d="M85.18,138.94 L84.93,138.90 "/></g><g style="stroke:#000000;stroke-width:0.529"><path d="M84.51,138.86 C84.72,138.88 84.72,138.88 84.93,138.90 C85.09,138.92 85.09,138.92 85.25,138.94 C85.36,138.99 85.36,138.99 85.46,139.04 "/><path d="M85.46,139.04 C85.56,139.14 85.56,139.15 85.66,139.26 C85.76,139.42 85.76,139.43 85.85,139.59 C85.92,139.80 85.92,139.80 85.99,140.00 C86.04,140.22 86.04,140.22 86.09,140.43 C86.10,140.64 86.10,140.64 86.11,140.85 C86.10,141.03 86.10,141.03 86.07,141.20 C86.03,141.33 86.03,141.33 85.97,141.46 "/><path d="M81.29,141.15 L81.11,140.42 L81.51,139.35 L81.66,139.32 L81.86,139.49 L84.51,138.86 "/><path d="M85.97,141.46 L85.58,141.76 L85.28,141.96 L82.62,142.59 L82.53,142.84 L82.38,142.87 L81.54,142.18 L81.29,141.15 "/></g></g><g id="Actor_.6"><g style="stroke:#000000;stroke-width:0.176"><path d="M70.66,119.89 C70.79,119.95 70.79,119.95 70.91,120.02 C71.03,120.11 71.03,120.11 71.15,120.19 C71.20,120.25 71.20,120.25 71.25,120.30 C71.29,120.36 71.29,120.36 71.33,120.43 C71.35,120.49 71.35,120.49 71.37,120.54 C71.38,120.64 71.38,120.64 71.39,120.73 C71.37,120.81 71.37,120.82 71.35,120.90 "/><path d="M71.00,122.17 C71.13,122.07 71.13,122.07 71.26,121.95 C71.30,121.91 71.30,121.91 71.34,121.87 C71.36,121.83 71.36,121.83 71.38,121.79 C71.39,121.76 71.39,121.76 71.40,121.74 C71.40,121.71 71.40,121.71 71.40,121.68 "/><path d="M70.84,119.49 C70.82,119.47 70.82,119.47 70.79,119.44 C70.75,119.42 70.75,119.42 70.70,119.40 C70.65,119.38 70.65,119.38 70.59,119.36 "/><path d="M67.66,122.73 L67.08,122.26 L66.93,121.64 L66.78,121.05 L67.06,120.32 L67.63,120.80 L67.64,120.85 L67.93,122.01 L67.66,122.73 "/><path d="M67.08,122.26 L67.91,122.06 "/><path d="M66.78,121.05 L67.64,120.85 "/><path d="M67.79,123.29 L68.19,122.22 L68.06,121.67 L67.76,120.46 L66.92,119.77 "/><path d="M67.76,120.46 L67.91,120.43 L67.28,119.91 "/><path d="M68.04,123.01 L68.34,122.19 L68.19,122.22 "/><path d="M68.34,122.19 L67.93,120.54 L70.66,119.89 "/><path d="M71.35,120.90 L71.04,121.44 L68.32,122.09 "/><path d="M67.93,120.54 L67.91,120.43 "/><path d="M71.40,121.68 L71.36,121.61 L71.30,121.55 L71.14,121.47 L71.04,121.44 "/><path d="M70.66,119.89 L70.85,119.66 L70.87,119.58 L70.84,119.49 "/><path d="M70.59,119.36 L70.34,119.31 "/></g><g style="stroke:#000000;stroke-width:0.529"><path d="M69.92,119.27 C70.13,119.29 70.13,119.29 70.34,119.31 C70.50,119.34 70.50,119.33 70.67,119.36 C70.77,119.40 70.77,119.40 70.87,119.45 "/><path d="M70.87,119.45 C70.97,119.56 70.97,119.56 71.07,119.68 C71.17,119.84 71.17,119.84 71.26,120.01 C71.33,120.21 71.33,120.21 71.41,120.42 C71.45,120.63 71.45,120.63 71.50,120.85 C71.51,121.06 71.52,121.06 71.53,121.27 C71.51,121.44 71.51,121.44 71.49,121.62 C71.44,121.75 71.44,121.75 71.38,121.87 "/><path d="M67.19,122.79 L66.96,122.59 L66.52,120.83 L66.92,119.77 L67.07,119.73 L67.28,119.91 L69.92,119.27 "/><path d="M71.38,121.87 L71.00,122.17 L70.69,122.37 L68.04,123.01 L67.94,123.25 L67.79,123.29 L67.19,122.79 "/></g></g><g id="Actor_.7"><g style="stroke:#000000;stroke-width:0.176"><path d="M104.71,89.28 C104.81,89.44 104.81,89.44 104.92,89.59 C105.04,89.73 105.04,89.73 105.17,89.86 C105.22,89.90 105.22,89.90 105.27,89.94 C105.33,89.96 105.33,89.96 105.38,89.99 C105.42,90.00 105.42,90.00 105.46,90.00 C105.51,90.00 105.51,90.00 105.56,90.00 C105.62,89.98 105.62,89.98 105.68,89.96 C105.74,89.94 105.74,89.94 105.79,89.90 C105.89,89.82 105.89,89.82 105.98,89.74 C106.02,89.69 106.02,89.69 106.06,89.64 "/><path d="M106.61,90.01 C106.69,90.01 106.69,90.01 106.77,90.00 C106.82,89.99 106.82,89.99 106.88,89.97 C106.94,89.93 106.94,89.93 107.00,89.89 C107.06,89.84 107.06,89.84 107.12,89.79 "/><path d="M106.06,89.64 L106.46,89.97 L106.61,90.01 "/><path d="M107.12,89.79 L107.31,89.56 L107.48,89.30 L107.51,89.54 "/><path d="M107.70,85.57 L107.62,86.36 L107.11,86.49 L106.01,86.75 L104.48,86.34 "/><path d="M105.00,86.07 L104.99,86.22 L106.04,86.50 L107.14,86.23 L107.19,85.69 L106.14,85.41 L105.04,85.67 L105.00,86.07 "/><path d="M105.04,85.67 L105.05,86.23 "/><path d="M106.01,86.75 L106.01,86.90 L104.68,86.54 "/><path d="M106.06,89.64 L106.03,86.90 L106.01,86.90 "/><path d="M106.03,86.90 L107.44,86.56 L107.48,89.30 "/><path d="M106.14,85.41 L106.16,86.47 "/><path d="M107.62,86.36 L107.62,86.52 "/><path d="M107.44,86.56 L107.52,86.54 "/></g><g style="stroke:#000000;stroke-width:0.529"><path d="M107.41,89.73 C107.30,89.82 107.30,89.82 107.19,89.91 C107.03,89.98 107.03,89.98 106.86,90.04 C106.66,90.08 106.66,90.08 106.45,90.12 C106.23,90.13 106.23,90.13 106.01,90.14 C105.79,90.12 105.79,90.12 105.58,90.09 C105.39,90.04 105.39,90.04 105.21,89.99 C105.07,89.91 105.07,89.91 104.94,89.83 "/><path d="M104.94,89.83 C104.87,89.74 104.87,89.74 104.80,89.65 C104.77,89.58 104.77,89.58 104.74,89.51 C104.73,89.47 104.73,89.47 104.73,89.43 C104.72,89.36 104.72,89.36 104.71,89.28 "/><path d="M107.52,86.54 L107.55,88.60 L107.53,89.27 L107.52,89.51 L107.41,89.73 "/><path d="M104.71,89.28 L104.68,86.54 L104.48,86.49 L104.48,86.34 L104.56,85.54 L106.17,85.16 L107.70,85.57 L107.70,85.72 L107.62,86.52 L107.52,86.54 "/></g></g><g id="Actor_.8"><g style="stroke:#000000;stroke-width:0.176"><path d="M127.68,83.79 C127.78,83.95 127.78,83.95 127.89,84.10 C128.01,84.24 128.01,84.24 128.14,84.38 C128.19,84.41 128.19,84.41 128.24,84.45 C128.30,84.47 128.30,84.47 128.35,84.50 C128.39,84.51 128.39,84.51 128.43,84.51 C128.48,84.51 128.48,84.51 128.53,84.51 C128.59,84.50 128.59,84.50 128.65,84.48 C128.71,84.45 128.71,84.45 128.76,84.41 C128.86,84.33 128.86,84.33 128.95,84.25 C128.99,84.20 128.99,84.20 129.03,84.15 "/><path d="M129.58,84.52 C129.66,84.52 129.66,84.52 129.74,84.51 C129.79,84.50 129.80,84.50 129.85,84.48 C129.91,84.44 129.91,84.44 129.97,84.40 C130.03,84.35 130.03,84.35 130.09,84.30 "/><path d="M129.03,84.15 L129.44,84.48 L129.58,84.52 "/><path d="M130.09,84.30 L130.28,84.07 L130.45,83.81 L130.48,84.05 "/><path d="M130.59,81.03 L130.59,80.87 L128.98,81.26 L127.45,80.85 "/><path d="M128.02,80.74 L128.01,80.18 L127.96,80.73 L129.01,81.01 L130.11,80.75 L130.16,80.20 L129.12,79.92 L129.13,80.98 "/><path d="M128.98,81.26 L128.99,81.41 L127.65,81.05 "/><path d="M128.01,80.18 L129.12,79.92 "/><path d="M129.03,84.15 L129.00,81.41 L130.41,81.07 L130.45,83.81 "/><path d="M129.00,81.41 L128.99,81.41 "/><path d="M130.41,81.07 L130.49,81.05 "/><path d="M130.59,80.87 L130.67,80.08 "/></g><g style="stroke:#000000;stroke-width:0.529"><path d="M130.38,84.25 C130.28,84.33 130.27,84.34 130.16,84.42 C130.00,84.49 130.00,84.49 129.83,84.55 C129.63,84.59 129.63,84.59 129.42,84.63 C129.20,84.64 129.20,84.64 128.98,84.65 C128.76,84.63 128.76,84.63 128.55,84.60 C128.36,84.55 128.36,84.55 128.18,84.50 C128.04,84.42 128.04,84.42 127.91,84.34 "/><path d="M127.91,84.34 C127.84,84.25 127.84,84.25 127.77,84.16 C127.74,84.09 127.74,84.09 127.71,84.02 C127.70,83.98 127.70,83.98 127.70,83.94 C127.69,83.87 127.69,83.87 127.68,83.79 "/><path d="M130.49,81.05 L130.52,83.11 L130.50,83.78 L130.49,84.03 L130.38,84.25 "/><path d="M127.68,83.79 L127.65,81.05 L127.45,81.00 L127.45,80.85 L127.53,80.05 L129.14,79.67 L130.67,80.08 L130.67,80.23 L130.59,81.03 L130.49,81.05 "/></g></g><g id="Actor_.9"><g style="stroke:#000000;stroke-width:0.176"><path d="M173.63,72.81 C173.72,72.97 173.72,72.97 173.83,73.12 C173.95,73.26 173.95,73.26 174.08,73.40 C174.13,73.44 174.13,73.44 174.18,73.47 C174.24,73.50 174.24,73.50 174.29,73.52 C174.33,73.53 174.33,73.53 174.37,73.53 C174.42,73.54 174.42,73.54 174.47,73.53 C174.53,73.52 174.53,73.52 174.59,73.50 C174.65,73.47 174.65,73.47 174.70,73.44 C174.80,73.35 174.80,73.35 174.89,73.27 C174.93,73.22 174.93,73.22 174.97,73.17 "/><path d="M175.52,73.54 C175.60,73.54 175.60,73.54 175.68,73.54 C175.74,73.52 175.74,73.52 175.79,73.50 C175.85,73.46 175.85,73.46 175.92,73.42 C175.97,73.37 175.97,73.37 176.03,73.32 "/><path d="M174.97,73.17 L175.38,73.50 L175.52,73.54 "/><path d="M176.03,73.32 L176.22,73.09 L176.39,72.84 L176.42,73.07 "/><path d="M176.54,70.05 L176.53,69.90 L174.92,70.28 L173.39,69.87 "/><path d="M174.92,70.28 L174.93,70.43 L173.59,70.07 "/><path d="M173.90,69.75 L173.95,69.21 L174.30,69.12 L175.06,68.94 L176.10,69.22 L176.05,69.77 L175.09,70.00 L174.95,70.03 L173.90,69.75 "/><path d="M173.95,69.21 L173.96,69.77 "/><path d="M174.97,73.17 L174.94,70.43 L176.35,70.09 L176.39,72.84 "/><path d="M174.94,70.43 L174.93,70.43 "/><path d="M175.07,70.00 L175.06,68.94 "/><path d="M176.35,70.09 L176.43,70.07 "/><path d="M176.53,69.90 L176.61,69.10 "/></g><g style="stroke:#000000;stroke-width:0.529"><path d="M176.32,73.27 C176.22,73.36 176.22,73.36 176.10,73.44 C175.94,73.51 175.94,73.51 175.77,73.57 C175.57,73.62 175.57,73.62 175.36,73.65 C175.14,73.67 175.14,73.67 174.92,73.67 C174.70,73.65 174.70,73.65 174.49,73.62 C174.30,73.58 174.30,73.58 174.12,73.52 C173.98,73.45 173.98,73.45 173.85,73.37 "/><path d="M173.85,73.37 C173.78,73.28 173.78,73.28 173.71,73.18 C173.68,73.12 173.68,73.11 173.65,73.05 C173.65,73.01 173.65,73.01 173.64,72.97 C173.63,72.89 173.63,72.89 173.63,72.81 "/><path d="M176.43,70.07 L176.46,72.14 L176.44,72.80 L176.43,73.05 L176.32,73.27 "/><path d="M173.63,72.81 L173.59,70.07 L173.40,70.02 L173.39,69.87 L173.47,69.08 L175.08,68.69 L176.61,69.10 L176.61,69.25 L176.54,70.05 L176.43,70.07 "/></g></g><g id="Actor_.10"><g style="stroke:#000000;stroke-width:0.176"><path d="M199.50,102.86 C199.55,102.72 199.55,102.72 199.59,102.57 C199.60,102.38 199.60,102.38 199.60,102.19 C199.58,101.98 199.58,101.98 199.55,101.77 C199.50,101.55 199.50,101.55 199.44,101.34 C199.36,101.14 199.36,101.14 199.28,100.95 C199.19,100.80 199.19,100.80 199.09,100.65 C198.99,100.56 198.98,100.55 198.88,100.47 "/><path d="M199.04,102.47 C198.98,102.42 198.98,102.42 198.92,102.36 C198.86,102.28 198.86,102.28 198.81,102.19 C198.76,102.08 198.76,102.08 198.72,101.97 C198.69,101.85 198.69,101.85 198.66,101.73 C198.64,101.61 198.64,101.61 198.63,101.49 C198.63,101.38 198.63,101.38 198.64,101.27 C198.66,101.19 198.66,101.19 198.68,101.11 "/><path d="M198.98,101.06 C199.04,101.13 199.04,101.13 199.10,101.20 C199.15,101.30 199.15,101.30 199.20,101.40 C199.24,101.51 199.24,101.51 199.28,101.63 C199.30,101.76 199.30,101.76 199.33,101.88 C199.33,102.00 199.33,102.00 199.34,102.11 C199.32,102.21 199.32,102.21 199.31,102.30 C199.28,102.37 199.28,102.37 199.24,102.44 "/><path d="M199.93,100.66 C199.83,100.81 199.83,100.81 199.73,100.95 C199.66,101.12 199.66,101.12 199.60,101.29 C199.59,101.35 199.59,101.35 199.59,101.42 C199.59,101.48 199.59,101.48 199.60,101.55 C199.61,101.59 199.61,101.59 199.63,101.64 C199.65,101.69 199.65,101.69 199.68,101.74 C199.73,101.81 199.73,101.81 199.78,101.87 C199.85,101.92 199.85,101.92 199.91,101.98 C200.04,102.06 200.04,102.06 200.18,102.14 C200.25,102.18 200.25,102.18 200.32,102.21 "/><path d="M200.32,102.21 C200.06,102.39 200.06,102.39 199.80,102.58 C199.74,102.63 199.74,102.63 199.69,102.69 C199.65,102.74 199.65,102.74 199.62,102.80 "/><path d="M199.18,103.06 L199.36,103.03 L199.50,102.86 "/><path d="M198.88,100.47 L198.68,100.42 L198.52,100.52 "/><path d="M198.68,101.11 L198.76,101.01 L198.87,101.00 L198.98,101.06 "/><path d="M199.24,102.44 L199.15,102.49 L199.04,102.47 "/><path d="M199.19,100.05 L199.12,100.12 L198.98,100.33 L198.98,100.40 L199.03,100.47 L199.14,100.54 L199.23,100.57 L199.57,100.63 L199.93,100.66 "/><path d="M199.62,102.80 L199.60,102.87 L199.62,102.94 L199.66,103.00 L199.79,103.09 L199.96,103.15 "/><path d="M202.60,102.52 L202.76,102.48 L203.11,101.54 L200.32,102.21 "/><path d="M199.93,100.66 L202.73,99.99 L203.11,101.54 "/><path d="M203.36,101.59 L203.21,101.63 L202.81,102.69 "/><path d="M202.73,99.99 L201.99,99.38 L201.85,99.42 "/><path d="M202.93,99.83 L202.78,99.87 L203.21,101.63 "/><path d="M202.78,99.87 L201.94,99.17 "/></g><g style="stroke:#000000;stroke-width:0.529"><path d="M198.36,101.09 C198.36,101.30 198.36,101.30 198.37,101.50 C198.41,101.72 198.41,101.72 198.46,101.94 C198.52,102.15 198.52,102.15 198.60,102.35 C198.68,102.53 198.68,102.53 198.78,102.70 C198.87,102.82 198.88,102.82 198.98,102.94 "/><path d="M198.37,100.98 L198.36,101.09 "/><path d="M198.98,102.94 L199.18,103.06 L199.43,103.10 L199.96,103.15 L202.60,102.52 L202.81,102.69 L202.96,102.66 L203.36,101.59 L202.93,99.84 L202.09,99.14 L201.94,99.17 L201.85,99.42 L199.19,100.05 L198.52,100.52 L198.41,100.75 L198.37,100.98 "/></g></g><g id="Actor_.11"><g style="stroke:#000000;stroke-width:0.176"><path d="M77.50,129.92 C77.63,129.98 77.63,129.99 77.75,130.05 C77.87,130.14 77.87,130.14 77.99,130.23 C78.04,130.28 78.04,130.28 78.09,130.33 C78.13,130.40 78.13,130.40 78.17,130.46 C78.19,130.52 78.19,130.52 78.21,130.58 C78.22,130.67 78.22,130.67 78.23,130.76 C78.21,130.85 78.21,130.85 78.19,130.93 "/><path d="M78.24,131.71 C78.24,131.74 78.24,131.74 78.24,131.77 C78.23,131.80 78.23,131.80 78.22,131.82 C78.20,131.86 78.20,131.86 78.18,131.90 C78.14,131.95 78.14,131.95 78.10,131.99 "/><path d="M77.68,129.52 C77.66,129.50 77.66,129.50 77.63,129.47 C77.59,129.45 77.59,129.45 77.54,129.43 C77.49,129.41 77.49,129.41 77.43,129.39 "/><path d="M74.48,130.88 L73.62,131.08 L73.90,130.36 L74.47,130.83 L74.77,132.04 L74.50,132.77 L73.92,132.29 L74.75,132.09 "/><path d="M73.92,132.29 L73.62,131.08 "/><path d="M74.63,133.32 L75.03,132.26 L74.96,131.97 L74.60,130.50 L73.76,129.80 "/><path d="M74.60,130.50 L74.75,130.46 L74.12,129.94 "/><path d="M75.03,132.26 L75.18,132.22 L74.77,130.57 L77.50,129.92 "/><path d="M78.19,130.93 L77.88,131.47 L77.97,131.50 L78.14,131.58 L78.20,131.64 L78.24,131.71 "/><path d="M78.10,131.99 L77.83,132.21 "/><path d="M75.18,132.22 L74.88,133.04 "/><path d="M75.16,132.12 L77.88,131.47 "/><path d="M74.77,130.57 L74.75,130.46 "/><path d="M77.50,129.92 L77.69,129.69 L77.71,129.61 L77.68,129.52 "/><path d="M77.43,129.39 L77.18,129.34 "/></g><g style="stroke:#000000;stroke-width:0.529"><path d="M78.22,131.90 C78.28,131.78 78.28,131.78 78.33,131.65 C78.35,131.48 78.35,131.48 78.37,131.30 C78.35,131.09 78.35,131.09 78.34,130.88 C78.29,130.66 78.29,130.66 78.24,130.45 C78.17,130.24 78.17,130.24 78.10,130.04 C78.01,129.87 78.01,129.87 77.91,129.71 C77.81,129.59 77.81,129.59 77.71,129.48 "/><path d="M77.71,129.48 C77.61,129.44 77.61,129.43 77.51,129.39 C77.34,129.36 77.34,129.37 77.18,129.34 C76.97,129.32 76.97,129.32 76.76,129.31 "/><path d="M73.36,130.86 L73.79,132.63 L74.63,133.32 L74.78,133.29 L74.88,133.04 L77.53,132.41 L77.83,132.21 L78.22,131.90 "/><path d="M76.76,129.31 L74.12,129.94 L73.91,129.76 L73.76,129.80 L73.36,130.86 "/></g></g><g id="paperID" visibility="hidden" opacity="0.00" transform="scale(0.000100)"><path style="stroke:#000000;stroke-width:0.500;fill:#e6e6e6;fill-rule:evenodd" d="M-2000.00,-2000.00L2297.00,-2000.00L2297.00,2210.00L-2000.00,2210.00zM0.00,0.00L297.00,0.00L297.00,210.00L0.00,210.00z"/><path style="fill:#000000;fill-opacity:0.118" d="M3.00,210.00L297.00,210.00L297.00,3.00L300.00,3.00L300.00,213.00L3.00,213.00z"/></g><g id="ToolTip" visibility="hidden" opacity="0" transform="translate(0,0)"><rect id="ToolTipShadow" opacity="0.20" fill="black" stroke="none" x="0" y="0" width="30" height="8"/><rect id="ToolTipBG" fill="#ffffe1" stroke="black" x="0" y="0" width="30" height="8"/><text xml:space="preserve" id="ToolTipText" fill="black" x="0" y="0" width="30" height="8">tooltip</text></g></g></svg>
