<?xml version="1.0" encoding="UTF-8" standalone="no"?>
<svg xmlns="http://www.w3.org/2000/svg" xmlns:xlink="http://www.w3.org/1999/xlink" width="297.000mm" height="210.000mm" viewBox="0.000000 0.000000 297.000000 210.000000" stroke-linejoin="round" stroke-linecap="round" fill="none" fill-rule="evenodd"><desc>Composer Export</desc><script type="text/ecmascript"><![CDATA[
if(typeof(top) != "undefined")
{
	top.ShowPaper = ShowPaper;
}
function ShowHotSpot(evt,hotspotid)
{
	var svgDocument = evt.target.ownerDocument;
	var strId = "hotspot."+hotspotid;
	var hotspot = svgDocument.getElementById(strId);
	if(hotspot)
		hotspot.setAttribute("opacity",".5");
}
function HideHotSpot(evt,hotspotid)
{
	var svgDocument = evt.target.ownerDocument;
	var strId = "hotspot."+hotspotid;
	var hotspot = svgDocument.getElementById(strId);
	if(hotspot)
		hotspot.setAttribute("opacity","0");

	var toolTip = svgDocument.getElementById('ToolTip');
	if(toolTip)
		toolTip.setAttribute("visibility","hidden");
}
function ShowToolTip(evt,hotspotid,strTooltip)
{
	if(strTooltip=="")
	return;

	// change text
	var svgDocument = evt.target.ownerDocument;
	var tiptext = svgDocument.getElementById('ToolTipText');
	if( !tiptext )
	return;
	tiptext.firstChild.nodeValue = " " + strTooltip + "  " ;

	// show tooltip before, else some refresh issue

	var toolTip = svgDocument.getElementById('ToolTip');
	if(!toolTip)
	return;

	toolTip.setAttribute("visibility","visible");
	toolTip.setAttribute("opacity",".95");

	// move tooltip
	// get viewbox

	var root = svgDocument.documentElement;
	var vbox = (root.getAttribute("viewBox")).split(' ');
	var x0 = parseFloat(vbox[0]);
	var y0 = parseFloat(vbox[1]);
	var vboxW = parseFloat(vbox[2]);
	var vboxH = parseFloat(vbox[3]);

	// get default width of svg

	var strW = root.getAttribute("width");
	var svgW = parseFloat(strW);
	if(strW.indexOf('mm') != -1)
	svgW *= 3.779;

	var strH = root.getAttribute("height");
	var svgH = parseFloat(strH);
	if(strH.indexOf('mm') != -1)
	svgH *= 3.779;  	// 96 dpi  -> 96/25.4 = 3.779

	// update the viewbox / width / height if svg is embedded in html with zoom fit all
	var realx0 = x0;
	var realy0 = y0;
	var realvboxW = vboxW;
	var realvboxH = vboxH;
	var realsvgW = svgW;
	var realsvgH = svgH;

	if ((typeof(top) == "undefined") || (typeof(top.svgctl1) != "undefined")) // embedded in html
	{
		// get window size in pxl

		svgW = window.innerWidth;
		svgH = window.innerHeight;

		// calculate real viewbox

		realsvgW = svgW;
		realsvgH = svgH;
		if((svgW / svgH) > (vboxW / vboxH))
		{
			realvboxW = (vboxH * svgW) / svgH;
			realvboxH = vboxH;
			realx0 = x0 - (realvboxW - vboxW)/2 ;
		}
		else
		{
			realvboxH = (vboxW * svgH) / svgW;
			realvboxW = vboxW;
			realy0 = y0 - (realvboxH - vboxH)/2 ;
		}
	}

	// get user zoom/pan

	var newScale = root.currentScale;
	var translation = root.currentTranslate;

	// transform pxl to user unit

	var xPos = (((evt.clientX+10- translation.x)/newScale) * realvboxW)/realsvgW  + realx0 ;
	var yPos = (((evt.clientY+5- translation.y)/newScale) * realvboxH)/ realsvgH  + realy0 ;
	var scaleForWidth = ( (1 / newScale) * realvboxH) / realsvgH;

	// move tooltip

	toolTip.setAttribute("transform", "translate(" + xPos + "," + yPos + ")" );

	// resize tooltip

	var fontsize = 12;
	tiptext.setAttribute("font-size",fontsize*scaleForWidth);
	tiptext.setAttribute("y", fontsize*scaleForWidth);
	var tipBG = svgDocument.getElementById('ToolTipBG');
	var outline = tiptext.getBBox();
	if(tipBG)
	{
		tipBG.setAttribute("stroke-width", 1*scaleForWidth);
		tipBG.setAttribute("width", Number(outline.width) );
		tipBG.setAttribute("height", Number(outline.height) + fontsize*.5*scaleForWidth );
	}
	var ToolTipShadow = svgDocument.getElementById('ToolTipShadow');
	if(ToolTipShadow)
	{
		ToolTipShadow.setAttribute("width", Number(outline.width) );
		ToolTipShadow.setAttribute("height", Number(outline.height) + fontsize*.5*scaleForWidth );
		ToolTipShadow.setAttribute("x", 3*scaleForWidth);
		ToolTipShadow.setAttribute("y", 3*scaleForWidth);
	}
}
function ShowPaper()
{
  var svgDocument = getDocument();
  var paper = svgDocument.getElementById("paperID");
  if(paper)
  {
    paper.setAttribute("transform","scale(1)");
    paper.setAttribute("opacity","1");
    paper.setAttribute("visibility","visible");
  }
  var svg = svgDocument.getRootElement();
  if(svg)
  {
    svg.setAttribute("width","307.000mm");
    svg.setAttribute("height","220.000mm");
    svg.setAttribute("viewBox","-5.000000 -5.000000 307.000000 220.000000");
  }
}
]]></script><defs/><g><path style="fill:#ffffff" d="M296.92,210.05L0.08,210.05L0.08,0.08L296.92,0.08z"/><path style="fill:#6c737e" d="M147.75,5.30L155.99,17.75L156.84,18.82L160.13,21.60L168.97,29.03L170.05,30.43L170.37,31.94L169.67,32.09L169.76,32.61L170.37,33.10L170.70,33.32L238.44,89.44L239.66,90.68L239.49,90.81L234.50,91.93L232.82,92.50L232.81,93.11L234.85,92.84L235.50,92.60L238.64,91.92L239.55,91.90L239.85,92.18L240.67,92.40L240.97,92.92L241.08,93.77L241.23,94.59L241.62,96.80L241.79,97.61L241.91,98.46L242.06,99.27L242.18,100.11L242.34,100.92L242.46,101.77L242.61,102.57L242.73,103.15L242.89,103.95L243.01,104.80L243.17,105.61L243.29,106.45L243.44,107.26L243.56,108.11L243.71,108.93L244.11,111.14L244.27,111.95L244.39,112.80L244.54,113.61L244.66,114.45L244.82,115.28L245.21,117.48L245.37,118.29L245.49,119.14L245.65,119.95L245.77,120.79L245.92,121.60L246.04,122.45L246.20,123.25L246.32,123.84L246.47,124.64L246.59,125.48L246.75,126.29L246.87,127.14L247.03,127.95L247.15,128.79L247.30,129.62L247.69,131.82L247.85,132.63L247.97,133.48L248.13,134.29L248.25,135.13L248.40,135.96L248.79,138.16L248.96,138.98L249.08,139.82L249.23,140.63L249.35,141.48L249.51,142.29L249.63,143.13L249.78,143.93L249.90,144.52L250.06,145.32L250.18,146.16L250.34,146.97L250.46,147.82L250.61,148.63L250.73,149.47L250.88,150.30L251.28,152.50L251.44,153.32L251.56,154.16L251.71,154.97L251.83,155.82L251.99,156.64L252.38,158.85L252.54,159.66L252.66,160.50L252.82,161.31L252.94,162.16L253.09,162.97L253.21,163.81L253.37,164.62L253.49,165.20L253.64,166.00L253.76,166.85L253.94,167.66L253.93,168.49L253.26,168.58L252.42,169.72L252.48,170.22L252.88,170.46L254.60,173.99L254.61,175.14L254.28,176.02L253.60,176.39L157.29,199.48L154.59,199.48L154.09,199.19L153.61,199.69L152.43,198.62L150.54,194.95L150.48,194.24L149.94,193.94L149.66,193.15L148.97,193.39L148.66,194.18L144.17,190.91L143.89,190.56L143.60,190.07L143.15,190.04L142.77,189.73L142.50,189.24L142.05,189.22L141.67,188.90L141.40,188.41L140.93,188.38L135.07,184.02L134.79,183.67L134.50,183.17L134.05,183.15L133.67,182.84L133.40,182.35L132.95,182.32L132.57,182.01L132.30,181.52L131.83,181.49L127.07,177.95L126.79,177.60L126.50,177.11L126.05,177.08L125.68,176.77L125.40,176.28L124.95,176.25L124.57,175.94L124.30,175.45L123.85,175.43L123.47,175.12L123.20,174.62L122.73,174.60L117.97,171.06L117.69,170.71L117.40,170.21L116.95,170.19L116.58,169.88L116.30,169.39L115.85,169.36L115.47,169.05L115.20,168.56L114.75,168.53L114.37,168.22L114.10,167.73L113.63,167.70L109.97,164.99L109.70,164.64L109.41,164.15L108.96,164.12L108.58,163.81L108.30,163.32L107.85,163.29L107.48,162.98L107.20,162.49L106.75,162.47L106.37,162.15L106.10,161.67L105.65,161.64L105.27,161.33L105.00,160.84L104.53,160.81L101.97,158.92L101.70,158.57L101.41,158.08L100.96,158.05L100.58,157.74L100.31,157.25L99.86,157.23L99.48,156.92L99.20,156.43L98.75,156.40L98.37,156.09L98.10,155.60L97.65,155.57L97.27,155.26L97.00,154.77L96.55,154.75L96.17,154.43L95.90,153.94L95.43,153.91L92.87,152.03L92.60,151.68L92.31,151.19L91.86,151.16L91.48,150.85L91.21,150.36L90.76,150.33L90.38,150.02L90.10,149.53L89.65,149.51L89.27,149.19L89.00,148.70L88.55,148.68L88.17,148.37L87.90,147.88L87.45,147.85L87.07,147.54L86.79,147.05L86.33,147.02L84.88,145.96L84.60,145.61L84.31,145.12L83.86,145.09L83.48,144.78L83.21,144.29L82.76,144.27L82.38,143.95L82.11,143.47L81.66,143.44L81.28,143.13L81.00,142.64L80.55,142.61L80.17,142.30L79.90,141.81L79.45,141.78L79.07,141.47L78.80,140.98L78.35,140.96L77.97,140.65L77.69,140.15L77.23,140.12L75.78,139.07L75.50,138.72L75.21,138.23L74.76,138.20L74.38,137.89L74.11,137.40L73.66,137.37L73.28,137.06L73.01,136.57L72.56,136.54L72.18,136.23L71.90,135.74L71.45,135.72L71.07,135.41L70.80,134.92L70.35,134.89L69.97,134.58L69.70,134.09L69.25,134.06L68.87,133.75L68.59,133.26L68.13,133.23L67.50,132.65L67.21,132.16L66.76,132.13L66.39,131.82L66.11,131.33L65.66,131.30L65.28,130.99L65.01,130.50L64.56,130.48L64.18,130.17L63.90,129.68L63.45,129.65L63.08,129.34L62.80,128.85L62.35,128.82L61.97,128.51L61.70,128.02L61.25,128.00L60.87,127.68L60.60,127.20L60.15,127.17L59.76,126.86L59.54,126.34L58.77,126.06L58.39,125.75L58.11,125.26L57.66,125.24L57.29,124.93L57.01,124.44L56.56,124.41L56.18,124.10L55.91,123.61L55.46,123.58L55.08,123.27L54.80,122.78L54.35,122.76L53.98,122.44L53.70,121.96L53.25,121.93L52.87,121.62L52.60,121.13L52.15,121.10L51.76,120.80L51.21,120.04L50.74,119.96L50.09,119.21L49.67,119.17L49.29,118.86L49.01,118.37L48.56,118.34L48.19,118.03L47.91,117.54L47.46,117.52L47.08,117.21L46.81,116.72L46.36,116.69L45.98,116.38L45.71,115.88L45.24,115.86L44.60,115.35L40.18,108.45L39.92,105.35L39.88,94.68L39.77,94.58L39.65,83.84L39.61,73.17L39.50,73.07L39.37,62.61L39.33,51.94L39.22,51.84L39.10,41.10L39.35,36.79L39.22,36.66L39.34,29.14L39.79,28.76L41.04,28.51L43.52,30.38L51.47,42.56L52.88,44.19L65.30,54.65L65.99,56.52L65.84,57.08L65.17,57.16L65.25,58.93L65.95,57.35L66.24,57.06L72.07,55.52L73.83,55.50L124.15,97.35L124.21,97.53L124.93,97.42L127.41,96.85L130.16,96.05L130.46,96.07L131.93,96.08L132.70,95.42L140.09,93.82L148.77,91.68L149.11,91.45L149.13,90.83L144.16,82.79L143.64,82.17L142.76,12.48L140.74,12.78L138.91,13.71L138.05,15.06L138.06,31.81L138.62,74.00L138.48,81.10L138.34,80.93L138.10,74.47L138.06,64.07L137.95,63.97L137.82,53.51L137.78,42.84L137.67,42.74L137.54,32.27L137.51,21.88L137.39,21.78L137.50,14.78L138.08,13.71L139.63,12.50L141.47,12.08L143.59,11.78L143.61,5.23L143.86,4.05L144.58,3.67L145.81,3.66z"/><path style="fill:#000020" d="M226.13,68.61L225.85,68.70L225.29,68.57L226.14,68.42z"/><path style="fill:#000020" d="M103.95,73.85L103.14,73.71L103.91,73.65z"/><path style="fill:#00fdff" d="M200.94,46.43L200.95,47.32L200.76,47.50L199.63,47.43L199.39,47.09L199.29,46.41L198.94,46.36L198.33,46.73L198.31,47.04L198.80,47.25L199.63,47.43L199.26,50.63L198.82,51.03L198.18,50.86L197.94,50.47L197.87,47.53L197.72,47.48L197.58,47.06L198.15,46.20L200.12,46.14z"/><path style="fill:#00fdff" d="M78.78,46.69L78.81,47.71L78.59,47.78L77.63,47.50L77.35,48.09L77.13,50.95L76.94,51.24L76.35,51.39L75.92,51.22L75.75,50.77L75.74,47.80L75.62,47.70L75.63,46.69L76.68,46.54L76.82,46.68L76.20,47.00L76.26,47.52L77.12,47.64L77.20,46.36z"/><path style="fill:#00fdff" d="M227.78,68.72L227.78,69.78L226.82,69.62L226.13,68.61L226.14,68.42z"/><path style="fill:#616871" d="M143.64,82.17L143.39,82.13L142.57,82.11L140.92,82.40L139.73,82.26L138.63,81.44L138.48,81.10L138.62,74.00L138.06,31.81L138.05,15.06L138.91,13.71L140.74,12.78L142.76,12.48z"/><path style="fill:#616871" d="M172.67,38.89L172.34,39.49L171.75,39.68L171.31,39.60L171.32,39.00L171.90,38.65L172.56,38.69z"/><path style="fill:#616871" d="M65.95,57.35L65.25,58.93L65.17,57.16L65.84,57.08z"/><path style="fill:#616871" d="M226.64,84.05L226.18,84.39L225.47,84.54L225.10,84.26L225.10,83.68L226.30,83.37z"/><path style="fill:#616871" d="M103.01,84.02L104.46,83.67L104.50,84.58L103.67,84.89L103.01,84.76z"/><path style="fill:#616871" d="M240.43,91.04L240.82,92.10L240.67,92.40L239.85,92.18L239.55,91.90L238.64,91.92L235.50,92.60L234.85,92.84L232.81,93.11L232.82,92.50L234.50,91.93L239.49,90.81L239.66,90.68z"/><path style="fill:#616871" d="M143.48,114.45L142.86,114.80L142.02,114.93L136.96,116.28L136.42,117.34L135.49,117.32L136.34,115.66L138.81,114.82L143.37,113.60z"/><path style="fill:#616871" d="M193.87,154.92L193.57,155.20L191.91,155.63L191.42,155.51L191.55,154.89L193.44,154.21L193.77,154.23z"/><path style="fill:#616871" d="M149.54,162.27L150.50,161.98L150.63,162.68L150.55,162.93L149.61,162.79z"/><path style="fill:#616871" d="M151.69,165.17L150.56,165.39L149.44,165.98L149.26,165.88L149.36,165.10L150.66,164.44L151.59,164.43z"/><path style="fill:#616871" d="M214.83,170.89L214.08,171.08L212.62,171.75L212.42,171.68L212.53,170.61L213.24,170.23L214.74,170.25z"/><path style="fill:#616871" d="M170.04,180.83L171.93,180.13L172.26,180.16L172.34,180.82L171.78,181.12L170.36,181.73L170.02,181.54z"/><path style="fill:#616871" d="M154.59,199.48L157.29,199.48L253.60,176.39L254.28,176.02L254.18,176.39L253.27,177.15L241.02,180.01L178.69,194.91L160.22,199.32L156.09,200.27L155.25,200.27L154.03,200.05L153.61,199.69L154.09,199.19z"/><path style="fill:#00e3e5" d="M172.22,25.46L172.60,25.11L173.74,25.15L173.79,28.14L173.55,28.52L171.24,28.48L172.28,28.32z"/><path style="fill:#00e3e5" d="M78.59,47.78L78.67,51.03L78.07,51.38L76.94,51.24L77.13,50.95L77.35,48.09L77.63,47.50z"/><path style="fill:#00e3e5" d="M200.82,48.52L200.83,50.21L200.69,50.70L199.67,51.09L198.82,51.03L199.26,50.63L199.63,47.43L200.76,47.50z"/><path style="fill:#00e3e5" d="M104.04,70.43L105.55,70.03L105.68,70.31L105.52,73.53L105.20,73.76L103.95,73.85L103.91,73.65L104.18,73.27z"/><path style="fill:#00e3e5" d="M132.70,92.66L132.70,95.42L131.93,96.08L130.46,96.07L130.89,95.87L131.08,92.75L132.58,92.39z"/><path style="fill:#ffffff" d="M104.81,84.89L103.67,84.89L104.50,84.58L104.81,84.72z"/><path style="fill:#ffffff" d="M153.33,165.39L154.09,165.79L153.07,166.36L150.28,166.35L149.44,165.98L150.56,165.39L151.58,165.36L151.69,165.17z"/><path style="fill:#ffffff" d="M217.06,171.33L217.02,171.72L215.67,172.15L213.97,172.15L212.62,171.75L214.08,171.08L214.83,170.89z"/><path style="fill:#ffffff" d="M175.01,181.54L174.27,182.05L173.46,182.23L171.43,182.11L170.36,181.73L171.78,181.12L173.75,181.10z"/><path style="fill:#00001c" d="M199.63,47.43L198.80,47.25L199.39,47.09z"/><path style="fill:#000020" d="M170.91,27.03L170.76,25.08L170.87,25.19z"/><path style="fill:#000020" d="M173.79,28.14L173.74,25.15L173.95,25.08z"/><path style="fill:#000020" d="M137.54,32.27L137.39,21.78L137.51,21.88z"/><path style="fill:#000020" d="M170.70,33.32L170.37,33.10L170.50,32.26z"/><path style="fill:#000020" d="M174.02,39.42L172.89,39.73L173.99,39.30z"/><path style="fill:#000020" d="M172.89,39.73L172.76,39.89L171.95,39.81L171.75,39.68L172.34,39.49z"/><path style="fill:#000020" d="M46.52,40.74L46.32,39.71L46.51,39.82z"/><path style="fill:#000020" d="M39.10,41.10L39.08,36.84L39.22,36.66L39.35,36.79z"/><path style="fill:#000020" d="M200.83,50.21L200.82,48.52L200.93,48.63z"/><path style="fill:#000020" d="M197.94,50.47L197.72,47.48L197.87,47.53z"/><path style="fill:#000020" d="M75.75,50.77L75.62,47.70L75.74,47.80z"/><path style="fill:#000020" d="M78.67,51.03L78.59,47.78L78.81,47.71z"/><path style="fill:#000020" d="M199.54,51.22L198.82,51.03L199.67,51.09z"/><path style="fill:#000020" d="M76.35,51.39L76.94,51.24L78.07,51.38z"/><path style="fill:#000020" d="M137.82,53.51L137.67,42.74L137.78,42.84z"/><path style="fill:#000020" d="M66.24,57.06L65.95,57.35L65.84,57.08L65.99,56.52z"/><path style="fill:#000020" d="M200.21,62.07L199.78,62.26L199.67,61.76z"/><path style="fill:#000020" d="M199.27,62.24L198.76,62.07L199.38,61.84z"/><path style="fill:#000020" d="M39.37,62.61L39.22,51.84L39.33,51.94z"/><path style="fill:#000020" d="M228.08,68.94L227.78,69.78L227.78,68.72z"/><path style="fill:#000020" d="M224.69,69.77L224.54,69.04L224.68,68.94z"/><path style="fill:#000020" d="M105.68,70.31L105.55,70.03L105.85,69.50z"/><path style="fill:#000020" d="M224.96,73.08L224.80,72.25L224.93,72.35z"/><path style="fill:#000020" d="M102.78,73.36L102.62,70.32L102.76,70.40z"/><path style="fill:#000020" d="M225.55,73.44L225.84,73.33L226.98,73.43z"/><path style="fill:#000020" d="M138.10,74.47L137.95,63.97L138.06,64.07z"/><path style="fill:#000020" d="M167.30,83.76L167.14,82.73L167.30,82.82z"/><path style="fill:#000020" d="M39.65,83.84L39.50,73.07L39.61,73.17z"/><path style="fill:#000020" d="M227.17,84.49L226.18,84.39L226.64,84.05z"/><path style="fill:#000020" d="M104.81,84.89L104.81,84.72L105.55,84.75z"/><path style="fill:#000020" d="M132.70,92.66L132.58,92.39L132.72,91.53L132.85,91.63z"/><path style="fill:#000020" d="M129.55,92.67L129.40,91.63L129.54,91.53z"/><path style="fill:#000020" d="M240.97,92.92L240.67,92.40L240.82,92.10L240.95,92.20z"/><path style="fill:#000020" d="M241.23,94.59L241.08,93.77L241.21,93.86z"/><path style="fill:#000020" d="M241.79,97.61L241.62,96.80L241.75,96.90z"/><path style="fill:#000020" d="M124.21,97.53L124.15,97.35L124.93,97.42z"/><path style="fill:#000020" d="M239.27,98.10L239.09,97.06L239.28,97.17z"/><path style="fill:#000020" d="M242.06,99.27L241.91,98.46L242.03,98.55z"/><path style="fill:#000020" d="M242.34,100.92L242.18,100.11L242.31,100.20z"/><path style="fill:#000020" d="M242.61,102.57L242.46,101.77L242.58,101.86z"/><path style="fill:#000020" d="M242.89,103.95L242.73,103.15L242.86,103.24z"/><path style="fill:#000020" d="M39.92,105.35L39.77,94.58L39.88,94.68z"/><path style="fill:#000020" d="M243.17,105.61L243.01,104.80L243.14,104.89z"/><path style="fill:#000020" d="M243.44,107.26L243.29,106.45L243.41,106.55z"/><path style="fill:#000020" d="M243.71,108.93L243.56,108.11L243.69,108.20z"/><path style="fill:#000020" d="M244.27,111.95L244.11,111.14L244.23,111.24z"/><path style="fill:#000020" d="M244.54,113.61L244.39,112.80L244.51,112.89z"/><path style="fill:#000020" d="M143.48,114.45L143.37,113.60L143.60,113.41z"/><path style="fill:#000020" d="M244.82,115.28L244.66,114.45L244.79,114.54z"/><path style="fill:#000020" d="M130.35,116.85L130.16,115.83L130.34,115.93z"/><path style="fill:#000020" d="M245.37,118.29L245.21,117.48L245.34,117.58z"/><path style="fill:#000020" d="M207.83,118.24L207.59,117.20L207.73,116.91L207.86,117.00z"/><path style="fill:#000020" d="M245.65,119.95L245.49,119.14L245.62,119.23z"/><path style="fill:#000020" d="M245.92,121.60L245.77,120.79L245.89,120.88z"/><path style="fill:#000020" d="M246.20,123.25L246.04,122.45L246.17,122.54z"/><path style="fill:#000020" d="M246.47,124.64L246.32,123.84L246.45,123.92z"/><path style="fill:#000020" d="M246.75,126.29L246.59,125.48L246.72,125.57z"/><path style="fill:#000020" d="M247.03,127.95L246.87,127.14L247.00,127.23z"/><path style="fill:#000020" d="M247.30,129.62L247.15,128.79L247.27,128.88z"/><path style="fill:#000020" d="M247.85,132.63L247.69,131.82L247.82,131.92z"/><path style="fill:#000020" d="M248.13,134.29L247.97,133.48L248.10,133.57z"/><path style="fill:#000020" d="M248.40,135.96L248.25,135.13L248.38,135.22z"/><path style="fill:#000020" d="M246.18,137.81L245.91,137.07L246.06,136.76L246.20,136.86z"/><path style="fill:#000020" d="M248.96,138.98L248.79,138.16L248.92,138.26z"/><path style="fill:#000020" d="M249.23,140.63L249.08,139.82L249.20,139.91z"/><path style="fill:#000020" d="M249.51,142.29L249.35,141.48L249.48,141.57z"/><path style="fill:#000020" d="M138.36,142.76L138.16,142.03L138.36,142.15z"/><path style="fill:#000020" d="M249.78,143.93L249.63,143.13L249.75,143.22z"/><path style="fill:#000020" d="M250.06,145.32L249.90,144.52L250.03,144.60z"/><path style="fill:#000020" d="M250.34,146.97L250.18,146.16L250.31,146.26z"/><path style="fill:#000020" d="M250.61,148.63L250.46,147.82L250.58,147.91z"/><path style="fill:#000020" d="M250.88,150.30L250.73,149.47L250.86,149.56z"/><path style="fill:#000020" d="M251.44,153.32L251.28,152.50L251.40,152.60z"/><path style="fill:#000020" d="M187.77,153.67L188.63,153.52L189.66,153.70z"/><path style="fill:#000020" d="M251.71,154.97L251.56,154.16L251.68,154.25z"/><path style="fill:#000020" d="M195.26,155.18L193.57,155.20L193.87,154.92z"/><path style="fill:#000020" d="M191.42,155.51L191.91,155.63L191.94,156.00L191.53,155.92z"/><path style="fill:#000020" d="M251.99,156.64L251.83,155.82L251.96,155.91z"/><path style="fill:#000020" d="M252.54,159.66L252.38,158.85L252.51,158.94z"/><path style="fill:#000020" d="M252.82,161.31L252.66,160.50L252.79,160.60z"/><path style="fill:#000020" d="M253.09,162.97L252.94,162.16L253.06,162.25z"/><path style="fill:#000020" d="M150.55,162.93L150.63,162.68L151.60,162.79z"/><path style="fill:#000020" d="M253.37,164.62L253.21,163.81L253.34,163.91z"/><path style="fill:#000020" d="M151.58,165.36L150.56,165.39L151.69,165.17z"/><path style="fill:#000020" d="M253.64,166.00L253.49,165.20L253.62,165.29z"/><path style="fill:#000020" d="M253.94,167.66L253.76,166.85L253.89,166.94z"/><path style="fill:#000020" d="M210.65,168.28L211.52,168.13L212.55,168.32z"/><path style="fill:#000020" d="M154.39,168.87L155.00,168.69L155.74,168.88z"/><path style="fill:#000020" d="M217.53,171.45L217.02,171.72L217.06,171.33z"/><path style="fill:#000020" d="M215.06,174.35L215.95,174.20L216.68,174.39z"/><path style="fill:#000020" d="M254.61,175.14L254.60,173.99L254.72,174.10z"/><path style="fill:#000020" d="M251.68,175.02L250.96,174.90L251.74,174.83z"/><path style="fill:#000020" d="M167.08,178.76L167.97,178.61L168.70,178.81z"/><path style="fill:#000020" d="M173.75,181.10L171.78,181.12L172.34,180.82z"/><path style="fill:#000020" d="M145.24,182.76L144.99,182.01L145.14,181.70L145.27,181.81z"/><path style="fill:#000020" d="M177.00,183.47L177.90,183.30L178.63,183.49z"/><path style="fill:#000020" d="M188.26,190.19L187.53,190.07L188.31,190.00z"/><path style="fill:#000020" d="M155.81,196.83L155.01,196.91L155.04,196.62z"/><path style="fill:#00fdff" d="M173.92,24.09L173.95,25.08L173.74,25.15L172.60,25.11L172.24,24.08L171.91,24.03L171.31,24.40L171.32,24.69L172.60,25.11L172.22,25.46L172.28,28.32L171.24,28.48L171.04,28.32L170.91,27.03L170.87,25.19L170.76,25.08L170.79,24.09L171.32,23.79L173.38,23.79z"/><path style="fill:#00fdff" d="M105.85,69.50L105.55,70.03L104.04,70.43L104.18,73.27L103.91,73.65L103.14,73.71L102.78,73.36L102.76,70.40L102.62,70.32L102.45,69.67L102.69,69.04L103.67,68.88L104.81,68.87L105.57,69.01z"/><path style="fill:#00fdff" d="M225.40,69.06L225.44,69.58L226.58,69.85L226.27,70.14L226.04,73.00L225.84,73.33L225.55,73.44L224.96,73.08L224.93,72.35L224.80,72.25L224.69,69.77L224.68,68.94L225.29,68.57L225.85,68.70z"/><path style="fill:#00fdff" d="M129.55,92.67L129.54,91.53L129.69,91.35L130.71,91.22L131.55,91.22L132.72,91.53L132.58,92.39L131.08,92.75L130.89,95.87L130.46,96.07L130.16,96.05L129.80,95.78z"/><path style="fill:#616871" d="M145.83,10.22L146.11,10.91L145.41,10.64L145.51,9.99z"/><path style="fill:#616871" d="M150.82,14.43L150.76,14.82L150.10,14.81L150.09,14.14L150.48,14.09z"/><path style="fill:#616871" d="M156.30,21.88L155.62,21.97L155.61,21.31L155.96,21.30z"/><path style="fill:#616871" d="M160.99,25.43L160.87,26.04L160.30,26.12L160.40,25.25L160.72,25.16z"/><path style="fill:#616871" d="M169.67,32.09L170.37,31.94L170.50,32.26L170.37,33.10L169.76,32.61z"/><path style="fill:#616871" d="M41.58,35.35L41.47,35.69L40.89,35.77L40.89,35.11L41.29,35.06z"/><path style="fill:#616871" d="M46.26,39.19L46.32,39.71L45.86,39.58L45.98,38.93z"/><path style="fill:#616871" d="M51.76,46.66L51.21,47.08L51.08,46.39L51.48,46.15z"/><path style="fill:#616871" d="M56.76,51.18L56.05,50.91L56.07,50.26L56.40,50.24z"/><path style="fill:#616871" d="M199.67,61.76L199.38,61.84L198.76,62.07L198.06,61.94L198.08,61.34L199.56,61.01z"/><path style="fill:#616871" d="M77.69,62.34L76.94,62.56L76.24,62.45L75.91,62.11L76.20,61.61L77.41,61.34z"/><path style="fill:#616871" d="M167.14,82.73L166.36,82.93L166.47,82.06L166.78,81.96z"/><path style="fill:#616871" d="M207.31,83.42L206.37,83.47L206.37,82.52L206.98,82.52z"/><path style="fill:#616871" d="M167.06,87.99L167.34,88.65L166.75,88.71L166.75,87.75z"/><path style="fill:#616871" d="M146.63,94.23L145.96,94.24L146.04,93.65L146.63,93.57z"/><path style="fill:#616871" d="M239.03,96.55L239.09,97.06L238.33,96.97L238.43,96.42L238.76,96.30z"/><path style="fill:#616871" d="M127.89,98.63L127.19,98.63L127.19,98.26L127.89,98.26z"/><path style="fill:#616871" d="M131.47,106.80L130.82,107.12L130.06,107.11L130.04,106.35L131.17,106.27z"/><path style="fill:#616871" d="M62.81,107.64L62.13,107.74L62.13,107.07L62.48,107.06z"/><path style="fill:#616871" d="M102.60,107.50L102.79,108.29L101.83,108.29L101.89,107.71L102.16,107.34z"/><path style="fill:#616871" d="M62.85,113.15L62.79,113.54L62.13,113.54L62.12,112.87L62.51,112.81z"/><path style="fill:#616871" d="M130.09,115.30L130.16,115.83L129.69,115.70L129.81,115.05z"/><path style="fill:#616871" d="M45.98,116.38L45.41,116.18L45.24,115.86L45.71,115.88z"/><path style="fill:#616871" d="M207.73,116.91L207.59,117.20L206.91,117.12L206.92,116.17L207.28,116.12z"/><path style="fill:#616871" d="M242.58,116.84L241.89,117.08L241.93,116.46L242.33,116.41z"/><path style="fill:#616871" d="M47.08,117.21L46.51,117.02L46.36,116.69L46.81,116.72z"/><path style="fill:#616871" d="M48.19,118.03L47.61,117.84L47.46,117.52L47.91,117.54z"/><path style="fill:#616871" d="M49.29,118.86L48.71,118.67L48.56,118.34L49.01,118.37z"/><path style="fill:#616871" d="M50.74,119.96L50.09,119.77L49.67,119.17L50.09,119.21z"/><path style="fill:#616871" d="M51.76,120.80L50.94,120.31L50.74,119.96L51.21,120.04z"/><path style="fill:#616871" d="M52.87,121.62L52.30,121.43L52.15,121.10L52.60,121.13z"/><path style="fill:#616871" d="M134.80,122.02L134.20,122.07L134.10,121.43L134.49,121.36z"/><path style="fill:#616871" d="M53.98,122.44L53.40,122.26L53.25,121.93L53.70,121.96z"/><path style="fill:#616871" d="M55.08,123.27L54.50,123.08L54.35,122.76L54.80,122.78z"/><path style="fill:#616871" d="M56.18,124.10L55.61,123.91L55.46,123.58L55.91,123.61z"/><path style="fill:#616871" d="M57.29,124.93L56.71,124.74L56.56,124.41L57.01,124.44z"/><path style="fill:#616871" d="M58.39,125.75L57.81,125.56L57.66,125.24L58.11,125.26z"/><path style="fill:#616871" d="M59.54,126.34L59.76,126.86L58.92,126.38L58.77,126.06z"/><path style="fill:#616871" d="M60.87,127.68L60.30,127.50L60.15,127.17L60.60,127.20z"/><path style="fill:#616871" d="M61.97,128.51L61.40,128.32L61.25,128.00L61.70,128.02z"/><path style="fill:#616871" d="M63.08,129.34L62.50,129.15L62.35,128.82L62.80,128.85z"/><path style="fill:#616871" d="M64.18,130.17L63.60,129.98L63.45,129.65L63.90,129.68z"/><path style="fill:#616871" d="M65.28,130.99L64.71,130.80L64.56,130.48L65.01,130.50z"/><path style="fill:#616871" d="M66.39,131.82L65.81,131.63L65.66,131.30L66.11,131.33z"/><path style="fill:#616871" d="M67.50,132.65L66.91,132.46L66.76,132.13L67.21,132.16z"/><path style="fill:#616871" d="M68.87,133.75L68.29,133.56L68.13,133.23L68.59,133.26z"/><path style="fill:#616871" d="M69.97,134.58L69.40,134.39L69.25,134.06L69.70,134.09z"/><path style="fill:#616871" d="M71.07,135.41L70.50,135.22L70.35,134.89L70.80,134.92z"/><path style="fill:#616871" d="M72.18,136.23L71.60,136.04L71.45,135.72L71.90,135.74z"/><path style="fill:#616871" d="M73.28,137.06L72.71,136.87L72.56,136.54L73.01,136.57z"/><path style="fill:#616871" d="M246.06,136.76L245.91,137.07L245.50,136.95L245.52,136.30L245.87,136.25z"/><path style="fill:#616871" d="M74.38,137.89L73.81,137.70L73.66,137.37L74.11,137.40z"/><path style="fill:#616871" d="M75.50,138.72L74.91,138.52L74.76,138.20L75.21,138.23z"/><path style="fill:#616871" d="M77.97,140.65L77.39,140.45L77.23,140.12L77.69,140.15z"/><path style="fill:#616871" d="M103.36,142.17L102.49,142.20L102.50,141.06L102.79,140.98z"/><path style="fill:#616871" d="M79.07,141.47L78.50,141.28L78.35,140.96L78.80,140.98z"/><path style="fill:#616871" d="M138.09,141.50L138.16,142.03L137.40,141.92L137.50,141.37L137.83,141.25z"/><path style="fill:#616871" d="M80.17,142.30L79.60,142.11L79.45,141.78L79.90,141.81z"/><path style="fill:#616871" d="M81.28,143.13L80.70,142.94L80.55,142.61L81.00,142.64z"/><path style="fill:#616871" d="M82.38,143.95L81.81,143.77L81.66,143.44L82.11,143.47z"/><path style="fill:#616871" d="M83.48,144.78L82.91,144.59L82.76,144.27L83.21,144.29z"/><path style="fill:#616871" d="M84.60,145.61L84.01,145.42L83.86,145.09L84.31,145.12z"/><path style="fill:#616871" d="M87.07,147.54L86.49,147.35L86.33,147.02L86.79,147.05z"/><path style="fill:#616871" d="M88.17,148.37L87.60,148.18L87.45,147.85L87.90,147.88z"/><path style="fill:#616871" d="M89.27,149.19L88.70,149.00L88.55,148.68L89.00,148.70z"/><path style="fill:#616871" d="M90.38,150.02L89.80,149.83L89.65,149.51L90.10,149.53z"/><path style="fill:#616871" d="M91.48,150.85L90.91,150.66L90.76,150.33L91.21,150.36z"/><path style="fill:#616871" d="M92.60,151.68L92.01,151.49L91.86,151.16L92.31,151.19z"/><path style="fill:#616871" d="M188.63,153.52L187.77,153.67L187.67,153.26L188.56,152.89z"/><path style="fill:#616871" d="M96.17,154.43L95.60,154.24L95.43,153.91L95.90,153.94z"/><path style="fill:#616871" d="M97.27,155.26L96.70,155.07L96.55,154.75L97.00,154.77z"/><path style="fill:#616871" d="M98.37,156.09L97.80,155.90L97.65,155.57L98.10,155.60z"/><path style="fill:#616871" d="M249.54,156.44L249.49,156.84L248.82,156.83L248.81,156.16L249.21,156.11z"/><path style="fill:#616871" d="M99.48,156.92L98.90,156.73L98.75,156.40L99.20,156.43z"/><path style="fill:#616871" d="M100.58,157.74L100.01,157.55L99.86,157.23L100.31,157.25z"/><path style="fill:#616871" d="M198.77,158.37L197.50,158.46L197.52,157.84L198.46,157.83z"/><path style="fill:#616871" d="M101.70,158.57L101.11,158.38L100.96,158.05L101.41,158.08z"/><path style="fill:#616871" d="M105.27,161.33L104.70,161.14L104.53,160.81L105.00,160.84z"/><path style="fill:#616871" d="M141.63,161.80L140.97,162.05L141.02,161.10L141.35,161.11z"/><path style="fill:#616871" d="M106.37,162.15L105.80,161.97L105.65,161.64L106.10,161.67z"/><path style="fill:#616871" d="M107.48,162.98L106.90,162.79L106.75,162.47L107.20,162.49z"/><path style="fill:#616871" d="M108.58,163.81L108.00,163.62L107.85,163.29L108.30,163.32z"/><path style="fill:#616871" d="M109.70,164.64L109.11,164.45L108.96,164.12L109.41,164.15z"/><path style="fill:#616871" d="M114.37,168.22L113.80,168.03L113.63,167.70L114.10,167.73z"/><path style="fill:#616871" d="M211.52,168.13L210.65,168.28L210.47,167.79L211.46,167.51z"/><path style="fill:#616871" d="M155.00,168.69L154.39,168.87L153.92,168.65L153.94,168.34L154.54,167.97L154.89,168.03z"/><path style="fill:#616871" d="M115.47,169.05L114.90,168.86L114.75,168.53L115.20,168.56z"/><path style="fill:#616871" d="M116.58,169.88L116.00,169.69L115.85,169.36L116.30,169.39z"/><path style="fill:#616871" d="M252.42,169.72L253.26,168.58L253.93,168.49L253.82,169.43L252.88,170.46L252.48,170.22z"/><path style="fill:#616871" d="M117.69,170.71L117.10,170.51L116.95,170.19L117.40,170.21z"/><path style="fill:#616871" d="M251.55,174.20L251.13,174.08L250.32,174.27L250.15,173.83L250.45,173.52L251.41,173.55z"/><path style="fill:#616871" d="M215.95,174.20L215.06,174.35L214.88,173.85L215.48,173.49L215.83,173.54z"/><path style="fill:#616871" d="M123.47,175.12L122.90,174.92L122.73,174.60L123.20,174.62z"/><path style="fill:#616871" d="M124.57,175.94L124.00,175.75L123.85,175.43L124.30,175.45z"/><path style="fill:#616871" d="M125.68,176.77L125.10,176.58L124.95,176.25L125.40,176.28z"/><path style="fill:#616871" d="M126.79,177.60L126.20,177.41L126.05,177.08L126.50,177.11z"/><path style="fill:#616871" d="M167.97,178.61L167.08,178.76L166.89,178.26L167.50,177.90L167.85,177.96z"/><path style="fill:#616871" d="M219.41,181.28L219.57,181.93L218.50,181.82L218.35,182.22L218.19,181.56L218.89,180.98z"/><path style="fill:#616871" d="M132.57,182.01L132.00,181.82L131.83,181.49L132.30,181.52z"/><path style="fill:#616871" d="M145.14,181.70L144.99,182.01L144.30,181.91L144.39,181.35L144.96,181.22z"/><path style="fill:#616871" d="M133.67,182.84L133.10,182.65L132.95,182.32L133.40,182.35z"/><path style="fill:#616871" d="M177.90,183.30L177.00,183.47L176.54,183.18L177.43,182.60L177.77,182.64z"/><path style="fill:#616871" d="M134.79,183.67L134.20,183.47L134.05,183.15L134.50,183.17z"/><path style="fill:#616871" d="M141.67,188.90L141.10,188.71L140.93,188.38L141.40,188.41z"/><path style="fill:#616871" d="M188.13,189.36L187.70,189.25L186.90,189.43L186.72,189.00L187.03,188.68L187.98,188.72z"/><path style="fill:#616871" d="M142.77,189.73L142.20,189.54L142.05,189.22L142.50,189.24z"/><path style="fill:#616871" d="M143.89,190.56L143.30,190.37L143.15,190.04L143.60,190.07z"/><path style="fill:#616871" d="M149.94,193.94L150.48,194.24L150.54,194.95L149.35,194.80L148.66,194.18L148.97,193.39L149.66,193.15z"/><path style="fill:#616871" d="M156.03,196.42L156.08,196.86L155.81,196.83L155.04,196.62L155.32,196.11L155.74,196.11z"/><path style="fill:#00e3e5" d="M172.60,25.11L171.32,24.69L171.31,24.40L171.91,24.03L172.24,24.08z"/><path style="fill:#00e3e5" d="M76.68,46.54L77.20,46.36L77.12,47.64L76.26,47.52L76.20,47.00L76.82,46.68z"/><path style="fill:#00e3e5" d="M199.39,47.09L198.80,47.25L198.31,47.04L198.33,46.73L198.94,46.36L199.29,46.41z"/><path style="fill:#00e3e5" d="M226.82,69.62L227.78,69.78L227.72,73.01L226.98,73.43L225.84,73.33L226.04,73.00L226.27,70.14L226.58,69.85L225.44,69.58L225.40,69.06L225.85,68.70L226.13,68.61z"/><path style="fill:#00e3e5" d="M104.18,69.95L103.20,69.95L103.20,69.31L104.18,69.31z"/><path style="fill:#00e3e5" d="M131.20,92.28L130.23,92.28L130.23,91.65L131.20,91.65z"/><path style="fill:#6c737e" d="M140.84,16.59L140.85,17.57L140.45,18.03L139.63,18.13L139.52,17.75L140.23,17.22L140.31,16.52L140.60,16.33z"/><path style="fill:#6c737e" d="M141.14,36.73L141.14,37.42L140.47,38.19L139.71,38.18L139.59,37.78L140.46,37.32L140.66,36.48z"/><path style="fill:#6c737e" d="M141.42,56.87L141.41,57.55L140.75,58.32L139.98,58.31L139.87,57.91L140.74,57.45L140.91,56.58z"/><path style="fill:#6c737e" d="M141.70,77.00L141.68,77.68L141.29,78.13L140.18,78.24L140.11,78.03L141.13,77.41L141.19,76.71z"/><path style="fill:#ffffff" d="M140.23,17.22L139.52,17.75L139.30,16.90L139.61,16.60L140.31,16.52z"/><path style="fill:#ffffff" d="M140.46,37.32L139.59,37.78L139.72,36.86L140.66,36.48z"/><path style="fill:#ffffff" d="M140.74,57.45L139.87,57.91L139.99,56.99L140.45,56.58L140.91,56.58z"/><path style="fill:#ffffff" d="M77.68,62.51L76.94,62.56L77.69,62.34z"/><path style="fill:#ffffff" d="M141.13,77.41L140.11,78.03L140.27,77.12L140.73,76.71L141.19,76.71z"/><path style="fill:#ffffff" d="M196.25,155.63L196.20,155.89L195.07,156.18L192.66,156.20L191.94,156.00L191.91,155.63L193.57,155.20L195.26,155.18z"/><path style="fill:#ffffff" d="M251.55,174.20L251.74,174.83L250.96,174.90L250.32,174.27L251.13,174.08z"/><path style="fill:#ffffff" d="M219.57,181.93L219.72,182.47L218.54,182.40L218.35,182.22L218.50,181.82z"/><path style="fill:#ffffff" d="M188.13,189.36L188.31,190.00L187.53,190.07L186.90,189.43L187.70,189.25z"/><path style="fill:#ffffff" d="M156.34,197.30L156.28,197.65L155.40,197.59L155.04,197.35L155.01,196.91L155.81,196.83L156.08,196.86z"/><g id="Actor_.0"><g style="stroke:#000000;stroke-width:0.176"><path d="M51.59,43.99 C51.34,43.71 51.34,43.71 51.10,43.41 C46.91,37.04 46.97,36.99 42.73,30.66 C41.72,29.72 41.70,29.70 40.60,28.85 "/><path d="M40.23,108.02 L39.30,36.55 "/><path d="M39.16,41.23 L39.24,46.79 "/><path d="M39.13,38.80 L39.12,37.69 L39.16,41.09 "/><path d="M39.10,36.82 L39.12,37.69 L39.11,37.09 L39.31,37.35 "/><path d="M52.41,43.79 L51.59,43.99 "/><path d="M40.60,28.85 L39.77,28.69 "/><path d="M41.09,36.39 L40.94,34.75 L41.52,35.14 L41.75,36.09 L41.40,36.69 L41.09,36.39 "/><path d="M40.60,28.85 L41.42,28.66 "/><path d="M42.97,30.99 L43.79,30.79 "/><path d="M42.48,30.41 L43.30,30.22 "/><path d="M253.97,168.28 L253.15,168.42 L252.23,169.57 L252.62,170.05 L251.31,170.56 L151.03,194.52 L149.64,193.20 L148.72,193.31 L43.72,113.77 "/><path d="M45.69,39.77 L46.06,38.76 L46.57,39.95 L46.38,40.70 L45.69,39.77 "/><path d="M46.09,116.26 L45.93,116.15 "/><path d="M51.10,47.03 L51.65,47.93 L51.98,47.16 L51.46,45.98 L51.09,46.14 L51.10,47.03 "/><path d="M51.10,43.41 L51.92,43.22 "/><path d="M65.34,54.72 L64.53,54.92 L51.59,43.99 "/><path d="M55.97,51.14 L56.30,49.99 L56.74,51.83 L55.97,51.14 "/><path d="M62.32,114.27 L62.65,114.60 L62.99,114.26 L62.35,112.52 L62.02,113.31 L62.32,114.27 "/><path d="M62.78,107.36 L62.08,106.77 L62.01,107.85 L62.57,108.79 L62.91,107.95 "/><path d="M62.99,113.75 L62.85,113.17 "/><path d="M64.53,54.92 L65.29,58.82 "/><path d="M64.31,54.54 L65.11,54.35 "/><path d="M67.02,56.68 L137.08,114.82 L135.93,115.96 L135.52,117.20 L65.20,58.84 "/><path d="M65.99,57.27 L65.27,58.90 "/><path d="M65.18,57.10 L66.00,56.91 "/><path d="M65.11,56.70 L65.93,56.50 "/><path d="M76.02,61.63 L75.95,62.14 L76.02,61.63 L77.47,61.08 L77.48,61.91 "/><path d="M76.03,62.16 L76.21,62.21 "/><path d="M77.47,61.08 L78.82,61.44 L78.60,62.21 "/><path d="M102.69,142.94 L102.32,141.40 L102.66,140.82 L103.51,142.58 L103.25,143.32 L102.69,142.94 "/><path d="M102.63,109.61 L101.88,108.06 L102.22,107.10 L103.05,109.03 L102.63,109.61 "/><path d="M102.70,107.51 L103.05,109.03 "/><path d="M103.14,141.23 L103.50,142.73 "/><path d="M102.99,84.53 L102.98,83.79 L103.17,84.58 "/><path d="M102.98,83.79 L104.42,83.45 L104.44,84.28 "/><path d="M104.42,83.45 L105.80,83.82 L105.55,84.58 "/><path d="M124.37,97.42 L143.40,113.22 L137.27,114.98 L137.29,115.81 L136.34,117.01 L135.52,117.20 L148.72,193.31 L149.50,194.61 "/><path d="M127.43,98.58 L127.08,98.36 L127.33,97.96 L129.03,98.04 L128.70,98.55 L127.43,98.58 "/><path d="M129.73,116.41 L130.22,116.79 L130.43,116.20 L130.20,115.24 L129.62,114.85 L129.73,116.41 "/><path d="M129.93,106.17 L129.94,106.90 L129.93,106.17 L131.37,105.82 L132.51,106.12 L132.69,106.91 L131.37,107.22 L129.94,106.90 "/><path d="M132.51,106.95 L131.37,106.66 L130.12,106.95 "/><path d="M131.37,106.66 L131.37,105.82 "/><path d="M134.41,122.87 L134.11,121.03 L134.88,122.05 L134.74,122.93 L134.41,122.87 "/><path d="M148.73,193.42 L149.55,193.18 L136.34,117.01 "/><path d="M137.87,142.83 L138.33,142.66 L138.34,142.01 L137.56,140.99 L137.87,142.83 "/><path d="M137.29,115.81 L143.14,114.41 L143.46,113.38 "/><path d="M139.20,81.47 L138.66,79.97 L137.82,16.05 L138.79,13.70 L140.50,12.64 L140.08,12.28 "/><path d="M137.82,16.05 L137.39,15.69 "/><path d="M138.66,79.97 L138.23,79.61 "/><path d="M140.42,16.13 L140.93,16.82 L140.70,17.51 L139.88,17.99 L139.20,17.63 "/><path d="M141.20,76.37 L141.72,77.07 L141.49,77.75 L140.67,78.24 L139.99,77.88 "/><path d="M139.73,57.80 L140.50,58.13 L141.23,57.67 L141.43,56.77 L140.94,56.29 "/><path d="M139.47,37.71 L140.45,38.00 L140.96,37.59 L141.17,36.68 L140.68,36.21 "/><path d="M141.48,162.90 L141.81,162.07 L141.31,160.95 L140.89,161.67 L141.48,162.90 "/><path d="M140.50,12.64 L142.60,12.16 L143.73,12.39 L144.66,83.07 "/><path d="M143.19,81.66 L142.28,12.21 L141.85,11.86 "/><path d="M143.14,114.41 L143.14,113.58 "/><path d="M143.73,12.39 L143.73,11.85 "/><path d="M144.79,182.76 L145.25,182.61 L145.26,181.94 L144.48,180.92 L144.79,182.76 "/><path d="M156.35,18.27 L155.53,18.46 L147.16,5.71 L145.07,3.94 L144.20,3.74 "/><path d="M145.03,3.90 L145.85,3.70 "/><path d="M144.99,3.57 L145.02,3.54 "/><path d="M145.85,93.61 L147.74,93.59 L146.66,94.18 L145.85,93.61 "/><path d="M145.59,11.54 L145.90,11.75 L146.17,11.13 L145.43,9.75 L145.59,11.54 "/><path d="M146.91,5.46 L147.72,5.26 "/><path d="M240.77,92.06 L239.95,92.25 L239.05,91.51 L239.88,92.20 L240.18,93.59 L253.14,168.35 L148.15,88.81 "/><path d="M147.40,6.03 L148.22,5.84 "/><path d="M150.55,194.71 L150.53,194.02 L149.55,193.18 "/><path d="M149.28,165.75 L149.54,164.67 L151.88,164.11 L154.17,164.58 L154.38,165.59 "/><path d="M149.90,162.75 L149.36,162.37 L149.54,162.07 L150.66,161.78 L151.74,161.99 L151.93,162.32 L151.41,162.70 "/><path d="M149.17,91.50 L252.23,169.57 L150.53,193.87 "/><path d="M150.59,15.72 L150.06,14.37 L150.47,13.80 L151.00,15.00 L150.59,15.72 "/><path d="M156.44,199.97 L156.64,199.43 L154.80,199.35 L153.19,198.39 L151.03,194.52 L150.82,195.06 "/><path d="M152.67,197.68 L152.46,198.22 "/><path d="M155.93,168.68 L156.42,168.13 L155.18,167.76 L154.09,168.02 L153.87,168.36 L154.41,168.73 "/><path d="M156.52,197.40 L156.61,196.52 L156.12,196.10 L155.17,196.04 L154.74,196.71 "/><path d="M155.99,22.94 L156.38,22.04 L155.67,20.99 L155.47,21.68 L155.99,22.94 "/><path d="M169.55,29.39 L168.73,29.59 L155.53,18.46 "/><path d="M156.02,19.04 L156.84,18.84 "/><path d="M156.64,199.43 L252.89,176.43 L252.68,176.97 "/><path d="M160.83,26.95 L160.30,25.60 L160.72,25.04 L161.25,26.25 L160.83,26.95 "/><path d="M233.12,92.91 L238.98,91.51 L238.97,90.68 L233.11,92.08 L233.12,92.91 L232.41,92.87 L162.61,34.97 L162.59,33.90 L168.72,32.38 L238.97,90.68 L240.41,91.08 "/><path d="M162.61,34.97 L162.53,33.98 "/><path d="M233.11,92.08 L231.89,91.65 L162.60,34.14 "/><path d="M167.32,178.66 L166.78,178.31 L167.00,177.95 L168.08,177.69 L169.16,177.91 L169.35,178.24 L168.83,178.61 "/><path d="M167.42,88.79 L167.15,89.65 L166.55,88.87 L166.66,87.57 L167.28,88.21 "/><path d="M167.20,82.41 L166.52,81.83 L166.48,83.07 L167.07,83.85 L167.34,82.99 "/><path d="M168.72,32.38 L169.61,32.43 L170.35,31.55 "/><path d="M169.53,31.74 L168.73,29.59 "/><path d="M168.95,29.97 L169.77,29.77 "/><path d="M175.23,181.39 L175.02,180.37 L172.72,179.91 L170.39,180.47 L170.13,181.54 "/><path d="M169.60,32.15 L170.42,31.96 "/><path d="M170.44,33.00 L169.61,32.43 "/><path d="M171.17,38.80 L172.49,38.37 L174.00,38.71 L173.92,39.43 L172.48,39.77 L171.35,39.47 L171.17,38.80 L171.19,39.42 "/><path d="M171.35,39.47 L172.49,39.20 L172.63,38.34 "/><path d="M173.75,39.47 L172.64,39.17 "/><path d="M178.65,183.34 L179.14,182.79 L177.91,182.42 L176.82,182.68 L176.60,183.01 L177.14,183.38 "/><path d="M186.78,189.08 L187.21,188.39 L188.16,188.44 L188.76,189.13 L188.56,189.75 "/><path d="M188.07,153.62 L187.53,153.25 L187.73,152.93 L188.83,152.66 L189.91,152.87 L190.10,153.20 L189.58,153.58 "/><path d="M196.64,155.49 L196.48,154.52 L194.19,154.02 L191.91,154.52 L191.42,154.92 L191.54,155.65 "/><path d="M199.40,158.30 L199.90,157.95 L199.73,157.60 L198.76,157.38 L197.56,157.64 L197.35,157.98 L197.87,158.34 "/><path d="M198.07,61.63 L199.44,62.14 L200.84,61.81 L200.96,61.09 L199.58,60.71 L198.13,61.06 L198.07,61.63 "/><path d="M198.14,61.79 L198.13,61.06 "/><path d="M198.32,61.84 L199.59,61.54 L199.58,60.71 "/><path d="M199.59,61.54 L200.71,61.84 "/><path d="M207.57,116.28 L207.00,115.88 L206.78,117.04 L207.59,118.39 L207.93,117.81 "/><path d="M207.49,84.06 L207.15,84.67 L206.43,83.73 L206.55,82.17 L207.13,82.56 "/><path d="M212.45,168.19 L212.94,167.64 L211.71,167.27 L210.42,167.77 L210.94,168.24 "/><path d="M217.49,171.29 L217.28,170.28 L214.99,169.81 L212.65,170.37 L212.39,171.44 "/><path d="M216.82,174.22 L217.34,173.84 L217.15,173.51 L216.08,173.30 L214.99,173.56 L214.77,173.89 L215.31,174.26 "/><path d="M219.91,182.26 L220.04,181.47 L219.52,180.95 L218.56,180.90 L218.13,181.58 "/><path d="M225.09,83.43 L226.53,83.08 L227.91,83.45 L227.84,84.17 L226.29,84.49 L225.01,84.14 L225.09,83.43 L225.10,84.17 "/><path d="M225.28,84.21 L226.54,83.91 L227.66,84.21 "/><path d="M226.54,83.91 L226.53,83.08 "/><path d="M232.29,92.81 L232.28,91.98 "/><path d="M238.61,97.58 L238.38,96.63 L238.80,96.07 L239.33,97.56 L238.91,97.98 L238.61,97.58 "/><path d="M239.05,91.51 L238.98,91.51 "/><path d="M241.86,116.41 L242.07,117.55 L242.67,117.90 L242.50,116.30 L241.86,116.41 "/><path d="M245.35,136.96 L246.14,137.86 L246.09,136.52 L245.51,135.96 L245.35,136.96 "/><path d="M249.02,157.53 L248.77,156.52 L249.18,155.96 L249.71,157.46 L249.57,157.86 L249.02,157.53 "/><path d="M250.17,173.93 L250.60,173.24 L251.55,173.29 L252.15,173.99 L251.95,174.60 "/><path d="M252.89,176.43 L254.58,174.91 "/><path d="M253.96,168.16 L253.15,168.42 "/></g><g style="stroke:#000000;stroke-width:0.529"><path d="M145.41,3.47 C146.85,4.58 146.88,4.61 148.22,5.84 C152.47,12.16 152.23,12.38 156.59,18.59 C162.88,24.14 162.96,24.20 169.55,29.39 "/><path d="M148.72,194.02 C97.30,155.13 97.29,155.13 45.93,116.15 C44.79,115.00 44.79,114.99 43.72,113.77 C41.86,110.69 41.85,110.68 40.06,107.56 "/><path d="M41.12,28.50 C42.50,29.59 42.53,29.61 43.81,30.82 C48.04,37.13 47.82,37.35 52.16,43.55 C58.46,49.09 58.53,49.16 65.12,54.35 "/><path d="M132.48,95.48 L149.36,91.17 L144.10,82.31 L143.19,81.66 L139.81,81.94 L138.37,80.44 L138.22,78.91 L137.40,15.98 L137.89,13.95 L139.24,12.61 L143.67,11.83 L143.70,4.69 L144.20,3.74 L145.41,3.47 "/><path d="M169.55,29.39 L170.44,33.00 L240.41,91.08 L253.96,168.16 L253.66,169.32 L252.73,170.22 L254.62,174.15 L254.05,176.13 L252.45,177.03 L156.50,199.96 L153.72,199.51 L152.46,198.22 L150.69,194.86 L148.72,194.02 "/><path d="M40.06,107.56 L39.16,41.23 "/><path d="M39.16,41.20 L39.27,29.67 L39.77,28.69 L41.12,28.50 "/><path d="M65.12,54.35 L66.00,57.26 L67.02,56.68 L73.60,55.32 L124.37,97.42 "/><path d="M62.78,107.36 L62.91,107.95 L62.78,107.36 "/><path d="M76.53,62.30 L76.21,62.21 L77.48,61.91 L78.60,62.21 L76.53,62.30 "/><path d="M103.17,84.58 L104.44,84.28 L105.55,84.58 L104.28,84.88 L103.17,84.58 "/><path d="M130.65,95.92 L124.37,97.42 "/><path d="M139.19,17.61 L139.45,16.44 L140.31,16.09 L140.29,17.12 L139.19,17.61 "/><path d="M139.97,77.85 L141.06,77.40 L141.26,76.49 L140.24,76.69 L139.97,77.85 "/><path d="M139.98,57.80 L139.77,56.88 L140.83,56.26 L140.80,57.32 L139.98,57.80 "/><path d="M139.45,37.69 L140.50,37.27 L140.74,36.33 L139.71,36.53 L139.45,37.69 "/><path d="M149.64,165.97 L149.30,165.76 L149.57,165.51 L151.00,165.03 L154.21,165.43 L153.84,165.97 L152.24,166.35 L149.64,165.97 "/><path d="M150.78,162.82 L150.01,162.78 L151.41,162.70 L150.78,162.82 "/><path d="M155.35,197.50 L154.79,196.95 L154.97,196.58 L155.92,196.64 L156.52,197.40 L155.35,197.50 "/><path d="M154.93,168.81 L154.53,168.76 L155.93,168.68 L154.93,168.81 "/><path d="M167.32,178.66 L168.83,178.61 L167.32,178.66 "/><path d="M167.37,88.50 L167.28,88.21 L167.37,88.50 "/><path d="M167.29,82.70 L167.20,82.41 L167.29,82.70 "/><path d="M170.15,181.55 L172.18,182.16 L175.15,181.47 L172.75,180.75 L170.15,181.55 "/><path d="M178.08,183.46 L177.25,183.42 L178.65,183.34 L178.08,183.46 "/><path d="M186.93,189.46 L187.54,189.92 L188.47,189.84 L187.64,188.88 L187.01,188.93 L186.93,189.46 "/><path d="M188.47,153.69 L188.07,153.63 L189.58,153.58 L188.47,153.69 "/><path d="M191.91,155.88 L191.56,155.66 L192.23,155.23 L194.16,154.86 L196.64,155.49 L194.63,156.23 L191.91,155.88 "/><path d="M198.00,158.38 L199.23,158.36 L198.00,158.38 "/><path d="M207.81,117.55 L207.57,116.28 L207.81,117.55 "/><path d="M207.48,83.70 L207.49,84.06 L207.12,82.72 L207.48,83.70 "/><path d="M210.94,168.24 L212.45,168.19 L210.94,168.24 "/><path d="M212.47,171.40 L214.44,172.06 L217.46,171.34 L215.01,170.65 L212.47,171.40 "/><path d="M215.42,174.30 L216.82,174.22 L215.42,174.30 "/><path d="M218.13,181.58 L219.31,181.49 L219.91,182.26 L218.90,182.42 L218.13,181.58 "/><path d="M250.93,174.77 L251.86,174.69 L251.84,174.26 L250.40,173.78 L250.22,174.15 L250.93,174.77 "/></g></g><g id="Actor_.1"><g style="stroke:#000000;stroke-width:0.176"><path d="M75.91,50.50 C76.07,50.69 76.07,50.69 76.22,50.89 C76.28,50.94 76.28,50.94 76.35,50.99 C76.42,51.03 76.42,51.03 76.50,51.06 "/><path d="M77.65,51.07 C77.71,51.08 77.71,51.08 77.76,51.09 C77.82,51.09 77.82,51.09 77.88,51.08 C77.92,51.07 77.92,51.07 77.96,51.06 C78.01,51.03 78.01,51.03 78.06,51.01 C78.13,50.96 78.13,50.96 78.19,50.90 C78.25,50.84 78.25,50.84 78.31,50.78 "/><path d="M75.83,50.36 L75.91,50.50 "/><path d="M76.50,51.06 L76.64,51.08 L76.74,51.06 L76.98,50.92 L77.18,50.72 L77.39,50.93 L77.65,51.07 "/><path d="M78.31,50.78 L78.51,50.52 L78.59,50.38 L78.62,50.60 L78.63,50.61 "/><path d="M77.18,50.72 L77.14,47.98 L77.13,47.98 L77.13,47.83 L75.60,47.42 "/><path d="M76.16,46.75 L76.17,47.31 L76.10,47.29 L76.16,46.75 L77.26,46.49 L78.31,46.77 L78.25,47.31 L77.15,47.58 L76.17,47.31 "/><path d="M77.13,47.98 L75.79,47.62 "/><path d="M77.14,47.98 L78.56,47.64 L78.59,50.38 "/><path d="M77.13,47.83 L78.74,47.44 L78.82,46.65 "/><path d="M77.26,46.49 L77.27,47.55 "/><path d="M78.74,47.44 L78.74,47.59 "/><path d="M78.64,47.62 L78.56,47.64 "/></g><g style="stroke:#000000;stroke-width:0.529"><path d="M78.55,50.78 C78.46,50.87 78.45,50.87 78.35,50.96 C78.20,51.03 78.20,51.03 78.04,51.10 C77.84,51.15 77.84,51.15 77.64,51.19 C77.42,51.21 77.42,51.21 77.20,51.22 C76.98,51.20 76.98,51.20 76.76,51.18 C76.57,51.14 76.57,51.14 76.38,51.08 C76.23,51.02 76.23,51.01 76.09,50.94 "/><path d="M78.64,47.62 L78.66,49.68 L78.65,50.26 L78.63,50.61 L78.55,50.78 "/><path d="M76.09,50.94 L75.93,50.76 L75.85,50.58 L75.83,50.36 L75.79,47.62 L75.60,47.57 L75.60,47.42 L75.68,46.62 L77.28,46.24 L78.82,46.65 L78.82,46.79 L78.74,47.59 L78.64,47.62 "/></g></g><g id="Actor_.2"><g style="stroke:#000000;stroke-width:0.176"><path d="M197.94,49.99 C198.04,50.15 198.04,50.15 198.14,50.30 C198.26,50.44 198.26,50.44 198.39,50.57 C198.44,50.61 198.44,50.61 198.50,50.65 C198.55,50.67 198.55,50.67 198.61,50.70 C198.65,50.71 198.65,50.71 198.68,50.71 C198.73,50.71 198.73,50.71 198.78,50.71 C198.84,50.69 198.84,50.69 198.91,50.68 C198.96,50.65 198.96,50.65 199.02,50.61 C199.11,50.53 199.11,50.53 199.20,50.45 C199.25,50.40 199.25,50.40 199.29,50.35 "/><path d="M199.83,50.72 C199.91,50.72 199.91,50.72 199.99,50.71 C200.05,50.70 200.05,50.70 200.10,50.68 C200.17,50.64 200.17,50.64 200.23,50.60 C200.29,50.55 200.29,50.55 200.34,50.50 "/><path d="M199.29,50.35 L199.69,50.68 L199.83,50.72 "/><path d="M200.34,50.50 L200.54,50.27 L200.70,50.01 L200.73,50.25 "/><path d="M200.92,46.28 L200.85,47.07 L199.43,47.41 L199.24,47.46 L197.71,47.05 "/><path d="M198.23,46.79 L198.21,46.93 L198.27,46.94 L198.27,46.38 L198.23,46.79 "/><path d="M199.24,47.46 L199.24,47.61 L197.90,47.25 "/><path d="M198.27,46.94 L199.26,47.21 L200.36,46.95 L200.42,46.40 L199.37,46.12 L198.27,46.38 "/><path d="M199.29,50.35 L199.25,47.61 L200.67,47.27 L200.70,50.01 "/><path d="M199.38,47.18 L199.37,46.12 "/><path d="M199.25,47.61 L199.24,47.61 "/><path d="M200.85,47.07 L200.85,47.23 "/><path d="M200.67,47.27 L200.74,47.25 "/></g><g style="stroke:#000000;stroke-width:0.529"><path d="M200.64,50.44 C200.53,50.53 200.53,50.54 200.42,50.62 C200.25,50.69 200.25,50.69 200.08,50.75 C199.88,50.79 199.88,50.79 199.67,50.83 C199.45,50.84 199.45,50.84 199.23,50.85 C199.01,50.83 199.01,50.83 198.80,50.80 C198.61,50.75 198.61,50.75 198.43,50.70 C198.30,50.62 198.29,50.62 198.16,50.54 "/><path d="M198.16,50.54 C198.09,50.45 198.09,50.45 198.02,50.36 C197.99,50.29 197.99,50.29 197.97,50.22 C197.96,50.18 197.96,50.18 197.95,50.14 C197.94,50.07 197.94,50.07 197.94,49.99 "/><path d="M200.74,47.25 L200.77,49.31 L200.76,49.98 L200.74,50.23 L200.64,50.44 "/><path d="M197.94,49.99 L197.90,47.25 L197.71,47.20 L197.71,47.05 L197.78,46.25 L199.39,45.87 L200.92,46.28 L200.93,46.43 L200.85,47.23 L200.74,47.25 "/></g></g><g id="Actor_.3"><g style="stroke:#000000;stroke-width:0.176"><path d="M102.87,72.87 C103.02,73.06 103.02,73.07 103.18,73.26 C103.24,73.31 103.24,73.31 103.30,73.36 C103.37,73.40 103.38,73.40 103.45,73.43 "/><path d="M104.61,73.44 C104.66,73.45 104.66,73.45 104.72,73.46 C104.78,73.46 104.78,73.46 104.83,73.45 C104.87,73.44 104.87,73.44 104.91,73.43 C104.97,73.40 104.97,73.40 105.02,73.38 C105.08,73.33 105.08,73.33 105.15,73.28 C105.21,73.22 105.21,73.22 105.26,73.15 "/><path d="M102.78,72.73 L102.87,72.87 "/><path d="M103.45,73.43 L103.60,73.45 L103.69,73.43 L103.93,73.29 L104.13,73.09 L104.34,73.30 L104.61,73.44 "/><path d="M105.26,73.15 L105.46,72.89 L105.55,72.75 L105.57,72.98 L105.58,72.98 "/><path d="M102.55,69.79 L104.08,70.20 L104.08,70.35 L104.10,70.35 L104.13,73.09 "/><path d="M104.08,70.35 L102.75,69.99 "/><path d="M103.11,69.12 L103.06,69.67 L104.11,69.95 L105.21,69.68 L105.26,69.14 L104.21,68.86 L103.11,69.12 L103.12,69.68 "/><path d="M104.08,70.20 L105.69,69.81 L105.69,69.96 "/><path d="M104.21,68.86 L104.23,69.92 "/><path d="M105.55,72.75 L105.51,70.01 L104.10,70.35 "/><path d="M105.69,69.81 L105.77,69.02 "/><path d="M105.51,70.01 L105.59,69.99 "/></g><g style="stroke:#000000;stroke-width:0.529"><path d="M105.50,73.15 C105.41,73.24 105.41,73.24 105.31,73.33 C105.15,73.40 105.15,73.40 104.99,73.47 C104.79,73.52 104.79,73.52 104.59,73.56 C104.37,73.58 104.37,73.58 104.15,73.59 C103.93,73.57 103.93,73.57 103.71,73.55 C103.52,73.51 103.52,73.51 103.33,73.46 C103.19,73.39 103.19,73.39 103.04,73.31 "/><path d="M105.59,69.99 L105.62,72.05 L105.60,72.63 L105.58,72.98 L105.50,73.15 "/><path d="M103.04,73.31 L102.88,73.13 L102.81,72.95 L102.78,72.73 L102.75,69.99 L102.55,69.94 L102.55,69.79 L102.63,68.99 L104.24,68.61 L105.77,69.02 L105.77,69.17 L105.69,69.96 L105.59,69.99 "/></g></g><g id="Actor_.4"><g style="stroke:#000000;stroke-width:0.176"><path d="M224.89,72.36 C224.99,72.52 224.99,72.52 225.10,72.67 C225.22,72.81 225.22,72.81 225.34,72.95 C225.40,72.98 225.40,72.98 225.45,73.02 C225.50,73.05 225.51,73.05 225.56,73.07 C225.60,73.08 225.60,73.08 225.64,73.08 C225.69,73.08 225.69,73.08 225.73,73.08 C225.80,73.07 225.80,73.07 225.86,73.05 C225.92,73.02 225.92,73.02 225.97,72.98 C226.07,72.90 226.07,72.90 226.16,72.82 C226.20,72.77 226.20,72.77 226.24,72.72 "/><path d="M226.79,73.09 C226.87,73.09 226.87,73.09 226.95,73.08 C227.00,73.07 227.00,73.07 227.06,73.05 C227.12,73.01 227.12,73.01 227.18,72.97 C227.24,72.92 227.24,72.92 227.30,72.87 "/><path d="M226.24,72.72 L226.64,73.05 L226.79,73.09 "/><path d="M227.30,72.87 L227.49,72.64 L227.66,72.39 L227.69,72.62 "/><path d="M227.80,69.60 L227.80,69.45 L226.19,69.83 L226.19,69.98 L224.86,69.62 "/><path d="M226.19,69.83 L224.66,69.42 "/><path d="M225.22,68.75 L225.23,69.32 L225.17,69.30 L225.22,68.75 L226.32,68.49 L227.37,68.77 L227.32,69.32 L226.22,69.58 L225.23,69.32 "/><path d="M226.24,72.72 L226.20,69.98 L227.62,69.64 L227.66,72.39 "/><path d="M226.20,69.98 L226.19,69.98 "/><path d="M226.32,68.49 L226.34,69.55 "/><path d="M227.59,72.82 L227.59,72.82 "/><path d="M227.62,69.64 L227.70,69.62 "/><path d="M227.80,69.45 L227.88,68.65 "/></g><g style="stroke:#000000;stroke-width:0.529"><path d="M224.89,72.36 C224.90,72.48 224.90,72.48 224.92,72.59 C224.95,72.66 224.95,72.66 224.98,72.73 C225.05,72.82 225.05,72.82 225.12,72.92 "/><path d="M225.12,72.92 C225.25,72.99 225.25,73.00 225.39,73.07 C225.57,73.12 225.57,73.12 225.75,73.17 C225.97,73.20 225.97,73.20 226.18,73.22 C226.41,73.21 226.41,73.21 226.63,73.20 C226.83,73.17 226.83,73.17 227.04,73.12 C227.21,73.06 227.21,73.06 227.37,72.99 C227.48,72.91 227.48,72.91 227.59,72.82 "/><path d="M227.70,69.62 L227.80,69.60 L227.88,68.80 L227.88,68.65 L226.35,68.24 L224.74,68.62 L224.66,69.42 L224.66,69.57 L224.86,69.62 L224.89,72.36 "/><path d="M227.59,72.82 L227.69,72.60 L227.71,72.35 L227.73,71.69 L227.70,69.62 "/></g></g><g id="Actor_.5"><g style="stroke:#000000;stroke-width:0.176"><path d="M170.98,27.62 C171.08,27.78 171.08,27.78 171.19,27.93 C171.31,28.07 171.31,28.07 171.44,28.20 C171.49,28.24 171.49,28.24 171.54,28.28 C171.60,28.30 171.60,28.30 171.65,28.33 C171.69,28.33 171.69,28.33 171.73,28.34 C171.78,28.34 171.78,28.34 171.83,28.34 C171.89,28.32 171.89,28.32 171.95,28.30 C172.01,28.27 172.01,28.27 172.06,28.24 C172.16,28.16 172.16,28.16 172.25,28.07 C172.29,28.03 172.29,28.03 172.33,27.98 "/><path d="M172.88,28.35 C172.96,28.35 172.96,28.35 173.04,28.34 C173.09,28.33 173.09,28.32 173.15,28.30 C173.21,28.27 173.21,28.27 173.27,28.23 C173.33,28.18 173.33,28.18 173.39,28.13 "/><path d="M172.33,27.98 L172.73,28.31 L172.88,28.35 "/><path d="M173.39,28.13 L173.58,27.90 L173.75,27.64 L173.78,27.88 "/><path d="M172.33,27.98 L172.30,25.24 L172.29,25.24 L172.28,25.09 L170.75,24.68 "/><path d="M171.31,24.01 L172.41,23.75 L173.46,24.03 L173.41,24.57 L172.31,24.84 L171.32,24.57 L171.31,24.01 L171.26,24.56 L171.32,24.57 "/><path d="M172.29,25.24 L170.95,24.88 "/><path d="M172.30,25.24 L173.71,24.90 L173.75,27.64 "/><path d="M172.28,25.09 L173.89,24.70 L173.97,23.91 "/><path d="M172.41,23.75 L172.43,24.81 "/><path d="M173.71,24.90 L173.79,24.88 "/><path d="M173.89,24.70 L173.89,24.86 "/></g><g style="stroke:#000000;stroke-width:0.529"><path d="M173.68,28.07 C173.58,28.16 173.57,28.16 173.46,28.25 C173.30,28.32 173.30,28.32 173.13,28.38 C172.93,28.42 172.93,28.42 172.72,28.46 C172.60,28.47 172.60,28.46 172.49,28.47 C172.38,28.47 172.38,28.48 172.28,28.48 C172.06,28.46 172.06,28.46 171.85,28.43 C171.66,28.38 171.66,28.38 171.48,28.33 C171.34,28.25 171.34,28.25 171.21,28.17 "/><path d="M171.21,28.17 C171.14,28.08 171.14,28.08 171.07,27.99 C171.04,27.92 171.04,27.92 171.01,27.85 C171.00,27.81 171.00,27.81 171.00,27.77 C170.99,27.70 170.99,27.70 170.98,27.62 "/><path d="M173.79,24.88 L173.82,26.94 L173.80,27.61 L173.79,27.85 L173.68,28.07 "/><path d="M170.98,27.62 L170.95,24.88 L170.75,24.83 L170.75,24.68 L170.83,23.88 L172.44,23.50 L173.97,23.91 L173.97,24.06 L173.89,24.86 L173.79,24.88 "/></g></g><g id="Actor_.6"><g style="stroke:#000000;stroke-width:0.176"><path d="M129.82,95.24 C129.97,95.44 129.97,95.44 130.13,95.63 C130.19,95.68 130.19,95.68 130.26,95.73 C130.33,95.77 130.33,95.77 130.40,95.81 "/><path d="M131.56,95.81 C131.62,95.82 131.62,95.82 131.67,95.83 C131.73,95.83 131.73,95.83 131.79,95.82 C131.83,95.81 131.83,95.81 131.87,95.80 C131.92,95.77 131.92,95.77 131.97,95.75 C132.04,95.70 132.04,95.70 132.10,95.65 C132.16,95.59 132.16,95.59 132.22,95.53 "/><path d="M129.74,95.10 L129.82,95.24 "/><path d="M130.40,95.81 L130.55,95.82 L130.65,95.81 L130.89,95.67 L131.09,95.46 L131.30,95.67 L131.56,95.81 "/><path d="M132.22,95.53 L132.42,95.26 L132.50,95.12 L132.47,92.38 L131.05,92.72 L131.09,95.46 "/><path d="M132.72,91.39 L132.65,92.18 L131.04,92.57 L131.04,92.72 L129.70,92.36 "/><path d="M131.04,92.57 L129.51,92.16 "/><path d="M130.07,91.49 L130.07,92.05 L130.01,92.04 L130.07,91.49 L131.17,91.23 L132.22,91.51 L132.16,92.05 L131.06,92.32 L130.07,92.05 "/><path d="M131.04,92.72 L131.05,92.72 "/><path d="M131.17,91.23 L131.18,92.29 "/><path d="M132.50,95.12 L132.53,95.35 L132.53,95.35 "/><path d="M132.47,92.38 L132.54,92.36 "/><path d="M132.65,92.18 L132.65,92.34 "/></g><g style="stroke:#000000;stroke-width:0.529"><path d="M130.00,95.68 C130.14,95.76 130.14,95.76 130.29,95.83 C130.48,95.88 130.48,95.88 130.67,95.92 C130.89,95.94 130.89,95.94 131.10,95.96 C131.32,95.95 131.33,95.95 131.55,95.93 C131.75,95.89 131.75,95.89 131.95,95.84 C132.10,95.77 132.11,95.77 132.26,95.70 C132.36,95.62 132.36,95.61 132.46,95.52 "/><path d="M132.54,92.36 L132.65,92.34 L132.73,91.54 L132.72,91.39 L131.19,90.98 L129.58,91.36 L129.51,92.16 L129.51,92.31 L129.70,92.36 L129.74,95.10 L129.76,95.32 L129.84,95.50 L130.00,95.68 "/><path d="M132.46,95.52 L132.53,95.35 L132.56,95.00 L132.57,94.42 L132.54,92.36 "/></g></g><g id="paperID" visibility="hidden" opacity="0.00" transform="scale(0.000100)"><path style="stroke:#000000;stroke-width:0.500;fill:#e6e6e6;fill-rule:evenodd" d="M-2000.00,-2000.00L2297.00,-2000.00L2297.00,2210.00L-2000.00,2210.00zM0.00,0.00L297.00,0.00L297.00,210.00L0.00,210.00z"/><path style="fill:#000000;fill-opacity:0.118" d="M3.00,210.00L297.00,210.00L297.00,3.00L300.00,3.00L300.00,213.00L3.00,213.00z"/></g><g id="ToolTip" visibility="hidden" opacity="0" transform="translate(0,0)"><rect id="ToolTipShadow" opacity="0.20" fill="black" stroke="none" x="0" y="0" width="30" height="8"/><rect id="ToolTipBG" fill="#ffffe1" stroke="black" x="0" y="0" width="30" height="8"/><text xml:space="preserve" id="ToolTipText" fill="black" x="0" y="0" width="30" height="8">tooltip</text></g></g></svg>
