<?xml version="1.0" encoding="UTF-8" standalone="no"?>
<svg xmlns="http://www.w3.org/2000/svg" xmlns:xlink="http://www.w3.org/1999/xlink" width="297.000mm" height="210.000mm" viewBox="0.000000 0.000000 297.000000 210.000000" stroke-linejoin="round" stroke-linecap="round" fill="none" fill-rule="evenodd"><desc>Composer Export</desc><script type="text/ecmascript"><![CDATA[
if(typeof(top) != "undefined")
{
	top.ShowPaper = ShowPaper;
}
function ShowHotSpot(evt,hotspotid)
{
	var svgDocument = evt.target.ownerDocument;
	var strId = "hotspot."+hotspotid;
	var hotspot = svgDocument.getElementById(strId);
	if(hotspot)
		hotspot.setAttribute("opacity",".5");
}
function HideHotSpot(evt,hotspotid)
{
	var svgDocument = evt.target.ownerDocument;
	var strId = "hotspot."+hotspotid;
	var hotspot = svgDocument.getElementById(strId);
	if(hotspot)
		hotspot.setAttribute("opacity","0");

	var toolTip = svgDocument.getElementById('ToolTip');
	if(toolTip)
		toolTip.setAttribute("visibility","hidden");
}
function ShowToolTip(evt,hotspotid,strTooltip)
{
	if(strTooltip=="")
	return;

	// change text
	var svgDocument = evt.target.ownerDocument;
	var tiptext = svgDocument.getElementById('ToolTipText');
	if( !tiptext )
	return;
	tiptext.firstChild.nodeValue = " " + strTooltip + "  " ;

	// show tooltip before, else some refresh issue

	var toolTip = svgDocument.getElementById('ToolTip');
	if(!toolTip)
	return;

	toolTip.setAttribute("visibility","visible");
	toolTip.setAttribute("opacity",".95");

	// move tooltip
	// get viewbox

	var root = svgDocument.documentElement;
	var vbox = (root.getAttribute("viewBox")).split(' ');
	var x0 = parseFloat(vbox[0]);
	var y0 = parseFloat(vbox[1]);
	var vboxW = parseFloat(vbox[2]);
	var vboxH = parseFloat(vbox[3]);

	// get default width of svg

	var strW = root.getAttribute("width");
	var svgW = parseFloat(strW);
	if(strW.indexOf('mm') != -1)
	svgW *= 3.779;

	var strH = root.getAttribute("height");
	var svgH = parseFloat(strH);
	if(strH.indexOf('mm') != -1)
	svgH *= 3.779;  	// 96 dpi  -> 96/25.4 = 3.779

	// update the viewbox / width / height if svg is embedded in html with zoom fit all
	var realx0 = x0;
	var realy0 = y0;
	var realvboxW = vboxW;
	var realvboxH = vboxH;
	var realsvgW = svgW;
	var realsvgH = svgH;

	if ((typeof(top) == "undefined") || (typeof(top.svgctl1) != "undefined")) // embedded in html
	{
		// get window size in pxl

		svgW = window.innerWidth;
		svgH = window.innerHeight;

		// calculate real viewbox

		realsvgW = svgW;
		realsvgH = svgH;
		if((svgW / svgH) > (vboxW / vboxH))
		{
			realvboxW = (vboxH * svgW) / svgH;
			realvboxH = vboxH;
			realx0 = x0 - (realvboxW - vboxW)/2 ;
		}
		else
		{
			realvboxH = (vboxW * svgH) / svgW;
			realvboxW = vboxW;
			realy0 = y0 - (realvboxH - vboxH)/2 ;
		}
	}

	// get user zoom/pan

	var newScale = root.currentScale;
	var translation = root.currentTranslate;

	// transform pxl to user unit

	var xPos = (((evt.clientX+10- translation.x)/newScale) * realvboxW)/realsvgW  + realx0 ;
	var yPos = (((evt.clientY+5- translation.y)/newScale) * realvboxH)/ realsvgH  + realy0 ;
	var scaleForWidth = ( (1 / newScale) * realvboxH) / realsvgH;

	// move tooltip

	toolTip.setAttribute("transform", "translate(" + xPos + "," + yPos + ")" );

	// resize tooltip

	var fontsize = 12;
	tiptext.setAttribute("font-size",fontsize*scaleForWidth);
	tiptext.setAttribute("y", fontsize*scaleForWidth);
	var tipBG = svgDocument.getElementById('ToolTipBG');
	var outline = tiptext.getBBox();
	if(tipBG)
	{
		tipBG.setAttribute("stroke-width", 1*scaleForWidth);
		tipBG.setAttribute("width", Number(outline.width) );
		tipBG.setAttribute("height", Number(outline.height) + fontsize*.5*scaleForWidth );
	}
	var ToolTipShadow = svgDocument.getElementById('ToolTipShadow');
	if(ToolTipShadow)
	{
		ToolTipShadow.setAttribute("width", Number(outline.width) );
		ToolTipShadow.setAttribute("height", Number(outline.height) + fontsize*.5*scaleForWidth );
		ToolTipShadow.setAttribute("x", 3*scaleForWidth);
		ToolTipShadow.setAttribute("y", 3*scaleForWidth);
	}
}
function ShowPaper()
{
  var svgDocument = getDocument();
  var paper = svgDocument.getElementById("paperID");
  if(paper)
  {
    paper.setAttribute("transform","scale(1)");
    paper.setAttribute("opacity","1");
    paper.setAttribute("visibility","visible");
  }
  var svg = svgDocument.getRootElement();
  if(svg)
  {
    svg.setAttribute("width","307.000mm");
    svg.setAttribute("height","220.000mm");
    svg.setAttribute("viewBox","-5.000000 -5.000000 307.000000 220.000000");
  }
}
]]></script><defs/><g><path style="fill:#ffffff" d="M296.92,210.05L0.08,210.05L0.08,0.08L296.92,0.08z"/><path style="fill:#d9e0da" d="M182.18,120.72L182.27,119.76L182.46,119.77L189.66,124.99L192.12,125.84L192.82,126.29L192.83,127.70L189.26,134.10L189.66,134.63L193.91,143.38L194.15,143.73L195.71,146.79L202.03,149.03L203.05,149.02L207.67,141.95L207.82,142.10L208.13,143.03L203.33,150.39L201.30,150.78L108.65,167.05L106.53,167.50L104.41,166.94L98.92,164.99L98.23,164.09L194.90,147.08L189.39,135.75L187.89,135.77L173.83,138.25L171.53,138.78L171.31,138.44L171.59,135.41L171.75,132.97L171.27,132.70L170.99,132.57L169.84,132.56L169.39,132.74L168.98,136.77L168.82,138.45L168.03,138.79L167.61,139.28L92.69,152.56L92.29,152.23L92.04,150.56L92.32,146.97L93.37,142.90L93.03,142.85L91.45,141.57L86.48,137.98L86.35,137.34L104.15,116.00L108.31,111.06L109.00,110.66L110.49,110.68z"/><path style="fill:#f1f9f2" d="M68.72,60.45L68.21,61.87L69.67,113.99L69.94,119.78L70.53,121.43L69.55,121.62L68.87,119.98L68.84,118.12L68.73,118.02L68.60,113.07L68.56,108.47L68.45,108.37L68.33,103.42L68.29,98.82L68.18,98.72L68.05,93.77L68.01,88.89L67.90,88.79L67.78,84.12L67.74,79.24L67.63,79.14L67.50,74.47L67.46,69.59L67.35,69.48L67.22,64.54L67.22,62.03L67.64,60.47L68.48,59.91L69.19,59.86z"/><path style="fill:#00fdff" d="M137.39,127.95L136.96,132.82L136.70,133.73L136.03,133.85L136.78,133.97L137.28,134.05L137.34,134.23L136.13,134.75L134.01,135.18L133.81,135.02L133.93,134.21L134.87,133.71L135.02,133.65L135.06,132.08L135.43,127.95L137.24,127.76z"/><path style="fill:#00e3e5" d="M91.58,146.48L92.03,146.44L92.32,146.97L92.04,150.56L91.89,152.24L92.00,152.88L92.58,153.05L92.74,153.31L92.72,153.87L92.57,154.37L91.94,154.82L89.51,154.82L88.52,153.94L91.23,153.23L91.42,152.87L91.15,152.43L91.46,151.02L91.74,146.77z"/><path style="fill:#000020" d="M136.78,133.97L136.03,133.85L136.70,133.73z"/><path style="fill:#d9e0da" d="M72.78,60.44L74.64,122.81L74.82,124.28L75.86,124.56L75.29,124.71L72.98,124.19L69.97,122.52L69.55,121.62L70.53,121.43L69.94,119.78L69.67,113.99L68.21,61.87L68.72,60.45L69.19,59.86L69.94,59.64z"/><path style="fill:#f1f9f2" d="M179.44,30.80L177.40,31.28L177.65,32.27L177.77,32.99L177.92,32.83L180.72,32.36L182.20,32.35L183.27,32.93L184.02,34.19L183.92,34.95L183.48,35.15L183.48,39.63L184.13,39.76L184.24,40.18L182.08,40.06L181.34,40.98L181.36,52.49L182.74,99.37L183.31,101.58L182.37,101.84L182.76,102.40L182.65,102.95L182.74,103.81L183.26,103.87L183.46,103.42L183.86,103.85L183.98,103.44L186.32,104.60L185.48,105.78L185.23,112.98L184.94,113.80L184.15,114.93L182.66,115.92L180.17,116.75L180.12,116.91L179.82,118.35L179.45,118.11L109.27,108.40L109.15,106.98L109.12,106.80L107.34,106.80L106.80,107.11L107.75,107.28L108.04,107.82L108.88,108.37L108.90,108.97L108.53,109.39L108.05,109.29L107.71,108.98L107.39,109.01L87.05,133.65L85.76,134.89L85.18,134.00L85.16,133.72L85.18,133.30L79.40,133.55L78.52,132.99L77.38,131.37L77.15,128.79L77.12,125.55L77.00,125.47L76.39,124.87L75.86,124.56L74.82,124.28L74.64,122.81L72.78,60.44L74.62,59.73L75.06,59.01L75.18,56.07L75.07,55.97L75.22,52.94L76.04,51.49L77.31,50.56L79.43,50.14L82.17,49.69L82.66,49.27L83.17,48.15L83.74,47.58L83.73,46.52L87.41,45.18L88.25,45.03L90.45,44.33L91.01,44.07L92.66,43.52L96.78,42.23L97.90,41.87L98.51,41.65L101.25,40.79L101.79,40.60L103.44,39.96L106.00,39.26L106.46,39.10L107.29,38.94L116.36,37.72L117.76,37.57L120.76,37.16L132.91,35.63L133.22,35.54L136.22,35.24L137.34,35.08L137.61,34.98L148.91,33.58L149.91,33.54L150.03,33.38L153.32,33.03L154.34,32.99L154.43,32.82L159.95,32.21L166.28,31.38L167.39,31.23L170.72,30.85L171.55,30.66L179.24,29.71L179.51,29.84z"/><path style="fill:#f1f9f2" d="M194.90,147.08L98.23,164.09L93.15,153.61L92.74,153.31L92.58,153.05L92.69,152.56L167.61,139.28L167.99,140.11L168.13,140.44L168.66,140.75L169.58,140.92L169.68,141.09L170.74,140.98L171.75,140.59L172.30,139.99L172.03,139.32L171.53,138.78L173.83,138.25L187.89,135.77L189.39,135.75z"/><path style="fill:#00001c" d="M184.55,39.72L184.57,40.01L184.48,40.21L184.24,40.18L184.13,39.76L184.39,38.40z"/><path style="fill:#00fdff" d="M107.35,127.94L106.96,133.70L106.83,133.87L107.24,134.09L106.64,134.48L104.01,135.14L103.83,134.94L103.85,134.22L104.78,133.67L104.97,133.64L105.02,132.93L105.51,127.85L107.18,127.76z"/><path style="fill:#00fdff" d="M154.47,130.40L154.36,130.57L153.86,136.19L153.70,136.33L154.12,136.57L153.52,136.97L150.88,137.62L150.71,137.43L150.74,136.70L151.88,135.89L152.43,130.42L152.58,130.23L154.35,130.24z"/><path style="fill:#00fdff" d="M99.82,139.77L100.16,135.12L100.31,134.30L100.91,133.94L101.77,133.95L102.05,134.08L101.81,140.09L101.82,140.38L101.68,140.59L99.01,141.53L98.60,141.27L98.62,140.56L99.53,140.03L101.14,139.91z"/><path style="fill:#00e3e5" d="M137.82,128.29L137.54,132.36L137.28,134.05L136.78,133.97L136.70,133.73L136.96,132.82L137.39,127.95z"/><path style="fill:#00e3e5" d="M108.01,128.27L107.61,131.55L107.51,133.21L106.96,133.70L107.35,127.94z"/><path style="fill:#00e3e5" d="M120.85,126.01L120.84,127.14L120.58,130.17L120.61,131.72L121.28,132.16L121.27,133.12L120.27,133.83L119.71,133.68L118.66,133.58L118.56,133.76L117.66,133.56L117.22,132.97L119.78,132.19L120.44,125.88L120.55,125.72z"/><path style="fill:#00e3e5" d="M171.75,132.97L171.59,135.41L171.31,138.44L171.53,138.78L172.03,139.32L172.30,139.99L171.75,140.59L170.74,140.98L170.44,140.86L169.69,140.74L169.58,140.92L168.66,140.75L168.13,140.44L167.99,140.11L170.90,139.16L170.88,137.51L171.27,132.70z"/><path style="fill:#00e3e5" d="M108.32,134.66L108.32,135.31L107.39,136.07L104.95,136.07L104.14,135.48L104.01,135.14L106.64,134.48L107.24,134.09L107.55,133.98z"/><path style="fill:#00e3e5" d="M102.64,134.57L102.65,135.40L102.26,139.84L101.81,140.09L102.05,134.08L102.24,134.09z"/><path style="fill:#00e3e5" d="M154.77,130.70L154.76,131.54L154.37,136.23L153.86,136.19L154.36,130.57L154.47,130.40z"/><path style="fill:#00e3e5" d="M155.17,136.88L155.19,137.80L154.27,138.55L152.12,138.54L151.02,137.96L150.88,137.62L153.52,136.97L154.12,136.57L154.42,136.47z"/><path style="fill:#00e3e5" d="M103.08,140.71L103.07,141.66L102.07,142.38L101.51,142.23L100.46,142.13L100.36,142.31L99.46,142.11L99.01,141.53L101.68,140.59L101.82,140.38L102.32,140.30z"/><path style="fill:#00e3e5" d="M97.41,140.62L97.41,142.31L97.13,145.34L97.26,146.52L98.08,147.32L97.69,148.16L96.26,148.71L95.40,148.71L93.96,148.16L93.52,147.53L95.25,147.37L96.74,146.66L96.54,146.38L96.48,146.15L97.09,140.42z"/><path style="fill:#000020" d="M98.51,41.65L97.90,41.87L98.41,41.39z"/><path style="fill:#000020" d="M128.78,49.70L128.66,49.84L127.77,49.74L128.47,49.37z"/><path style="fill:#d9e0da" d="M190.02,30.39L190.29,32.27L189.90,32.48L189.92,33.03L190.27,32.54L190.29,32.27L191.93,30.10L192.95,30.14L199.29,32.36L199.87,32.88L204.53,42.28L205.38,44.59L204.95,45.21L203.15,41.18L199.84,34.29L198.37,34.29L189.25,35.92L187.42,38.79L186.68,39.48L185.30,39.78L184.55,39.72L184.39,38.40L184.13,39.76L183.48,39.63L183.48,35.15L183.92,34.95L184.23,34.51L184.02,34.19L183.27,32.93L182.20,32.35L180.72,32.36L177.92,32.83L177.65,32.27L177.40,31.28L179.44,30.80L179.51,29.84L182.01,29.57L186.99,29.43z"/><path style="fill:#d9e0da" d="M184.24,40.18L184.48,40.21L185.64,40.82L185.81,41.64L185.93,46.60L186.08,51.30L186.20,56.25L186.36,60.95L186.48,65.90L186.63,70.88L186.76,75.55L186.91,80.53L187.03,85.48L187.18,90.18L187.31,95.13L187.46,99.84L187.46,105.00L187.16,105.26L186.37,106.17L186.34,111.12L186.21,112.81L185.78,114.08L184.70,115.49L182.11,116.75L180.12,116.91L180.17,116.75L182.66,115.92L184.15,114.93L184.94,113.80L185.23,112.98L185.48,105.78L186.32,104.60L183.98,103.44L183.52,103.18L183.46,103.42L183.26,103.87L182.74,103.81L182.65,102.95L182.76,102.40L182.37,101.84L183.31,101.58L182.74,99.37L181.36,52.49L181.34,40.98L182.08,40.06z"/><path style="fill:#d9e0da" d="M144.97,45.94L145.07,45.78L146.89,45.88L146.99,46.04L145.95,46.14L146.70,46.40L146.73,46.56L145.07,46.82L128.78,49.70L128.47,49.37L129.23,48.70L133.56,46.97L136.21,46.37L136.96,46.43L136.52,46.26L137.86,46.11L138.92,46.15L138.16,45.99L140.07,45.83z"/><path style="fill:#d9e0da" d="M97.53,53.59L98.35,54.15L98.95,54.88L97.91,55.09L94.86,55.64L93.57,56.07L92.75,57.17L90.73,61.56L89.69,61.40L90.63,58.92L92.44,55.76L94.40,53.86L95.80,53.29z"/><path style="fill:#d9e0da" d="M78.86,61.42L78.32,61.72L77.70,62.33L77.53,62.32L77.79,61.53L78.14,61.28z"/><path style="fill:#d9e0da" d="M89.37,65.71L89.01,67.01L88.46,69.49L87.90,72.51L87.34,76.38L86.40,76.31L86.69,72.90L88.13,66.07L88.34,65.45L89.07,65.34z"/><path style="fill:#d9e0da" d="M79.43,72.17L78.58,72.47L78.36,72.58L77.97,73.63L77.95,72.43L78.40,72.04z"/><path style="fill:#d9e0da" d="M79.15,91.21L78.53,91.84L78.35,91.82L78.47,91.16L79.14,91.04z"/><path style="fill:#d9e0da" d="M179.45,118.11L179.82,118.35L179.75,118.85L179.51,119.35L109.96,109.60L108.44,109.82L88.06,134.39L86.86,135.72L85.76,134.89L87.05,133.65L107.39,109.01L107.71,108.98L108.05,109.29L108.53,109.39L108.90,108.97L109.11,109.11L109.27,108.40z"/><path style="fill:#f1f9f2" d="M203.15,41.18L204.95,45.21L204.70,45.60L203.80,46.12L187.26,49.03L186.65,49.17L186.24,49.00L186.04,46.70L185.93,46.60L185.81,41.64L185.79,40.89L185.64,40.82L184.48,40.21L184.57,40.01L185.30,39.78L186.68,39.48L187.42,38.79L189.25,35.92L198.37,34.29L199.84,34.29z"/><path style="fill:#f1f9f2" d="M131.80,127.75L133.49,127.75L134.86,127.32L135.32,127.50L135.43,127.95L134.41,128.62L130.61,128.61L129.69,128.34L129.96,127.41z"/><path style="fill:#ffffff" d="M164.02,54.66L165.38,56.33L166.04,56.85L168.71,60.73L171.16,65.73L172.42,70.04L172.57,70.87L172.60,72.28L172.11,72.78L171.71,73.01L170.91,74.45L170.91,75.30L171.16,76.20L171.48,76.36L172.58,77.48L172.86,79.15L172.42,81.63L170.61,87.05L168.67,90.63L166.47,93.67L163.54,96.57L162.15,96.59L161.60,96.45L160.47,96.45L159.58,96.70L158.77,98.15L158.62,99.56L158.37,99.93L155.63,101.31L150.58,102.93L147.25,103.35L140.91,103.20L138.97,102.93L134.19,101.59L129.51,99.37L126.50,97.42L122.92,94.38L120.71,91.90L118.76,89.17L116.28,84.21L114.66,78.87L114.62,78.14L114.49,78.04L114.59,77.09L115.73,76.02L116.14,75.27L116.33,74.45L116.31,73.70L114.39,71.42L114.37,70.02L114.93,67.01L116.99,61.49L117.47,61.26L132.38,58.68L152.78,55.09L160.78,53.71L162.17,53.42L162.65,53.50z"/><path style="fill:#ffffff" d="M100.04,56.60L101.12,58.83L102.65,63.98L102.80,64.79L102.92,65.37L103.08,66.18L103.20,67.01L103.35,68.12L103.48,68.93L103.62,70.61L103.75,71.97L103.76,73.92L103.35,75.82L103.35,76.95L103.58,78.15L103.89,78.67L103.90,83.82L103.75,85.77L103.21,91.29L102.65,94.87L102.10,97.62L100.84,102.49L98.55,108.20L96.43,111.33L95.48,112.03L94.42,112.63L93.38,112.63L92.58,112.04L92.27,111.52L92.05,109.28L91.57,108.86L90.21,108.67L88.69,104.63L88.18,102.86L88.15,102.13L88.02,102.04L87.62,99.84L87.60,98.81L87.48,98.72L87.35,97.90L87.32,96.88L87.20,96.79L87.08,95.15L87.04,93.85L86.92,93.75L86.93,92.93L87.09,92.10L87.37,90.73L87.34,88.32L86.79,87.44L86.80,84.10L87.20,78.05L87.34,76.38L87.90,72.51L88.46,69.49L89.01,67.01L89.37,65.71L90.19,65.42L90.74,63.99L90.68,63.71L90.73,61.56L92.75,57.17L93.57,56.07L94.86,55.64L97.91,55.09L98.95,54.88z"/><path style="fill:#ffffff" d="M70.28,67.83L69.93,67.42L69.85,66.00L70.03,65.96z"/><path style="fill:#ffffff" d="M70.39,71.41L70.32,72.26L69.95,71.72L70.23,70.84z"/><path style="fill:#ffffff" d="M77.97,73.63L78.36,72.58L78.58,72.47L79.65,72.52L79.79,72.80L79.75,73.63L79.26,74.04L78.23,74.03z"/><path style="fill:#ffffff" d="M80.32,91.56L80.31,92.38L80.07,92.78L78.68,92.86L78.53,92.67L78.53,91.84L79.15,91.21L79.98,91.20z"/><path style="fill:#ffffff" d="M80.86,111.14L80.24,111.74L79.42,111.76L79.07,111.41L79.08,110.59L79.77,110.11L80.53,109.93L80.81,110.07z"/><path style="fill:#ffffff" d="M71.49,111.40L71.21,112.24L71.07,111.97L71.37,111.12z"/><path style="fill:#ffffff" d="M71.65,117.20L71.31,116.49L71.23,115.37L71.41,115.32z"/><path style="fill:#ffffff" d="M81.15,121.06L81.13,121.89L80.52,122.50L79.70,122.52L79.33,122.16L79.73,121.10L80.79,120.70z"/><path style="fill:#ffffff" d="M132.92,126.24L134.20,126.67L134.86,127.32L133.49,127.75L131.80,127.75L129.96,127.41L128.88,126.67L129.63,126.26L130.43,126.08z"/><path style="fill:#c6c1bc" d="M171.01,30.33L170.72,30.85L167.39,31.23L167.10,31.08L167.46,30.41L168.02,30.14L170.05,29.86z"/><path style="fill:#c6c1bc" d="M154.43,32.82L153.32,33.03L150.03,33.38L150.65,32.63L152.21,32.20L153.62,32.19L154.11,32.34z"/><path style="fill:#c6c1bc" d="M137.61,34.98L137.34,35.08L136.22,35.24L133.22,35.54L134.10,34.55L135.11,34.40L137.06,34.41z"/><path style="fill:#c6c1bc" d="M120.76,37.16L117.76,37.57L116.65,37.46L117.27,36.76L118.02,36.61L120.16,36.47z"/><path style="fill:#c6c1bc" d="M106.46,39.10L106.00,39.26L103.44,39.96L104.32,38.96L105.33,38.81z"/><path style="fill:#c6c1bc" d="M101.25,40.79L98.51,41.65L98.41,41.39L99.16,40.70L100.67,40.45z"/><path style="fill:#c6c1bc" d="M92.66,43.52L93.55,42.55L94.03,42.40L96.78,42.23z"/><path style="fill:#c6c1bc" d="M90.45,44.33L88.25,45.03L87.70,44.90L88.32,44.20L89.34,44.05z"/><path style="fill:#00001c" d="M177.92,32.83L177.77,32.99L177.65,32.27z"/><path style="fill:#00001c" d="M154.34,32.99L153.32,33.03L154.43,32.82z"/><path style="fill:#00001c" d="M184.23,34.51L183.92,34.95L184.02,34.19z"/><path style="fill:#00001c" d="M105.98,42.01L106.15,41.87L106.73,42.01z"/><path style="fill:#00001c" d="M144.97,45.94L140.07,45.83L140.34,45.72L145.07,45.78z"/><path style="fill:#00001c" d="M147.01,46.25L146.70,46.40L145.95,46.14L146.99,46.04z"/><path style="fill:#00001c" d="M137.86,46.11L138.16,45.99L138.92,46.15z"/><path style="fill:#00001c" d="M136.21,46.37L136.52,46.26L136.96,46.43z"/><path style="fill:#00001c" d="M120.84,127.14L120.85,126.01L120.99,126.10z"/><path style="fill:#00001c" d="M154.76,131.54L154.77,130.70L154.91,130.81z"/><path style="fill:#00001c" d="M135.02,133.65L134.87,133.71L135.06,132.08z"/><path style="fill:#00001c" d="M104.97,133.64L104.78,133.67L105.02,132.93z"/><path style="fill:#00001c" d="M118.65,133.91L118.56,133.76L119.71,133.68L120.27,133.83z"/><path style="fill:#00001c" d="M107.55,133.98L107.24,134.09L106.83,133.87L106.96,133.70L107.51,133.21z"/><path style="fill:#00001c" d="M137.62,134.22L137.34,134.23L137.28,134.05L137.54,132.36z"/><path style="fill:#00001c" d="M102.65,135.40L102.64,134.57L102.79,134.68z"/><path style="fill:#00001c" d="M154.42,136.47L154.12,136.57L153.70,136.33L153.86,136.19L154.37,136.23z"/><path style="fill:#00001c" d="M169.04,138.45L168.82,138.45L168.98,136.77z"/><path style="fill:#00001c" d="M102.32,140.30L101.82,140.38L101.81,140.09L102.26,139.84z"/><path style="fill:#00001c" d="M97.41,142.31L97.41,140.62L97.54,140.70z"/><path style="fill:#00001c" d="M100.45,142.46L100.36,142.31L101.51,142.23L102.07,142.38z"/><path style="fill:#00001c" d="M92.29,152.23L91.89,152.24L92.04,150.56z"/><path style="fill:#00fdff" d="M120.55,125.72L120.44,125.88L119.78,132.19L117.22,132.97L116.74,132.15L117.96,131.20L118.52,125.74L119.87,125.26z"/><path style="fill:#00fdff" d="M119.71,133.68L118.56,133.76L118.66,133.58z"/><path style="fill:#00fdff" d="M169.04,138.45L168.98,136.77L169.39,132.74L169.84,132.56L170.99,132.57L171.27,132.70L170.88,137.51L170.90,139.16L167.99,140.11L167.61,139.28L168.03,138.79L168.82,138.45L169.04,138.45L169.13,138.62L170.36,138.52z"/><path style="fill:#00fdff" d="M170.44,140.86L169.58,140.92L169.69,140.74z"/><path style="fill:#00fdff" d="M101.51,142.23L100.36,142.31L100.46,142.13z"/><path style="fill:#00fdff" d="M96.48,146.15L94.93,146.25L96.54,146.38L96.74,146.66L95.25,147.37L93.52,147.53L93.28,147.04L94.52,146.09L95.07,140.63L95.66,140.28L96.82,140.28L97.09,140.42z"/><path style="fill:#00fdff" d="M91.74,146.77L91.46,151.02L91.15,152.43L91.42,152.87L91.23,153.23L88.52,153.94L88.31,153.77L88.42,152.96L89.24,152.40L89.43,151.70L89.83,147.24L90.24,146.49L91.58,146.48z"/><path style="fill:#00e3e5" d="M138.39,134.65L138.37,135.31L137.69,136.04L134.76,136.04L134.01,135.18L136.13,134.75L137.34,134.23L137.62,134.22z"/><path style="fill:#000020" d="M179.51,29.84L179.24,29.71L182.01,29.57z"/><path style="fill:#000020" d="M166.28,31.38L167.10,31.08L167.39,31.23z"/><path style="fill:#000020" d="M149.91,33.54L148.91,33.58L150.03,33.38z"/><path style="fill:#000020" d="M116.36,37.72L116.65,37.46L117.76,37.57z"/><path style="fill:#000020" d="M107.29,38.94L106.46,39.10L105.33,38.81L106.93,38.69z"/><path style="fill:#000020" d="M184.57,40.01L184.55,39.72L185.30,39.78z"/><path style="fill:#000020" d="M101.79,40.60L101.25,40.79L100.67,40.45L101.39,40.33z"/><path style="fill:#000020" d="M185.81,41.64L185.64,40.82L185.79,40.89z"/><path style="fill:#000020" d="M89.34,44.05L91.01,44.07L90.45,44.33z"/><path style="fill:#000020" d="M87.41,45.18L87.70,44.90L88.25,45.03z"/><path style="fill:#000020" d="M148.89,46.56L148.09,46.39L148.92,46.32z"/><path style="fill:#000020" d="M146.73,46.56L146.70,46.40L147.01,46.25L147.54,46.40z"/><path style="fill:#000020" d="M186.24,49.00L186.65,49.17L186.26,49.46L186.08,51.30L185.93,46.60L186.04,46.70z"/><path style="fill:#000020" d="M182.75,51.58L182.65,50.86L182.84,50.80z"/><path style="fill:#000020" d="M182.90,52.14L183.30,51.36L183.33,52.69L183.01,52.52z"/><path style="fill:#000020" d="M162.72,53.29L162.65,53.50L162.17,53.42L162.16,53.01L162.38,52.92z"/><path style="fill:#000020" d="M75.06,59.01L75.07,55.97L75.18,56.07z"/><path style="fill:#000020" d="M186.36,60.95L186.20,56.25L186.32,56.35z"/><path style="fill:#000020" d="M117.47,61.26L116.99,61.49L117.10,61.01z"/><path style="fill:#000020" d="M79.16,61.71L78.32,61.72L78.86,61.42z"/><path style="fill:#000020" d="M77.70,63.17L77.53,62.32L77.70,62.33z"/><path style="fill:#000020" d="M102.80,64.79L102.65,63.98L102.78,64.07z"/><path style="fill:#000020" d="M89.37,65.71L89.07,65.34L90.19,65.42z"/><path style="fill:#000020" d="M103.08,66.18L102.92,65.37L103.05,65.46z"/><path style="fill:#000020" d="M103.35,68.12L103.20,67.01L103.32,67.10z"/><path style="fill:#000020" d="M103.62,70.61L103.48,68.93L103.59,69.03z"/><path style="fill:#000020" d="M70.25,70.53L70.23,70.84L69.95,71.72L69.96,70.38z"/><path style="fill:#000020" d="M186.63,70.88L186.48,65.90L186.59,66.00z"/><path style="fill:#000020" d="M172.57,70.87L172.42,70.04L172.55,70.13z"/><path style="fill:#000020" d="M70.32,72.26L70.39,71.41L70.53,71.54z"/><path style="fill:#000020" d="M79.65,72.52L78.58,72.47L79.43,72.17z"/><path style="fill:#000020" d="M172.62,72.53L172.11,72.78L172.60,72.28z"/><path style="fill:#000020" d="M79.75,73.63L79.79,72.80L79.91,72.91z"/><path style="fill:#000020" d="M103.76,73.92L103.75,71.97L103.86,72.07z"/><path style="fill:#000020" d="M114.18,74.09L113.51,74.46L113.42,74.00z"/><path style="fill:#000020" d="M67.50,74.47L67.35,69.48L67.46,69.59z"/><path style="fill:#000020" d="M114.34,74.93L113.73,74.94L113.65,74.75L114.41,74.73z"/><path style="fill:#000020" d="M114.66,78.87L114.49,78.04L114.62,78.14z"/><path style="fill:#000020" d="M186.91,80.53L186.76,75.55L186.87,75.65z"/><path style="fill:#000020" d="M67.78,84.12L67.63,79.14L67.74,79.24z"/><path style="fill:#000020" d="M187.18,90.18L187.03,85.48L187.14,85.58z"/><path style="fill:#000020" d="M79.98,91.20L79.15,91.21L79.14,91.04z"/><path style="fill:#000020" d="M80.31,92.38L80.32,91.56L80.46,91.65z"/><path style="fill:#000020" d="M78.53,92.67L78.35,91.82L78.53,91.84z"/><path style="fill:#000020" d="M86.93,92.93L86.80,92.66L87.09,92.10z"/><path style="fill:#000020" d="M68.05,93.77L67.90,88.79L68.01,88.89z"/><path style="fill:#000020" d="M87.08,95.15L86.92,93.75L87.04,93.85z"/><path style="fill:#000020" d="M184.51,95.46L184.40,95.86L183.97,95.70L184.10,95.19z"/><path style="fill:#000020" d="M87.35,97.90L87.20,96.79L87.32,96.88z"/><path style="fill:#000020" d="M161.28,98.46L160.55,98.43L160.59,98.25L161.23,98.26z"/><path style="fill:#000020" d="M187.46,99.84L187.31,95.13L187.42,95.23z"/><path style="fill:#000020" d="M87.62,99.84L87.48,98.72L87.60,98.81z"/><path style="fill:#000020" d="M88.18,102.86L88.02,102.04L88.15,102.13z"/><path style="fill:#000020" d="M183.46,103.42L183.52,103.18L183.98,103.44L183.86,103.85z"/><path style="fill:#000020" d="M68.33,103.42L68.18,98.72L68.29,98.82z"/><path style="fill:#000020" d="M108.04,107.82L107.75,107.28L108.12,107.05z"/><path style="fill:#000020" d="M91.57,108.86L90.26,108.83L90.21,108.67z"/><path style="fill:#000020" d="M109.27,108.40L109.11,109.11L108.90,108.97L108.88,108.37L108.95,107.03L109.15,106.98z"/><path style="fill:#000020" d="M71.40,110.84L71.37,111.12L71.07,111.97L71.06,110.64z"/><path style="fill:#000020" d="M80.86,111.14L80.81,110.07L81.00,110.13z"/><path style="fill:#000020" d="M79.07,111.41L78.90,110.57L79.08,110.59z"/><path style="fill:#000020" d="M80.15,111.88L79.42,111.76L80.24,111.74z"/><path style="fill:#000020" d="M71.21,112.24L71.49,111.40L71.71,113.02L71.30,112.67z"/><path style="fill:#000020" d="M68.60,113.07L68.45,108.37L68.56,108.47z"/><path style="fill:#000020" d="M138.45,115.49L137.01,115.60L136.85,115.34z"/><path style="fill:#000020" d="M180.06,119.38L179.51,119.35L179.75,118.85z"/><path style="fill:#000020" d="M68.87,119.98L68.73,118.02L68.84,118.12z"/><path style="fill:#000020" d="M172.10,120.16L171.00,120.24L171.06,120.05z"/><path style="fill:#000020" d="M81.13,121.89L81.15,121.06L81.29,121.16z"/><path style="fill:#000020" d="M80.42,122.64L79.70,122.52L80.52,122.50z"/><path style="fill:#000020" d="M76.39,124.87L75.29,124.71L75.86,124.56z"/><path style="fill:#000020" d="M192.83,127.70L192.82,126.29L192.95,126.37z"/><path style="fill:#000020" d="M97.92,127.88L96.75,128.01L96.59,127.75z"/><path style="fill:#000020" d="M77.15,128.79L77.00,125.47L77.12,125.55z"/><path style="fill:#000020" d="M85.18,134.00L80.51,133.81L85.16,133.72z"/><path style="fill:#000020" d="M169.13,138.62L169.04,138.45L170.36,138.52z"/><path style="fill:#000020" d="M99.53,140.03L99.82,139.77L101.14,139.91z"/><path style="fill:#000020" d="M169.68,141.09L169.58,140.92L170.44,140.86L170.74,140.98z"/><path style="fill:#000020" d="M194.15,143.73L193.91,143.38L194.97,143.46z"/><path style="fill:#000020" d="M96.54,146.38L94.93,146.25L96.48,146.15z"/><path style="fill:#000020" d="M186.66,150.57L185.00,150.62L184.83,150.37L186.63,150.41z"/><path style="fill:#000020" d="M93.15,153.61L92.72,153.87L92.74,153.31z"/><path style="fill:#000020" d="M152.53,157.40L149.77,157.47L149.81,157.29z"/><path style="fill:#000020" d="M108.06,164.36L106.48,164.36L106.50,164.20L108.04,164.20z"/><path style="fill:#d9e0da" d="M107.19,40.57L107.21,41.83L106.73,42.01L106.15,41.87L106.91,41.26L106.91,40.32z"/><path style="fill:#d9e0da" d="M145.07,45.78L140.34,45.72L144.97,45.62z"/><path style="fill:#d9e0da" d="M148.92,46.32L148.09,46.39L147.54,46.40L147.01,46.25L146.99,46.04L148.82,46.16z"/><path style="fill:#d9e0da" d="M151.85,46.97L155.44,48.35L156.86,49.20L156.86,49.53L151.30,47.25L148.89,46.56L148.92,46.32z"/><path style="fill:#d9e0da" d="M159.68,50.47L159.26,50.90L159.19,50.30L160.14,50.27L160.14,51.22z"/><path style="fill:#d9e0da" d="M126.23,50.93L126.13,50.58L126.45,50.52z"/><path style="fill:#d9e0da" d="M159.00,52.79L162.32,52.76L162.38,52.92L162.16,53.01L158.73,53.06L158.18,52.73L158.18,52.20z"/><path style="fill:#d9e0da" d="M164.02,54.11L166.19,56.61L166.04,56.85L165.38,56.33L164.02,54.66L162.65,53.50L162.72,53.29z"/><path style="fill:#d9e0da" d="M90.74,63.99L90.19,65.42L89.07,65.34L89.72,63.79L90.68,63.71z"/><path style="fill:#d9e0da" d="M172.96,74.43L173.02,74.24L173.63,74.24L173.64,75.21L173.46,75.25L173.34,74.54z"/><path style="fill:#d9e0da" d="M172.31,76.72L172.58,77.48L171.48,76.36L171.72,76.20z"/><path style="fill:#d9e0da" d="M87.09,92.10L86.80,92.66L85.84,92.56L86.41,90.82L87.37,90.73z"/><path style="fill:#d9e0da" d="M109.15,106.98L108.95,107.03L108.12,107.05L107.75,107.28L106.80,107.11L107.34,106.80L109.12,106.80z"/><path style="fill:#d9e0da" d="M80.53,109.93L79.77,110.11L79.08,110.59L78.90,110.57L79.02,109.92z"/><path style="fill:#d9e0da" d="M80.79,120.70L79.73,121.10L79.33,122.16L79.31,120.68z"/><path style="fill:#d9e0da" d="M85.16,133.72L80.51,133.81L79.40,133.55L85.18,133.30z"/><path style="fill:#f1f9f2" d="M190.02,30.39L191.93,30.10L190.29,32.27z"/><path style="fill:#f1f9f2" d="M190.27,32.54L189.92,33.03L189.90,32.48L190.29,32.27z"/><path style="fill:#f1f9f2" d="M192.16,34.27L190.60,34.27L190.87,33.99L191.89,33.99z"/><path style="fill:#f1f9f2" d="M183.97,46.29L184.14,47.91L183.82,48.46L183.31,48.38L182.73,47.27L182.63,46.14z"/><path style="fill:#f1f9f2" d="M184.14,50.79L184.15,52.62L183.86,52.93L183.33,52.69L183.30,51.36L182.90,52.14L182.75,51.58L182.84,50.80L183.87,50.51z"/><path style="fill:#f1f9f2" d="M70.03,65.96L71.06,65.99L71.34,67.12L70.94,68.22L70.52,68.25L70.28,67.83z"/><path style="fill:#f1f9f2" d="M71.35,70.94L71.24,72.65L70.51,72.66L70.32,72.26L70.53,71.54L70.39,71.41L70.23,70.84L70.25,70.53L71.03,70.39z"/><path style="fill:#f1f9f2" d="M185.24,91.05L185.21,93.15L184.61,93.13L184.14,92.46L184.03,91.10L185.01,90.81z"/><path style="fill:#f1f9f2" d="M185.53,95.75L185.51,97.27L185.11,97.73L184.69,97.73L183.97,95.70L184.40,95.86L184.51,95.46L185.25,95.46z"/><path style="fill:#f1f9f2" d="M179.51,119.35L180.06,119.38L181.64,119.48L182.27,119.76L182.18,120.72L110.49,110.68L109.00,110.66L108.31,111.06L104.15,116.00L86.35,137.34L86.52,136.15L86.86,135.72L88.06,134.39L108.44,109.82L109.96,109.60z"/><path style="fill:#f1f9f2" d="M72.46,110.91L72.35,112.91L71.71,113.02L71.49,111.40L71.37,111.12L71.40,110.84L72.18,110.63z"/><path style="fill:#f1f9f2" d="M122.07,113.43L122.02,113.69L120.29,113.79L120.29,113.17L121.55,113.14z"/><path style="fill:#f1f9f2" d="M108.86,115.68L108.88,115.98L107.06,116.00L107.15,115.45L107.99,115.34z"/><path style="fill:#f1f9f2" d="M138.93,115.89L138.84,116.18L137.22,116.19L137.01,115.60L138.45,115.49z"/><path style="fill:#f1f9f2" d="M72.74,116.83L72.32,117.58L71.90,117.62L71.65,117.20L71.41,115.32L72.43,115.37z"/><path style="fill:#f1f9f2" d="M155.98,118.13L155.95,118.37L154.21,118.47L154.22,117.85L155.16,117.83z"/><path style="fill:#f1f9f2" d="M172.84,120.57L172.75,120.87L171.04,120.97L171.00,120.24L172.10,120.16z"/><path style="fill:#f1f9f2" d="M103.87,121.98L103.82,122.24L101.82,122.25L102.12,121.71L103.35,121.69z"/><path style="fill:#f1f9f2" d="M98.66,128.29L98.57,128.59L96.96,128.60L96.75,128.01L97.92,127.88z"/><path style="fill:#f1f9f2" d="M93.43,134.64L92.76,134.98L92.00,135.00L91.63,134.73L91.63,134.11L92.27,134.09z"/><path style="fill:#f1f9f2" d="M194.15,143.73L194.97,143.46L205.18,141.69L207.57,141.55L207.67,141.95L203.05,149.02L202.03,149.03L195.71,146.79z"/><path style="fill:#f1f9f2" d="M92.32,146.97L92.03,146.44L93.03,142.85L93.37,142.90z"/><path style="fill:#f1f9f2" d="M191.81,149.85L190.33,149.90L190.32,149.58L192.12,149.54z"/><path style="fill:#f1f9f2" d="M195.71,150.96L193.95,150.96L194.90,150.68z"/><path style="fill:#f1f9f2" d="M186.63,150.73L185.00,150.62L186.66,150.57z"/><path style="fill:#f1f9f2" d="M190.15,152.02L188.67,152.10L188.67,151.79L190.20,151.76z"/><path style="fill:#f1f9f2" d="M149.96,158.05L149.77,157.47L152.53,157.40L152.70,157.53L152.46,157.94L150.17,158.15z"/><path style="fill:#f1f9f2" d="M113.02,163.69L111.73,163.69L111.73,163.37L113.02,163.37z"/><path style="fill:#f1f9f2" d="M108.04,164.51L106.50,164.51L106.48,164.36L108.06,164.36z"/><path style="fill:#f1f9f2" d="M115.35,164.71L117.13,164.73L116.18,165.03L115.42,165.00z"/><path style="fill:#f1f9f2" d="M111.64,165.89L110.08,165.81L110.34,165.54L111.64,165.58z"/><path style="fill:#b2adaa" d="M171.55,30.66L170.72,30.85L171.01,30.33z"/><path style="fill:#ffffff" d="M79.35,62.79L78.96,63.24L77.86,63.36L77.70,63.17L77.70,62.33L78.32,61.72L79.16,61.71L79.36,61.87z"/><path style="fill:#ffffff" d="M114.41,74.73L113.65,74.75L113.51,74.46L114.18,74.09L114.40,74.26z"/><path style="fill:#ffffff" d="M173.46,75.25L172.98,75.24L172.96,74.43L173.34,74.54z"/><path style="fill:#ffffff" d="M160.55,98.43L161.28,98.46L161.27,98.92L160.65,98.84z"/><path style="fill:#ffffff" d="M108.04,107.82L108.12,107.05L108.95,107.03L108.88,108.37z"/><path style="fill:#ffffff" d="M92.69,152.56L92.58,153.05L92.00,152.88L91.89,152.24L92.29,152.23z"/><g id="Actor_.0"><g style="stroke:#000000;stroke-width:0.176"><path d="M92.42,153.04 C92.18,152.90 92.18,152.90 91.94,152.77 C91.75,152.71 91.75,152.71 91.56,152.65 C91.43,152.61 91.43,152.61 91.30,152.57 C90.94,152.51 90.94,152.51 90.58,152.46 C90.22,152.44 90.22,152.44 89.85,152.44 C89.59,152.47 89.59,152.47 89.32,152.50 C89.26,152.51 89.26,152.51 89.19,152.52 C88.93,152.61 88.93,152.61 88.67,152.69 "/><path d="M89.69,154.34 C89.76,154.39 89.76,154.39 89.83,154.44 C89.92,154.48 89.92,154.48 90.02,154.52 C90.14,154.55 90.14,154.55 90.26,154.58 C90.39,154.59 90.39,154.59 90.52,154.60 C90.64,154.60 90.64,154.60 90.77,154.59 C90.87,154.57 90.87,154.57 90.97,154.54 C91.05,154.51 91.05,154.51 91.12,154.47 "/><path d="M90.99,154.31 C90.91,154.34 90.91,154.34 90.83,154.36 C90.73,154.38 90.73,154.38 90.63,154.39 C90.52,154.39 90.52,154.39 90.41,154.38 C90.30,154.37 90.30,154.37 90.19,154.35 C90.09,154.32 90.09,154.32 90.00,154.29 C89.92,154.25 89.92,154.25 89.85,154.21 "/><path d="M89.76,154.06 C89.86,154.02 89.86,154.02 89.96,153.98 C90.08,153.97 90.08,153.97 90.19,153.96 C90.32,153.96 90.32,153.96 90.44,153.96 C90.57,153.98 90.57,153.98 90.70,154.00 C90.81,154.03 90.81,154.03 90.92,154.07 C91.01,154.12 91.01,154.13 91.11,154.18 "/><path d="M89.41,152.43 C89.63,152.40 89.63,152.39 89.86,152.37 C90.23,152.37 90.23,152.37 90.59,152.39 C90.94,152.44 90.94,152.44 91.30,152.50 C91.52,152.57 91.52,152.57 91.75,152.64 "/><path d="M92.04,147.39 C91.92,147.32 91.92,147.32 91.80,147.25 C91.63,147.19 91.63,147.19 91.45,147.14 C91.27,147.11 91.27,147.11 91.08,147.08 C90.88,147.07 90.88,147.07 90.69,147.07 C90.52,147.09 90.52,147.09 90.34,147.11 C90.21,147.16 90.21,147.16 90.08,147.20 "/><path d="M92.10,146.71 C91.98,146.64 91.97,146.64 91.85,146.57 C91.70,146.53 91.70,146.53 91.56,146.48 C91.35,146.44 91.35,146.44 91.14,146.41 C90.95,146.40 90.94,146.40 90.75,146.40 C90.58,146.42 90.58,146.42 90.41,146.44 C90.27,146.49 90.27,146.49 90.14,146.53 "/><path d="M92.72,153.64 L92.69,153.33 L92.42,153.04 "/><path d="M88.67,152.69 L88.35,152.94 L88.27,153.23 L88.29,153.28 "/><path d="M89.76,154.06 L89.67,154.13 L89.64,154.23 L89.69,154.34 "/><path d="M91.12,154.47 L91.19,154.37 L91.18,154.27 L91.11,154.19 L91.09,154.24 L91.05,154.28 L90.99,154.31 "/><path d="M89.85,154.21 L89.77,154.12 L89.76,154.06 "/><path d="M89.77,154.12 L89.76,154.06 "/><path d="M92.20,147.68 L92.18,147.54 L92.04,147.39 "/><path d="M90.08,147.20 L89.91,147.33 L89.86,147.47 "/><path d="M91.09,154.24 L91.11,154.19 "/></g><g style="stroke:#000000;stroke-width:0.529"><path d="M88.60,153.89 C88.75,154.02 88.75,154.02 88.89,154.16 C89.03,154.27 89.03,154.27 89.18,154.37 C89.38,154.46 89.39,154.46 89.60,154.55 C89.70,154.57 89.70,154.57 89.79,154.60 C89.98,154.65 89.98,154.65 90.18,154.69 C90.38,154.71 90.38,154.71 90.59,154.73 C90.88,154.71 90.88,154.71 91.18,154.69 C91.40,154.65 91.41,154.65 91.63,154.59 C91.79,154.52 91.79,154.52 91.94,154.43 C92.11,154.33 92.11,154.33 92.28,154.23 "/><path d="M90.14,146.53 C90.45,146.42 90.45,146.42 90.76,146.31 C90.85,146.30 90.85,146.30 90.94,146.29 C91.05,146.29 91.05,146.29 91.15,146.30 C91.25,146.31 91.25,146.31 91.35,146.33 C91.44,146.35 91.44,146.35 91.52,146.38 "/><path d="M92.28,154.23 L92.73,153.62 L92.69,153.27 L92.40,152.96 L91.93,152.70 L91.75,152.64 "/><path d="M89.41,152.43 L89.21,152.45 L88.70,152.62 L88.37,152.88 L88.27,153.19 L88.27,153.23 "/><path d="M88.29,153.28 L88.60,153.89 "/><path d="M89.41,152.43 L89.92,146.82 L89.97,146.66 L90.14,146.53 "/><path d="M91.52,146.38 L92.10,146.71 L92.24,146.87 L92.26,147.03 L91.75,152.64 "/></g></g><g id="Actor_.1"><g style="stroke:#000000;stroke-width:0.176"/><g style="stroke:#000000;stroke-width:0.529"><path d="M87.54,45.10 C87.60,44.93 87.61,44.93 87.68,44.75 C87.82,44.57 87.82,44.57 87.97,44.39 C88.16,44.26 88.16,44.26 88.35,44.14 C88.61,44.05 88.62,44.05 88.88,43.98 "/><path d="M89.32,43.90 C89.54,43.87 89.54,43.87 89.76,43.84 C89.97,43.82 89.97,43.82 90.18,43.80 C90.46,43.79 90.46,43.79 90.75,43.80 C90.95,43.85 90.96,43.85 91.16,43.93 "/><path d="M88.88,43.98 L89.04,43.95 L89.32,43.90 "/></g></g><g id="Actor_.2"><g style="stroke:#000000;stroke-width:0.176"><path d="M155.08,136.84 C154.88,136.69 154.88,136.69 154.68,136.56 C154.52,136.48 154.52,136.49 154.35,136.42 C154.23,136.37 154.23,136.37 154.11,136.32 C153.76,136.24 153.76,136.24 153.42,136.17 C153.05,136.13 153.05,136.13 152.68,136.11 C152.33,136.12 152.33,136.12 151.98,136.15 C151.68,136.21 151.68,136.21 151.39,136.28 C151.18,136.39 151.18,136.39 150.98,136.50 "/><path d="M152.27,137.74 C152.31,137.71 152.31,137.71 152.36,137.69 C152.47,137.66 152.47,137.66 152.57,137.64 C152.69,137.63 152.69,137.63 152.81,137.63 C152.94,137.64 152.94,137.64 153.07,137.65 C153.19,137.67 153.19,137.67 153.31,137.70 C153.41,137.74 153.41,137.74 153.51,137.78 C153.58,137.83 153.58,137.83 153.65,137.88 "/><path d="M153.58,138.18 C153.49,138.21 153.49,138.21 153.40,138.24 C153.29,138.26 153.29,138.26 153.17,138.27 C153.05,138.27 153.04,138.27 152.92,138.27 C152.79,138.25 152.79,138.25 152.66,138.23 C152.55,138.20 152.55,138.20 152.44,138.16 C152.35,138.12 152.35,138.12 152.27,138.07 "/><path d="M152.32,137.84 C152.37,137.89 152.37,137.89 152.44,137.93 C152.52,137.97 152.52,137.97 152.61,138.00 C152.72,138.03 152.72,138.03 152.82,138.05 C152.93,138.06 152.93,138.06 153.05,138.07 C153.15,138.06 153.15,138.06 153.26,138.05 C153.35,138.04 153.35,138.04 153.44,138.01 C153.50,137.98 153.50,137.98 153.56,137.95 "/><path d="M154.09,136.25 C153.76,136.17 153.76,136.17 153.42,136.10 C153.06,136.06 153.05,136.06 152.69,136.04 C152.35,136.05 152.35,136.06 152.01,136.08 C151.96,136.09 151.96,136.09 151.92,136.10 "/><path d="M152.47,130.95 C152.58,130.89 152.58,130.89 152.69,130.83 C152.84,130.80 152.85,130.80 153.00,130.76 C153.18,130.75 153.18,130.75 153.37,130.74 C153.56,130.76 153.56,130.76 153.75,130.77 C153.94,130.81 153.94,130.81 154.12,130.86 C154.27,130.91 154.27,130.91 154.42,130.98 C154.52,131.05 154.53,131.05 154.63,131.12 "/><path d="M154.48,130.31 C154.33,130.24 154.33,130.24 154.18,130.18 C154.00,130.14 154.00,130.14 153.82,130.10 C153.62,130.09 153.62,130.09 153.43,130.07 C153.25,130.08 153.25,130.08 153.06,130.09 C152.91,130.13 152.91,130.13 152.76,130.16 "/><path d="M155.17,137.44 L155.25,137.14 L155.08,136.84 "/><path d="M150.98,136.50 L150.79,136.78 "/><path d="M153.65,137.88 L153.71,137.99 L153.68,138.09 L153.58,138.18 "/><path d="M152.27,138.07 L152.17,137.97 L152.15,137.86 L152.22,137.76 L152.26,137.74 "/><path d="M152.26,137.75 L152.32,137.84 "/><path d="M153.56,137.95 L153.62,137.86 "/><path d="M154.26,136.32 L154.09,136.25 "/><path d="M152.38,131.09 L152.47,130.95 "/><path d="M154.63,131.12 L154.72,131.28 "/></g><g style="stroke:#000000;stroke-width:0.529"><path d="M150.84,137.08 C150.93,137.26 150.93,137.27 151.03,137.45 C151.15,137.58 151.15,137.58 151.28,137.71 C151.41,137.84 151.41,137.84 151.54,137.95 C151.72,138.06 151.73,138.06 151.91,138.15 C152.21,138.24 152.21,138.24 152.51,138.33 C152.71,138.37 152.72,138.36 152.92,138.39 C153.12,138.40 153.12,138.40 153.32,138.40 C153.64,138.36 153.64,138.36 153.96,138.32 C154.15,138.26 154.15,138.26 154.33,138.19 C154.49,138.09 154.49,138.09 154.64,137.99 C154.78,137.88 154.78,137.88 154.92,137.77 C155.05,137.61 155.05,137.60 155.17,137.44 "/><path d="M152.54,130.28 C152.65,130.22 152.65,130.22 152.76,130.16 C152.97,130.09 152.97,130.09 153.19,130.01 C153.27,129.99 153.27,129.99 153.35,129.98 C153.45,129.97 153.45,129.97 153.54,129.96 C153.65,129.97 153.65,129.97 153.75,129.98 C153.84,130.00 153.85,130.00 153.94,130.02 C154.02,130.05 154.02,130.05 154.10,130.09 C154.29,130.20 154.29,130.20 154.48,130.31 C154.59,130.38 154.59,130.38 154.69,130.46 "/><path d="M151.92,136.10 L151.42,136.21 L150.99,136.44 L150.79,136.73 L150.84,137.08 "/><path d="M155.17,137.44 L155.25,137.10 L155.07,136.78 L154.67,136.48 L154.26,136.32 "/><path d="M151.92,136.10 L152.44,130.42 L152.54,130.28 "/><path d="M154.69,130.46 L154.78,130.61 L154.26,136.32 "/></g></g><g id="Actor_.3"><g style="stroke:#000000;stroke-width:0.176"><path d="M170.73,30.64 C170.43,30.67 170.43,30.67 170.13,30.70 C169.78,30.74 169.78,30.74 169.42,30.78 C169.06,30.83 169.06,30.83 168.69,30.89 C168.35,30.94 168.35,30.94 168.01,31.00 "/><path d="M171.01,30.63 L170.73,30.64 "/><path d="M168.01,31.00 L167.81,31.04 "/></g><g style="stroke:#000000;stroke-width:0.529"><path d="M166.99,31.14 C167.05,30.98 167.05,30.98 167.12,30.82 C167.26,30.64 167.26,30.63 167.41,30.46 C167.60,30.32 167.60,30.32 167.80,30.20 "/><path d="M168.62,29.97 C168.87,29.94 168.87,29.94 169.12,29.90 C169.24,29.88 169.24,29.88 169.36,29.87 C169.54,29.86 169.54,29.85 169.72,29.84 C169.93,29.84 169.93,29.84 170.14,29.84 "/><path d="M170.26,29.85 C170.49,29.91 170.49,29.91 170.71,29.99 C170.90,30.12 170.90,30.12 171.09,30.26 C171.22,30.42 171.22,30.42 171.33,30.58 "/><path d="M167.80,30.20 L167.88,30.16 L168.43,30.01 L168.62,29.97 "/><path d="M170.14,29.84 L170.26,29.85 "/></g></g><g id="Actor_.4"><g style="stroke:#000000;stroke-width:0.176"><path d="M129.04,127.85 C129.97,128.20 129.97,128.20 130.91,128.52 C131.48,128.60 131.48,128.59 132.06,128.65 C132.61,128.65 132.62,128.66 133.18,128.64 C134.03,128.41 134.04,128.41 134.88,128.16 "/><path d="M86.38,137.27 L86.56,136.06 "/><path d="M86.47,137.07 L108.25,110.82 L108.34,109.81 "/><path d="M91.07,134.35 L92.32,134.80 L93.32,134.62 L93.47,134.31 L92.77,133.88 L92.00,133.78 L91.09,134.03 L91.07,134.35 "/><path d="M92.29,151.86 L168.88,138.41 "/><path d="M94.94,142.50 L93.37,142.78 L92.25,146.90 "/><path d="M167.76,139.24 L92.78,152.40 "/><path d="M94.93,142.70 L93.33,142.98 L93.32,142.62 "/><path d="M93.14,142.46 L93.37,142.78 "/><path d="M97.11,128.49 L96.27,128.09 L96.29,127.77 L97.57,127.54 L98.66,128.05 L98.28,128.46 L97.11,128.49 "/><path d="M98.26,163.76 L194.86,146.79 L195.78,147.79 L99.17,164.76 "/><path d="M97.32,142.28 L99.63,141.87 "/><path d="M97.34,142.08 L99.39,141.72 "/><path d="M101.61,121.96 L101.48,121.50 L102.37,121.26 L103.43,121.45 L103.84,121.96 L102.72,122.27 L101.61,121.96 "/><path d="M134.80,135.70 L103.02,141.28 "/><path d="M134.55,135.55 L103.10,141.07 "/><path d="M105.97,167.16 L202.58,150.19 L195.78,147.79 L195.75,146.72 L195.25,146.18 L194.86,146.79 L189.39,135.44 L188.89,134.90 L171.28,137.99 "/><path d="M106.07,164.32 L106.07,164.11 L106.89,163.92 L108.32,164.11 L107.61,164.43 L106.07,164.32 "/><path d="M106.65,115.57 L107.90,116.01 L108.64,115.94 L109.05,115.53 L108.38,115.10 L107.58,115.00 L106.67,115.24 L106.65,115.57 "/><path d="M108.25,110.82 L108.82,110.51 L110.28,110.46 L110.37,109.45 "/><path d="M109.68,165.59 L110.88,165.75 L111.96,165.50 L111.65,165.26 L110.54,165.21 L109.69,165.41 L109.68,165.59 "/><path d="M109.62,165.49 L109.62,165.50 "/><path d="M110.28,110.46 L181.36,120.41 L181.46,119.40 "/><path d="M111.37,163.47 L111.20,163.21 L112.04,163.01 L113.48,163.21 L112.77,163.53 L111.37,163.47 "/><path d="M115.00,164.76 L114.83,164.54 L115.70,164.30 L117.13,164.50 L116.42,164.82 L115.00,164.76 "/><path d="M114.78,164.60 L114.78,164.58 "/><path d="M119.62,113.11 L119.86,113.44 L120.52,113.68 L121.32,113.72 L122.06,113.41 L121.73,112.94 L121.01,112.74 L119.93,112.82 L119.62,113.11 "/><path d="M128.66,126.42 L128.40,127.04 L129.04,127.85 "/><path d="M134.88,128.16 L135.21,127.82 L135.31,127.34 L135.11,127.01 "/><path d="M137.33,116.01 L136.63,115.65 L136.65,115.33 L137.94,115.10 L138.81,115.39 L139.01,115.78 L138.27,116.09 L137.33,116.01 "/><path d="M152.23,132.63 L138.19,135.10 "/><path d="M138.27,134.90 L152.25,132.44 "/><path d="M149.62,157.88 L148.85,157.52 L149.80,157.10 L151.08,156.99 L152.28,157.09 L152.88,157.35 L152.64,157.67 L151.65,157.90 L149.62,157.88 "/><path d="M154.08,118.33 L153.53,117.86 L154.07,117.50 L155.19,117.53 L155.98,117.99 L155.57,118.40 L154.08,118.33 "/><path d="M192.89,127.33 L192.63,127.04 L189.81,126.05 L154.63,132.21 "/><path d="M181.36,120.41 L182.64,120.85 L189.52,125.90 L154.65,132.02 "/><path d="M170.83,120.61 L170.48,120.23 L171.03,119.87 L172.24,119.92 L172.93,120.36 L172.81,120.64 L172.18,120.84 L170.83,120.61 "/><path d="M189.78,134.82 L189.39,135.44 L171.22,138.63 "/><path d="M182.64,120.85 L182.74,119.84 "/><path d="M185.12,150.63 L184.66,150.50 L184.68,150.31 L185.90,150.10 L186.95,150.31 L186.57,150.57 L185.12,150.63 "/><path d="M188.26,151.70 L189.56,151.39 L190.60,151.60 L189.51,151.95 L188.26,151.68 "/><path d="M189.76,149.50 L190.63,149.75 L192.10,149.50 L191.76,149.25 L191.06,149.19 L189.76,149.50 "/><path d="M188.89,134.90 L188.88,134.47 L188.89,134.90 "/><path d="M188.88,134.47 L189.15,133.99 "/><path d="M189.76,124.97 L189.79,126.04 L189.52,125.90 L189.61,124.89 "/><path d="M192.63,127.04 L192.60,125.97 "/><path d="M193.93,151.01 L195.73,150.80 L195.09,150.50 L193.49,150.70 L193.47,150.88 L193.93,151.01 "/><path d="M193.42,150.80 L193.42,150.77 "/><path d="M195.25,146.18 L193.97,143.52 "/><path d="M195.75,146.72 L202.55,149.12 L202.58,150.19 L202.91,150.23 "/><path d="M202.34,149.04 L203.02,148.92 L202.55,149.12 "/><path d="M203.46,149.83 L203.02,148.92 L207.42,142.06 L207.86,142.97 "/><path d="M207.51,141.51 L207.42,142.06 "/></g><g style="stroke:#000000;stroke-width:0.529"><path d="M98.84,164.56 C98.53,164.18 98.53,164.17 98.26,163.77 C95.50,158.09 95.53,158.08 92.78,152.40 C92.63,152.18 92.63,152.18 92.46,151.97 "/><path d="M128.66,126.42 C129.32,126.13 129.33,126.13 130.01,125.87 C130.54,125.80 130.55,125.81 131.08,125.77 C132.20,125.89 132.21,125.89 133.33,126.04 C133.81,126.20 133.81,126.20 134.28,126.38 C134.70,126.68 134.70,126.68 135.10,127.00 "/><path d="M134.25,127.46 C133.21,127.58 133.19,127.58 132.15,127.65 C131.05,127.47 131.05,127.45 129.96,127.23 C129.54,127.05 129.54,127.05 129.13,126.84 "/><path d="M193.97,143.52 L189.81,134.89 L189.22,134.04 L192.88,127.34 L192.83,126.10 L189.61,124.89 L182.40,119.65 L109.85,109.41 L108.98,109.49 L108.34,109.81 L86.56,136.06 L86.38,137.27 L86.66,137.70 L93.14,142.46 L91.99,146.65 "/><path d="M193.97,143.52 L206.97,141.28 L207.51,141.51 L207.99,142.67 L203.46,149.83 L202.91,150.23 L106.30,167.19 L98.84,164.56 "/><path d="M92.46,151.97 L91.84,151.70 "/><path d="M129.13,126.84 L128.66,126.42 "/><path d="M135.10,127.00 L134.25,127.46 "/></g></g><g id="Actor_.5"><g style="stroke:#000000;stroke-width:0.176"/><g style="stroke:#000000;stroke-width:0.529"><path d="M103.48,39.91 C103.54,39.74 103.54,39.74 103.62,39.58 C103.76,39.39 103.76,39.39 103.91,39.21 C104.10,39.08 104.10,39.07 104.30,38.95 "/><path d="M105.33,38.69 C105.58,38.66 105.58,38.66 105.83,38.62 C106.02,38.61 106.02,38.61 106.21,38.59 C106.48,38.59 106.48,38.59 106.75,38.60 C106.98,38.66 106.98,38.66 107.19,38.74 "/><path d="M104.30,38.95 L104.36,38.92 L104.79,38.80 L104.91,38.77 L105.09,38.73 L105.33,38.69 "/><path d="M107.19,38.74 L107.28,38.80 "/></g></g><g id="Actor_.6"><g style="stroke:#000000;stroke-width:0.176"/><g style="stroke:#000000;stroke-width:0.529"><path d="M92.84,43.38 C92.90,43.21 92.90,43.20 92.97,43.04 C93.11,42.85 93.12,42.85 93.27,42.67 C93.46,42.54 93.46,42.54 93.66,42.41 "/><path d="M93.66,42.41 L93.74,42.38 L94.16,42.26 L94.29,42.23 L94.49,42.19 L94.99,42.12 L95.44,42.07 L95.58,42.06 L96.01,42.06 L96.12,42.07 L96.49,42.19 "/></g></g><g id="Actor_.7"><g style="stroke:#000000;stroke-width:0.176"><path d="M68.21,63.67 C68.98,91.56 68.98,91.58 69.88,119.46 C70.17,120.46 70.22,120.47 70.59,121.45 C70.84,121.82 70.84,121.82 71.12,122.16 "/><path d="M89.35,109.25 C88.91,108.32 88.91,108.32 88.49,107.38 C88.10,106.28 88.10,106.28 87.73,105.16 C87.12,102.49 87.10,102.49 86.54,99.80 C86.13,96.39 86.11,96.38 85.80,92.96 C86.00,91.18 86.00,91.16 86.32,89.40 "/><path d="M86.32,89.40 C85.91,87.85 85.90,87.82 85.61,86.24 C85.72,82.68 85.75,82.67 85.95,79.11 C86.35,75.65 86.35,75.65 86.80,72.19 C87.43,69.04 87.43,69.04 88.11,65.90 "/><path d="M89.89,60.35 C91.01,58.11 91.01,58.10 92.19,55.89 C92.78,55.13 92.79,55.13 93.43,54.41 C94.04,53.92 94.05,53.92 94.69,53.46 "/><path d="M156.96,48.96 C154.87,47.97 154.86,47.97 152.75,47.04 C150.79,46.47 150.78,46.47 148.81,45.95 C146.79,45.65 146.79,45.65 144.77,45.39 C142.74,45.36 142.73,45.36 140.71,45.38 C138.70,45.62 138.70,45.62 136.70,45.92 C134.78,46.42 134.77,46.42 132.87,46.97 C131.00,47.74 131.00,47.75 129.16,48.57 C127.45,49.58 127.44,49.58 125.76,50.64 C124.27,51.83 124.27,51.83 122.82,53.06 C121.41,54.54 121.40,54.54 120.04,56.07 C118.87,57.75 118.87,57.75 117.75,59.46 "/><path d="M162.72,52.79 C163.99,53.99 164.00,53.99 165.25,55.23 C166.38,56.57 166.38,56.57 167.48,57.93 C168.49,59.45 168.49,59.46 169.46,61.00 C170.26,62.57 170.26,62.58 171.01,64.17 C171.61,65.82 171.61,65.83 172.17,67.49 C172.56,69.20 172.57,69.20 172.92,70.91 "/><path d="M170.09,88.26 C170.86,86.59 170.86,86.59 171.59,84.89 C172.10,83.24 172.10,83.23 172.57,81.56 C172.86,79.88 172.86,79.88 173.12,78.19 "/><path d="M67.24,62.71 L68.11,62.56 L68.21,63.67 "/><path d="M71.12,122.16 L75.66,124.27 L73.83,59.96 "/><path d="M68.82,118.53 L69.76,118.37 "/><path d="M68.18,62.55 L68.47,60.64 L69.34,59.65 "/><path d="M70.35,72.40 L70.91,72.61 L71.29,72.25 L71.38,70.87 L70.77,69.68 L70.23,69.57 L69.92,69.95 "/><path d="M69.80,65.47 L70.09,65.11 L70.64,65.20 L71.25,66.39 L71.16,67.77 L70.76,68.14 L70.23,67.92 "/><path d="M70.76,122.76 L71.70,122.59 "/><path d="M71.63,117.18 L72.12,117.42 L72.56,117.04 L72.65,115.65 L72.04,114.47 L71.50,114.36 L71.19,114.74 "/><path d="M71.50,112.70 L71.99,112.94 L72.43,112.56 L72.52,111.17 L71.91,109.99 L71.46,109.87 L71.07,110.26 "/><path d="M73.35,123.95 L74.17,123.81 L74.26,122.87 L72.48,60.25 "/><path d="M76.89,124.88 L76.28,124.39 L75.66,124.27 L75.89,124.52 "/><path d="M75.90,124.30 L76.13,124.55 "/><path d="M81.73,49.63 L84.11,133.33 L79.65,133.20 L78.70,132.74 L77.94,132.01 "/><path d="M78.16,132.23 L78.17,132.26 "/><path d="M79.74,72.29 L78.84,71.80 L78.16,72.02 L77.63,73.04 L78.05,73.86 "/><path d="M79.44,61.54 L78.54,61.06 L77.82,61.29 L77.32,62.29 L77.74,63.11 "/><path d="M81.12,120.65 L80.22,120.17 L79.49,120.41 L79.00,121.41 L79.42,122.23 "/><path d="M79.12,111.48 L78.69,110.66 L79.19,109.66 L79.91,109.42 L80.81,109.91 "/><path d="M78.58,92.67 L78.16,91.85 L78.65,90.85 L79.75,90.68 L80.28,91.10 "/><path d="M80.70,133.35 L80.93,133.60 "/><path d="M84.34,133.58 L84.11,133.33 L85.07,133.06 L82.69,49.45 L104.90,42.21 L106.73,106.93 L107.28,108.35 L108.98,109.49 "/><path d="M107.79,106.99 L106.73,106.93 L85.07,133.06 L85.16,133.49 "/><path d="M89.35,109.25 L89.85,109.27 L89.67,109.44 L89.35,109.25 "/><path d="M88.11,65.90 L89.16,65.94 "/><path d="M85.81,93.48 L86.86,93.53 "/><path d="M85.52,90.48 L85.82,90.08 L85.70,89.28 L85.47,89.65 L85.52,90.48 "/><path d="M85.93,87.80 L86.98,87.85 "/><path d="M85.61,86.24 L86.66,86.30 "/><path d="M86.04,91.50 L87.09,91.56 "/><path d="M87.15,135.35 L108.74,109.32 L108.83,108.31 "/><path d="M88.11,65.89 L88.39,65.23 L88.95,65.15 L89.39,64.44 L89.89,60.35 "/><path d="M94.69,53.46 L95.96,53.07 L96.81,53.18 "/><path d="M89.58,65.18 L88.95,65.15 "/><path d="M88.75,63.11 L88.95,62.33 L89.15,62.79 L88.99,63.58 L88.75,63.11 "/><path d="M90.12,110.74 L90.28,111.44 L90.51,110.76 L90.31,110.16 L90.12,110.74 "/><path d="M90.42,108.59 L90.83,109.12 L91.35,111.91 L92.55,112.61 L93.95,112.70 "/><path d="M89.85,109.27 L90.15,108.76 "/><path d="M89.63,62.30 L90.68,62.35 "/><path d="M89.89,60.35 L90.94,60.40 "/><path d="M91.35,111.91 L92.40,111.96 "/><path d="M91.00,110.43 L92.05,110.48 "/><path d="M103.88,76.26 L104.06,75.27 L104.25,75.73 L104.09,76.52 L103.88,76.26 "/><path d="M107.26,41.01 L106.54,41.20 L106.01,41.92 L104.95,42.20 L105.13,41.16 L106.26,40.11 "/><path d="M105.99,41.98 L107.39,41.77 L107.53,42.45 L109.35,106.47 L108.03,106.44 L106.73,106.93 "/><path d="M106.01,41.92 L107.09,41.81 "/><path d="M106.54,41.20 L106.93,41.07 L106.77,39.98 "/><path d="M107.25,41.02 L107.09,39.97 "/><path d="M107.19,39.92 L107.51,41.75 L177.71,32.76 L180.08,116.37 L182.15,116.41 "/><path d="M107.34,41.77 L107.26,41.06 "/><path d="M109.20,106.74 L109.35,106.47 L109.06,109.26 L179.55,119.13 "/><path d="M109.11,108.97 L109.15,108.28 "/><path d="M109.12,108.53 L109.06,109.26 L109.29,109.44 "/><path d="M109.35,106.47 L180.08,116.37 L180.05,116.64 "/><path d="M113.46,73.98 L113.71,73.62 L114.31,73.58 L114.70,74.05 L114.52,74.61 "/><path d="M115.09,76.27 L115.24,76.01 L114.53,76.83 "/><path d="M115.24,76.01 L115.80,75.53 "/><path d="M160.57,52.75 L160.72,52.50 L159.25,52.61 L158.00,51.77 L157.65,51.11 L157.50,49.85 L156.96,48.96 "/><path d="M157.40,50.64 L157.55,50.37 "/><path d="M156.52,48.65 L156.37,48.91 "/><path d="M158.76,98.76 L158.92,98.50 L158.61,99.64 "/><path d="M158.92,98.50 L159.28,97.10 "/><path d="M160.19,51.00 L160.37,50.43 L159.98,49.96 L159.38,50.01 L159.13,50.36 "/><path d="M161.56,98.82 L161.73,98.30 L161.34,97.79 L160.74,97.84 L160.49,98.19 "/><path d="M162.56,53.05 L162.72,52.79 L161.90,52.39 L160.72,52.50 "/><path d="M172.92,70.91 L172.64,72.12 "/><path d="M173.12,78.19 L172.97,78.41 "/><path d="M172.04,76.64 L172.19,76.38 L171.21,75.25 L171.06,74.52 L171.53,73.15 "/><path d="M173.12,78.15 L172.92,77.13 L172.19,76.38 "/><path d="M173.71,74.98 L173.88,74.43 L173.49,73.96 L172.89,74.00 L172.64,74.36 "/><path d="M172.92,70.91 L172.77,71.18 "/><path d="M184.28,115.46 L183.41,115.32 L181.28,116.27 L178.91,32.57 "/><path d="M182.63,98.55 L181.04,42.73 L181.33,40.82 L182.21,39.83 L181.24,40.02 L180.68,40.50 L180.16,41.86 L180.11,42.90 L181.69,98.71 L182.63,98.55 L183.03,100.71 L183.47,101.65 L184.56,102.77 L183.63,102.94 "/><path d="M180.11,42.90 L181.04,42.73 "/><path d="M181.69,98.71 L182.09,100.87 L182.52,101.80 L183.49,102.83 "/><path d="M181.72,32.13 L182.80,33.09 L183.26,34.98 L183.49,39.98 L182.21,39.83 "/><path d="M183.50,104.20 L182.83,104.32 L182.55,103.88 L182.50,103.08 L182.88,102.29 "/><path d="M182.78,50.12 L182.64,50.94 L182.84,51.97 L183.58,52.81 L184.22,52.25 L184.23,51.03 L183.77,49.99 L183.01,49.82 L182.79,50.10 L183.33,51.38 L183.22,52.56 "/><path d="M183.09,48.09 L182.51,46.49 L182.88,45.34 L183.64,45.51 L184.16,46.83 L183.98,48.03 L183.72,48.30 L183.25,48.23 L183.12,46.49 L182.66,45.64 "/><path d="M183.41,115.32 L184.64,114.13 L185.34,112.14 L185.40,105.82 L185.96,105.00 L186.87,105.10 "/><path d="M183.92,103.07 L186.10,104.08 L186.15,104.87 L186.41,104.46 L186.21,104.13 L187.15,103.97 L185.35,40.43 "/><path d="M184.05,94.90 L183.97,96.27 L184.65,97.49 L185.34,97.37 L185.56,96.09 L185.04,94.77 L184.28,94.60 L184.06,94.88 L184.62,96.26 L184.49,97.35 "/><path d="M184.23,92.72 L183.78,91.28 L183.91,90.49 L184.37,90.03 L185.15,90.65 L185.44,92.11 L184.99,93.09 L184.23,92.72 "/><path d="M183.93,90.42 L184.49,91.78 L184.36,92.87 "/><path d="M183.49,39.98 L184.39,40.20 "/><path d="M183.38,39.41 L184.25,39.55 "/><path d="M183.26,34.98 L184.13,35.12 "/><path d="M185.29,106.62 L186.16,106.76 "/><path d="M184.56,102.77 L187.15,103.97 L187.52,104.44 "/><path d="M185.41,111.05 L186.29,111.18 "/><path d="M186.00,104.96 L187.02,105.01 "/><path d="M186.12,104.09 L186.21,104.13 "/></g><g style="stroke:#000000;stroke-width:0.529"><path d="M85.16,133.49 C83.05,133.56 83.05,133.56 80.93,133.60 C80.41,133.54 80.40,133.54 79.88,133.45 C79.40,133.23 79.39,133.23 78.93,132.99 "/><path d="M87.37,89.45 C86.97,88.16 86.96,88.13 86.68,86.81 C86.77,83.07 86.80,83.06 86.99,79.31 C87.39,75.77 87.39,75.77 87.85,72.24 C88.48,69.09 88.50,69.09 89.16,65.94 C89.29,65.61 89.29,65.60 89.45,65.28 "/><path d="M90.94,60.40 C92.06,58.16 92.07,58.16 93.24,55.95 C93.83,55.19 93.85,55.19 94.48,54.46 C95.10,53.97 95.10,53.97 95.74,53.51 "/><path d="M98.41,53.97 C98.99,54.59 98.99,54.59 99.54,55.24 C100.08,56.13 100.09,56.13 100.59,57.04 C101.49,59.53 101.49,59.54 102.34,62.05 C102.70,63.60 102.70,63.60 103.01,65.17 C103.47,68.75 103.51,68.76 103.88,72.35 C103.70,74.38 103.69,74.41 103.38,76.43 "/><path d="M103.38,76.43 C103.77,77.72 103.77,77.74 104.07,79.06 C104.06,81.36 104.03,81.37 103.96,83.67 C103.82,85.71 103.82,85.71 103.65,87.75 C103.12,91.66 103.14,91.67 102.56,95.56 C101.76,99.00 101.74,99.00 100.88,102.42 C100.39,103.88 100.40,103.89 99.87,105.33 C98.78,107.53 98.78,107.54 97.65,109.71 C97.02,110.54 97.01,110.54 96.33,111.35 C95.72,111.85 95.71,111.86 95.07,112.33 "/><path d="M90.19,108.70 C90.07,108.53 90.07,108.53 89.96,108.35 C89.05,105.56 89.00,105.57 88.16,102.77 C87.52,98.87 87.52,98.86 86.99,94.95 "/><path d="M114.20,70.53 C114.51,68.58 114.51,68.58 114.87,66.63 C115.45,64.75 115.45,64.74 116.08,62.87 C116.89,61.16 116.90,61.15 117.75,59.46 C118.79,57.89 118.80,57.88 119.88,56.33 C121.19,54.86 121.20,54.86 122.55,53.42 C124.06,52.14 124.06,52.14 125.61,50.90 C127.29,49.85 127.29,49.84 129.00,48.83 C130.82,48.02 130.83,48.01 132.67,47.25 C134.60,46.69 134.61,46.69 136.55,46.18 C138.54,45.89 138.55,45.89 140.55,45.65 C142.58,45.63 142.59,45.62 144.61,45.66 C147.12,46.03 147.12,46.05 149.62,46.48 C151.11,46.88 151.12,46.87 152.60,47.31 C154.66,48.20 154.66,48.20 156.70,49.15 "/><path d="M162.56,53.05 C164.39,54.89 164.40,54.90 166.17,56.79 C167.77,59.00 167.78,59.01 169.31,61.26 C170.18,63.00 170.16,63.02 170.98,64.79 C171.52,66.27 171.52,66.27 172.02,67.76 C172.41,69.46 172.41,69.47 172.77,71.18 "/><path d="M172.95,77.89 C172.71,79.86 172.71,79.86 172.42,81.82 C171.96,83.48 171.95,83.48 171.45,85.13 C170.79,86.69 170.79,86.70 170.10,88.24 C169.31,89.62 169.31,89.63 168.48,90.98 C167.44,92.36 167.44,92.37 166.36,93.72 C164.96,95.09 164.95,95.10 163.51,96.43 "/><path d="M157.98,100.21 C156.16,101.01 156.15,101.01 154.30,101.77 C152.37,102.31 152.36,102.31 150.42,102.81 C148.42,103.09 148.41,103.09 146.41,103.31 C144.38,103.32 144.38,103.32 142.35,103.27 C140.40,103.02 140.39,103.01 138.45,102.71 C136.41,102.16 136.40,102.16 134.38,101.57 C132.50,100.78 132.49,100.78 130.64,99.94 C128.86,98.91 128.85,98.91 127.10,97.82 C125.33,96.41 125.33,96.40 123.59,94.95 C122.31,93.65 122.31,93.65 121.07,92.31 C119.84,90.69 119.84,90.68 118.66,89.02 C117.67,87.26 117.66,87.25 116.73,85.46 C115.83,82.94 115.83,82.93 115.00,80.39 "/><path d="M87.15,135.35 L85.97,134.77 L85.16,133.49 "/><path d="M78.93,132.99 L77.94,132.01 L77.45,131.08 L77.13,125.61 L76.89,124.88 L73.82,124.13 L70.76,122.76 L69.65,121.62 L69.23,120.69 L68.82,118.53 L67.30,61.68 L67.91,60.16 L68.41,59.81 L69.91,59.62 L72.69,60.25 L74.78,59.50 L75.22,58.40 L75.23,52.90 L76.38,51.06 L77.30,50.46 L82.69,49.45 L83.07,48.19 L84.03,47.36 L106.77,39.98 L177.05,30.97 L177.71,32.76 L181.05,32.11 L182.59,32.26 L183.11,32.56 L184.00,34.10 L184.30,39.93 L184.39,40.20 L185.59,40.51 L185.73,41.33 L187.52,104.44 L186.63,105.31 L186.19,106.36 L186.21,112.28 L185.51,114.27 L184.28,115.46 L182.15,116.41 L180.05,116.64 L179.55,119.13 "/><path d="M69.88,71.49 L70.31,72.36 L70.44,71.03 L69.92,69.95 L69.88,71.49 "/><path d="M69.77,67.07 L70.18,67.88 L70.31,66.55 L69.80,65.47 L69.77,67.07 "/><path d="M71.13,116.17 L71.58,117.15 L71.71,115.82 L71.19,114.74 L71.13,116.17 "/><path d="M71.22,112.31 L70.93,111.35 L71.07,110.26 L71.58,111.34 L71.50,112.70 L71.22,112.31 "/><path d="M78.16,73.95 L77.86,73.29 L78.35,72.29 L79.07,72.05 L79.74,72.29 L79.92,73.05 L79.59,73.74 L78.91,74.09 L78.16,73.95 "/><path d="M78.16,63.32 L77.63,62.91 L77.78,61.82 L78.77,61.31 L79.44,61.54 L79.62,62.31 L79.27,62.99 L78.16,63.32 "/><path d="M79.27,121.89 L79.27,121.34 L79.73,120.66 L80.39,120.43 L81.09,120.64 L81.30,121.42 L80.65,122.34 L79.90,122.45 L79.27,121.89 "/><path d="M79.24,111.58 L79.98,111.71 L80.65,111.36 L80.99,110.67 L80.85,109.95 L80.14,109.67 L79.42,109.91 L78.92,110.91 L79.24,111.58 "/><path d="M79.06,92.90 L78.46,92.47 L78.61,91.38 L79.23,90.92 L80.28,91.10 L80.46,91.86 L80.12,92.55 L79.06,92.90 "/><path d="M86.99,94.95 L86.85,93.01 L87.37,89.45 "/><path d="M89.45,65.28 L90.00,65.20 L90.44,64.50 L90.94,60.40 "/><path d="M95.74,53.51 L97.14,53.23 L98.41,53.97 "/><path d="M95.07,112.33 L93.61,112.66 L92.40,111.96 L91.70,108.78 L90.19,108.70 "/><path d="M107.83,107.23 L108.36,108.08 L109.12,108.53 L109.20,106.86 L108.30,106.70 L107.79,106.99 L107.83,107.23 "/><path d="M113.74,74.67 L113.46,73.98 L113.96,73.79 L114.34,73.96 L114.55,74.52 L114.14,74.78 L113.74,74.67 "/><path d="M115.00,80.39 L114.40,77.25 L114.68,76.60 L115.65,75.80 L116.26,74.16 L115.72,72.79 L114.40,71.55 L114.20,70.53 "/><path d="M156.70,49.15 L157.34,50.12 L157.50,51.38 L157.85,52.04 L158.55,52.63 L159.85,52.94 L161.60,52.61 L162.56,53.05 "/><path d="M172.77,71.18 L172.64,72.12 L171.53,73.15 L170.91,74.78 L171.45,76.16 L172.46,76.97 L172.95,77.89 "/><path d="M163.51,96.43 L162.48,96.57 L161.24,96.23 L159.81,96.59 L158.82,98.03 L158.61,99.64 L157.98,100.21 "/><path d="M159.41,51.06 L159.13,50.36 L159.63,50.17 L160.01,50.34 L160.22,50.90 L159.81,51.16 L159.41,51.06 "/><path d="M160.50,98.57 L160.49,98.19 L160.98,98.01 L161.47,98.30 L161.58,98.74 L160.96,98.97 L160.50,98.57 "/><path d="M172.72,74.84 L173.32,75.16 L173.74,74.84 L173.52,74.34 L173.13,74.17 L172.73,74.27 L172.72,74.84 "/><path d="M183.73,103.88 L183.52,104.18 L183.48,102.85 L183.92,103.07 L183.73,103.88 "/></g></g><g id="Actor_.8"><g style="stroke:#000000;stroke-width:0.176"><path d="M98.82,140.33 C99.01,140.22 99.01,140.22 99.21,140.11 C99.29,140.08 99.29,140.09 99.37,140.07 C99.58,140.01 99.58,140.01 99.78,139.96 C100.13,139.93 100.13,139.93 100.47,139.91 C100.84,139.93 100.84,139.93 101.21,139.96 C101.56,140.03 101.56,140.03 101.91,140.10 C102.21,140.21 102.21,140.21 102.50,140.33 C102.71,140.46 102.72,140.46 102.92,140.61 "/><path d="M100.16,141.88 C100.25,141.93 100.25,141.93 100.34,141.97 C100.45,142.01 100.45,142.01 100.57,142.04 C100.70,142.06 100.70,142.06 100.82,142.07 C100.95,142.08 100.95,142.08 101.08,142.07 C101.19,142.06 101.19,142.06 101.30,142.04 C101.38,142.01 101.39,142.01 101.47,141.97 "/><path d="M101.51,141.67 C101.44,141.62 101.44,141.62 101.37,141.58 C101.27,141.54 101.27,141.54 101.16,141.50 C101.11,141.49 101.11,141.49 101.05,141.48 C100.99,141.46 100.99,141.46 100.92,141.45 C100.79,141.44 100.79,141.44 100.66,141.43 C100.54,141.44 100.54,141.44 100.42,141.45 C100.32,141.47 100.32,141.47 100.22,141.50 C100.15,141.54 100.15,141.54 100.08,141.58 "/><path d="M100.20,141.66 C100.26,141.70 100.27,141.70 100.33,141.74 C100.42,141.78 100.42,141.78 100.51,141.81 C100.62,141.83 100.62,141.83 100.72,141.85 C100.84,141.86 100.84,141.86 100.95,141.87 C101.05,141.86 101.05,141.86 101.16,141.85 C101.25,141.83 101.25,141.83 101.33,141.81 C101.39,141.78 101.39,141.78 101.45,141.74 "/><path d="M101.91,140.03 C101.56,139.96 101.56,139.96 101.21,139.89 C100.85,139.86 100.85,139.86 100.49,139.84 C100.14,139.86 100.14,139.86 99.79,139.90 "/><path d="M100.33,134.77 C100.43,134.70 100.43,134.70 100.54,134.65 C100.69,134.61 100.69,134.61 100.84,134.57 C101.02,134.56 101.02,134.56 101.20,134.55 C101.40,134.56 101.40,134.56 101.59,134.57 C101.77,134.61 101.77,134.61 101.96,134.65 C102.11,134.70 102.11,134.70 102.27,134.76 C102.38,134.83 102.38,134.83 102.48,134.91 "/><path d="M102.33,134.09 C102.17,134.03 102.17,134.03 102.02,133.98 C101.83,133.94 101.83,133.94 101.65,133.90 C101.46,133.88 101.46,133.88 101.26,133.87 C101.08,133.89 101.08,133.88 100.90,133.90 C100.75,133.94 100.75,133.94 100.60,133.98 "/><path d="M98.66,140.61 L98.82,140.33 "/><path d="M102.92,140.61 L103.12,140.91 L103.07,141.21 "/><path d="M101.47,141.97 L101.57,141.88 L101.58,141.78 L101.51,141.67 "/><path d="M100.08,141.58 L100.03,141.68 L100.05,141.78 L100.16,141.88 "/><path d="M100.15,141.54 L100.14,141.56 L100.14,141.55 "/><path d="M100.14,141.56 L100.20,141.66 "/><path d="M101.45,141.74 L101.50,141.66 "/><path d="M102.13,140.12 L101.91,140.03 "/><path d="M100.25,134.91 L100.33,134.77 "/><path d="M102.48,134.91 L102.59,135.07 "/></g><g style="stroke:#000000;stroke-width:0.529"><path d="M98.92,141.28 C99.18,141.54 99.18,141.54 99.45,141.78 C99.64,141.88 99.64,141.88 99.84,141.97 C100.13,142.06 100.13,142.06 100.43,142.14 C100.64,142.17 100.64,142.17 100.84,142.20 C101.04,142.20 101.04,142.20 101.24,142.20 C101.56,142.16 101.56,142.16 101.88,142.11 C102.06,142.04 102.06,142.04 102.24,141.97 C102.40,141.87 102.40,141.87 102.56,141.77 C102.69,141.66 102.69,141.66 102.81,141.54 C102.94,141.38 102.94,141.38 103.07,141.21 "/><path d="M102.55,134.24 C102.44,134.17 102.44,134.17 102.33,134.09 C102.15,133.99 102.15,133.99 101.96,133.88 C101.88,133.85 101.88,133.85 101.80,133.82 C101.70,133.80 101.70,133.80 101.61,133.78 C101.50,133.77 101.50,133.77 101.40,133.77 C101.30,133.77 101.30,133.77 101.21,133.78 C101.13,133.80 101.13,133.80 101.05,133.82 C100.82,133.90 100.82,133.90 100.60,133.98 C100.50,134.03 100.50,134.03 100.40,134.10 "/><path d="M99.79,139.90 L99.24,140.04 L98.85,140.26 L98.65,140.59 L98.73,140.92 L98.92,141.28 "/><path d="M103.07,141.21 L103.12,140.87 L102.92,140.55 L102.49,140.26 L102.13,140.12 L102.65,134.40 L102.55,134.24 "/><path d="M100.40,134.10 L100.31,134.24 L99.79,139.90 "/></g></g><g id="Actor_.9"><g style="stroke:#000000;stroke-width:0.176"><path d="M121.02,131.96 C120.78,131.82 120.78,131.82 120.53,131.70 C120.22,131.59 120.22,131.59 119.90,131.50 C119.54,131.44 119.54,131.44 119.18,131.38 C118.81,131.37 118.81,131.37 118.45,131.37 C118.12,131.41 118.11,131.40 117.79,131.45 C117.53,131.53 117.53,131.53 117.27,131.63 "/><path d="M119.73,133.40 C119.65,133.44 119.65,133.44 119.58,133.47 C119.48,133.50 119.48,133.50 119.37,133.52 C119.25,133.53 119.25,133.53 119.13,133.53 C119.00,133.52 119.00,133.52 118.87,133.51 C118.75,133.48 118.75,133.48 118.63,133.45 C118.53,133.41 118.53,133.41 118.43,133.37 C118.36,133.32 118.36,133.32 118.30,133.27 "/><path d="M118.38,132.98 C118.47,132.94 118.47,132.94 118.56,132.91 C118.68,132.90 118.68,132.90 118.79,132.89 C118.92,132.89 118.92,132.89 119.05,132.89 C119.17,132.91 119.17,132.91 119.30,132.93 C119.40,132.96 119.41,132.96 119.51,133.00 C119.60,133.04 119.60,133.04 119.69,133.09 "/><path d="M120.35,131.57 C120.12,131.50 120.12,131.49 119.89,131.43 C119.54,131.37 119.54,131.37 119.19,131.32 C118.83,131.30 118.83,131.30 118.47,131.30 C118.24,131.32 118.24,131.32 118.01,131.36 "/><path d="M118.45,133.14 C118.53,133.18 118.53,133.18 118.60,133.22 C118.70,133.25 118.70,133.25 118.79,133.28 C118.90,133.30 118.90,133.30 119.01,133.31 C119.13,133.32 119.13,133.32 119.24,133.32 C119.34,133.31 119.34,133.31 119.44,133.29 C119.52,133.27 119.52,133.27 119.60,133.24 "/><path d="M120.64,126.32 C120.52,126.24 120.52,126.24 120.39,126.18 C120.23,126.12 120.22,126.12 120.05,126.07 C119.86,126.04 119.86,126.04 119.67,126.01 C119.48,126.00 119.48,126.00 119.29,126.00 C119.12,126.02 119.12,126.02 118.94,126.04 C118.81,126.09 118.81,126.09 118.68,126.13 "/><path d="M118.74,125.47 C118.87,125.42 118.87,125.42 119.01,125.37 C119.18,125.35 119.18,125.35 119.35,125.33 C119.54,125.33 119.54,125.33 119.73,125.34 C119.92,125.37 119.92,125.37 120.11,125.40 C120.28,125.45 120.28,125.45 120.45,125.50 C120.57,125.57 120.57,125.57 120.70,125.64 "/><path d="M121.33,132.56 L121.29,132.26 L121.02,131.96 "/><path d="M117.27,131.63 L116.95,131.87 L116.87,132.17 "/><path d="M119.71,133.12 L119.78,133.20 L119.80,133.30 L119.73,133.40 "/><path d="M118.30,133.27 L118.24,133.16 L118.27,133.06 L118.38,132.98 "/><path d="M119.69,133.09 L119.71,133.11 L119.69,133.17 L119.71,133.11 "/><path d="M118.36,132.99 L118.37,133.05 L118.36,132.99 "/><path d="M118.37,133.05 L118.45,133.14 "/><path d="M119.60,133.24 L119.69,133.17 "/><path d="M120.80,126.61 L120.78,126.47 L120.64,126.32 "/><path d="M118.68,126.13 L118.51,126.26 L118.47,126.40 "/></g><g style="stroke:#000000;stroke-width:0.529"><path d="M117.21,132.82 C117.35,132.96 117.35,132.96 117.50,133.09 C117.64,133.20 117.64,133.20 117.78,133.30 C117.99,133.39 117.99,133.39 118.21,133.48 C118.49,133.55 118.49,133.55 118.78,133.62 C118.99,133.64 118.99,133.64 119.19,133.66 C119.39,133.65 119.39,133.65 119.58,133.64 C119.69,133.63 119.69,133.63 119.79,133.62 C120.01,133.57 120.01,133.57 120.23,133.52 C120.39,133.45 120.39,133.44 120.55,133.36 C120.72,133.26 120.72,133.26 120.88,133.15 "/><path d="M120.70,125.64 C120.41,125.47 120.41,125.47 120.13,125.31 C120.04,125.28 120.04,125.28 119.95,125.26 C119.85,125.24 119.85,125.24 119.75,125.23 C119.65,125.22 119.65,125.22 119.54,125.22 C119.45,125.23 119.45,125.23 119.36,125.24 "/><path d="M118.01,131.36 L117.81,131.38 L117.30,131.56 L116.96,131.83 L116.87,132.17 L117.21,132.82 "/><path d="M120.88,133.15 L121.13,132.84 L121.34,132.54 L121.29,132.20 L121.00,131.89 L120.53,131.63 L120.35,131.57 "/><path d="M120.35,131.57 L120.86,125.96 L120.84,125.80 L120.70,125.64 "/><path d="M119.36,125.24 L118.74,125.47 L118.57,125.59 L118.53,125.75 L118.01,131.36 "/></g></g><g id="Actor_.10"><g style="stroke:#000000;stroke-width:0.176"><path d="M97.83,146.99 C97.67,146.84 97.67,146.83 97.50,146.69 C97.23,146.56 97.23,146.56 96.97,146.45 C96.63,146.35 96.63,146.35 96.30,146.27 C95.93,146.22 95.93,146.22 95.57,146.18 C95.21,146.18 95.21,146.18 94.85,146.19 C94.53,146.24 94.53,146.24 94.22,146.30 C94.00,146.39 94.01,146.39 93.79,146.48 C93.77,146.49 93.77,146.49 93.75,146.50 "/><path d="M96.24,147.87 C96.15,147.83 96.15,147.83 96.06,147.79 C95.94,147.76 95.94,147.76 95.82,147.73 C95.70,147.71 95.69,147.71 95.57,147.69 C95.44,147.69 95.44,147.69 95.32,147.70 C95.21,147.72 95.21,147.72 95.10,147.74 C95.02,147.77 95.01,147.77 94.93,147.81 "/><path d="M94.92,148.11 C94.99,148.16 94.99,148.16 95.07,148.20 C95.17,148.24 95.17,148.24 95.28,148.28 C95.40,148.30 95.40,148.30 95.53,148.33 C95.66,148.33 95.66,148.33 95.79,148.34 C95.90,148.33 95.90,148.33 96.02,148.32 C96.12,148.29 96.12,148.29 96.22,148.26 C96.28,148.23 96.28,148.22 96.35,148.18 "/><path d="M96.95,146.37 C96.62,146.28 96.62,146.28 96.29,146.20 C95.94,146.15 95.94,146.15 95.58,146.11 C95.23,146.11 95.22,146.11 94.87,146.12 C94.74,146.14 94.74,146.14 94.61,146.17 "/><path d="M94.97,147.88 C95.02,147.92 95.03,147.93 95.08,147.97 C95.16,148.01 95.16,148.01 95.24,148.05 C95.34,148.08 95.34,148.08 95.44,148.10 C95.56,148.12 95.56,148.12 95.67,148.13 C95.78,148.13 95.78,148.13 95.89,148.12 C95.98,148.11 95.98,148.11 96.08,148.09 C96.15,148.06 96.15,148.06 96.22,148.03 "/><path d="M95.21,140.98 C95.33,140.92 95.33,140.92 95.45,140.87 C95.62,140.84 95.62,140.84 95.78,140.82 C95.97,140.81 95.97,140.81 96.16,140.81 C96.35,140.83 96.35,140.83 96.54,140.86 C96.72,140.90 96.72,140.90 96.90,140.95 C97.04,141.02 97.04,141.02 97.18,141.09 C97.26,141.16 97.26,141.16 97.35,141.23 "/><path d="M95.52,140.20 C95.68,140.17 95.68,140.17 95.84,140.15 C96.03,140.14 96.03,140.14 96.22,140.14 C96.41,140.16 96.41,140.16 96.60,140.19 C96.78,140.23 96.78,140.23 96.95,140.28 C97.09,140.34 97.09,140.34 97.23,140.41 "/><path d="M97.93,147.29 L97.83,146.99 "/><path d="M93.75,146.50 L93.50,146.76 L93.48,147.06 "/><path d="M96.30,147.93 L96.24,147.87 "/><path d="M94.93,147.81 L94.85,147.89 L94.84,148.00 L94.92,148.11 "/><path d="M96.35,148.18 L96.39,148.08 L96.36,147.98 L96.31,147.93 L96.30,147.95 L96.31,147.93 "/><path d="M94.95,147.80 L94.97,147.88 "/><path d="M96.22,148.03 L96.30,147.95 "/><path d="M95.08,141.11 L95.21,140.98 "/><path d="M97.35,141.23 L97.40,141.39 "/><path d="M96.92,148.29 L96.93,148.29 "/></g><g style="stroke:#000000;stroke-width:0.529"><path d="M96.92,148.29 C96.72,148.35 96.72,148.35 96.51,148.41 C96.20,148.44 96.20,148.44 95.89,148.47 C95.69,148.46 95.69,148.46 95.49,148.44 C95.29,148.41 95.29,148.41 95.09,148.37 C94.78,148.27 94.78,148.27 94.48,148.16 C94.31,148.07 94.31,148.06 94.15,147.96 C94.01,147.84 94.01,147.83 93.87,147.71 C93.77,147.57 93.77,147.57 93.67,147.43 C93.57,147.24 93.57,147.24 93.48,147.04 "/><path d="M95.27,140.31 C95.59,140.18 95.59,140.18 95.91,140.06 C96.00,140.05 96.00,140.05 96.08,140.03 C96.18,140.03 96.18,140.03 96.28,140.03 C96.39,140.04 96.39,140.04 96.49,140.05 C96.58,140.08 96.58,140.08 96.67,140.10 C96.75,140.14 96.75,140.14 96.82,140.17 C97.03,140.29 97.03,140.29 97.23,140.41 C97.32,140.48 97.32,140.48 97.41,140.56 "/><path d="M93.48,147.04 L93.50,146.72 L93.77,146.44 L94.24,146.23 L94.61,146.17 L95.14,140.44 L95.27,140.31 "/><path d="M97.41,140.56 L97.46,140.72 L96.95,146.37 "/><path d="M96.93,148.29 L97.54,147.90 L97.79,147.58 L97.94,147.27 L97.84,146.94 L97.81,146.91 L97.48,146.62 L96.95,146.37 "/></g></g><g id="Actor_.11"><g style="stroke:#000000;stroke-width:0.176"><path d="M138.16,134.50 C137.98,134.36 137.98,134.36 137.79,134.22 C137.59,134.12 137.59,134.13 137.39,134.04 C137.31,134.01 137.31,134.01 137.24,133.98 C136.90,133.89 136.90,133.89 136.55,133.81 C136.19,133.77 136.19,133.77 135.82,133.74 C135.46,133.75 135.46,133.75 135.11,133.76 C134.81,133.82 134.80,133.82 134.50,133.89 C134.34,133.96 134.34,133.97 134.18,134.04 C134.12,134.07 134.12,134.07 134.06,134.10 "/><path d="M137.22,133.90 C136.89,133.82 136.89,133.82 136.55,133.74 C136.19,133.70 136.19,133.70 135.83,133.67 C135.48,133.68 135.48,133.68 135.14,133.69 C135.05,133.71 135.05,133.71 134.97,133.73 "/><path d="M136.67,135.49 C136.62,135.46 136.62,135.46 136.58,135.42 C136.48,135.38 136.48,135.38 136.39,135.34 C136.27,135.31 136.27,135.31 136.15,135.28 C136.02,135.27 136.02,135.27 135.89,135.26 C135.77,135.26 135.77,135.26 135.64,135.27 C135.54,135.29 135.54,135.29 135.43,135.31 C135.35,135.34 135.35,135.34 135.28,135.38 "/><path d="M135.30,135.69 C135.38,135.73 135.38,135.73 135.46,135.78 C135.57,135.82 135.57,135.82 135.68,135.85 C135.80,135.87 135.80,135.87 135.93,135.89 C136.06,135.90 136.06,135.90 136.19,135.90 C136.30,135.89 136.30,135.89 136.42,135.87 C136.51,135.85 136.51,135.85 136.60,135.82 "/><path d="M135.35,135.46 C135.41,135.50 135.41,135.50 135.46,135.55 C135.55,135.59 135.55,135.59 135.63,135.62 C135.74,135.65 135.74,135.65 135.84,135.67 C135.95,135.68 135.95,135.68 136.06,135.69 C136.17,135.69 136.17,135.69 136.28,135.68 C136.37,135.67 136.37,135.67 136.47,135.65 C136.53,135.62 136.53,135.62 136.60,135.58 "/><path d="M135.54,128.56 C135.65,128.50 135.66,128.50 135.77,128.45 C135.93,128.41 135.93,128.42 136.09,128.39 C136.28,128.38 136.28,128.38 136.46,128.37 C136.66,128.39 136.66,128.39 136.85,128.41 C137.03,128.45 137.03,128.45 137.22,128.50 C137.36,128.56 137.36,128.56 137.51,128.63 C137.60,128.70 137.60,128.70 137.69,128.77 "/><path d="M135.84,127.78 C135.99,127.74 135.99,127.74 136.15,127.71 C136.34,127.70 136.34,127.71 136.53,127.70 C136.72,127.72 136.72,127.72 136.91,127.74 C137.09,127.78 137.09,127.78 137.27,127.83 C137.41,127.89 137.42,127.89 137.56,127.95 "/><path d="M138.30,134.81 L138.16,134.50 "/><path d="M134.06,134.10 L133.84,134.37 L133.86,134.67 "/><path d="M137.31,133.94 L137.22,133.90 "/><path d="M135.28,135.38 L135.20,135.48 L135.21,135.58 L135.30,135.69 "/><path d="M136.60,135.82 L136.72,135.73 L136.76,135.63 L136.71,135.53 L136.67,135.49 "/><path d="M135.31,135.37 L135.35,135.46 "/><path d="M136.60,135.58 L136.67,135.50 "/><path d="M135.43,128.70 L135.54,128.56 "/><path d="M137.69,128.77 L137.76,128.93 "/></g><g style="stroke:#000000;stroke-width:0.529"><path d="M133.86,134.67 C133.95,134.85 133.95,134.86 134.05,135.04 C134.17,135.18 134.17,135.18 134.28,135.31 C134.42,135.43 134.42,135.44 134.55,135.55 C134.72,135.66 134.73,135.66 134.90,135.75 C135.20,135.86 135.20,135.85 135.51,135.95 C135.71,135.98 135.71,135.98 135.91,136.02 C136.11,136.02 136.11,136.03 136.32,136.03 C136.63,136.00 136.63,136.00 136.94,135.96 C137.14,135.90 137.14,135.90 137.33,135.83 C137.49,135.74 137.49,135.74 137.64,135.64 C137.79,135.54 137.79,135.54 137.94,135.43 C138.07,135.27 138.07,135.27 138.19,135.10 "/><path d="M135.61,127.89 C135.72,127.83 135.72,127.83 135.84,127.78 C136.04,127.71 136.04,127.71 136.25,127.63 C136.33,127.62 136.33,127.62 136.42,127.60 C136.52,127.59 136.52,127.59 136.62,127.59 C136.72,127.60 136.72,127.60 136.82,127.61 C136.91,127.63 136.92,127.63 137.01,127.66 C137.09,127.69 137.09,127.69 137.16,127.73 C137.36,127.84 137.36,127.84 137.56,127.95 C137.66,128.03 137.66,128.03 137.75,128.10 "/><path d="M134.97,133.73 L134.53,133.82 L134.08,134.04 L133.85,134.32 L133.86,134.67 "/><path d="M138.19,135.10 L138.30,134.77 L138.16,134.44 L137.78,134.14 L137.31,133.94 "/><path d="M134.97,133.73 L135.49,128.03 L135.61,127.89 "/><path d="M137.75,128.10 L137.82,128.26 L137.31,133.94 "/></g></g><g id="Actor_.12"><g style="stroke:#000000;stroke-width:0.176"><path d="M172.07,139.26 C171.90,139.11 171.90,139.11 171.72,138.97 C171.44,138.84 171.44,138.84 171.17,138.73 C170.83,138.64 170.83,138.64 170.49,138.56 C170.12,138.52 170.12,138.52 169.75,138.48 C169.40,138.49 169.40,138.49 169.04,138.51 C168.73,138.56 168.73,138.56 168.43,138.63 C168.21,138.72 168.20,138.72 167.99,138.83 "/><path d="M169.20,140.43 C169.28,140.48 169.28,140.48 169.36,140.52 C169.47,140.56 169.47,140.56 169.58,140.59 C169.70,140.62 169.71,140.62 169.83,140.64 C169.96,140.64 169.96,140.64 170.09,140.65 C170.20,140.64 170.20,140.64 170.32,140.62 C170.41,140.59 170.42,140.59 170.51,140.56 C170.57,140.52 170.57,140.52 170.63,140.48 "/><path d="M170.62,140.27 C170.56,140.22 170.56,140.22 170.49,140.17 C170.40,140.13 170.40,140.13 170.30,140.09 C170.18,140.06 170.18,140.06 170.07,140.03 C170.00,140.02 169.99,140.02 169.92,140.01 C169.87,140.01 169.87,140.01 169.81,140.00 C169.68,140.00 169.68,140.00 169.56,140.01 C169.45,140.03 169.45,140.03 169.35,140.05 C169.27,140.08 169.27,140.08 169.20,140.12 "/><path d="M170.50,140.33 C170.44,140.36 170.44,140.36 170.37,140.39 C170.28,140.41 170.28,140.41 170.18,140.43 C170.07,140.44 170.07,140.44 169.97,140.44 C169.85,140.43 169.85,140.43 169.74,140.41 C169.64,140.39 169.64,140.39 169.53,140.36 C169.45,140.33 169.45,140.33 169.37,140.29 C169.31,140.25 169.31,140.25 169.26,140.20 "/><path d="M169.07,138.44 C169.42,138.42 169.42,138.42 169.76,138.41 C170.12,138.45 170.13,138.45 170.48,138.49 C170.82,138.57 170.82,138.57 171.15,138.65 C171.18,138.67 171.18,138.67 171.22,138.68 "/><path d="M169.46,133.30 C169.57,133.24 169.57,133.24 169.69,133.19 C169.85,133.16 169.85,133.16 170.01,133.13 C170.20,133.12 170.20,133.12 170.39,133.12 C170.58,133.13 170.58,133.13 170.77,133.16 C170.95,133.20 170.95,133.20 171.14,133.25 C171.28,133.31 171.28,133.31 171.42,133.38 C171.51,133.45 171.52,133.45 171.60,133.52 "/><path d="M169.75,132.52 C169.91,132.49 169.91,132.49 170.07,132.46 C170.26,132.45 170.26,132.45 170.45,132.45 C170.64,132.46 170.64,132.46 170.83,132.49 C171.01,132.53 171.01,132.53 171.19,132.57 C171.33,132.64 171.33,132.64 171.48,132.70 "/><path d="M172.21,139.57 L172.07,139.26 "/><path d="M167.99,138.83 L167.76,139.10 L167.77,139.40 "/><path d="M169.11,140.22 L169.12,140.32 L169.20,140.43 "/><path d="M170.63,140.48 L170.67,140.38 L170.62,140.27 "/><path d="M169.20,140.12 L169.11,140.22 "/><path d="M170.57,140.24 L170.50,140.33 "/><path d="M169.26,140.20 L169.22,140.11 "/><path d="M168.88,138.47 L169.07,138.44 "/><path d="M169.34,133.44 L169.46,133.30 "/><path d="M171.60,133.52 L171.67,133.68 "/><path d="M170.58,140.24 L170.57,140.25 "/></g><g style="stroke:#000000;stroke-width:0.529"><path d="M167.77,139.40 C167.86,139.59 167.86,139.59 167.96,139.77 C168.07,139.91 168.07,139.91 168.18,140.04 C168.32,140.17 168.32,140.17 168.45,140.29 C168.62,140.40 168.62,140.40 168.80,140.49 C169.10,140.60 169.10,140.59 169.41,140.69 C169.60,140.73 169.61,140.73 169.80,140.76 C170.01,140.77 170.01,140.77 170.21,140.77 C170.52,140.74 170.52,140.74 170.83,140.71 C171.03,140.65 171.04,140.65 171.24,140.58 C171.54,140.39 171.54,140.39 171.84,140.18 "/><path d="M169.52,132.63 C169.64,132.57 169.64,132.57 169.75,132.52 C169.96,132.45 169.96,132.45 170.16,132.38 C170.25,132.36 170.25,132.36 170.33,132.34 C170.43,132.34 170.43,132.34 170.53,132.34 C170.63,132.35 170.63,132.35 170.74,132.36 C170.83,132.38 170.83,132.38 170.92,132.41 C171.00,132.44 171.00,132.44 171.08,132.47 C171.28,132.59 171.28,132.59 171.48,132.70 C171.57,132.78 171.57,132.78 171.66,132.85 "/><path d="M168.88,138.47 L168.45,138.56 L168.00,138.77 L167.76,139.06 L167.77,139.40 "/><path d="M171.84,140.18 L172.09,139.85 L172.21,139.54 L172.07,139.20 L171.70,138.90 L171.22,138.68 "/><path d="M168.88,138.47 L169.40,132.77 L169.52,132.63 "/><path d="M171.66,132.85 L171.73,133.01 L171.22,138.68 "/></g></g><g id="Actor_.13"><g style="stroke:#000000;stroke-width:0.176"><path d="M108.06,134.30 C107.84,134.16 107.84,134.16 107.61,134.03 C107.31,133.92 107.31,133.92 107.00,133.81 C106.64,133.74 106.64,133.74 106.29,133.68 C105.92,133.66 105.92,133.66 105.55,133.65 C105.21,133.68 105.21,133.68 104.88,133.72 C104.60,133.79 104.60,133.79 104.33,133.88 C104.15,133.99 104.15,133.99 103.97,134.11 "/><path d="M105.26,135.54 C105.32,135.59 105.32,135.59 105.38,135.64 C105.47,135.68 105.47,135.68 105.57,135.72 C105.68,135.76 105.68,135.76 105.80,135.79 C105.93,135.80 105.93,135.80 106.06,135.81 C106.18,135.81 106.18,135.81 106.31,135.81 C106.42,135.79 106.42,135.79 106.52,135.77 C106.60,135.74 106.61,135.74 106.68,135.70 "/><path d="M106.69,135.40 C106.61,135.35 106.61,135.35 106.53,135.30 C106.43,135.26 106.43,135.26 106.32,135.23 C106.20,135.20 106.20,135.20 106.07,135.18 C105.94,135.17 105.94,135.17 105.81,135.17 C105.70,135.18 105.70,135.18 105.58,135.19 C105.48,135.22 105.48,135.22 105.39,135.25 C105.36,135.26 105.36,135.26 105.34,135.28 "/><path d="M105.41,135.41 C105.48,135.45 105.48,135.45 105.54,135.49 C105.64,135.52 105.64,135.52 105.74,135.56 C105.84,135.58 105.84,135.58 105.95,135.60 C106.06,135.60 106.07,135.60 106.18,135.61 C106.28,135.60 106.28,135.60 106.38,135.59 C106.46,135.57 106.46,135.57 106.54,135.54 C106.57,135.53 106.57,135.53 106.59,135.51 C106.62,135.49 106.62,135.49 106.66,135.47 "/><path d="M107.32,133.86 C107.16,133.80 107.16,133.80 106.99,133.74 C106.64,133.67 106.64,133.67 106.29,133.61 C105.93,133.59 105.93,133.59 105.57,133.58 C105.28,133.61 105.28,133.61 104.98,133.64 "/><path d="M105.50,128.53 C105.60,128.46 105.60,128.46 105.69,128.40 C105.83,128.36 105.84,128.36 105.98,128.32 C106.16,128.30 106.16,128.30 106.34,128.28 C106.53,128.29 106.53,128.29 106.72,128.30 C106.91,128.33 106.91,128.33 107.09,128.37 C107.26,128.43 107.26,128.43 107.43,128.49 C107.54,128.55 107.54,128.55 107.65,128.62 "/><path d="M107.48,127.81 C107.32,127.75 107.32,127.75 107.16,127.70 C106.97,127.66 106.97,127.66 106.78,127.63 C106.59,127.62 106.59,127.62 106.40,127.61 C106.22,127.63 106.22,127.63 106.04,127.65 C105.90,127.69 105.90,127.69 105.76,127.73 "/><path d="M108.29,134.90 L108.29,134.60 L108.06,134.30 "/><path d="M103.97,134.11 L103.85,134.40 "/><path d="M105.34,135.28 L105.26,135.33 L105.22,135.43 L105.26,135.54 "/><path d="M106.68,135.70 L106.77,135.61 L106.77,135.50 L106.69,135.40 "/><path d="M105.34,135.28 L105.34,135.32 L105.34,135.28 "/><path d="M105.34,135.32 L105.41,135.41 "/><path d="M106.66,135.47 L106.69,135.40 "/><path d="M105.44,128.67 L105.50,128.53 "/><path d="M107.65,128.62 L107.77,128.78 L107.77,128.89 "/></g><g style="stroke:#000000;stroke-width:0.529"><path d="M104.15,135.06 C104.42,135.31 104.42,135.31 104.70,135.55 C104.89,135.65 104.90,135.65 105.10,135.74 C105.21,135.77 105.21,135.77 105.32,135.80 C105.50,135.85 105.50,135.85 105.69,135.89 C105.89,135.92 105.89,135.92 106.10,135.94 C106.39,135.93 106.39,135.93 106.68,135.91 C106.91,135.88 106.91,135.88 107.14,135.83 C107.31,135.76 107.31,135.76 107.48,135.68 C107.65,135.58 107.65,135.58 107.81,135.48 C107.92,135.36 107.92,135.36 108.03,135.24 C108.16,135.07 108.16,135.07 108.29,134.90 "/><path d="M105.76,127.73 C106.06,127.63 106.06,127.63 106.37,127.52 C106.46,127.51 106.47,127.51 106.56,127.51 C106.66,127.51 106.66,127.51 106.76,127.52 C106.86,127.53 106.86,127.53 106.96,127.55 C107.05,127.58 107.05,127.58 107.13,127.61 "/><path d="M104.98,133.64 L104.90,133.65 L104.36,133.81 L103.99,134.05 L103.84,134.38 L103.96,134.70 L104.15,135.06 "/><path d="M108.29,134.90 L108.30,134.56 L108.06,134.24 L107.60,133.96 L107.32,133.86 "/><path d="M104.98,133.64 L105.50,128.01 L105.57,127.86 L105.76,127.73 "/><path d="M107.13,127.61 L107.71,127.95 L107.83,128.11 L107.77,128.94 L107.32,133.86 "/></g></g><g id="Actor_.14"><g style="stroke:#000000;stroke-width:0.176"><path d="M134.14,35.35 C134.38,35.30 134.38,35.30 134.61,35.26 C134.96,35.21 134.96,35.21 135.32,35.15 C135.68,35.10 135.68,35.10 136.05,35.06 C136.38,35.02 136.38,35.02 136.72,34.98 C136.99,34.96 136.99,34.96 137.26,34.94 "/><path d="M137.26,34.94 L137.36,34.93 "/></g><g style="stroke:#000000;stroke-width:0.529"><path d="M133.36,35.45 C133.42,35.28 133.42,35.28 133.49,35.11 C133.63,34.93 133.63,34.93 133.78,34.75 C133.97,34.62 133.97,34.62 134.16,34.49 C134.42,34.41 134.43,34.41 134.69,34.34 "/><path d="M135.06,34.27 C135.31,34.23 135.31,34.23 135.56,34.20 C135.77,34.17 135.77,34.17 135.99,34.15 C136.27,34.15 136.27,34.15 136.55,34.15 "/><path d="M136.62,34.17 C136.85,34.23 136.85,34.23 137.07,34.31 C137.26,34.44 137.27,34.44 137.45,34.58 C137.58,34.73 137.58,34.73 137.69,34.89 "/><path d="M134.69,34.34 L134.85,34.31 L135.06,34.27 "/><path d="M136.55,34.15 L136.62,34.17 "/></g></g><g id="Actor_.15"><g style="stroke:#000000;stroke-width:0.176"/><g style="stroke:#000000;stroke-width:0.529"><path d="M99.54,40.51 C99.27,40.58 99.27,40.58 99.00,40.67 C98.81,40.79 98.81,40.79 98.62,40.92 C98.47,41.09 98.47,41.10 98.33,41.28 "/><path d="M101.80,40.46 L101.40,40.33 L100.84,40.33 L100.42,40.37 L100.17,40.40 L99.70,40.48 L99.54,40.51 "/><path d="M98.33,41.28 L98.31,41.32 L98.19,41.63 "/></g></g><g id="Actor_.16"><g style="stroke:#000000;stroke-width:0.176"><path d="M150.95,33.19 C151.29,33.14 151.29,33.14 151.63,33.08 C151.99,33.02 151.99,33.02 152.35,32.97 C152.71,32.92 152.71,32.92 153.07,32.88 C153.39,32.84 153.39,32.84 153.71,32.81 C153.96,32.79 153.96,32.79 154.22,32.78 "/><path d="M151.45,32.21 L151.45,32.21 "/><path d="M152.85,32.00 L152.85,32.00 "/><path d="M153.41,32.00 L153.41,32.00 "/></g><g style="stroke:#000000;stroke-width:0.529"><path d="M150.17,33.29 L150.29,32.99 L150.59,32.62 L150.64,32.58 L151.01,32.33 L151.55,32.18 L151.73,32.14 L152.20,32.07 L152.68,32.01 L152.85,32.00 "/><path d="M152.85,32.00 L153.41,32.00 "/><path d="M154.50,32.74 L154.27,32.44 L153.89,32.17 L153.85,32.14 L153.41,32.00 "/></g></g><g id="Actor_.17"><g style="stroke:#000000;stroke-width:0.176"><path d="M117.61,37.45 C117.96,37.39 117.96,37.39 118.30,37.34 C118.67,37.28 118.67,37.28 119.04,37.23 C119.38,37.19 119.38,37.19 119.73,37.15 C120.02,37.13 120.02,37.13 120.31,37.10 "/><path d="M117.33,37.50 L117.61,37.45 "/><path d="M120.31,37.10 L120.53,37.09 "/></g><g style="stroke:#000000;stroke-width:0.529"><path d="M116.51,37.60 C116.57,37.44 116.57,37.44 116.64,37.28 C116.78,37.09 116.78,37.09 116.94,36.92 C117.13,36.78 117.13,36.78 117.33,36.66 "/><path d="M119.79,36.31 C120.01,36.38 120.02,36.38 120.24,36.46 C120.43,36.59 120.43,36.59 120.62,36.73 C120.74,36.88 120.75,36.88 120.86,37.05 "/><path d="M117.33,36.66 L117.42,36.62 L117.84,36.50 L117.97,36.47 L118.17,36.43 L118.67,36.36 L119.12,36.31 L119.26,36.30 L119.69,36.30 L119.79,36.31 "/></g></g><g id="Actor_.18"><g style="stroke:#000000;stroke-width:0.176"><path d="M83.90,46.29 L84.04,47.36 "/><path d="M93.62,55.49 L98.93,54.56 "/><path d="M107.00,39.97 L107.09,39.96 "/><path d="M106.21,39.02 L106.36,40.08 "/><path d="M177.55,32.00 L186.93,30.36 L178.94,30.72 L107.88,39.83 "/><path d="M108.24,38.66 L108.40,39.76 "/><path d="M147.42,46.05 L127.98,49.46 "/><path d="M127.76,49.59 L147.72,46.09 "/><path d="M177.56,32.05 L187.07,30.38 L189.81,31.35 L189.88,30.31 L190.12,30.44 L190.18,31.67 L189.91,31.38 "/><path d="M178.94,30.72 L178.79,29.63 "/><path d="M180.20,30.60 L180.05,29.51 "/><path d="M186.17,38.81 L186.63,37.98 L187.06,38.87 L186.86,39.10 L186.18,39.24 L186.17,38.81 L186.18,39.24 L184.26,39.58 "/><path d="M186.51,39.28 L184.27,39.67 "/><path d="M187.06,38.87 L191.93,31.28 L191.55,30.28 L190.14,30.53 "/><path d="M186.63,37.98 L191.55,30.28 L192.11,29.88 "/><path d="M186.76,37.75 L190.18,31.67 "/><path d="M186.78,29.26 L186.93,30.36 L187.07,30.38 L187.04,29.31 "/><path d="M189.02,35.82 L199.76,33.93 L200.15,33.32 "/><path d="M189.47,35.12 L199.27,33.40 L199.45,33.51 L204.64,44.07 L204.77,45.01 L204.59,45.41 "/><path d="M190.28,33.85 L191.40,33.68 L192.45,33.89 L192.06,34.15 L191.36,34.24 L190.15,34.06 "/><path d="M189.88,30.31 L189.82,30.29 "/><path d="M191.99,31.19 L192.46,30.99 L192.11,31.06 "/><path d="M199.23,32.32 L199.27,33.40 L192.46,30.99 L192.43,29.92 "/><path d="M204.64,44.07 L205.04,43.46 "/></g><g style="stroke:#000000;stroke-width:0.529"><path d="M186.78,29.26 C183.03,29.36 183.03,29.36 179.29,29.57 C143.25,34.13 143.18,33.86 107.23,38.81 C95.51,42.22 95.41,42.25 83.90,46.29 "/><path d="M199.57,32.52 C199.87,32.91 199.87,32.91 200.15,33.32 C202.61,38.38 202.62,38.38 205.04,43.46 C205.13,43.92 205.13,43.93 205.17,44.40 "/><path d="M189.82,30.28 L186.78,29.26 "/><path d="M83.90,46.29 L83.95,47.41 "/><path d="M99.01,54.64 L93.53,55.60 "/><path d="M162.61,53.09 L116.95,61.11 "/><path d="M189.82,30.28 L192.43,29.92 L199.57,32.52 "/><path d="M205.17,44.40 L204.59,45.41 L203.81,45.86 L185.94,49.00 "/></g></g><g id="paperID" visibility="hidden" opacity="0.00" transform="scale(0.000100)"><path style="stroke:#000000;stroke-width:0.500;fill:#e6e6e6;fill-rule:evenodd" d="M-2000.00,-2000.00L2297.00,-2000.00L2297.00,2210.00L-2000.00,2210.00zM0.00,0.00L297.00,0.00L297.00,210.00L0.00,210.00z"/><path style="fill:#000000;fill-opacity:0.118" d="M3.00,210.00L297.00,210.00L297.00,3.00L300.00,3.00L300.00,213.00L3.00,213.00z"/></g><g id="ToolTip" visibility="hidden" opacity="0" transform="translate(0,0)"><rect id="ToolTipShadow" opacity="0.20" fill="black" stroke="none" x="0" y="0" width="30" height="8"/><rect id="ToolTipBG" fill="#ffffe1" stroke="black" x="0" y="0" width="30" height="8"/><text xml:space="preserve" id="ToolTipText" fill="black" x="0" y="0" width="30" height="8">tooltip</text></g></g></svg>
