<?xml version="1.0" encoding="UTF-8" standalone="no"?>
<svg xmlns="http://www.w3.org/2000/svg" xmlns:xlink="http://www.w3.org/1999/xlink" width="297.000mm" height="210.000mm" viewBox="0.000000 0.000000 297.000000 210.000000" stroke-linejoin="round" stroke-linecap="round" fill="none" fill-rule="evenodd"><desc>Composer Export</desc><script type="text/ecmascript"><![CDATA[
if(typeof(top) != "undefined")
{
	top.ShowPaper = ShowPaper;
}
function ShowHotSpot(evt,hotspotid)
{
	var svgDocument = evt.target.ownerDocument;
	var strId = "hotspot."+hotspotid;
	var hotspot = svgDocument.getElementById(strId);
	if(hotspot)
		hotspot.setAttribute("opacity",".5");
}
function HideHotSpot(evt,hotspotid)
{
	var svgDocument = evt.target.ownerDocument;
	var strId = "hotspot."+hotspotid;
	var hotspot = svgDocument.getElementById(strId);
	if(hotspot)
		hotspot.setAttribute("opacity","0");

	var toolTip = svgDocument.getElementById('ToolTip');
	if(toolTip)
		toolTip.setAttribute("visibility","hidden");
}
function ShowToolTip(evt,hotspotid,strTooltip)
{
	if(strTooltip=="")
	return;

	// change text
	var svgDocument = evt.target.ownerDocument;
	var tiptext = svgDocument.getElementById('ToolTipText');
	if( !tiptext )
	return;
	tiptext.firstChild.nodeValue = " " + strTooltip + "  " ;

	// show tooltip before, else some refresh issue

	var toolTip = svgDocument.getElementById('ToolTip');
	if(!toolTip)
	return;

	toolTip.setAttribute("visibility","visible");
	toolTip.setAttribute("opacity",".95");

	// move tooltip
	// get viewbox

	var root = svgDocument.documentElement;
	var vbox = (root.getAttribute("viewBox")).split(' ');
	var x0 = parseFloat(vbox[0]);
	var y0 = parseFloat(vbox[1]);
	var vboxW = parseFloat(vbox[2]);
	var vboxH = parseFloat(vbox[3]);

	// get default width of svg

	var strW = root.getAttribute("width");
	var svgW = parseFloat(strW);
	if(strW.indexOf('mm') != -1)
	svgW *= 3.779;

	var strH = root.getAttribute("height");
	var svgH = parseFloat(strH);
	if(strH.indexOf('mm') != -1)
	svgH *= 3.779;  	// 96 dpi  -> 96/25.4 = 3.779

	// update the viewbox / width / height if svg is embedded in html with zoom fit all
	var realx0 = x0;
	var realy0 = y0;
	var realvboxW = vboxW;
	var realvboxH = vboxH;
	var realsvgW = svgW;
	var realsvgH = svgH;

	if ((typeof(top) == "undefined") || (typeof(top.svgctl1) != "undefined")) // embedded in html
	{
		// get window size in pxl

		svgW = window.innerWidth;
		svgH = window.innerHeight;

		// calculate real viewbox

		realsvgW = svgW;
		realsvgH = svgH;
		if((svgW / svgH) > (vboxW / vboxH))
		{
			realvboxW = (vboxH * svgW) / svgH;
			realvboxH = vboxH;
			realx0 = x0 - (realvboxW - vboxW)/2 ;
		}
		else
		{
			realvboxH = (vboxW * svgH) / svgW;
			realvboxW = vboxW;
			realy0 = y0 - (realvboxH - vboxH)/2 ;
		}
	}

	// get user zoom/pan

	var newScale = root.currentScale;
	var translation = root.currentTranslate;

	// transform pxl to user unit

	var xPos = (((evt.clientX+10- translation.x)/newScale) * realvboxW)/realsvgW  + realx0 ;
	var yPos = (((evt.clientY+5- translation.y)/newScale) * realvboxH)/ realsvgH  + realy0 ;
	var scaleForWidth = ( (1 / newScale) * realvboxH) / realsvgH;

	// move tooltip

	toolTip.setAttribute("transform", "translate(" + xPos + "," + yPos + ")" );

	// resize tooltip

	var fontsize = 12;
	tiptext.setAttribute("font-size",fontsize*scaleForWidth);
	tiptext.setAttribute("y", fontsize*scaleForWidth);
	var tipBG = svgDocument.getElementById('ToolTipBG');
	var outline = tiptext.getBBox();
	if(tipBG)
	{
		tipBG.setAttribute("stroke-width", 1*scaleForWidth);
		tipBG.setAttribute("width", Number(outline.width) );
		tipBG.setAttribute("height", Number(outline.height) + fontsize*.5*scaleForWidth );
	}
	var ToolTipShadow = svgDocument.getElementById('ToolTipShadow');
	if(ToolTipShadow)
	{
		ToolTipShadow.setAttribute("width", Number(outline.width) );
		ToolTipShadow.setAttribute("height", Number(outline.height) + fontsize*.5*scaleForWidth );
		ToolTipShadow.setAttribute("x", 3*scaleForWidth);
		ToolTipShadow.setAttribute("y", 3*scaleForWidth);
	}
}
function ShowPaper()
{
  var svgDocument = getDocument();
  var paper = svgDocument.getElementById("paperID");
  if(paper)
  {
    paper.setAttribute("transform","scale(1)");
    paper.setAttribute("opacity","1");
    paper.setAttribute("visibility","visible");
  }
  var svg = svgDocument.getRootElement();
  if(svg)
  {
    svg.setAttribute("width","307.000mm");
    svg.setAttribute("height","220.000mm");
    svg.setAttribute("viewBox","-5.000000 -5.000000 307.000000 220.000000");
  }
}
]]></script><defs/><g><path style="fill:#ffffff" d="M296.92,210.05L0.08,210.05L0.08,0.08L296.92,0.08z"/><path style="fill:#f1f9f2" d="M202.04,43.67L209.37,46.04L200.68,51.21L194.60,64.16L193.76,65.28L193.92,66.17L193.92,67.28L194.08,68.95L194.20,70.86L194.35,72.54L194.48,74.17L194.63,76.12L194.76,77.76L194.64,78.89L191.01,80.98L183.59,87.63L182.11,88.63L110.65,100.72L110.11,101.04L110.18,101.57L111.22,101.58L179.97,89.98L180.12,90.12L180.15,90.44L180.28,91.57L180.44,92.31L182.20,92.46L184.72,94.36L186.07,96.59L186.12,97.34L185.16,97.70L185.69,103.62L186.37,103.44L186.66,103.67L187.59,105.06L187.45,105.92L185.42,107.37L183.31,109.13L182.45,110.75L182.46,120.33L184.12,165.62L183.47,165.86L183.54,166.36L184.65,166.95L186.53,166.95L187.73,166.38L187.54,172.03L187.26,172.15L186.12,172.14L183.45,170.96L183.31,170.81L183.07,170.94L179.15,170.52L111.87,165.28L109.68,164.73L109.21,164.92L95.04,145.43L94.25,144.02L91.28,143.46L89.24,142.95L87.90,141.81L87.34,140.99L87.08,139.55L87.04,136.32L86.93,136.22L86.51,134.65L85.23,133.97L84.93,133.69L83.00,74.43L82.57,74.22L80.03,75.90L77.97,77.69L77.03,80.34L78.22,113.71L78.77,133.95L78.12,134.04L77.97,133.21L77.94,130.25L77.83,130.15L77.70,126.31L77.66,122.53L77.55,122.43L77.43,118.59L77.39,114.81L77.28,114.71L77.15,110.87L77.11,107.09L77.00,106.99L76.88,103.14L76.84,99.37L76.73,99.27L76.60,95.42L76.56,91.65L76.45,91.55L76.32,87.70L76.29,83.93L76.17,83.82L76.28,79.04L77.27,77.00L79.80,75.11L82.07,73.79L84.40,73.42L84.59,73.28L84.59,68.10L85.14,66.66L86.66,65.45L87.40,65.28L92.19,65.17L93.68,63.78L93.38,63.26L93.39,61.13L94.79,60.05L95.99,58.97L96.43,59.03L96.96,59.67L97.67,60.12L97.84,60.93L97.96,61.51L98.11,62.31L98.23,62.89L98.39,63.71L98.61,64.62L99.00,64.87L100.13,64.89L100.87,64.46L100.88,63.42L100.84,62.70L100.71,62.62L100.59,62.03L100.57,61.32L100.44,61.24L100.32,60.65L100.27,59.93L100.14,59.83L100.28,59.20L100.86,58.66L100.87,57.70L100.43,57.36L99.75,56.89L98.67,56.55L99.46,55.89L101.04,54.16L101.27,52.40L102.10,42.48L102.49,38.79L104.16,37.70L110.50,24.19L116.01,20.87L118.93,19.11L120.43,19.12z"/><path style="fill:#d9e0da" d="M87.40,76.88L87.68,77.21L86.96,77.43L87.05,76.11z"/><path style="fill:#d9e0da" d="M83.00,74.43L84.93,133.69L84.11,133.98L80.62,135.52L79.06,135.21L78.21,134.38L78.12,134.04L78.77,133.95L78.22,113.71L77.03,80.34L77.97,77.69L80.03,75.90L82.57,74.22z"/><path style="fill:#000020" d="M88.24,76.04L87.50,76.21L87.40,76.88L87.05,76.11L87.22,75.90z"/><path style="fill:#000020" d="M79.33,87.70L79.15,88.05L78.98,87.91L79.09,86.60z"/><path style="fill:#d9e0da" d="M160.03,35.21L161.81,35.38L161.36,35.64L159.37,35.81L159.05,35.39L158.77,35.58L158.17,35.39L158.18,34.95L159.22,34.25L159.84,34.27z"/><path style="fill:#d9e0da" d="M200.28,45.34L201.24,45.06L201.40,45.76L201.32,46.01L200.35,45.86z"/><path style="fill:#d9e0da" d="M194.76,79.70L194.49,80.08L191.56,81.81L188.83,84.04L183.02,89.26L180.12,90.12L179.97,89.98L111.22,101.58L110.18,101.57L110.11,101.04L110.65,100.72L182.11,88.63L183.59,87.63L191.01,80.98L194.64,78.89z"/><path style="fill:#d9e0da" d="M96.56,92.68L96.59,92.96L96.18,94.30L95.75,97.91L95.63,100.65L95.34,104.52L94.49,104.71L94.49,101.11L94.96,94.68L95.83,91.62L96.11,91.62z"/><path style="fill:#d9e0da" d="M97.98,92.39L97.63,92.74L96.79,92.59L96.86,90.53L97.06,90.37L97.89,90.44z"/><path style="fill:#d9e0da" d="M185.16,97.70L186.12,97.34L186.21,97.61L186.36,99.01L186.48,102.57L186.37,103.44L185.69,103.62z"/><path style="fill:#d9e0da" d="M187.74,106.45L187.86,110.30L188.01,114.18L188.14,118.02L188.29,121.90L188.41,125.74L188.56,129.62L188.69,133.46L188.84,137.34L188.96,141.18L189.11,145.06L189.24,148.91L189.39,152.78L189.51,156.63L189.66,160.50L189.79,164.36L189.78,165.18L188.85,165.77L188.46,165.78L188.84,168.23L188.82,170.90L188.17,171.91L187.54,172.03L187.73,166.38L186.53,166.95L184.65,166.95L183.54,166.36L183.47,165.86L184.12,165.62L182.46,120.33L182.45,110.75L183.31,109.13L185.42,107.37L187.45,105.92z"/><path style="fill:#d9e0da" d="M96.02,109.47L95.91,109.77L95.62,110.84L94.76,111.05L94.77,109.66L94.95,108.18L95.90,108.09z"/><path style="fill:#d9e0da" d="M89.29,131.81L89.40,132.15L89.26,132.55L89.00,132.51L88.86,131.35L88.99,131.26z"/><path style="fill:#d9e0da" d="M111.87,165.28L179.15,170.52L183.07,170.94L183.19,171.54L183.06,172.10L181.44,172.14L114.16,166.90L111.69,166.62L110.47,166.40L109.68,165.81L109.21,164.92L109.68,164.73z"/><path style="fill:#f1f9f2" d="M186.32,156.02L186.49,154.93L187.15,155.06L187.15,156.27L186.62,157.40L185.78,157.58L185.61,157.25L185.75,157.01L185.53,155.81L186.09,154.96z"/><path style="fill:#ffffff" d="M88.86,76.67L88.79,77.45L87.68,77.21L87.40,76.88L87.50,76.21L88.24,76.04z"/><path style="fill:#ffffff" d="M132.87,78.03L133.12,78.42L133.97,78.95L133.99,79.40L132.28,78.97L132.02,78.59L132.58,77.75z"/><path style="fill:#ffffff" d="M79.75,86.86L79.33,87.70L79.09,86.60L79.70,85.82z"/><path style="fill:#ffffff" d="M100.56,94.68L101.93,98.83L104.03,106.99L104.18,107.81L104.30,108.39L104.45,109.19L104.57,110.04L104.74,110.85L105.13,113.34L105.28,114.16L105.41,114.99L105.55,116.10L105.68,116.92L105.83,118.03L105.96,119.12L106.11,120.24L106.23,121.60L106.38,123.00L106.51,124.36L106.66,126.03L106.78,127.95L106.78,129.60L106.67,129.90L106.66,132.38L107.06,135.11L107.06,136.24L106.79,142.58L106.51,144.77L106.23,146.16L105.41,148.20L104.99,148.20L103.33,145.96L102.42,145.50L100.00,138.27L99.76,137.35L99.76,136.04L99.64,135.95L99.51,135.65L99.50,134.57L99.46,133.84L99.34,133.74L98.39,131.27L98.36,130.54L98.23,130.45L98.11,129.87L98.08,129.16L97.96,129.07L97.84,128.22L97.81,127.50L97.68,127.41L97.56,126.57L97.53,125.85L97.40,125.75L97.29,124.64L97.25,123.92L97.13,123.82L97.01,122.71L96.98,121.99L96.85,121.89L96.73,120.80L96.69,119.50L96.58,119.40L96.45,118.32L96.42,117.01L96.30,116.91L96.18,115.56L96.14,113.98L96.03,113.88L95.90,112.25L95.91,109.77L96.02,109.47L96.15,107.64L96.05,107.54L95.90,106.71L95.88,105.99L95.75,105.90L95.63,105.07L95.63,100.65L95.75,97.91L96.18,94.30L96.59,92.96L97.63,92.74L97.98,92.39L98.24,90.72L98.39,90.77z"/><path style="fill:#ffffff" d="M109.43,103.42L109.39,104.44L108.83,104.38L108.35,103.98L109.12,102.87z"/><path style="fill:#ffffff" d="M149.47,106.66L154.71,107.49L159.58,109.27L160.00,109.75L160.15,110.87L160.38,111.54L161.25,112.32L163.33,112.34L163.79,112.17L164.65,112.16L165.13,112.32L168.67,115.37L170.60,117.57L173.09,121.43L174.74,125.29L175.58,128.61L175.31,129.53L174.65,129.98L173.90,130.88L173.90,132.76L174.21,133.27L175.55,134.41L175.87,135.14L175.45,137.61L175.01,139.16L173.55,142.94L172.26,145.51L169.78,149.10L166.28,152.55L165.48,152.71L163.06,152.58L162.51,152.86L161.76,153.76L161.53,155.46L161.22,155.98L157.83,157.55L153.05,159.18L150.58,159.61L148.35,159.88L141.73,159.74L139.81,159.45L134.20,157.84L129.23,155.36L127.72,154.46L124.96,152.24L124.36,151.63L123.31,150.59L122.97,150.24L122.21,149.47L121.82,148.71L121.58,148.61L121.10,148.12L120.96,147.85L120.69,147.08L120.54,147.01L120.16,146.44L119.90,145.96L119.73,145.91L119.58,145.63L118.92,144.23L118.58,143.60L118.36,142.85L116.93,138.37L116.87,137.62L117.56,136.59L118.23,136.15L118.79,134.40L118.49,133.78L118.20,133.00L117.81,132.91L117.46,132.61L117.13,132.16L116.95,132.13L116.83,131.90L116.70,130.71L117.65,126.75L119.04,123.18L120.58,120.30L123.34,116.72L126.12,113.99L128.96,111.86L133.01,109.57L137.43,107.92L140.08,107.21L143.66,106.66L147.80,106.51z"/><path style="fill:#ffffff" d="M81.15,124.11L80.71,125.18L80.30,125.21L80.89,123.33L81.02,123.24z"/><path style="fill:#00fdff" d="M96.80,48.32L96.72,49.28L96.32,49.99L94.90,50.82L95.67,55.65L95.39,55.80L94.94,55.64L94.79,55.17L94.78,54.43L94.65,54.34L94.53,53.76L94.50,53.05L94.37,52.96L94.25,52.38L94.22,51.67L94.11,51.56L93.93,50.83L92.84,50.29L92.82,48.97L93.30,48.35L94.12,47.79L96.16,47.79z"/><path style="fill:#00fdff" d="M99.75,56.89L100.43,57.36L100.30,58.67L100.05,58.96L98.49,59.91L99.53,64.76L99.00,64.87L98.61,64.62L98.39,63.71L98.36,62.98L98.23,62.89L98.11,62.31L98.09,61.60L97.96,61.51L97.84,60.93L97.82,60.20L97.67,60.12L96.96,59.67L96.43,59.03L96.46,58.46L97.13,57.42L98.67,56.55z"/><path style="fill:#00fdff" d="M104.31,66.73L103.31,68.56L102.40,68.75L102.49,70.41L103.14,73.84L102.58,73.98L102.19,73.72L101.98,72.52L101.95,71.80L101.82,71.72L101.70,71.13L101.67,70.42L101.55,70.32L101.09,69.06L100.00,68.19L99.97,67.47L101.02,66.27L101.56,65.99L103.33,65.99z"/><path style="fill:#00fdff" d="M170.75,70.60L170.62,71.90L169.96,72.61L168.58,72.88L168.96,73.43L169.81,77.61L169.61,78.12L168.93,77.87L168.44,75.28L168.41,74.56L168.28,74.48L168.16,73.88L168.12,73.18L167.93,73.15L166.74,72.32L166.71,71.60L168.02,70.12L170.35,70.10z"/><path style="fill:#00fdff" d="M153.94,73.64L153.59,75.27L151.96,75.90L150.83,75.89L149.92,75.38L149.89,74.06L151.37,73.00L153.07,73.00L153.54,73.14z"/><path style="fill:#00fdff" d="M107.83,75.62L107.53,77.48L106.98,77.72L105.98,77.85L106.08,79.24L106.71,82.96L106.43,83.09L105.76,82.58L105.56,81.07L105.53,80.35L105.40,80.26L105.28,79.68L105.25,78.97L105.13,78.88L105.03,78.28L104.98,77.85L104.53,77.81L103.85,77.59L103.85,76.27L104.60,75.37L105.14,75.09L107.19,75.09z"/><path style="fill:#00fdff" d="M136.42,75.91L136.82,76.39L136.70,77.69L135.66,78.64L134.94,78.69L134.92,78.85L136.02,83.84L135.58,83.98L135.03,83.64L134.24,79.78L133.99,79.40L133.97,78.95L133.12,78.42L132.87,78.03L132.88,77.22L134.00,75.88L134.31,75.78L135.60,75.64z"/><path style="fill:#00fdff" d="M152.77,81.04L152.13,80.90L151.83,80.36L151.12,76.15L151.88,76.12z"/><path style="fill:#00fdff" d="M120.02,79.43L119.67,81.06L118.08,81.69L118.84,86.53L118.29,86.67L117.90,86.16L117.14,81.97L116.00,81.17L115.98,79.86L116.45,79.22L117.55,78.67L119.05,78.67z"/><path style="fill:#00001c" d="M122.40,22.40L123.32,22.26L123.75,22.46z"/><path style="fill:#00001c" d="M122.95,26.26L123.87,26.12L124.30,26.32z"/><path style="fill:#00001c" d="M159.37,35.81L158.77,35.58L159.05,35.39z"/><path style="fill:#00001c" d="M98.65,66.91L97.31,66.79L98.69,66.73z"/><path style="fill:#00001c" d="M102.22,76.03L101.17,75.92L102.27,75.84z"/><path style="fill:#00001c" d="M134.92,78.85L134.94,78.69L135.66,78.64z"/><path style="fill:#00001c" d="M105.82,85.13L104.77,85.00L105.95,85.00z"/><path style="fill:#00001c" d="M172.24,89.27L171.52,89.13L172.37,89.14z"/><path style="fill:#00001c" d="M97.89,90.44L97.06,90.37L97.79,90.24z"/><path style="fill:#00001c" d="M109.41,94.24L108.35,94.10L109.50,94.10z"/><path style="fill:#00001c" d="M186.13,160.19L185.67,160.10L185.80,159.67z"/><path style="fill:#00e3e5" d="M97.28,49.28L96.71,50.11L96.57,51.29L96.73,52.10L96.85,52.69L97.01,53.48L97.13,54.07L97.30,54.88L97.29,55.38L96.54,55.79L95.67,55.65L94.90,50.82L96.32,49.99L96.72,49.28L96.80,48.32L96.95,48.37z"/><path style="fill:#00e3e5" d="M100.87,57.70L100.86,58.66L100.28,59.20L100.14,59.83L100.32,60.65L100.44,61.24L100.59,62.03L100.71,62.62L100.88,63.42L100.87,64.46L100.13,64.89L99.53,64.76L98.49,59.91L100.05,58.96L100.30,58.67L100.43,57.36z"/><path style="fill:#00e3e5" d="M104.45,67.76L103.75,68.68L103.90,69.48L104.03,70.06L104.18,70.85L104.30,71.44L104.45,72.25L104.73,73.26L103.72,73.99L103.14,73.84L102.49,70.41L102.40,68.75L103.31,68.56L104.31,66.73L104.44,66.83z"/><path style="fill:#00e3e5" d="M171.18,70.93L171.18,71.90L170.48,72.81L170.64,73.64L170.89,74.55L171.19,77.71L170.23,78.17L169.61,78.12L169.81,77.61L168.96,73.43L168.58,72.88L169.96,72.61L170.62,71.90L170.75,70.60z"/><path style="fill:#00e3e5" d="M154.37,73.97L154.28,74.56L153.59,75.27L153.94,73.64z"/><path style="fill:#00e3e5" d="M108.32,76.19L108.03,77.14L107.53,77.48L107.83,75.62z"/><path style="fill:#00e3e5" d="M154.37,80.45L153.72,80.91L152.77,81.04L151.88,76.12L151.96,75.90L153.59,75.27z"/><path style="fill:#00e3e5" d="M137.33,76.72L137.26,77.69L136.55,78.41L136.75,78.91L137.23,81.72L137.16,83.66L136.02,83.84L134.92,78.85L135.66,78.64L136.70,77.69L136.82,76.39z"/><path style="fill:#00e3e5" d="M107.50,78.03L107.61,78.61L107.76,79.40L107.88,79.99L108.04,80.79L108.17,81.63L108.16,82.46L108.04,82.69L107.29,83.09L106.71,82.96L106.08,79.24L105.98,77.85L106.98,77.72z"/><path style="fill:#00e3e5" d="M104.53,77.81L104.98,77.85L105.03,78.28z"/><path style="fill:#00e3e5" d="M120.45,79.76L120.36,80.35L119.67,81.06L120.02,79.43z"/><path style="fill:#00e3e5" d="M120.29,85.20L120.30,86.33L119.71,86.69L118.84,86.53L118.08,81.69L119.67,81.06z"/><path style="fill:#000020" d="M118.58,24.90L118.89,24.75L119.33,24.94z"/><path style="fill:#000020" d="M195.75,44.50L196.39,44.32L196.83,44.52z"/><path style="fill:#000020" d="M201.32,46.01L201.40,45.76L202.05,45.88z"/><path style="fill:#000020" d="M196.30,48.35L196.91,48.17L197.66,48.37z"/><path style="fill:#000020" d="M96.73,52.10L96.57,51.29L96.70,51.39z"/><path style="fill:#000020" d="M94.25,52.38L94.11,51.56L94.22,51.67z"/><path style="fill:#000020" d="M97.01,53.48L96.85,52.69L96.98,52.78z"/><path style="fill:#000020" d="M94.53,53.76L94.37,52.96L94.50,53.05z"/><path style="fill:#000020" d="M97.30,54.88L97.13,54.07L97.26,54.15z"/><path style="fill:#000020" d="M94.79,55.17L94.65,54.34L94.78,54.43z"/><path style="fill:#000020" d="M95.39,55.80L95.67,55.65L96.54,55.79z"/><path style="fill:#000020" d="M96.43,59.03L95.99,58.97L96.46,58.46z"/><path style="fill:#000020" d="M100.32,60.65L100.14,59.83L100.27,59.93z"/><path style="fill:#000020" d="M97.84,60.93L97.67,60.12L97.82,60.20z"/><path style="fill:#000020" d="M100.59,62.03L100.44,61.24L100.57,61.32z"/><path style="fill:#000020" d="M98.11,62.31L97.96,61.51L98.09,61.60z"/><path style="fill:#000020" d="M100.88,63.42L100.71,62.62L100.84,62.70z"/><path style="fill:#000020" d="M98.39,63.71L98.23,62.89L98.36,62.98z"/><path style="fill:#000020" d="M99.00,64.87L99.53,64.76L100.13,64.89z"/><path style="fill:#000020" d="M194.08,68.95L193.92,67.28L194.04,67.38z"/><path style="fill:#000020" d="M103.90,69.48L103.75,68.68L103.86,68.75z"/><path style="fill:#000020" d="M104.18,70.85L104.03,70.06L104.15,70.15z"/><path style="fill:#000020" d="M101.70,71.13L101.55,70.32L101.67,70.42z"/><path style="fill:#000020" d="M104.45,72.25L104.30,71.44L104.43,71.53z"/><path style="fill:#000020" d="M194.35,72.54L194.20,70.86L194.31,70.96z"/><path style="fill:#000020" d="M101.98,72.52L101.82,71.72L101.95,71.80z"/><path style="fill:#000020" d="M170.64,73.64L170.48,72.81L170.59,72.89z"/><path style="fill:#000020" d="M168.16,73.88L167.93,73.15L168.12,73.18z"/><path style="fill:#000020" d="M102.58,73.98L103.14,73.84L103.72,73.99z"/><path style="fill:#000020" d="M168.44,75.28L168.28,74.48L168.41,74.56z"/><path style="fill:#000020" d="M194.63,76.12L194.48,74.17L194.59,74.27z"/><path style="fill:#000020" d="M151.88,76.12L151.12,76.15L150.83,75.89L151.96,75.90z"/><path style="fill:#000020" d="M89.10,76.97L88.79,77.45L88.86,76.67z"/><path style="fill:#000020" d="M106.98,77.72L107.53,77.48L107.50,78.03z"/><path style="fill:#000020" d="M132.87,78.03L132.58,77.75L132.88,77.22z"/><path style="fill:#000020" d="M107.76,79.40L107.61,78.61L107.74,78.70z"/><path style="fill:#000020" d="M194.76,79.70L194.64,78.89L194.76,77.76L194.86,77.86z"/><path style="fill:#000020" d="M105.28,79.68L105.13,78.88L105.25,78.97z"/><path style="fill:#000020" d="M108.04,80.79L107.88,79.99L108.01,80.08z"/><path style="fill:#000020" d="M105.56,81.07L105.40,80.26L105.53,80.35z"/><path style="fill:#000020" d="M108.16,82.46L108.17,81.63L108.29,81.74z"/><path style="fill:#000020" d="M106.43,83.09L106.71,82.96L107.29,83.09z"/><path style="fill:#000020" d="M120.30,86.33L120.29,85.20L120.41,85.31z"/><path style="fill:#000020" d="M118.29,86.67L118.84,86.53L119.71,86.69z"/><path style="fill:#000020" d="M79.75,86.86L79.70,85.82L79.98,85.79z"/><path style="fill:#000020" d="M76.32,87.70L76.17,83.82L76.29,83.93z"/><path style="fill:#000020" d="M180.28,91.57L180.15,90.44L180.26,90.54z"/><path style="fill:#000020" d="M98.24,90.72L97.98,92.39L97.89,90.44z"/><path style="fill:#000020" d="M96.59,92.96L96.56,92.68L96.79,92.59L97.63,92.74z"/><path style="fill:#000020" d="M76.60,95.42L76.45,91.55L76.56,91.65z"/><path style="fill:#000020" d="M186.36,99.01L186.21,97.61L186.33,97.70z"/><path style="fill:#000020" d="M76.88,103.14L76.73,99.27L76.84,99.37z"/><path style="fill:#000020" d="M109.43,103.42L109.12,102.87L109.42,102.00z"/><path style="fill:#000020" d="M186.66,103.67L186.37,103.44L186.48,102.57L186.60,102.68z"/><path style="fill:#000020" d="M89.36,103.63L88.23,103.69L88.33,103.50z"/><path style="fill:#000020" d="M95.63,105.07L95.34,104.52L95.63,100.65z"/><path style="fill:#000020" d="M187.74,106.45L187.45,105.92L187.59,105.06L187.71,105.14z"/><path style="fill:#000020" d="M95.90,106.71L95.75,105.90L95.88,105.99z"/><path style="fill:#000020" d="M104.18,107.81L104.03,106.99L104.16,107.09z"/><path style="fill:#000020" d="M104.45,109.19L104.30,108.39L104.43,108.48z"/><path style="fill:#000020" d="M96.02,109.47L95.90,108.09L96.05,107.54L96.15,107.64z"/><path style="fill:#000020" d="M162.62,110.49L161.96,110.49L161.93,110.31L162.65,110.31z"/><path style="fill:#000020" d="M160.15,110.87L160.00,109.75L160.14,109.83z"/><path style="fill:#000020" d="M104.74,110.85L104.57,110.04L104.70,110.13z"/><path style="fill:#000020" d="M77.15,110.87L77.00,106.99L77.11,107.09z"/><path style="fill:#000020" d="M95.90,112.25L95.62,110.84L95.91,109.77z"/><path style="fill:#000020" d="M188.01,114.18L187.86,110.30L187.97,110.40z"/><path style="fill:#000020" d="M105.28,114.16L105.13,113.34L105.25,113.44z"/><path style="fill:#000020" d="M96.18,115.56L96.03,113.88L96.14,113.98z"/><path style="fill:#000020" d="M105.55,116.10L105.41,114.99L105.53,115.08z"/><path style="fill:#000020" d="M105.83,118.03L105.68,116.92L105.80,117.01z"/><path style="fill:#000020" d="M96.45,118.32L96.30,116.91L96.42,117.01z"/><path style="fill:#000020" d="M77.43,118.59L77.28,114.71L77.39,114.81z"/><path style="fill:#000020" d="M184.15,119.41L184.01,118.68L184.14,118.57z"/><path style="fill:#000020" d="M106.11,120.24L105.96,119.12L106.07,119.22z"/><path style="fill:#000020" d="M96.73,120.80L96.58,119.40L96.69,119.50z"/><path style="fill:#000020" d="M188.29,121.90L188.14,118.02L188.25,118.12z"/><path style="fill:#000020" d="M97.01,122.71L96.85,121.89L96.98,121.99z"/><path style="fill:#000020" d="M106.38,123.00L106.23,121.60L106.34,121.70z"/><path style="fill:#000020" d="M81.42,123.24L81.15,124.11L81.02,123.24L81.27,123.07z"/><path style="fill:#000020" d="M97.29,124.64L97.13,123.82L97.25,123.92z"/><path style="fill:#000020" d="M80.48,125.79L80.30,125.21L80.71,125.18z"/><path style="fill:#000020" d="M106.66,126.03L106.51,124.36L106.62,124.46z"/><path style="fill:#000020" d="M77.70,126.31L77.55,122.43L77.66,122.53z"/><path style="fill:#000020" d="M97.56,126.57L97.40,125.75L97.53,125.85z"/><path style="fill:#000020" d="M97.84,128.22L97.68,127.41L97.81,127.50z"/><path style="fill:#000020" d="M188.56,129.62L188.41,125.74L188.52,125.84z"/><path style="fill:#000020" d="M106.78,129.60L106.78,127.95L106.89,128.05z"/><path style="fill:#000020" d="M98.11,129.87L97.96,129.07L98.08,129.16z"/><path style="fill:#000020" d="M98.39,131.27L98.23,130.45L98.36,130.54z"/><path style="fill:#000020" d="M176.44,131.82L175.72,131.82L175.75,131.63L176.41,131.63z"/><path style="fill:#000020" d="M89.29,131.81L88.99,131.26L89.36,131.03z"/><path style="fill:#000020" d="M90.92,132.55L89.89,132.41L90.95,132.38z"/><path style="fill:#000020" d="M77.97,133.21L77.83,130.15L77.94,130.25z"/><path style="fill:#000020" d="M85.23,133.97L84.11,133.98L84.93,133.69z"/><path style="fill:#000020" d="M99.50,134.57L99.34,133.74L99.46,133.84z"/><path style="fill:#000020" d="M107.06,136.24L107.06,135.11L107.18,135.23z"/><path style="fill:#000020" d="M188.84,137.34L188.69,133.46L188.80,133.56z"/><path style="fill:#000020" d="M99.76,137.35L99.48,136.51L99.64,135.95L99.76,136.04z"/><path style="fill:#000020" d="M87.08,139.55L86.93,136.22L87.04,136.32z"/><path style="fill:#000020" d="M189.11,145.06L188.96,141.18L189.07,141.29z"/><path style="fill:#000020" d="M189.39,152.78L189.24,148.91L189.35,149.01z"/><path style="fill:#000020" d="M186.49,154.93L186.32,156.02L186.09,154.96L186.33,154.78z"/><path style="fill:#000020" d="M185.75,157.01L185.61,157.25L185.43,157.11L185.53,155.81z"/><path style="fill:#000020" d="M189.66,160.50L189.51,156.63L189.63,156.73z"/><path style="fill:#000020" d="M189.78,165.18L189.79,164.36L189.92,164.47z"/><path style="fill:#000020" d="M188.46,165.78L188.85,165.77L188.84,168.23z"/><path style="fill:#000020" d="M183.45,170.96L183.19,171.54L183.07,170.94L183.31,170.81z"/><path style="fill:#000020" d="M183.02,172.26L181.44,172.14L183.06,172.10z"/><path style="fill:#d9e0da" d="M123.32,22.26L122.40,22.40L122.22,21.90L122.83,21.54L123.17,21.59z"/><path style="fill:#d9e0da" d="M127.01,23.35L127.88,23.25L127.88,23.91L127.01,23.81z"/><path style="fill:#d9e0da" d="M118.89,24.75L118.58,24.90L117.80,24.70L117.81,24.40L118.41,24.03L118.76,24.07z"/><path style="fill:#d9e0da" d="M123.87,26.12L122.95,26.26L122.77,25.76L123.38,25.41L123.73,25.46z"/><path style="fill:#d9e0da" d="M196.39,44.32L195.75,44.50L195.28,44.28L195.30,43.97L195.90,43.61L196.25,43.66z"/><path style="fill:#d9e0da" d="M216.10,51.34L215.75,52.50L214.43,52.51L205.38,49.74L202.79,51.12L201.09,52.18L195.06,64.90L193.92,66.17L193.76,65.28L194.60,64.16L200.68,51.21L209.37,46.04L210.05,46.13z"/><path style="fill:#d9e0da" d="M192.39,47.00L191.85,47.01L191.18,46.76L191.26,46.24L192.09,46.13z"/><path style="fill:#d9e0da" d="M196.91,48.17L196.30,48.35L195.84,48.05L196.83,47.54z"/><path style="fill:#d9e0da" d="M98.68,65.97L98.69,66.73L97.31,66.79L97.11,66.28L97.71,65.69L98.37,65.67z"/><path style="fill:#d9e0da" d="M102.27,75.84L101.17,75.92L100.70,75.72L100.96,75.05L101.29,74.80L102.22,74.81z"/><path style="fill:#d9e0da" d="M132.88,77.22L132.58,77.75L132.02,78.59L132.01,77.12L133.56,75.91L134.00,75.88z"/><path style="fill:#d9e0da" d="M106.34,84.78L105.95,85.00L104.77,85.00L104.57,84.84L104.68,84.01L105.78,83.93z"/><path style="fill:#d9e0da" d="M87.94,87.13L87.59,87.58L87.31,87.29L87.31,86.20L87.69,86.10z"/><path style="fill:#d9e0da" d="M172.77,88.70L173.07,88.93L172.37,89.14L171.52,89.13L171.05,88.59L171.62,88.06L172.56,87.81z"/><path style="fill:#d9e0da" d="M155.75,91.07L155.73,92.02L154.30,91.92L154.32,91.20L154.80,90.79L155.45,90.77z"/><path style="fill:#d9e0da" d="M109.72,93.29L109.70,93.94L109.50,94.10L108.35,94.10L108.14,93.93L108.17,93.32L108.74,92.99L109.40,92.98z"/><path style="fill:#d9e0da" d="M138.86,94.49L139.15,94.71L138.54,94.99L137.79,94.99L137.13,94.39L138.27,93.52L138.61,93.56z"/><path style="fill:#d9e0da" d="M121.84,96.86L121.81,97.81L120.38,97.71L120.40,96.99L120.88,96.58L121.54,96.56z"/><path style="fill:#d9e0da" d="M109.42,102.00L109.12,102.87L108.35,103.98L107.37,104.17L107.46,103.05L109.05,101.80z"/><path style="fill:#d9e0da" d="M88.54,104.75L88.17,104.99L87.84,104.65L87.84,103.87L88.23,103.69z"/><path style="fill:#d9e0da" d="M184.18,105.10L184.44,105.76L183.57,105.80L183.48,104.86L183.82,104.83z"/><path style="fill:#d9e0da" d="M89.12,122.19L88.62,122.38L88.58,121.42L88.74,121.30z"/><path style="fill:#d9e0da" d="M117.46,132.61L117.12,132.84L116.95,132.13L117.13,132.16z"/><path style="fill:#d9e0da" d="M118.49,133.78L117.93,133.57L117.81,132.91L118.20,133.00z"/><path style="fill:#d9e0da" d="M99.64,135.95L99.48,136.51L98.51,136.40L98.51,135.78L99.51,135.65z"/><path style="fill:#d9e0da" d="M116.93,138.37L116.75,138.30L116.87,137.62z"/><path style="fill:#d9e0da" d="M118.58,143.60L118.41,143.56L118.36,142.85z"/><path style="fill:#d9e0da" d="M119.58,145.63L119.00,145.19L118.92,144.23z"/><path style="fill:#d9e0da" d="M120.16,146.44L119.79,146.34L119.73,145.91L119.90,145.96z"/><path style="fill:#d9e0da" d="M120.96,147.85L120.61,147.71L120.54,147.01L120.69,147.08z"/><path style="fill:#d9e0da" d="M121.58,148.61L121.17,148.54L121.10,148.12z"/><path style="fill:#d9e0da" d="M122.97,150.24L122.33,150.13L122.21,149.47z"/><path style="fill:#d9e0da" d="M124.36,151.63L123.43,151.51L123.31,150.59z"/><path style="fill:#d9e0da" d="M127.72,154.46L127.07,154.53L125.10,152.85L124.96,152.24z"/><path style="fill:#f1f9f2" d="M80.44,83.20L80.06,83.93L79.24,84.05L79.07,83.60L79.72,81.68L80.44,81.69z"/><path style="fill:#f1f9f2" d="M79.15,88.05L79.33,87.70L79.75,86.86L79.98,85.79L80.72,85.83L80.72,87.06L79.80,88.39L79.34,88.36z"/><path style="fill:#f1f9f2" d="M185.82,113.70L185.79,114.34L185.13,115.65L184.30,115.74L184.38,115.06L184.14,114.79L184.08,114.07L184.82,113.16z"/><path style="fill:#f1f9f2" d="M184.15,119.41L184.14,118.57L184.58,117.58L185.78,117.56L185.78,119.05L185.40,119.78L184.40,119.81z"/><path style="fill:#f1f9f2" d="M82.12,123.61L82.10,124.56L81.73,125.30L80.98,125.99L80.48,125.79L80.71,125.18L81.15,124.11L81.42,123.24z"/><path style="fill:#f1f9f2" d="M82.12,127.73L82.10,129.26L81.42,129.99L80.71,130.02L80.58,129.61L81.27,128.43L81.37,127.45L81.83,127.43z"/><path style="fill:#f1f9f2" d="M187.48,159.47L187.15,160.96L186.48,161.71L185.98,161.80L185.65,160.90L186.26,160.86L186.34,160.35L186.13,160.19L185.80,159.67L186.22,159.17L187.18,159.17z"/><path style="fill:#ffffff" d="M138.39,77.30L138.26,77.84L136.75,78.91L136.55,78.41L137.26,77.69L137.33,76.72z"/><path style="fill:#ffffff" d="M79.07,83.60L79.03,82.34L79.50,81.69L79.72,81.68z"/><path style="fill:#ffffff" d="M89.00,86.39L89.27,87.33L88.13,87.22L87.94,87.13L87.69,86.10L88.73,86.10z"/><path style="fill:#ffffff" d="M89.84,104.33L89.73,104.89L88.54,104.75L88.23,103.69L89.36,103.63z"/><path style="fill:#ffffff" d="M162.65,110.31L161.93,110.31L161.96,110.12L162.62,110.12z"/><path style="fill:#ffffff" d="M90.40,121.71L90.38,122.35L89.12,122.19L88.74,121.30L88.87,121.13L89.82,121.13z"/><path style="fill:#ffffff" d="M81.27,128.43L80.58,129.61L80.69,128.12L81.16,127.46L81.37,127.45z"/><path style="fill:#ffffff" d="M90.37,131.35L90.95,132.38L89.89,132.41L89.40,132.15L89.29,131.81L89.36,131.03z"/><path style="fill:#ffffff" d="M176.41,132.00L175.75,132.00L175.72,131.82L176.44,131.82z"/><path style="fill:#ffffff" d="M116.56,134.76L116.19,134.76L116.19,134.39L116.56,134.39z"/><path style="fill:#ffffff" d="M164.24,154.91L163.59,154.76L164.04,154.51z"/><g id="Actor_.0"><g style="stroke:#000000;stroke-width:0.176"><path d="M93.30,50.22 C93.59,50.32 93.59,50.32 93.87,50.41 C93.98,50.42 93.98,50.41 94.09,50.42 C94.33,50.44 94.33,50.44 94.56,50.45 C94.93,50.41 94.93,50.41 95.29,50.36 C95.64,50.25 95.64,50.25 95.99,50.13 C96.28,49.97 96.28,49.97 96.56,49.80 C96.77,49.60 96.77,49.60 96.97,49.40 "/><path d="M96.30,50.01 C96.15,50.10 96.15,50.11 95.99,50.19 C95.65,50.31 95.65,50.31 95.30,50.42 C94.94,50.47 94.94,50.47 94.58,50.51 C94.29,50.49 94.29,50.49 94.00,50.47 "/><path d="M95.43,48.00 C95.35,47.95 95.35,47.95 95.26,47.91 C95.24,47.91 95.24,47.91 95.22,47.90 C95.13,47.89 95.13,47.89 95.04,47.87 C94.91,47.87 94.91,47.87 94.79,47.88 C94.66,47.90 94.66,47.90 94.53,47.94 C94.42,47.98 94.42,47.98 94.31,48.03 C94.22,48.10 94.22,48.10 94.14,48.17 "/><path d="M95.09,54.88 C95.24,54.93 95.24,54.93 95.40,54.98 C95.58,54.99 95.58,54.99 95.76,55.00 C95.95,54.98 95.95,54.98 96.14,54.95 C96.32,54.90 96.32,54.90 96.50,54.84 C96.66,54.75 96.66,54.75 96.81,54.66 C96.92,54.55 96.92,54.55 97.02,54.44 "/><path d="M95.47,48.43 C95.41,48.49 95.41,48.49 95.35,48.56 C95.25,48.62 95.25,48.62 95.15,48.67 C95.03,48.71 95.03,48.71 94.90,48.75 C94.78,48.77 94.78,48.77 94.65,48.78 C94.53,48.78 94.53,48.78 94.41,48.77 C94.31,48.74 94.31,48.74 94.21,48.70 "/><path d="M94.19,48.40 C94.25,48.34 94.25,48.33 94.32,48.28 C94.40,48.22 94.40,48.22 94.49,48.17 C94.60,48.14 94.60,48.14 94.70,48.10 C94.81,48.09 94.82,48.09 94.93,48.08 C95.03,48.08 95.03,48.08 95.13,48.09 C95.22,48.12 95.22,48.12 95.31,48.15 "/><path d="M92.73,49.53 L92.91,49.92 L93.30,50.22 "/><path d="M96.97,49.40 L97.15,48.96 L97.09,48.55 "/><path d="M95.51,48.37 L95.43,48.24 L95.49,48.36 L95.47,48.43 L95.55,48.27 L95.53,48.12 L95.43,48.00 "/><path d="M94.14,48.17 L94.03,48.31 L94.01,48.46 L94.07,48.59 L94.16,48.67 L94.14,48.53 L94.12,48.64 "/><path d="M94.80,54.53 L94.89,54.72 L95.09,54.88 "/><path d="M97.02,54.44 L97.11,54.23 L97.10,54.06 "/><path d="M94.21,48.70 L94.16,48.67 "/><path d="M94.14,48.53 L94.19,48.40 "/><path d="M95.31,48.15 L95.43,48.24 "/><path d="M96.97,49.45 L96.97,49.46 "/><path d="M96.94,49.48 L96.57,49.85 L96.66,49.76 "/></g><g style="stroke:#000000;stroke-width:0.529"><path d="M97.10,48.57 C96.96,48.38 96.96,48.38 96.81,48.20 C96.68,48.08 96.68,48.08 96.55,47.97 C96.33,47.85 96.33,47.85 96.11,47.75 C95.98,47.70 95.98,47.70 95.85,47.67 C95.61,47.62 95.61,47.62 95.37,47.58 C95.10,47.58 95.10,47.58 94.84,47.60 C94.57,47.65 94.57,47.65 94.30,47.72 C94.06,47.82 94.06,47.82 93.82,47.93 C93.52,48.16 93.51,48.16 93.22,48.40 C93.08,48.58 93.08,48.58 92.95,48.77 C92.87,48.94 92.87,48.94 92.80,49.11 C92.76,49.32 92.76,49.32 92.73,49.53 C92.73,49.55 92.73,49.55 92.74,49.57 C92.82,49.77 92.82,49.77 92.91,49.96 "/><path d="M97.14,55.05 C97.03,55.15 97.03,55.16 96.92,55.26 C96.77,55.35 96.77,55.35 96.62,55.43 C96.44,55.50 96.44,55.50 96.26,55.55 C96.07,55.58 96.07,55.58 95.88,55.60 C95.70,55.59 95.69,55.59 95.51,55.58 C95.37,55.53 95.37,55.53 95.22,55.48 "/><path d="M96.97,49.45 L97.16,49.00 L97.10,48.57 "/><path d="M92.91,49.96 L93.32,50.27 L93.90,50.46 L94.00,50.47 "/><path d="M96.30,50.01 L97.09,54.00 L97.23,54.82 L97.14,55.05 "/><path d="M95.22,55.48 L95.01,55.32 L94.92,55.12 L94.00,50.47 "/><path d="M96.30,50.01 L96.56,49.86 L96.94,49.48 "/><path d="M96.94,49.48 L96.97,49.46 "/></g></g><g id="Actor_.1"><g style="stroke:#000000;stroke-width:0.176"><path d="M167.13,72.38 C167.38,72.50 167.38,72.51 167.63,72.62 C167.95,72.68 167.96,72.68 168.28,72.73 C168.64,72.72 168.64,72.72 169.00,72.69 C169.36,72.61 169.36,72.61 169.72,72.52 C169.88,72.45 169.88,72.45 170.04,72.38 C170.20,72.30 170.20,72.31 170.36,72.23 C170.60,72.04 170.60,72.04 170.84,71.85 "/><path d="M169.02,77.09 C169.14,77.16 169.15,77.16 169.28,77.22 C169.45,77.25 169.45,77.25 169.62,77.28 C169.81,77.27 169.81,77.27 170.00,77.26 C170.19,77.22 170.19,77.22 170.38,77.17 C170.54,77.10 170.55,77.10 170.71,77.02 C170.84,76.92 170.84,76.92 170.97,76.82 "/><path d="M170.34,72.30 C170.04,72.44 170.04,72.44 169.73,72.58 C169.37,72.67 169.37,72.67 169.02,72.75 C168.66,72.77 168.66,72.77 168.30,72.78 C168.17,72.76 168.17,72.76 168.04,72.74 "/><path d="M168.20,70.95 C168.27,70.99 168.27,70.99 168.34,71.02 C168.45,71.04 168.45,71.04 168.57,71.06 C168.69,71.05 168.69,71.05 168.82,71.05 C168.94,71.02 168.94,71.02 169.07,70.99 C169.18,70.94 169.18,70.94 169.29,70.88 C169.38,70.82 169.38,70.82 169.46,70.75 "/><path d="M169.37,70.22 C169.27,70.19 169.26,70.18 169.16,70.16 C169.04,70.15 169.04,70.15 168.92,70.14 C168.79,70.16 168.79,70.16 168.66,70.18 C168.54,70.22 168.54,70.22 168.43,70.26 C168.33,70.32 168.33,70.32 168.23,70.38 C168.16,70.45 168.16,70.45 168.09,70.52 "/><path d="M168.26,70.62 C168.33,70.56 168.34,70.56 168.41,70.50 C168.51,70.46 168.51,70.46 168.60,70.41 C168.71,70.39 168.71,70.39 168.82,70.36 C168.93,70.35 168.93,70.35 169.04,70.35 C169.14,70.37 169.14,70.37 169.24,70.38 C169.32,70.42 169.32,70.42 169.39,70.46 "/><path d="M166.75,71.63 L166.83,72.04 L167.13,72.38 "/><path d="M170.84,71.85 L171.12,71.42 L171.17,71.00 "/><path d="M168.86,76.92 L169.02,77.09 "/><path d="M170.97,76.82 L171.11,76.60 L171.14,76.38 "/><path d="M169.46,70.75 L169.56,70.60 L169.58,70.45 L169.51,70.32 L169.37,70.22 "/><path d="M168.09,70.52 L168.03,70.67 L168.06,70.82 L168.16,70.94 L168.20,70.95 L168.16,70.88 L168.18,70.75 L168.16,70.93 "/><path d="M168.18,70.75 L168.26,70.62 "/><path d="M169.39,70.46 L169.49,70.56 L169.51,70.68 "/><path d="M169.53,70.64 L169.49,70.56 "/></g><g style="stroke:#000000;stroke-width:0.529"><path d="M170.34,70.10 C169.98,69.98 169.98,69.98 169.61,69.88 C169.35,69.86 169.35,69.86 169.09,69.85 C168.82,69.88 168.82,69.88 168.55,69.93 C168.29,70.01 168.29,70.01 168.04,70.10 C167.83,70.22 167.83,70.23 167.62,70.36 C167.51,70.44 167.51,70.44 167.41,70.52 C167.24,70.70 167.24,70.70 167.07,70.89 "/><path d="M169.14,77.69 C169.26,77.76 169.27,77.76 169.40,77.82 C169.57,77.85 169.57,77.85 169.74,77.87 C169.93,77.87 169.93,77.87 170.12,77.86 C170.31,77.81 170.31,77.81 170.49,77.77 C170.66,77.69 170.66,77.69 170.83,77.61 C170.96,77.52 170.96,77.52 171.08,77.41 "/><path d="M170.34,72.30 L170.85,71.90 L171.13,71.48 L171.18,71.02 L170.98,70.62 L170.71,70.37 L170.34,70.10 "/><path d="M167.07,70.89 L166.92,71.19 L166.75,71.63 L166.83,72.07 L167.15,72.43 L167.66,72.67 L168.04,72.74 "/><path d="M168.04,72.74 L168.98,77.51 L169.14,77.69 "/><path d="M171.08,77.41 L171.23,77.19 L171.25,76.97 L170.34,72.30 "/></g></g><g id="Actor_.2"><g style="stroke:#000000;stroke-width:0.176"><path d="M108.07,76.49 C107.92,76.70 107.92,76.70 107.76,76.91 C107.51,77.10 107.51,77.10 107.25,77.28 C106.91,77.42 106.90,77.42 106.56,77.56 C106.22,77.64 106.21,77.64 105.87,77.70 C105.51,77.71 105.51,77.72 105.15,77.71 C104.84,77.66 104.84,77.66 104.52,77.59 C104.28,77.47 104.28,77.46 104.05,77.33 "/><path d="M107.24,77.34 C106.92,77.48 106.92,77.48 106.60,77.61 C106.24,77.69 106.24,77.69 105.88,77.76 C105.53,77.77 105.53,77.77 105.18,77.77 C105.09,77.75 105.09,77.75 105.01,77.73 "/><path d="M105.29,76.01 C105.40,76.03 105.40,76.03 105.51,76.05 C105.63,76.05 105.63,76.05 105.76,76.05 C105.88,76.02 105.88,76.02 106.01,75.99 C106.12,75.95 106.13,75.95 106.24,75.90 C106.33,75.84 106.33,75.84 106.42,75.77 C106.46,75.71 106.46,75.71 106.51,75.65 C106.52,75.63 106.52,75.63 106.53,75.61 "/><path d="M106.37,75.23 C106.27,75.19 106.27,75.19 106.17,75.16 C106.06,75.15 106.05,75.15 105.94,75.14 C105.81,75.15 105.81,75.15 105.68,75.17 C105.56,75.20 105.56,75.20 105.44,75.24 C105.33,75.30 105.33,75.30 105.23,75.36 "/><path d="M105.16,75.72 C105.22,75.65 105.22,75.65 105.28,75.58 C105.35,75.53 105.35,75.53 105.41,75.48 C105.51,75.44 105.51,75.44 105.61,75.40 C105.72,75.37 105.72,75.37 105.83,75.35 C105.94,75.35 105.94,75.35 106.05,75.35 C106.15,75.37 106.15,75.37 106.25,75.39 C106.32,75.43 106.32,75.43 106.39,75.47 "/><path d="M105.96,82.07 C106.08,82.14 106.09,82.14 106.21,82.20 C106.38,82.24 106.38,82.24 106.54,82.27 C106.74,82.27 106.74,82.27 106.93,82.26 C107.11,82.23 107.12,82.23 107.30,82.18 C107.47,82.11 107.47,82.11 107.64,82.04 C107.78,81.95 107.78,81.95 107.91,81.85 C108.00,81.74 108.00,81.74 108.07,81.63 "/><path d="M108.00,75.67 L108.16,76.05 L108.07,76.49 "/><path d="M104.05,77.33 L103.94,77.19 L103.78,76.97 L103.74,76.56 "/><path d="M107.32,77.29 L107.24,77.34 "/><path d="M105.23,75.36 L105.08,75.50 L105.01,75.65 L105.03,75.79 L105.12,75.92 L105.21,75.97 L105.29,76.01 "/><path d="M106.53,75.61 L106.56,75.47 L106.50,75.34 L106.37,75.23 "/><path d="M105.17,75.94 L105.14,75.86 L105.13,75.92 "/><path d="M105.14,75.86 L105.16,75.72 "/><path d="M106.39,75.47 L106.47,75.58 L106.48,75.68 "/><path d="M105.82,81.89 L105.96,82.07 "/><path d="M108.07,81.63 L108.12,81.41 "/><path d="M106.51,75.64 L106.47,75.58 "/></g><g style="stroke:#000000;stroke-width:0.529"><path d="M104.08,75.83 C104.27,75.64 104.27,75.64 104.46,75.47 C104.55,75.39 104.55,75.38 104.65,75.31 C104.87,75.19 104.87,75.18 105.09,75.07 C105.35,74.98 105.35,74.98 105.61,74.91 C105.88,74.87 105.88,74.87 106.15,74.84 C106.41,74.86 106.41,74.86 106.66,74.89 C106.77,74.92 106.77,74.92 106.88,74.96 C107.13,75.05 107.13,75.05 107.39,75.13 "/><path d="M108.19,82.22 C108.11,82.33 108.11,82.34 108.03,82.44 C107.90,82.54 107.89,82.54 107.76,82.64 C107.59,82.71 107.59,82.71 107.42,82.78 C107.23,82.82 107.23,82.82 107.04,82.86 C106.85,82.87 106.85,82.87 106.66,82.87 C106.50,82.84 106.49,82.84 106.33,82.80 C106.21,82.74 106.20,82.73 106.08,82.66 "/><path d="M105.01,77.73 L104.55,77.64 L104.07,77.38 L103.78,77.01 L103.74,76.56 L104.08,75.83 "/><path d="M107.39,75.13 L107.72,75.41 L108.00,75.67 L108.17,76.08 L108.08,76.54 L107.75,76.97 L107.32,77.29 "/><path d="M107.32,77.29 L108.24,82.00 L108.19,82.22 "/><path d="M106.08,82.66 L105.94,82.48 L105.01,77.73 "/></g></g><g id="Actor_.3"><g style="stroke:#000000;stroke-width:0.176"><path d="M96.79,59.21 C97.04,59.33 97.04,59.33 97.30,59.44 C97.63,59.50 97.63,59.50 97.95,59.54 C98.32,59.53 98.32,59.53 98.68,59.50 C99.04,59.42 99.04,59.42 99.39,59.33 C99.71,59.18 99.71,59.18 100.02,59.03 C100.27,58.85 100.27,58.84 100.50,58.65 "/><path d="M98.67,63.92 C98.80,63.98 98.80,63.98 98.94,64.04 C99.11,64.07 99.11,64.07 99.28,64.09 C99.47,64.09 99.47,64.09 99.66,64.07 C99.85,64.03 99.85,64.03 100.03,63.98 C100.20,63.91 100.20,63.90 100.37,63.82 C100.49,63.73 100.50,63.73 100.62,63.62 "/><path d="M97.98,59.60 C98.33,59.58 98.33,59.58 98.69,59.56 C99.05,59.48 99.05,59.48 99.40,59.38 C99.69,59.25 99.69,59.25 99.98,59.11 "/><path d="M97.73,57.34 C97.79,57.27 97.80,57.27 97.86,57.20 C97.96,57.14 97.96,57.14 98.06,57.08 C98.18,57.04 98.18,57.04 98.30,57.00 C98.42,56.98 98.43,56.98 98.55,56.96 C98.67,56.96 98.67,56.96 98.80,56.97 C98.90,57.00 98.90,57.00 99.00,57.03 "/><path d="M99.11,57.56 C99.03,57.63 99.03,57.63 98.94,57.69 C98.83,57.75 98.83,57.75 98.72,57.80 C98.60,57.83 98.60,57.83 98.47,57.86 C98.36,57.87 98.36,57.87 98.24,57.87 C98.12,57.86 98.11,57.86 97.99,57.84 C97.92,57.81 97.92,57.81 97.84,57.77 "/><path d="M97.90,57.44 C97.97,57.38 97.97,57.38 98.05,57.32 C98.14,57.28 98.14,57.28 98.24,57.23 C98.35,57.20 98.35,57.20 98.46,57.18 C98.57,57.17 98.57,57.17 98.68,57.17 C98.78,57.18 98.78,57.18 98.88,57.20 C98.96,57.23 98.96,57.23 99.03,57.27 "/><path d="M96.39,58.46 L96.48,58.87 L96.79,59.21 "/><path d="M100.50,58.65 L100.77,58.22 L100.81,57.80 "/><path d="M98.51,63.74 L98.67,63.92 "/><path d="M100.62,63.62 L100.76,63.41 L100.78,63.19 "/><path d="M97.68,59.55 L97.98,59.60 "/><path d="M97.80,57.74 L97.71,57.64 L97.68,57.50 L97.73,57.34 "/><path d="M99.00,57.03 L99.15,57.13 L99.22,57.26 L99.20,57.41 L99.11,57.56 "/><path d="M97.84,57.77 L97.81,57.70 L97.82,57.57 L97.80,57.74 L97.84,57.77 "/><path d="M97.82,57.57 L97.90,57.44 "/><path d="M99.03,57.27 L99.13,57.37 L99.15,57.49 "/><path d="M99.18,57.46 L99.13,57.37 "/></g><g style="stroke:#000000;stroke-width:0.529"><path d="M96.39,58.46 C96.47,58.24 96.47,58.24 96.55,58.03 C96.62,57.87 96.62,57.87 96.70,57.72 C96.86,57.53 96.87,57.53 97.04,57.35 C97.14,57.26 97.14,57.26 97.24,57.18 C97.45,57.05 97.45,57.05 97.66,56.93 C97.91,56.83 97.92,56.83 98.17,56.75 C98.44,56.70 98.44,56.70 98.71,56.67 C98.97,56.67 98.98,56.67 99.23,56.69 C99.60,56.79 99.60,56.79 99.96,56.91 "/><path d="M100.73,64.22 C100.61,64.32 100.61,64.32 100.48,64.42 C100.32,64.50 100.32,64.50 100.15,64.58 C99.97,64.63 99.96,64.63 99.78,64.67 C99.59,64.68 99.59,64.68 99.40,64.69 C99.23,64.67 99.23,64.67 99.06,64.64 C98.92,64.58 98.92,64.58 98.79,64.51 "/><path d="M97.68,59.55 L97.33,59.50 L96.81,59.26 L96.48,58.91 L96.39,58.46 "/><path d="M99.96,56.91 L100.34,57.17 L100.61,57.42 L100.82,57.81 L100.78,58.28 L100.51,58.70 L100.02,59.09 L99.98,59.11 "/><path d="M99.98,59.11 L100.90,63.77 L100.88,64.00 L100.73,64.22 "/><path d="M98.79,64.51 L98.62,64.34 L97.68,59.55 "/></g></g><g id="Actor_.4"><g style="stroke:#000000;stroke-width:0.176"><path d="M77.02,80.96 C77.16,79.89 77.17,79.89 77.35,78.83 C77.55,78.32 77.55,78.32 77.79,77.83 C78.39,77.10 78.39,77.10 79.02,76.40 "/><path d="M103.04,148.59 C102.15,147.22 102.14,147.20 101.34,145.78 C100.00,141.91 99.99,141.90 98.75,138.00 C98.45,135.99 98.54,135.96 98.24,133.95 C97.87,133.02 97.80,133.04 97.42,132.12 C97.04,130.24 97.05,130.23 96.71,128.34 C95.79,121.31 95.79,121.31 94.91,114.28 C94.76,112.32 94.75,112.31 94.64,110.35 C94.77,109.31 94.84,109.31 94.95,108.27 C94.72,106.18 94.64,106.18 94.42,104.09 C94.54,100.14 94.55,100.13 94.76,96.18 C95.06,94.35 95.08,94.35 95.43,92.52 C95.63,91.89 95.64,91.88 95.88,91.26 "/><path d="M102.33,145.42 C102.79,146.37 102.79,146.38 103.28,147.32 C103.69,147.89 103.69,147.90 104.12,148.46 C104.47,148.74 104.47,148.75 104.84,149.00 "/><path d="M160.82,156.68 C158.98,157.52 158.98,157.52 157.11,158.32 C155.17,158.93 155.16,158.93 153.20,159.49 C151.19,159.86 151.18,159.86 149.16,160.17 C147.13,160.28 147.13,160.28 145.10,160.34 C143.04,160.20 143.04,160.20 140.99,160.01 C139.07,159.63 139.07,159.63 137.16,159.20 C135.18,158.54 135.18,158.54 133.21,157.84 C131.42,156.97 131.42,156.97 129.65,156.05 C128.02,154.96 128.01,154.96 126.41,153.83 C124.97,152.56 124.97,152.55 123.56,151.24 C122.31,149.78 122.31,149.77 121.10,148.28 C120.09,146.68 120.09,146.67 119.13,145.05 C118.38,143.34 118.37,143.33 117.67,141.60 C117.18,139.64 117.18,139.64 116.75,137.67 "/><path d="M175.95,134.83 C175.73,136.66 175.73,136.67 175.45,138.49 C175.00,140.07 174.99,140.08 174.49,141.65 C173.82,143.17 173.82,143.17 173.12,144.67 C172.26,146.11 172.26,146.11 171.37,147.52 C170.33,148.86 170.33,148.86 169.26,150.17 C168.05,151.39 168.05,151.39 166.82,152.58 "/><path d="M79.84,135.10 L79.04,133.95 L78.88,132.97 L77.02,80.96 L76.14,80.69 "/><path d="M79.02,76.40 L78.15,76.14 "/><path d="M78.88,132.97 L78.01,132.71 "/><path d="M79.77,85.31 L80.31,85.22 L80.72,85.73 L80.62,87.15 L79.80,88.17 L79.21,88.13 L79.00,87.86 "/><path d="M79.62,81.14 L80.16,81.05 L80.57,81.55 L80.50,82.86 L79.65,84.00 L79.17,84.00 L78.85,83.68 "/><path d="M79.02,76.40 L81.99,74.42 L84.11,133.62 "/><path d="M81.11,122.87 L81.62,122.78 L82.07,123.28 L81.96,124.70 L81.14,125.73 L80.56,125.69 L80.35,125.41 "/><path d="M81.26,127.04 L81.81,126.95 L82.21,127.46 L82.11,128.88 L81.29,129.90 L80.71,129.86 L80.49,129.59 "/><path d="M85.54,133.76 L83.39,73.89 L81.99,74.42 L81.12,74.16 "/><path d="M83.96,73.36 L83.39,73.83 L83.73,73.37 "/><path d="M83.62,73.82 L84.31,73.57 L84.64,73.12 "/><path d="M88.07,65.07 L87.73,65.53 L85.82,66.04 L85.13,66.69 "/><path d="M87.54,85.86 L87.16,86.62 L87.70,87.57 L88.77,87.77 L89.35,87.19 "/><path d="M87.18,75.84 L86.80,76.61 L87.29,77.51 L88.42,77.75 L88.99,77.17 "/><path d="M90.60,122.24 L90.02,122.83 L88.96,122.63 L88.42,121.70 L88.80,120.91 "/><path d="M89.97,104.72 L89.40,105.30 L88.42,105.15 L87.79,104.15 L88.17,103.39 "/><path d="M87.73,65.53 L91.02,65.65 L93.82,143.64 "/><path d="M90.96,132.26 L90.44,132.81 L89.31,132.64 L88.77,131.69 L89.16,130.93 "/><path d="M91.36,65.21 L91.02,65.65 L91.89,66.08 L94.68,143.98 L109.35,164.31 L109.67,165.31 "/><path d="M186.42,102.67 L185.49,102.94 L185.22,97.78 L184.51,95.73 L183.40,94.32 L181.54,92.89 L180.40,92.71 L183.19,170.62 L111.79,165.04 L109.63,104.74 L108.08,104.66 L107.19,104.00 L91.89,66.08 L92.07,65.33 "/><path d="M93.85,63.85 L109.10,101.65 L107.72,102.56 L107.24,103.53 L107.49,112.38 L109.35,164.28 L111.41,165.19 L111.42,166.26 "/><path d="M94.81,144.61 L107.69,162.56 "/><path d="M105.30,148.58 L104.57,149.22 L103.83,149.18 L103.04,148.59 "/><path d="M95.88,91.26 L96.06,91.25 L95.88,91.26 "/><path d="M94.66,110.83 L95.74,110.70 "/><path d="M95.87,109.42 L94.79,109.55 "/><path d="M94.47,107.84 L94.56,108.01 L94.43,106.73 L94.47,107.84 "/><path d="M94.66,106.10 L95.74,105.97 "/><path d="M94.42,104.09 L95.50,103.96 "/><path d="M96.51,92.39 L96.06,91.25 "/><path d="M96.30,90.32 L96.33,89.75 L96.49,91.02 L96.30,90.32 "/><path d="M98.40,131.54 L97.32,131.68 L97.88,134.69 L97.92,134.32 L98.08,134.66 L98.09,135.59 L97.88,134.69 "/><path d="M96.74,92.55 L96.88,91.15 L97.96,91.02 "/><path d="M96.88,91.15 L96.95,90.06 L97.98,90.18 "/><path d="M97.93,66.40 L97.45,66.69 "/><path d="M98.49,135.99 L99.57,135.86 "/><path d="M97.75,132.75 L98.83,132.62 "/><path d="M99.08,66.29 L98.13,66.33 "/><path d="M98.75,138.00 L99.83,137.87 "/><path d="M101.79,75.42 L102.91,75.43 "/><path d="M101.12,75.78 L101.60,75.49 "/><path d="M104.78,84.87 L105.26,84.58 "/><path d="M106.58,84.52 L105.85,84.44 "/><path d="M105.42,84.52 L105.65,84.46 "/><path d="M106.94,131.68 L107.15,132.47 L107.05,131.25 L106.94,131.68 "/><path d="M107.19,104.00 L108.27,103.87 "/><path d="M108.45,93.96 L109.42,93.53 L110.25,93.61 "/><path d="M109.58,104.28 L109.63,104.74 L180.40,92.71 L179.93,89.75 L109.39,101.73 L109.65,101.51 "/><path d="M109.37,101.41 L109.10,101.65 L109.28,102.54 "/><path d="M109.42,102.42 L109.39,101.73 "/><path d="M110.77,164.90 L111.70,165.15 L111.74,165.98 L111.74,165.78 "/><path d="M111.72,166.24 L111.70,166.43 L111.74,165.80 L111.73,166.08 "/><path d="M111.74,165.91 L111.74,165.98 "/><path d="M111.74,165.80 L111.75,165.62 "/><path d="M111.71,166.38 L111.71,166.41 "/><path d="M111.71,166.35 L111.74,165.85 "/><path d="M111.74,166.01 L111.74,166.04 "/><path d="M111.38,165.00 L111.71,165.04 L111.75,165.73 L111.75,165.55 "/><path d="M111.75,165.73 L111.75,165.20 "/><path d="M111.77,165.50 L111.76,165.41 "/><path d="M111.76,165.53 L111.76,165.25 "/><path d="M164.78,152.47 L164.82,152.94 L163.33,152.88 L162.12,153.71 L161.56,155.98 L160.82,156.68 "/><path d="M115.80,134.45 L115.90,135.01 L116.47,135.21 L116.98,134.88 L116.96,134.34 "/><path d="M116.52,131.31 L116.72,132.19 L117.40,132.81 L117.42,132.39 "/><path d="M117.46,132.86 L118.06,133.28 L118.61,134.53 "/><path d="M122.38,97.26 L121.55,97.18 L120.58,97.61 "/><path d="M138.41,94.32 L137.55,94.73 "/><path d="M139.34,94.38 L138.61,94.29 "/><path d="M155.37,91.44 L154.51,91.84 "/><path d="M156.31,91.49 L155.58,91.41 "/><path d="M160.82,156.68 L160.78,156.21 "/><path d="M161.76,155.03 L161.71,154.56 "/><path d="M161.76,110.04 L161.87,110.61 L162.44,110.80 L162.94,110.48 L162.92,109.93 "/><path d="M163.35,154.61 L163.46,155.18 L164.03,155.38 L164.53,155.05 L164.52,154.50 "/><path d="M166.82,152.58 L165.87,153.03 L164.82,152.94 "/><path d="M166.82,152.58 L166.78,152.11 "/><path d="M172.42,88.54 L171.78,88.75 "/><path d="M171.48,88.96 L171.63,88.84 "/><path d="M172.54,88.53 L173.10,88.56 "/><path d="M173.89,132.02 L174.00,131.34 L174.92,130.25 L174.87,129.78 "/><path d="M175.50,131.74 L175.61,132.30 L176.18,132.50 L176.68,132.17 L176.67,131.64 "/><path d="M174.92,130.25 L175.61,129.51 L175.71,128.41 "/><path d="M175.97,135.08 L175.95,134.79 "/><path d="M180.09,90.65 L179.93,89.75 "/><path d="M184.02,164.61 L182.16,112.59 L181.28,112.33 L183.14,164.34 L183.61,166.01 L184.11,166.47 L184.98,166.73 L184.24,165.73 L184.02,164.61 L183.14,164.34 "/><path d="M181.28,112.33 L181.61,110.20 L182.12,109.10 L181.54,92.89 L182.48,92.61 "/><path d="M180.40,92.71 L180.36,92.24 "/><path d="M182.16,112.59 L182.30,111.24 L182.93,109.47 L184.16,108.04 L183.29,107.77 L182.12,109.10 "/><path d="M183.29,107.77 L186.25,105.79 L187.04,106.03 L184.16,108.04 "/><path d="M184.23,104.96 L183.60,104.49 L183.31,104.88 L183.33,105.58 L184.00,106.71 L184.37,106.68 L184.54,106.01 "/><path d="M183.40,94.32 L184.34,94.04 "/><path d="M184.34,170.88 L184.18,166.49 "/><path d="M184.48,119.84 L185.40,119.43 L185.84,118.54 L185.79,117.19 L185.31,116.83 L184.95,116.92 L184.96,118.27 L184.22,119.46 L184.48,119.84 "/><path d="M184.15,119.49 L184.14,118.05 L184.91,116.95 "/><path d="M184.63,115.69 L184.33,115.67 L183.92,115.16 L183.89,114.24 L184.25,113.29 L185.08,112.67 L185.64,113.01 L185.77,113.86 L185.25,115.25 L184.63,115.69 "/><path d="M184.77,112.78 L184.82,114.08 L184.00,115.31 "/><path d="M183.87,114.54 L184.49,114.81 "/><path d="M184.98,166.73 L185.91,166.80 L187.60,166.06 L187.83,170.63 L187.60,171.36 L187.23,171.83 L186.74,172.00 "/><path d="M185.82,161.46 L185.50,160.63 L185.67,159.65 L186.26,158.78 L187.04,158.65 L187.40,159.30 L187.15,160.75 L186.59,161.45 L185.82,161.46 "/><path d="M186.27,160.49 L185.65,161.22 "/><path d="M185.71,159.57 L186.20,160.04 "/><path d="M185.91,157.40 L185.42,156.89 L185.39,155.97 L185.80,154.96 L186.65,154.39 L187.25,155.13 L187.18,156.09 L186.74,156.98 L185.91,157.40 "/><path d="M186.26,154.50 L186.31,155.83 L185.50,157.05 "/><path d="M186.35,105.69 L186.31,104.80 L185.78,104.10 L185.49,102.94 "/><path d="M185.34,98.82 L186.28,98.55 "/><path d="M186.34,160.32 L186.54,159.50 L186.41,158.68 "/><path d="M187.25,104.53 L186.31,104.80 L186.52,105.34 L186.25,105.79 "/><path d="M187.12,104.40 L186.18,104.68 "/><path d="M187.68,171.72 L187.65,171.72 "/><path d="M187.88,169.70 L188.81,169.42 "/><path d="M187.73,166.00 L188.67,165.54 "/><path d="M189.25,165.26 L187.13,106.06 L187.62,105.33 "/></g><g style="stroke:#000000;stroke-width:0.529"><path d="M181.57,92.27 C182.03,92.42 182.03,92.43 182.48,92.61 C183.42,93.31 183.42,93.31 184.34,94.04 C184.87,94.68 184.88,94.68 185.38,95.35 "/><path d="M105.30,148.58 C105.82,147.32 105.82,147.31 106.30,146.03 C106.51,144.99 106.51,144.99 106.68,143.94 C106.92,140.65 106.91,140.64 107.12,137.35 C107.13,135.98 107.14,135.98 107.12,134.61 C106.89,132.76 106.83,132.76 106.61,130.92 C106.72,129.64 106.80,129.64 106.90,128.36 C106.34,122.31 106.33,122.31 105.69,116.27 C105.08,112.33 105.08,112.32 104.41,108.39 C103.25,103.38 103.25,103.37 102.02,98.38 C101.18,95.93 101.16,95.93 100.27,93.51 C99.89,92.72 99.89,92.71 99.47,91.95 C98.74,91.05 98.74,91.05 97.98,90.18 "/><path d="M96.51,92.39 C96.04,95.38 96.04,95.39 95.64,98.40 C95.53,101.17 95.53,101.18 95.50,103.96 C95.73,106.05 95.80,106.05 96.04,108.14 C95.92,109.12 95.85,109.12 95.73,110.11 C95.83,112.13 95.85,112.13 95.99,114.15 C96.36,117.69 96.35,117.69 96.74,121.23 C97.55,126.39 97.53,126.40 98.40,131.54 C98.81,132.62 98.89,132.60 99.30,133.68 C99.55,135.51 99.49,135.52 99.72,137.35 C100.16,139.06 100.17,139.06 100.64,140.76 C101.47,143.09 101.47,143.10 102.33,145.42 "/><path d="M116.76,137.47 C117.16,139.30 117.17,139.31 117.63,141.13 C118.33,142.86 118.34,142.87 119.09,144.58 C120.05,146.20 120.05,146.21 121.06,147.81 C122.25,149.29 122.26,149.30 123.50,150.75 C124.91,152.07 124.92,152.08 126.37,153.36 C127.93,154.46 127.93,154.46 129.52,155.51 C131.33,156.46 131.33,156.47 133.17,157.37 C135.06,158.06 135.06,158.06 136.97,158.70 C138.95,159.14 138.95,159.15 140.95,159.54 C142.98,159.73 142.98,159.73 145.02,159.88 C147.07,159.82 147.07,159.82 149.12,159.70 C151.32,159.34 151.32,159.33 153.52,158.92 C155.30,158.41 155.30,158.41 157.07,157.85 C158.93,157.05 158.94,157.05 160.78,156.21 "/><path d="M166.34,152.40 C167.79,151.07 167.80,151.07 169.22,149.70 C170.29,148.40 170.29,148.39 171.33,147.05 C172.22,145.64 172.22,145.64 173.08,144.20 C173.78,142.70 173.78,142.70 174.45,141.18 C174.95,139.62 174.95,139.62 175.41,138.05 C175.70,136.45 175.70,136.44 175.95,134.83 "/><path d="M175.71,128.41 C175.37,126.91 175.36,126.90 174.98,125.41 C174.41,123.88 174.41,123.88 173.80,122.37 C173.03,120.92 173.03,120.92 172.22,119.49 C171.15,118.01 171.14,118.01 170.04,116.55 C169.02,115.44 169.02,115.44 167.97,114.35 C166.69,113.25 166.68,113.25 165.37,112.17 "/><path d="M159.61,108.97 C157.47,108.12 157.47,108.12 155.30,107.33 C153.31,106.89 153.31,106.90 151.31,106.52 C149.34,106.34 149.34,106.34 147.37,106.22 C145.25,106.29 145.25,106.28 143.13,106.40 C141.11,106.73 141.11,106.73 139.09,107.11 C137.14,107.68 137.13,107.68 135.19,108.31 C133.33,109.12 133.33,109.12 131.50,109.98 C129.59,111.15 129.59,111.16 127.72,112.38 C126.35,113.47 126.34,113.47 125.00,114.59 C123.70,115.95 123.69,115.95 122.43,117.35 C121.02,119.38 121.03,119.39 119.67,121.46 C119.01,122.72 119.00,122.72 118.38,124.00 C117.75,125.78 117.75,125.78 117.17,127.57 C116.81,129.40 116.81,129.41 116.51,131.25 "/><path d="M180.00,89.74 L180.36,92.24 L181.57,92.27 "/><path d="M185.38,95.35 L186.15,97.50 L186.47,103.05 L187.62,105.33 L189.75,164.81 L188.67,165.54 L188.77,170.27 L188.17,171.55 L186.74,172.00 L184.13,170.80 L183.19,170.62 L182.98,171.90 L182.51,171.96 L111.70,166.43 L111.72,166.26 L110.41,166.00 L109.67,165.31 L95.12,145.16 L94.68,143.98 L89.55,142.76 L87.81,141.33 L87.13,139.38 L86.98,135.26 L86.48,134.22 L85.77,133.82 L84.40,133.56 L80.48,135.24 L78.97,134.83 L78.14,133.64 L76.21,79.64 L76.92,77.57 L78.15,76.14 L81.56,73.92 L84.64,73.12 L84.71,67.54 L85.13,66.69 L86.15,65.58 L87.05,65.18 L88.07,65.07 L92.07,65.33 L92.68,64.47 L93.85,63.85 "/><path d="M79.24,87.69 L79.00,87.86 L78.89,87.49 L78.96,86.53 L79.70,85.34 L79.89,86.27 L79.24,87.69 "/><path d="M79.09,83.52 L78.85,83.68 L78.74,83.32 L78.81,82.35 L79.55,81.17 L79.73,82.21 L79.09,83.52 "/><path d="M80.45,128.27 L80.49,129.59 L81.24,128.61 L81.26,127.04 L80.45,128.27 "/><path d="M80.48,125.32 L80.35,125.41 L80.23,125.05 L80.30,124.08 L81.04,122.90 L81.22,123.94 L80.48,125.32 "/><path d="M87.15,76.05 L87.68,77.10 L88.39,77.35 L88.96,77.19 L88.90,76.33 L88.42,75.86 L87.61,75.66 L87.15,76.05 "/><path d="M88.26,103.31 L88.97,103.22 L89.55,103.50 L90.01,104.21 L89.97,104.72 L89.38,104.89 L88.67,104.64 L88.20,104.05 L88.26,103.31 "/><path d="M88.38,87.29 L89.35,87.19 L89.25,86.34 L88.42,85.72 L87.64,85.78 L87.57,86.52 L88.38,87.29 "/><path d="M89.24,131.68 L90.00,132.36 L90.96,132.26 L90.87,131.41 L89.95,130.76 L89.25,130.85 L89.24,131.68 "/><path d="M89.30,122.17 L88.83,121.57 L88.80,120.91 L89.23,120.73 L89.95,120.87 L90.51,121.40 L90.65,122.09 L90.01,122.42 L89.30,122.17 "/><path d="M97.98,90.18 L97.82,92.41 L96.51,92.39 "/><path d="M105.30,148.58 L103.42,145.99 L102.33,145.42 "/><path d="M108.75,104.28 L108.27,103.87 L108.37,103.37 L109.42,102.42 L109.58,104.27 L108.75,104.28 "/><path d="M160.78,156.21 L161.51,155.51 L161.77,153.87 L162.60,152.73 L164.04,152.32 L165.30,152.58 L166.34,152.40 "/><path d="M175.95,134.83 L175.47,133.98 L174.12,132.81 L173.86,131.68 L173.96,130.87 L174.31,130.25 L175.28,129.46 L175.71,128.41 "/><path d="M165.37,112.17 L164.40,111.81 L162.63,112.21 L161.17,111.93 L160.25,110.87 L160.09,109.71 L159.61,108.97 "/><path d="M116.51,131.25 L117.00,132.10 L118.41,133.39 L118.61,134.53 L118.15,135.83 L117.18,136.63 L116.76,137.47 "/><path d="M116.43,134.05 L116.96,134.34 L116.81,134.57 L116.43,134.74 L115.86,134.54 L116.03,134.16 L116.43,134.05 "/><path d="M161.80,110.11 L162.39,110.34 L162.90,110.01 L162.39,109.64 L161.99,109.75 L161.80,110.11 "/><path d="M163.53,154.38 L163.35,154.61 L163.78,154.90 L164.49,154.58 L164.20,154.25 L163.53,154.38 "/><path d="M175.56,131.84 L175.92,131.36 L176.66,131.63 L176.14,132.03 L175.56,131.84 "/><path d="M184.54,106.00 L184.23,104.96 L184.54,106.00 "/><path d="M186.34,160.32 L186.20,160.05 L186.34,160.32 "/></g></g><g id="Actor_.5"><g style="stroke:#000000;stroke-width:0.176"><path d="M137.05,77.46 C136.85,77.66 136.84,77.66 136.63,77.86 C136.34,78.03 136.34,78.03 136.05,78.19 C135.70,78.30 135.70,78.30 135.35,78.41 C134.99,78.46 134.99,78.46 134.62,78.49 C134.28,78.47 134.28,78.47 133.94,78.44 C133.77,78.39 133.77,78.38 133.60,78.32 C133.49,78.29 133.49,78.29 133.37,78.25 "/><path d="M135.18,82.91 C135.32,82.97 135.32,82.97 135.47,83.01 C135.65,83.03 135.65,83.03 135.83,83.04 C136.02,83.02 136.03,83.02 136.22,83.00 C136.40,82.94 136.40,82.94 136.58,82.88 C136.74,82.80 136.74,82.80 136.89,82.71 C137.00,82.60 137.00,82.60 137.11,82.49 "/><path d="M134.09,78.50 C134.37,78.53 134.37,78.53 134.64,78.55 C135.00,78.51 135.00,78.51 135.36,78.46 C135.71,78.36 135.71,78.36 136.05,78.25 C136.23,78.15 136.23,78.15 136.40,78.05 "/><path d="M135.41,76.19 C135.33,76.16 135.33,76.16 135.24,76.13 C135.14,76.12 135.14,76.12 135.03,76.11 C134.92,76.13 134.92,76.13 134.81,76.14 C134.70,76.17 134.70,76.17 134.60,76.21 C134.53,76.24 134.53,76.25 134.46,76.28 C134.44,76.30 134.44,76.30 134.42,76.31 C134.36,76.37 134.36,76.37 134.29,76.43 "/><path d="M134.13,76.34 C134.18,76.27 134.18,76.27 134.24,76.20 C134.32,76.13 134.33,76.13 134.42,76.07 C134.53,76.02 134.53,76.02 134.64,75.97 C134.77,75.94 134.77,75.94 134.89,75.92 C135.02,75.91 135.02,75.91 135.15,75.91 C135.26,75.93 135.26,75.93 135.37,75.95 C135.45,76.00 135.45,76.00 135.53,76.04 "/><path d="M134.30,76.74 C134.39,76.77 134.39,76.77 134.49,76.80 C134.61,76.82 134.61,76.82 134.72,76.82 C134.86,76.81 134.86,76.81 134.99,76.79 C135.10,76.76 135.10,76.76 135.22,76.72 C135.30,76.68 135.30,76.68 135.37,76.64 C135.40,76.62 135.40,76.62 135.43,76.60 C135.50,76.54 135.50,76.54 135.57,76.47 "/><path d="M137.20,76.61 L137.24,77.03 L137.05,77.46 "/><path d="M133.37,78.25 L132.99,77.94 L132.82,77.55 "/><path d="M134.89,82.56 L134.97,82.75 L135.18,82.91 "/><path d="M137.11,82.49 L137.21,82.28 L137.19,82.09 "/><path d="M135.53,76.28 L135.41,76.19 "/><path d="M134.29,76.43 L134.23,76.56 L134.25,76.69 L134.27,76.71 L134.17,76.63 L134.10,76.49 L134.13,76.34 "/><path d="M135.53,76.04 L135.63,76.17 L135.65,76.31 L135.57,76.47 L135.58,76.40 L135.53,76.28 L135.60,76.41 "/><path d="M134.23,76.56 L134.22,76.68 "/><path d="M134.27,76.71 L134.30,76.74 "/></g><g style="stroke:#000000;stroke-width:0.529"><path d="M137.20,76.61 C137.06,76.43 137.06,76.43 136.92,76.26 C136.79,76.14 136.79,76.14 136.66,76.02 C136.45,75.90 136.45,75.90 136.23,75.79 C136.10,75.75 136.10,75.75 135.96,75.71 C135.73,75.66 135.73,75.66 135.49,75.62 C135.23,75.62 135.23,75.62 134.96,75.63 C134.69,75.68 134.69,75.68 134.42,75.75 C134.18,75.85 134.18,75.85 133.94,75.95 C133.75,76.09 133.75,76.09 133.56,76.23 C133.45,76.32 133.44,76.32 133.33,76.42 C133.19,76.60 133.19,76.60 133.06,76.80 C132.98,76.96 132.97,76.96 132.90,77.12 C132.86,77.34 132.86,77.35 132.82,77.57 "/><path d="M135.30,83.51 C135.44,83.56 135.44,83.56 135.59,83.61 C135.77,83.63 135.77,83.63 135.95,83.64 C136.14,83.62 136.14,83.62 136.33,83.59 C136.52,83.54 136.52,83.54 136.70,83.48 C136.85,83.40 136.85,83.40 137.01,83.31 C137.12,83.21 137.12,83.20 137.22,83.10 "/><path d="M136.40,78.05 L136.63,77.92 L137.05,77.51 L137.25,77.06 L137.20,76.61 "/><path d="M132.82,77.57 L132.99,77.98 L133.39,78.30 L133.96,78.49 L134.09,78.50 "/><path d="M134.09,78.50 L135.01,83.15 L135.09,83.35 L135.30,83.51 "/><path d="M137.22,83.10 L137.32,82.87 L137.30,82.65 L137.19,82.05 L136.40,78.05 "/></g></g><g id="Actor_.6"><g style="stroke:#000000;stroke-width:0.176"><path d="M101.26,68.59 C101.60,68.62 101.60,68.62 101.95,68.63 C102.32,68.59 102.32,68.59 102.68,68.53 C103.03,68.42 103.03,68.42 103.37,68.29 C103.65,68.13 103.66,68.13 103.93,67.95 C104.12,67.77 104.11,67.77 104.29,67.58 C104.31,67.56 104.31,67.56 104.32,67.54 "/><path d="M101.33,68.65 C101.65,68.68 101.65,68.68 101.97,68.69 C102.33,68.64 102.33,68.64 102.69,68.58 C103.03,68.47 103.03,68.47 103.37,68.35 C103.50,68.28 103.50,68.28 103.64,68.19 "/><path d="M102.81,66.61 C102.75,66.67 102.75,66.67 102.69,66.73 C102.60,66.79 102.60,66.79 102.50,66.84 C102.38,66.89 102.38,66.89 102.26,66.93 C102.13,66.95 102.13,66.95 102.00,66.96 C101.88,66.96 101.88,66.96 101.76,66.95 C101.66,66.92 101.66,66.92 101.56,66.89 "/><path d="M101.46,66.36 C101.54,66.29 101.54,66.29 101.63,66.22 C101.74,66.17 101.74,66.17 101.85,66.12 C101.98,66.09 101.98,66.09 102.10,66.06 C102.23,66.05 102.23,66.05 102.35,66.05 C102.47,66.07 102.47,66.07 102.58,66.09 C102.67,66.13 102.67,66.13 102.76,66.17 "/><path d="M101.52,66.59 C101.58,66.53 101.58,66.52 101.64,66.46 C101.72,66.41 101.72,66.41 101.81,66.36 C101.92,66.32 101.92,66.32 102.02,66.29 C102.13,66.27 102.13,66.27 102.24,66.26 C102.35,66.26 102.35,66.26 102.45,66.27 C102.54,66.29 102.54,66.29 102.63,66.32 "/><path d="M102.45,73.07 C102.60,73.12 102.60,73.12 102.75,73.16 C102.94,73.18 102.94,73.18 103.12,73.18 C103.31,73.16 103.31,73.16 103.50,73.13 C103.68,73.07 103.68,73.07 103.86,73.01 C104.01,72.92 104.02,72.92 104.16,72.83 C104.26,72.73 104.27,72.72 104.36,72.62 "/><path d="M100.07,67.75 L100.26,68.13 L100.67,68.42 L100.89,68.48 L101.26,68.59 "/><path d="M104.32,67.54 L104.49,67.11 L104.42,66.70 "/><path d="M101.56,66.89 L101.41,66.79 L101.35,66.65 L101.36,66.50 L101.46,66.36 "/><path d="M102.76,66.17 L102.86,66.29 L102.89,66.43 L102.83,66.58 L102.81,66.61 L102.82,66.53 L102.76,66.41 L102.84,66.56 "/><path d="M101.49,66.84 L101.47,66.72 L101.46,66.82 "/><path d="M101.47,66.72 L101.52,66.59 "/><path d="M102.63,66.32 L102.76,66.41 "/><path d="M102.14,72.73 L102.23,72.92 L102.45,73.07 "/><path d="M104.36,72.62 L104.45,72.38 "/></g><g style="stroke:#000000;stroke-width:0.529"><path d="M100.12,67.32 C100.19,67.15 100.19,67.15 100.27,66.99 C100.40,66.79 100.39,66.79 100.53,66.61 C100.82,66.36 100.82,66.36 101.12,66.13 C101.35,66.01 101.36,66.01 101.60,65.91 C101.86,65.84 101.86,65.84 102.13,65.78 C102.40,65.77 102.40,65.76 102.67,65.76 C102.91,65.79 102.91,65.80 103.15,65.84 C103.28,65.87 103.28,65.87 103.40,65.92 C103.63,66.02 103.63,66.02 103.86,66.13 C103.99,66.24 103.98,66.24 104.11,66.36 C104.26,66.53 104.26,66.53 104.42,66.70 "/><path d="M104.48,73.21 C104.38,73.32 104.38,73.32 104.28,73.42 C104.13,73.52 104.13,73.52 103.98,73.60 C103.80,73.67 103.80,73.67 103.62,73.73 C103.43,73.76 103.43,73.76 103.24,73.78 C103.06,73.77 103.05,73.77 102.87,73.76 C102.72,73.72 102.72,73.72 102.57,73.67 "/><path d="M101.33,68.65 L101.28,68.65 L100.69,68.47 L100.27,68.16 L100.07,67.76 L100.12,67.32 "/><path d="M104.42,66.70 L104.50,67.15 L104.33,67.60 L103.93,68.02 L103.64,68.19 "/><path d="M103.64,68.19 L104.57,72.98 L104.48,73.21 "/><path d="M102.57,73.67 L102.35,73.51 L102.25,73.31 L101.33,68.65 "/></g></g><g id="Actor_.7"><g style="stroke:#000000;stroke-width:0.176"><path d="M150.04,75.15 C150.25,75.30 150.26,75.30 150.48,75.43 C150.78,75.52 150.78,75.52 151.09,75.59 C151.44,75.60 151.44,75.60 151.79,75.60 C152.15,75.55 152.16,75.54 152.52,75.48 C152.78,75.38 152.78,75.38 153.03,75.28 C153.11,75.25 153.11,75.25 153.19,75.22 C153.46,75.05 153.47,75.05 153.73,74.87 C153.92,74.67 153.92,74.67 154.09,74.45 "/><path d="M154.11,79.55 C154.02,79.67 154.02,79.67 153.93,79.77 C153.79,79.87 153.78,79.87 153.64,79.96 C153.46,80.03 153.46,80.03 153.28,80.09 C153.09,80.13 153.09,80.13 152.91,80.16 C152.72,80.15 152.72,80.16 152.53,80.15 C152.37,80.11 152.37,80.11 152.22,80.07 C152.10,80.00 152.10,80.00 151.99,79.92 "/><path d="M153.19,75.28 C152.86,75.41 152.86,75.41 152.53,75.53 C152.17,75.60 152.17,75.60 151.81,75.66 C151.46,75.66 151.46,75.65 151.11,75.64 C151.08,75.64 151.08,75.64 151.06,75.63 "/><path d="M151.31,73.88 C151.41,73.91 151.42,73.91 151.52,73.93 C151.64,73.94 151.64,73.94 151.77,73.94 C151.89,73.92 151.90,73.92 152.02,73.89 C152.14,73.85 152.14,73.85 152.26,73.80 C152.35,73.75 152.35,73.74 152.45,73.68 C152.51,73.61 152.51,73.61 152.56,73.54 "/><path d="M152.46,73.13 C152.37,73.09 152.37,73.09 152.27,73.05 C152.16,73.04 152.16,73.04 152.04,73.02 C151.91,73.03 151.91,73.03 151.79,73.04 C151.66,73.08 151.66,73.08 151.54,73.11 C151.43,73.16 151.43,73.16 151.32,73.22 C151.24,73.28 151.24,73.29 151.16,73.35 "/><path d="M151.23,73.59 C151.29,73.52 151.29,73.52 151.34,73.46 C151.42,73.40 151.42,73.40 151.51,73.35 C151.61,73.31 151.61,73.31 151.71,73.27 C151.82,73.25 151.82,73.25 151.93,73.24 C152.04,73.24 152.04,73.24 152.15,73.24 C152.24,73.26 152.24,73.26 152.33,73.29 C152.40,73.33 152.40,73.33 152.47,73.37 "/><path d="M149.82,74.36 L149.81,74.78 L150.04,75.15 "/><path d="M154.09,74.45 L154.22,74.02 L154.11,73.62 "/><path d="M154.18,79.33 L154.11,79.55 "/><path d="M151.99,79.92 L151.87,79.73 "/><path d="M153.37,75.17 L153.19,75.28 "/><path d="M151.22,73.82 L151.31,73.88 "/><path d="M152.56,73.54 L152.62,73.39 L152.58,73.25 L152.46,73.13 "/><path d="M151.16,73.35 L151.08,73.50 L151.08,73.65 L151.16,73.78 L151.22,73.82 L151.19,73.72 L151.18,73.80 "/><path d="M151.19,73.72 L151.23,73.59 "/><path d="M152.47,73.37 L152.54,73.48 L152.54,73.57 "/><path d="M152.54,73.48 L152.57,73.54 "/></g><g style="stroke:#000000;stroke-width:0.529"><path d="M150.20,73.64 C150.49,73.39 150.49,73.39 150.78,73.14 C151.01,73.02 151.01,73.02 151.24,72.92 C151.50,72.84 151.50,72.84 151.77,72.77 C152.04,72.75 152.04,72.75 152.31,72.73 C152.56,72.76 152.56,72.76 152.81,72.79 C152.93,72.83 152.93,72.83 153.04,72.87 C153.28,72.97 153.28,72.97 153.52,73.06 "/><path d="M152.10,80.52 C152.22,80.59 152.22,80.60 152.34,80.66 C152.49,80.71 152.49,80.71 152.65,80.74 C152.84,80.75 152.84,80.75 153.02,80.75 C153.21,80.72 153.21,80.72 153.40,80.69 C153.58,80.62 153.58,80.62 153.76,80.55 C153.90,80.46 153.90,80.46 154.04,80.37 C154.14,80.26 154.14,80.26 154.23,80.15 "/><path d="M151.06,75.63 L150.50,75.48 L150.06,75.21 L149.81,74.80 L149.82,74.36 L149.98,74.02 L150.20,73.64 "/><path d="M153.52,73.06 L154.11,73.62 L154.23,74.06 L154.09,74.51 L153.73,74.93 L153.37,75.17 "/><path d="M151.06,75.63 L151.98,80.32 L152.10,80.52 "/><path d="M154.23,80.15 L154.30,79.92 L153.37,75.17 "/></g></g><g id="Actor_.8"><g style="stroke:#000000;stroke-width:0.176"><path d="M116.81,81.28 C117.14,81.34 117.14,81.34 117.47,81.38 C117.84,81.36 117.84,81.36 118.20,81.32 C118.56,81.24 118.56,81.24 118.91,81.14 C119.22,80.99 119.23,80.99 119.53,80.83 C119.77,80.65 119.77,80.64 120.00,80.45 "/><path d="M117.14,81.38 C117.32,81.41 117.32,81.41 117.49,81.43 C117.85,81.41 117.85,81.41 118.21,81.38 C118.57,81.29 118.57,81.29 118.92,81.19 C119.18,81.07 119.19,81.07 119.45,80.94 "/><path d="M117.19,79.19 C117.25,79.11 117.25,79.11 117.31,79.04 C117.41,78.98 117.41,78.98 117.51,78.92 C117.62,78.88 117.62,78.88 117.74,78.83 C117.87,78.81 117.87,78.81 118.00,78.79 C118.12,78.79 118.12,78.79 118.24,78.80 C118.35,78.82 118.35,78.82 118.45,78.85 "/><path d="M118.49,79.09 C118.41,79.06 118.41,79.06 118.33,79.02 C118.23,79.01 118.23,79.01 118.12,79.00 C118.01,79.00 118.01,79.00 117.90,79.01 C117.79,79.04 117.79,79.04 117.69,79.07 C117.59,79.11 117.59,79.11 117.50,79.16 C117.43,79.22 117.43,79.22 117.36,79.28 "/><path d="M117.31,79.60 C117.39,79.64 117.39,79.64 117.47,79.67 C117.59,79.69 117.59,79.69 117.70,79.70 C117.83,79.70 117.83,79.70 117.96,79.69 C118.08,79.66 118.08,79.66 118.21,79.62 C118.31,79.57 118.32,79.57 118.42,79.52 C118.50,79.45 118.51,79.45 118.58,79.38 "/><path d="M118.15,85.76 C118.28,85.82 118.29,85.82 118.43,85.88 C118.60,85.90 118.60,85.90 118.77,85.92 C118.96,85.92 118.96,85.91 119.15,85.90 C119.34,85.85 119.34,85.85 119.53,85.80 C119.69,85.72 119.69,85.72 119.85,85.64 C119.98,85.54 119.98,85.54 120.10,85.43 "/><path d="M115.86,80.33 L115.96,80.73 L116.29,81.06 L116.76,81.26 L116.81,81.28 "/><path d="M120.00,80.45 L120.25,80.02 L120.27,79.59 "/><path d="M116.33,81.12 L116.31,81.11 "/><path d="M116.84,81.34 L116.83,81.33 "/><path d="M117.27,79.54 L117.31,79.60 L117.18,79.48 L117.14,79.34 L117.19,79.19 "/><path d="M118.45,78.85 L118.60,78.95 L118.68,79.08 L118.67,79.23 L118.61,79.33 L118.59,79.19 L118.49,79.09 "/><path d="M117.36,79.28 L117.28,79.41 L117.27,79.54 "/><path d="M118.58,79.38 L118.61,79.33 "/><path d="M117.26,79.56 L117.28,79.41 "/><path d="M117.94,85.44 L117.98,85.59 L118.15,85.76 "/><path d="M120.10,85.43 L120.23,85.22 L120.24,85.00 "/><path d="M118.59,79.19 L118.64,79.29 "/></g><g style="stroke:#000000;stroke-width:0.529"><path d="M120.26,80.06 C120.27,79.84 120.27,79.84 120.28,79.63 C120.27,79.61 120.27,79.61 120.27,79.59 C120.16,79.41 120.16,79.40 120.05,79.22 C119.92,79.10 119.92,79.10 119.78,78.98 C119.59,78.85 119.59,78.85 119.39,78.72 "/><path d="M119.39,78.72 C119.03,78.61 119.03,78.61 118.66,78.52 C118.40,78.50 118.40,78.50 118.13,78.50 C117.86,78.54 117.86,78.54 117.59,78.59 C117.34,78.68 117.34,78.68 117.09,78.78 C116.88,78.90 116.88,78.90 116.68,79.04 C116.57,79.12 116.57,79.12 116.47,79.21 C116.30,79.39 116.30,79.39 116.14,79.58 C116.06,79.73 116.07,79.74 115.99,79.89 C115.92,80.12 115.92,80.12 115.86,80.34 "/><path d="M120.21,86.03 C120.09,86.14 120.09,86.14 119.97,86.24 C119.81,86.32 119.81,86.32 119.64,86.40 C119.46,86.45 119.46,86.45 119.27,86.49 C119.08,86.51 119.08,86.51 118.89,86.52 C118.72,86.50 118.72,86.50 118.54,86.47 C118.41,86.42 118.40,86.42 118.27,86.36 "/><path d="M116.83,81.33 L116.33,81.12 "/><path d="M119.45,80.94 L119.53,80.89 L120.00,80.50 L120.26,80.06 "/><path d="M115.86,80.34 L115.96,80.77 L116.31,81.11 "/><path d="M119.45,80.94 L120.36,85.59 L120.35,85.81 L120.21,86.03 "/><path d="M118.27,86.36 L118.10,86.18 L117.92,85.37 L117.14,81.38 "/><path d="M116.84,81.34 L117.14,81.38 "/></g></g><g id="Actor_.9"><g style="stroke:#000000;stroke-width:0.176"><path d="M108.82,100.94 L108.64,100.04 L93.27,61.93 "/><path d="M99.26,66.33 L99.37,65.62 L98.82,65.36 L98.04,65.40 L97.35,65.72 L97.04,66.18 L97.45,66.69 "/><path d="M101.12,75.78 L100.84,75.60 L100.80,75.03 L101.71,74.49 L102.49,74.45 L103.04,74.71 L103.12,75.16 L102.91,75.43 "/><path d="M168.32,74.18 L101.21,53.98 "/><path d="M101.23,53.67 L168.25,73.84 "/><path d="M103.95,37.79 L193.84,64.84 L194.49,64.21 L195.00,64.64 "/><path d="M106.58,84.52 L106.78,84.25 L106.70,83.80 L106.16,83.54 L105.42,83.57 L104.47,84.12 L104.42,84.59 L104.79,84.87 "/><path d="M104.50,37.13 L194.49,64.21 L200.19,51.87 L110.19,24.79 "/><path d="M108.64,100.04 L109.13,100.49 L110.54,100.61 L110.71,101.51 "/><path d="M110.25,93.61 L110.45,93.34 L110.37,92.89 L109.04,92.67 L108.14,93.21 L108.09,93.68 L108.46,93.96 "/><path d="M110.54,100.61 L181.58,88.54 L181.84,89.43 "/><path d="M111.21,23.55 L201.20,50.63 L209.07,46.10 L209.81,45.97 "/><path d="M117.86,24.46 L118.13,23.99 L118.81,23.81 L119.87,23.93 L120.16,24.20 L119.99,24.55 L119.24,24.78 L118.28,24.72 L117.86,24.46 "/><path d="M209.36,47.02 L209.67,47.12 L209.10,47.10 L209.07,46.10 L119.07,19.02 "/><path d="M120.59,97.61 L120.21,97.33 L120.27,96.86 L121.17,96.32 L122.43,96.49 L122.61,96.75 L122.38,97.26 "/><path d="M122.05,21.86 L123.03,21.38 L123.78,21.41 L124.40,21.79 L123.95,22.24 L123.22,22.37 L122.50,22.28 L122.05,21.86 "/><path d="M123.04,26.15 L122.63,25.74 L123.24,25.32 L124.37,25.29 L124.98,25.67 L124.29,26.18 L123.04,26.15 "/><path d="M126.96,23.13 L126.88,23.47 L127.65,23.80 L128.75,23.69 L129.20,23.24 L128.22,22.81 L126.96,23.13 "/><path d="M131.90,78.43 L131.68,77.66 L131.93,76.98 L132.54,76.35 L134.50,75.45 L136.72,75.35 L137.63,75.62 L138.23,76.05 L138.52,77.12 "/><path d="M137.55,94.73 L137.16,94.36 L137.23,93.98 L138.13,93.44 L138.92,93.40 L139.43,93.64 L139.55,94.08 L139.34,94.38 "/><path d="M156.31,91.49 L156.53,90.99 L156.20,90.62 L155.10,90.56 L154.19,91.10 L154.15,91.57 L154.51,91.85 "/><path d="M158.53,35.39 L158.12,34.82 L159.17,34.10 L161.15,34.05 L162.10,34.60 L161.90,35.19 L161.39,35.47 L159.69,35.67 "/><path d="M158.60,35.34 L160.51,34.97 L161.78,35.27 "/><path d="M173.27,88.61 L173.39,87.90 L172.85,87.64 L172.06,87.67 L171.17,88.20 L171.11,88.68 L171.48,88.96 "/><path d="M170.86,74.94 L190.77,80.93 L183.00,87.93 L181.66,88.54 "/><path d="M194.40,79.82 L194.36,78.82 L191.08,80.71 L170.79,74.61 "/><path d="M183.00,87.93 L183.18,88.83 "/><path d="M190.95,81.83 L190.77,80.93 L191.08,80.71 L191.11,81.71 "/><path d="M191.52,46.76 L191.07,46.34 L191.58,45.96 L192.71,45.87 L193.42,46.26 L192.73,46.78 L191.52,46.76 "/><path d="M193.79,66.14 L193.72,65.28 L193.94,64.87 L193.98,65.87 "/><path d="M194.36,78.82 L194.75,78.30 "/><path d="M195.91,47.94 L197.05,48.29 L198.04,48.03 L198.23,47.71 L197.61,47.33 L196.86,47.30 L196.19,47.47 L195.91,47.94 "/><path d="M195.75,44.33 L197.20,44.28 L197.64,43.83 L197.03,43.45 L195.91,43.48 L195.29,43.90 L195.75,44.33 "/><path d="M200.69,52.30 L200.19,51.87 L201.20,50.63 L201.24,51.64 "/><path d="M200.65,45.79 L200.10,45.35 L200.65,44.95 L201.78,44.89 L202.45,45.28 L202.00,45.73 L200.65,45.79 "/><path d="M205.19,49.36 L209.10,47.10 "/><path d="M215.54,52.28 L209.71,47.15 L210.13,46.14 "/><path d="M215.33,51.95 L215.78,50.96 "/></g><g style="stroke:#000000;stroke-width:0.529"><path d="M98.37,56.72 L101.21,53.98 L102.44,38.90 L104.15,37.63 L104.50,37.13 L110.19,24.79 L111.21,23.55 L119.46,18.87 L209.71,45.94 L216.00,51.30 L215.58,52.22 L215.12,52.33 L205.18,49.36 L201.04,51.79 L195.00,64.64 L193.84,66.03 L194.73,79.46 L190.95,81.83 L182.81,89.09 L181.84,89.43 L110.20,101.55 L109.37,101.41 L108.88,101.03 L93.44,62.83 L93.34,61.32 L96.40,58.50 "/><path d="M97.49,66.65 L98.28,66.76 L99.25,66.34 L98.22,66.30 L97.49,66.65 "/><path d="M102.02,75.84 L101.19,75.81 L101.88,75.39 L102.91,75.43 L102.02,75.84 "/><path d="M105.22,84.96 L104.86,84.90 L105.42,84.52 L106.56,84.51 L105.22,84.96 "/><path d="M108.82,94.04 L108.53,93.99 L109.22,93.57 L110.25,93.61 L109.68,93.94 L108.82,94.04 "/><path d="M121.01,97.70 L120.66,97.64 L121.29,97.24 L122.38,97.26 L121.01,97.70 "/><path d="M134.26,79.36 L133.05,79.20 L131.90,78.43 L132.11,77.88 L132.90,77.14 "/><path d="M136.91,76.25 L137.81,76.52 L138.45,76.98 L138.50,77.34 L138.06,78.01 L136.58,78.93 "/><path d="M137.62,94.76 L138.31,94.34 L139.34,94.38 L138.38,94.80 L137.62,94.76 "/><path d="M154.59,91.88 L155.74,91.83 L156.31,91.49 L155.30,91.45 L154.59,91.88 "/><path d="M158.70,35.37 L158.53,35.39 L159.69,35.67 L158.70,35.37 "/><path d="M171.91,89.06 L171.55,89.00 L172.24,88.57 L173.27,88.61 L171.91,89.06 "/></g></g><g id="paperID" visibility="hidden" opacity="0.00" transform="scale(0.000100)"><path style="stroke:#000000;stroke-width:0.500;fill:#e6e6e6;fill-rule:evenodd" d="M-2000.00,-2000.00L2297.00,-2000.00L2297.00,2210.00L-2000.00,2210.00zM0.00,0.00L297.00,0.00L297.00,210.00L0.00,210.00z"/><path style="fill:#000000;fill-opacity:0.118" d="M3.00,210.00L297.00,210.00L297.00,3.00L300.00,3.00L300.00,213.00L3.00,213.00z"/></g><g id="ToolTip" visibility="hidden" opacity="0" transform="translate(0,0)"><rect id="ToolTipShadow" opacity="0.20" fill="black" stroke="none" x="0" y="0" width="30" height="8"/><rect id="ToolTipBG" fill="#ffffe1" stroke="black" x="0" y="0" width="30" height="8"/><text xml:space="preserve" id="ToolTipText" fill="black" x="0" y="0" width="30" height="8">tooltip</text></g></g></svg>
