<?xml version="1.0" encoding="UTF-8" standalone="no"?>
<svg xmlns="http://www.w3.org/2000/svg" xmlns:xlink="http://www.w3.org/1999/xlink" width="297.000mm" height="210.000mm" viewBox="0.000000 0.000000 297.000000 210.000000" stroke-linejoin="round" stroke-linecap="round" fill="none" fill-rule="evenodd"><desc>Composer Export</desc><script type="text/ecmascript"><![CDATA[
if(typeof(top) != "undefined")
{
	top.ShowPaper = ShowPaper;
}
function ShowHotSpot(evt,hotspotid)
{
	var svgDocument = evt.target.ownerDocument;
	var strId = "hotspot."+hotspotid;
	var hotspot = svgDocument.getElementById(strId);
	if(hotspot)
		hotspot.setAttribute("opacity",".5");
}
function HideHotSpot(evt,hotspotid)
{
	var svgDocument = evt.target.ownerDocument;
	var strId = "hotspot."+hotspotid;
	var hotspot = svgDocument.getElementById(strId);
	if(hotspot)
		hotspot.setAttribute("opacity","0");

	var toolTip = svgDocument.getElementById('ToolTip');
	if(toolTip)
		toolTip.setAttribute("visibility","hidden");
}
function ShowToolTip(evt,hotspotid,strTooltip)
{
	if(strTooltip=="")
	return;

	// change text
	var svgDocument = evt.target.ownerDocument;
	var tiptext = svgDocument.getElementById('ToolTipText');
	if( !tiptext )
	return;
	tiptext.firstChild.nodeValue = " " + strTooltip + "  " ;

	// show tooltip before, else some refresh issue

	var toolTip = svgDocument.getElementById('ToolTip');
	if(!toolTip)
	return;

	toolTip.setAttribute("visibility","visible");
	toolTip.setAttribute("opacity",".95");

	// move tooltip
	// get viewbox

	var root = svgDocument.documentElement;
	var vbox = (root.getAttribute("viewBox")).split(' ');
	var x0 = parseFloat(vbox[0]);
	var y0 = parseFloat(vbox[1]);
	var vboxW = parseFloat(vbox[2]);
	var vboxH = parseFloat(vbox[3]);

	// get default width of svg

	var strW = root.getAttribute("width");
	var svgW = parseFloat(strW);
	if(strW.indexOf('mm') != -1)
	svgW *= 3.779;

	var strH = root.getAttribute("height");
	var svgH = parseFloat(strH);
	if(strH.indexOf('mm') != -1)
	svgH *= 3.779;  	// 96 dpi  -> 96/25.4 = 3.779

	// update the viewbox / width / height if svg is embedded in html with zoom fit all
	var realx0 = x0;
	var realy0 = y0;
	var realvboxW = vboxW;
	var realvboxH = vboxH;
	var realsvgW = svgW;
	var realsvgH = svgH;

	if ((typeof(top) == "undefined") || (typeof(top.svgctl1) != "undefined")) // embedded in html
	{
		// get window size in pxl

		svgW = window.innerWidth;
		svgH = window.innerHeight;

		// calculate real viewbox

		realsvgW = svgW;
		realsvgH = svgH;
		if((svgW / svgH) > (vboxW / vboxH))
		{
			realvboxW = (vboxH * svgW) / svgH;
			realvboxH = vboxH;
			realx0 = x0 - (realvboxW - vboxW)/2 ;
		}
		else
		{
			realvboxH = (vboxW * svgH) / svgW;
			realvboxW = vboxW;
			realy0 = y0 - (realvboxH - vboxH)/2 ;
		}
	}

	// get user zoom/pan

	var newScale = root.currentScale;
	var translation = root.currentTranslate;

	// transform pxl to user unit

	var xPos = (((evt.clientX+10- translation.x)/newScale) * realvboxW)/realsvgW  + realx0 ;
	var yPos = (((evt.clientY+5- translation.y)/newScale) * realvboxH)/ realsvgH  + realy0 ;
	var scaleForWidth = ( (1 / newScale) * realvboxH) / realsvgH;

	// move tooltip

	toolTip.setAttribute("transform", "translate(" + xPos + "," + yPos + ")" );

	// resize tooltip

	var fontsize = 12;
	tiptext.setAttribute("font-size",fontsize*scaleForWidth);
	tiptext.setAttribute("y", fontsize*scaleForWidth);
	var tipBG = svgDocument.getElementById('ToolTipBG');
	var outline = tiptext.getBBox();
	if(tipBG)
	{
		tipBG.setAttribute("stroke-width", 1*scaleForWidth);
		tipBG.setAttribute("width", Number(outline.width) );
		tipBG.setAttribute("height", Number(outline.height) + fontsize*.5*scaleForWidth );
	}
	var ToolTipShadow = svgDocument.getElementById('ToolTipShadow');
	if(ToolTipShadow)
	{
		ToolTipShadow.setAttribute("width", Number(outline.width) );
		ToolTipShadow.setAttribute("height", Number(outline.height) + fontsize*.5*scaleForWidth );
		ToolTipShadow.setAttribute("x", 3*scaleForWidth);
		ToolTipShadow.setAttribute("y", 3*scaleForWidth);
	}
}
function ShowPaper()
{
  var svgDocument = getDocument();
  var paper = svgDocument.getElementById("paperID");
  if(paper)
  {
    paper.setAttribute("transform","scale(1)");
    paper.setAttribute("opacity","1");
    paper.setAttribute("visibility","visible");
  }
  var svg = svgDocument.getRootElement();
  if(svg)
  {
    svg.setAttribute("width","307.000mm");
    svg.setAttribute("height","220.000mm");
    svg.setAttribute("viewBox","-5.000000 -5.000000 307.000000 220.000000");
  }
}
]]></script><defs/><g><path style="fill:#ffffff" d="M296.92,210.05L0.08,210.05L0.08,0.08L296.92,0.08z"/><path style="fill:#000020" d="M29.23,102.03L29.04,101.91L29.17,101.21z"/><path style="fill:#00fdff" d="M149.91,125.95L150.56,125.42L151.68,125.40L152.04,125.76L151.88,126.20L150.93,126.97L151.39,128.47L150.65,128.44L150.50,127.20L149.91,126.65z"/><path style="fill:#1a1a1a" d="M120.41,121.71L122.90,123.08L127.94,124.71L132.00,125.30L215.55,151.21L215.72,151.93L215.88,153.07L215.87,153.54L215.36,153.94L212.70,153.11L212.16,153.70L211.78,155.53L211.54,156.86L211.20,157.22L210.53,157.87L209.48,157.86L207.93,157.50L207.08,157.66L206.82,157.78L206.47,158.00L206.37,158.72L206.55,158.84L206.61,159.95L205.81,160.86L204.51,160.88L34.36,108.21L33.57,107.63L32.73,106.53L32.49,105.06L32.45,104.33L32.30,104.26L31.71,103.09L31.36,102.67L29.23,102.03L29.17,101.21L30.03,100.14L30.81,99.45L30.85,99.02L33.46,96.61L35.55,95.89L36.97,95.89z"/><path style="fill:#000020" d="M207.93,157.67L207.08,157.66L207.93,157.50z"/><path style="fill:#00e3e5" d="M131.89,121.17L132.65,120.84L132.70,121.31L132.66,122.42L132.26,122.69L131.83,122.51L132.02,122.00z"/><path style="fill:#00e3e5" d="M150.93,126.97L151.88,126.20L152.04,125.76L152.15,126.47L151.73,127.12L151.74,128.26L151.39,128.47z"/><path style="fill:#00e3e5" d="M169.59,132.97L169.32,132.68L170.70,132.70L170.77,132.92L170.72,134.27L170.52,134.45L169.87,134.39L170.09,133.25z"/><path style="fill:#00e3e5" d="M189.01,138.78L189.75,138.53L189.79,140.11L189.63,140.31L188.89,140.17z"/><path style="fill:#e5e5e5" d="M273.49,98.52L273.82,99.01L272.91,99.13L271.70,98.81L271.80,99.33L272.40,100.20L272.40,100.84L269.18,104.03L269.04,104.60L268.42,104.87L265.49,108.03L220.68,155.60L216.29,160.31L214.98,160.31L214.79,159.46L213.63,157.80L213.61,157.12L217.76,152.96L219.99,150.50L256.39,111.89L267.95,99.73L269.61,97.82L269.71,97.38L269.88,97.49L270.44,97.17z"/><path style="fill:#e5e5e5" d="M274.58,99.91L274.73,101.20L274.66,102.04L274.49,101.94L274.31,100.45L274.00,99.94L273.82,99.01L274.03,99.06z"/><path style="fill:#00fdff" d="M37.75,90.22L38.01,90.91L37.49,91.32L36.85,91.43L36.67,92.90L36.40,92.95L36.32,91.90L36.18,91.83L35.76,91.34L35.75,90.36L36.20,89.98L37.43,89.97z"/><path style="fill:#00fdff" d="M57.04,96.33L57.02,96.69L56.48,97.35L55.53,97.43L55.43,97.60L55.19,97.61L54.79,97.14L54.76,96.15L55.41,95.90L56.27,95.89z"/><path style="fill:#00fdff" d="M113.06,116.62L112.62,116.59L112.41,115.81L112.81,115.35z"/><path style="fill:#00fdff" d="M168.94,131.74L169.40,131.34L170.89,131.33L171.05,131.53L171.04,132.36L170.70,132.70L169.32,132.68L168.91,132.44z"/><path style="fill:#00fdff" d="M188.09,137.67L188.62,137.28L189.74,137.26L190.09,137.61L190.00,138.42L189.75,138.53L189.01,138.78L188.89,140.17L188.52,138.82L187.93,138.26z"/><path style="fill:#00fdff" d="M209.08,143.41L209.10,144.21L208.98,144.51L207.37,144.54L206.97,144.30L206.99,143.60L208.02,142.91L208.39,142.91z"/><path style="fill:#00fdff" d="M207.64,144.81L208.21,144.80L208.22,146.12L207.83,146.00z"/><path style="fill:#171717" d="M209.48,157.86L210.53,157.87L211.20,157.22L211.30,157.45L210.81,158.14L209.19,158.12L207.93,157.67L207.93,157.50z"/><path style="fill:#171717" d="M206.55,158.84L206.37,158.72L206.47,158.00z"/><path style="fill:#000020" d="M36.40,92.95L36.20,92.86L36.18,91.83L36.32,91.90z"/><path style="fill:#000020" d="M36.50,93.16L36.40,92.95L36.67,92.90L37.24,93.03z"/><path style="fill:#000020" d="M56.47,97.60L55.71,97.67L55.43,97.60L55.53,97.43L56.48,97.35z"/><path style="fill:#000020" d="M39.34,98.36L38.70,98.37L38.67,98.19L39.39,98.16z"/><path style="fill:#000020" d="M55.42,98.74L55.25,98.66L55.19,97.61L55.43,97.60z"/><path style="fill:#000020" d="M30.81,99.45L30.03,100.14L29.95,99.77L30.85,99.02z"/><path style="fill:#000020" d="M31.50,101.19L32.22,101.23L32.25,101.65L31.88,101.64z"/><path style="fill:#000020" d="M274.88,102.03L274.66,102.04L274.73,101.20L274.85,101.30z"/><path style="fill:#000020" d="M34.91,102.15L34.26,102.22L34.22,101.78L34.49,101.81z"/><path style="fill:#000020" d="M73.90,103.16L74.45,103.18L74.52,103.40L74.39,104.54z"/><path style="fill:#000020" d="M32.49,105.06L32.30,104.26L32.45,104.33z"/><path style="fill:#000020" d="M93.77,109.52L93.40,110.32L93.21,109.26L94.02,109.21z"/><path style="fill:#000020" d="M112.81,115.35L112.41,115.81L112.23,115.06L113.30,114.99z"/><path style="fill:#000020" d="M131.18,121.08L130.50,120.87L130.73,120.50L130.93,120.58z"/><path style="fill:#000020" d="M132.92,121.63L132.66,122.42L132.70,121.31z"/><path style="fill:#000020" d="M151.68,125.40L150.56,125.42L151.59,125.27z"/><path style="fill:#000020" d="M134.01,127.75L134.61,127.61L134.77,127.77z"/><path style="fill:#000020" d="M151.74,128.26L151.73,127.12L151.84,127.21z"/><path style="fill:#000020" d="M241.24,131.01L241.06,130.88L241.10,130.52L241.55,130.46z"/><path style="fill:#000020" d="M170.87,134.21L170.72,134.27L170.77,132.92L170.88,133.00z"/><path style="fill:#000020" d="M189.74,137.26L188.62,137.28L189.64,137.13z"/><path style="fill:#000020" d="M172.81,139.75L172.06,139.59L172.39,139.49z"/><path style="fill:#000020" d="M189.79,140.11L189.75,138.53L190.00,138.42z"/><path style="fill:#000020" d="M231.95,140.59L232.39,140.51L232.55,140.91L232.10,141.07z"/><path style="fill:#000020" d="M208.21,144.80L207.64,144.81L207.37,144.54L208.98,144.51L209.01,145.34L208.65,144.87z"/><path style="fill:#000020" d="M223.44,150.57L222.92,150.77L222.85,150.54L223.32,150.46z"/><path style="fill:#000020" d="M215.88,153.07L215.72,151.93L215.83,152.03z"/><path style="fill:#000020" d="M207.10,155.26L206.18,155.65L206.15,155.16L207.03,155.10z"/><path style="fill:#000020" d="M211.70,157.13L211.30,157.45L211.20,157.22L211.54,156.86z"/><path style="fill:#000020" d="M215.90,158.52L215.43,158.39L215.95,157.80z"/><path style="fill:#000020" d="M206.76,158.86L206.55,158.84L206.47,158.00L206.82,157.78z"/><path style="fill:#00e3e5" d="M37.44,92.86L37.24,93.03L36.67,92.90L36.85,91.43L37.49,91.32z"/><path style="fill:#00e3e5" d="M56.44,98.92L55.54,98.94L55.42,98.74L55.71,97.67L56.47,97.60z"/><path style="fill:#00e3e5" d="M74.52,103.40L74.45,103.18L75.56,103.19L75.49,104.74L75.20,105.04L74.68,104.83L74.64,103.48z"/><path style="fill:#00e3e5" d="M94.75,110.11L94.49,110.76L93.61,110.81L93.53,110.61L93.77,109.52L94.02,109.21L94.60,108.99z"/><path style="fill:#00e3e5" d="M114.19,114.17L113.81,114.93L113.74,116.48L113.06,116.62L112.81,115.35L113.30,114.99L113.97,113.90z"/><path style="fill:#00e3e5" d="M171.04,132.36L171.05,131.53L171.19,131.63z"/><path style="fill:#00e3e5" d="M190.31,137.90L190.00,138.42L190.09,137.61z"/><path style="fill:#00e3e5" d="M209.51,143.73L209.10,144.21L209.08,143.41z"/><path style="fill:#00e3e5" d="M209.01,145.34L208.96,146.10L208.22,146.12L208.21,144.80L208.65,144.87z"/><path style="fill:#e5e5e5" d="M51.18,90.62L50.83,90.52L51.24,90.30z"/><path style="fill:#e5e5e5" d="M48.18,93.93L47.53,93.98L47.78,93.53L48.20,93.58z"/><path style="fill:#e5e5e5" d="M45.11,97.28L44.46,97.13L44.91,96.88z"/><path style="fill:#e5e5e5" d="M269.71,97.38L269.52,96.88L269.84,96.83z"/><path style="fill:#e5e5e5" d="M57.27,101.12L56.90,101.12L56.90,100.75L57.27,100.75z"/><path style="fill:#e5e5e5" d="M28.60,102.40L28.03,102.41L28.03,101.91L28.31,101.86z"/><path style="fill:#e5e5e5" d="M274.77,103.53L273.10,105.43L271.43,105.45L273.23,104.74L274.59,103.06L274.66,102.04L274.88,102.03z"/><path style="fill:#e5e5e5" d="M133.20,112.49L131.05,113.72L130.51,113.80L130.51,113.48L132.55,112.38z"/><path style="fill:#e5e5e5" d="M129.54,113.47L128.51,113.89L128.60,113.44L129.58,113.20z"/><path style="fill:#e5e5e5" d="M128.42,114.36L124.27,118.50L124.27,117.97L128.51,113.89z"/><path style="fill:#e5e5e5" d="M203.15,137.48L203.45,137.45L203.45,138.04L203.15,138.01z"/><path style="fill:#e5e5e5" d="M200.37,141.08L200.02,140.99L200.42,140.77z"/><path style="fill:#e5e5e5" d="M215.81,141.67L215.16,141.53L215.61,141.28z"/><path style="fill:#e5e5e5" d="M197.62,144.45L196.97,144.40L196.95,144.05L197.37,144.00z"/><path style="fill:#00fdff" d="M55.42,98.74L55.43,97.60L55.71,97.67z"/><path style="fill:#00fdff" d="M75.81,102.08L76.07,102.77L75.56,103.19L74.45,103.18L73.90,103.16L73.70,103.02L73.81,102.22L74.26,101.83L75.48,101.83z"/><path style="fill:#00fdff" d="M74.68,104.83L74.39,104.54L74.52,103.40L74.64,103.48z"/><path style="fill:#00fdff" d="M95.10,108.19L95.09,108.55L94.60,108.99L94.02,109.21L93.21,109.26L92.83,109.00L92.81,108.01L93.20,107.76L94.60,107.76z"/><path style="fill:#00fdff" d="M93.53,110.61L93.40,110.32L93.77,109.52z"/><path style="fill:#00fdff" d="M113.97,113.90L113.30,114.99L112.23,115.06L111.84,114.78L111.85,114.09L112.88,113.41L113.25,113.40z"/><path style="fill:#00fdff" d="M132.89,119.72L133.15,120.41L132.65,120.84L131.89,121.17L132.02,122.00L131.83,122.51L131.18,121.08L130.93,120.58L130.73,120.50L131.02,119.72L131.34,119.48L132.57,119.48z"/><path style="fill:#00fdff" d="M170.09,133.25L169.87,134.39L169.69,134.25L169.59,132.97z"/><path style="fill:#171717" d="M39.39,98.16L38.67,98.19L38.96,97.65L39.38,97.70z"/><path style="fill:#171717" d="M32.22,101.23L31.50,101.19L31.53,101.01L32.16,101.02z"/><path style="fill:#171717" d="M34.49,101.81L34.22,101.78L34.28,101.57L34.93,101.54z"/><path style="fill:#171717" d="M31.36,102.67L31.71,103.09L29.41,102.41L29.23,102.03z"/><path style="fill:#171717" d="M57.81,104.16L57.72,103.81L58.36,103.74z"/><path style="fill:#171717" d="M77.39,110.14L76.84,110.14L76.84,109.65L77.35,109.53z"/><path style="fill:#171717" d="M96.52,115.52L95.86,116.02L95.77,115.68L96.49,115.39z"/><path style="fill:#171717" d="M134.61,127.61L134.01,127.75L133.79,127.46L134.09,127.17L134.50,127.20z"/><path style="fill:#171717" d="M172.39,139.49L172.06,139.59L171.84,139.32L172.51,139.04z"/><path style="fill:#171717" d="M191.31,145.52L191.22,145.16L191.53,145.11z"/><path style="fill:#171717" d="M210.34,151.31L210.24,150.95L210.56,150.90z"/><path style="fill:#171717" d="M215.36,153.94L215.20,154.25L214.16,154.27L213.35,153.96L212.45,153.97L211.78,155.53L212.16,153.70L212.70,153.11z"/><path style="fill:#171717" d="M206.61,159.95L206.55,158.84L206.76,158.86z"/><path style="fill:#ffffff" d="M268.97,101.26L269.32,101.28L269.37,101.93L269.05,101.88z"/><path style="fill:#ffffff" d="M259.58,110.93L260.24,110.94L260.25,111.60L259.66,111.52z"/><path style="fill:#ffffff" d="M251.23,121.06L250.56,121.23L250.48,120.89L251.14,120.89z"/><path style="fill:#ffffff" d="M241.76,131.19L241.39,131.22L241.24,131.01L241.55,130.46L241.78,130.53z"/><path style="fill:#ffffff" d="M231.95,140.59L232.00,140.17L232.66,140.17L232.55,140.91L232.39,140.51z"/><path style="fill:#ffffff" d="M223.44,150.57L223.32,150.46L222.85,150.54L222.89,150.10L223.57,150.10z"/><path style="fill:#ffffff" d="M216.11,158.46L215.90,158.52L215.95,157.80L216.12,157.83z"/><g id="Actor_.0"><g style="stroke:#000000;stroke-width:0.176"><path d="M112.64,116.27 C112.70,116.31 112.70,116.31 112.76,116.34 C112.83,116.37 112.83,116.37 112.91,116.39 C113.00,116.40 113.00,116.40 113.09,116.40 C113.18,116.39 113.18,116.39 113.27,116.38 C113.35,116.35 113.35,116.35 113.43,116.32 C113.50,116.27 113.50,116.27 113.56,116.23 "/><path d="M113.53,115.92 C113.47,115.97 113.47,115.97 113.40,116.01 C113.32,116.04 113.32,116.04 113.24,116.07 C113.15,116.08 113.15,116.08 113.06,116.10 C112.97,116.09 112.97,116.09 112.88,116.09 C112.80,116.06 112.80,116.06 112.73,116.04 C112.67,116.00 112.67,116.00 112.61,115.96 "/><path d="M112.66,116.02 C112.73,116.05 112.73,116.05 112.80,116.08 C112.89,116.09 112.89,116.09 112.97,116.11 C113.06,116.10 113.06,116.10 113.15,116.10 C113.24,116.08 113.24,116.08 113.33,116.06 C113.40,116.02 113.40,116.02 113.47,115.98 C113.53,115.93 113.53,115.93 113.58,115.88 "/><path d="M112.29,114.11 C112.36,114.16 112.36,114.16 112.44,114.21 C112.54,114.24 112.54,114.24 112.64,114.27 C112.75,114.28 112.75,114.28 112.87,114.28 C112.98,114.27 112.98,114.27 113.10,114.25 C113.20,114.21 113.20,114.21 113.31,114.17 C113.39,114.12 113.39,114.12 113.47,114.06 "/><path d="M113.43,113.54 C113.34,113.50 113.34,113.50 113.25,113.46 C113.14,113.44 113.14,113.44 113.03,113.42 C112.91,113.42 112.91,113.42 112.80,113.43 C112.69,113.46 112.69,113.46 112.58,113.49 C112.48,113.53 112.48,113.53 112.39,113.58 C112.32,113.64 112.32,113.64 112.25,113.71 "/><path d="M111.96,114.59 C112.08,114.68 112.08,114.68 112.20,114.75 C112.36,114.80 112.36,114.80 112.52,114.85 C112.70,114.86 112.70,114.86 112.89,114.87 C113.07,114.84 113.07,114.84 113.26,114.81 C113.42,114.76 113.42,114.76 113.59,114.69 C113.72,114.61 113.72,114.61 113.85,114.51 "/><path d="M113.54,114.76 C113.40,114.82 113.40,114.82 113.25,114.87 C113.07,114.89 113.07,114.90 112.89,114.92 C112.72,114.91 112.72,114.91 112.54,114.90 "/><path d="M113.19,113.96 C113.15,113.99 113.15,113.99 113.11,114.02 C113.06,114.04 113.06,114.04 113.00,114.06 C112.94,114.07 112.94,114.07 112.88,114.08 C112.82,114.08 112.82,114.08 112.76,114.07 C112.71,114.06 112.71,114.06 112.65,114.04 C112.62,114.02 112.62,114.02 112.59,114.00 "/><path d="M112.62,113.81 C112.66,113.78 112.66,113.78 112.70,113.76 C112.75,113.74 112.75,113.74 112.80,113.72 C112.85,113.71 112.85,113.71 112.91,113.70 C112.96,113.71 112.96,113.71 113.02,113.71 C113.06,113.72 113.06,113.72 113.11,113.74 C113.14,113.76 113.15,113.76 113.18,113.78 "/><path d="M113.17,113.69 C113.13,113.66 113.13,113.66 113.08,113.64 C113.02,113.63 113.02,113.63 112.96,113.63 C112.90,113.63 112.90,113.63 112.84,113.63 C112.78,113.64 112.78,113.64 112.73,113.66 C112.68,113.68 112.68,113.68 112.63,113.71 C112.59,113.74 112.59,113.74 112.56,113.77 "/><path d="M112.57,116.17 L112.64,116.27 "/><path d="M113.56,116.23 L113.64,116.12 L113.66,116.01 "/><path d="M113.60,115.82 L113.53,115.92 "/><path d="M112.61,115.96 L112.55,115.88 L112.57,115.93 L112.61,115.97 L112.66,116.02 "/><path d="M113.58,115.88 L113.63,115.78 L113.62,115.74 L113.61,115.81 "/><path d="M112.55,115.88 L112.54,115.86 L112.53,115.82 "/><path d="M112.54,115.85 L112.53,115.80 "/><path d="M113.47,114.06 L113.57,113.93 L113.60,113.79 L113.55,113.65 L113.43,113.54 "/><path d="M112.25,113.71 L112.19,113.85 L112.20,113.99 L112.29,114.11 "/><path d="M111.82,114.39 L111.96,114.59 "/><path d="M113.85,114.51 L114.01,114.30 "/><path d="M112.54,114.90 L112.44,114.87 "/><path d="M113.22,113.93 L113.19,113.96 "/><path d="M112.59,114.00 L112.56,113.94 L112.58,113.87 L112.62,113.81 "/><path d="M113.18,113.78 L113.22,113.84 L113.23,113.91 L113.22,113.93 L113.25,113.89 L113.26,113.82 L113.24,113.75 L113.17,113.69 "/><path d="M112.56,113.77 L112.52,113.85 L112.53,113.92 L112.57,113.99 L112.59,114.00 "/><path d="M112.56,113.96 L112.58,113.87 "/><path d="M113.62,115.74 L113.63,115.73 "/><path d="M113.25,113.90 L113.22,113.84 "/></g><g style="stroke:#000000;stroke-width:0.529"><path d="M113.55,116.26 C113.49,116.30 113.49,116.31 113.42,116.35 C113.34,116.38 113.34,116.38 113.27,116.40 C113.18,116.42 113.18,116.42 113.10,116.43 C113.01,116.43 113.01,116.43 112.93,116.42 C112.85,116.40 112.85,116.40 112.77,116.37 C112.71,116.34 112.71,116.34 112.65,116.30 "/><path d="M113.35,113.43 C113.21,113.41 113.21,113.41 113.07,113.39 C112.93,113.39 112.93,113.39 112.78,113.40 C112.64,113.43 112.64,113.43 112.50,113.47 C112.38,113.52 112.38,113.53 112.27,113.59 "/><path d="M113.54,114.76 L113.63,115.71 L113.63,115.73 L113.66,116.01 L113.64,116.14 L113.55,116.26 "/><path d="M112.65,116.30 L112.58,116.19 L112.53,115.82 L112.53,115.80 L112.44,114.87 "/><path d="M113.54,114.76 L113.58,114.75 L113.83,114.57 L113.99,114.36 L114.01,114.30 L114.05,114.07 L113.97,113.86 L113.87,113.74 L113.69,113.58 L113.43,113.46 L113.35,113.43 "/><path d="M112.27,113.59 L112.17,113.64 L111.98,113.82 L111.90,113.94 L111.80,114.17 L111.82,114.39 L111.85,114.45 L111.99,114.65 L112.23,114.80 L112.44,114.87 "/></g></g><g id="Actor_.1"><g style="stroke:#000000;stroke-width:0.176"><path d="M171.09,132.12 C170.98,132.23 170.98,132.23 170.87,132.32 C170.72,132.40 170.72,132.40 170.57,132.47 C170.39,132.52 170.39,132.52 170.21,132.55 C170.02,132.56 170.02,132.56 169.84,132.57 C169.66,132.54 169.66,132.54 169.49,132.50 C169.35,132.44 169.35,132.44 169.21,132.37 "/><path d="M169.48,131.33 C169.56,131.28 169.56,131.28 169.64,131.22 C169.75,131.19 169.75,131.19 169.85,131.15 C169.97,131.13 169.97,131.13 170.09,131.12 C170.20,131.13 170.20,131.13 170.31,131.14 C170.41,131.17 170.41,131.17 170.51,131.20 C170.59,131.25 170.59,131.25 170.66,131.30 "/><path d="M170.68,131.71 C170.61,131.77 170.61,131.77 170.54,131.83 C170.45,131.88 170.45,131.88 170.35,131.92 C170.24,131.95 170.24,131.95 170.13,131.97 C170.01,131.98 170.01,131.98 169.90,131.98 C169.79,131.96 169.79,131.96 169.68,131.94 C169.59,131.90 169.59,131.90 169.50,131.86 "/><path d="M169.84,134.01 C169.91,134.04 169.91,134.04 169.98,134.07 C170.06,134.09 170.06,134.09 170.15,134.10 C170.24,134.10 170.24,134.10 170.33,134.10 C170.42,134.08 170.42,134.08 170.50,134.05 "/><path d="M170.03,133.80 C170.12,133.80 170.12,133.80 170.21,133.81 C170.30,133.80 170.30,133.80 170.39,133.78 C170.47,133.76 170.47,133.76 170.55,133.73 C170.62,133.69 170.62,133.69 170.68,133.64 "/><path d="M170.73,133.58 C170.68,133.63 170.68,133.63 170.62,133.68 C170.55,133.71 170.55,133.71 170.47,133.75 C170.39,133.77 170.39,133.77 170.30,133.79 C170.21,133.79 170.21,133.79 170.12,133.80 C170.03,133.78 170.03,133.78 169.95,133.76 C169.88,133.73 169.88,133.73 169.81,133.70 "/><path d="M169.59,132.57 C169.72,132.60 169.72,132.60 169.85,132.62 C170.03,132.61 170.03,132.61 170.21,132.60 C170.39,132.57 170.39,132.57 170.56,132.52 "/><path d="M170.37,131.42 C170.33,131.39 170.33,131.39 170.29,131.37 C170.24,131.35 170.24,131.35 170.19,131.33 C170.13,131.33 170.13,131.33 170.07,131.33 C170.01,131.33 170.01,131.33 169.95,131.34 C169.89,131.36 169.89,131.36 169.84,131.38 C169.79,131.41 169.79,131.41 169.75,131.44 "/><path d="M170.37,131.64 C170.34,131.67 170.34,131.67 170.31,131.70 C170.26,131.72 170.26,131.72 170.21,131.75 C170.15,131.76 170.15,131.76 170.09,131.77 C170.03,131.78 170.03,131.78 169.97,131.78 C169.91,131.77 169.91,131.77 169.86,131.76 C169.81,131.74 169.81,131.74 169.76,131.71 "/><path d="M170.31,131.46 C170.27,131.44 170.27,131.44 170.23,131.42 C170.18,131.41 170.18,131.41 170.13,131.41 C170.07,131.41 170.07,131.41 170.02,131.41 C169.96,131.42 169.96,131.42 169.91,131.43 C169.87,131.46 169.87,131.46 169.82,131.48 C169.79,131.51 169.79,131.51 169.76,131.54 "/><path d="M171.20,131.90 L171.09,132.12 "/><path d="M169.21,132.37 L169.02,132.19 "/><path d="M169.39,131.75 L169.34,131.61 L169.37,131.47 L169.48,131.33 "/><path d="M170.66,131.30 L170.74,131.43 L170.75,131.57 L170.68,131.71 "/><path d="M169.50,131.86 L169.39,131.75 "/><path d="M169.72,133.81 L169.75,133.92 L169.84,134.01 "/><path d="M170.50,134.05 L170.52,134.04 L170.65,133.98 L170.76,133.89 L170.81,133.78 "/><path d="M169.88,133.75 L169.95,133.78 L170.03,133.80 "/><path d="M170.68,133.64 L170.76,133.54 L170.77,133.49 L170.73,133.58 "/><path d="M169.81,133.70 L169.73,133.62 L169.76,133.67 L169.88,133.75 "/><path d="M169.73,133.62 L169.70,133.57 "/><path d="M169.72,133.60 L169.69,133.53 "/><path d="M170.56,132.52 L170.69,132.46 "/><path d="M170.40,131.59 L170.37,131.52 L170.39,131.58 L170.37,131.64 L170.42,131.56 L170.41,131.49 L170.37,131.42 "/><path d="M169.75,131.44 L169.69,131.51 L169.68,131.58 L169.70,131.65 L169.74,131.70 L169.73,131.67 L169.72,131.60 L169.71,131.66 "/><path d="M169.76,131.71 L169.75,131.70 "/><path d="M170.37,131.52 L170.31,131.46 "/><path d="M169.76,131.54 L169.72,131.60 "/><path d="M170.79,133.43 L170.78,133.47 L170.77,133.49 "/><path d="M170.78,133.46 L170.78,133.40 "/></g><g style="stroke:#000000;stroke-width:0.529"><path d="M171.19,131.68 C171.12,131.57 171.12,131.57 171.06,131.47 C171.01,131.42 171.01,131.42 170.96,131.37 C170.85,131.29 170.85,131.29 170.74,131.22 "/><path d="M170.63,131.18 C170.51,131.14 170.51,131.14 170.39,131.11 C170.24,131.09 170.24,131.09 170.10,131.09 C169.96,131.10 169.96,131.10 169.81,131.12 C169.68,131.17 169.68,131.17 169.55,131.22 C169.39,131.31 169.39,131.32 169.23,131.42 "/><path d="M169.86,134.03 C169.93,134.07 169.93,134.07 170.00,134.10 C170.08,134.12 170.08,134.12 170.16,134.13 C170.24,134.13 170.24,134.13 170.33,134.12 C170.41,134.11 170.41,134.11 170.49,134.08 C170.57,134.05 170.57,134.05 170.64,134.01 C170.70,133.96 170.70,133.96 170.75,133.92 "/><path d="M170.69,132.46 L170.86,132.38 L171.07,132.19 L171.18,131.97 L171.20,131.90 L171.19,131.68 "/><path d="M170.74,131.22 L170.63,131.18 "/><path d="M169.23,131.42 L169.08,131.61 L169.00,131.74 L168.95,131.97 L169.02,132.19 L169.06,132.25 L169.24,132.43 L169.51,132.55 L169.59,132.57 "/><path d="M169.59,132.57 L169.69,133.50 L169.69,133.53 L169.72,133.81 L169.76,133.93 L169.86,134.03 "/><path d="M170.75,133.92 L170.81,133.79 L170.81,133.67 L170.79,133.43 L170.78,133.40 L170.69,132.46 "/></g></g><g id="Actor_.2"><g style="stroke:#000000;stroke-width:0.176"><path d="M188.45,137.32 C188.51,137.26 188.51,137.26 188.58,137.20 C188.67,137.14 188.67,137.14 188.76,137.10 C188.87,137.06 188.87,137.06 188.98,137.04 C189.10,137.03 189.10,137.03 189.21,137.02 C189.32,137.03 189.33,137.03 189.43,137.05 C189.53,137.09 189.53,137.09 189.62,137.13 "/><path d="M189.69,137.65 C189.62,137.71 189.62,137.71 189.54,137.76 C189.44,137.81 189.44,137.81 189.33,137.84 C189.22,137.87 189.22,137.87 189.10,137.88 C188.99,137.88 188.99,137.88 188.87,137.87 C188.77,137.85 188.77,137.85 188.67,137.82 "/><path d="M190.08,138.09 C189.96,138.19 189.96,138.19 189.83,138.28 C189.67,138.34 189.67,138.34 189.50,138.41 C189.32,138.44 189.32,138.44 189.14,138.47 C188.95,138.46 188.95,138.46 188.77,138.45 C188.61,138.41 188.60,138.41 188.44,138.37 C188.31,138.30 188.31,138.29 188.19,138.22 "/><path d="M189.78,139.82 C189.72,139.87 189.72,139.87 189.66,139.91 C189.58,139.94 189.58,139.94 189.50,139.97 C189.41,139.99 189.41,139.99 189.32,140.00 C189.23,140.00 189.23,140.00 189.14,139.99 C189.06,139.98 189.06,139.98 188.98,139.95 C188.92,139.92 188.92,139.92 188.86,139.88 "/><path d="M188.83,139.57 C188.89,139.61 188.89,139.61 188.95,139.65 C189.03,139.67 189.03,139.67 189.11,139.69 C189.20,139.69 189.20,139.69 189.29,139.70 C189.38,139.68 189.38,139.68 189.47,139.67 C189.55,139.64 189.55,139.64 189.63,139.60 C189.69,139.56 189.69,139.56 189.75,139.51 "/><path d="M189.79,139.47 C189.75,139.52 189.75,139.53 189.70,139.57 C189.63,139.61 189.63,139.61 189.55,139.65 C189.47,139.68 189.47,139.68 189.38,139.70 C189.29,139.70 189.29,139.70 189.20,139.71 "/><path d="M189.75,138.36 C189.62,138.41 189.62,138.41 189.50,138.46 C189.32,138.49 189.32,138.49 189.14,138.52 C188.97,138.51 188.96,138.51 188.79,138.50 "/><path d="M189.37,137.28 C189.33,137.26 189.32,137.26 189.28,137.24 C189.22,137.23 189.22,137.23 189.16,137.23 C189.10,137.23 189.10,137.23 189.04,137.23 C188.98,137.25 188.98,137.25 188.92,137.27 C188.87,137.29 188.87,137.29 188.83,137.32 C188.79,137.35 188.79,137.35 188.76,137.38 "/><path d="M188.80,137.60 C188.84,137.62 188.84,137.62 188.87,137.65 C188.93,137.66 188.93,137.66 188.98,137.67 C189.04,137.68 189.04,137.68 189.10,137.68 C189.16,137.67 189.16,137.67 189.22,137.66 C189.27,137.64 189.28,137.64 189.33,137.62 C189.37,137.59 189.37,137.59 189.41,137.56 "/><path d="M189.38,137.38 C189.35,137.36 189.35,137.36 189.31,137.34 C189.26,137.32 189.26,137.32 189.21,137.31 C189.16,137.31 189.16,137.31 189.10,137.31 C189.05,137.31 189.05,137.31 189.00,137.32 C188.95,137.34 188.95,137.34 188.90,137.36 C188.86,137.39 188.86,137.39 188.83,137.42 "/><path d="M188.59,137.77 L188.51,137.73 L188.42,137.60 L188.40,137.46 L188.45,137.32 "/><path d="M189.62,137.13 L189.75,137.24 L189.80,137.37 L189.79,137.51 L189.69,137.65 "/><path d="M188.67,137.82 L188.59,137.77 "/><path d="M190.23,137.88 L190.08,138.09 "/><path d="M188.19,138.22 L188.04,138.02 "/><path d="M189.87,139.60 L189.85,139.71 L189.78,139.82 "/><path d="M188.86,139.88 L188.78,139.78 "/><path d="M189.03,139.68 L188.89,139.63 L188.79,139.54 L188.76,139.49 L188.83,139.57 "/><path d="M189.75,139.51 L189.82,139.42 L189.79,139.47 "/><path d="M189.20,139.71 L189.11,139.70 L189.03,139.68 "/><path d="M188.74,139.44 L188.75,139.48 L188.76,139.49 "/><path d="M188.75,139.46 L188.74,139.41 "/><path d="M188.79,138.50 L188.65,138.47 "/><path d="M189.45,137.49 L189.43,137.44 L189.44,137.50 L189.43,137.54 L189.46,137.49 L189.47,137.41 L189.44,137.34 L189.37,137.28 "/><path d="M188.76,137.38 L188.73,137.46 L188.74,137.53 L188.80,137.60 L188.77,137.55 L188.78,137.48 L188.76,137.56 "/><path d="M189.41,137.56 L189.43,137.54 "/><path d="M189.43,137.44 L189.38,137.38 "/><path d="M188.83,137.42 L188.78,137.48 "/><path d="M189.84,139.36 L189.82,139.42 "/><path d="M189.82,139.40 L189.83,139.33 "/></g><g style="stroke:#000000;stroke-width:0.529"><path d="M189.87,137.16 C189.70,137.09 189.70,137.09 189.53,137.03 C189.39,137.00 189.39,137.00 189.25,136.99 C189.10,136.99 189.10,136.99 188.96,137.00 C188.82,137.04 188.82,137.04 188.68,137.08 C188.57,137.14 188.57,137.14 188.45,137.20 "/><path d="M188.36,137.26 C188.26,137.35 188.26,137.35 188.17,137.45 C188.13,137.51 188.13,137.51 188.10,137.57 C188.05,137.68 188.05,137.68 188.01,137.79 "/><path d="M188.87,139.91 C188.93,139.94 188.93,139.95 188.99,139.98 C189.07,140.00 189.07,140.00 189.16,140.02 C189.24,140.03 189.24,140.03 189.33,140.03 C189.41,140.02 189.41,140.02 189.49,140.00 C189.57,139.97 189.57,139.97 189.64,139.94 C189.71,139.90 189.71,139.90 189.77,139.85 "/><path d="M189.75,138.36 L189.82,138.33 L190.06,138.15 L190.21,137.94 L190.23,137.88 L190.26,137.65 L190.17,137.44 L190.06,137.33 L189.87,137.16 "/><path d="M188.45,137.20 L188.36,137.26 "/><path d="M188.01,137.79 L188.04,138.02 L188.07,138.08 L188.22,138.27 L188.47,138.42 L188.65,138.47 L188.74,139.41 L188.74,139.44 L188.77,139.67 L188.79,139.80 L188.87,139.91 "/><path d="M189.77,139.85 L189.85,139.73 L189.87,139.60 L189.83,139.33 L189.84,139.30 L189.75,138.36 "/></g></g><g id="Actor_.3"><g style="stroke:#000000;stroke-width:0.176"><path d="M132.98,120.34 C132.87,120.44 132.87,120.44 132.75,120.53 C132.60,120.61 132.60,120.61 132.44,120.68 C132.26,120.72 132.26,120.72 132.08,120.76 C131.90,120.76 131.90,120.76 131.71,120.76 C131.54,120.73 131.54,120.73 131.37,120.70 C131.23,120.63 131.23,120.63 131.09,120.56 "/><path d="M132.65,122.09 C132.60,122.14 132.60,122.14 132.54,122.19 C132.47,122.22 132.46,122.22 132.39,122.26 C132.30,122.28 132.30,122.28 132.21,122.30 C132.12,122.30 132.12,122.30 132.03,122.30 C131.95,122.28 131.95,122.28 131.87,122.27 C131.80,122.24 131.80,122.24 131.73,122.20 "/><path d="M132.09,122.01 C132.18,122.00 132.18,122.00 132.27,121.99 C132.36,121.96 132.36,121.96 132.44,121.93 C132.51,121.89 132.51,121.89 132.57,121.85 "/><path d="M132.62,121.79 C132.57,121.83 132.57,121.83 132.51,121.88 C132.44,121.92 132.43,121.92 132.36,121.95 C132.27,121.97 132.27,121.97 132.18,121.99 C132.09,121.99 132.09,121.99 132.00,121.99 C131.92,121.98 131.92,121.98 131.84,121.96 C131.77,121.93 131.77,121.93 131.70,121.90 "/><path d="M132.44,120.73 C132.26,120.77 132.26,120.77 132.09,120.81 C131.91,120.81 131.91,120.81 131.73,120.81 C131.61,120.79 131.61,120.79 131.49,120.77 "/><path d="M131.38,119.53 C131.46,119.47 131.46,119.47 131.55,119.42 C131.65,119.38 131.66,119.38 131.76,119.35 C131.88,119.33 131.88,119.33 131.99,119.32 C132.11,119.33 132.11,119.33 132.22,119.34 C132.32,119.37 132.32,119.37 132.42,119.40 C132.49,119.45 132.49,119.45 132.56,119.50 "/><path d="M132.57,119.91 C132.50,119.98 132.50,119.98 132.43,120.03 C132.33,120.08 132.33,120.08 132.24,120.13 C132.12,120.15 132.12,120.15 132.01,120.18 C131.90,120.18 131.89,120.18 131.78,120.18 C131.67,120.16 131.67,120.16 131.56,120.14 C131.48,120.10 131.48,120.10 131.39,120.05 "/><path d="M131.65,119.73 C131.69,119.70 131.69,119.70 131.72,119.67 C131.77,119.65 131.77,119.65 131.83,119.63 C131.87,119.62 131.87,119.62 131.92,119.61 C131.97,119.61 131.97,119.61 132.03,119.61 C132.08,119.61 132.08,119.61 132.13,119.63 C132.17,119.64 132.17,119.64 132.21,119.67 "/><path d="M132.09,119.53 C132.03,119.53 132.03,119.53 131.97,119.52 C131.91,119.53 131.91,119.53 131.85,119.54 C131.79,119.56 131.79,119.56 131.74,119.58 C131.69,119.60 131.69,119.60 131.65,119.63 "/><path d="M131.65,119.91 C131.70,119.93 131.70,119.93 131.74,119.95 C131.80,119.97 131.80,119.97 131.86,119.98 C131.92,119.98 131.92,119.98 131.98,119.97 C132.04,119.96 132.04,119.96 132.10,119.95 C132.15,119.93 132.15,119.93 132.20,119.90 C132.23,119.87 132.23,119.87 132.27,119.84 "/><path d="M133.09,120.11 L132.98,120.34 "/><path d="M131.09,120.56 L130.91,120.37 "/><path d="M132.71,121.98 L132.65,122.09 "/><path d="M131.73,122.20 L131.64,122.11 "/><path d="M132.01,122.00 L132.09,122.01 "/><path d="M132.57,121.85 L132.66,121.74 L132.67,121.69 L132.62,121.79 "/><path d="M131.70,121.90 L131.62,121.81 L131.65,121.86 L131.70,121.91 L131.76,121.94 L131.92,121.99 L132.01,122.00 "/><path d="M131.59,121.76 L131.62,121.81 "/><path d="M132.58,120.66 L132.44,120.73 "/><path d="M131.61,121.80 L131.59,121.73 "/><path d="M131.28,119.94 L131.24,119.80 L131.27,119.66 L131.38,119.53 "/><path d="M132.56,119.50 L132.64,119.63 L132.64,119.77 L132.57,119.91 "/><path d="M131.39,120.05 L131.28,119.94 "/><path d="M131.62,119.80 L131.65,119.73 "/><path d="M132.21,119.67 L132.26,119.72 L132.28,119.78 L132.27,119.84 L132.31,119.77 L132.31,119.69 L132.27,119.62 L132.19,119.57 L132.13,119.55 L132.09,119.53 "/><path d="M131.65,119.63 L131.59,119.70 L131.57,119.78 L131.59,119.85 L131.64,119.90 L131.62,119.86 L131.62,119.80 L131.61,119.86 "/><path d="M131.64,119.90 L131.65,119.91 "/><path d="M132.68,121.63 L132.67,121.69 "/><path d="M132.68,121.66 L132.67,121.60 "/><path d="M132.26,119.72 L132.30,119.79 "/></g><g style="stroke:#000000;stroke-width:0.529"><path d="M133.09,119.89 C133.03,119.78 133.03,119.78 132.96,119.68 C132.91,119.63 132.91,119.63 132.86,119.58 C132.76,119.50 132.76,119.50 132.65,119.43 "/><path d="M132.65,119.43 C132.48,119.36 132.47,119.36 132.30,119.31 C132.16,119.29 132.15,119.29 132.01,119.28 C131.87,119.30 131.87,119.30 131.72,119.32 C131.59,119.36 131.59,119.36 131.46,119.41 C131.30,119.51 131.30,119.51 131.14,119.61 "/><path d="M132.64,122.12 C132.59,122.17 132.59,122.17 132.53,122.21 C132.46,122.25 132.46,122.25 132.38,122.29 C132.30,122.31 132.30,122.31 132.22,122.32 C132.13,122.33 132.13,122.33 132.04,122.33 C131.97,122.31 131.96,122.31 131.89,122.30 C131.82,122.26 131.81,122.26 131.75,122.23 "/><path d="M132.58,120.66 L132.74,120.59 L132.96,120.40 L133.07,120.18 L133.09,120.11 L133.09,119.89 "/><path d="M131.14,119.61 L130.98,119.80 L130.90,119.93 L130.85,120.16 L130.91,120.37 L130.94,120.43 L131.12,120.62 L131.39,120.75 L131.49,120.77 "/><path d="M132.58,120.66 L132.67,121.60 L132.68,121.63 L132.70,121.87 L132.70,122.00 L132.64,122.12 "/><path d="M131.75,122.23 L131.65,122.13 L131.61,122.00 L131.59,121.73 L131.58,121.70 L131.49,120.77 "/></g></g><g id="Actor_.4"><g style="stroke:#000000;stroke-width:0.176"><path d="M93.56,110.34 C93.61,110.39 93.61,110.39 93.67,110.43 C93.74,110.45 93.74,110.45 93.81,110.48 C93.90,110.49 93.90,110.49 93.99,110.50 C94.08,110.50 94.08,110.50 94.17,110.49 C94.25,110.46 94.25,110.46 94.34,110.44 C94.41,110.40 94.41,110.40 94.48,110.36 C94.52,110.31 94.52,110.31 94.57,110.25 "/><path d="M93.58,110.09 C93.64,110.13 93.64,110.13 93.71,110.16 C93.79,110.18 93.79,110.18 93.87,110.20 C93.96,110.20 93.96,110.20 94.05,110.20 C94.14,110.19 94.14,110.19 94.23,110.17 C94.31,110.14 94.31,110.14 94.38,110.10 C94.44,110.06 94.44,110.06 94.50,110.01 "/><path d="M94.54,109.95 C94.49,110.00 94.49,110.00 94.45,110.05 C94.38,110.09 94.38,110.09 94.31,110.13 C94.22,110.16 94.22,110.16 94.14,110.18 C94.05,110.19 94.05,110.19 93.96,110.20 C93.87,110.19 93.87,110.19 93.78,110.18 C93.71,110.15 93.71,110.15 93.64,110.12 C93.58,110.08 93.58,110.08 93.53,110.04 "/><path d="M94.92,108.46 C94.83,108.57 94.83,108.57 94.73,108.67 C94.59,108.75 94.59,108.75 94.45,108.83 C94.28,108.89 94.27,108.89 94.10,108.94 C93.92,108.96 93.92,108.96 93.73,108.97 C93.55,108.95 93.55,108.95 93.37,108.93 C93.22,108.87 93.22,108.87 93.07,108.81 C92.96,108.73 92.96,108.73 92.85,108.64 "/><path d="M94.44,108.89 C94.27,108.94 94.27,108.94 94.10,108.99 C93.92,109.01 93.92,109.01 93.74,109.02 C93.56,109.00 93.56,109.00 93.39,108.97 "/><path d="M93.20,108.18 C93.27,108.23 93.27,108.24 93.34,108.29 C93.43,108.32 93.43,108.32 93.53,108.36 C93.64,108.37 93.64,108.37 93.75,108.38 C93.87,108.38 93.87,108.38 93.98,108.36 C94.09,108.33 94.09,108.33 94.20,108.30 C94.29,108.25 94.29,108.25 94.38,108.20 C94.44,108.13 94.44,108.13 94.50,108.07 "/><path d="M94.41,107.67 C94.33,107.62 94.33,107.62 94.25,107.58 C94.15,107.55 94.15,107.55 94.04,107.53 C93.93,107.52 93.93,107.52 93.81,107.52 C93.70,107.54 93.70,107.54 93.58,107.57 C93.48,107.61 93.48,107.61 93.38,107.65 C93.31,107.71 93.31,107.71 93.23,107.77 "/><path d="M94.14,107.80 C94.10,107.78 94.10,107.78 94.05,107.75 C94.00,107.74 94.00,107.74 93.95,107.73 C93.88,107.73 93.88,107.73 93.82,107.73 C93.76,107.74 93.76,107.74 93.70,107.75 C93.65,107.77 93.65,107.77 93.60,107.79 C93.56,107.82 93.56,107.82 93.52,107.86 "/><path d="M93.58,108.13 C93.62,108.15 93.62,108.15 93.67,108.16 C93.73,108.17 93.73,108.17 93.79,108.18 C93.85,108.17 93.85,108.17 93.91,108.17 C93.97,108.15 93.97,108.15 94.03,108.13 C94.08,108.11 94.08,108.11 94.12,108.08 C94.15,108.05 94.15,108.05 94.17,108.03 "/><path d="M93.53,107.95 C93.56,107.92 93.56,107.92 93.59,107.89 C93.63,107.87 93.63,107.87 93.67,107.84 C93.73,107.83 93.73,107.83 93.78,107.81 "/><path d="M93.80,107.81 C93.84,107.81 93.84,107.81 93.89,107.80 C93.94,107.81 93.94,107.81 93.99,107.82 C94.04,107.83 94.04,107.83 94.08,107.85 C94.11,107.87 94.11,107.87 94.14,107.90 "/><path d="M93.51,110.24 L93.56,110.34 "/><path d="M94.57,110.25 L94.61,110.14 "/><path d="M93.50,110.00 L93.53,110.05 L93.58,110.09 "/><path d="M94.50,110.01 L94.57,109.91 L94.57,109.86 L94.54,109.95 "/><path d="M93.53,110.04 L93.49,109.96 L93.50,110.00 "/><path d="M93.49,109.96 L93.48,109.94 "/><path d="M95.00,108.24 L94.92,108.46 "/><path d="M94.48,108.86 L94.44,108.89 "/><path d="M93.14,108.05 L93.20,108.18 "/><path d="M94.50,108.07 L94.54,107.93 L94.52,107.79 L94.41,107.67 "/><path d="M93.23,107.77 L93.15,107.91 L93.14,108.05 "/><path d="M94.19,108.00 L94.17,107.96 L94.17,108.03 L94.18,108.01 L94.21,107.94 L94.19,107.87 L94.14,107.80 "/><path d="M93.52,107.86 L93.48,107.93 L93.47,108.00 L93.50,108.07 L93.52,108.09 L93.51,108.02 L93.50,108.06 "/><path d="M93.53,108.09 L93.58,108.13 "/><path d="M93.51,108.02 L93.53,107.95 "/><path d="M93.78,107.81 L93.80,107.81 "/><path d="M94.14,107.90 L94.17,107.96 "/><path d="M94.57,109.80 L94.58,109.84 L94.57,109.86 "/><path d="M94.57,109.81 L94.57,109.79 "/></g><g style="stroke:#000000;stroke-width:0.529"><path d="M94.56,110.29 C94.52,110.34 94.52,110.34 94.47,110.38 C94.40,110.43 94.40,110.43 94.33,110.47 C94.25,110.49 94.25,110.49 94.17,110.51 C94.08,110.52 94.08,110.52 94.00,110.53 C93.91,110.52 93.91,110.52 93.83,110.51 C93.76,110.48 93.75,110.48 93.68,110.45 "/><path d="M93.28,107.65 C93.40,107.59 93.40,107.59 93.53,107.54 C93.67,107.51 93.67,107.51 93.81,107.49 C93.96,107.49 93.96,107.49 94.10,107.49 C94.23,107.52 94.23,107.52 94.36,107.56 "/><path d="M94.48,108.86 L94.57,109.80 L94.60,110.16 L94.56,110.29 "/><path d="M93.68,110.45 L93.57,110.36 L93.51,110.24 L93.39,108.97 "/><path d="M93.39,108.97 L93.10,108.87 L92.89,108.70 L92.75,108.43 L92.77,108.20 L92.97,107.87 L93.19,107.70 L93.28,107.65 "/><path d="M94.36,107.56 L94.46,107.59 L94.70,107.72 L94.79,107.82 L94.95,108.01 L95.00,108.24 L94.90,108.53 L94.72,108.73 L94.48,108.86 "/></g></g><g id="Actor_.5"><g style="stroke:#000000;stroke-width:0.176"><path d="M151.92,126.34 C151.79,126.43 151.79,126.43 151.65,126.51 C151.48,126.57 151.48,126.57 151.31,126.63 C151.13,126.65 151.13,126.65 150.94,126.67 C150.76,126.66 150.76,126.66 150.58,126.64 C150.42,126.59 150.42,126.59 150.27,126.53 C150.15,126.46 150.15,126.46 150.04,126.37 "/><path d="M151.32,128.18 C151.25,128.20 151.25,128.20 151.17,128.20 C151.08,128.20 151.08,128.20 151.00,128.19 C150.92,128.16 150.92,128.16 150.84,128.14 C150.79,128.10 150.79,128.10 150.73,128.06 "/><path d="M150.70,127.75 C150.76,127.79 150.76,127.79 150.81,127.83 C150.89,127.86 150.89,127.86 150.97,127.88 C151.05,127.89 151.05,127.89 151.14,127.90 C151.23,127.89 151.23,127.89 151.32,127.88 C151.41,127.85 151.41,127.85 151.49,127.82 C151.55,127.78 151.56,127.78 151.62,127.74 "/><path d="M151.67,127.70 C151.62,127.75 151.62,127.75 151.56,127.79 C151.49,127.83 151.49,127.83 151.41,127.86 C151.32,127.88 151.32,127.88 151.23,127.90 C151.14,127.91 151.14,127.91 151.05,127.91 "/><path d="M151.01,127.90 C150.95,127.89 150.95,127.89 150.89,127.87 C150.85,127.86 150.85,127.86 150.81,127.84 C150.78,127.82 150.78,127.82 150.75,127.81 "/><path d="M150.60,126.69 C150.77,126.71 150.77,126.71 150.95,126.72 C151.13,126.70 151.13,126.70 151.31,126.68 C151.48,126.63 151.48,126.63 151.64,126.57 "/><path d="M150.37,125.49 C150.44,125.43 150.44,125.43 150.51,125.37 C150.61,125.32 150.61,125.32 150.71,125.28 C150.82,125.25 150.82,125.25 150.93,125.23 C151.05,125.22 151.05,125.22 151.17,125.22 C151.27,125.24 151.27,125.24 151.38,125.27 C151.47,125.31 151.47,125.31 151.55,125.35 "/><path d="M151.56,125.88 C151.47,125.94 151.47,125.94 151.39,125.99 C151.28,126.02 151.28,126.02 151.17,126.06 C151.06,126.07 151.06,126.07 150.94,126.08 C150.83,126.08 150.83,126.08 150.72,126.06 C150.62,126.03 150.62,126.03 150.52,126.00 C150.45,125.95 150.45,125.95 150.38,125.90 "/><path d="M151.29,125.49 C151.24,125.47 151.24,125.47 151.20,125.45 C151.14,125.44 151.14,125.44 151.08,125.43 C151.02,125.43 151.02,125.43 150.96,125.43 C150.90,125.44 150.90,125.44 150.84,125.46 C150.79,125.48 150.79,125.48 150.74,125.50 C150.71,125.53 150.70,125.53 150.67,125.57 "/><path d="M150.67,125.78 C150.71,125.81 150.71,125.81 150.75,125.83 C150.80,125.85 150.80,125.85 150.85,125.87 C150.91,125.88 150.91,125.88 150.97,125.88 C151.03,125.87 151.03,125.87 151.09,125.86 C151.15,125.85 151.15,125.85 151.20,125.83 C151.25,125.80 151.25,125.80 151.29,125.77 "/><path d="M151.29,125.59 C151.26,125.57 151.26,125.57 151.23,125.54 C151.18,125.53 151.18,125.53 151.13,125.51 C151.08,125.51 151.08,125.51 151.03,125.50 "/><path d="M151.00,125.51 C150.96,125.51 150.96,125.51 150.92,125.52 C150.87,125.53 150.87,125.53 150.82,125.55 C150.78,125.57 150.78,125.57 150.74,125.60 "/><path d="M152.10,126.13 L151.92,126.34 "/><path d="M150.04,126.37 L149.91,126.16 "/><path d="M151.76,127.83 L151.74,127.94 L151.65,128.04 L151.52,128.13 L151.35,128.18 L151.32,128.18 "/><path d="M150.73,128.06 L150.67,127.96 "/><path d="M150.75,127.81 L150.66,127.71 L150.65,127.67 L150.70,127.75 "/><path d="M151.62,127.74 L151.70,127.64 L151.67,127.70 "/><path d="M151.05,127.91 L151.01,127.90 "/><path d="M150.63,127.61 L150.64,127.65 L150.65,127.67 "/><path d="M150.64,127.62 L150.64,127.60 "/><path d="M150.54,126.67 L150.60,126.69 "/><path d="M150.38,125.90 L150.30,125.77 L150.30,125.63 L150.37,125.49 "/><path d="M151.55,125.35 L151.66,125.47 L151.70,125.61 L151.67,125.75 L151.56,125.88 "/><path d="M151.35,125.70 L151.37,125.63 L151.35,125.56 L151.29,125.49 "/><path d="M150.67,125.57 L150.63,125.64 L150.63,125.71 L150.67,125.78 "/><path d="M151.29,125.77 L151.33,125.73 L151.33,125.72 L151.33,125.65 L151.35,125.70 L151.33,125.73 "/><path d="M150.69,125.79 L150.67,125.73 L150.66,125.76 "/><path d="M151.33,125.65 L151.29,125.59 "/><path d="M151.03,125.50 L151.00,125.51 "/><path d="M150.74,125.60 L150.69,125.66 L150.67,125.73 "/><path d="M151.71,127.63 L151.73,127.55 L151.73,127.59 L151.70,127.64 "/><path d="M151.73,127.55 L151.73,127.53 "/></g><g style="stroke:#000000;stroke-width:0.529"><path d="M149.91,125.94 C149.97,125.83 149.97,125.83 150.03,125.72 C150.07,125.66 150.07,125.66 150.10,125.60 C150.21,125.51 150.21,125.51 150.31,125.42 "/><path d="M150.40,125.37 C150.52,125.31 150.52,125.31 150.64,125.26 C150.78,125.22 150.78,125.22 150.92,125.19 C151.07,125.19 151.07,125.19 151.22,125.19 C151.35,125.21 151.35,125.21 151.48,125.24 "/><path d="M151.64,128.07 C151.58,128.12 151.57,128.12 151.51,128.16 C151.43,128.19 151.43,128.19 151.35,128.21 C151.26,128.22 151.26,128.22 151.18,128.23 C151.10,128.22 151.09,128.22 151.01,128.22 C150.93,128.19 150.93,128.19 150.86,128.16 C150.80,128.13 150.80,128.13 150.75,128.09 "/><path d="M150.54,126.67 L150.29,126.59 L150.07,126.43 L149.91,126.16 L149.91,125.94 "/><path d="M150.31,125.42 L150.40,125.37 "/><path d="M151.48,125.24 L151.57,125.28 L151.82,125.40 L152.09,125.68 L152.16,125.90 L152.08,126.19 L151.91,126.40 L151.64,126.57 "/><path d="M151.64,126.57 L151.76,127.83 L151.73,127.96 L151.64,128.07 "/><path d="M150.75,128.09 L150.68,127.97 L150.63,127.61 L150.54,126.67 "/></g></g><g id="Actor_.6"><g style="stroke:#000000;stroke-width:0.176"><path d="M207.53,143.19 C207.60,143.13 207.60,143.13 207.67,143.07 C207.76,143.02 207.76,143.02 207.86,142.98 C207.97,142.95 207.97,142.95 208.09,142.93 C208.20,142.92 208.20,142.92 208.32,142.92 C208.43,142.94 208.43,142.94 208.53,142.97 C208.62,143.01 208.62,143.01 208.71,143.05 "/><path d="M208.72,143.58 C208.63,143.63 208.63,143.63 208.55,143.69 C208.44,143.72 208.44,143.72 208.33,143.76 C208.22,143.77 208.22,143.77 208.10,143.79 C207.99,143.78 207.99,143.78 207.88,143.77 C207.78,143.74 207.78,143.74 207.68,143.70 "/><path d="M209.09,144.04 C208.95,144.13 208.95,144.13 208.81,144.21 C208.65,144.27 208.65,144.27 208.48,144.33 C208.29,144.35 208.29,144.35 208.11,144.37 C207.92,144.36 207.92,144.36 207.74,144.34 C207.59,144.29 207.58,144.29 207.43,144.24 C207.31,144.16 207.31,144.16 207.20,144.07 "/><path d="M207.76,144.39 C207.94,144.41 207.94,144.41 208.11,144.42 C208.29,144.40 208.30,144.40 208.48,144.38 C208.64,144.33 208.64,144.33 208.80,144.27 "/><path d="M208.45,143.47 C208.41,143.50 208.41,143.50 208.36,143.53 C208.31,143.55 208.30,143.55 208.25,143.57 C208.19,143.57 208.19,143.57 208.13,143.58 C208.07,143.58 208.07,143.58 208.01,143.57 C207.96,143.55 207.96,143.55 207.91,143.54 C207.87,143.52 207.87,143.52 207.84,143.49 "/><path d="M207.83,143.27 C207.86,143.24 207.86,143.24 207.90,143.20 C207.95,143.18 207.95,143.18 208.00,143.16 C208.06,143.14 208.06,143.14 208.12,143.13 C208.18,143.13 208.18,143.13 208.24,143.13 C208.30,143.14 208.30,143.14 208.35,143.15 C208.40,143.17 208.40,143.17 208.44,143.19 "/><path d="M208.81,145.74 C208.74,145.79 208.74,145.79 208.68,145.83 C208.60,145.86 208.60,145.86 208.51,145.88 C208.42,145.89 208.42,145.89 208.33,145.90 C208.24,145.90 208.24,145.90 208.16,145.89 C208.08,145.87 208.08,145.87 208.00,145.84 C207.95,145.80 207.94,145.80 207.89,145.76 "/><path d="M208.39,145.60 C208.48,145.59 208.48,145.59 208.57,145.56 C208.64,145.53 208.65,145.53 208.72,145.49 C208.78,145.45 208.78,145.45 208.83,145.40 "/><path d="M208.78,145.44 C208.71,145.48 208.71,145.48 208.65,145.52 C208.57,145.55 208.57,145.55 208.48,145.58 C208.39,145.59 208.39,145.59 208.30,145.60 C208.21,145.59 208.21,145.59 208.13,145.58 C208.05,145.56 208.05,145.56 207.97,145.53 C207.92,145.50 207.91,145.50 207.86,145.45 "/><path d="M207.89,143.30 C207.93,143.28 207.93,143.28 207.97,143.25 C208.02,143.23 208.02,143.23 208.07,143.22 C208.13,143.21 208.13,143.21 208.18,143.21 "/><path d="M208.22,143.21 C208.25,143.21 208.25,143.21 208.29,143.21 C208.34,143.23 208.34,143.23 208.38,143.24 C208.42,143.27 208.42,143.27 208.45,143.29 "/><path d="M207.68,143.70 L207.54,143.60 L207.46,143.47 L207.46,143.33 L207.53,143.19 "/><path d="M208.71,143.05 L208.82,143.17 L208.86,143.30 L208.82,143.45 L208.72,143.58 "/><path d="M209.26,143.83 L209.09,144.04 "/><path d="M207.20,144.07 L207.07,143.87 "/><path d="M207.70,144.37 L207.76,144.39 "/><path d="M208.48,143.43 L208.45,143.47 "/><path d="M207.84,143.49 L207.83,143.43 L207.82,143.47 L207.79,143.42 L207.79,143.34 L207.83,143.27 "/><path d="M208.44,143.19 L208.50,143.26 L208.52,143.33 L208.51,143.40 L208.48,143.43 L208.49,143.42 L208.49,143.35 L208.51,143.40 "/><path d="M208.92,145.53 L208.89,145.64 L208.81,145.74 "/><path d="M207.89,145.76 L207.83,145.66 "/><path d="M208.21,145.61 L208.30,145.61 L208.39,145.60 "/><path d="M208.83,145.40 L208.86,145.34 L208.78,145.44 "/><path d="M207.86,145.45 L207.81,145.37 L207.82,145.42 L207.91,145.51 L208.05,145.57 L208.21,145.61 "/><path d="M207.81,145.37 L207.80,145.35 L207.79,145.30 "/><path d="M208.86,145.33 L208.89,145.25 L208.89,145.29 L208.86,145.34 "/><path d="M208.89,145.25 L208.89,145.23 "/><path d="M207.80,145.33 L207.79,145.31 "/><path d="M207.83,143.43 L207.84,143.37 L207.89,143.30 "/><path d="M208.18,143.21 L208.22,143.21 "/><path d="M208.45,143.29 L208.49,143.35 "/><path d="M207.84,143.49 L207.83,143.48 L207.82,143.47 "/></g><g style="stroke:#000000;stroke-width:0.529"><path d="M207.91,145.79 C207.96,145.83 207.96,145.83 208.02,145.87 C208.09,145.89 208.09,145.89 208.17,145.92 C208.25,145.93 208.26,145.93 208.34,145.93 C208.42,145.92 208.42,145.92 208.51,145.91 C208.59,145.89 208.59,145.89 208.67,145.86 C208.73,145.82 208.73,145.82 208.80,145.77 "/><path d="M208.64,142.94 C208.50,142.91 208.50,142.91 208.37,142.89 C208.22,142.89 208.22,142.89 208.08,142.90 C207.94,142.92 207.93,142.92 207.80,142.96 C207.67,143.01 207.67,143.01 207.55,143.07 "/><path d="M207.70,144.37 L207.79,145.31 L207.83,145.68 L207.91,145.79 "/><path d="M208.80,145.77 L208.89,145.66 L208.92,145.53 L208.80,144.27 "/><path d="M208.80,144.27 L209.07,144.10 L209.24,143.89 L209.32,143.60 L209.25,143.38 L208.98,143.10 L208.72,142.98 L208.64,142.94 "/><path d="M207.55,143.07 L207.46,143.13 L207.26,143.30 L207.18,143.42 L207.07,143.64 L207.07,143.87 L207.23,144.13 L207.46,144.29 L207.70,144.37 "/></g></g><g id="Actor_.7"><g style="stroke:#000000;stroke-width:0.176"><path d="M29.22,101.67 L29.74,102.22 "/><path d="M29.62,101.96 L207.34,156.99 L207.45,157.25 "/><path d="M32.35,101.12 L31.62,100.79 L31.23,101.19 L31.33,101.59 "/><path d="M32.45,104.07 L206.34,157.92 L206.35,159.98 "/><path d="M32.01,102.70 L31.99,102.92 "/><path d="M32.65,97.16 L215.18,153.69 L214.56,154.13 L212.98,153.56 L213.13,153.12 L212.89,153.08 L212.25,153.33 L212.30,153.68 "/><path d="M32.18,97.67 L212.20,153.42 L210.81,157.48 L209.72,157.73 L207.34,156.99 L206.34,157.92 "/><path d="M32.29,97.50 L32.30,97.27 "/><path d="M214.98,153.78 L32.59,97.21 "/><path d="M34.08,102.10 L34.18,101.42 L34.89,101.31 L35.10,101.65 "/><path d="M39.67,98.00 L39.57,97.58 L39.23,97.50 L38.60,97.76 L38.67,98.10 "/><path d="M58.72,103.90 L58.63,103.48 L58.28,103.40 L57.65,103.66 L57.72,104.00 "/><path d="M77.77,109.80 L77.68,109.38 L77.14,109.31 L76.79,109.47 L76.77,109.90 "/><path d="M96.83,115.70 L96.73,115.28 L96.39,115.20 L95.76,115.46 L95.82,115.80 "/><path d="M114.88,121.70 L114.91,121.25 L115.44,121.10 L115.78,121.18 L115.88,121.60 "/><path d="M133.93,127.60 L133.82,127.38 L134.30,127.02 L134.95,127.17 L134.93,127.50 "/><path d="M153.98,133.40 L153.89,132.98 L153.35,132.92 L152.89,133.23 L152.98,133.50 "/><path d="M173.03,139.30 L172.94,138.88 L172.60,138.80 L171.97,139.06 L172.03,139.40 "/><path d="M192.09,145.20 L191.65,144.70 L191.02,144.96 L191.08,145.30 "/><path d="M206.50,159.54 L206.74,159.29 "/><path d="M206.66,157.65 L206.86,157.56 "/><path d="M207.10,154.91 L206.71,154.52 L206.34,154.58 L206.04,154.82 L206.06,155.36 "/><path d="M209.52,155.99 L208.92,155.62 L208.39,156.06 L208.48,156.44 "/><path d="M209.72,157.73 L209.84,157.99 "/><path d="M211.14,151.10 L211.04,150.68 L210.70,150.60 L210.07,150.86 L210.14,151.20 "/><path d="M211.11,157.02 L211.23,157.28 "/><path d="M212.52,153.55 L212.57,153.55 "/><path d="M212.98,153.56 L212.67,153.13 "/><path d="M212.66,153.55 L212.64,153.55 "/><path d="M215.25,154.07 L215.78,152.88 "/><path d="M215.67,153.61 L215.64,153.24 "/><path d="M215.82,153.25 L215.81,153.19 "/></g><g style="stroke:#000000;stroke-width:0.529"><path d="M36.67,95.69 C78.44,108.55 78.46,108.56 120.19,121.55 C121.84,122.35 121.81,122.45 123.45,123.28 C125.38,123.91 125.39,123.91 127.33,124.48 C129.48,124.82 129.51,124.72 131.64,125.10 C173.41,137.96 173.40,138.02 215.16,150.96 C215.36,151.08 215.37,151.08 215.56,151.22 "/><path d="M29.36,101.95 L29.21,100.97 L32.30,97.27 L33.52,96.44 L36.67,95.69 "/><path d="M215.56,151.22 L215.79,153.44 L215.00,154.23 L212.41,153.57 L210.92,157.74 L210.11,158.04 L207.45,157.25 L206.66,157.68 L206.60,159.72 L205.68,160.61 L205.05,160.70 L34.38,107.84 L32.75,106.07 L31.99,102.92 L29.36,101.95 "/><path d="M31.51,101.70 L31.62,101.11 L32.35,101.12 L32.06,101.62 L31.51,101.70 "/><path d="M34.40,101.61 L34.08,102.10 L34.26,102.22 L35.11,101.70 L34.40,101.61 "/><path d="M39.50,97.90 L38.67,98.10 L39.36,98.19 L39.50,97.90 "/><path d="M57.88,103.87 L57.72,104.00 L58.03,104.12 L58.71,103.92 L57.88,103.87 "/><path d="M76.79,109.88 L77.76,109.82 L76.79,109.88 "/><path d="M95.89,115.72 L96.82,115.72 L95.89,115.72 "/><path d="M115.19,121.51 L114.95,121.62 L115.19,121.82 L115.87,121.62 L115.19,121.51 "/><path d="M134.06,127.68 L134.38,127.38 L134.93,127.50 L134.06,127.68 "/><path d="M153.38,133.29 L153.05,133.43 L153.84,133.52 L153.38,133.29 "/><path d="M172.63,139.17 L173.03,139.30 L172.17,139.48 L172.63,139.17 "/><path d="M191.92,145.11 L191.78,145.39 L191.08,145.30 L191.92,145.11 "/><path d="M206.09,155.24 L206.62,155.48 L207.10,154.97 L206.65,154.79 L206.09,155.24 "/><path d="M208.85,156.59 L208.53,156.49 L208.59,156.16 L209.52,155.99 L208.85,156.59 "/><path d="M210.64,151.32 L210.14,151.20 L211.13,151.12 L210.64,151.32 "/></g></g><g id="Actor_.8"><g style="stroke:#000000;stroke-width:0.176"><path d="M56.79,96.70 C56.69,96.81 56.69,96.81 56.58,96.90 C56.43,96.98 56.43,96.98 56.28,97.06 C56.10,97.11 56.10,97.11 55.93,97.15 C55.74,97.16 55.74,97.16 55.55,97.17 C55.38,97.14 55.38,97.14 55.21,97.11 C55.06,97.05 55.06,97.05 54.92,96.98 "/><path d="M56.27,97.11 C56.10,97.16 56.10,97.16 55.93,97.20 C55.75,97.21 55.75,97.21 55.57,97.22 C55.42,97.20 55.42,97.20 55.28,97.17 "/><path d="M55.15,95.94 C55.23,95.89 55.23,95.88 55.31,95.83 C55.42,95.79 55.42,95.79 55.52,95.75 C55.63,95.73 55.64,95.73 55.75,95.72 C55.86,95.72 55.87,95.72 55.98,95.73 C56.08,95.76 56.08,95.76 56.18,95.79 C56.26,95.84 56.26,95.84 56.33,95.89 "/><path d="M56.37,96.29 C56.31,96.36 56.31,96.36 56.24,96.42 C56.15,96.47 56.15,96.47 56.06,96.51 C55.95,96.54 55.95,96.54 55.83,96.57 C55.72,96.58 55.72,96.58 55.60,96.58 C55.49,96.57 55.49,96.57 55.38,96.55 C55.29,96.51 55.29,96.51 55.20,96.47 "/><path d="M55.54,98.61 C55.61,98.64 55.61,98.64 55.68,98.67 C55.76,98.69 55.76,98.69 55.85,98.70 C55.94,98.70 55.94,98.70 56.03,98.69 C56.12,98.67 56.12,98.67 56.20,98.65 C56.28,98.61 56.28,98.61 56.35,98.57 C56.40,98.53 56.40,98.52 56.45,98.47 "/><path d="M55.45,98.28 C55.51,98.31 55.51,98.32 55.57,98.35 C55.65,98.38 55.65,98.38 55.73,98.40 C55.82,98.40 55.82,98.40 55.91,98.41 C56.00,98.39 56.00,98.39 56.09,98.38 C56.17,98.35 56.17,98.35 56.25,98.32 C56.31,98.28 56.32,98.28 56.38,98.23 "/><path d="M56.42,98.17 C56.37,98.22 56.37,98.22 56.32,98.27 C56.25,98.31 56.25,98.31 56.17,98.34 C56.09,98.37 56.09,98.37 56.00,98.39 C55.91,98.39 55.91,98.39 55.82,98.39 C55.73,98.38 55.73,98.38 55.65,98.37 C55.58,98.34 55.58,98.34 55.51,98.31 "/><path d="M55.59,96.04 C55.64,96.02 55.64,96.02 55.69,96.01 C55.75,96.01 55.75,96.01 55.80,96.00 C55.85,96.01 55.85,96.01 55.90,96.02 C55.95,96.04 55.95,96.04 55.99,96.06 "/><path d="M56.05,96.01 C56.01,95.99 56.01,95.99 55.97,95.96 C55.92,95.94 55.92,95.94 55.86,95.93 C55.80,95.93 55.80,95.93 55.74,95.92 C55.68,95.93 55.68,95.93 55.62,95.94 C55.57,95.96 55.57,95.96 55.51,95.98 C55.47,96.01 55.47,96.01 55.43,96.04 "/><path d="M56.06,96.23 C56.03,96.26 56.03,96.26 56.00,96.29 C55.95,96.32 55.95,96.32 55.90,96.34 C55.85,96.36 55.84,96.36 55.79,96.37 C55.73,96.38 55.73,96.38 55.66,96.38 C55.61,96.37 55.61,96.37 55.55,96.36 C55.50,96.34 55.50,96.34 55.46,96.32 "/><path d="M56.89,96.48 L56.79,96.70 "/><path d="M54.92,96.98 L54.72,96.80 "/><path d="M56.37,97.06 L56.27,97.11 "/><path d="M55.03,96.22 L55.05,96.08 L55.15,95.94 "/><path d="M56.33,95.89 L56.42,96.01 L56.44,96.15 L56.37,96.29 "/><path d="M55.20,96.47 L55.08,96.35 L55.03,96.22 "/><path d="M55.40,98.42 L55.44,98.52 L55.54,98.61 "/><path d="M56.45,98.47 L56.50,98.37 "/><path d="M55.41,98.23 L55.45,98.28 "/><path d="M56.38,98.23 L56.45,98.13 L56.46,98.08 L56.42,98.17 "/><path d="M55.51,98.31 L55.41,98.22 L55.38,98.14 L55.39,98.18 L55.41,98.23 "/><path d="M56.46,98.08 L56.47,98.06 "/><path d="M55.38,98.14 L55.38,98.13 "/><path d="M56.47,98.05 L56.46,97.99 "/><path d="M55.41,96.21 L55.44,96.14 L55.50,96.08 L55.52,96.07 L55.59,96.04 "/><path d="M55.99,96.06 L56.05,96.11 L56.07,96.17 L56.06,96.23 L56.07,96.23 L56.10,96.15 L56.10,96.08 L56.05,96.01 "/><path d="M55.43,96.04 L55.38,96.11 L55.36,96.19 L55.39,96.26 L55.42,96.29 L55.42,96.27 L55.41,96.21 L55.40,96.26 "/><path d="M55.46,96.32 L55.42,96.29 "/><path d="M56.05,96.11 L56.08,96.19 "/><path d="M56.47,98.04 L56.47,98.02 "/></g><g style="stroke:#000000;stroke-width:0.529"><path d="M56.87,96.25 C56.80,96.15 56.80,96.15 56.73,96.05 C56.68,96.00 56.68,96.00 56.63,95.95 C56.52,95.88 56.52,95.88 56.40,95.81 "/><path d="M56.30,95.77 C56.18,95.73 56.18,95.73 56.05,95.70 C55.91,95.69 55.91,95.69 55.76,95.68 C55.62,95.70 55.62,95.70 55.47,95.73 C55.34,95.77 55.34,95.77 55.21,95.82 "/><path d="M55.55,98.64 C55.62,98.67 55.62,98.67 55.70,98.70 C55.78,98.72 55.78,98.72 55.86,98.73 C55.94,98.72 55.94,98.72 56.03,98.72 C56.11,98.70 56.11,98.70 56.19,98.68 C56.27,98.64 56.27,98.64 56.34,98.60 C56.39,98.55 56.39,98.55 56.44,98.51 "/><path d="M56.37,97.06 L56.57,96.96 L56.77,96.77 L56.87,96.55 L56.89,96.48 L56.87,96.25 "/><path d="M56.40,95.81 L56.30,95.77 "/><path d="M55.21,95.82 L55.14,95.87 L54.90,96.03 L54.76,96.23 L54.68,96.36 L54.64,96.59 L54.72,96.80 L54.75,96.86 L54.94,97.04 L55.23,97.16 L55.28,97.17 "/><path d="M55.40,98.42 L55.38,98.13 L55.37,98.11 L55.28,97.17 "/><path d="M55.40,98.42 L55.45,98.54 L55.46,98.55 L55.55,98.64 "/><path d="M56.44,98.51 L56.50,98.38 L56.47,98.02 "/><path d="M56.47,98.02 L56.46,97.99 L56.37,97.06 "/></g></g><g id="Actor_.9"><g style="stroke:#000000;stroke-width:0.176"><path d="M29.13,101.45 L28.44,102.28 "/><path d="M28.56,102.17 L29.15,101.50 "/><path d="M28.61,102.06 L28.27,101.75 "/><path d="M29.62,100.46 L29.90,100.16 "/><path d="M33.80,96.35 L37.19,92.75 "/><path d="M34.54,101.55 L35.10,101.73 "/><path d="M37.44,92.49 L86.87,40.41 L269.19,96.87 L212.73,156.74 L211.51,156.36 "/><path d="M39.67,98.00 L38.67,98.10 "/><path d="M45.31,97.06 L45.00,96.62 L44.60,97.13 "/><path d="M47.69,93.85 L47.93,93.36 L48.40,93.78 "/><path d="M51.49,90.51 L51.18,90.07 L50.78,90.58 "/><path d="M56.77,100.90 L57.02,100.40 L57.48,100.83 "/><path d="M58.72,103.90 L57.72,104.00 "/><path d="M59.86,97.62 L60.11,97.13 L60.57,97.55 "/><path d="M63.66,94.27 L63.35,93.84 L62.95,94.35 "/><path d="M76.77,109.90 L77.77,109.80 "/><path d="M86.71,40.18 L86.88,40.18 "/><path d="M86.03,40.40 L85.94,40.46 "/><path d="M86.66,40.31 L86.63,40.33 "/><path d="M96.83,115.70 L95.82,115.80 "/><path d="M114.88,121.70 L115.88,121.60 "/><path d="M124.00,118.62 L124.06,118.53 "/><path d="M124.03,118.16 L128.65,113.25 L129.50,112.99 L129.76,113.40 "/><path d="M128.65,113.25 L128.69,113.62 "/><path d="M129.72,113.03 L131.09,113.41 "/><path d="M130.27,113.20 L130.31,113.57 "/><path d="M131.05,113.04 L132.67,112.16 L133.71,112.25 L133.74,112.62 "/><path d="M131.36,113.12 L131.33,112.75 "/><path d="M134.93,127.50 L133.93,127.60 "/><path d="M133.71,112.25 L138.41,113.70 L139.21,114.68 "/><path d="M138.63,115.62 L138.94,116.24 "/><path d="M138.90,115.87 L139.77,116.59 "/><path d="M138.45,114.07 L138.41,113.70 "/><path d="M139.49,116.41 L139.45,116.04 "/><path d="M153.98,133.40 L152.98,133.50 "/><path d="M173.03,139.30 L172.03,139.40 "/><path d="M192.09,145.20 L191.08,145.30 "/><path d="M197.64,144.23 L197.33,143.80 L196.92,144.30 "/><path d="M200.02,141.03 L200.26,140.53 L200.73,140.96 "/><path d="M203.09,137.74 L203.27,137.28 L203.82,137.68 "/><path d="M206.53,154.82 L207.09,154.99 "/><path d="M209.10,148.07 L209.35,147.58 L209.81,148.00 "/><path d="M210.14,151.20 L211.14,151.10 "/><path d="M212.90,144.73 L212.59,144.29 L212.19,144.80 "/><path d="M212.76,157.11 L212.73,156.74 L213.48,157.31 L269.90,97.49 L269.84,96.82 "/><path d="M213.18,157.42 L213.48,157.31 L215.29,159.85 L216.06,160.03 "/><path d="M215.06,159.60 L214.76,159.71 "/><path d="M215.80,158.42 L216.15,157.65 L215.43,157.40 "/><path d="M215.99,141.45 L215.68,141.01 L215.28,141.52 "/><path d="M223.16,150.62 L223.51,149.85 L222.79,149.59 "/><path d="M231.99,139.84 L232.76,140.28 L232.36,140.86 "/><path d="M241.18,130.09 L241.96,130.53 L241.56,131.11 "/><path d="M250.75,121.36 L251.10,120.59 L250.38,120.34 "/><path d="M259.58,110.59 L260.35,111.03 L259.95,111.61 "/><path d="M274.86,102.19 L274.65,102.44 L271.37,101.47 L268.69,104.31 "/><path d="M268.74,101.50 L268.74,100.87 L269.26,100.80 L269.56,101.46 L268.89,101.72 L269.15,101.86 "/><path d="M268.93,104.05 L271.80,104.94 L271.85,105.28 "/><path d="M269.24,101.65 L268.77,100.84 "/><path d="M269.71,97.18 L269.34,96.74 L269.51,97.03 "/><path d="M269.83,97.31 L269.94,97.44 "/><path d="M269.78,97.25 L269.93,96.85 "/><path d="M270.75,102.12 L274.40,103.25 L273.12,104.74 L271.80,104.94 "/><path d="M273.46,98.46 L273.34,98.78 L270.71,97.69 L271.11,98.21 L273.73,99.18 L271.11,98.21 "/><path d="M270.56,97.11 L270.10,97.43 "/><path d="M270.71,97.69 L270.42,97.49 "/><path d="M271.37,101.47 L272.33,100.29 L271.24,98.40 "/><path d="M273.34,104.54 L273.40,104.88 "/><path d="M274.46,103.60 L274.45,99.72 "/><path d="M274.21,100.01 L273.73,99.18 L273.97,98.89 "/><path d="M274.20,99.18 L273.96,99.47 "/></g><g style="stroke:#000000;stroke-width:0.529"><path d="M32.29,97.34 L28.14,101.89 L28.44,102.28 L29.16,101.53 "/><path d="M32.34,101.23 L31.74,101.05 "/><path d="M36.60,92.78 L32.46,97.17 "/><path d="M34.93,102.04 L34.18,101.80 "/><path d="M37.40,91.93 L85.77,40.65 L86.71,40.18 L269.63,96.73 L273.97,98.89 L274.45,99.72 L274.84,102.76 L273.40,104.88 L272.16,105.34 L268.77,104.33 L268.04,105.00 L216.28,159.88 L214.98,159.96 L212.92,157.18 L211.41,156.69 "/><path d="M44.80,97.20 L45.31,97.06 L44.80,97.20 "/><path d="M48.13,93.71 L47.82,93.77 L48.13,93.71 "/><path d="M50.78,90.58 L51.36,90.46 L50.78,90.58 "/><path d="M57.05,100.77 L57.36,100.78 L57.05,100.77 "/><path d="M60.45,97.50 L59.92,97.65 L60.45,97.50 "/><path d="M63.09,94.26 L63.66,94.27 L63.09,94.26 "/><path d="M131.51,121.03 L124.00,118.62 L129.06,113.41 L130.65,113.60 L132.13,112.66 L133.24,112.52 L138.86,114.26 L139.19,114.80 L138.67,115.99 L139.77,116.59 L135.08,121.58 L134.38,121.85 L132.66,121.39 "/><path d="M197.51,144.19 L196.93,144.30 L197.51,144.19 "/><path d="M200.60,140.91 L200.08,141.06 L200.60,140.91 "/><path d="M203.11,137.75 L203.73,137.74 L203.11,137.75 "/><path d="M206.93,155.30 L206.17,155.07 "/><path d="M208.91,155.91 L209.51,156.10 "/><path d="M209.54,147.94 L209.23,147.99 L209.54,147.94 "/><path d="M212.25,144.83 L212.90,144.73 L212.25,144.83 "/><path d="M215.69,158.39 L215.39,157.44 L215.90,157.95 L215.69,158.39 "/><path d="M215.56,141.39 L215.28,141.52 L215.92,141.51 L215.56,141.39 "/><path d="M222.91,150.48 L223.27,150.34 L222.97,149.67 L222.91,150.48 "/><path d="M231.89,140.04 L232.36,140.86 L232.40,140.21 L231.89,140.04 "/><path d="M241.29,130.97 L241.66,130.83 L241.37,130.17 L241.29,130.97 "/><path d="M250.50,121.23 L250.86,121.08 L250.42,120.34 L250.50,121.23 "/><path d="M259.50,111.15 L259.95,111.61 L259.76,110.66 L259.50,111.15 "/></g></g><g id="Actor_.10"><g style="stroke:#000000;stroke-width:0.176"><path d="M74.59,104.51 C74.66,104.54 74.66,104.55 74.73,104.57 C74.82,104.59 74.82,104.59 74.91,104.60 C75.00,104.60 75.00,104.60 75.09,104.59 C75.17,104.57 75.17,104.57 75.26,104.55 C75.33,104.51 75.33,104.51 75.40,104.47 C75.46,104.42 75.46,104.42 75.51,104.37 "/><path d="M74.56,104.21 C74.63,104.24 74.63,104.24 74.70,104.27 C74.79,104.28 74.79,104.28 74.88,104.30 C74.97,104.29 74.97,104.29 75.06,104.29 C75.14,104.26 75.14,104.26 75.23,104.24 C75.30,104.20 75.30,104.20 75.37,104.16 C75.43,104.12 75.43,104.12 75.48,104.07 "/><path d="M75.43,104.13 C75.37,104.17 75.37,104.18 75.31,104.22 C75.23,104.25 75.23,104.25 75.15,104.28 C75.06,104.29 75.06,104.29 74.97,104.31 C74.88,104.30 74.88,104.30 74.79,104.30 C74.71,104.28 74.71,104.28 74.63,104.25 C74.57,104.22 74.57,104.22 74.51,104.18 "/><path d="M73.98,102.89 C74.12,102.95 74.12,102.95 74.27,103.01 C74.44,103.04 74.44,103.04 74.62,103.07 C74.80,103.06 74.80,103.06 74.99,103.05 C75.17,103.00 75.17,103.00 75.34,102.95 C75.49,102.88 75.49,102.88 75.64,102.80 C75.75,102.70 75.75,102.70 75.85,102.60 "/><path d="M75.34,103.01 C75.16,103.06 75.16,103.06 74.99,103.10 C74.81,103.11 74.81,103.11 74.63,103.12 C74.48,103.10 74.48,103.10 74.33,103.07 "/><path d="M74.20,101.85 C74.28,101.79 74.28,101.79 74.36,101.73 C74.46,101.69 74.46,101.69 74.57,101.66 C74.68,101.64 74.68,101.64 74.80,101.62 C74.91,101.62 74.91,101.62 75.03,101.63 C75.13,101.66 75.13,101.66 75.23,101.69 C75.31,101.73 75.31,101.73 75.38,101.78 "/><path d="M75.43,102.19 C75.37,102.25 75.37,102.25 75.30,102.32 C75.21,102.37 75.21,102.37 75.11,102.41 C75.00,102.44 75.00,102.44 74.89,102.47 C74.78,102.48 74.78,102.48 74.66,102.48 C74.55,102.47 74.55,102.47 74.44,102.45 C74.35,102.41 74.35,102.41 74.26,102.37 "/><path d="M74.49,102.04 C74.52,102.01 74.52,102.01 74.55,101.98 C74.57,101.97 74.57,101.97 74.60,101.96 C74.62,101.95 74.62,101.95 74.64,101.94 "/><path d="M74.64,101.94 C74.69,101.92 74.69,101.92 74.74,101.91 C74.80,101.91 74.80,101.91 74.85,101.90 C74.90,101.91 74.90,101.91 74.95,101.92 C75.00,101.94 75.00,101.94 75.04,101.96 "/><path d="M75.10,101.91 C75.06,101.88 75.06,101.88 75.02,101.86 C74.97,101.84 74.97,101.84 74.91,101.83 C74.85,101.83 74.85,101.83 74.79,101.82 C74.73,101.83 74.73,101.83 74.67,101.84 C74.62,101.86 74.62,101.86 74.56,101.88 C74.52,101.91 74.52,101.91 74.48,101.94 "/><path d="M74.51,102.22 C74.56,102.24 74.56,102.24 74.61,102.26 C74.66,102.27 74.66,102.27 74.72,102.28 C74.78,102.28 74.78,102.28 74.84,102.27 C74.90,102.26 74.90,102.26 74.96,102.24 C75.01,102.22 75.01,102.22 75.06,102.19 C75.09,102.16 75.09,102.16 75.11,102.13 "/><path d="M74.45,104.32 L74.50,104.43 L74.59,104.51 "/><path d="M75.51,104.37 L75.55,104.26 "/><path d="M74.44,104.08 L74.43,104.04 L74.47,104.12 L74.56,104.21 "/><path d="M75.48,104.07 L75.51,103.97 L75.51,104.02 L75.43,104.13 "/><path d="M74.51,104.18 L74.47,104.13 L74.44,104.08 "/><path d="M74.43,104.04 L74.43,104.03 "/><path d="M73.78,102.71 L73.98,102.89 "/><path d="M75.85,102.60 L75.94,102.37 "/><path d="M75.42,102.96 L75.34,103.01 "/><path d="M74.08,102.12 L74.10,101.98 L74.20,101.85 "/><path d="M75.38,101.78 L75.47,101.91 L75.49,102.05 L75.43,102.19 "/><path d="M74.26,102.37 L74.14,102.26 L74.08,102.12 "/><path d="M74.48,101.94 L74.43,102.01 L74.42,102.09 L74.44,102.16 L74.48,102.19 L74.47,102.17 L74.46,102.11 L74.49,102.04 "/><path d="M75.04,101.96 L75.10,102.01 L75.12,102.07 L75.11,102.13 L75.12,102.12 L75.16,102.05 L75.15,101.98 L75.10,101.91 "/><path d="M74.48,102.19 L74.51,102.22 "/><path d="M74.46,102.11 L74.45,102.16 "/><path d="M75.51,103.97 L75.52,103.96 L75.52,103.89 "/><path d="M75.52,103.94 L75.52,103.91 "/><path d="M75.10,102.01 L75.14,102.09 "/></g><g style="stroke:#000000;stroke-width:0.529"><path d="M75.50,104.40 C75.45,104.45 75.45,104.45 75.40,104.50 C75.32,104.54 75.32,104.54 75.25,104.58 C75.17,104.60 75.17,104.60 75.09,104.62 C75.00,104.62 75.00,104.62 74.92,104.63 C74.83,104.62 74.83,104.62 74.75,104.60 C74.68,104.57 74.68,104.57 74.61,104.54 "/><path d="M75.92,102.15 C75.85,102.05 75.85,102.05 75.77,101.95 C75.73,101.90 75.73,101.90 75.68,101.85 C75.56,101.78 75.56,101.77 75.45,101.71 "/><path d="M75.35,101.67 C75.22,101.63 75.22,101.63 75.09,101.60 C74.95,101.59 74.95,101.59 74.81,101.59 C74.66,101.60 74.66,101.60 74.52,101.63 C74.39,101.68 74.39,101.68 74.26,101.73 "/><path d="M75.42,102.96 L75.52,103.89 L75.52,103.91 L75.55,104.28 L75.50,104.40 "/><path d="M74.61,104.54 L74.50,104.44 L74.45,104.32 L74.43,104.03 L74.42,104.02 L74.33,103.07 "/><path d="M75.42,102.96 L75.62,102.86 L75.83,102.66 L75.92,102.44 L75.94,102.37 L75.92,102.15 "/><path d="M75.45,101.71 L75.35,101.67 "/><path d="M74.26,101.73 L74.18,101.77 L73.95,101.94 L73.81,102.14 L73.73,102.27 L73.69,102.49 L73.78,102.71 L73.81,102.77 L74.00,102.94 L74.29,103.06 L74.33,103.07 "/></g></g><g id="Actor_.11"><g style="stroke:#000000;stroke-width:0.176"><path d="M36.17,90.58 C36.26,90.62 36.26,90.62 36.36,90.65 C36.47,90.67 36.47,90.67 36.58,90.68 C36.69,90.68 36.70,90.68 36.81,90.67 C36.92,90.64 36.92,90.64 37.03,90.60 C37.12,90.56 37.12,90.56 37.21,90.50 C37.27,90.44 37.27,90.44 37.33,90.38 "/><path d="M37.27,89.97 C37.19,89.92 37.19,89.92 37.10,89.88 C37.00,89.85 37.00,89.85 36.90,89.83 C36.78,89.82 36.78,89.82 36.67,89.82 C36.55,89.84 36.55,89.84 36.44,89.86 C36.34,89.90 36.34,89.90 36.24,89.94 C36.16,90.00 36.16,90.00 36.08,90.06 "/><path d="M35.90,91.10 C36.04,91.16 36.05,91.16 36.19,91.22 C36.37,91.25 36.37,91.25 36.55,91.27 C36.73,91.26 36.74,91.26 36.92,91.24 C37.10,91.19 37.10,91.19 37.27,91.14 C37.42,91.06 37.42,91.06 37.56,90.98 C37.66,90.88 37.66,90.88 37.76,90.78 "/><path d="M36.50,92.72 C36.57,92.75 36.57,92.75 36.65,92.78 C36.73,92.79 36.73,92.79 36.82,92.80 C36.91,92.80 36.91,92.80 37.00,92.79 C37.09,92.76 37.09,92.76 37.17,92.74 C37.24,92.70 37.24,92.70 37.31,92.66 C37.36,92.61 37.36,92.61 37.41,92.56 "/><path d="M36.47,92.41 C36.54,92.45 36.54,92.45 36.62,92.47 C36.70,92.49 36.70,92.49 36.79,92.50 C36.88,92.49 36.88,92.49 36.97,92.48 C37.06,92.46 37.06,92.46 37.14,92.43 C37.21,92.40 37.21,92.40 37.28,92.36 C37.33,92.31 37.33,92.31 37.38,92.26 "/><path d="M37.34,92.32 C37.28,92.37 37.28,92.37 37.22,92.41 C37.14,92.44 37.14,92.44 37.06,92.47 C36.97,92.49 36.97,92.49 36.88,92.50 C36.79,92.50 36.79,92.50 36.70,92.50 C36.62,92.48 36.62,92.48 36.54,92.46 C36.48,92.42 36.48,92.42 36.41,92.39 "/><path d="M37.01,90.33 C36.99,90.36 36.99,90.36 36.96,90.38 C36.91,90.41 36.91,90.41 36.86,90.44 C36.81,90.45 36.81,90.45 36.75,90.47 C36.69,90.47 36.69,90.47 36.63,90.48 C36.57,90.47 36.57,90.47 36.51,90.46 C36.46,90.44 36.46,90.44 36.41,90.42 "/><path d="M36.23,91.27 C36.39,91.30 36.39,91.30 36.56,91.32 C36.74,91.31 36.74,91.31 36.92,91.29 C37.09,91.25 37.09,91.25 37.26,91.19 "/><path d="M36.37,90.15 C36.41,90.12 36.41,90.12 36.45,90.09 C36.50,90.07 36.50,90.07 36.55,90.05 C36.61,90.03 36.61,90.03 36.67,90.02 C36.73,90.03 36.74,90.03 36.80,90.03 C36.85,90.04 36.85,90.04 36.90,90.06 C36.95,90.08 36.95,90.08 36.99,90.10 "/><path d="M36.38,90.25 C36.41,90.22 36.41,90.22 36.44,90.19 C36.48,90.16 36.48,90.16 36.52,90.14 C36.57,90.12 36.57,90.12 36.63,90.11 C36.68,90.11 36.68,90.11 36.74,90.10 C36.78,90.11 36.78,90.11 36.83,90.12 C36.88,90.13 36.88,90.13 36.93,90.15 "/><path d="M35.98,90.34 L36.04,90.47 L36.17,90.58 "/><path d="M37.33,90.38 L37.39,90.23 L37.36,90.09 L37.27,89.97 "/><path d="M36.08,90.06 L35.99,90.20 L35.98,90.34 "/><path d="M35.69,90.93 L35.90,91.10 "/><path d="M37.76,90.78 L37.84,90.55 "/><path d="M36.35,92.53 L36.40,92.63 L36.50,92.72 "/><path d="M37.41,92.56 L37.45,92.45 "/><path d="M36.34,92.29 L36.33,92.25 L36.37,92.33 L36.47,92.41 "/><path d="M37.38,92.26 L37.41,92.16 L37.41,92.21 L37.34,92.32 "/><path d="M36.41,92.39 L36.37,92.34 L36.34,92.29 "/><path d="M36.33,92.25 L36.33,92.23 "/><path d="M37.01,90.33 L37.02,90.32 L37.03,90.29 L37.02,90.27 L37.01,90.33 "/><path d="M36.41,90.42 L36.37,90.39 L36.35,90.31 L36.34,90.36 L36.37,90.39 "/><path d="M37.26,91.19 L37.32,91.16 "/><path d="M36.34,90.36 L36.31,90.30 L36.32,90.22 L36.37,90.15 "/><path d="M36.99,90.10 L37.04,90.17 L37.05,90.24 L37.03,90.29 "/><path d="M36.35,90.31 L36.38,90.25 "/><path d="M36.93,90.15 L36.99,90.20 L37.02,90.27 "/><path d="M37.41,92.09 L37.42,92.15 L37.41,92.16 "/><path d="M37.42,92.12 L37.42,92.10 "/></g><g style="stroke:#000000;stroke-width:0.529"><path d="M37.80,90.33 C37.73,90.23 37.73,90.23 37.65,90.13 C37.60,90.08 37.60,90.08 37.55,90.03 C37.44,89.96 37.44,89.96 37.32,89.90 "/><path d="M37.22,89.86 C37.09,89.82 37.09,89.82 36.96,89.79 C36.82,89.79 36.82,89.79 36.67,89.79 C36.53,89.81 36.53,89.81 36.39,89.84 C36.26,89.89 36.26,89.89 36.13,89.94 "/><path d="M37.40,92.59 C37.35,92.64 37.35,92.64 37.30,92.69 C37.23,92.73 37.23,92.73 37.16,92.77 C37.08,92.79 37.08,92.79 37.00,92.82 C36.91,92.82 36.91,92.82 36.83,92.83 C36.75,92.82 36.75,92.82 36.67,92.81 C36.59,92.78 36.59,92.78 36.51,92.75 "/><path d="M37.32,91.16 L37.54,91.04 L37.74,90.84 L37.84,90.55 L37.80,90.33 "/><path d="M37.32,89.90 L37.22,89.86 "/><path d="M36.13,89.94 L36.05,89.99 L35.83,90.16 L35.61,90.49 L35.59,90.72 L35.72,90.99 L35.92,91.16 L36.23,91.27 "/><path d="M37.32,91.16 L37.42,92.10 L37.45,92.47 L37.40,92.59 "/><path d="M36.51,92.75 L36.40,92.65 L36.35,92.53 L36.23,91.27 "/></g></g><g id="paperID" visibility="hidden" opacity="0.00" transform="scale(0.000100)"><path style="stroke:#000000;stroke-width:0.500;fill:#e6e6e6;fill-rule:evenodd" d="M-2000.00,-2000.00L2297.00,-2000.00L2297.00,2210.00L-2000.00,2210.00zM0.00,0.00L297.00,0.00L297.00,210.00L0.00,210.00z"/><path style="fill:#000000;fill-opacity:0.118" d="M3.00,210.00L297.00,210.00L297.00,3.00L300.00,3.00L300.00,213.00L3.00,213.00z"/></g><g id="ToolTip" visibility="hidden" opacity="0" transform="translate(0,0)"><rect id="ToolTipShadow" opacity="0.20" fill="black" stroke="none" x="0" y="0" width="30" height="8"/><rect id="ToolTipBG" fill="#ffffe1" stroke="black" x="0" y="0" width="30" height="8"/><text xml:space="preserve" id="ToolTipText" fill="black" x="0" y="0" width="30" height="8">tooltip</text></g></g></svg>
