<?xml version="1.0" encoding="UTF-8" standalone="no"?>
<svg xmlns="http://www.w3.org/2000/svg" xmlns:xlink="http://www.w3.org/1999/xlink" width="297.000mm" height="210.000mm" viewBox="0.000000 0.000000 297.000000 210.000000" stroke-linejoin="round" stroke-linecap="round" fill="none" fill-rule="evenodd"><desc>Composer Export</desc><script type="text/ecmascript"><![CDATA[
if(typeof(top) != "undefined")
{
	top.ShowPaper = ShowPaper;
}
function ShowHotSpot(evt,hotspotid)
{
	var svgDocument = evt.target.ownerDocument;
	var strId = "hotspot."+hotspotid;
	var hotspot = svgDocument.getElementById(strId);
	if(hotspot)
		hotspot.setAttribute("opacity",".5");
}
function HideHotSpot(evt,hotspotid)
{
	var svgDocument = evt.target.ownerDocument;
	var strId = "hotspot."+hotspotid;
	var hotspot = svgDocument.getElementById(strId);
	if(hotspot)
		hotspot.setAttribute("opacity","0");

	var toolTip = svgDocument.getElementById('ToolTip');
	if(toolTip)
		toolTip.setAttribute("visibility","hidden");
}
function ShowToolTip(evt,hotspotid,strTooltip)
{
	if(strTooltip=="")
	return;

	// change text
	var svgDocument = evt.target.ownerDocument;
	var tiptext = svgDocument.getElementById('ToolTipText');
	if( !tiptext )
	return;
	tiptext.firstChild.nodeValue = " " + strTooltip + "  " ;

	// show tooltip before, else some refresh issue

	var toolTip = svgDocument.getElementById('ToolTip');
	if(!toolTip)
	return;

	toolTip.setAttribute("visibility","visible");
	toolTip.setAttribute("opacity",".95");

	// move tooltip
	// get viewbox

	var root = svgDocument.documentElement;
	var vbox = (root.getAttribute("viewBox")).split(' ');
	var x0 = parseFloat(vbox[0]);
	var y0 = parseFloat(vbox[1]);
	var vboxW = parseFloat(vbox[2]);
	var vboxH = parseFloat(vbox[3]);

	// get default width of svg

	var strW = root.getAttribute("width");
	var svgW = parseFloat(strW);
	if(strW.indexOf('mm') != -1)
	svgW *= 3.779;

	var strH = root.getAttribute("height");
	var svgH = parseFloat(strH);
	if(strH.indexOf('mm') != -1)
	svgH *= 3.779;  	// 96 dpi  -> 96/25.4 = 3.779

	// update the viewbox / width / height if svg is embedded in html with zoom fit all
	var realx0 = x0;
	var realy0 = y0;
	var realvboxW = vboxW;
	var realvboxH = vboxH;
	var realsvgW = svgW;
	var realsvgH = svgH;

	if ((typeof(top) == "undefined") || (typeof(top.svgctl1) != "undefined")) // embedded in html
	{
		// get window size in pxl

		svgW = window.innerWidth;
		svgH = window.innerHeight;

		// calculate real viewbox

		realsvgW = svgW;
		realsvgH = svgH;
		if((svgW / svgH) > (vboxW / vboxH))
		{
			realvboxW = (vboxH * svgW) / svgH;
			realvboxH = vboxH;
			realx0 = x0 - (realvboxW - vboxW)/2 ;
		}
		else
		{
			realvboxH = (vboxW * svgH) / svgW;
			realvboxW = vboxW;
			realy0 = y0 - (realvboxH - vboxH)/2 ;
		}
	}

	// get user zoom/pan

	var newScale = root.currentScale;
	var translation = root.currentTranslate;

	// transform pxl to user unit

	var xPos = (((evt.clientX+10- translation.x)/newScale) * realvboxW)/realsvgW  + realx0 ;
	var yPos = (((evt.clientY+5- translation.y)/newScale) * realvboxH)/ realsvgH  + realy0 ;
	var scaleForWidth = ( (1 / newScale) * realvboxH) / realsvgH;

	// move tooltip

	toolTip.setAttribute("transform", "translate(" + xPos + "," + yPos + ")" );

	// resize tooltip

	var fontsize = 12;
	tiptext.setAttribute("font-size",fontsize*scaleForWidth);
	tiptext.setAttribute("y", fontsize*scaleForWidth);
	var tipBG = svgDocument.getElementById('ToolTipBG');
	var outline = tiptext.getBBox();
	if(tipBG)
	{
		tipBG.setAttribute("stroke-width", 1*scaleForWidth);
		tipBG.setAttribute("width", Number(outline.width) );
		tipBG.setAttribute("height", Number(outline.height) + fontsize*.5*scaleForWidth );
	}
	var ToolTipShadow = svgDocument.getElementById('ToolTipShadow');
	if(ToolTipShadow)
	{
		ToolTipShadow.setAttribute("width", Number(outline.width) );
		ToolTipShadow.setAttribute("height", Number(outline.height) + fontsize*.5*scaleForWidth );
		ToolTipShadow.setAttribute("x", 3*scaleForWidth);
		ToolTipShadow.setAttribute("y", 3*scaleForWidth);
	}
}
function ShowPaper()
{
  var svgDocument = getDocument();
  var paper = svgDocument.getElementById("paperID");
  if(paper)
  {
    paper.setAttribute("transform","scale(1)");
    paper.setAttribute("opacity","1");
    paper.setAttribute("visibility","visible");
  }
  var svg = svgDocument.getRootElement();
  if(svg)
  {
    svg.setAttribute("width","307.000mm");
    svg.setAttribute("height","220.000mm");
    svg.setAttribute("viewBox","-5.000000 -5.000000 307.000000 220.000000");
  }
}
]]></script><defs/><g><path style="fill:#ffffff" d="M83.74,77.86L80.89,77.86L75.93,79.24L70.77,80.98L69.02,82.55L67.36,82.52L67.22,82.72L67.02,83.79L60.88,90.16L60.49,90.25L58.07,92.60L58.16,92.97L55.04,96.40L55.14,98.99L54.98,99.08L53.15,101.13L52.66,102.05L52.04,101.85L51.19,100.76L50.92,100.81L50.91,101.28L52.05,102.42L52.47,102.43L52.66,102.05L53.45,101.71L55.24,99.82L55.92,100.05L56.18,100.48L56.97,101.04L65.35,103.46L65.85,104.24L66.08,105.45L67.29,107.60L67.51,108.66L67.63,110.30L67.78,112.25L68.00,114.83L68.29,115.64L70.53,118.92L72.73,121.69L74.08,122.54L296.94,188.91L296.92,210.05L0.08,210.05L0.08,0.08L296.92,0.08L296.93,141.20z"/><path style="fill:#000020" d="M235.23,105.53L234.33,105.89L234.11,105.43L234.67,105.27L235.24,105.41z"/><path style="fill:#1a1a1a" d="M296.93,141.20L296.94,188.91L74.08,122.54L72.73,121.69L70.53,118.92L68.29,115.64L68.00,114.83L67.78,112.25L67.74,110.40L67.63,110.30L67.51,108.66L67.46,107.65L67.29,107.60L66.08,105.45L65.85,104.24L65.86,102.87L65.27,102.40L56.99,99.93L56.42,99.59L56.08,99.64L55.92,100.05L55.24,99.82L55.33,99.33L55.14,98.99L55.04,96.40L58.16,92.97L60.85,90.35L60.88,90.16L67.02,83.79L67.18,83.73L67.22,82.72L67.36,82.52L69.02,82.55L70.77,80.98L75.93,79.24L80.89,77.86L83.74,77.86z"/><path style="fill:#00fdff" d="M94.23,57.45L94.91,58.20L94.79,60.04L93.30,61.86L91.37,62.15L91.28,62.32L90.45,62.24L88.26,61.81L87.02,60.49L87.34,58.94L88.05,58.00L89.42,57.17L90.17,57.02L92.85,56.90z"/><path style="fill:#00fdff" d="M91.27,62.60L91.47,68.30L90.72,68.48L90.07,68.21L89.82,67.59L89.80,66.00L89.69,65.90L89.56,64.26L89.60,62.41L89.90,62.38z"/><path style="fill:#00fdff" d="M166.20,78.68L167.44,79.70L167.31,81.27L167.02,81.81L165.73,83.50L165.44,83.59L164.66,83.78L163.53,83.91L162.70,83.75L161.31,83.62L159.85,82.82L159.60,81.92L159.60,81.06L160.58,79.51L161.95,78.68L162.69,78.53L164.37,78.37z"/><path style="fill:#00fdff" d="M163.52,84.11L164.00,89.81L162.98,89.96L162.37,89.34L162.33,88.62L162.20,88.53L162.09,86.88L162.05,85.03L161.94,84.92L161.83,83.92L162.15,83.91z"/><path style="fill:#00fdff" d="M239.80,101.02L239.99,101.47L239.55,103.32L237.98,105.05L237.17,105.29L236.60,105.41L235.24,105.41L234.67,105.27L233.75,104.87L233.04,104.83L232.08,103.80L232.12,102.23L233.12,101.02L234.48,100.19L235.49,100.04L237.73,100.03L238.46,100.19z"/><path style="fill:#171717" d="M91.10,85.82L91.64,85.01L92.18,84.74L93.68,84.74L93.75,86.03L91.92,86.45L91.80,86.78L91.47,86.69z"/><path style="fill:#171717" d="M66.66,95.76L67.09,96.51L66.96,96.79L65.44,96.59L64.34,97.16L63.43,98.42L63.02,98.02L63.03,96.96L64.07,95.78L64.61,95.49L66.11,95.50z"/><path style="fill:#171717" d="M77.18,97.66L77.50,98.37L76.95,98.49L75.93,98.53L74.64,99.20L74.33,99.89L73.91,100.33L73.49,99.95L73.51,98.89L74.55,97.71L75.09,97.42L76.86,97.42z"/><path style="fill:#171717" d="M163.71,106.91L164.71,106.25L166.21,106.25L166.29,107.54L164.44,107.95L164.33,108.29L163.71,107.92z"/><path style="fill:#171717" d="M238.57,127.92L238.80,129.06L236.96,129.43L236.62,129.82L236.22,129.73L236.24,128.41L237.53,127.76z"/><path style="fill:#ffffff" d="M66.96,96.79L67.03,97.58L66.64,98.09L65.61,98.77L64.83,98.93L63.43,98.42L64.34,97.16L65.44,96.59z"/><path style="fill:#ffffff" d="M77.38,98.84L77.51,99.49L76.66,100.42L75.85,100.66L74.45,100.71L73.91,100.33L74.33,99.89L74.64,99.20L75.93,98.53L76.95,98.49z"/><path style="fill:#e5e5e5" d="M139.75,59.36L139.84,60.31L139.00,60.62L138.77,60.76L138.09,60.78L137.78,60.48L137.79,59.48L138.52,59.09L139.47,59.06z"/><path style="fill:#e5e5e5" d="M127.87,71.81L126.85,72.25L125.92,72.08L125.84,70.97L127.59,70.39z"/><path style="fill:#e5e5e5" d="M186.14,74.13L185.09,74.45L184.38,74.61L184.03,74.35L184.12,73.26L184.85,72.88L185.77,72.88z"/><path style="fill:#e5e5e5" d="M113.79,82.66L114.52,81.98L115.74,81.98L115.83,83.19L115.00,83.51L114.35,83.69L113.79,83.35z"/><path style="fill:#e5e5e5" d="M171.88,85.29L172.44,84.47L173.91,84.17L173.93,85.67L173.18,85.85L172.34,85.81z"/><path style="fill:#e5e5e5" d="M94.03,86.89L92.36,86.95L91.80,86.78L91.92,86.45L93.75,86.03z"/><path style="fill:#e5e5e5" d="M160.13,96.16L160.85,95.77L162.07,95.77L162.16,96.98L161.33,97.30L160.67,97.48L160.13,97.15z"/><path style="fill:#e5e5e5" d="M55.33,99.33L55.24,99.82L53.45,101.71L52.66,102.05L53.15,101.13L54.98,99.08L55.14,98.99z"/><path style="fill:#e5e5e5" d="M52.04,101.85L52.66,102.05L52.47,102.43L52.05,102.42L50.91,101.28L50.92,100.81L51.19,100.76z"/><path style="fill:#e5e5e5" d="M166.31,108.33L164.61,108.44L164.33,108.29L164.44,107.95L166.29,107.54z"/><path style="fill:#e5e5e5" d="M236.62,129.82L236.96,129.43L238.80,129.06L238.84,129.86L238.64,130.00L237.33,129.99z"/><path style="fill:#00e3e5" d="M95.37,58.50L95.86,59.64L95.21,61.02L93.95,61.96L93.82,63.14L93.97,65.09L94.23,66.84L93.95,67.75L93.05,68.50L90.72,68.48L91.47,68.30L91.27,62.60L92.31,62.42L91.28,62.32L91.37,62.15L93.30,61.86L94.79,60.04L94.91,58.20z"/><path style="fill:#00e3e5" d="M90.07,58.65L90.07,58.13L90.84,57.70L91.45,57.70z"/><path style="fill:#00e3e5" d="M90.45,62.24L89.90,62.38L89.60,62.41L89.34,62.38L88.26,61.81z"/><path style="fill:#00e3e5" d="M168.14,80.60L168.14,81.82L167.74,82.52L166.28,83.61L165.73,83.50L167.02,81.81L167.31,81.27L167.44,79.70z"/><path style="fill:#00e3e5" d="M164.02,79.33L162.59,80.16L162.59,79.63L163.99,79.22z"/><path style="fill:#00e3e5" d="M166.25,84.09L166.35,86.03L166.50,87.43L166.49,89.27L165.57,90.01L162.98,89.96L164.00,89.81L163.52,84.11L164.80,83.92L164.66,83.78L165.44,83.59z"/><path style="fill:#00e3e5" d="M162.70,83.75L162.15,83.91L161.83,83.92L161.31,83.62z"/><path style="fill:#00e3e5" d="M240.52,102.02L240.54,103.16L240.38,103.89L238.80,105.12L237.98,105.05L239.55,103.32L239.99,101.47z"/><path style="fill:#00e3e5" d="M234.67,105.27L234.11,105.43L233.04,104.83L233.75,104.87z"/><path style="fill:#00e3e5" d="M238.42,105.45L238.75,106.73L238.88,108.64L238.88,110.87L238.61,111.23L236.96,111.80L236.34,111.77L236.54,111.25L235.98,105.71L235.23,105.53L235.24,105.41L236.60,105.41L237.32,105.43L237.17,105.29L237.98,105.05z"/><path style="fill:#000020" d="M139.00,60.62L139.84,60.31L140.27,60.51L140.22,60.76z"/><path style="fill:#000020" d="M91.27,62.60L89.90,62.38L90.45,62.24L91.28,62.32z"/><path style="fill:#000020" d="M89.56,64.26L89.34,62.38L89.60,62.41z"/><path style="fill:#000020" d="M93.97,65.09L93.82,63.14L93.93,63.24z"/><path style="fill:#000020" d="M89.82,67.59L89.69,65.90L89.80,66.00z"/><path style="fill:#000020" d="M185.09,74.45L186.14,74.13L186.89,74.27L186.55,74.58z"/><path style="fill:#000020" d="M115.00,83.51L115.83,83.19L116.32,83.43L116.32,83.73z"/><path style="fill:#000020" d="M67.18,83.73L67.02,83.79L67.22,82.72z"/><path style="fill:#000020" d="M163.52,84.11L162.15,83.91L162.70,83.75L163.53,83.91z"/><path style="fill:#000020" d="M173.18,86.04L172.34,85.81L173.18,85.85z"/><path style="fill:#000020" d="M162.09,86.88L161.94,84.92L162.05,85.03z"/><path style="fill:#000020" d="M166.50,87.43L166.35,86.03L166.46,86.13z"/><path style="fill:#000020" d="M162.37,89.34L162.20,88.53L162.33,88.62z"/><path style="fill:#000020" d="M60.85,90.35L58.16,92.97L58.07,92.60L60.49,90.25L60.88,90.16z"/><path style="fill:#000020" d="M161.33,97.30L162.16,96.98L162.66,97.21L162.64,97.52L161.75,97.45z"/><path style="fill:#000020" d="M67.31,96.81L67.03,97.58L66.96,96.79L67.09,96.51z"/><path style="fill:#000020" d="M76.95,98.49L77.50,98.37L77.69,98.54L77.51,99.49L77.38,98.84z"/><path style="fill:#000020" d="M75.72,100.82L74.45,100.71L75.85,100.66z"/><path style="fill:#000020" d="M240.54,103.16L240.52,102.02L240.66,102.12z"/><path style="fill:#000020" d="M65.35,103.46L65.86,102.87L65.85,104.24z"/><path style="fill:#000020" d="M237.98,105.05L238.80,105.12L238.75,106.73L238.42,105.45z"/><path style="fill:#000020" d="M67.51,108.66L67.29,107.60L67.46,107.65z"/><path style="fill:#000020" d="M234.61,109.49L234.46,107.54L234.57,107.64z"/><path style="fill:#000020" d="M238.88,110.87L238.88,108.64L238.99,108.75z"/><path style="fill:#000020" d="M67.78,112.25L67.63,110.30L67.74,110.40z"/><path style="fill:#00fdff" d="M236.54,111.25L236.34,111.77L234.86,111.22L234.61,109.49L234.57,107.64L234.46,107.54L234.33,105.89L235.23,105.53L235.98,105.71z"/><path style="fill:#171717" d="M56.99,99.93L65.27,102.40L65.86,102.87L65.35,103.46L56.97,101.04L56.18,100.48L55.92,100.05L56.08,99.64L56.42,99.59z"/><path style="fill:#00001c" d="M91.27,62.60L91.28,62.32L92.31,62.42z"/><path style="fill:#00001c" d="M165.44,83.59L165.73,83.50L166.28,83.61L166.25,84.09z"/><path style="fill:#00001c" d="M163.52,84.11L163.53,83.91L164.66,83.78L164.80,83.92z"/><path style="fill:#00001c" d="M93.95,87.04L92.36,86.95L94.03,86.89z"/><path style="fill:#00001c" d="M236.60,105.41L237.17,105.29L237.32,105.43z"/><path style="fill:#00001c" d="M164.61,108.44L166.31,108.33L166.58,108.46z"/><path style="fill:#ffffff" d="M95.04,86.41L94.03,86.89L93.75,86.03z"/><path style="fill:#ffffff" d="M167.33,108.04L166.58,108.46L166.31,108.33L166.29,107.54L167.07,107.62z"/><path style="fill:#ffffff" d="M239.82,129.43L239.78,129.68L238.84,129.86L238.80,129.06z"/><g id="Actor_.0"><g style="stroke:#000000;stroke-width:0.176"><path d="M54.98,97.84 L55.31,98.63 L56.82,99.68 L297.00,171.13 "/><path d="M55.40,98.91 L55.40,98.86 "/><path d="M56.82,99.68 L57.24,100.75 "/><path d="M67.30,96.76 L66.49,95.40 L64.42,95.41 L62.99,96.87 L63.37,98.32 "/><path d="M65.82,103.30 L65.90,102.38 "/><path d="M297.00,152.46 L66.82,83.98 "/><path d="M67.34,82.78 L67.24,83.39 "/><path d="M297.00,175.84 L67.50,107.56 "/><path d="M67.74,82.26 L67.74,82.31 "/><path d="M68.88,82.60 L297.00,150.46 "/><path d="M77.78,98.66 L76.97,97.30 L74.90,97.31 L73.46,98.76 L73.84,100.21 "/><path d="M95.24,86.23 L95.57,85.79 L95.42,84.98 L94.44,84.46 L92.93,84.39 L91.38,85.13 L91.18,86.08 L91.60,86.50 "/><path d="M167.68,107.78 L168.06,106.93 L167.43,106.21 L165.63,105.93 L163.71,106.80 L163.62,107.63 L164.05,108.05 "/><path d="M240.12,129.33 L240.30,128.08 L239.28,127.54 L237.82,127.49 L236.15,128.35 L236.06,129.18 L236.49,129.60 "/></g><g style="stroke:#000000;stroke-width:0.529"><path d="M70.97,80.78 C75.72,79.27 75.74,79.26 80.53,77.88 C82.25,77.80 82.29,77.77 84.01,77.85 C190.52,109.43 190.55,109.44 297.00,141.21 "/><path d="M67.63,82.32 L66.88,83.91 L55.97,95.14 L54.97,96.95 L54.98,97.84 L56.37,100.34 L65.82,103.30 L66.13,105.00 L67.50,107.56 L68.26,115.14 L71.97,120.47 L73.65,122.01 L297.00,188.58 "/><path d="M63.47,98.44 L63.71,97.36 L64.85,96.49 L66.28,96.29 L67.30,96.76 L66.71,97.97 L65.44,98.70 L63.47,98.44 "/><path d="M67.64,82.28 L68.88,82.60 L70.97,80.78 "/><path d="M74.15,100.43 L75.21,100.71 L76.62,100.32 L77.79,98.73 L76.76,98.19 L75.39,98.37 L74.25,99.19 L73.84,100.21 L74.15,100.43 "/><path d="M92.34,86.05 L91.77,86.34 L92.01,86.72 L93.42,86.90 L95.24,86.23 L93.79,85.82 L92.34,86.05 "/><path d="M164.21,107.89 L165.63,108.44 L167.68,107.78 L166.23,107.37 L164.21,107.89 "/><path d="M237.60,129.05 L236.65,129.44 L236.90,129.82 L238.30,130.00 L240.12,129.33 L237.60,129.05 "/></g></g><g id="Actor_.1"><g style="stroke:#000000;stroke-width:0.176"><path d="M160.59,82.89 C161.13,83.13 161.14,83.13 161.69,83.34 C162.35,83.47 162.35,83.46 163.01,83.56 C163.72,83.55 163.73,83.55 164.43,83.51 C165.11,83.37 165.12,83.37 165.79,83.20 C166.37,82.95 166.37,82.95 166.94,82.67 C167.35,82.34 167.36,82.34 167.75,81.98 "/><path d="M161.72,80.94 C161.96,81.04 161.96,81.04 162.21,81.14 C162.30,81.18 162.30,81.18 162.40,81.22 C162.82,81.29 162.82,81.30 163.23,81.35 C163.68,81.35 163.68,81.35 164.12,81.32 C164.55,81.24 164.55,81.24 164.97,81.13 C165.33,80.98 165.33,80.98 165.69,80.80 C165.94,80.59 165.95,80.59 166.19,80.37 "/><path d="M166.06,78.93 C165.85,78.80 165.85,78.80 165.63,78.68 C165.56,78.63 165.56,78.63 165.48,78.58 C165.10,78.47 165.10,78.47 164.71,78.37 C164.28,78.34 164.27,78.34 163.84,78.32 C163.40,78.37 163.40,78.37 162.96,78.43 C162.56,78.56 162.56,78.56 162.17,78.70 C162.12,78.72 162.12,78.72 162.08,78.75 C161.81,78.92 161.81,78.92 161.55,79.08 "/><path d="M165.76,83.42 C165.11,83.58 165.10,83.58 164.44,83.72 C163.75,83.75 163.75,83.75 163.06,83.77 C162.49,83.69 162.49,83.69 161.92,83.58 "/><path d="M162.83,89.50 C163.08,89.61 163.09,89.61 163.35,89.72 C163.68,89.78 163.68,89.78 164.01,89.82 C164.35,89.82 164.35,89.82 164.70,89.80 C165.03,89.73 165.03,89.73 165.36,89.65 C165.64,89.53 165.64,89.53 165.92,89.39 C166.12,89.23 166.12,89.23 166.32,89.05 "/><path d="M162.30,87.88 C162.34,87.95 162.34,87.95 162.38,88.02 C162.45,88.10 162.45,88.10 162.53,88.18 C162.76,88.32 162.76,88.33 162.99,88.45 C163.28,88.54 163.28,88.54 163.59,88.62 C163.92,88.65 163.93,88.65 164.26,88.66 C164.61,88.62 164.61,88.62 164.95,88.57 C165.26,88.48 165.26,88.48 165.57,88.37 C165.81,88.22 165.82,88.22 166.05,88.06 "/><path d="M166.23,87.84 C166.03,88.01 166.03,88.02 165.83,88.18 C165.55,88.32 165.55,88.32 165.27,88.44 C164.94,88.52 164.94,88.52 164.61,88.59 C164.26,88.61 164.26,88.61 163.92,88.61 C163.59,88.57 163.59,88.57 163.27,88.51 C163.00,88.40 163.00,88.40 162.73,88.28 "/><path d="M164.97,79.36 C164.82,79.27 164.82,79.27 164.66,79.18 C164.46,79.12 164.46,79.12 164.26,79.07 C164.03,79.05 164.03,79.05 163.80,79.04 C163.58,79.07 163.57,79.07 163.35,79.10 C163.14,79.16 163.13,79.16 162.92,79.24 C162.76,79.34 162.76,79.34 162.60,79.44 "/><path d="M162.69,80.42 C162.86,80.49 162.87,80.49 163.05,80.56 C163.26,80.60 163.26,80.60 163.48,80.63 C163.71,80.63 163.72,80.63 163.95,80.62 C164.17,80.57 164.17,80.57 164.39,80.52 C164.58,80.44 164.58,80.44 164.77,80.34 C164.89,80.25 164.89,80.25 165.01,80.14 "/><path d="M162.63,79.81 C162.74,79.71 162.74,79.71 162.86,79.61 C163.03,79.53 163.03,79.53 163.20,79.45 C163.40,79.40 163.40,79.40 163.60,79.36 C163.81,79.35 163.81,79.35 164.02,79.35 C164.22,79.38 164.22,79.38 164.41,79.41 C164.58,79.47 164.58,79.47 164.74,79.55 "/><path d="M159.85,82.25 L160.59,82.89 "/><path d="M167.75,81.98 L168.14,81.19 "/><path d="M161.06,80.06 L161.26,80.53 L161.72,80.94 "/><path d="M166.19,80.37 L166.44,79.87 L166.39,79.38 L166.06,78.93 "/><path d="M161.55,79.08 L161.16,79.56 L161.06,80.06 "/><path d="M166.10,83.26 L165.76,83.42 "/><path d="M162.32,88.81 L162.46,89.19 L162.83,89.50 "/><path d="M166.32,89.05 L166.51,88.67 "/><path d="M166.05,88.06 L166.35,87.70 L166.39,87.51 L166.23,87.84 "/><path d="M162.73,88.28 L162.37,87.97 L162.26,87.70 L162.27,87.83 L162.30,87.88 "/><path d="M162.26,87.69 L162.25,87.66 "/><path d="M165.08,80.04 L165.16,79.86 L165.14,79.60 L164.97,79.36 "/><path d="M162.60,79.44 L162.40,79.69 L162.34,79.95 L162.44,80.20 L162.69,80.42 "/><path d="M165.01,80.14 L165.04,79.96 L165.02,79.89 L165.08,80.04 L165.01,80.14 "/><path d="M162.53,80.28 L162.51,80.05 L162.47,80.22 "/><path d="M162.51,80.05 L162.63,79.81 "/><path d="M164.74,79.55 L164.95,79.74 L165.02,79.89 L164.95,79.74 "/><path d="M166.39,87.51 L166.42,87.46 L166.43,87.30 "/><path d="M166.41,87.40 L166.40,87.23 "/></g><g style="stroke:#000000;stroke-width:0.529"><path d="M160.59,79.48 C161.17,79.08 161.18,79.08 161.79,78.70 C162.28,78.52 162.28,78.53 162.78,78.37 C163.06,78.33 163.06,78.33 163.35,78.30 C163.62,78.26 163.62,78.26 163.88,78.23 C164.43,78.26 164.43,78.25 164.97,78.29 C165.46,78.42 165.46,78.42 165.94,78.56 C166.13,78.65 166.13,78.65 166.32,78.75 C166.75,79.00 166.75,79.00 167.17,79.25 "/><path d="M166.28,89.18 C166.07,89.36 166.07,89.36 165.85,89.54 C165.59,89.66 165.59,89.66 165.32,89.78 C165.01,89.86 165.01,89.86 164.70,89.92 C164.37,89.94 164.37,89.94 164.04,89.94 C163.74,89.90 163.73,89.90 163.43,89.84 C163.15,89.73 163.15,89.73 162.88,89.61 "/><path d="M162.88,89.61 C162.70,89.46 162.70,89.46 162.52,89.31 C162.50,89.28 162.50,89.28 162.48,89.25 C162.40,89.03 162.40,89.03 162.32,88.81 "/><path d="M159.85,82.25 L159.54,81.48 L159.70,80.68 L160.03,80.16 L160.59,79.48 "/><path d="M167.17,79.25 L167.54,79.68 L168.07,80.39 L168.14,81.19 L168.06,81.46 L167.67,82.22 L166.88,82.90 L166.10,83.26 L166.40,87.23 L166.43,87.30 L166.51,88.67 L166.50,88.74 L166.28,89.18 "/><path d="M162.32,88.81 L162.25,87.66 L162.22,87.60 L161.92,83.58 L161.76,83.56 L160.69,83.11 L159.97,82.49 L159.85,82.25 "/></g></g><g id="Actor_.2"><g style="stroke:#000000;stroke-width:0.176"><path d="M52.19,102.22 L52.86,101.29 L51.56,100.08 "/><path d="M52.86,101.29 L55.21,98.43 "/><path d="M53.26,101.41 L53.19,101.35 "/><path d="M56.58,94.51 L56.32,94.27 L57.42,93.66 "/><path d="M73.24,80.02 L89.65,64.28 "/><path d="M75.13,98.51 L77.63,99.25 "/><path d="M95.23,86.23 L93.04,85.87 L91.60,86.50 "/><path d="M156.72,-0.00 L95.51,58.66 "/><path d="M116.73,83.30 L117.23,82.79 L117.12,82.17 L116.28,81.71 L115.13,81.68 L113.79,82.36 L113.72,83.02 L114.30,83.48 "/><path d="M126.24,72.04 L125.66,71.58 L125.73,70.91 L127.07,70.23 L128.22,70.27 L129.04,70.70 L129.17,71.35 L128.67,71.86 "/><path d="M138.18,60.60 L137.60,60.13 L137.67,59.47 L139.01,58.79 L140.16,58.82 L140.98,59.26 L141.11,59.91 L140.61,60.42 "/><path d="M163.01,97.07 L163.44,96.66 L163.39,95.91 L162.57,95.48 L161.41,95.45 L160.08,96.13 L160.01,96.79 L160.59,97.25 "/><path d="M167.68,107.78 L165.63,107.41 L164.04,108.05 "/><path d="M174.95,85.63 L175.39,85.21 L175.33,84.47 L174.51,84.04 L173.35,84.00 L172.02,84.68 L171.95,85.35 L172.53,85.81 "/><path d="M184.47,74.37 L183.94,73.97 L183.91,73.34 L185.29,72.56 L186.45,72.59 L187.28,73.04 L187.39,73.68 L186.89,74.19 "/><path d="M236.49,129.60 L237.93,128.97 L240.12,129.33 "/></g><g style="stroke:#000000;stroke-width:0.529"><path d="M55.53,99.23 L52.28,102.26 L50.89,101.01 L56.32,94.27 L63.65,87.24 "/><path d="M67.04,97.54 L64.39,96.75 "/><path d="M68.59,82.52 L89.52,62.46 "/><path d="M76.52,100.36 L74.00,99.61 "/><path d="M94.58,57.60 L154.68,-0.00 "/><path d="M114.39,83.53 L115.37,83.67 L116.71,83.32 L115.37,83.14 L114.39,83.53 "/><path d="M126.51,71.90 L126.24,72.04 L127.45,72.23 L128.55,71.94 L127.94,71.69 L126.51,71.90 "/><path d="M138.22,60.58 L139.36,60.78 L140.49,60.50 L139.71,60.23 L138.22,60.58 "/><path d="M160.67,97.30 L161.52,96.92 L163.01,97.07 L161.79,97.44 L160.67,97.30 "/><path d="M172.90,85.62 L172.53,85.81 L173.63,86.00 L174.95,85.63 L174.05,85.43 L172.90,85.62 "/><path d="M185.05,74.53 L184.55,74.41 L185.40,74.03 L186.88,74.18 L185.05,74.53 "/></g></g><g id="Actor_.3"><g style="stroke:#000000;stroke-width:0.176"><path d="M240.21,103.51 C239.82,103.87 239.82,103.87 239.41,104.21 C238.85,104.49 238.84,104.49 238.27,104.74 C237.60,104.91 237.59,104.91 236.92,105.06 C236.21,105.10 236.20,105.10 235.50,105.11 C234.83,105.02 234.83,105.02 234.17,104.91 C233.61,104.69 233.61,104.69 233.06,104.46 "/><path d="M234.17,102.49 C234.51,102.64 234.52,102.64 234.87,102.78 C235.28,102.85 235.28,102.85 235.70,102.91 C236.08,102.90 236.08,102.89 236.46,102.88 C236.52,102.87 236.52,102.88 236.59,102.87 C237.01,102.78 237.01,102.78 237.43,102.68 C237.79,102.52 237.79,102.52 238.15,102.34 C238.40,102.13 238.40,102.13 238.65,101.90 "/><path d="M238.49,100.47 C238.20,100.29 238.20,100.29 237.90,100.13 C237.52,100.01 237.52,100.01 237.13,99.92 C236.70,99.89 236.69,99.89 236.26,99.87 C235.82,99.92 235.82,99.92 235.38,99.99 C234.98,100.11 234.98,100.11 234.59,100.26 C234.38,100.38 234.38,100.39 234.17,100.52 C234.07,100.58 234.07,100.58 233.97,100.65 "/><path d="M235.28,111.06 C235.55,111.17 235.55,111.17 235.82,111.28 C236.14,111.33 236.14,111.33 236.46,111.38 C236.81,111.37 236.81,111.37 237.16,111.35 C237.49,111.28 237.49,111.28 237.82,111.20 C238.10,111.07 238.10,111.07 238.38,110.94 C238.58,110.77 238.58,110.77 238.77,110.59 "/><path d="M234.83,109.58 C234.90,109.66 234.90,109.66 234.99,109.74 C235.21,109.88 235.21,109.88 235.44,110.01 C235.74,110.10 235.74,110.10 236.05,110.17 C236.38,110.20 236.39,110.20 236.73,110.21 C237.07,110.17 237.07,110.17 237.41,110.12 C237.72,110.02 237.72,110.02 238.03,109.91 C238.27,109.76 238.27,109.76 238.51,109.60 "/><path d="M238.68,109.38 C238.49,109.56 238.48,109.56 238.29,109.72 C238.01,109.86 238.01,109.86 237.73,109.98 C237.40,110.07 237.40,110.07 237.07,110.14 C236.72,110.16 236.72,110.16 236.38,110.16 C236.05,110.12 236.05,110.12 235.73,110.06 C235.46,109.96 235.45,109.96 235.19,109.84 "/><path d="M234.37,105.14 C234.95,105.24 234.95,105.24 235.54,105.32 C236.23,105.30 236.23,105.30 236.92,105.26 C237.58,105.12 237.58,105.12 238.24,104.96 C238.40,104.89 238.40,104.89 238.55,104.81 "/><path d="M237.40,100.91 C237.25,100.81 237.25,100.81 237.09,100.73 C236.89,100.67 236.89,100.67 236.69,100.62 C236.46,100.60 236.46,100.60 236.23,100.59 C236.00,100.62 236.00,100.62 235.77,100.65 C235.56,100.72 235.56,100.72 235.36,100.79 C235.19,100.89 235.19,100.89 235.03,101.00 "/><path d="M235.14,101.97 C235.32,102.05 235.32,102.05 235.50,102.12 C235.72,102.16 235.72,102.16 235.94,102.19 C236.17,102.18 236.17,102.18 236.40,102.17 C236.63,102.12 236.63,102.12 236.85,102.07 C237.04,101.98 237.04,101.98 237.22,101.89 C237.34,101.79 237.34,101.79 237.45,101.69 "/><path d="M235.06,101.37 C235.19,101.26 235.19,101.26 235.32,101.16 C235.47,101.08 235.47,101.08 235.64,101.01 C235.83,100.96 235.84,100.96 236.04,100.91 C236.14,100.91 236.14,100.91 236.25,100.91 C236.35,100.90 236.35,100.90 236.45,100.90 C236.65,100.93 236.65,100.92 236.85,100.96 C237.01,101.02 237.01,101.02 237.17,101.09 "/><path d="M240.59,102.72 L240.21,103.51 "/><path d="M233.06,104.46 L232.31,103.82 "/><path d="M233.51,101.62 L233.71,102.10 L234.17,102.49 "/><path d="M238.65,101.90 L238.88,101.41 L238.83,100.92 L238.49,100.47 "/><path d="M233.97,100.65 L233.60,101.12 L233.51,101.62 "/><path d="M234.76,110.37 L234.91,110.75 L235.28,111.06 "/><path d="M238.77,110.59 L238.95,110.21 "/><path d="M238.51,109.60 L238.80,109.24 L238.83,109.05 L238.68,109.38 "/><path d="M235.19,109.84 L234.82,109.53 L234.71,109.26 L234.72,109.40 L234.83,109.58 "/><path d="M234.71,109.25 L234.69,109.21 "/><path d="M237.52,101.59 L237.61,101.40 L237.58,101.14 L237.40,100.91 "/><path d="M235.03,101.00 L234.84,101.25 L234.79,101.51 L234.89,101.75 L235.14,101.97 "/><path d="M237.45,101.69 L237.49,101.50 L237.51,101.60 L237.45,101.69 "/><path d="M234.98,101.83 L234.95,101.60 L234.91,101.78 "/><path d="M234.95,101.60 L235.06,101.37 "/><path d="M237.17,101.09 L237.39,101.28 L237.49,101.50 "/><path d="M238.83,109.05 L238.86,109.00 L238.84,108.78 "/><path d="M238.86,108.93 L238.87,108.84 "/></g><g style="stroke:#000000;stroke-width:0.529"><path d="M233.01,101.05 C233.60,100.64 233.60,100.64 234.20,100.26 C234.69,100.08 234.70,100.09 235.19,99.93 C235.25,99.92 235.25,99.92 235.32,99.91 C235.81,99.85 235.81,99.84 236.30,99.78 C236.84,99.80 236.84,99.80 237.39,99.84 C237.87,99.96 237.88,99.97 238.36,100.10 C238.55,100.19 238.55,100.19 238.74,100.29 C239.17,100.53 239.17,100.53 239.60,100.79 "/><path d="M238.73,110.72 C238.54,110.89 238.54,110.89 238.35,111.05 C238.07,111.19 238.07,111.20 237.78,111.33 C237.47,111.40 237.47,111.40 237.16,111.47 C236.83,111.49 236.83,111.49 236.50,111.49 C236.20,111.45 236.19,111.45 235.89,111.40 C235.63,111.30 235.63,111.30 235.38,111.19 C235.17,111.04 235.18,111.03 234.97,110.87 C234.95,110.84 234.95,110.84 234.93,110.81 C234.84,110.59 234.84,110.59 234.76,110.37 "/><path d="M233.03,104.57 L232.43,104.06 L231.99,103.05 L232.14,102.25 L232.46,101.73 L233.01,101.05 "/><path d="M239.60,100.79 L239.96,101.21 L240.50,101.92 L240.59,102.72 L240.50,102.98 L240.13,103.75 L239.35,104.44 L238.55,104.81 L238.84,108.78 L238.87,108.84 L238.95,110.21 L238.94,110.28 L238.73,110.72 "/><path d="M234.76,110.37 L234.69,109.21 L234.67,109.16 L234.37,105.14 L234.24,105.12 L233.16,104.68 L233.03,104.57 "/></g></g><g id="Actor_.4"><g style="stroke:#000000;stroke-width:0.176"><path d="M95.38,60.33 C95.02,60.69 95.01,60.70 94.62,61.04 C94.08,61.33 94.07,61.33 93.51,61.60 C92.85,61.78 92.84,61.78 92.17,61.93 C91.46,61.99 91.46,61.99 90.75,62.02 C90.08,61.94 90.07,61.94 89.40,61.83 C88.83,61.64 88.83,61.64 88.27,61.41 C87.87,61.11 87.86,61.11 87.48,60.79 "/><path d="M89.04,57.59 C89.33,57.38 89.33,57.38 89.63,57.19 C90.02,57.04 90.02,57.04 90.41,56.91 C90.84,56.83 90.85,56.83 91.28,56.77 C91.72,56.78 91.72,56.78 92.16,56.80 C92.34,56.84 92.34,56.85 92.53,56.89 C92.74,56.95 92.74,56.94 92.95,57.00 C93.25,57.16 93.25,57.16 93.55,57.33 "/><path d="M93.80,58.75 C93.57,58.98 93.56,58.99 93.32,59.20 C92.98,59.38 92.97,59.38 92.63,59.55 C92.58,59.56 92.58,59.56 92.53,59.57 C92.16,59.66 92.16,59.67 91.79,59.76 C91.35,59.79 91.35,59.79 90.90,59.81 C90.48,59.76 90.48,59.76 90.06,59.70 C89.70,59.57 89.70,59.57 89.35,59.43 C89.10,59.24 89.10,59.24 88.86,59.04 "/><path d="M90.06,67.68 C90.24,67.84 90.25,67.84 90.44,67.98 C90.71,68.09 90.72,68.09 90.99,68.19 C91.19,68.22 91.19,68.22 91.38,68.24 C91.52,68.26 91.52,68.26 91.65,68.28 C92.00,68.26 92.00,68.26 92.34,68.24 C92.67,68.16 92.67,68.16 93.00,68.07 C93.27,67.95 93.27,67.94 93.54,67.80 C93.73,67.64 93.73,67.63 93.91,67.46 "/><path d="M89.97,66.46 C90.15,66.62 90.15,66.62 90.35,66.77 C90.62,66.88 90.63,66.88 90.90,66.98 C91.23,67.03 91.23,67.03 91.56,67.06 C91.91,67.05 91.91,67.05 92.25,67.02 C92.58,66.95 92.58,66.95 92.91,66.86 C93.18,66.73 93.18,66.73 93.45,66.59 C93.64,66.42 93.64,66.42 93.82,66.24 "/><path d="M93.66,66.47 C93.43,66.63 93.43,66.63 93.20,66.78 C92.90,66.90 92.90,66.90 92.59,67.00 C92.25,67.06 92.25,67.06 91.91,67.10 C91.57,67.10 91.57,67.10 91.23,67.08 C90.92,67.01 90.92,67.01 90.61,66.93 C90.37,66.81 90.37,66.80 90.14,66.67 C90.05,66.59 90.05,66.59 89.97,66.51 C89.91,66.42 89.91,66.42 89.85,66.33 "/><path d="M89.48,62.05 C90.13,62.15 90.14,62.15 90.79,62.22 C91.48,62.20 91.48,62.20 92.17,62.14 C92.83,61.99 92.83,61.98 93.48,61.81 C93.58,61.77 93.58,61.77 93.67,61.72 "/><path d="M90.02,58.68 C90.15,58.79 90.15,58.79 90.28,58.89 C90.47,58.96 90.47,58.96 90.66,59.03 C90.88,59.06 90.88,59.06 91.10,59.09 C91.33,59.08 91.33,59.08 91.56,59.06 C91.78,59.01 91.78,59.01 92.00,58.95 C92.15,58.88 92.15,58.88 92.29,58.81 C92.33,58.79 92.33,58.79 92.37,58.77 C92.49,58.65 92.49,58.65 92.62,58.53 "/><path d="M92.49,57.78 C92.33,57.69 92.33,57.69 92.17,57.61 C91.97,57.56 91.96,57.56 91.76,57.51 C91.53,57.50 91.53,57.50 91.30,57.49 C91.07,57.52 91.07,57.52 90.84,57.56 C90.63,57.63 90.63,57.63 90.43,57.71 C90.27,57.81 90.27,57.81 90.12,57.92 "/><path d="M90.16,58.30 C90.27,58.19 90.27,58.19 90.39,58.08 C90.42,58.06 90.42,58.06 90.46,58.04 C90.59,57.98 90.59,57.98 90.71,57.92 C90.91,57.87 90.91,57.87 91.11,57.82 C91.32,57.80 91.32,57.80 91.53,57.80 C91.72,57.82 91.73,57.82 91.92,57.85 C92.09,57.91 92.09,57.91 92.26,57.97 C92.37,58.06 92.38,58.06 92.49,58.16 "/><path d="M95.72,59.53 L95.38,60.33 "/><path d="M88.63,58.57 L88.69,58.07 L89.04,57.59 "/><path d="M93.55,57.33 L93.92,57.77 L94.01,58.26 L93.80,58.75 "/><path d="M88.86,59.04 L88.63,58.57 "/><path d="M89.88,67.31 L90.06,67.68 "/><path d="M93.91,67.46 L94.07,67.07 "/><path d="M89.85,66.33 L89.83,66.18 L89.97,66.46 "/><path d="M93.82,66.24 L93.95,65.92 L93.93,66.09 L93.66,66.47 "/><path d="M89.83,66.18 L89.80,66.12 "/><path d="M89.93,58.21 L89.90,58.44 L90.02,58.68 "/><path d="M92.62,58.53 L92.73,58.27 L92.68,58.01 L92.49,57.78 "/><path d="M90.12,57.92 L89.94,58.17 L89.93,58.21 "/><path d="M90.10,58.74 L90.06,58.53 L90.02,58.68 "/><path d="M90.06,58.53 L90.16,58.30 "/><path d="M92.49,58.16 L92.60,58.38 L92.57,58.58 "/><path d="M92.64,58.48 L92.60,58.38 "/><path d="M93.98,65.70 L93.98,65.85 L93.95,65.92 "/><path d="M93.97,65.76 L93.97,65.68 "/></g><g style="stroke:#000000;stroke-width:0.529"><path d="M90.12,67.80 C90.32,67.96 90.32,67.96 90.54,68.12 C90.80,68.22 90.80,68.22 91.06,68.31 C91.37,68.36 91.37,68.36 91.68,68.40 C92.01,68.38 92.01,68.38 92.34,68.36 C92.65,68.29 92.65,68.29 92.95,68.20 C93.23,68.07 93.24,68.07 93.51,67.92 C93.69,67.76 93.69,67.75 93.87,67.58 "/><path d="M94.64,57.63 C94.02,57.28 94.01,57.28 93.38,56.97 C92.89,56.83 92.89,56.83 92.40,56.72 C91.85,56.69 91.85,56.69 91.30,56.68 C90.75,56.76 90.75,56.76 90.20,56.85 C89.71,57.02 89.71,57.02 89.23,57.21 C88.63,57.59 88.63,57.60 88.05,58.01 "/><path d="M87.34,60.49 L87.60,61.02 L88.37,61.63 L89.47,62.05 L89.88,67.31 L90.12,67.80 "/><path d="M93.87,67.58 L94.06,67.14 L94.07,67.07 L93.67,61.72 L94.56,61.27 L95.30,60.58 L95.63,59.80 L95.72,59.53 L95.58,58.75 L94.64,57.63 "/><path d="M88.05,58.01 L87.54,58.71 L87.22,59.23 L87.11,60.03 L87.34,60.49 "/></g></g><g id="paperID" visibility="hidden" opacity="0.00" transform="scale(0.000100)"><path style="stroke:#000000;stroke-width:0.500;fill:#e6e6e6;fill-rule:evenodd" d="M-2000.00,-2000.00L2297.00,-2000.00L2297.00,2210.00L-2000.00,2210.00zM0.00,0.00L297.00,0.00L297.00,210.00L0.00,210.00z"/><path style="fill:#000000;fill-opacity:0.118" d="M3.00,210.00L297.00,210.00L297.00,3.00L300.00,3.00L300.00,213.00L3.00,213.00z"/></g><g id="ToolTip" visibility="hidden" opacity="0" transform="translate(0,0)"><rect id="ToolTipShadow" opacity="0.20" fill="black" stroke="none" x="0" y="0" width="30" height="8"/><rect id="ToolTipBG" fill="#ffffe1" stroke="black" x="0" y="0" width="30" height="8"/><text xml:space="preserve" id="ToolTipText" fill="black" x="0" y="0" width="30" height="8">tooltip</text></g></g></svg>
