<?xml version="1.0" encoding="UTF-8" standalone="no"?>
<svg xmlns="http://www.w3.org/2000/svg" xmlns:xlink="http://www.w3.org/1999/xlink" width="297.000mm" height="210.000mm" viewBox="0.000000 0.000000 297.000000 210.000000" stroke-linejoin="round" stroke-linecap="round" fill="none" fill-rule="evenodd"><desc>Composer Export</desc><script type="text/ecmascript"><![CDATA[
if(typeof(top) != "undefined")
{
	top.ShowPaper = ShowPaper;
}
function ShowHotSpot(evt,hotspotid)
{
	var svgDocument = evt.target.ownerDocument;
	var strId = "hotspot."+hotspotid;
	var hotspot = svgDocument.getElementById(strId);
	if(hotspot)
		hotspot.setAttribute("opacity",".5");
}
function HideHotSpot(evt,hotspotid)
{
	var svgDocument = evt.target.ownerDocument;
	var strId = "hotspot."+hotspotid;
	var hotspot = svgDocument.getElementById(strId);
	if(hotspot)
		hotspot.setAttribute("opacity","0");

	var toolTip = svgDocument.getElementById('ToolTip');
	if(toolTip)
		toolTip.setAttribute("visibility","hidden");
}
function ShowToolTip(evt,hotspotid,strTooltip)
{
	if(strTooltip=="")
	return;

	// change text
	var svgDocument = evt.target.ownerDocument;
	var tiptext = svgDocument.getElementById('ToolTipText');
	if( !tiptext )
	return;
	tiptext.firstChild.nodeValue = " " + strTooltip + "  " ;

	// show tooltip before, else some refresh issue

	var toolTip = svgDocument.getElementById('ToolTip');
	if(!toolTip)
	return;

	toolTip.setAttribute("visibility","visible");
	toolTip.setAttribute("opacity",".95");

	// move tooltip
	// get viewbox

	var root = svgDocument.documentElement;
	var vbox = (root.getAttribute("viewBox")).split(' ');
	var x0 = parseFloat(vbox[0]);
	var y0 = parseFloat(vbox[1]);
	var vboxW = parseFloat(vbox[2]);
	var vboxH = parseFloat(vbox[3]);

	// get default width of svg

	var strW = root.getAttribute("width");
	var svgW = parseFloat(strW);
	if(strW.indexOf('mm') != -1)
	svgW *= 3.779;

	var strH = root.getAttribute("height");
	var svgH = parseFloat(strH);
	if(strH.indexOf('mm') != -1)
	svgH *= 3.779;  	// 96 dpi  -> 96/25.4 = 3.779

	// update the viewbox / width / height if svg is embedded in html with zoom fit all
	var realx0 = x0;
	var realy0 = y0;
	var realvboxW = vboxW;
	var realvboxH = vboxH;
	var realsvgW = svgW;
	var realsvgH = svgH;

	if ((typeof(top) == "undefined") || (typeof(top.svgctl1) != "undefined")) // embedded in html
	{
		// get window size in pxl

		svgW = window.innerWidth;
		svgH = window.innerHeight;

		// calculate real viewbox

		realsvgW = svgW;
		realsvgH = svgH;
		if((svgW / svgH) > (vboxW / vboxH))
		{
			realvboxW = (vboxH * svgW) / svgH;
			realvboxH = vboxH;
			realx0 = x0 - (realvboxW - vboxW)/2 ;
		}
		else
		{
			realvboxH = (vboxW * svgH) / svgW;
			realvboxW = vboxW;
			realy0 = y0 - (realvboxH - vboxH)/2 ;
		}
	}

	// get user zoom/pan

	var newScale = root.currentScale;
	var translation = root.currentTranslate;

	// transform pxl to user unit

	var xPos = (((evt.clientX+10- translation.x)/newScale) * realvboxW)/realsvgW  + realx0 ;
	var yPos = (((evt.clientY+5- translation.y)/newScale) * realvboxH)/ realsvgH  + realy0 ;
	var scaleForWidth = ( (1 / newScale) * realvboxH) / realsvgH;

	// move tooltip

	toolTip.setAttribute("transform", "translate(" + xPos + "," + yPos + ")" );

	// resize tooltip

	var fontsize = 12;
	tiptext.setAttribute("font-size",fontsize*scaleForWidth);
	tiptext.setAttribute("y", fontsize*scaleForWidth);
	var tipBG = svgDocument.getElementById('ToolTipBG');
	var outline = tiptext.getBBox();
	if(tipBG)
	{
		tipBG.setAttribute("stroke-width", 1*scaleForWidth);
		tipBG.setAttribute("width", Number(outline.width) );
		tipBG.setAttribute("height", Number(outline.height) + fontsize*.5*scaleForWidth );
	}
	var ToolTipShadow = svgDocument.getElementById('ToolTipShadow');
	if(ToolTipShadow)
	{
		ToolTipShadow.setAttribute("width", Number(outline.width) );
		ToolTipShadow.setAttribute("height", Number(outline.height) + fontsize*.5*scaleForWidth );
		ToolTipShadow.setAttribute("x", 3*scaleForWidth);
		ToolTipShadow.setAttribute("y", 3*scaleForWidth);
	}
}
function ShowPaper()
{
  var svgDocument = getDocument();
  var paper = svgDocument.getElementById("paperID");
  if(paper)
  {
    paper.setAttribute("transform","scale(1)");
    paper.setAttribute("opacity","1");
    paper.setAttribute("visibility","visible");
  }
  var svg = svgDocument.getRootElement();
  if(svg)
  {
    svg.setAttribute("width","307.000mm");
    svg.setAttribute("height","220.000mm");
    svg.setAttribute("viewBox","-5.000000 -5.000000 307.000000 220.000000");
  }
}
]]></script><defs/><g><path style="fill:#ffffff" d="M0.54,112.84L0.04,112.78L0.08,0.08L296.92,0.08L296.95,13.52L296.81,13.59L292.94,18.28L204.16,127.22L201.76,133.37L201.09,136.22L200.97,139.53L200.71,143.39L199.01,142.08L198.37,142.08L196.53,144.14L196.41,145.02L196.51,145.41L199.01,147.35L200.14,148.53L200.26,148.36L200.71,148.10L200.60,150.68L197.54,154.25L195.20,156.90L194.71,156.95L193.87,156.95L193.03,156.97L190.02,156.42L184.22,155.31L183.63,155.16L182.90,154.97L182.20,154.51L181.19,154.36L179.79,154.37L179.30,154.42L178.72,154.18L177.06,153.94L174.28,153.38L173.53,153.28L173.24,152.76L171.60,152.19L171.31,151.65L170.88,150.39L167.59,146.22L167.38,146.11L166.20,144.86L164.63,144.44L145.32,140.71L1.36,113.00L1.28,112.88z"/><path style="fill:#6c737e" d="M184.95,73.17L192.94,76.48L193.10,76.92L187.60,83.61L187.83,84.12L186.90,85.13L186.15,84.33L185.66,83.36L183.45,85.84L184.49,86.24L185.05,86.82L179.59,93.58L180.00,94.67L179.98,99.46L178.05,124.55L177.94,131.83L177.44,132.50L174.47,132.46L168.66,131.38L167.04,130.79L166.48,130.25L166.23,129.06L166.18,128.32L166.06,128.23L166.38,127.22L177.23,114.10L177.39,113.36L178.49,99.01L178.62,97.35L178.62,97.06L178.62,94.67L178.50,94.58L178.15,94.24L169.04,93.83L166.01,93.27L164.84,92.95L164.82,91.63L164.64,91.59L163.60,91.63L161.89,93.15L159.96,95.08L159.67,95.37L152.29,102.65L149.84,104.89L137.40,117.27L130.55,123.66L128.69,123.64L121.78,122.27L120.43,121.69L119.85,120.90L119.87,118.49L133.84,101.30L136.68,98.07L137.42,97.44L139.25,97.00L140.86,97.06L141.00,97.61L141.13,99.01L141.29,100.00L141.61,100.24L142.57,100.34L143.80,100.23L144.13,100.01L144.29,99.01L144.56,97.62L148.06,98.24L149.10,98.37L149.20,98.23L152.59,94.96L154.36,93.49L154.69,93.83L154.81,94.21L155.22,94.29L155.43,94.42L157.00,94.40L158.82,92.71L166.74,84.84L168.00,83.37L168.47,83.21L169.50,83.18L169.55,83.01L170.43,81.93L171.19,81.13L170.93,80.87L169.96,80.87L169.07,81.55L167.93,81.28L167.89,81.08L171.16,78.22L174.93,74.55L176.28,73.44L176.74,73.28L177.88,73.29L178.69,73.42L179.69,73.52L179.76,73.36L180.04,73.10L180.28,73.34L180.63,73.71L180.89,73.96L181.63,74.11L181.73,73.96L182.47,73.27L182.61,72.55z"/><path style="fill:#616871" d="M193.79,77.84L193.92,81.08L194.08,81.89L194.20,82.74L194.35,83.55L194.48,84.38L194.63,85.49L194.75,86.32L194.91,87.13L195.03,87.98L195.18,88.79L195.30,89.63L195.46,90.44L195.58,91.29L195.73,92.10L195.85,92.94L196.01,93.75L196.13,94.60L196.29,95.41L196.41,96.25L196.56,97.06L196.68,97.91L196.84,98.72L196.96,99.55L197.11,100.66L197.24,101.48L197.39,102.59L197.51,104.51L197.52,107.57L197.36,108.03L194.78,111.23L180.45,128.88L177.94,131.83L178.05,124.55L179.98,99.46L180.00,94.67L179.59,93.58L185.05,86.82L185.51,87.19L184.58,89.99L183.84,93.94L183.76,98.34L183.91,98.52L184.10,99.94L184.96,101.28L186.71,101.97L187.50,101.80L188.96,100.71L191.05,98.94L192.38,96.14L193.10,93.77L193.25,92.65L193.22,89.17L192.67,87.51L190.49,84.17L190.28,84.05L189.47,83.89L187.83,84.12L187.60,83.61L193.10,76.92z"/><path style="fill:#ffffff" d="M275.44,62.02L275.49,61.56L294.50,38.26L295.05,38.29L296.54,38.16L296.79,37.78L296.94,37.79L296.92,210.05L0.08,210.05L0.05,128.24L0.27,128.23L0.37,128.42L1.11,128.45L160.79,159.18L163.83,159.69L164.11,160.23L164.17,160.95L165.08,161.43L166.29,161.65L167.11,161.87L167.59,162.50L169.04,163.04L172.63,163.20L173.48,163.18L176.85,164.05L176.94,164.43L177.76,165.02L178.96,165.25L181.72,165.40L182.85,165.39L187.24,166.35L188.92,166.36L189.95,165.96L191.75,163.90L201.63,152.23L201.85,152.29L203.26,152.30L204.28,151.61L207.01,148.29L207.17,147.55L207.30,146.82L207.18,146.69L206.84,145.82L221.21,128.24L221.43,128.29L222.57,128.30L223.59,127.90L226.59,124.30L226.75,123.56L226.88,122.83L226.75,122.70L226.41,121.83L245.70,98.13L245.95,98.22L247.11,98.24L248.15,97.86L251.14,93.96L251.13,92.17L250.92,91.82L269.77,68.47L270.25,68.12L271.82,68.30L271.93,68.19L272.65,67.76L275.69,63.90L275.70,62.41z"/><path style="fill:#000020" d="M191.12,102.51L190.88,102.55L191.03,101.75z"/><path style="fill:#00e3e5" d="M174.17,64.92L174.50,67.02L174.48,71.90L174.10,72.34L172.51,72.34L172.36,72.05L173.09,71.89L173.34,69.06L173.01,68.75L173.24,64.61L173.72,64.50z"/><path style="fill:#00e3e5" d="M181.76,66.13L182.94,64.92L183.17,63.98L183.46,64.50L183.44,65.36L182.75,66.09L182.61,72.55L182.47,73.27L181.73,73.96L180.89,73.96L180.63,73.71L181.37,73.53L181.19,66.46L181.90,66.27z"/><path style="fill:#7e7e7e" d="M167.12,81.15L167.93,81.28L169.07,81.55L170.43,81.93L169.55,83.01L168.47,83.21L168.00,83.37L166.74,84.84L158.82,92.71L155.44,91.93L153.92,91.84L153.82,89.90L153.82,89.07L153.93,87.70L154.33,85.39L155.63,81.72L157.25,79.77L157.47,79.65L158.59,79.48z"/><path style="fill:#7e7e7e" d="M164.84,92.95L166.01,93.27L169.04,93.83L178.15,94.24L178.50,94.58L178.35,96.26L171.15,94.96L161.89,93.15L163.60,91.63L164.64,91.59z"/><path style="fill:#c6c1bc" d="M144.18,93.55L144.17,94.29L142.67,94.96L142.57,100.34L141.61,100.24L141.29,100.00L141.13,99.01L141.10,97.71L141.00,97.61L140.86,97.06L140.86,96.79L141.09,93.38L142.00,93.14L143.42,93.14z"/><path style="fill:#c6c1bc" d="M182.78,112.53L183.06,112.79L183.05,113.60L182.86,113.69L181.44,113.88L181.98,112.18z"/><path style="fill:#c6c1bc" d="M127.75,113.88L127.64,114.43L126.12,115.09L126.21,119.50L126.31,120.47L125.07,120.36L124.74,120.14L124.59,118.59L124.59,113.89L125.74,113.27L126.59,113.27z"/><path style="fill:#c6c1bc" d="M181.50,118.84L181.12,119.45L180.82,118.88L180.83,115.80L181.44,113.88z"/><path style="fill:#c6c1bc" d="M108.99,121.33L108.89,121.88L107.17,122.62L106.99,126.80L105.78,126.69L105.25,126.39L105.25,120.97L105.97,120.59L108.30,120.59z"/><path style="fill:#c6c1bc" d="M174.90,122.98L174.80,123.54L173.27,124.19L173.46,129.57L172.26,129.43L171.98,129.15L171.74,127.41L171.74,122.99L172.63,122.39L174.01,122.39z"/><path style="fill:#c6c1bc" d="M182.77,135.18L182.85,135.94L182.19,136.41L180.70,136.89L180.90,141.16L179.15,140.74L178.91,138.72L178.89,135.65L179.40,135.01L180.06,134.78L181.75,134.78L182.50,134.92z"/><path style="fill:#c6c1bc" d="M200.71,143.39L200.82,145.06L200.71,148.10L200.26,148.36L199.87,147.58L196.78,145.15L196.41,145.02L196.53,144.14L198.37,142.08L199.01,142.08z"/><path style="fill:#1a1a1a" d="M296.93,35.02L296.65,28.77L295.99,29.33L283.86,44.22L282.17,46.16L281.67,46.25L281.26,45.29L291.13,33.30L291.28,32.83L291.53,32.54L292.68,31.26L293.88,29.72L293.95,29.54L294.70,28.86L295.72,26.85L296.21,25.63L296.39,24.83L296.52,24.00L296.67,21.77L296.65,16.08L296.54,16.06L205.81,127.22L203.07,134.40L202.60,136.69L202.18,151.39L201.63,152.23L191.75,163.90L189.95,165.96L188.92,166.36L187.24,166.35L182.85,165.39L181.73,165.25L179.53,164.57L176.85,164.05L173.48,163.18L172.63,163.05L167.67,161.93L167.11,161.87L167.00,161.69L166.29,161.65L165.08,161.43L164.17,160.95L164.11,160.23L164.41,159.92L165.19,160.00L174.11,161.73L174.73,161.50L174.74,160.01L174.40,159.99L173.28,160.61L172.25,160.62L171.73,160.28L171.45,159.79L170.33,159.77L1.28,127.22L0.37,127.20L0.27,128.23L0.05,128.24L0.04,112.78L0.54,112.84L1.36,113.00L145.32,140.71L164.63,144.44L166.20,144.86L167.38,146.11L167.02,146.35L166.99,147.08L169.53,150.36L170.62,152.30L170.87,158.11L171.14,159.03L171.57,158.27L172.81,158.21L172.98,157.49L173.39,153.87L173.53,153.28L174.28,153.38L177.06,153.94L178.72,154.18L179.02,154.70L178.91,155.25L178.47,159.14L178.50,159.85L178.84,160.07L180.85,160.24L182.19,160.40L182.62,158.86L182.90,156.09L183.23,155.37L183.63,155.16L184.22,155.31L190.02,156.42L193.03,156.97L193.56,157.24L192.71,158.24L191.19,158.93L189.63,160.95L188.46,161.99L186.50,162.23L186.23,163.64L188.19,163.65L188.78,163.41L191.25,160.38L191.61,160.24L192.11,160.42L192.21,160.00L193.02,159.33L193.79,158.74L193.83,158.31L194.42,157.67L195.16,157.09L195.20,156.90L197.54,154.25L200.60,150.68L200.71,148.10L200.82,145.06L200.97,139.53L201.09,136.22L201.76,133.37L204.16,127.22L292.94,18.28L296.81,13.59L296.95,13.52z"/><path style="fill:#171717" d="M296.67,21.77L296.53,21.75L296.36,21.32L295.97,21.54L282.32,38.27L281.22,41.09L280.94,43.01L280.94,44.14L281.26,45.29L281.67,46.25L282.17,46.16L283.86,44.22L295.99,29.33L296.65,28.77L296.93,35.02L296.93,35.32L296.51,35.84L294.79,37.83L294.50,38.26L275.49,61.56L275.30,61.58L274.99,62.04L274.74,62.42L270.25,68.12L269.77,68.47L250.92,91.82L250.74,91.91L245.70,98.13L226.41,121.83L221.21,128.24L206.84,145.82L203.06,150.39L202.18,151.39L202.60,136.69L203.07,134.40L205.81,127.22L296.54,16.06L296.65,16.08z"/><path style="fill:#171717" d="M170.88,150.39L171.31,151.65L171.46,153.61L171.59,156.37L171.57,158.27L171.14,159.03L170.87,158.11L170.62,152.30L169.53,150.36L166.99,147.08L167.02,146.35L167.38,146.11L167.59,146.22z"/><path style="fill:#171717" d="M194.42,157.67L193.83,158.31L193.52,158.47L193.02,159.33L192.21,160.00L191.61,160.24L191.25,160.38L188.78,163.41L188.19,163.65L186.23,163.64L186.50,162.23L188.46,161.99L189.63,160.95L191.19,158.93L192.71,158.24L193.56,157.24L193.87,157.12L194.42,157.25z"/><path style="fill:#717171" d="M192.67,87.51L193.22,89.17L193.25,92.65L193.10,93.77L192.38,96.14L191.05,98.94L188.96,100.71L187.50,101.80L186.71,101.97L184.96,101.28L184.10,99.94L183.91,98.52L184.94,98.66L185.22,93.67L185.40,92.46L186.33,92.46L187.13,92.77L188.53,92.83L189.64,89.53L190.50,87.87L190.23,87.20L188.81,85.57L188.81,84.58L189.51,84.10L190.28,84.05L190.49,84.17z"/><path style="fill:#717171" d="M171.15,94.96L178.35,96.26L178.62,97.06L178.62,97.35L178.37,98.74L175.40,98.23L160.51,95.35L159.96,95.08L161.89,93.15z"/><path style="fill:#b2adaa" d="M144.29,95.41L144.29,99.01L144.13,100.01L143.80,100.23L142.57,100.34L142.67,94.96L144.17,94.29z"/><path style="fill:#b2adaa" d="M190.59,103.68L190.89,103.41L191.33,103.40L191.46,103.95L191.42,106.71L190.90,107.53L190.71,107.12z"/><path style="fill:#b2adaa" d="M136.16,108.38L136.13,109.94L134.66,110.44L134.24,110.33L134.39,104.88L135.49,104.59L135.92,104.22z"/><path style="fill:#b2adaa" d="M127.89,116.11L127.89,119.89L127.24,120.35L126.31,120.47L126.21,119.50L126.12,115.09L127.64,114.43z"/><path style="fill:#b2adaa" d="M182.90,114.99L182.60,116.35L182.18,117.37L181.50,118.84L181.44,113.88L182.86,113.69z"/><path style="fill:#b2adaa" d="M109.14,123.55L109.14,126.23L108.49,126.69L106.99,126.80L107.17,122.62L108.89,121.88z"/><path style="fill:#b2adaa" d="M175.05,125.21L175.05,128.99L174.40,129.45L173.46,129.57L173.27,124.19L174.80,123.54z"/><path style="fill:#b2adaa" d="M226.75,122.70L226.75,123.56L226.59,124.30L223.59,127.90L222.57,128.30L221.43,128.29L221.21,128.24L226.41,121.83z"/><path style="fill:#b2adaa" d="M180.70,136.89L182.19,136.41L182.85,135.94L182.90,139.55L182.66,140.74L180.90,141.16z"/><path style="fill:#b2adaa" d="M207.18,146.69L207.17,147.55L207.01,148.29L204.28,151.61L203.26,152.30L201.85,152.29L201.63,152.23L202.18,151.39L203.06,150.39L206.84,145.82z"/><path style="fill:#b2adaa" d="M173.53,153.28L173.39,153.87L172.98,157.49L172.81,158.21L171.57,158.27L171.59,156.37L171.95,153.75L173.15,152.94L173.24,152.76z"/><path style="fill:#b2adaa" d="M182.90,156.09L182.62,158.86L182.19,160.40L180.85,160.24L181.10,159.87L181.55,155.63L182.77,155.24z"/><path style="fill:#b2adaa" d="M172.63,163.05L172.63,163.20L169.04,163.04L167.59,162.50L167.11,161.87L167.67,161.93z"/><path style="fill:#b2adaa" d="M179.53,164.57L181.73,165.25L181.72,165.40L178.96,165.25L177.76,165.02L176.94,164.43L176.85,164.05z"/><path style="fill:#ffffff" d="M291.94,27.91L291.58,27.91L289.46,30.26L289.34,30.86L289.45,31.24L291.28,32.83L291.13,33.30L281.26,45.29L280.94,44.14L280.94,43.01L281.22,41.09L282.32,38.27L295.97,21.54L296.36,21.32L296.53,21.75L296.52,24.00L296.39,24.83L296.21,25.63L295.72,26.85L294.70,28.86L293.95,29.54z"/><path style="fill:#ffffff" d="M272.11,52.39L271.98,54.62L271.81,55.35L270.62,58.28L269.44,59.62L267.40,57.97L266.87,58.08L264.94,60.39L264.79,61.12L264.95,61.21L266.72,62.65L266.84,62.95L256.79,75.29L256.62,74.84L256.67,71.41L257.48,69.13L259.01,66.80L270.62,52.49L271.73,51.34L271.90,51.34z"/><path style="fill:#ffffff" d="M247.59,81.59L247.71,81.90L247.58,84.11L247.42,84.94L246.72,87.32L245.10,89.62L243.14,88.03L242.32,88.15L240.32,90.64L240.47,91.04L242.46,92.93L232.41,105.37L232.14,105.07L232.10,104.06L231.99,103.98L232.12,102.01L233.19,98.62L247.13,81.36z"/><path style="fill:#ffffff" d="M192.83,99.81L192.81,100.65L192.82,101.49L192.71,102.86L192.55,103.69L191.85,105.88L191.46,103.95L191.33,103.40L191.30,102.68L191.12,102.51L191.03,101.75L192.11,99.42L192.43,99.06z"/><path style="fill:#ffffff" d="M218.59,118.09L217.95,118.09L216.11,120.15L215.98,121.04L216.09,121.42L217.90,122.79L216.97,124.31L207.86,135.42L207.58,134.60L207.58,132.64L207.87,130.99L209.24,127.88L222.61,111.40L223.02,111.38L223.19,111.94L223.16,112.23L223.15,113.35L223.04,114.72L222.86,115.52L221.90,117.94L220.61,119.73z"/><path style="fill:#00fdff" d="M174.75,62.12L175.17,62.61L174.75,63.62L173.72,64.50L173.24,64.61L173.01,68.75L173.34,69.06L173.09,71.89L172.36,72.05L172.16,71.89L172.02,68.12L172.24,64.57L171.82,64.58L170.88,64.07L170.89,62.79L172.16,61.85L174.21,61.85z"/><path style="fill:#00fdff" d="M183.17,63.98L182.94,64.92L181.76,66.13L181.19,66.25L179.81,66.23L178.83,65.46L178.84,64.71L179.88,63.51L180.90,63.36L181.74,63.36L182.48,63.51z"/><path style="fill:#00fdff" d="M180.13,69.77L180.01,67.85L180.16,66.54L181.19,66.46L181.37,73.53L180.63,73.71L180.28,73.34L180.24,71.24L180.13,71.15L180.13,70.59L180.27,69.89z"/><path style="fill:#000020" d="M296.52,24.00L296.53,21.75L296.67,21.77z"/><path style="fill:#000020" d="M295.05,38.29L294.50,38.26L294.79,37.83z"/><path style="fill:#000020" d="M272.27,51.81L272.11,52.39L271.90,51.34z"/><path style="fill:#000020" d="M265.03,60.97L264.95,61.21L264.79,61.12L264.94,60.39z"/><path style="fill:#000020" d="M275.44,62.02L274.99,62.04L275.30,61.58L275.49,61.56z"/><path style="fill:#000020" d="M173.72,64.50L174.55,64.57L174.50,67.02L174.17,64.92z"/><path style="fill:#000020" d="M183.44,65.36L183.46,64.50L183.59,64.63z"/><path style="fill:#000020" d="M181.19,66.46L180.16,66.54L180.01,67.85L179.81,66.23L181.19,66.25z"/><path style="fill:#000020" d="M172.02,68.12L171.82,64.58L172.24,64.57z"/><path style="fill:#000020" d="M271.82,68.30L270.25,68.12L271.93,68.19z"/><path style="fill:#000020" d="M180.13,70.59L180.13,69.77L180.27,69.89z"/><path style="fill:#000020" d="M180.28,73.34L180.04,73.10L180.13,71.15L180.24,71.24z"/><path style="fill:#000020" d="M179.69,73.52L178.69,73.42L179.76,73.36z"/><path style="fill:#000020" d="M181.63,74.11L180.89,73.96L181.73,73.96z"/><path style="fill:#000020" d="M247.13,81.36L247.43,80.85L247.59,81.59z"/><path style="fill:#000020" d="M167.93,81.28L167.12,81.15L167.89,81.08z"/><path style="fill:#000020" d="M194.08,81.89L193.92,81.08L194.05,81.18z"/><path style="fill:#000020" d="M169.50,83.18L168.47,83.21L169.55,83.01z"/><path style="fill:#000020" d="M194.35,83.55L194.20,82.74L194.32,82.83z"/><path style="fill:#000020" d="M194.63,85.49L194.48,84.38L194.60,84.47z"/><path style="fill:#000020" d="M194.91,87.13L194.75,86.32L194.88,86.41z"/><path style="fill:#000020" d="M195.18,88.79L195.03,87.98L195.15,88.07z"/><path style="fill:#000020" d="M195.46,90.44L195.30,89.63L195.43,89.72z"/><path style="fill:#000020" d="M195.73,92.10L195.58,91.29L195.70,91.38z"/><path style="fill:#000020" d="M164.84,92.95L164.64,91.59L164.82,91.63z"/><path style="fill:#000020" d="M196.01,93.75L195.85,92.94L195.98,93.03z"/><path style="fill:#000020" d="M155.22,94.29L154.81,94.21L154.69,93.83L154.89,93.86z"/><path style="fill:#000020" d="M196.29,95.41L196.13,94.60L196.25,94.69z"/><path style="fill:#000020" d="M160.51,95.35L159.67,95.37L159.96,95.08z"/><path style="fill:#000020" d="M196.56,97.06L196.41,96.25L196.53,96.34z"/><path style="fill:#000020" d="M178.62,97.06L178.35,96.26L178.50,94.58L178.62,94.67z"/><path style="fill:#000020" d="M140.86,97.06L139.25,97.00L140.86,96.79z"/><path style="fill:#000020" d="M149.10,98.37L148.06,98.24L149.20,98.23z"/><path style="fill:#000020" d="M196.84,98.72L196.68,97.91L196.81,98.00z"/><path style="fill:#000020" d="M144.56,97.62L144.29,99.01L144.29,95.41L144.40,95.51z"/><path style="fill:#000020" d="M141.13,99.01L141.00,97.61L141.10,97.71z"/><path style="fill:#000020" d="M197.11,100.66L196.96,99.55L197.08,99.64z"/><path style="fill:#000020" d="M192.82,101.49L192.81,100.65L192.95,100.77z"/><path style="fill:#000020" d="M197.39,102.59L197.24,101.48L197.36,101.57z"/><path style="fill:#000020" d="M190.89,103.41L190.59,103.68L190.75,102.87z"/><path style="fill:#000020" d="M232.14,105.07L231.99,103.98L232.10,104.06z"/><path style="fill:#000020" d="M191.85,105.88L191.42,106.71L191.46,103.95z"/><path style="fill:#000020" d="M197.52,107.57L197.51,104.51L197.62,104.61z"/><path style="fill:#000020" d="M136.16,108.38L135.92,104.22L136.01,103.95L136.15,104.04z"/><path style="fill:#000020" d="M132.85,109.22L132.71,105.33L132.82,105.44z"/><path style="fill:#000020" d="M223.02,111.38L222.61,111.40L222.90,110.91z"/><path style="fill:#000020" d="M31.36,111.43L31.22,109.47L31.33,109.57z"/><path style="fill:#000020" d="M183.18,111.94L183.06,112.79L182.78,112.53L182.90,111.36z"/><path style="fill:#000020" d="M1.36,113.00L0.54,112.84L1.28,112.88z"/><path style="fill:#000020" d="M223.15,113.35L223.16,112.23L223.26,112.34z"/><path style="fill:#000020" d="M127.89,116.11L127.64,114.43L127.75,113.88L127.88,113.96z"/><path style="fill:#000020" d="M226.75,123.56L226.75,122.70L226.88,122.83z"/><path style="fill:#000020" d="M109.14,123.55L108.89,121.88L108.99,121.33L109.12,121.41z"/><path style="fill:#000020" d="M175.05,125.21L174.80,123.54L174.90,122.98L175.03,123.06z"/><path style="fill:#000020" d="M1.11,128.45L0.37,128.42L0.27,128.23z"/><path style="fill:#000020" d="M166.23,129.06L166.06,128.23L166.18,128.32z"/><path style="fill:#000020" d="M182.90,139.55L182.85,135.94L183.00,136.04z"/><path style="fill:#000020" d="M200.82,145.06L200.71,143.39L200.97,139.53z"/><path style="fill:#000020" d="M207.17,147.55L207.18,146.69L207.30,146.82z"/><path style="fill:#000020" d="M171.60,152.19L171.46,153.61L171.31,151.65z"/><path style="fill:#000020" d="M178.72,154.18L179.30,154.42L179.02,154.70z"/><path style="fill:#000020" d="M183.63,155.16L183.23,155.37L182.90,156.09L182.77,155.24L182.90,154.97z"/><path style="fill:#000020" d="M193.87,157.12L193.56,157.24L193.03,156.97L193.87,156.95z"/><path style="fill:#000020" d="M195.16,157.09L194.42,157.67L194.42,157.25L194.71,156.95L195.20,156.90z"/><path style="fill:#000020" d="M193.79,158.74L193.02,159.33L193.52,158.47L193.83,158.31z"/><path style="fill:#000020" d="M163.83,159.69L164.41,159.92L164.11,160.23z"/><path style="fill:#000020" d="M192.11,160.42L191.61,160.24L192.21,160.00z"/><path style="fill:#000020" d="M167.11,161.87L166.29,161.65L167.00,161.69z"/><path style="fill:#000020" d="M173.48,163.18L172.63,163.20L172.63,163.05z"/><path style="fill:#000020" d="M182.85,165.39L181.72,165.40L181.73,165.25z"/><path style="fill:#00e3e5" d="M175.60,63.23L175.52,63.81L174.55,64.57L173.72,64.50L174.75,63.62L175.17,62.61z"/><path style="fill:#7e7e7e" d="M186.90,85.13L187.83,84.12L189.47,83.89L189.51,84.10L188.81,84.58L188.81,85.57L190.23,87.20L190.50,87.87L189.64,89.53L188.53,92.83L187.13,92.77L186.33,92.46L185.40,92.46L185.22,93.67L184.94,98.66L183.91,98.52L183.76,98.34L183.84,93.94L184.58,89.99L185.51,87.19L185.05,86.82L184.49,86.24L184.96,85.41L186.15,84.33z"/><path style="fill:#7e7e7e" d="M191.57,91.93L191.60,94.49L190.91,95.79L190.11,95.89L189.87,95.54L189.94,92.93L190.63,91.61z"/><path style="fill:#c6c1bc" d="M293.95,29.54L293.88,29.72L292.68,31.26L291.53,32.54L290.84,31.58L290.32,31.53L289.34,30.86L289.46,30.26L291.58,27.91L291.94,27.91z"/><path style="fill:#c6c1bc" d="M296.51,35.84L296.93,35.32L296.94,37.79L296.79,37.78z"/><path style="fill:#c6c1bc" d="M269.44,59.62L269.35,60.04L267.84,61.84L266.91,62.55L266.27,61.61L265.03,60.97L264.94,60.39L266.87,58.08L267.40,57.97z"/><path style="fill:#c6c1bc" d="M245.10,89.62L242.69,92.45L240.91,91.08L240.47,91.04L240.32,90.64L242.32,88.15L243.14,88.03z"/><path style="fill:#c6c1bc" d="M191.33,103.40L190.89,103.41L190.75,102.87L190.88,102.55L191.12,102.51L191.30,102.68z"/><path style="fill:#c6c1bc" d="M135.59,103.49L136.01,103.95L135.92,104.22L135.49,104.59L134.39,104.88L134.24,110.33L133.09,110.13L132.85,109.22L132.82,105.44L132.71,105.33L132.83,103.87L133.83,103.21z"/><path style="fill:#c6c1bc" d="M35.10,107.00L34.70,107.78L33.19,108.47L33.09,112.75L31.62,112.33L31.36,111.43L31.33,109.57L31.22,109.47L31.35,106.90L32.24,106.37L34.22,106.37L34.69,106.51z"/><path style="fill:#c6c1bc" d="M220.61,119.73L218.12,122.67L216.94,121.42L215.98,121.04L216.11,120.15L217.95,118.09L218.59,118.09z"/><path style="fill:#c6c1bc" d="M173.24,152.76L173.15,152.94L171.95,153.75L171.59,156.37L171.46,153.61L171.60,152.19z"/><path style="fill:#c6c1bc" d="M182.90,154.97L182.77,155.24L181.55,155.63L181.10,159.87L180.85,160.24L178.84,160.07L178.50,159.85L178.47,159.14L178.91,155.25L179.02,154.70L179.30,154.42L179.79,154.37L181.19,154.36L182.20,154.51z"/><path style="fill:#616871" d="M171.19,81.13L170.43,81.93L169.07,81.55L169.96,80.87L170.93,80.87z"/><path style="fill:#616871" d="M172.43,82.02L173.00,81.68L173.64,81.69L173.67,82.90L172.51,82.53z"/><path style="fill:#616871" d="M186.15,84.33L184.96,85.41L184.49,86.24L183.45,85.84L185.66,83.36z"/><path style="fill:#616871" d="M180.57,84.13L180.50,83.48L181.65,83.36L181.64,84.31z"/><path style="fill:#1a1a1a" d="M273.46,52.22L273.46,54.78L273.20,56.17L272.09,58.64L259.59,74.00L257.92,75.93L256.90,75.95L256.79,75.29L266.84,62.95L266.72,62.65L266.91,62.55L267.84,61.84L269.35,60.04L269.44,59.62L270.62,58.28L271.81,55.35L271.98,54.62L272.11,52.39L272.27,51.81z"/><path style="fill:#1a1a1a" d="M248.92,82.27L248.92,85.39L248.37,87.32L246.89,89.70L240.96,97.01L233.41,106.03L232.66,106.01L232.41,105.37L242.46,92.93L242.69,92.45L245.10,89.62L246.72,87.32L247.42,84.94L247.58,84.11L247.71,81.90z"/><path style="fill:#1a1a1a" d="M224.65,112.33L224.65,114.07L224.11,116.84L222.76,119.35L209.12,136.05L208.11,136.07L207.86,135.42L216.97,124.31L217.90,122.79L218.12,122.67L220.61,119.73L221.90,117.94L222.86,115.52L223.04,114.72L223.15,113.35L223.26,112.34L223.16,112.23L223.19,111.94L224.12,112.03z"/><path style="fill:#6c737e" d="M194.35,100.44L194.32,101.94L193.77,104.97L192.67,107.46L191.75,108.23L191.29,108.21L190.90,107.53L191.42,106.71L191.85,105.88L192.55,103.69L192.71,102.86L192.82,101.49L192.95,100.77L192.81,100.65L192.83,99.81z"/><path style="fill:#6c737e" d="M184.43,112.30L184.39,115.17L183.48,118.40L182.36,120.05L181.36,120.07L181.12,119.45L181.50,118.84L182.18,117.37L182.60,116.35L182.90,114.99L183.05,113.60L183.06,112.79L183.18,111.94L184.15,112.02z"/><path style="fill:#6c737e" d="M181.98,112.18L182.75,110.93L182.90,111.36L182.78,112.53z"/><path style="fill:#171717" d="M170.33,159.77L171.45,159.79L171.73,160.28L172.25,160.62L173.28,160.61L174.40,159.99L174.74,160.01L174.73,161.50L174.11,161.73L165.19,160.00L164.41,159.92L163.83,159.69L160.79,159.18L1.11,128.45L0.27,128.23L0.37,127.20L1.28,127.22z"/><path style="fill:#717171" d="M158.82,92.71L157.00,94.40L155.43,94.42L155.22,94.29L154.89,93.86L154.69,93.83L154.36,93.49L153.92,91.84L155.44,91.93z"/><path style="fill:#00001c" d="M181.19,66.46L181.19,66.25L181.76,66.13L181.90,66.27z"/><path style="fill:#00001c" d="M190.28,84.05L189.51,84.10L189.47,83.89z"/><path style="fill:#00001c" d="M178.49,99.01L178.37,98.74L178.62,97.35z"/><path style="fill:#00001c" d="M182.90,114.99L182.86,113.69L183.05,113.60z"/><path style="fill:#00001c" d="M194.42,157.25L193.87,157.12L193.87,156.95L194.71,156.95z"/><path style="fill:#b2adaa" d="M290.32,31.53L290.84,31.58L291.53,32.54L291.28,32.83L289.45,31.24L289.34,30.86z"/><path style="fill:#b2adaa" d="M294.79,37.83L296.51,35.84L296.79,37.78L296.54,38.16L295.05,38.29z"/><path style="fill:#b2adaa" d="M266.27,61.61L266.91,62.55L266.72,62.65L264.95,61.21L265.03,60.97z"/><path style="fill:#b2adaa" d="M275.70,62.41L275.69,63.90L272.65,67.76L271.93,68.19L270.25,68.12L274.74,62.42L274.99,62.04L275.44,62.02z"/><path style="fill:#b2adaa" d="M242.69,92.45L242.46,92.93L240.47,91.04L240.91,91.08z"/><path style="fill:#b2adaa" d="M251.13,92.17L251.14,93.96L248.15,97.86L247.11,98.24L245.95,98.22L245.70,98.13L250.74,91.91L250.92,91.82z"/><path style="fill:#b2adaa" d="M35.21,112.14L34.87,112.36L33.09,112.75L33.19,108.47L34.70,107.78L35.10,107.00L35.22,107.09z"/><path style="fill:#b2adaa" d="M216.94,121.42L218.12,122.67L217.90,122.79L216.09,121.42L215.98,121.04z"/><path style="fill:#b2adaa" d="M199.87,147.58L200.26,148.36L200.14,148.53L199.01,147.35L196.51,145.41L196.41,145.02L196.78,145.15z"/><g id="Actor_.0"><g style="stroke:#000000;stroke-width:0.176"><path d="M135.87,105.01 C135.73,105.13 135.73,105.13 135.59,105.24 C135.38,105.33 135.38,105.33 135.17,105.41 C134.92,105.47 134.91,105.47 134.66,105.51 C134.40,105.52 134.40,105.52 134.13,105.52 C133.88,105.49 133.87,105.49 133.62,105.45 C133.41,105.37 133.41,105.37 133.20,105.29 C133.05,105.19 133.05,105.19 132.91,105.07 "/><path d="M132.91,105.07 C133.05,105.18 133.05,105.19 133.20,105.29 C133.41,105.37 133.41,105.37 133.63,105.45 C133.88,105.49 133.88,105.49 134.13,105.52 C134.40,105.52 134.40,105.52 134.66,105.51 C134.91,105.46 134.91,105.46 135.16,105.41 C135.37,105.33 135.38,105.33 135.58,105.24 C135.73,105.13 135.73,105.12 135.87,105.00 "/><path d="M135.85,104.13 C135.71,104.25 135.71,104.25 135.56,104.36 C135.35,104.45 135.35,104.45 135.14,104.54 C134.89,104.59 134.89,104.59 134.64,104.64 C134.37,104.65 134.37,104.65 134.11,104.65 C133.85,104.61 133.85,104.61 133.60,104.57 C133.43,104.51 133.43,104.51 133.26,104.44 C133.22,104.43 133.22,104.43 133.18,104.42 C133.03,104.31 133.03,104.31 132.89,104.20 "/><path d="M135.14,103.55 C135.06,103.62 135.06,103.62 134.99,103.68 C134.88,103.73 134.88,103.73 134.76,103.77 C134.63,103.80 134.63,103.80 134.50,103.82 C134.36,103.83 134.36,103.83 134.22,103.83 C134.08,103.81 134.08,103.81 133.95,103.79 C133.84,103.75 133.84,103.75 133.73,103.71 C133.65,103.65 133.65,103.65 133.57,103.59 "/><path d="M136.00,104.74 L135.87,105.01 "/><path d="M132.91,105.07 L132.77,104.81 "/><path d="M132.78,104.78 L132.78,104.81 L132.91,105.07 "/><path d="M135.87,105.00 L136.00,104.74 L136.00,104.71 "/><path d="M135.97,103.87 L135.85,104.13 "/><path d="M132.89,104.20 L132.75,103.94 "/><path d="M134.87,103.04 L135.07,103.15 L135.18,103.27 L135.21,103.42 L135.14,103.55 "/><path d="M133.57,103.59 L133.50,103.45 L133.52,103.31 L133.63,103.18 L133.82,103.07 "/></g><g style="stroke:#000000;stroke-width:0.529"><path d="M135.71,103.36 C135.53,103.26 135.53,103.26 135.35,103.17 C134.99,103.07 134.99,103.07 134.62,102.98 C134.49,102.97 134.49,102.97 134.35,102.97 C134.21,102.98 134.21,102.98 134.07,103.00 C133.72,103.10 133.71,103.10 133.36,103.21 C133.18,103.31 133.18,103.31 133.01,103.42 "/><path d="M136.13,109.62 L135.97,103.87 L135.93,103.60 L135.71,103.36 "/><path d="M133.01,103.42 L132.79,103.67 L132.75,103.94 L132.90,109.70 "/></g></g><g id="Actor_.1"><g style="stroke:#000000;stroke-width:0.176"><path d="M172.35,71.65 C172.47,71.72 172.47,71.72 172.60,71.79 C172.77,71.83 172.77,71.83 172.93,71.88 C173.12,71.89 173.12,71.89 173.31,71.90 C173.50,71.89 173.50,71.89 173.68,71.87 C173.85,71.82 173.86,71.83 174.02,71.77 C174.16,71.71 174.16,71.71 174.29,71.63 "/><path d="M174.32,69.24 C174.22,69.32 174.22,69.32 174.11,69.40 C173.96,69.46 173.96,69.46 173.80,69.52 C173.62,69.56 173.62,69.56 173.44,69.59 C173.25,69.59 173.25,69.59 173.06,69.59 C172.88,69.56 172.88,69.56 172.70,69.53 C172.62,69.50 172.62,69.50 172.54,69.48 C172.47,69.45 172.47,69.45 172.40,69.41 C172.30,69.33 172.30,69.33 172.20,69.25 "/><path d="M172.28,68.24 C172.38,68.30 172.38,68.30 172.48,68.35 C172.65,68.40 172.65,68.40 172.83,68.45 C173.02,68.47 173.02,68.47 173.22,68.48 C173.41,68.46 173.41,68.46 173.61,68.44 C173.79,68.40 173.79,68.40 173.96,68.34 C174.10,68.27 174.10,68.27 174.24,68.19 "/><path d="M174.36,64.32 C174.10,64.40 174.10,64.40 173.83,64.47 C173.45,64.51 173.45,64.51 173.07,64.54 C172.70,64.52 172.70,64.52 172.33,64.48 C172.14,64.44 172.14,64.44 171.95,64.38 "/><path d="M172.34,62.88 C172.51,62.93 172.51,62.93 172.68,62.97 C172.88,62.99 172.88,62.99 173.07,63.00 C173.27,62.99 173.27,62.99 173.47,62.97 C173.65,62.92 173.65,62.92 173.82,62.87 C173.96,62.80 173.96,62.80 174.10,62.72 "/><path d="M174.22,62.14 C174.12,62.05 174.12,62.05 174.01,61.97 C173.86,61.91 173.85,61.91 173.70,61.85 C173.51,61.81 173.51,61.81 173.33,61.79 C173.13,61.79 173.13,61.79 172.93,61.79 C172.74,61.82 172.74,61.82 172.55,61.86 C172.39,61.92 172.39,61.92 172.23,61.99 C172.11,62.07 172.11,62.07 172.00,62.16 "/><path d="M173.70,62.52 C173.64,62.57 173.64,62.57 173.57,62.61 C173.49,62.65 173.49,62.65 173.40,62.68 C173.30,62.70 173.30,62.70 173.19,62.72 C173.09,62.72 173.09,62.72 172.98,62.72 C172.83,62.69 172.83,62.69 172.68,62.66 C172.64,62.64 172.64,62.64 172.61,62.62 C172.55,62.58 172.55,62.58 172.49,62.53 "/><path d="M172.47,62.60 C172.55,62.65 172.55,62.65 172.64,62.69 C172.74,62.72 172.74,62.72 172.85,62.75 C172.96,62.76 172.96,62.76 173.08,62.77 C173.14,62.76 173.14,62.76 173.20,62.76 C173.26,62.75 173.26,62.75 173.32,62.74 C173.43,62.71 173.43,62.72 173.54,62.68 C173.62,62.64 173.62,62.64 173.70,62.60 "/><path d="M173.78,62.24 C173.72,62.18 173.72,62.18 173.65,62.14 C173.56,62.10 173.56,62.10 173.47,62.06 C173.35,62.04 173.35,62.04 173.24,62.02 C173.12,62.02 173.12,62.02 173.00,62.03 C172.88,62.04 172.88,62.04 172.76,62.07 C172.67,62.10 172.67,62.10 172.57,62.14 C172.50,62.19 172.50,62.19 172.43,62.25 "/><path d="M172.55,62.22 C172.63,62.18 172.63,62.18 172.71,62.13 C172.80,62.10 172.80,62.10 172.90,62.08 C173.01,62.07 173.01,62.07 173.12,62.06 C173.22,62.07 173.22,62.07 173.33,62.08 C173.42,62.10 173.42,62.10 173.52,62.13 C173.59,62.16 173.59,62.16 173.65,62.20 "/><path d="M172.20,71.47 L172.35,71.65 "/><path d="M174.29,71.63 L174.45,71.45 "/><path d="M174.42,69.05 L174.32,69.24 "/><path d="M172.20,69.25 L172.12,69.07 "/><path d="M174.10,62.72 L174.27,62.53 L174.31,62.33 L174.22,62.14 "/><path d="M172.00,62.16 L171.90,62.35 L171.92,62.55 L172.07,62.74 L172.34,62.88 "/><path d="M173.80,62.49 L173.74,62.31 L173.76,62.41 L173.70,62.52 "/><path d="M172.49,62.53 L172.44,62.43 L172.47,62.32 L172.41,62.52 L172.47,62.60 "/><path d="M173.70,62.60 L173.81,62.48 L173.84,62.36 L173.78,62.24 "/><path d="M172.43,62.25 L172.37,62.37 L172.38,62.49 L172.41,62.52 "/><path d="M172.47,62.32 L172.55,62.22 "/><path d="M173.65,62.20 L173.74,62.31 "/></g><g style="stroke:#000000;stroke-width:0.529"><path d="M172.61,72.00 C172.70,72.05 172.70,72.05 172.80,72.10 C172.92,72.14 172.92,72.14 173.04,72.17 C173.18,72.18 173.19,72.18 173.33,72.19 C173.47,72.18 173.47,72.18 173.61,72.16 C173.74,72.13 173.74,72.13 173.86,72.09 C173.96,72.04 173.96,72.04 174.06,71.99 "/><path d="M174.49,71.26 C174.46,70.15 174.46,70.15 174.42,69.05 C174.41,68.95 174.42,68.95 174.40,68.86 C174.32,68.52 174.32,68.52 174.24,68.19 "/><path d="M175.44,63.25 C175.41,63.10 175.41,63.10 175.38,62.96 C175.30,62.77 175.30,62.77 175.22,62.59 C175.14,62.47 175.14,62.47 175.07,62.35 "/><path d="M175.07,62.35 C174.79,62.13 174.79,62.13 174.51,61.93 C174.25,61.82 174.25,61.83 173.99,61.73 C173.72,61.68 173.72,61.68 173.45,61.64 C173.15,61.64 173.15,61.64 172.84,61.65 C172.55,61.70 172.54,61.70 172.25,61.76 C172.00,61.85 172.00,61.85 171.76,61.95 C171.47,62.16 171.47,62.16 171.19,62.38 "/><path d="M170.83,63.33 L170.87,63.68 L171.16,64.03 L171.66,64.31 L171.95,64.38 L172.04,67.82 L172.06,68.03 L172.22,68.21 L172.28,68.24 L172.12,69.07 L172.18,71.28 L172.20,71.47 L172.61,72.00 "/><path d="M174.06,71.99 L174.18,71.85 L174.45,71.45 L174.49,71.26 "/><path d="M174.24,68.19 L174.41,68.01 L174.45,67.80 L174.36,64.32 L174.51,64.28 L175.04,63.99 L175.36,63.64 L175.44,63.25 "/><path d="M171.19,62.38 L170.86,62.99 L170.83,63.33 "/></g></g><g id="Actor_.2"><g style="stroke:#000000;stroke-width:0.176"><path d="M144.03,94.99 C143.87,95.10 143.87,95.10 143.70,95.21 C143.48,95.29 143.47,95.29 143.25,95.36 C142.99,95.41 142.99,95.40 142.73,95.44 C142.47,95.44 142.47,95.44 142.20,95.42 C141.96,95.38 141.95,95.38 141.71,95.32 C141.52,95.24 141.51,95.24 141.32,95.15 "/><path d="M144.00,94.11 C143.84,94.23 143.84,94.23 143.67,94.33 C143.45,94.41 143.45,94.41 143.23,94.49 C142.97,94.53 142.97,94.53 142.71,94.56 C142.44,94.56 142.44,94.56 142.18,94.55 C141.94,94.50 141.93,94.50 141.69,94.45 C141.50,94.37 141.50,94.36 141.30,94.27 "/><path d="M141.33,95.15 C141.52,95.24 141.52,95.24 141.72,95.32 C141.78,95.34 141.78,95.34 141.85,95.35 C142.03,95.39 142.03,95.39 142.20,95.42 C142.47,95.43 142.47,95.43 142.73,95.44 C142.99,95.40 142.99,95.40 143.25,95.36 C143.47,95.29 143.47,95.29 143.69,95.21 C143.86,95.10 143.86,95.10 144.02,94.99 "/><path d="M143.32,93.51 C143.24,93.56 143.24,93.57 143.15,93.62 C143.03,93.66 143.03,93.66 142.91,93.70 C142.78,93.72 142.78,93.72 142.64,93.74 C142.50,93.74 142.50,93.74 142.36,93.74 C142.23,93.71 142.23,93.71 142.10,93.68 C142.00,93.64 142.00,93.64 141.89,93.59 "/><path d="M144.21,94.46 L144.20,94.73 L144.03,94.99 "/><path d="M141.32,95.15 L141.07,94.91 L140.99,94.65 "/><path d="M144.18,93.59 L144.18,93.86 L144.00,94.11 "/><path d="M141.30,94.27 L141.05,94.04 L140.97,93.78 "/><path d="M140.99,94.64 L141.08,94.91 L141.33,95.15 "/><path d="M144.02,94.99 L144.20,94.73 L144.20,94.45 "/><path d="M142.92,92.91 L143.16,92.98 L143.33,93.09 L143.42,93.23 L143.42,93.37 L143.32,93.51 "/><path d="M141.89,93.59 L141.76,93.47 L141.72,93.33 L141.76,93.18 L141.90,93.06 L142.11,92.96 "/></g><g style="stroke:#000000;stroke-width:0.529"><path d="M144.01,93.34 C143.85,93.23 143.85,93.23 143.68,93.13 C143.46,93.05 143.46,93.06 143.24,92.99 C143.08,92.95 143.08,92.95 142.92,92.91 C142.78,92.89 142.78,92.89 142.65,92.88 C142.51,92.88 142.51,92.88 142.37,92.90 C142.24,92.92 142.24,92.93 142.11,92.96 C141.91,93.02 141.91,93.02 141.71,93.08 C141.51,93.17 141.51,93.17 141.31,93.27 C141.18,93.38 141.18,93.39 141.06,93.51 "/><path d="M144.34,99.56 L144.18,93.59 L144.01,93.34 "/><path d="M141.06,93.51 L140.97,93.78 L141.11,99.60 "/></g></g><g id="Actor_.3"><g style="stroke:#000000;stroke-width:0.176"><path d="M174.81,124.19 C174.66,124.30 174.66,124.31 174.51,124.42 C174.30,124.51 174.30,124.51 174.09,124.59 C173.83,124.64 173.83,124.64 173.58,124.68 C173.30,124.69 173.30,124.69 173.03,124.68 C172.79,124.65 172.78,124.65 172.54,124.60 C172.33,124.53 172.33,124.53 172.13,124.44 C171.98,124.34 171.98,124.34 171.84,124.22 "/><path d="M171.85,124.22 C171.98,124.34 171.98,124.34 172.13,124.44 C172.33,124.53 172.34,124.53 172.54,124.60 C172.79,124.65 172.79,124.65 173.05,124.68 C173.31,124.69 173.31,124.69 173.58,124.68 C173.83,124.64 173.83,124.64 174.08,124.58 C174.30,124.50 174.30,124.50 174.51,124.41 C174.66,124.30 174.66,124.30 174.80,124.19 "/><path d="M171.82,123.35 C171.96,123.46 171.96,123.46 172.11,123.57 C172.31,123.65 172.31,123.65 172.52,123.73 C172.77,123.77 172.77,123.77 173.02,123.81 C173.29,123.81 173.29,123.81 173.55,123.80 C173.81,123.76 173.81,123.76 174.06,123.71 C174.27,123.63 174.28,123.63 174.48,123.54 C174.64,123.43 174.64,123.43 174.78,123.31 "/><path d="M174.08,122.73 C174.00,122.79 174.00,122.79 173.92,122.85 C173.81,122.90 173.81,122.90 173.70,122.94 C173.56,122.97 173.56,122.97 173.43,122.99 C173.29,122.99 173.29,122.99 173.15,122.99 C173.01,122.97 173.01,122.97 172.88,122.95 C172.77,122.91 172.77,122.91 172.66,122.86 C172.59,122.81 172.58,122.81 172.51,122.75 "/><path d="M174.95,123.92 L174.81,124.19 "/><path d="M171.84,124.22 L171.72,123.96 "/><path d="M171.72,123.94 L171.72,123.96 L171.85,124.22 "/><path d="M174.80,124.19 L174.94,123.92 L174.94,123.88 "/><path d="M171.70,123.09 L171.82,123.35 "/><path d="M174.78,123.31 L174.92,123.05 "/><path d="M173.59,122.15 L173.84,122.21 L174.02,122.32 L174.13,122.45 L174.15,122.59 L174.08,122.73 "/><path d="M172.51,122.75 L172.45,122.61 L172.47,122.47 L172.59,122.33 L172.78,122.23 "/><path d="M173.86,122.22 L173.86,122.22 "/><path d="M174.32,122.34 L174.32,122.34 "/></g><g style="stroke:#000000;stroke-width:0.529"><path d="M174.32,122.34 C173.96,122.24 173.96,122.24 173.59,122.15 C173.45,122.14 173.45,122.14 173.31,122.13 C173.17,122.14 173.17,122.14 173.03,122.16 C172.69,122.26 172.68,122.26 172.34,122.37 C172.15,122.46 172.15,122.46 171.97,122.57 "/><path d="M171.97,122.57 L171.75,122.82 L171.70,123.09 L171.85,128.86 "/><path d="M174.32,122.34 L174.68,122.54 L174.88,122.78 L174.92,123.05 L175.08,128.79 "/></g></g><g id="Actor_.4"><g style="stroke:#000000;stroke-width:0.176"><path d="M180.38,73.16 C180.49,73.23 180.49,73.23 180.61,73.31 C180.76,73.36 180.76,73.36 180.92,73.41 C181.10,73.44 181.10,73.44 181.28,73.46 C181.47,73.45 181.47,73.45 181.66,73.44 C181.84,73.40 181.84,73.41 182.02,73.36 C182.16,73.30 182.17,73.30 182.31,73.23 C182.41,73.15 182.41,73.15 182.50,73.06 "/><path d="M182.36,70.84 C182.24,70.92 182.24,70.92 182.11,70.99 C181.95,71.05 181.95,71.05 181.79,71.10 C181.60,71.13 181.60,71.13 181.41,71.15 C181.23,71.14 181.22,71.14 181.04,71.13 C180.86,71.10 180.86,71.10 180.69,71.06 C180.62,71.03 180.62,71.03 180.54,71.00 C180.48,70.96 180.48,70.96 180.42,70.93 C180.33,70.84 180.33,70.84 180.25,70.76 "/><path d="M182.26,69.79 C182.11,69.86 182.11,69.87 181.95,69.93 C181.77,69.98 181.77,69.98 181.59,70.01 C181.39,70.03 181.39,70.03 181.19,70.03 C180.99,70.01 180.99,70.01 180.79,69.98 C180.63,69.93 180.63,69.93 180.48,69.87 C180.41,69.83 180.41,69.83 180.35,69.79 "/><path d="M180.21,66.00 C180.57,66.05 180.58,66.05 180.94,66.09 C181.32,66.08 181.32,66.08 181.70,66.06 C182.07,65.98 182.08,65.98 182.44,65.89 "/><path d="M180.14,63.66 C180.26,63.58 180.27,63.58 180.39,63.50 C180.56,63.44 180.56,63.44 180.73,63.39 C180.93,63.36 180.93,63.36 181.12,63.34 C181.32,63.34 181.32,63.34 181.52,63.35 C181.70,63.39 181.70,63.39 181.88,63.43 C182.02,63.50 182.02,63.50 182.16,63.57 "/><path d="M182.31,64.14 C182.22,64.24 182.22,64.24 182.11,64.32 C181.97,64.39 181.96,64.39 181.81,64.46 C181.63,64.50 181.63,64.50 181.44,64.54 C181.24,64.55 181.24,64.55 181.04,64.56 C180.85,64.54 180.85,64.54 180.66,64.51 C180.56,64.48 180.56,64.48 180.47,64.44 "/><path d="M180.53,64.13 C180.59,64.18 180.60,64.18 180.67,64.22 C180.77,64.26 180.77,64.26 180.87,64.29 C180.98,64.31 180.98,64.31 181.10,64.32 C181.22,64.32 181.22,64.32 181.34,64.31 C181.45,64.29 181.45,64.29 181.57,64.26 C181.66,64.22 181.66,64.22 181.75,64.18 C181.81,64.12 181.81,64.12 181.87,64.07 "/><path d="M181.75,64.11 C181.68,64.15 181.68,64.15 181.61,64.19 C181.52,64.22 181.52,64.22 181.43,64.25 C181.32,64.27 181.32,64.27 181.22,64.28 C181.11,64.28 181.11,64.28 181.00,64.27 C180.90,64.25 180.90,64.25 180.81,64.23 C180.73,64.19 180.73,64.19 180.65,64.15 "/><path d="M180.55,63.77 C180.62,63.72 180.62,63.72 180.70,63.68 C180.81,63.64 180.81,63.64 180.91,63.61 C181.03,63.59 181.03,63.59 181.15,63.58 C181.27,63.58 181.27,63.58 181.39,63.59 C181.50,63.61 181.50,63.61 181.61,63.64 C181.69,63.67 181.70,63.67 181.78,63.72 "/><path d="M180.57,63.84 C180.62,63.79 180.62,63.79 180.68,63.75 C180.76,63.71 180.76,63.71 180.84,63.67 C180.94,63.65 180.94,63.65 181.04,63.63 C181.11,63.62 181.11,63.62 181.17,63.62 C181.32,63.63 181.32,63.63 181.47,63.64 C181.56,63.67 181.56,63.67 181.65,63.70 C181.71,63.74 181.71,63.74 181.77,63.79 "/><path d="M182.50,70.46 L182.49,70.66 L182.42,70.75 L182.36,70.84 "/><path d="M180.25,70.76 L180.20,70.57 "/><path d="M182.32,69.74 L182.26,69.79 "/><path d="M180.03,65.94 L180.21,66.00 "/><path d="M180.47,64.44 L180.34,64.40 L180.10,64.24 L179.99,64.05 L180.00,63.85 L180.14,63.66 "/><path d="M182.16,63.57 L182.34,63.75 L182.39,63.94 L182.31,64.14 "/><path d="M180.55,64.06 L180.53,63.95 L180.49,64.07 L180.53,64.13 "/><path d="M181.87,64.07 L181.89,64.03 L181.84,63.89 L181.83,64.00 L181.75,64.11 "/><path d="M180.65,64.15 L180.55,64.06 "/><path d="M180.49,64.07 L180.46,64.02 L180.46,63.89 L180.55,63.77 "/><path d="M181.78,63.72 L181.89,63.83 L181.92,63.95 L181.89,64.03 "/><path d="M180.53,63.95 L180.57,63.84 "/><path d="M181.77,63.79 L181.84,63.89 "/></g><g style="stroke:#000000;stroke-width:0.529"><path d="M178.98,64.44 C179.05,64.31 179.05,64.31 179.12,64.18 C179.24,64.01 179.24,64.01 179.37,63.85 C179.47,63.77 179.47,63.77 179.58,63.69 C179.77,63.57 179.77,63.56 179.97,63.44 C180.23,63.35 180.23,63.35 180.50,63.27 C180.79,63.23 180.80,63.23 181.10,63.19 C181.40,63.20 181.40,63.20 181.71,63.22 C181.98,63.27 181.99,63.27 182.26,63.34 C182.48,63.44 182.48,63.44 182.70,63.55 C182.80,63.62 182.80,63.62 182.90,63.69 C183.06,63.84 183.06,63.84 183.22,64.00 C183.30,64.12 183.30,64.12 183.37,64.25 C183.42,64.43 183.42,64.43 183.47,64.62 C183.50,64.77 183.50,64.77 183.52,64.92 "/><path d="M182.57,72.87 C182.54,72.97 182.54,72.97 182.50,73.06 C182.37,73.26 182.37,73.26 182.24,73.45 C182.17,73.51 182.17,73.51 182.10,73.57 C181.99,73.63 181.99,73.63 181.88,73.67 C181.75,73.71 181.75,73.70 181.61,73.73 C181.47,73.74 181.47,73.74 181.33,73.74 C181.19,73.73 181.19,73.73 181.05,73.71 C180.94,73.67 180.94,73.67 180.82,73.63 C180.73,73.58 180.73,73.58 180.65,73.52 "/><path d="M179.24,65.56 L179.14,65.49 L178.91,65.12 L178.98,64.44 "/><path d="M183.52,64.92 L183.37,65.30 L182.99,65.64 L182.44,65.89 L182.54,69.42 L182.46,69.62 L182.32,69.74 L182.50,70.46 L182.57,72.87 "/><path d="M180.65,73.52 L180.38,73.16 L180.27,72.97 L180.20,70.57 L180.35,69.79 L180.24,69.72 L180.13,69.53 L180.03,65.94 L179.59,65.79 L179.24,65.56 "/></g></g><g id="Actor_.5"><g style="stroke:#000000;stroke-width:0.176"><path d="M191.38,103.77 L191.24,104.03 L190.93,104.25 L190.50,104.42 L190.44,104.43 "/><path d="M191.36,102.89 L191.21,103.15 L190.90,103.38 L190.57,103.51 "/><path d="M191.38,103.69 L191.38,103.77 L191.23,104.03 L190.92,104.25 L190.49,104.42 L190.44,104.43 "/></g><g style="stroke:#000000;stroke-width:0.529"><path d="M190.81,102.19 L191.14,102.38 L191.33,102.62 L191.36,102.89 L191.38,103.69 L191.38,103.77 L191.46,106.67 "/></g></g><g id="Actor_.6"><g style="stroke:#000000;stroke-width:0.176"><path d="M127.51,115.23 C127.32,115.34 127.32,115.34 127.14,115.43 C126.92,115.50 126.92,115.49 126.70,115.56 C126.68,115.56 126.68,115.56 126.66,115.57 C126.40,115.59 126.40,115.60 126.14,115.62 C125.87,115.60 125.87,115.60 125.61,115.58 C125.38,115.52 125.38,115.52 125.15,115.45 C124.96,115.36 124.96,115.36 124.79,115.25 "/><path d="M127.11,114.56 C126.88,114.63 126.88,114.63 126.64,114.69 C126.38,114.72 126.38,114.72 126.11,114.74 C125.85,114.72 125.85,114.73 125.59,114.70 C125.36,114.64 125.36,114.64 125.13,114.58 C124.95,114.49 124.95,114.48 124.77,114.38 "/><path d="M124.80,115.26 C124.97,115.36 124.97,115.36 125.15,115.45 C125.34,115.51 125.34,115.50 125.54,115.56 C125.58,115.57 125.58,115.57 125.61,115.58 C125.87,115.60 125.87,115.60 126.14,115.61 C126.40,115.59 126.40,115.59 126.66,115.56 C126.90,115.50 126.90,115.50 127.13,115.43 C127.32,115.34 127.32,115.34 127.50,115.23 "/><path d="M126.84,113.72 C126.74,113.77 126.74,113.77 126.64,113.82 C126.52,113.86 126.52,113.86 126.39,113.89 C126.26,113.91 126.25,113.91 126.12,113.92 C125.98,113.91 125.98,113.91 125.84,113.90 C125.72,113.87 125.71,113.87 125.59,113.83 C125.50,113.78 125.50,113.78 125.41,113.73 "/><path d="M127.78,114.71 L127.73,114.98 L127.51,115.23 "/><path d="M124.79,115.25 L124.59,115.01 L124.55,114.74 "/><path d="M127.76,113.84 L127.70,114.11 L127.48,114.36 L127.32,114.44 L127.11,114.56 "/><path d="M124.77,114.38 L124.57,114.14 L124.54,113.87 "/><path d="M124.56,114.74 L124.59,115.01 L124.80,115.26 "/><path d="M127.50,115.23 L127.72,114.98 L127.78,114.70 "/><path d="M126.55,113.10 L126.77,113.19 L126.92,113.30 L126.99,113.44 L126.96,113.58 L126.84,113.72 "/><path d="M125.41,113.73 L125.30,113.60 L125.28,113.46 L125.35,113.32 L125.51,113.20 L125.74,113.11 "/></g><g style="stroke:#000000;stroke-width:0.529"><path d="M127.63,113.58 C127.50,113.46 127.50,113.46 127.35,113.36 C127.15,113.27 127.15,113.27 126.94,113.20 C126.75,113.15 126.75,113.15 126.55,113.10 C126.42,113.08 126.42,113.08 126.29,113.06 C126.15,113.06 126.15,113.06 126.01,113.06 C125.87,113.08 125.87,113.08 125.74,113.11 C125.57,113.16 125.57,113.16 125.40,113.21 C125.19,113.29 125.18,113.29 124.97,113.38 C124.82,113.49 124.82,113.49 124.68,113.61 "/><path d="M127.91,119.70 L127.76,113.84 L127.63,113.58 "/><path d="M124.68,113.61 L124.54,113.87 L124.68,119.80 "/></g></g><g id="Actor_.7"><g style="stroke:#000000;stroke-width:0.176"><path d="M171.42,154.50 C171.62,154.52 171.62,154.52 171.82,154.54 C172.11,154.54 172.11,154.54 172.40,154.54 C172.63,154.52 172.63,154.52 172.86,154.50 C173.01,154.46 173.01,154.46 173.15,154.41 "/><path d="M171.42,154.45 C171.77,154.48 171.77,154.48 172.13,154.50 C172.39,154.49 172.39,154.49 172.66,154.48 C172.85,154.45 172.85,154.45 173.04,154.41 "/><path d="M173.00,154.44 C172.81,154.48 172.81,154.48 172.62,154.51 C172.36,154.53 172.36,154.53 172.10,154.53 C171.76,154.52 171.76,154.52 171.42,154.49 "/><path d="M173.16,152.80 C173.03,152.85 173.03,152.85 172.90,152.88 C172.69,152.91 172.69,152.90 172.48,152.92 C172.21,152.92 172.21,152.92 171.95,152.92 C171.66,152.89 171.66,152.89 171.38,152.87 "/><path d="M173.31,153.07 C173.16,153.12 173.16,153.12 173.02,153.16 C172.79,153.18 172.79,153.18 172.56,153.20 C172.26,153.20 172.26,153.20 171.97,153.19 C171.68,153.17 171.68,153.17 171.38,153.14 "/><path d="M171.37,152.61 C171.59,152.63 171.59,152.63 171.82,152.65 C172.01,152.65 172.01,152.65 172.20,152.65 C172.34,152.64 172.34,152.64 172.49,152.63 C172.58,152.60 172.59,152.60 172.68,152.57 "/><path d="M173.15,154.41 L173.24,154.29 "/><path d="M173.04,154.41 L173.23,154.30 L173.00,154.44 "/><path d="M173.12,152.56 L173.24,152.69 L173.16,152.80 "/><path d="M173.39,152.95 L173.31,153.07 "/><path d="M172.68,152.57 L172.73,152.49 L172.65,152.40 L172.44,152.30 "/><path d="M173.23,154.30 L173.23,154.28 "/></g><g style="stroke:#000000;stroke-width:0.529"><path d="M173.02,162.78 C172.69,162.89 172.69,162.89 172.36,162.99 C172.07,163.03 172.06,163.02 171.77,163.05 C171.39,163.05 171.39,163.05 171.02,163.04 C170.60,163.01 170.60,163.01 170.19,162.97 C169.79,162.91 169.79,162.91 169.38,162.84 C169.03,162.76 169.03,162.76 168.67,162.68 C168.41,162.59 168.41,162.59 168.15,162.49 C167.70,162.21 167.70,162.21 167.26,161.93 C167.08,161.72 167.07,161.72 166.90,161.50 "/><path d="M171.35,152.09 C171.55,152.11 171.55,152.11 171.75,152.14 C171.94,152.17 171.94,152.17 172.13,152.21 C172.48,152.31 172.48,152.31 172.83,152.42 C173.01,152.51 173.01,152.51 173.19,152.60 "/><path d="M173.19,152.60 L173.36,152.79 L173.39,152.87 L173.39,152.95 L172.82,158.00 "/></g></g><g id="Actor_.8"><g style="stroke:#000000;stroke-width:0.176"><path d="M240.42,90.61 L242.70,87.86 "/><path d="M241.50,91.76 L242.82,90.20 L244.02,88.73 "/><path d="M241.55,91.78 L242.12,91.11 L241.57,91.75 "/><path d="M243.01,87.88 L242.01,89.10 L240.49,90.90 "/><path d="M240.64,90.11 L242.25,88.17 "/><path d="M242.12,91.11 L242.70,90.43 L242.12,91.11 "/><path d="M243.05,90.00 L242.70,90.43 L243.81,89.09 L243.05,90.00 "/><path d="M244.02,88.80 L243.81,89.09 L244.07,88.76 "/><path d="M245.72,97.94 L247.99,95.27 L250.89,91.74 "/></g><g style="stroke:#000000;stroke-width:0.529"><path d="M242.25,88.17 C241.50,89.07 241.50,89.07 240.74,89.97 C240.69,90.04 240.69,90.04 240.64,90.11 C240.52,90.35 240.52,90.36 240.42,90.61 "/><path d="M250.89,91.74 C251.02,92.07 251.02,92.07 251.14,92.42 C251.18,92.77 251.18,92.78 251.19,93.14 C251.13,93.49 251.13,93.50 251.04,93.84 "/><path d="M247.81,97.72 C247.49,97.87 247.48,97.87 247.15,98.00 C246.79,98.05 246.79,98.05 246.43,98.07 C246.07,98.02 246.07,98.02 245.72,97.94 "/><path d="M245.11,89.63 L244.07,88.76 L244.02,88.80 L244.02,88.73 L243.01,87.88 L242.86,87.82 L242.70,87.86 L242.25,88.17 "/><path d="M240.42,90.61 L240.40,90.77 L240.44,90.84 L241.50,91.76 L241.57,91.75 L241.55,91.78 L242.63,92.68 "/><path d="M250.66,91.65 L250.89,91.74 "/><path d="M251.04,93.84 L250.67,94.32 L247.81,97.72 "/><path d="M245.72,97.94 L245.64,97.81 "/></g></g><g id="Actor_.9"><g style="stroke:#000000;stroke-width:0.176"><path d="M157.53,79.48 C157.04,79.93 157.03,79.93 156.57,80.42 C156.09,81.22 156.09,81.23 155.64,82.05 C155.23,83.11 155.23,83.11 154.85,84.18 C154.55,85.38 154.55,85.39 154.28,86.59 C154.13,87.81 154.13,87.81 154.00,89.02 C154.00,90.11 154.00,90.11 154.03,91.20 C154.19,92.05 154.19,92.06 154.38,92.90 "/><path d="M184.05,99.61 C183.85,98.70 183.85,98.70 183.68,97.78 C183.64,96.50 183.65,96.49 183.64,95.21 C183.79,93.79 183.79,93.79 183.98,92.37 C184.29,90.96 184.29,90.95 184.64,89.55 C185.09,88.29 185.08,88.29 185.56,87.05 C186.09,86.09 186.10,86.09 186.65,85.14 C186.81,84.97 186.81,84.97 186.98,84.81 "/><path d="M184.23,100.00 C184.00,98.99 184.00,98.98 183.82,97.96 C183.78,96.65 183.78,96.64 183.78,95.33 C183.95,93.78 183.96,93.77 184.17,92.22 C184.47,90.86 184.47,90.86 184.80,89.51 C185.26,88.22 185.26,88.21 185.76,86.93 C186.29,85.95 186.29,85.94 186.87,84.97 C187.43,84.39 187.44,84.38 188.03,83.84 "/><path d="M185.69,100.95 C185.39,100.13 185.38,100.12 185.11,99.29 C185.04,98.70 185.05,98.69 184.99,98.10 C184.94,97.51 184.92,97.51 184.88,96.92 C184.94,95.51 184.94,95.51 185.03,94.11 C185.28,92.63 185.28,92.63 185.55,91.15 C185.95,89.76 185.95,89.76 186.38,88.38 C186.89,87.22 186.89,87.22 187.43,86.08 C187.99,85.29 187.99,85.28 188.58,84.51 "/><path d="M188.65,84.55 C188.52,84.72 188.52,84.72 188.40,84.90 C187.95,85.51 187.93,85.50 187.50,86.11 C186.96,87.25 186.96,87.25 186.45,88.40 C186.02,89.78 186.02,89.78 185.63,91.17 C185.34,92.80 185.35,92.81 185.09,94.44 C185.01,95.68 185.01,95.68 184.96,96.92 C185.05,98.10 185.05,98.10 185.19,99.28 C185.45,100.11 185.46,100.12 185.77,100.94 "/><path d="M190.88,87.24 C190.45,87.80 190.45,87.80 190.05,88.38 C189.65,89.20 189.65,89.20 189.29,90.04 C188.97,91.04 188.97,91.05 188.68,92.06 C188.48,93.25 188.48,93.25 188.29,94.44 C188.23,95.34 188.23,95.34 188.20,96.24 C188.27,97.10 188.26,97.10 188.36,97.96 C188.56,98.56 188.56,98.57 188.79,99.16 "/><path d="M190.24,99.53 C190.43,99.35 190.43,99.35 190.61,99.17 C190.84,98.94 190.85,98.95 191.07,98.71 C191.48,98.02 191.49,98.02 191.88,97.31 C192.23,96.39 192.22,96.39 192.56,95.46 C192.69,94.96 192.68,94.95 192.80,94.44 C192.92,93.91 192.93,93.91 193.05,93.38 C193.18,92.33 193.18,92.33 193.29,91.28 C193.29,90.34 193.29,90.34 193.27,89.40 C193.22,89.14 193.21,89.14 193.16,88.89 C193.07,88.41 193.07,88.41 192.97,87.93 "/><path d="M190.91,87.31 C190.48,87.86 190.48,87.86 190.08,88.43 C189.69,89.25 189.69,89.25 189.33,90.08 C189.02,91.07 189.02,91.08 188.73,92.07 C188.54,93.13 188.54,93.13 188.36,94.19 C188.29,95.20 188.30,95.20 188.25,96.21 C188.27,96.44 188.27,96.44 188.30,96.67 "/><path d="M190.50,95.60 C190.67,95.38 190.67,95.38 190.83,95.15 C190.99,94.82 190.99,94.82 191.13,94.49 C191.26,94.09 191.26,94.09 191.37,93.69 C191.47,92.96 191.48,92.95 191.56,92.22 C191.54,91.78 191.54,91.78 191.50,91.34 C191.43,91.10 191.42,91.09 191.33,90.86 "/><path d="M191.64,90.67 C191.74,90.93 191.74,90.94 191.83,91.20 C191.87,91.57 191.87,91.58 191.90,91.95 C191.88,92.40 191.88,92.40 191.85,92.84 C191.77,93.31 191.77,93.31 191.69,93.78 C191.56,94.22 191.56,94.22 191.42,94.66 C191.26,95.02 191.26,95.02 191.09,95.38 C190.92,95.63 190.91,95.64 190.73,95.88 "/><path d="M189.82,95.61 C189.75,95.24 189.75,95.24 189.69,94.87 C189.67,94.50 189.67,94.50 189.67,94.13 C189.72,93.66 189.72,93.66 189.78,93.20 C189.89,92.74 189.89,92.74 190.00,92.28 C190.14,91.87 190.14,91.87 190.30,91.47 C190.47,91.15 190.47,91.15 190.65,90.85 C190.74,90.76 190.74,90.76 190.83,90.67 "/><path d="M186.57,101.73 L185.69,100.95 "/><path d="M188.58,84.51 L189.76,83.86 "/><path d="M190.77,84.18 L190.30,83.91 L189.81,83.88 L188.65,84.55 "/><path d="M185.77,100.94 L186.65,101.71 L187.72,101.53 "/><path d="M192.97,87.88 L192.43,86.97 L192.08,86.77 L191.72,86.75 L190.88,87.24 "/><path d="M188.79,99.16 L189.43,99.73 L190.21,99.59 "/><path d="M188.30,96.67 L188.42,97.91 L188.84,99.10 L189.47,99.66 L190.24,99.53 "/><path d="M192.97,87.93 L192.44,87.04 L191.72,86.83 L190.91,87.31 "/><path d="M190.17,95.80 L190.50,95.60 "/><path d="M191.33,90.86 L191.08,90.63 L190.83,90.67 L191.01,90.50 L191.36,90.43 L191.64,90.67 "/><path d="M190.73,95.88 L190.37,96.09 L190.20,96.08 L190.05,96.00 L189.82,95.61 L190.02,95.79 L190.17,95.80 "/><path d="M189.80,83.87 L189.82,83.87 "/><path d="M190.72,84.14 L190.75,84.16 "/></g><g style="stroke:#000000;stroke-width:0.529"><path d="M154.23,92.65 C154.04,91.83 154.04,91.83 153.89,91.01 C153.86,89.96 153.86,89.95 153.86,88.90 C153.99,87.73 153.99,87.72 154.14,86.55 C154.40,85.39 154.40,85.39 154.69,84.22 C154.84,83.78 154.85,83.78 155.01,83.33 C155.23,82.75 155.22,82.74 155.45,82.16 C155.89,81.37 155.88,81.36 156.35,80.58 C156.79,80.12 156.81,80.13 157.28,79.67 C157.40,79.57 157.40,79.57 157.53,79.48 "/><path d="M192.97,87.87 C193.13,88.61 193.13,88.61 193.27,89.36 C193.30,90.31 193.30,90.31 193.30,91.26 C193.19,92.30 193.19,92.30 193.06,93.33 C192.82,94.40 192.82,94.41 192.56,95.47 C192.23,96.40 192.23,96.40 191.88,97.32 C191.48,98.04 191.48,98.05 191.06,98.75 C190.65,99.18 190.64,99.18 190.21,99.59 C188.97,100.57 188.97,100.57 187.72,101.53 "/><path d="M156.65,94.34 L154.99,93.93 L154.23,92.65 "/><path d="M157.53,79.48 L158.43,79.32 L170.67,81.67 "/><path d="M178.59,98.56 L159.71,94.93 "/><path d="M186.98,84.81 L188.03,83.84 L189.11,83.65 L189.82,83.87 L190.30,83.91 L190.77,84.18 L192.97,87.87 "/><path d="M187.72,101.53 L186.60,101.73 L184.97,101.24 L184.05,99.61 "/><path d="M186.84,84.79 L185.54,84.54 "/></g></g><g id="Actor_.10"><g style="stroke:#000000;stroke-width:0.176"><path d="M270.56,67.49 C271.64,66.22 271.64,66.22 272.71,64.94 C273.51,63.97 273.51,63.97 274.31,63.00 C274.83,62.36 274.83,62.36 275.35,61.72 "/><path d="M265.97,61.74 L267.00,60.52 L268.49,58.71 "/><path d="M267.17,57.84 L266.00,59.26 L264.88,60.59 "/><path d="M264.95,60.88 L266.19,59.43 L267.47,57.86 "/><path d="M265.10,60.09 L266.71,58.15 "/><path d="M266.03,61.73 L266.57,61.11 L266.01,61.76 "/><path d="M266.95,60.66 L266.57,61.11 L267.08,60.51 L266.95,60.66 "/><path d="M267.50,60.00 L267.08,60.51 L268.19,59.17 L267.50,60.00 "/><path d="M268.19,59.17 L268.41,58.89 L268.19,59.17 "/><path d="M268.49,58.78 L268.41,58.89 L268.53,58.74 "/><path d="M270.17,67.92 L270.56,67.49 "/></g><g style="stroke:#000000;stroke-width:0.529"><path d="M266.71,58.15 C266.02,58.98 266.02,58.98 265.32,59.81 C265.21,59.95 265.20,59.95 265.10,60.09 C264.98,60.33 264.98,60.33 264.88,60.59 "/><path d="M275.35,61.72 C275.48,62.05 275.48,62.05 275.60,62.39 C275.64,62.75 275.64,62.76 275.66,63.12 C275.59,63.47 275.59,63.47 275.50,63.82 "/><path d="M272.27,67.70 C271.94,67.85 271.94,67.85 271.61,67.98 C271.25,68.02 271.24,68.03 270.89,68.05 C270.53,68.00 270.53,68.00 270.17,67.92 "/><path d="M269.58,59.61 L268.53,58.74 L268.49,58.78 L268.49,58.71 L267.47,57.86 L267.32,57.80 L267.17,57.84 L266.71,58.15 "/><path d="M264.88,60.59 L264.87,60.74 L264.90,60.82 L265.97,61.74 L266.03,61.73 L266.01,61.76 L267.09,62.66 "/><path d="M275.12,61.63 L275.35,61.72 "/><path d="M275.50,63.82 L275.23,64.18 L273.33,66.46 L272.27,67.70 "/><path d="M270.17,67.92 L270.10,67.80 "/></g></g><g id="Actor_.11"><g style="stroke:#000000;stroke-width:0.176"><path d="M138.51,112.59 C140.21,110.63 140.21,110.63 141.94,108.70 C143.39,107.28 143.39,107.28 144.86,105.88 C145.12,105.74 145.13,105.73 145.40,105.61 "/><path d="M145.40,105.61 C144.94,106.24 144.93,106.24 144.45,106.86 C142.88,108.58 142.87,108.58 141.28,110.28 C140.29,111.25 140.29,111.25 139.29,112.20 C138.85,112.54 138.85,112.54 138.40,112.85 "/><path d="M154.98,93.91 C153.03,96.10 153.03,96.10 151.06,98.27 C150.08,99.24 150.08,99.24 149.07,100.19 C148.64,100.53 148.63,100.53 148.18,100.85 "/><path d="M148.18,100.85 C148.45,100.42 148.45,100.42 148.74,100.00 C149.65,98.94 149.65,98.94 150.59,97.90 C152.72,95.80 152.72,95.80 154.87,93.72 "/><path d="M181.51,118.92 C181.86,118.28 181.86,118.28 182.19,117.62 C182.46,116.85 182.46,116.85 182.70,116.07 C182.87,115.26 182.87,115.26 183.02,114.44 C183.09,113.65 183.09,113.64 183.14,112.85 C183.11,112.16 183.11,112.16 183.05,111.48 C182.93,111.00 182.92,110.99 182.77,110.52 "/><path d="M184.16,110.75 C184.32,111.24 184.32,111.25 184.45,111.75 C184.51,112.54 184.51,112.54 184.53,113.33 C184.33,114.84 184.35,114.85 184.10,116.34 C183.64,117.62 183.62,117.63 183.10,118.89 C182.76,119.38 182.76,119.39 182.37,119.85 "/><path d="M182.77,110.52 C182.29,111.14 182.29,111.15 181.84,111.79 C181.55,112.47 181.56,112.48 181.29,113.17 C181.08,113.97 181.08,113.97 180.88,114.77 C180.76,115.58 180.76,115.59 180.66,116.40 C180.64,117.15 180.64,117.15 180.64,117.90 C180.73,118.48 180.73,118.48 180.83,119.06 "/><path d="M187.81,84.01 C187.56,83.67 187.56,83.66 187.29,83.34 C186.97,83.10 186.96,83.10 186.63,82.87 C186.31,82.75 186.30,82.75 185.98,82.65 "/><path d="M192.16,107.85 C192.49,107.46 192.49,107.46 192.81,107.06 C193.11,106.46 193.11,106.45 193.40,105.84 C193.65,105.09 193.65,105.09 193.89,104.33 C194.06,103.52 194.06,103.52 194.21,102.70 C194.28,101.91 194.28,101.90 194.33,101.11 C194.30,100.43 194.30,100.42 194.24,99.74 C194.11,99.24 194.11,99.23 193.95,98.74 "/><path d="M119.75,118.90 L119.84,119.54 L120.32,120.12 L121.14,120.60 L122.22,120.91 L122.26,122.22 "/><path d="M122.22,120.91 L129.39,122.26 L129.66,122.16 L133.33,118.70 L134.42,119.74 "/><path d="M124.67,119.23 L124.58,119.54 L124.72,119.87 L125.20,120.15 "/><path d="M127.90,119.16 L128.01,119.50 L127.88,119.78 L127.41,120.10 "/><path d="M129.22,123.56 L129.19,122.25 L148.76,98.24 "/><path d="M130.81,123.17 L129.72,122.12 L149.29,98.11 "/><path d="M133.42,110.07 L132.87,109.64 L132.88,109.15 "/><path d="M133.33,118.70 L134.52,117.54 L135.61,118.59 "/><path d="M134.52,117.54 L162.37,90.30 L162.81,90.00 L163.96,89.90 L163.99,91.21 "/><path d="M135.63,110.01 L136.15,109.57 L136.12,109.07 "/><path d="M138.40,112.85 L138.51,112.59 "/><path d="M141.64,99.98 L141.17,99.70 L141.01,99.42 L141.10,99.07 "/><path d="M143.85,99.92 L144.40,99.42 L144.33,98.97 "/><path d="M156.48,94.31 L156.81,94.27 L157.52,93.69 "/><path d="M157.77,93.49 L158.74,92.62 "/><path d="M159.17,93.33 L160.27,94.38 "/><path d="M159.68,91.75 L164.13,87.42 L167.97,83.42 L162.37,90.30 L163.46,91.35 "/><path d="M164.91,91.39 L165.83,90.26 L164.01,89.91 L169.57,83.02 "/><path d="M169.56,93.67 L169.52,92.36 L164.85,91.46 "/><path d="M166.15,127.83 L166.23,128.40 L166.59,128.89 L167.54,129.53 L175.86,131.24 L175.90,132.55 "/><path d="M167.97,83.42 L168.42,83.12 L169.43,83.01 "/><path d="M168.62,129.84 L168.65,131.15 "/><path d="M169.52,92.36 L177.88,92.58 L185.98,82.65 L186.01,83.96 "/><path d="M176.07,73.48 L170.46,80.37 L169.05,81.36 "/><path d="M169.90,82.61 L170.81,81.50 L170.00,80.65 "/><path d="M172.05,79.97 L171.17,81.05 L170.46,80.37 L170.91,80.07 L172.05,79.97 L177.66,73.09 "/><path d="M171.83,128.32 L171.74,128.67 L171.86,128.89 L172.36,129.23 "/><path d="M170.84,81.46 L171.17,81.05 "/><path d="M172.39,82.23 L172.88,82.57 L173.99,82.64 L174.65,82.38 L174.87,81.95 L174.53,81.58 L173.38,81.41 L172.44,81.81 L172.39,82.23 "/><path d="M175.06,128.23 L175.18,128.57 L175.05,128.86 L174.58,129.17 "/><path d="M176.55,130.72 L176.42,131.08 L175.86,131.24 L176.54,130.42 L176.55,130.68 L177.95,130.99 L177.86,131.57 L177.58,132.06 "/><path d="M176.54,130.42 L176.46,127.44 L177.86,127.71 L177.95,130.99 L197.52,106.97 "/><path d="M176.46,127.44 L177.41,113.75 "/><path d="M176.53,125.13 L177.93,125.40 L177.86,127.71 "/><path d="M177.93,125.40 L180.10,97.36 L178.70,97.09 "/><path d="M177.92,93.89 L177.88,92.58 L178.54,92.80 L179.61,93.72 L180.04,94.95 L180.10,97.36 "/><path d="M178.64,94.68 L180.04,94.95 L184.80,89.11 "/><path d="M180.57,83.33 L180.47,83.78 L181.31,84.21 L182.49,84.08 L182.93,83.72 L182.96,83.51 L182.61,83.13 L181.88,82.96 L181.08,83.05 L180.57,83.33 "/><path d="M182.77,110.52 L183.06,110.28 L183.70,110.22 L184.16,110.75 "/><path d="M182.37,119.85 L181.75,120.13 L181.22,119.87 L181.04,119.51 L181.21,119.30 "/><path d="M180.91,119.26 L181.04,119.51 "/><path d="M183.49,85.70 L184.32,86.04 "/><path d="M185.98,82.65 L191.58,75.77 "/><path d="M186.73,84.75 L186.99,84.80 "/><path d="M193.74,78.14 L189.22,83.69 "/><path d="M190.49,106.27 L190.61,107.02 L191.01,107.87 L191.54,108.13 L192.16,107.85 "/><path d="M193.95,98.74 L193.48,98.22 L192.90,98.23 L192.56,98.51 "/><path d="M191.56,106.47 L190.83,107.51 "/></g><g style="stroke:#000000;stroke-width:0.529"><path d="M141.04,96.82 C140.17,96.81 140.17,96.82 139.30,96.84 C138.71,96.96 138.71,96.96 138.13,97.11 C137.64,97.31 137.63,97.31 137.16,97.54 C136.82,97.81 136.81,97.81 136.49,98.10 "/><path d="M120.36,121.43 C120.76,121.68 120.76,121.68 121.18,121.91 C121.71,122.08 121.72,122.07 122.26,122.22 C125.74,122.90 125.74,122.90 129.22,123.56 C129.52,123.59 129.52,123.59 129.82,123.60 "/><path d="M197.43,107.56 C197.49,107.27 197.49,107.26 197.52,106.97 C197.40,104.35 197.44,104.35 197.26,101.74 C195.58,91.14 195.50,91.15 193.80,80.55 C193.68,79.04 193.68,79.03 193.62,77.52 "/><path d="M190.49,106.27 C190.45,105.36 190.45,105.36 190.44,104.44 C190.54,103.60 190.55,103.60 190.67,102.76 C190.86,101.96 190.86,101.96 191.08,101.17 C191.34,100.47 191.34,100.47 191.63,99.79 C192.08,99.14 192.08,99.14 192.56,98.51 "/><path d="M192.56,98.51 C192.70,98.97 192.71,98.97 192.83,99.44 C192.89,100.13 192.89,100.14 192.93,100.84 C192.88,101.63 192.89,101.64 192.81,102.43 C192.43,103.99 192.43,104.00 192.01,105.56 C191.75,106.01 191.75,106.02 191.45,106.45 "/><path d="M136.49,98.10 L120.05,118.27 L119.76,118.89 L119.78,120.21 L119.88,120.85 L120.36,121.43 "/><path d="M129.82,123.60 L130.77,123.20 L163.61,91.25 L164.91,91.39 L164.88,92.77 L169.56,93.67 L177.92,93.89 L178.33,94.10 L178.58,94.44 L178.70,97.09 L177.41,113.75 L166.45,127.20 L166.17,127.78 L166.28,129.78 L166.76,130.36 L167.58,130.84 L175.90,132.55 L176.54,132.58 L177.12,132.41 L177.58,132.06 L197.15,108.05 L197.43,107.56 "/><path d="M193.62,77.52 L193.31,76.91 L192.24,75.99 L185.18,73.15 L182.57,72.65 "/><path d="M125.20,120.15 L126.03,120.34 L127.41,120.10 "/><path d="M133.42,110.07 L134.25,110.25 L135.63,110.01 "/><path d="M141.64,99.98 L142.47,100.17 L143.85,99.92 "/><path d="M154.54,93.17 L149.14,98.20 L144.28,97.38 "/><path d="M167.80,81.12 L176.07,73.48 L177.06,73.06 L179.53,73.45 L180.26,72.56 "/><path d="M169.43,83.01 L169.90,82.61 "/><path d="M172.37,129.23 L173.20,129.42 L174.58,129.17 "/><path d="M180.83,119.06 L180.91,119.26 L181.21,119.30 L181.51,118.92 "/><path d="M185.46,87.32 L185.21,86.84 L184.32,86.04 L186.01,83.96 L186.43,84.17 L186.73,84.75 L186.97,84.83 "/></g></g><g id="Actor_.12"><g style="stroke:#000000;stroke-width:0.176"><path d="M182.65,156.56 C182.49,156.60 182.48,156.60 182.32,156.64 C182.07,156.65 182.07,156.65 181.82,156.67 C181.43,156.65 181.43,156.65 181.04,156.63 C180.80,156.61 180.80,156.61 180.57,156.58 C180.26,156.53 180.26,156.53 179.95,156.47 C179.69,156.41 179.69,156.41 179.43,156.34 C179.24,156.26 179.24,156.27 179.06,156.19 C178.97,156.12 178.97,156.12 178.88,156.04 "/><path d="M182.70,156.50 C182.58,156.55 182.58,156.55 182.46,156.59 C182.26,156.62 182.26,156.62 182.05,156.64 C181.78,156.65 181.78,156.65 181.51,156.65 C181.20,156.63 181.20,156.63 180.89,156.61 C180.58,156.57 180.58,156.57 180.26,156.52 C179.98,156.46 179.98,156.46 179.70,156.40 C179.48,156.33 179.48,156.33 179.26,156.26 C179.13,156.19 179.12,156.19 178.99,156.11 "/><path d="M178.95,156.06 C179.09,156.14 179.09,156.14 179.23,156.21 C179.45,156.29 179.45,156.29 179.68,156.36 C179.97,156.42 179.97,156.42 180.25,156.48 C180.57,156.53 180.57,156.53 180.90,156.57 C181.21,156.59 181.21,156.59 181.53,156.61 C181.81,156.61 181.81,156.61 182.09,156.61 C182.30,156.58 182.30,156.58 182.51,156.55 C182.63,156.51 182.64,156.51 182.76,156.45 "/><path d="M179.24,154.48 C179.32,154.55 179.32,154.55 179.40,154.61 C179.57,154.68 179.57,154.68 179.74,154.75 C179.97,154.81 179.97,154.81 180.21,154.87 C180.49,154.92 180.49,154.92 180.77,154.97 C181.06,155.00 181.06,155.00 181.36,155.03 C181.55,155.04 181.55,155.04 181.75,155.04 C182.05,155.03 182.05,155.03 182.36,155.02 C182.51,154.99 182.51,154.99 182.66,154.95 "/><path d="M179.03,154.70 C179.12,154.77 179.12,154.78 179.21,154.85 C179.39,154.93 179.39,154.92 179.58,155.00 C179.84,155.07 179.84,155.07 180.10,155.13 C180.41,155.19 180.41,155.19 180.72,155.24 C181.04,155.28 181.04,155.27 181.36,155.31 C181.56,155.31 181.56,155.31 181.75,155.32 C181.86,155.32 181.86,155.32 181.97,155.33 C182.22,155.31 182.22,155.31 182.47,155.29 C182.64,155.26 182.64,155.26 182.81,155.22 "/><path d="M179.78,154.37 C179.83,154.42 179.83,154.42 179.89,154.47 C180.01,154.52 180.01,154.52 180.13,154.57 C180.29,154.61 180.30,154.61 180.46,154.65 C180.66,154.69 180.66,154.69 180.86,154.72 C181.07,154.74 181.07,154.74 181.27,154.76 C181.51,154.77 181.51,154.77 181.75,154.77 C181.86,154.76 181.86,154.77 181.98,154.76 C182.09,154.73 182.09,154.73 182.20,154.71 "/><path d="M182.79,156.44 L182.65,156.56 "/><path d="M182.76,156.45 L182.70,156.50 "/><path d="M178.99,156.11 L178.95,156.06 "/><path d="M182.76,156.45 L182.77,156.40 "/><path d="M178.95,156.06 L178.90,155.97 "/><path d="M179.49,154.27 L179.27,154.36 L179.24,154.48 "/><path d="M182.66,154.95 L182.79,154.84 L182.73,154.72 "/><path d="M182.81,155.22 L182.95,155.10 "/><path d="M179.07,154.57 L179.07,154.57 "/><path d="M180.23,154.19 L179.96,154.23 L179.80,154.29 L179.78,154.37 "/><path d="M182.20,154.71 L182.29,154.63 L182.24,154.54 L182.06,154.45 "/><path d="M182.48,154.58 L182.47,154.58 "/><path d="M181.77,154.35 L181.78,154.35 "/></g><g style="stroke:#000000;stroke-width:0.529"><path d="M182.35,164.99 C182.06,165.07 182.06,165.07 181.78,165.13 C181.46,165.16 181.46,165.16 181.14,165.17 C180.75,165.16 180.75,165.16 180.36,165.15 C179.95,165.11 179.95,165.11 179.53,165.06 C179.14,165.00 179.14,165.00 178.74,164.93 C178.41,164.84 178.41,164.84 178.07,164.75 C177.84,164.66 177.84,164.66 177.60,164.56 C177.33,164.40 177.33,164.40 177.06,164.23 C176.92,164.11 176.92,164.11 176.78,163.99 C176.60,163.79 176.60,163.79 176.43,163.59 "/><path d="M181.77,154.35 C181.59,154.31 181.59,154.31 181.40,154.27 C181.20,154.24 181.20,154.24 180.99,154.22 C180.79,154.20 180.79,154.20 180.59,154.19 C180.41,154.19 180.41,154.19 180.23,154.19 C179.86,154.23 179.86,154.23 179.49,154.27 C179.34,154.32 179.34,154.32 179.20,154.38 C179.17,154.40 179.16,154.40 179.13,154.43 "/><path d="M179.13,154.43 L179.09,154.49 L179.03,154.70 L178.88,155.92 L178.90,155.97 L178.47,159.67 "/><path d="M182.48,154.58 L182.79,154.75 L182.91,154.95 L182.94,155.02 L182.95,155.10 L182.77,156.39 L182.79,156.44 L182.38,160.11 "/><path d="M181.78,154.35 L182.47,154.58 "/></g></g><g id="Actor_.13"><g style="stroke:#000000;stroke-width:0.176"><path d="M173.86,161.41 L171.95,160.23 L170.87,159.11 L-0.00,126.22 "/><path d="M-0.00,113.52 L164.31,145.15 L166.15,146.02 L169.91,150.69 L170.47,150.00 L171.13,150.91 L171.35,151.98 L170.71,152.77 L170.87,159.11 L171.51,158.13 L171.35,151.98 "/><path d="M-0.00,112.61 L164.96,144.36 L164.31,145.15 "/><path d="M166.88,146.76 L167.52,145.96 L166.23,144.87 L164.96,144.36 "/><path d="M167.52,145.96 L170.56,149.90 "/><path d="M169.91,150.69 L170.71,152.77 "/><path d="M171.52,158.32 L173.39,159.47 L174.81,159.85 L174.68,161.49 "/><path d="M172.85,157.68 L172.88,157.98 L171.51,158.11 "/><path d="M173.99,159.69 L183.96,161.61 L183.94,163.27 "/><path d="M173.14,155.20 L178.85,156.30 "/><path d="M173.31,153.67 L179.02,154.77 "/><path d="M178.50,159.36 L178.61,159.76 L180.32,160.17 L182.00,160.20 L182.48,160.04 L182.41,159.81 "/><path d="M182.55,159.96 L182.54,160.00 "/><path d="M182.72,157.05 L191.15,158.67 L191.01,160.31 "/><path d="M193.83,157.98 L193.34,157.52 L182.89,155.51 "/><path d="M184.12,161.64 L187.19,161.94 L188.93,161.60 L188.74,163.23 "/><path d="M188.93,161.60 L191.40,158.55 L192.32,158.35 L192.49,159.59 "/><path d="M191.17,158.89 L191.03,160.28 "/><path d="M192.12,159.73 L191.92,159.82 "/><path d="M192.32,158.35 L193.94,156.81 "/></g><g style="stroke:#000000;stroke-width:0.529"><path d="M194.95,156.63 L192.49,159.59 L191.03,160.28 L188.74,163.23 L187.83,163.52 L185.07,163.44 L-0.00,127.95 "/><path d="M192.49,159.59 L192.12,159.73 "/></g></g><g id="Actor_.14"><g style="stroke:#000000;stroke-width:0.176"><path d="M108.93,122.92 C108.77,123.08 108.77,123.08 108.60,123.22 C108.37,123.34 108.37,123.34 108.13,123.45 C107.83,123.52 107.83,123.52 107.53,123.59 C107.21,123.61 107.21,123.61 106.88,123.62 C106.57,123.59 106.57,123.59 106.25,123.55 C105.98,123.47 105.98,123.47 105.71,123.38 C105.51,123.26 105.51,123.26 105.32,123.12 "/><path d="M105.49,123.22 C105.73,123.33 105.73,123.33 105.97,123.43 C106.26,123.50 106.26,123.50 106.56,123.56 C106.88,123.57 106.88,123.57 107.21,123.58 C107.37,123.56 107.37,123.56 107.53,123.54 C107.68,123.52 107.68,123.52 107.84,123.49 C108.11,123.39 108.12,123.40 108.39,123.30 C108.59,123.17 108.59,123.17 108.79,123.03 "/><path d="M108.79,123.03 C108.58,123.18 108.58,123.18 108.35,123.32 C108.09,123.42 108.09,123.42 107.82,123.51 C107.67,123.54 107.67,123.54 107.52,123.56 C107.36,123.58 107.36,123.58 107.20,123.59 C106.89,123.59 106.89,123.59 106.57,123.58 C106.28,123.52 106.28,123.52 106.00,123.45 C105.76,123.35 105.76,123.35 105.53,123.24 "/><path d="M105.46,120.82 C105.64,120.69 105.65,120.69 105.83,120.58 C106.08,120.48 106.08,120.48 106.33,120.41 C106.62,120.36 106.62,120.36 106.90,120.32 C107.20,120.33 107.20,120.33 107.49,120.34 C107.76,120.39 107.76,120.39 108.03,120.45 C108.25,120.55 108.25,120.55 108.46,120.65 "/><path d="M108.72,121.50 C108.58,121.63 108.58,121.64 108.43,121.76 C108.22,121.87 108.21,121.87 107.99,121.97 C107.72,122.04 107.72,122.04 107.45,122.10 C107.16,122.12 107.16,122.12 106.86,122.13 C106.58,122.10 106.58,122.10 106.29,122.07 C106.05,121.99 106.04,121.99 105.80,121.91 C105.62,121.80 105.62,121.80 105.44,121.68 "/><path d="M105.29,121.94 C105.48,122.07 105.48,122.07 105.68,122.19 C105.95,122.28 105.95,122.28 106.22,122.36 C106.53,122.40 106.54,122.40 106.85,122.43 C107.17,122.42 107.17,122.42 107.50,122.40 C107.80,122.33 107.80,122.33 108.10,122.26 C108.34,122.15 108.34,122.15 108.58,122.03 C108.74,121.89 108.75,121.89 108.90,121.74 "/><path d="M105.91,121.42 C106.03,121.50 106.03,121.50 106.16,121.58 C106.33,121.64 106.33,121.64 106.51,121.69 C106.71,121.72 106.71,121.72 106.91,121.74 C107.12,121.73 107.12,121.73 107.32,121.71 C107.52,121.67 107.52,121.67 107.71,121.62 C107.86,121.55 107.87,121.55 108.02,121.48 C108.12,121.39 108.12,121.38 108.22,121.29 "/><path d="M108.04,120.69 C107.89,120.62 107.89,120.61 107.73,120.55 C107.54,120.51 107.54,120.51 107.35,120.47 C107.15,120.46 107.15,120.46 106.94,120.46 C106.74,120.48 106.73,120.48 106.53,120.51 C106.36,120.57 106.35,120.57 106.18,120.64 C106.05,120.72 106.05,120.72 105.92,120.80 "/><path d="M109.04,122.60 L109.01,122.68 L109.01,122.72 L108.99,122.75 L108.93,122.92 "/><path d="M105.32,123.12 L105.11,122.82 "/><path d="M105.19,122.93 L105.12,122.70 "/><path d="M105.19,122.93 L105.49,123.22 "/><path d="M105.53,123.24 L105.49,123.22 "/><path d="M105.26,121.40 L105.27,121.10 L105.46,120.82 "/><path d="M108.46,120.65 L108.73,120.91 L108.82,121.20 L108.72,121.50 "/><path d="M105.44,121.68 L105.26,121.40 "/><path d="M105.08,121.63 L105.29,121.94 "/><path d="M108.90,121.74 L109.01,121.41 "/><path d="M105.78,121.11 L105.78,121.22 L105.91,121.42 "/><path d="M108.22,121.29 L108.29,121.08 L108.23,120.87 L108.04,120.69 "/><path d="M105.92,120.80 L105.78,121.01 L105.78,121.11 "/><path d="M108.79,123.03 L108.99,122.75 "/><path d="M109.02,122.51 L109.01,122.69 "/></g><g style="stroke:#000000;stroke-width:0.529"><path d="M108.86,120.96 C108.72,120.82 108.72,120.82 108.57,120.69 C108.32,120.56 108.32,120.56 108.07,120.45 C107.79,120.39 107.79,120.39 107.51,120.33 C107.21,120.32 107.20,120.32 106.90,120.32 C106.60,120.35 106.60,120.35 106.30,120.40 C106.04,120.48 106.04,120.48 105.78,120.58 C105.56,120.71 105.56,120.72 105.35,120.86 "/><path d="M109.13,125.95 L109.04,122.60 L109.02,122.51 L109.01,121.41 L108.90,121.02 L108.86,120.96 "/><path d="M105.35,120.86 L105.10,121.23 L105.09,121.30 L105.08,121.63 L105.09,122.61 L105.12,122.70 L105.20,126.08 "/></g></g><g id="Actor_.15"><g style="stroke:#000000;stroke-width:0.176"><path d="M248.01,87.86 C248.46,86.62 248.46,86.62 248.85,85.36 C249.02,84.00 249.03,83.99 249.13,82.63 C248.97,81.68 248.96,81.67 248.73,80.73 "/><path d="M271.94,58.71 C272.67,57.05 272.67,57.03 273.32,55.34 C273.50,53.99 273.49,53.97 273.60,52.61 C273.43,51.66 273.43,51.65 273.20,50.71 "/><path d="M166.35,161.40 L166.51,160.00 "/><path d="M170.49,162.20 L170.66,160.79 "/><path d="M171.03,162.31 L171.19,160.89 "/><path d="M172.66,161.18 L187.64,164.65 L191.00,160.33 "/><path d="M186.05,165.86 L186.21,164.38 "/><path d="M185.51,165.74 L185.68,164.26 "/><path d="M187.47,166.13 L187.64,164.65 L188.47,164.64 L189.23,164.23 L195.25,157.09 L196.42,158.06 "/><path d="M190.40,165.20 L189.33,164.31 L189.50,163.88 L192.76,159.71 "/><path d="M195.18,159.53 L194.03,158.57 "/><path d="M195.25,157.09 L200.40,150.91 L201.57,151.89 L202.17,150.18 L200.77,149.91 "/><path d="M200.40,150.91 L200.73,150.09 "/><path d="M297.00,33.81 L202.17,150.18 L202.50,137.16 L201.10,136.89 "/><path d="M201.69,133.88 L203.08,134.15 L202.50,137.16 "/><path d="M203.08,134.15 L205.24,128.27 L203.83,128.00 "/><path d="M205.24,128.27 L205.95,126.91 L204.55,126.64 "/><path d="M205.95,126.91 L297.00,15.19 "/><path d="M207.90,135.29 L209.31,135.56 L208.34,136.07 L207.75,135.42 "/><path d="M209.31,135.56 L222.89,118.89 L221.60,118.48 "/><path d="M223.01,118.75 L224.02,116.72 L224.66,112.65 L224.27,110.75 L223.86,110.36 L222.96,110.74 "/><path d="M232.21,105.40 L232.72,106.05 L233.75,105.56 L232.37,105.27 "/><path d="M233.77,105.54 L248.01,87.86 "/><path d="M248.73,80.73 L248.32,80.34 L247.42,80.72 "/><path d="M246.07,88.46 L247.47,88.73 "/><path d="M270.53,58.44 L271.94,58.71 L258.23,75.52 L257.18,76.04 L256.68,75.38 "/><path d="M256.83,75.25 L258.23,75.52 "/><path d="M273.20,50.71 L272.79,50.32 L271.89,50.70 "/><path d="M297.00,27.68 L282.70,45.50 L281.65,46.02 L281.14,45.36 "/><path d="M282.70,45.50 L281.30,45.23 "/><path d="M295.00,28.42 L296.40,28.69 "/><path d="M297.00,20.32 L296.35,20.68 "/></g><g style="stroke:#000000;stroke-width:0.529"><path d="M188.59,166.17 C187.05,165.98 187.04,165.97 185.51,165.74 C175.42,163.47 175.42,163.47 165.35,161.16 C164.77,160.91 164.76,160.91 164.20,160.62 "/><path d="M247.42,80.72 C247.59,81.46 247.60,81.47 247.71,82.22 C247.61,83.65 247.63,83.67 247.45,85.09 C246.81,86.78 246.84,86.83 246.07,88.46 C239.22,96.98 239.20,97.00 232.21,105.40 "/><path d="M297.00,34.79 L201.69,151.73 L190.40,165.20 L188.59,166.17 "/><path d="M164.20,160.62 L164.27,159.56 "/><path d="M191.00,160.33 L192.16,160.16 L192.75,159.70 L195.55,156.31 "/><path d="M200.73,150.09 L201.25,135.56 L204.53,126.67 L297.00,13.20 "/><path d="M207.75,135.42 L207.50,132.46 L208.56,128.55 L222.96,110.74 L223.21,113.70 L222.14,117.62 L207.75,135.42 "/><path d="M232.03,104.87 L232.17,101.11 L233.50,97.78 L247.42,80.72 "/><path d="M232.21,105.40 L232.03,104.87 "/><path d="M256.68,75.38 L256.42,72.43 L257.49,68.51 L271.89,50.70 L272.14,53.66 L271.07,57.58 L256.68,75.38 "/><path d="M281.14,45.36 L295.54,27.56 L296.60,23.64 L296.35,20.68 L281.96,38.49 L280.92,42.22 L281.14,45.36 "/></g></g><g id="Actor_.16"><g style="stroke:#000000;stroke-width:0.176"><path d="M31.78,112.18 L31.19,111.40 L31.35,111.07 "/><path d="M35.28,111.01 L35.39,111.64 L34.90,112.10 "/><path d="M105.61,126.39 L105.02,125.61 L105.18,125.27 "/><path d="M108.72,126.31 L109.21,125.85 L109.11,125.22 "/><path d="M193.25,156.77 L193.21,155.33 L171.17,151.08 "/><path d="M179.00,139.50 L178.96,140.22 L179.43,140.60 "/><path d="M182.93,139.41 L183.05,140.00 L182.55,140.52 "/><path d="M199.56,147.54 L193.21,155.33 L193.80,155.35 L194.73,154.88 L196.01,155.95 "/><path d="M194.73,154.88 L200.24,148.11 "/><path d="M195.08,154.44 L199.95,148.69 L200.78,149.38 "/><path d="M197.85,151.11 L198.37,150.49 L197.20,151.91 "/><path d="M197.90,151.06 L197.94,151.02 "/><path d="M198.37,150.49 L200.26,148.32 "/><path d="M199.69,148.89 L200.30,148.15 L199.69,148.89 L200.19,148.30 "/><path d="M199.95,148.69 L200.82,147.65 "/><path d="M200.22,148.26 L200.30,148.15 "/><path d="M200.20,148.28 L200.83,147.55 "/></g><g style="stroke:#000000;stroke-width:0.529"><path d="M31.78,112.18 L33.25,112.50 L34.90,112.10 "/><path d="M108.72,126.31 L107.18,126.72 L105.61,126.39 "/><path d="M179.97,154.21 L173.39,152.95 "/><path d="M179.44,140.60 L181.01,140.92 L182.55,140.52 "/><path d="M200.67,150.43 L196.01,155.95 L195.27,156.53 L194.33,156.82 L182.80,154.76 "/></g></g><g id="Actor_.17"><g style="stroke:#000000;stroke-width:0.176"><path d="M35.10,108.72 C34.94,108.87 34.94,108.87 34.77,109.02 C34.71,109.05 34.71,109.05 34.65,109.08 C34.47,109.16 34.47,109.16 34.29,109.24 "/><path d="M34.29,109.24 C33.99,109.32 33.99,109.32 33.69,109.38 C33.36,109.40 33.36,109.40 33.04,109.41 C32.72,109.38 32.72,109.38 32.41,109.34 C32.14,109.26 32.14,109.26 31.87,109.16 C31.68,109.04 31.67,109.04 31.48,108.91 "/><path d="M31.77,109.06 C31.95,109.14 31.95,109.14 32.12,109.22 C32.42,109.29 32.42,109.29 32.71,109.35 C33.04,109.36 33.04,109.36 33.36,109.37 C33.52,109.36 33.52,109.35 33.68,109.34 C33.84,109.31 33.84,109.31 34.00,109.28 C34.27,109.19 34.27,109.19 34.55,109.10 C34.75,108.97 34.76,108.97 34.96,108.83 "/><path d="M34.96,108.83 C34.74,108.98 34.74,108.98 34.51,109.12 C34.25,109.22 34.25,109.21 33.98,109.30 C33.83,109.33 33.83,109.33 33.67,109.36 C33.52,109.37 33.52,109.37 33.36,109.39 C33.04,109.38 33.04,109.38 32.73,109.36 C32.44,109.31 32.44,109.31 32.15,109.24 C31.92,109.14 31.92,109.14 31.70,109.03 "/><path d="M35.06,107.54 C34.91,107.69 34.91,107.69 34.74,107.83 C34.55,107.92 34.55,107.92 34.35,108.01 C34.30,108.03 34.30,108.03 34.26,108.05 "/><path d="M34.26,108.05 C33.96,108.13 33.96,108.13 33.65,108.19 C33.33,108.21 33.33,108.21 33.01,108.23 C32.69,108.19 32.69,108.19 32.38,108.15 C32.11,108.07 32.11,108.07 31.84,107.98 C31.64,107.85 31.64,107.85 31.45,107.72 "/><path d="M31.61,107.46 C31.78,107.58 31.78,107.58 31.96,107.70 C32.09,107.74 32.09,107.74 32.21,107.78 C32.33,107.82 32.33,107.82 32.45,107.85 C32.73,107.89 32.73,107.89 33.02,107.92 C33.31,107.91 33.31,107.91 33.61,107.89 C33.88,107.84 33.88,107.84 34.15,107.77 C34.38,107.67 34.38,107.67 34.60,107.56 C34.74,107.44 34.75,107.43 34.89,107.30 "/><path d="M34.64,106.45 C34.43,106.34 34.43,106.34 34.21,106.25 C33.95,106.19 33.95,106.19 33.68,106.13 C33.39,106.12 33.39,106.12 33.09,106.11 C32.80,106.15 32.80,106.15 32.52,106.19 C32.27,106.27 32.26,106.27 32.02,106.36 C31.83,106.47 31.83,106.48 31.64,106.60 "/><path d="M32.07,107.20 C32.20,107.29 32.20,107.29 32.32,107.37 C32.49,107.43 32.49,107.43 32.67,107.48 C32.87,107.51 32.87,107.51 33.07,107.53 C33.28,107.52 33.28,107.52 33.49,107.50 C33.68,107.46 33.68,107.46 33.87,107.42 C34.03,107.35 34.03,107.35 34.18,107.27 C34.27,107.20 34.27,107.20 34.35,107.12 "/><path d="M34.22,106.48 C34.07,106.41 34.07,106.41 33.91,106.34 C33.73,106.30 33.73,106.30 33.54,106.26 C33.33,106.25 33.33,106.25 33.12,106.25 C32.92,106.27 32.92,106.27 32.72,106.30 C32.54,106.36 32.54,106.36 32.36,106.42 C32.23,106.50 32.23,106.50 32.10,106.59 "/><path d="M35.22,108.40 L35.18,108.49 L35.18,108.52 L35.16,108.55 L35.10,108.72 "/><path d="M31.48,108.91 L31.28,108.60 "/><path d="M31.70,109.03 L31.66,109.00 L31.77,109.06 "/><path d="M31.36,108.72 L31.66,109.00 "/><path d="M35.18,107.21 L35.06,107.54 "/><path d="M31.45,107.72 L31.25,107.41 "/><path d="M31.36,108.71 L31.29,108.48 "/><path d="M31.60,106.67 L31.44,106.88 L31.43,107.18 L31.61,107.46 "/><path d="M34.89,107.30 L35.00,107.00 L34.91,106.71 L34.64,106.45 "/><path d="M31.64,106.60 L31.60,106.67 "/><path d="M32.05,106.67 L31.96,106.79 L31.95,107.00 L32.07,107.20 "/><path d="M34.35,107.12 L34.39,107.08 L34.47,106.88 L34.41,106.67 L34.22,106.48 "/><path d="M32.10,106.59 L32.05,106.67 "/><path d="M35.16,108.55 L34.96,108.83 "/><path d="M35.19,108.31 L35.18,108.49 "/></g><g style="stroke:#000000;stroke-width:0.529"><path d="M34.75,106.48 C34.51,106.36 34.50,106.36 34.26,106.25 C33.98,106.18 33.98,106.18 33.70,106.13 C33.39,106.11 33.39,106.11 33.09,106.11 C32.79,106.14 32.79,106.14 32.49,106.19 C32.23,106.27 32.23,106.27 31.97,106.36 C31.75,106.50 31.75,106.50 31.53,106.65 "/><path d="M35.30,111.75 L35.22,108.40 L35.19,108.31 L35.18,107.21 L35.08,106.82 L35.04,106.76 L34.75,106.48 "/><path d="M31.53,106.65 L31.28,107.01 L31.25,107.41 L31.26,108.39 L31.29,108.48 L31.28,108.60 L31.37,111.87 "/></g></g><g id="Actor_.18"><g style="stroke:#000000;stroke-width:0.176"><path d="M182.39,137.46 C182.14,137.57 182.14,137.58 181.88,137.68 C181.58,137.75 181.58,137.75 181.28,137.81 C180.95,137.82 180.95,137.82 180.63,137.83 C180.31,137.79 180.31,137.79 180.00,137.74 C179.74,137.66 179.74,137.66 179.48,137.56 C179.29,137.43 179.29,137.43 179.11,137.30 "/><path d="M179.27,137.39 C179.49,137.51 179.50,137.51 179.73,137.62 C180.01,137.69 180.02,137.69 180.31,137.76 C180.63,137.78 180.63,137.77 180.95,137.79 C181.11,137.78 181.11,137.78 181.27,137.76 C181.43,137.74 181.43,137.74 181.59,137.71 C181.87,137.63 181.87,137.63 182.15,137.54 C182.37,137.41 182.37,137.41 182.58,137.28 "/><path d="M179.31,137.42 C179.53,137.54 179.53,137.54 179.76,137.64 C180.04,137.71 180.04,137.71 180.32,137.77 C180.64,137.80 180.64,137.79 180.95,137.81 C181.11,137.80 181.11,137.79 181.27,137.78 C181.42,137.76 181.42,137.76 181.57,137.73 C181.85,137.65 181.85,137.65 182.12,137.56 C182.35,137.43 182.35,137.43 182.58,137.28 "/><path d="M179.24,135.85 C179.40,135.98 179.40,135.98 179.57,136.09 C179.81,136.18 179.81,136.18 180.05,136.26 C180.33,136.30 180.33,136.30 180.61,136.34 C180.91,136.33 180.91,136.33 181.20,136.32 C181.48,136.27 181.48,136.27 181.76,136.20 C181.99,136.11 181.99,136.11 182.21,136.00 C182.37,135.88 182.37,135.88 182.52,135.74 "/><path d="M182.33,134.89 C182.13,134.78 182.13,134.78 181.92,134.68 C181.66,134.62 181.66,134.62 181.39,134.56 C181.10,134.54 181.10,134.54 180.81,134.53 C180.52,134.56 180.52,134.56 180.23,134.60 C179.97,134.67 179.97,134.67 179.72,134.76 C179.52,134.87 179.52,134.87 179.33,134.99 "/><path d="M182.70,135.98 C182.53,136.13 182.53,136.13 182.36,136.27 C182.11,136.39 182.11,136.39 181.85,136.49 C181.55,136.56 181.55,136.56 181.24,136.62 C180.92,136.63 180.92,136.63 180.59,136.64 C180.28,136.60 180.28,136.60 179.97,136.55 C179.71,136.47 179.71,136.47 179.45,136.37 C179.26,136.24 179.26,136.24 179.08,136.11 "/><path d="M180.28,135.89 C180.48,135.92 180.48,135.92 180.68,135.94 C180.89,135.94 180.89,135.94 181.10,135.93 C181.29,135.89 181.30,135.89 181.49,135.85 C181.65,135.78 181.65,135.78 181.81,135.71 C181.92,135.62 181.92,135.62 182.03,135.52 "/><path d="M181.90,134.92 C181.75,134.84 181.75,134.84 181.60,134.77 C181.42,134.72 181.42,134.73 181.23,134.68 C181.03,134.67 181.03,134.67 180.82,134.66 C180.61,134.68 180.61,134.68 180.41,134.71 C180.23,134.77 180.23,134.77 180.05,134.83 C179.91,134.90 179.91,134.90 179.78,134.99 "/><path d="M182.87,136.85 L182.82,136.95 L182.82,136.97 L182.81,136.99 L182.73,137.17 L182.48,137.38 L182.39,137.46 "/><path d="M179.11,137.30 L178.93,136.98 "/><path d="M179.00,137.11 L179.27,137.39 "/><path d="M182.58,137.28 L182.81,136.99 "/><path d="M179.27,137.39 L179.31,137.42 "/><path d="M178.94,136.87 L178.99,137.09 "/><path d="M179.08,135.56 L179.08,135.57 L179.24,135.85 "/><path d="M182.52,135.74 L182.65,135.45 L182.58,135.15 L182.33,134.89 "/><path d="M179.33,134.99 L179.11,135.27 L179.08,135.56 "/><path d="M182.84,135.66 L182.70,135.98 "/><path d="M179.08,136.11 L178.90,135.79 "/><path d="M182.03,135.52 L182.12,135.31 L182.07,135.11 L181.90,134.92 "/><path d="M179.78,134.99 L179.62,135.19 L179.60,135.40 L179.71,135.60 L179.95,135.77 L180.28,135.89 "/><path d="M182.82,136.95 L182.85,136.75 "/></g><g style="stroke:#000000;stroke-width:0.529"><path d="M182.44,134.93 C182.21,134.80 182.20,134.80 181.96,134.68 C181.69,134.61 181.69,134.61 181.41,134.55 C181.11,134.53 181.11,134.53 180.81,134.52 C180.50,134.55 180.50,134.55 180.20,134.59 C179.94,134.67 179.93,134.67 179.67,134.76 C179.44,134.89 179.44,134.89 179.22,135.04 "/><path d="M182.95,140.17 L182.87,136.85 L182.85,136.75 L182.86,136.64 L182.84,135.66 L182.75,135.27 L182.71,135.21 L182.44,134.93 "/><path d="M179.22,135.04 L178.98,135.34 L178.95,135.40 L178.90,135.79 L178.92,136.77 L178.94,136.87 L178.93,136.98 L179.02,140.28 "/></g></g><g id="Actor_.19"><g style="stroke:#000000;stroke-width:0.176"><path d="M196.38,144.65 L198.66,141.90 "/><path d="M196.45,144.95 L197.48,143.72 L198.97,141.92 "/><path d="M196.59,144.15 L198.21,142.21 "/><path d="M197.54,145.78 L197.74,145.56 L197.50,145.83 "/><path d="M197.74,145.56 L198.37,144.81 L197.74,145.56 "/><path d="M197.47,145.79 L198.71,144.33 L199.99,142.76 "/><path d="M198.37,144.81 L198.68,144.44 L198.37,144.81 "/><path d="M198.68,144.44 L199.48,143.48 L198.68,144.44 "/><path d="M199.48,143.48 L199.60,143.33 L199.48,143.48 "/><path d="M200.00,142.83 L199.60,143.33 L200.03,142.80 "/><path d="M201.67,151.99 L203.79,149.49 L206.84,145.79 "/></g><g style="stroke:#000000;stroke-width:0.529"><path d="M198.74,141.87 C198.46,142.03 198.46,142.04 198.20,142.22 C197.80,142.67 197.80,142.68 197.41,143.15 C197.00,143.65 196.99,143.64 196.59,144.15 C196.46,144.43 196.46,144.44 196.36,144.73 "/><path d="M206.84,145.79 C206.98,146.12 206.98,146.13 207.09,146.47 C207.13,146.82 207.13,146.83 207.15,147.19 C207.08,147.54 207.08,147.54 207.00,147.89 "/><path d="M203.77,151.77 C203.44,151.92 203.43,151.92 203.10,152.05 C202.74,152.10 202.74,152.10 202.38,152.12 C202.02,152.07 202.02,152.07 201.67,151.99 "/><path d="M200.93,143.55 L200.03,142.80 L200.00,142.83 L199.99,142.76 L198.97,141.92 L198.90,141.88 L198.74,141.87 "/><path d="M196.36,144.73 L196.36,144.81 L196.45,144.95 L197.47,145.79 L197.54,145.78 L197.50,145.83 L200.31,148.17 "/><path d="M206.61,145.70 L206.84,145.79 "/><path d="M207.00,147.89 L206.56,148.43 L203.77,151.77 "/><path d="M201.67,151.99 L201.59,151.86 "/></g></g><g id="Actor_.20"><g style="stroke:#000000;stroke-width:0.176"><path d="M289.34,30.57 L290.65,29.02 L291.63,27.83 "/><path d="M291.93,27.85 L290.85,29.16 L289.41,30.87 "/><path d="M291.18,28.13 L289.56,30.07 "/><path d="M290.50,31.70 L291.02,31.11 L290.47,31.75 "/><path d="M291.02,31.11 L291.46,30.59 L291.02,31.11 "/><path d="M290.44,31.71 L291.67,30.26 L292.96,28.69 "/><path d="M291.80,30.17 L291.95,30.00 L291.46,30.59 L291.80,30.17 "/><path d="M292.40,29.46 L292.57,29.25 L291.95,30.00 L292.40,29.46 "/><path d="M292.96,28.75 L292.57,29.25 L292.99,28.73 "/><path d="M294.63,37.92 L297.00,35.13 "/></g><g style="stroke:#000000;stroke-width:0.529"><path d="M291.16,28.15 C290.43,29.02 290.43,29.02 289.70,29.89 C289.63,29.98 289.63,29.98 289.56,30.07 C289.45,30.32 289.45,30.32 289.34,30.57 C289.33,30.61 289.33,30.61 289.32,30.65 "/><path d="M296.73,37.69 C296.40,37.84 296.40,37.84 296.06,37.97 C295.71,38.02 295.70,38.02 295.34,38.05 C294.99,37.99 294.98,37.99 294.63,37.92 "/><path d="M294.04,29.60 L292.99,28.73 L292.97,28.75 L292.96,28.69 L291.93,27.85 L291.86,27.80 L291.78,27.79 L291.70,27.80 L291.63,27.83 L291.16,28.15 "/><path d="M289.32,30.65 L289.33,30.73 L289.36,30.81 L289.41,30.87 L290.44,31.71 L290.50,31.70 L290.47,31.75 L291.55,32.65 "/><path d="M297.00,37.39 L296.73,37.69 "/><path d="M294.63,37.92 L294.55,37.79 "/></g></g><g id="Actor_.21"><g style="stroke:#000000;stroke-width:0.176"><path d="M181.01,114.57 C181.27,114.59 181.27,114.59 181.54,114.61 C181.80,114.59 181.80,114.59 182.06,114.56 C182.30,114.49 182.30,114.49 182.54,114.42 C182.72,114.32 182.72,114.32 182.90,114.22 "/><path d="M181.01,114.57 C181.27,114.59 181.28,114.59 181.54,114.61 C181.80,114.58 181.80,114.58 182.06,114.55 C182.30,114.49 182.30,114.49 182.53,114.42 C182.72,114.32 182.72,114.32 182.90,114.22 "/><path d="M182.88,113.34 C182.70,113.45 182.69,113.45 182.51,113.54 C182.28,113.62 182.28,113.62 182.04,113.68 C181.78,113.71 181.78,113.71 181.51,113.73 C181.34,113.72 181.33,113.72 181.16,113.71 "/><path d="M182.23,112.70 C182.14,112.76 182.14,112.76 182.04,112.81 C181.92,112.85 181.91,112.85 181.79,112.88 C181.65,112.90 181.65,112.90 181.51,112.91 "/><path d="M180.94,114.55 L181.01,114.57 "/><path d="M182.90,114.22 L183.05,114.05 "/><path d="M180.94,114.55 L181.01,114.57 "/><path d="M182.90,114.22 L183.05,114.04 "/><path d="M183.14,112.83 L183.09,113.09 L182.88,113.34 "/><path d="M181.94,112.09 L182.16,112.17 L182.31,112.29 L182.37,112.43 L182.35,112.57 L182.23,112.70 "/><path d="M181.51,112.91 L181.40,112.90 "/></g><g style="stroke:#000000;stroke-width:0.529"><path d="M181.94,112.09 C182.13,112.13 182.13,112.13 182.32,112.18 C182.53,112.26 182.53,112.26 182.73,112.34 C182.88,112.45 182.88,112.45 183.02,112.56 "/><path d="M181.74,112.06 L181.94,112.09 "/><path d="M183.02,112.56 L183.14,112.82 "/></g></g><g id="Actor_.22"><g style="stroke:#000000;stroke-width:0.176"><path d="M218.24,117.89 L215.95,120.63 "/><path d="M218.54,117.90 L217.49,119.19 L216.02,120.93 "/><path d="M217.11,121.77 L217.68,121.11 L217.08,121.81 "/><path d="M217.04,121.77 L218.32,120.27 L219.56,118.75 "/><path d="M216.17,120.13 L217.78,118.19 "/><path d="M217.68,121.11 L218.32,120.35 L217.68,121.11 "/><path d="M218.60,120.00 L218.32,120.35 L219.43,119.00 L218.60,120.00 "/><path d="M219.43,119.00 L219.52,118.89 L219.43,119.00 "/><path d="M219.57,118.81 L219.52,118.89 L219.60,118.78 "/><path d="M226.41,121.77 L224.22,124.44 L221.24,127.98 "/></g><g style="stroke:#000000;stroke-width:0.529"><path d="M217.76,118.21 C217.03,119.09 217.03,119.09 216.30,119.96 C216.23,120.05 216.23,120.05 216.17,120.13 C216.05,120.38 216.05,120.38 215.95,120.63 "/><path d="M226.41,121.77 C226.55,122.10 226.55,122.11 226.67,122.45 C226.71,122.80 226.71,122.81 226.72,123.17 C226.66,123.52 226.66,123.52 226.57,123.87 "/><path d="M223.34,127.75 C223.01,127.90 223.01,127.90 222.67,128.03 C222.32,128.08 222.31,128.08 221.95,128.11 C221.60,128.05 221.59,128.05 221.24,127.98 "/><path d="M220.64,119.66 L219.60,118.78 L219.57,118.81 L219.56,118.75 L218.54,117.90 L218.39,117.84 L218.24,117.89 L217.76,118.21 "/><path d="M215.95,120.63 L215.93,120.79 L215.96,120.87 L217.04,121.77 L217.11,121.77 L217.08,121.81 L218.16,122.71 "/><path d="M226.19,121.68 L226.41,121.77 "/><path d="M226.57,123.87 L226.15,124.40 L223.34,127.75 "/><path d="M221.24,127.98 L221.16,127.85 "/></g></g><g id="paperID" visibility="hidden" opacity="0.00" transform="scale(0.000100)"><path style="stroke:#000000;stroke-width:0.500;fill:#e6e6e6;fill-rule:evenodd" d="M-2000.00,-2000.00L2297.00,-2000.00L2297.00,2210.00L-2000.00,2210.00zM0.00,0.00L297.00,0.00L297.00,210.00L0.00,210.00z"/><path style="fill:#000000;fill-opacity:0.118" d="M3.00,210.00L297.00,210.00L297.00,3.00L300.00,3.00L300.00,213.00L3.00,213.00z"/></g><g id="ToolTip" visibility="hidden" opacity="0" transform="translate(0,0)"><rect id="ToolTipShadow" opacity="0.20" fill="black" stroke="none" x="0" y="0" width="30" height="8"/><rect id="ToolTipBG" fill="#ffffe1" stroke="black" x="0" y="0" width="30" height="8"/><text xml:space="preserve" id="ToolTipText" fill="black" x="0" y="0" width="30" height="8">tooltip</text></g></g></svg>
