<?xml version="1.0" encoding="UTF-8" standalone="no"?>
<svg xmlns="http://www.w3.org/2000/svg" xmlns:xlink="http://www.w3.org/1999/xlink" width="297.000mm" height="210.000mm" viewBox="0.000000 0.000000 297.000000 210.000000" stroke-linejoin="round" stroke-linecap="round" fill="none" fill-rule="evenodd"><desc>Composer Export</desc><script type="text/ecmascript"><![CDATA[
if(typeof(top) != "undefined")
{
	top.ShowPaper = ShowPaper;
}
function ShowHotSpot(evt,hotspotid)
{
	var svgDocument = evt.target.ownerDocument;
	var strId = "hotspot."+hotspotid;
	var hotspot = svgDocument.getElementById(strId);
	if(hotspot)
		hotspot.setAttribute("opacity",".5");
}
function HideHotSpot(evt,hotspotid)
{
	var svgDocument = evt.target.ownerDocument;
	var strId = "hotspot."+hotspotid;
	var hotspot = svgDocument.getElementById(strId);
	if(hotspot)
		hotspot.setAttribute("opacity","0");

	var toolTip = svgDocument.getElementById('ToolTip');
	if(toolTip)
		toolTip.setAttribute("visibility","hidden");
}
function ShowToolTip(evt,hotspotid,strTooltip)
{
	if(strTooltip=="")
	return;

	// change text
	var svgDocument = evt.target.ownerDocument;
	var tiptext = svgDocument.getElementById('ToolTipText');
	if( !tiptext )
	return;
	tiptext.firstChild.nodeValue = " " + strTooltip + "  " ;

	// show tooltip before, else some refresh issue

	var toolTip = svgDocument.getElementById('ToolTip');
	if(!toolTip)
	return;

	toolTip.setAttribute("visibility","visible");
	toolTip.setAttribute("opacity",".95");

	// move tooltip
	// get viewbox

	var root = svgDocument.documentElement;
	var vbox = (root.getAttribute("viewBox")).split(' ');
	var x0 = parseFloat(vbox[0]);
	var y0 = parseFloat(vbox[1]);
	var vboxW = parseFloat(vbox[2]);
	var vboxH = parseFloat(vbox[3]);

	// get default width of svg

	var strW = root.getAttribute("width");
	var svgW = parseFloat(strW);
	if(strW.indexOf('mm') != -1)
	svgW *= 3.779;

	var strH = root.getAttribute("height");
	var svgH = parseFloat(strH);
	if(strH.indexOf('mm') != -1)
	svgH *= 3.779;  	// 96 dpi  -> 96/25.4 = 3.779

	// update the viewbox / width / height if svg is embedded in html with zoom fit all
	var realx0 = x0;
	var realy0 = y0;
	var realvboxW = vboxW;
	var realvboxH = vboxH;
	var realsvgW = svgW;
	var realsvgH = svgH;

	if ((typeof(top) == "undefined") || (typeof(top.svgctl1) != "undefined")) // embedded in html
	{
		// get window size in pxl

		svgW = window.innerWidth;
		svgH = window.innerHeight;

		// calculate real viewbox

		realsvgW = svgW;
		realsvgH = svgH;
		if((svgW / svgH) > (vboxW / vboxH))
		{
			realvboxW = (vboxH * svgW) / svgH;
			realvboxH = vboxH;
			realx0 = x0 - (realvboxW - vboxW)/2 ;
		}
		else
		{
			realvboxH = (vboxW * svgH) / svgW;
			realvboxW = vboxW;
			realy0 = y0 - (realvboxH - vboxH)/2 ;
		}
	}

	// get user zoom/pan

	var newScale = root.currentScale;
	var translation = root.currentTranslate;

	// transform pxl to user unit

	var xPos = (((evt.clientX+10- translation.x)/newScale) * realvboxW)/realsvgW  + realx0 ;
	var yPos = (((evt.clientY+5- translation.y)/newScale) * realvboxH)/ realsvgH  + realy0 ;
	var scaleForWidth = ( (1 / newScale) * realvboxH) / realsvgH;

	// move tooltip

	toolTip.setAttribute("transform", "translate(" + xPos + "," + yPos + ")" );

	// resize tooltip

	var fontsize = 12;
	tiptext.setAttribute("font-size",fontsize*scaleForWidth);
	tiptext.setAttribute("y", fontsize*scaleForWidth);
	var tipBG = svgDocument.getElementById('ToolTipBG');
	var outline = tiptext.getBBox();
	if(tipBG)
	{
		tipBG.setAttribute("stroke-width", 1*scaleForWidth);
		tipBG.setAttribute("width", Number(outline.width) );
		tipBG.setAttribute("height", Number(outline.height) + fontsize*.5*scaleForWidth );
	}
	var ToolTipShadow = svgDocument.getElementById('ToolTipShadow');
	if(ToolTipShadow)
	{
		ToolTipShadow.setAttribute("width", Number(outline.width) );
		ToolTipShadow.setAttribute("height", Number(outline.height) + fontsize*.5*scaleForWidth );
		ToolTipShadow.setAttribute("x", 3*scaleForWidth);
		ToolTipShadow.setAttribute("y", 3*scaleForWidth);
	}
}
function ShowPaper()
{
  var svgDocument = getDocument();
  var paper = svgDocument.getElementById("paperID");
  if(paper)
  {
    paper.setAttribute("transform","scale(1)");
    paper.setAttribute("opacity","1");
    paper.setAttribute("visibility","visible");
  }
  var svg = svgDocument.getRootElement();
  if(svg)
  {
    svg.setAttribute("width","307.000mm");
    svg.setAttribute("height","220.000mm");
    svg.setAttribute("viewBox","-5.000000 -5.000000 307.000000 220.000000");
  }
}
]]></script><defs/><g><path style="fill:#ffffff" d="M113.06,10.54L108.09,10.26L106.89,10.37L106.50,12.40L106.51,16.81L106.66,20.14L106.78,23.71L106.93,27.31L107.06,30.60L107.21,34.75L107.34,43.84L107.49,52.68L107.33,75.02L107.06,77.78L105.57,83.01L104.03,84.45L103.05,85.95L102.56,87.35L102.43,87.49L102.64,89.08L101.76,89.43L1.39,81.84L0.05,81.63L0.08,0.08L296.92,0.08L296.95,93.76L287.89,93.27L156.08,85.45L150.76,80.06L147.71,78.37L147.09,78.39L146.60,79.89L143.13,78.80L139.79,78.22L139.06,78.03L138.92,76.67L138.91,75.07L138.77,74.98L138.64,74.79L130.72,74.39L128.60,74.26L128.54,74.43L128.42,74.72L128.27,74.84L128.43,75.56L128.52,76.87L126.29,77.00L123.83,76.88L122.15,76.87L120.95,77.10L119.33,78.62L118.97,78.49L118.66,77.47L118.36,76.65L118.27,76.39L118.50,76.02L118.52,74.74L118.51,73.63L118.65,72.53L118.79,67.56L118.79,64.52L118.92,62.33L119.06,57.36L119.07,54.59L119.19,52.13L119.30,48.08L119.19,47.97L119.07,38.34L119.06,30.33L119.03,27.12L118.92,27.02L118.79,25.93L118.79,23.99L118.75,20.77L118.65,20.67L118.51,19.59L118.51,17.65L118.48,14.43L118.37,14.33L118.24,13.24L118.25,11.85L118.24,11.10L118.09,11.02L117.73,10.78L115.55,10.69L115.45,10.58z"/><path style="fill:#dde563" d="M118.66,77.47L118.66,78.88L118.47,79.60L118.47,80.72L119.41,80.51L119.46,81.92L118.33,85.57L116.97,86.08L116.20,87.80L115.27,88.86L113.91,89.42L112.53,89.40L112.23,89.40L111.11,89.38L110.38,89.44L110.27,89.62L109.21,89.97L105.33,89.69L103.69,89.57L102.93,89.35L102.64,89.08L102.43,87.49L102.56,87.35L111.04,87.79L113.72,87.79L114.95,87.37L115.46,87.03L115.58,86.68L115.84,86.04L116.11,85.51L116.05,85.23L116.38,84.12L116.65,83.00L117.20,81.08L117.47,79.97L118.10,78.06L118.25,77.22L118.36,76.65z"/><path style="fill:#ffffff" d="M101.20,93.82L102.51,94.12L102.80,103.70L102.92,105.06L103.07,106.73L103.30,108.76L104.72,111.76L106.93,113.69L111.02,115.38L118.60,116.85L124.28,117.29L133.56,117.29L139.92,116.75L144.05,115.65L147.61,113.69L150.20,111.32L157.37,98.63L157.92,96.15L157.95,94.87L157.91,93.30L157.80,93.20L157.68,91.57L157.82,90.25L159.40,90.11L292.03,97.96L296.70,98.16L296.96,98.45L296.95,148.36L286.51,147.87L1.39,132.30L0.05,132.09L0.06,86.33L0.82,86.26z"/><path style="fill:#f6ff6f" d="M119.41,80.51L118.47,80.72L118.47,79.60L118.66,78.88L119.32,78.87z"/><path style="fill:#f6ff6f" d="M105.23,94.41L105.45,102.49L105.61,102.54L106.46,103.18L107.27,103.36L109.18,103.36L110.77,104.05L111.46,104.79L111.46,105.89L111.32,106.08L111.18,107.57L111.31,108.19L111.85,108.49L113.07,108.71L116.92,109.28L117.96,109.51L120.50,109.82L123.53,110.24L124.36,110.38L126.12,110.40L128.24,110.24L129.61,110.27L138.07,109.94L139.21,109.42L139.26,109.25L139.74,108.84L140.37,106.51L141.46,106.49L142.00,106.82L142.28,107.61L143.31,107.74L143.36,107.55L143.32,106.53L142.59,106.42L142.91,105.35L144.77,105.28L147.11,105.19L147.51,104.84L148.01,104.45L148.14,103.96L148.55,103.62L148.35,103.35L148.62,102.79L149.28,101.84L154.46,92.62L154.79,92.46L157.12,92.48L157.14,92.82L149.85,105.73L147.33,108.17L143.58,110.22L138.81,111.51L130.81,112.06L126.76,112.06L118.36,111.51L118.60,116.85L111.02,115.38L106.93,113.69L104.72,111.76L103.30,108.76L103.07,106.73L103.03,105.16L102.92,105.06L102.80,103.70L102.98,94.11L103.14,93.97L104.80,94.08z"/><path style="fill:#404040" d="M128.43,77.32L128.54,77.68L126.93,77.84L127.59,78.36L127.29,79.61L127.28,80.34L128.79,80.47L129.06,80.46L130.15,80.59L131.58,80.60L132.11,80.32L132.32,80.17L132.31,79.42L132.69,78.39L133.17,78.24L134.58,78.28L136.50,78.25L137.53,78.45L137.94,78.32L138.36,78.40L138.77,79.12L138.65,79.41L138.18,81.32L138.11,81.66L136.10,82.05L135.56,82.89L135.40,84.33L134.29,84.30L133.54,84.08L133.42,83.82L133.17,83.04L132.84,82.80L131.90,82.80L131.18,83.21L130.79,83.83L130.64,84.08L129.72,84.21L129.35,85.00L122.54,84.74L122.69,85.15L121.61,85.20L121.96,83.85L122.37,82.41L122.74,80.79L123.88,77.82L126.51,77.58L121.69,77.57L120.42,78.51L120.42,79.50L120.97,80.06L122.65,80.34L122.74,80.79L121.69,80.89L121.62,81.84L121.08,81.84L119.74,81.63L119.58,80.62L119.41,80.51L119.32,78.87L119.33,78.62L120.95,77.10L122.15,76.87L123.83,76.88L126.29,77.00z"/><path style="fill:#000020" d="M104.80,94.08L106.73,94.25L105.70,94.40L105.61,102.54L105.45,102.49L105.23,94.41z"/><path style="fill:#c6c1bc" d="M101.76,89.43L102.86,89.56L103.69,89.57L105.33,89.69L109.21,89.97L110.84,90.16L110.77,90.33L110.79,92.25L111.04,92.28L111.48,90.46L112.79,90.39L114.70,90.50L116.58,90.54L115.22,90.20L115.31,89.90L117.94,87.33L118.33,85.57L119.46,81.92L119.68,81.85L121.08,81.84L121.62,81.84L121.94,82.20L121.84,82.43L121.45,83.67L121.12,85.12L121.61,85.20L122.69,85.15L123.54,85.28L128.80,85.27L129.28,85.67L129.30,85.25L129.35,85.00L129.72,84.21L130.64,84.08L130.89,85.15L130.90,83.91L130.79,83.83L131.18,83.21L131.90,82.80L132.84,82.80L133.17,83.04L133.42,83.82L133.01,84.19L131.90,84.47L131.91,86.25L132.75,86.16L133.40,85.70L133.52,84.94L134.29,84.30L135.40,84.33L135.67,84.32L136.78,84.45L137.58,84.60L139.00,84.58L140.36,84.60L141.48,84.60L143.66,84.72L146.15,84.88L156.08,85.45L287.89,93.27L296.95,93.76L296.96,98.45L296.70,98.16L296.65,97.43L295.25,97.17L129.12,87.44L128.96,86.11L128.51,87.43L127.77,87.21L128.51,87.43L128.97,87.71L128.14,89.81L126.58,91.00L125.82,91.10L126.43,91.18L126.58,91.00L127.32,91.08L127.00,91.39L124.83,91.37L122.89,91.08L122.88,92.77L123.10,93.38L125.94,93.86L126.96,93.88L129.52,92.29L129.59,90.18L129.80,89.64L129.56,89.41L129.28,89.88L129.11,90.01L128.61,90.02L128.95,88.41L130.06,88.38L130.33,88.67L130.53,88.38L131.24,88.28L132.07,88.53L132.19,88.70L133.22,88.57L133.51,88.45L134.22,88.61L134.15,88.86L131.89,89.44L131.94,90.01L132.19,90.36L133.58,90.28L134.69,89.47L134.95,88.61L135.95,88.57L136.40,88.92L137.00,88.81L137.30,89.00L137.65,89.36L138.44,90.76L138.70,91.36L138.91,92.39L137.70,92.27L137.49,91.65L137.40,93.19L137.26,93.77L136.02,95.49L133.26,97.68L129.97,99.10L129.94,100.08L129.83,100.36L129.51,101.99L129.00,101.79L128.96,100.47L128.85,100.37L128.73,98.72L128.70,97.99L128.55,97.92L128.13,97.16L127.59,97.78L126.77,97.42L123.17,97.16L117.83,97.15L116.86,98.18L116.66,98.22L115.45,96.89L114.43,94.92L115.83,94.80L117.47,94.92L118.59,95.15L118.69,95.32L120.70,95.21L119.98,95.90L118.37,96.06L120.53,96.20L121.24,96.16L122.35,93.40L122.32,91.87L122.02,91.89L121.77,92.54L121.53,94.23L118.76,94.13L0.35,85.31L0.27,85.95L0.07,86.03L0.05,81.90L1.39,81.84z"/><path style="fill:#ffffff" d="M110.84,94.58L110.74,94.75L109.52,102.58L109.18,103.36L107.27,103.36L106.46,103.18L105.61,102.54L105.70,94.40L106.73,94.25z"/><path style="fill:#00001c" d="M138.15,88.72L137.30,89.00L137.00,88.81L137.04,88.59z"/><path style="fill:#393939" d="M126.93,77.84L128.54,77.68L128.75,77.75L128.86,79.13L128.79,80.47L127.28,80.34L127.29,79.61L127.59,78.36z"/><path style="fill:#393939" d="M138.23,81.89L138.24,82.72L138.12,82.60L136.14,82.91L135.67,84.32L135.40,84.33L135.56,82.89L136.10,82.05L138.11,81.66z"/><path style="fill:#404040" d="M143.58,89.99L145.00,91.05L145.61,92.48L146.05,92.60L146.07,91.64L145.97,91.53L145.85,91.08L146.69,91.23L146.98,91.34L147.26,91.60L147.46,94.12L148.01,94.94L148.01,97.27L144.77,105.28L142.91,105.35L142.78,103.70L142.74,102.13L142.63,102.02L142.51,100.67L142.49,99.08L142.31,98.98L142.22,98.80L140.09,98.80L139.54,98.66L139.48,98.45L139.49,97.63L139.44,96.33L139.32,96.23L139.20,94.60L139.17,93.02L139.07,92.92L138.91,92.39L138.70,91.36L139.46,91.11L138.44,90.76L137.65,89.36L141.37,89.44z"/><path style="fill:#404040" d="M114.43,94.92L115.45,96.89L116.66,98.22L116.55,99.74L116.86,99.57L117.00,100.08L117.14,101.77L117.26,103.40L117.41,104.80L117.54,106.44L117.69,108.11L117.76,109.14L116.92,109.28L113.07,108.71L111.85,108.49L111.31,108.19L111.18,107.57L111.64,105.91L111.60,104.87L111.46,104.79L110.77,104.05L109.18,103.36L109.52,102.58L110.74,94.75L110.84,94.58L111.97,94.53L113.88,94.64z"/><path style="fill:#000020" d="M110.84,90.16L109.21,89.97L110.27,89.62z"/><path style="fill:#f6ff6f" d="M105.09,85.51L105.15,85.94L105.78,86.16L112.50,86.65L115.58,86.68L115.46,87.03L114.95,87.37L113.72,87.79L111.04,87.79L102.56,87.35L103.05,85.95L104.03,84.45L105.57,83.01z"/><path style="fill:#ff0000" d="M113.06,10.54L115.55,10.69L117.73,10.78L117.25,12.66L117.27,18.48L117.38,20.61L117.41,18.48L117.41,12.66L117.91,12.48L118.24,13.24L118.37,14.33L118.37,17.65L118.51,19.59L118.65,20.67L118.65,23.99L118.79,25.93L118.92,27.02L118.92,30.33L119.07,38.34L119.19,47.97L119.19,52.13L119.07,54.59L118.92,57.36L118.92,62.33L118.79,64.52L118.65,67.56L118.65,72.53L118.51,73.63L118.36,73.63L118.24,70.04L118.21,58.26L118.09,70.04L118.08,76.38L118.08,77.22L118.10,78.06L117.47,79.97L117.20,81.08L116.65,83.00L116.38,84.12L116.05,85.23L115.84,86.04L105.09,85.51L105.57,83.01L107.06,77.78L107.33,75.02L107.49,52.68L107.45,43.94L107.34,43.84L107.21,34.75L107.17,30.70L107.06,30.60L106.93,27.31L106.90,23.81L106.78,23.71L106.66,20.14L106.62,16.92L106.51,16.81L106.50,12.40L106.89,10.37L108.09,10.26z"/><path style="fill:#b2adaa" d="M138.24,82.72L137.88,84.11L137.53,84.39L136.78,84.45L135.67,84.32L136.14,82.91L138.12,82.60z"/><path style="fill:#b2adaa" d="M110.77,90.33L110.84,90.16L111.42,90.24L111.48,90.46L111.04,92.28L110.79,92.25z"/><path style="fill:#b2adaa" d="M137.70,92.27L138.91,92.39L139.07,92.92L139.20,94.60L139.32,96.23L139.49,97.63L139.48,98.45L138.50,98.42L138.32,97.98L138.12,98.67L137.40,98.65L137.79,96.70L137.97,96.24L138.10,95.80L137.04,95.73L136.55,95.75L136.14,96.43L134.23,98.11L131.07,99.66L133.10,99.92L138.34,100.20L141.92,100.27L142.24,99.54L142.51,100.67L142.63,102.02L142.78,103.70L142.91,105.35L142.59,106.42L141.46,106.49L140.37,106.51L138.99,106.38L136.23,106.22L130.51,105.96L130.38,107.27L130.24,107.26L130.05,106.23L129.47,106.22L129.39,106.42L129.53,108.13L129.79,108.85L130.08,107.81L130.24,108.67L129.61,110.27L128.24,110.24L125.76,110.09L123.56,110.08L123.18,109.83L120.50,109.82L117.96,109.51L117.76,109.14L117.69,108.11L117.65,106.54L117.54,106.44L117.41,104.80L117.38,103.50L117.26,103.40L117.14,101.77L117.11,100.19L117.00,100.08L116.86,99.57L116.86,98.18L117.83,97.15L123.17,97.16L126.77,97.42L127.59,97.78L128.13,97.16L128.55,97.92L128.73,98.72L128.85,100.37L129.00,101.79L129.51,101.99L129.83,100.36L130.07,102.24L130.07,100.19L129.94,100.08L129.97,99.10L133.26,97.68L136.02,95.49L137.26,93.77L137.52,94.52L137.51,93.29L137.40,93.19L137.49,91.65z"/><path style="fill:#ffffff" d="M143.11,89.14L144.41,89.46L144.69,89.88L144.97,90.55L145.85,91.08L145.97,91.53L145.61,92.48L145.00,91.05L143.58,89.99L141.37,89.44L137.65,89.36L137.30,89.00L138.15,88.72z"/><path style="fill:#ffffff" d="M111.68,89.71L111.68,90.10L111.42,90.24L110.84,90.16L110.27,89.62L110.38,89.44L111.11,89.38z"/><path style="fill:#00001c" d="M129.32,79.35L129.06,80.46L128.79,80.47L128.86,79.13z"/><path style="fill:#00001c" d="M137.58,84.60L136.78,84.45L137.53,84.39z"/><path style="fill:#393939" d="M138.80,80.53L138.75,81.15L138.18,81.32L138.65,79.41z"/><path style="fill:#393939" d="M149.67,93.21L149.81,94.58L149.93,96.13L150.07,96.00L150.22,96.12L149.82,97.88L149.67,97.46L148.69,97.85L148.53,97.42L148.57,99.01L148.54,100.84L147.40,104.15L147.51,104.84L147.11,105.19L144.77,105.28L148.01,97.27L148.01,94.94L147.46,94.12L147.26,91.60L149.20,91.47L149.48,91.61z"/><path style="fill:#393939" d="M136.23,106.22L136.50,106.48L135.75,107.62L133.26,109.57L138.06,109.38L139.26,109.25L139.21,109.42L138.07,109.94L129.61,110.27L130.24,108.67L130.38,107.27L130.51,105.96z"/><path style="fill:#404040" d="M112.80,89.67L112.72,90.18L111.68,90.10L111.68,89.71L112.23,89.40L112.53,89.40z"/><path style="fill:#404040" d="M149.82,97.88L148.62,102.79L148.35,103.35L148.14,103.96L148.01,104.45L147.51,104.84L147.40,104.15L148.54,100.84L148.57,99.01L148.69,97.85L149.67,97.46z"/><path style="fill:#000020" d="M128.55,75.00L128.43,75.56L128.27,74.84L128.42,74.72z"/><path style="fill:#000020" d="M138.99,84.39L139.00,84.58L137.58,84.60L137.53,84.39L137.88,84.11z"/><path style="fill:#000020" d="M132.07,88.53L131.24,88.28L132.07,88.31z"/><path style="fill:#000020" d="M102.93,89.35L102.86,89.56L101.76,89.43L102.64,89.08z"/><path style="fill:#000020" d="M112.79,90.39L111.48,90.46L111.42,90.24L111.68,90.10L112.72,90.18z"/><path style="fill:#000020" d="M118.59,95.15L117.47,94.92L118.59,94.92z"/><path style="fill:#f6ff6f" d="M150.76,80.06L156.08,85.45L146.15,84.88L145.56,84.48L143.66,84.72L141.48,84.60L140.37,84.44L138.99,84.39L138.89,84.22L137.88,84.11L138.24,82.72L138.23,81.89L138.75,81.15L138.80,80.53L139.08,79.72L139.36,78.41L139.79,78.22L143.13,78.80L146.60,79.89L147.09,78.39L147.71,78.37z"/><path style="fill:#f6ff6f" d="M156.92,89.97L156.99,90.16L156.56,90.30L146.79,89.98L146.69,91.23L145.85,91.08L144.97,90.55L144.69,89.88L144.88,89.46L145.32,89.26z"/><path style="fill:#e50000" d="M118.09,11.02L118.25,11.85L118.24,13.24L117.91,12.48L117.41,12.66L117.25,12.66L117.73,10.78z"/><path style="fill:#c6c1bc" d="M138.64,74.79L138.77,74.98L138.67,75.25L138.05,77.10L137.94,78.32L137.53,78.45L136.50,78.25L136.99,76.48L134.09,76.49L134.31,77.98L133.17,78.24L132.69,78.39L132.31,79.42L132.09,79.36L131.73,75.09L128.55,75.00L128.42,74.72L128.54,74.43L130.72,74.39z"/><path style="fill:#c6c1bc" d="M137.97,96.24L137.79,96.70L137.40,98.65L138.12,98.67L138.43,98.66L139.54,98.66L140.09,98.80L142.31,98.98L142.24,99.54L141.92,100.27L138.34,100.20L133.10,99.92L131.07,99.66L134.23,98.11L136.14,96.43L136.55,95.75L137.04,95.73z"/><path style="fill:#c6c1bc" d="M123.87,99.28L124.03,100.67L124.02,101.67L122.22,101.47L121.94,101.20L121.83,99.84L121.87,98.44L123.28,98.39z"/><path style="fill:#c6c1bc" d="M124.55,107.00L124.49,108.19L122.80,108.29L122.43,105.91L124.30,105.86z"/><path style="fill:#c6c1bc" d="M22.40,119.67L22.28,120.23L21.70,120.69L20.21,121.16L20.39,124.33L19.76,124.20L19.49,123.91L19.24,123.00L19.21,122.26L19.08,122.17L18.90,119.86L19.74,119.02L21.71,118.93z"/><path style="fill:#c6c1bc" d="M89.24,122.80L89.44,123.25L89.16,124.19L87.51,124.73L87.60,127.52L87.69,127.90L86.77,127.78L86.50,127.50L86.25,125.76L86.21,124.18L86.09,124.07L86.22,123.18L87.22,122.52L88.73,122.52z"/><path style="fill:#c6c1bc" d="M156.70,127.10L156.60,127.40L156.24,127.83L154.51,128.62L154.72,131.75L153.79,131.35L153.54,130.17L153.50,129.15L153.38,129.05L153.22,127.06L154.40,126.23L155.83,126.23L156.31,126.37z"/><path style="fill:#c6c1bc" d="M223.72,130.44L223.33,131.50L221.81,132.19L221.99,135.35L221.31,135.27L220.77,134.41L220.55,132.93L220.50,131.35L220.39,131.24L220.52,130.62L221.24,129.96L223.30,129.94z"/><path style="fill:#c6c1bc" d="M291.00,134.29L290.88,134.84L290.29,135.31L288.79,135.79L288.82,136.39L289.44,136.60L289.14,136.87L288.99,138.94L288.32,138.85L288.00,138.61L287.84,137.62L287.80,136.59L287.68,136.50L287.81,133.93L288.53,133.55L290.31,133.55z"/><path style="fill:#dde563" d="M132.02,79.79L131.06,80.07L132.11,80.32L131.58,80.60L130.15,80.59L129.06,80.46L129.32,79.35L131.86,79.48z"/><path style="fill:#dde563" d="M156.56,90.30L156.99,90.16L157.37,90.27L157.68,91.57L157.80,93.20L157.95,94.87L157.92,96.15L157.37,98.63L150.20,111.32L147.61,113.69L144.05,115.65L139.92,116.75L133.56,117.29L124.28,117.29L118.60,116.85L118.36,111.51L126.76,112.06L130.81,112.06L138.81,111.51L143.58,110.22L147.33,108.17L149.85,105.73L157.14,92.82L157.12,92.48L154.79,92.46L154.46,92.62L153.34,92.31L150.56,92.17L150.00,92.03L149.48,91.61L149.20,91.47L146.98,91.34L146.69,91.23L146.79,89.98z"/><path style="fill:#dde563" d="M109.20,105.58L108.36,105.85L107.70,105.72L107.72,104.99L108.49,104.56L108.81,104.60z"/><path style="fill:#b2adaa" d="M138.92,76.67L139.06,78.03L138.92,79.14L138.77,79.12L138.36,78.40L137.94,78.32L138.05,77.10L138.67,75.25z"/><path style="fill:#b2adaa" d="M121.96,83.85L121.61,85.20L121.12,85.12L121.45,83.67L121.84,82.43z"/><path style="fill:#b2adaa" d="M118.76,94.13L121.53,94.23L121.77,92.54L122.02,91.89L122.32,91.87L122.35,93.40L121.24,96.16L120.53,96.20L119.98,95.90L120.70,95.21L118.69,95.32L118.59,95.15L119.34,94.94L118.59,94.92L117.47,94.92L115.83,94.80L113.88,94.64L111.97,94.53L110.97,94.41L110.84,94.58L106.73,94.25L104.80,94.08L103.14,93.97L101.20,93.82L0.82,86.26L0.27,85.95L0.35,85.31z"/><path style="fill:#b2adaa" d="M133.54,84.08L133.52,84.94L133.40,85.70L132.75,86.16L131.91,86.25L131.90,84.47L133.01,84.19L133.42,83.82z"/><path style="fill:#b2adaa" d="M295.25,97.17L296.65,97.43L296.70,98.16L292.03,97.96L159.40,90.11L156.92,89.97L145.32,89.26L143.11,89.14L138.15,88.72L137.04,88.59L135.95,88.57L134.95,88.61L134.69,89.47L133.58,90.28L132.19,90.36L131.94,90.01L131.89,89.44L134.15,88.86L134.22,88.61L133.51,88.45L132.07,88.31L131.24,88.28L130.53,88.38L130.33,88.67L130.06,88.38L128.95,88.41L128.61,90.02L129.11,90.01L129.28,89.88L129.59,90.18L129.52,92.29L126.96,93.88L125.94,93.86L123.10,93.38L122.88,92.77L122.89,91.08L124.83,91.37L127.00,91.39L127.32,91.08L126.58,91.00L128.14,89.81L128.97,87.71L129.12,87.44z"/><path style="fill:#b2adaa" d="M120.18,91.30L120.17,92.31L119.51,92.78L118.69,92.85L118.45,92.51L118.39,91.09L119.50,90.80L119.89,90.43z"/><path style="fill:#b2adaa" d="M22.55,121.35L22.55,123.75L21.90,124.21L20.39,124.33L20.21,121.16L21.70,120.69L22.28,120.23z"/><path style="fill:#b2adaa" d="M89.68,124.91L89.70,126.30L89.85,127.32L89.18,127.79L87.69,127.90L87.60,127.52L87.51,124.73L89.16,124.19L89.44,123.25z"/><path style="fill:#b2adaa" d="M156.85,128.52L156.82,131.17L155.91,131.64L154.72,131.75L154.51,128.62L156.24,127.83L156.60,127.40z"/><path style="fill:#b2adaa" d="M223.98,132.08L224.14,133.77L224.14,134.50L223.21,135.24L221.99,135.35L221.81,132.19L223.33,131.50L223.72,130.44L223.84,130.52z"/><path style="fill:#b2adaa" d="M291.14,135.96L291.13,138.36L290.75,138.80L288.99,138.94L289.14,136.87L289.44,136.60L288.82,136.39L288.79,135.79L290.29,135.31L290.88,134.84z"/><path style="fill:#1a1a1a" d="M286.51,147.87L296.95,148.36L296.95,160.50L296.73,160.43L296.68,160.22L296.64,149.55L295.25,149.29L0.36,133.28L0.27,144.17L0.06,144.23L0.05,132.37L1.39,132.30z"/><path style="fill:#ffffff" d="M140.36,84.60L139.00,84.58L138.99,84.39L140.37,84.44z"/><path style="fill:#ffffff" d="M153.34,92.31L154.46,92.62L149.28,101.84L148.62,102.79L149.82,97.88L150.22,96.12L150.07,96.00L149.81,94.58L149.67,93.21L150.00,92.03L150.56,92.17z"/><path style="fill:#ffffff" d="M294.23,160.28L296.73,160.43L296.95,160.50L296.92,210.05L0.08,210.05L0.06,144.23L0.27,144.17L1.65,144.29z"/><path style="fill:#00001c" d="M131.86,79.48L132.09,79.36L132.31,79.42L132.32,80.17L132.11,80.32L131.06,80.07L132.02,79.79z"/><path style="fill:#00001c" d="M139.08,79.72L138.80,80.53L138.65,79.41L138.77,79.12L138.92,79.14z"/><path style="fill:#00001c" d="M119.74,81.63L119.68,81.85L119.46,81.92L119.41,80.51L119.58,80.62z"/><path style="fill:#00001c" d="M122.37,82.41L121.96,83.85L121.84,82.43L121.94,82.20z"/><path style="fill:#00001c" d="M128.80,85.27L129.30,85.25L129.28,85.67z"/><path style="fill:#00001c" d="M133.51,88.45L133.22,88.57L132.07,88.53L132.07,88.31z"/><path style="fill:#00001c" d="M112.80,89.67L112.53,89.40L113.91,89.42z"/><path style="fill:#00001c" d="M103.69,89.57L102.86,89.56L102.93,89.35z"/><path style="fill:#00001c" d="M149.20,91.47L147.26,91.60L146.98,91.34z"/><path style="fill:#00001c" d="M137.52,94.52L137.26,93.77L137.40,93.19L137.51,93.29z"/><path style="fill:#00001c" d="M118.59,95.15L118.59,94.92L119.34,94.94z"/><path style="fill:#00001c" d="M137.04,95.73L138.10,95.80L137.97,96.24z"/><path style="fill:#00001c" d="M120.53,96.20L118.37,96.06L119.98,95.90z"/><path style="fill:#00001c" d="M138.50,98.42L138.43,98.66L138.12,98.67L138.32,97.98z"/><path style="fill:#00001c" d="M130.07,102.24L129.83,100.36L129.94,100.08L130.07,100.19z"/><path style="fill:#00001c" d="M122.22,101.47L122.07,102.79L121.94,101.20z"/><path style="fill:#00001c" d="M122.43,105.91L122.26,105.80L122.35,104.58z"/><path style="fill:#00001c" d="M143.31,107.74L142.28,107.61L143.36,107.55z"/><path style="fill:#00001c" d="M130.24,108.67L130.08,107.81L130.24,107.26L130.38,107.27z"/><path style="fill:#00001c" d="M123.56,110.08L123.53,110.24L120.50,109.82L123.18,109.83z"/><path style="fill:#00001c" d="M128.24,110.24L126.12,110.40L124.36,110.38L125.76,110.09z"/><path style="fill:#393939" d="M120.42,78.51L121.69,77.57L126.51,77.58L123.88,77.82L122.74,80.79L122.65,80.34L120.97,80.06L120.42,79.50z"/><path style="fill:#393939" d="M121.62,81.84L121.69,80.89L122.74,80.79L122.37,82.41L121.94,82.20z"/><path style="fill:#393939" d="M129.35,85.00L129.30,85.25L128.80,85.27L123.54,85.28L122.69,85.15L122.54,84.74z"/><path style="fill:#393939" d="M115.31,89.90L115.22,90.20L114.70,90.50L112.79,90.39L112.72,90.18L112.80,89.67L113.91,89.42L115.27,88.86z"/><path style="fill:#393939" d="M124.36,110.38L123.53,110.24L123.56,110.08L125.76,110.09z"/><path style="fill:#404040" d="M139.74,108.84L139.26,109.25L138.06,109.38L133.26,109.57L135.75,107.62L136.50,106.48L138.99,106.38L140.37,106.51z"/><path style="fill:#000020" d="M115.55,10.69L113.06,10.54L115.45,10.58z"/><path style="fill:#000020" d="M118.25,11.85L118.09,11.02L118.24,11.10z"/><path style="fill:#000020" d="M118.51,17.65L118.37,17.65L118.37,14.33L118.48,14.43z"/><path style="fill:#000020" d="M117.41,18.48L117.27,18.48L117.25,12.66L117.41,12.66z"/><path style="fill:#000020" d="M106.66,20.14L106.51,16.81L106.62,16.92z"/><path style="fill:#000020" d="M118.79,23.99L118.65,23.99L118.65,20.67L118.75,20.77z"/><path style="fill:#000020" d="M117.69,25.37L117.54,25.37L117.66,21.85z"/><path style="fill:#000020" d="M106.93,27.31L106.78,23.71L106.90,23.81z"/><path style="fill:#000020" d="M119.06,30.33L118.92,30.33L118.92,27.02L119.03,27.12z"/><path style="fill:#000020" d="M117.96,32.54L117.82,32.54L117.93,29.02z"/><path style="fill:#000020" d="M107.21,34.75L107.06,30.60L107.17,30.70z"/><path style="fill:#000020" d="M118.24,47.43L118.09,47.43L118.21,38.68z"/><path style="fill:#000020" d="M119.19,52.13L119.19,47.97L119.30,48.08z"/><path style="fill:#000020" d="M107.49,52.68L107.34,43.84L107.45,43.94z"/><path style="fill:#000020" d="M118.92,62.33L118.92,57.36L119.06,57.36z"/><path style="fill:#000020" d="M118.65,72.53L118.65,67.56L118.79,67.56z"/><path style="fill:#000020" d="M130.72,74.39L128.54,74.43L128.60,74.26z"/><path style="fill:#000020" d="M118.36,73.63L118.52,74.74L118.50,76.02L118.27,76.39L118.08,76.38L118.09,70.04L118.24,70.04z"/><path style="fill:#000020" d="M138.92,76.67L138.67,75.25L138.77,74.98L138.91,75.07z"/><path style="fill:#000020" d="M126.29,77.00L128.52,76.87L128.75,77.75L128.54,77.68L128.43,77.32z"/><path style="fill:#000020" d="M118.10,78.06L118.08,77.22L118.25,77.22z"/><path style="fill:#000020" d="M134.58,78.28L133.17,78.24L134.31,77.98z"/><path style="fill:#000020" d="M118.97,78.49L119.33,78.62L119.32,78.87L118.66,78.88L118.66,77.47z"/><path style="fill:#000020" d="M139.79,78.22L139.36,78.41L139.08,79.72L138.92,79.14L139.06,78.03z"/><path style="fill:#000020" d="M138.23,81.89L138.11,81.66L138.18,81.32L138.75,81.15z"/><path style="fill:#000020" d="M121.08,81.84L119.68,81.85L119.74,81.63z"/><path style="fill:#000020" d="M1.39,81.84L0.05,81.90L0.05,81.63z"/><path style="fill:#000020" d="M111.60,83.20L110.56,83.07L111.71,83.08z"/><path style="fill:#000020" d="M146.15,84.88L143.66,84.72L145.56,84.48z"/><path style="fill:#000020" d="M141.48,84.60L140.36,84.60L140.37,84.44z"/><path style="fill:#000020" d="M134.29,84.30L133.52,84.94L133.54,84.08z"/><path style="fill:#000020" d="M130.89,85.15L130.64,84.08L130.79,83.83L130.90,83.91z"/><path style="fill:#000020" d="M0.82,86.26L0.06,86.33L0.07,86.03L0.27,85.95z"/><path style="fill:#000020" d="M129.12,87.44L128.97,87.71L128.51,87.43L128.96,86.11z"/><path style="fill:#000020" d="M135.95,88.57L137.04,88.59L137.00,88.81L136.40,88.92z"/><path style="fill:#000020" d="M143.11,89.14L145.32,89.26L144.88,89.46L144.69,89.88L144.41,89.46z"/><path style="fill:#000020" d="M129.80,89.64L129.59,90.18L129.28,89.88L129.56,89.41z"/><path style="fill:#000020" d="M111.68,89.71L111.11,89.38L112.23,89.40z"/><path style="fill:#000020" d="M156.99,90.16L156.92,89.97L159.40,90.11L157.82,90.25L157.68,91.57L157.37,90.27z"/><path style="fill:#000020" d="M116.58,90.54L114.70,90.50L115.22,90.20z"/><path style="fill:#000020" d="M139.46,91.11L138.70,91.36L138.44,90.76z"/><path style="fill:#000020" d="M120.18,91.30L119.89,90.43L120.15,89.96z"/><path style="fill:#000020" d="M130.67,91.55L130.50,91.54L130.63,90.79z"/><path style="fill:#000020" d="M150.00,92.03L149.67,93.21L149.48,91.61z"/><path style="fill:#000020" d="M146.05,92.60L145.61,92.48L145.97,91.53L146.07,91.64z"/><path style="fill:#000020" d="M101.20,93.82L103.14,93.97L102.98,94.11L102.80,103.70L102.51,94.12z"/><path style="fill:#000020" d="M139.20,94.60L139.07,92.92L139.17,93.02z"/><path style="fill:#000020" d="M111.97,94.53L110.84,94.58L110.97,94.41z"/><path style="fill:#000020" d="M157.95,94.87L157.80,93.20L157.91,93.30z"/><path style="fill:#000020" d="M115.83,94.80L114.43,94.92L113.88,94.64z"/><path style="fill:#000020" d="M150.07,96.00L149.93,96.13L149.81,94.58z"/><path style="fill:#000020" d="M139.49,97.63L139.32,96.23L139.44,96.33z"/><path style="fill:#000020" d="M123.28,98.39L121.87,98.44L121.97,98.25z"/><path style="fill:#000020" d="M139.54,98.66L138.43,98.66L138.50,98.42L139.48,98.45z"/><path style="fill:#000020" d="M128.73,98.72L128.55,97.92L128.70,97.99z"/><path style="fill:#000020" d="M148.69,97.85L148.57,99.01L148.53,97.42z"/><path style="fill:#000020" d="M142.31,98.98L140.09,98.80L142.22,98.80z"/><path style="fill:#000020" d="M121.83,99.84L121.69,98.53L121.87,98.44z"/><path style="fill:#000020" d="M116.86,99.57L116.55,99.74L116.66,98.22L116.86,98.18z"/><path style="fill:#000020" d="M142.51,100.67L142.24,99.54L142.31,98.98L142.49,99.08z"/><path style="fill:#000020" d="M124.03,100.67L123.87,99.28L124.00,99.36z"/><path style="fill:#000020" d="M129.00,101.79L128.85,100.37L128.96,100.47z"/><path style="fill:#000020" d="M117.14,101.77L117.00,100.08L117.11,100.19z"/><path style="fill:#000020" d="M142.78,103.70L142.63,102.02L142.74,102.13z"/><path style="fill:#000020" d="M148.55,103.62L148.14,103.96L148.35,103.35z"/><path style="fill:#000020" d="M117.41,104.80L117.26,103.40L117.38,103.50z"/><path style="fill:#000020" d="M111.64,105.91L111.46,105.89L111.46,104.79L111.60,104.87z"/><path style="fill:#000020" d="M108.36,105.85L109.20,105.58L109.40,105.71z"/><path style="fill:#000020" d="M138.99,106.38L136.50,106.48L136.23,106.22z"/><path style="fill:#000020" d="M142.00,106.82L141.46,106.49L142.59,106.42z"/><path style="fill:#000020" d="M103.07,106.73L102.92,105.06L103.03,105.16z"/><path style="fill:#000020" d="M124.55,107.00L124.30,105.86L124.57,105.41z"/><path style="fill:#000020" d="M129.53,108.13L129.39,106.42L129.48,106.52z"/><path style="fill:#000020" d="M117.69,108.11L117.54,106.44L117.65,106.54z"/><path style="fill:#000020" d="M117.96,109.51L116.92,109.28L117.76,109.14z"/><path style="fill:#000020" d="M22.55,121.35L22.28,120.23L22.40,119.67L22.53,119.76z"/><path style="fill:#000020" d="M19.24,123.00L19.08,122.17L19.21,122.26z"/><path style="fill:#000020" d="M86.25,125.76L86.09,124.07L86.21,124.18z"/><path style="fill:#000020" d="M89.70,126.30L89.68,124.91L89.80,125.01z"/><path style="fill:#000020" d="M156.85,128.52L156.60,127.40L156.70,127.10L156.83,127.20z"/><path style="fill:#000020" d="M153.54,130.17L153.38,129.05L153.50,129.15z"/><path style="fill:#000020" d="M1.39,132.30L0.05,132.37L0.05,132.09z"/><path style="fill:#000020" d="M220.55,132.93L220.39,131.24L220.50,131.35z"/><path style="fill:#000020" d="M224.14,133.77L223.98,132.08L224.09,132.18z"/><path style="fill:#000020" d="M291.14,135.96L290.88,134.84L291.00,134.29L291.13,134.38z"/><path style="fill:#000020" d="M287.84,137.62L287.68,136.50L287.80,136.59z"/><path style="fill:#000020" d="M296.73,160.43L294.23,160.28L296.68,160.22z"/><path style="fill:#f6ff6f" d="M112.45,82.67L111.71,83.08L110.56,83.07L110.32,82.48L111.70,82.09L112.19,82.28z"/><path style="fill:#e50000" d="M118.51,19.59L118.37,17.65L118.51,17.65z"/><path style="fill:#e50000" d="M117.38,20.61L117.27,18.48L117.41,18.48z"/><path style="fill:#e50000" d="M118.79,25.93L118.65,23.99L118.79,23.99z"/><path style="fill:#e50000" d="M117.66,27.51L117.54,25.37L117.69,25.37z"/><path style="fill:#e50000" d="M117.93,34.68L117.82,32.54L117.96,32.54z"/><path style="fill:#e50000" d="M119.07,38.34L118.92,30.33L119.06,30.33z"/><path style="fill:#e50000" d="M118.21,52.60L118.09,47.43L118.24,47.43z"/><path style="fill:#e50000" d="M119.06,57.36L118.92,57.36L119.07,54.59z"/><path style="fill:#e50000" d="M118.79,67.56L118.65,67.56L118.79,64.52z"/><path style="fill:#e50000" d="M118.24,70.04L118.09,70.04L118.21,58.26z"/><path style="fill:#e50000" d="M118.52,74.74L118.36,73.63L118.51,73.63z"/><path style="fill:#e50000" d="M118.36,76.65L118.25,77.22L118.08,77.22L118.08,76.38L118.27,76.39z"/><path style="fill:#e50000" d="M110.10,81.94L111.26,81.40L111.59,81.44L111.70,82.09L110.32,82.48z"/><path style="fill:#e50000" d="M115.84,86.04L115.58,86.68L112.50,86.65L105.78,86.16L105.15,85.94L105.09,85.51z"/><path style="fill:#e50000" d="M116.11,85.51L115.84,86.04L116.05,85.23z"/><path style="fill:#c6c1bc" d="M129.39,106.42L129.47,106.22L130.05,106.23L130.24,107.26L130.08,107.81L129.79,108.85L129.53,108.13L129.48,106.52z"/><path style="fill:#dde563" d="M143.36,107.55L142.28,107.61L142.00,106.82L142.59,106.42L143.32,106.53z"/><path style="fill:#dde563" d="M111.18,107.57L111.32,106.08L111.46,105.89L111.64,105.91z"/><path style="fill:#b2adaa" d="M128.52,76.87L128.43,75.56L128.55,75.00L131.73,75.09L132.09,79.36L131.86,79.48L129.32,79.35L128.86,79.13L128.75,77.75z"/><path style="fill:#b2adaa" d="M134.09,76.49L136.99,76.48L136.50,78.25L134.58,78.28L134.31,77.98z"/><path style="fill:#b2adaa" d="M132.19,88.70L132.07,88.53L133.22,88.57z"/><path style="fill:#b2adaa" d="M123.61,88.06L125.00,87.22L126.22,87.22L126.49,89.73L124.26,89.74L123.42,88.90z"/><path style="fill:#b2adaa" d="M126.43,91.18L125.82,91.10L126.58,91.00z"/><path style="fill:#b2adaa" d="M130.74,91.86L130.45,92.40L130.50,91.54L130.67,91.55z"/><path style="fill:#b2adaa" d="M130.42,92.64L129.69,93.84L127.51,94.97L124.42,95.02L124.42,94.70L127.87,94.23L129.54,93.14L130.45,92.40z"/><path style="fill:#171717" d="M295.25,149.29L296.64,149.55L296.68,160.22L294.23,160.28L1.65,144.29L0.27,144.17L0.36,133.28z"/><path style="fill:#ffffff" d="M138.99,84.39L137.88,84.11L138.89,84.22z"/><path style="fill:#ffffff" d="M117.94,87.33L115.31,89.90L115.27,88.86L116.20,87.80L116.97,86.08L118.33,85.57z"/><g id="Actor_.0"><g style="stroke:#000000;stroke-width:0.176"><path d="M153.55,127.78 C153.73,127.91 153.73,127.91 153.92,128.02 C154.15,128.10 154.15,128.10 154.40,128.17 C154.67,128.20 154.67,128.20 154.94,128.21 C155.21,128.18 155.21,128.17 155.49,128.13 C155.63,128.08 155.63,128.08 155.78,128.02 C155.88,127.98 155.88,127.99 155.98,127.95 C156.18,127.82 156.18,127.81 156.37,127.68 "/><path d="M153.63,128.70 C153.81,128.83 153.81,128.83 154.00,128.94 C154.23,129.02 154.24,129.02 154.48,129.09 C154.75,129.11 154.75,129.11 155.02,129.12 C155.29,129.09 155.30,129.09 155.57,129.05 C155.82,128.96 155.82,128.96 156.06,128.86 C156.26,128.73 156.26,128.73 156.45,128.59 "/><path d="M153.79,128.80 C154.00,128.90 154.01,128.90 154.22,128.99 C154.48,129.05 154.48,129.05 154.74,129.09 C155.02,129.08 155.02,129.08 155.29,129.07 C155.43,129.04 155.43,129.04 155.57,129.01 C155.69,128.97 155.70,128.98 155.82,128.93 C156.05,128.82 156.05,128.82 156.27,128.70 C156.43,128.56 156.43,128.56 156.58,128.40 "/><path d="M153.67,127.56 C153.83,127.67 153.83,127.68 154.00,127.78 C154.06,127.80 154.06,127.80 154.12,127.82 C154.28,127.87 154.28,127.87 154.44,127.92 C154.68,127.94 154.68,127.94 154.93,127.95 C155.18,127.92 155.18,127.92 155.43,127.88 C155.65,127.80 155.65,127.80 155.87,127.71 C156.05,127.59 156.05,127.59 156.22,127.47 "/><path d="M156.12,126.30 C155.93,126.21 155.92,126.21 155.73,126.12 C155.49,126.07 155.49,126.07 155.26,126.04 C155.01,126.04 155.01,126.04 154.75,126.06 C154.51,126.11 154.51,126.11 154.28,126.18 C154.07,126.28 154.07,126.28 153.87,126.39 C153.73,126.52 153.72,126.52 153.59,126.66 "/><path d="M154.04,127.29 C154.15,127.37 154.16,127.38 154.27,127.45 C154.43,127.50 154.43,127.50 154.58,127.54 C154.76,127.56 154.76,127.56 154.93,127.57 C155.11,127.55 155.11,127.55 155.28,127.52 C155.44,127.46 155.44,127.46 155.60,127.40 C155.72,127.32 155.73,127.32 155.85,127.23 "/><path d="M155.77,126.40 C155.64,126.34 155.63,126.34 155.50,126.28 C155.33,126.24 155.33,126.24 155.16,126.22 C154.99,126.22 154.99,126.22 154.81,126.23 C154.64,126.27 154.64,126.27 154.47,126.31 C154.33,126.38 154.32,126.39 154.18,126.46 C154.08,126.56 154.08,126.56 153.98,126.66 "/><path d="M154.22,128.99 C154.48,129.05 154.49,129.05 154.75,129.09 C155.02,129.09 155.02,129.09 155.29,129.07 C155.42,129.05 155.42,129.05 155.56,129.02 C155.68,128.98 155.68,128.99 155.81,128.94 C156.04,128.83 156.04,128.83 156.27,128.70 "/><path d="M153.31,127.13 L153.34,127.47 L153.55,127.78 "/><path d="M156.37,127.68 L156.60,127.35 L156.66,127.00 "/><path d="M153.50,128.50 L153.41,128.27 L153.42,128.39 L153.50,128.52 L153.63,128.70 "/><path d="M156.45,128.59 L156.68,128.27 L156.71,128.11 L156.73,128.06 L156.73,128.00 L156.74,127.92 "/><path d="M153.52,128.53 L153.79,128.80 "/><path d="M156.58,128.40 L156.71,128.11 "/><path d="M153.41,128.27 L153.41,128.27 "/><path d="M153.45,126.97 L153.48,127.28 L153.67,127.56 "/><path d="M156.22,127.47 L156.44,127.17 L156.49,126.85 L156.38,126.55 L156.12,126.30 "/><path d="M153.59,126.66 L153.45,126.97 "/><path d="M153.89,126.90 L153.91,127.10 L154.04,127.29 "/><path d="M155.85,127.23 L156.00,127.02 L156.04,126.79 L155.96,126.58 L155.77,126.40 "/><path d="M153.98,126.66 L153.89,126.88 L153.89,126.90 "/><path d="M156.73,128.00 L156.72,127.85 "/></g><g style="stroke:#000000;stroke-width:0.529"><path d="M156.21,126.31 C156.00,126.21 156.00,126.21 155.79,126.12 C155.53,126.06 155.53,126.06 155.27,126.02 C155.01,126.03 155.01,126.03 154.75,126.04 C154.50,126.10 154.50,126.10 154.25,126.17 C154.02,126.28 154.02,126.28 153.80,126.40 C153.64,126.54 153.64,126.54 153.49,126.70 "/><path d="M156.98,130.64 L156.74,127.92 L156.72,127.85 L156.66,127.00 L156.52,126.62 L156.21,126.31 "/><path d="M153.49,126.70 L153.32,127.08 L153.31,127.13 L153.38,128.19 L153.41,128.27 L153.65,130.97 "/></g></g><g id="Actor_.1"><g style="stroke:#000000;stroke-width:0.176"><path d="M89.45,124.73 C89.31,124.89 89.31,124.89 89.16,125.04 C89.00,125.13 89.00,125.12 88.84,125.21 C88.78,125.24 88.78,125.24 88.72,125.28 "/><path d="M88.72,125.28 C88.47,125.35 88.46,125.35 88.20,125.42 C87.93,125.44 87.92,125.44 87.65,125.45 C87.39,125.42 87.38,125.42 87.12,125.37 C86.90,125.29 86.90,125.29 86.68,125.19 "/><path d="M86.50,125.03 C86.69,125.15 86.69,125.15 86.88,125.26 C87.13,125.33 87.13,125.33 87.38,125.39 C87.65,125.41 87.65,125.41 87.92,125.42 C88.06,125.41 88.06,125.40 88.20,125.39 C88.33,125.36 88.33,125.36 88.47,125.33 C88.71,125.23 88.71,125.23 88.95,125.13 "/><path d="M88.95,125.13 C88.71,125.24 88.70,125.24 88.46,125.34 C88.33,125.37 88.33,125.37 88.19,125.39 C88.06,125.41 88.06,125.41 87.92,125.42 C87.66,125.42 87.66,125.42 87.39,125.40 C87.14,125.34 87.14,125.34 86.88,125.26 "/><path d="M86.63,122.80 C86.74,122.71 86.74,122.71 86.86,122.63 C87.07,122.53 87.08,122.53 87.30,122.45 C87.54,122.40 87.54,122.40 87.79,122.37 C88.04,122.37 88.04,122.37 88.29,122.39 C88.51,122.44 88.51,122.44 88.73,122.51 C88.91,122.61 88.91,122.61 89.08,122.72 "/><path d="M89.22,123.62 C89.09,123.76 89.08,123.76 88.95,123.90 C88.75,124.01 88.75,124.01 88.55,124.12 C88.32,124.19 88.32,124.19 88.08,124.25 C87.83,124.27 87.83,124.27 87.58,124.28 C87.34,124.25 87.34,124.25 87.10,124.21 C86.90,124.13 86.90,124.13 86.70,124.04 "/><path d="M89.37,123.81 C89.23,123.97 89.23,123.97 89.08,124.12 C88.86,124.24 88.86,124.25 88.64,124.36 C88.38,124.44 88.38,124.44 88.12,124.50 C87.85,124.53 87.84,124.53 87.57,124.54 C87.30,124.50 87.30,124.50 87.04,124.46 C86.82,124.37 86.82,124.37 86.60,124.27 "/><path d="M87.02,123.73 C87.16,123.79 87.16,123.79 87.30,123.84 C87.47,123.87 87.47,123.87 87.64,123.90 C87.81,123.89 87.81,123.89 87.99,123.87 C88.16,123.83 88.16,123.83 88.33,123.78 C88.47,123.71 88.47,123.71 88.60,123.63 C88.70,123.53 88.70,123.53 88.79,123.43 "/><path d="M88.70,122.80 C88.58,122.72 88.58,122.72 88.45,122.65 C88.30,122.60 88.30,122.60 88.14,122.56 C87.96,122.55 87.96,122.55 87.79,122.55 C87.61,122.57 87.61,122.57 87.44,122.60 C87.28,122.66 87.28,122.66 87.13,122.73 C87.01,122.81 87.01,122.82 86.89,122.91 "/><path d="M89.58,124.38 L89.54,124.50 L89.54,124.52 L89.52,124.55 L89.45,124.73 "/><path d="M86.68,125.19 L86.37,124.92 L86.31,124.76 L86.28,124.72 L86.27,124.68 L86.23,124.59 "/><path d="M86.31,124.76 L86.50,125.03 "/><path d="M86.27,124.68 L86.24,124.49 "/><path d="M86.42,123.79 L86.29,123.49 L86.33,123.18 L86.52,122.88 L86.63,122.80 "/><path d="M89.08,122.72 L89.28,123.00 L89.33,123.31 L89.22,123.62 "/><path d="M86.70,124.04 L86.42,123.79 "/><path d="M89.50,123.47 L89.37,123.81 "/><path d="M86.60,124.27 L86.29,124.00 L86.15,123.67 "/><path d="M86.19,123.27 L86.19,123.27 "/><path d="M88.79,123.43 L88.88,123.21 L88.84,122.99 L88.70,122.80 "/><path d="M86.89,122.91 L86.75,123.12 L86.73,123.34 L86.81,123.53 L86.82,123.55 L87.02,123.73 "/><path d="M88.95,125.13 L89.32,124.85 L89.52,124.55 "/><path d="M89.54,124.50 L89.57,124.27 "/></g><g style="stroke:#000000;stroke-width:0.529"><path d="M89.18,122.74 C89.00,122.62 88.99,122.62 88.81,122.51 C88.56,122.44 88.56,122.44 88.31,122.37 C88.05,122.36 88.05,122.36 87.79,122.35 C87.53,122.39 87.53,122.39 87.28,122.44 C87.03,122.53 87.03,122.53 86.79,122.64 C86.61,122.77 86.61,122.77 86.43,122.91 "/><path d="M89.81,127.01 L89.58,124.38 L89.57,124.27 L89.58,124.18 L89.50,123.47 L89.45,123.13 L89.43,123.07 L89.18,122.74 "/><path d="M86.43,122.91 L86.19,123.27 L86.15,123.67 L86.24,124.49 L86.23,124.59 L86.47,127.27 "/></g></g><g id="Actor_.2"><g style="stroke:#000000;stroke-width:0.176"><path d="M223.61,131.26 C223.44,131.41 223.44,131.41 223.26,131.55 C223.03,131.66 223.03,131.66 222.79,131.76 C222.52,131.82 222.52,131.82 222.25,131.87 C221.98,131.87 221.98,131.87 221.70,131.86 C221.45,131.81 221.45,131.81 221.20,131.75 C221.00,131.64 220.99,131.64 220.80,131.53 "/><path d="M221.06,132.53 C221.30,132.63 221.30,132.63 221.54,132.71 C221.80,132.75 221.80,132.74 222.06,132.77 C222.33,132.75 222.33,132.75 222.60,132.72 C222.73,132.69 222.73,132.69 222.86,132.65 C222.99,132.60 222.99,132.60 223.12,132.55 "/><path d="M222.61,132.71 C222.33,132.74 222.33,132.74 222.05,132.76 C221.79,132.74 221.78,132.74 221.52,132.70 C221.29,132.62 221.29,132.62 221.06,132.53 C220.89,132.41 220.89,132.41 220.73,132.27 "/><path d="M220.88,132.45 C221.07,132.56 221.08,132.56 221.28,132.66 C221.53,132.73 221.53,132.73 221.78,132.78 C222.06,132.79 222.06,132.79 222.33,132.78 C222.60,132.74 222.61,132.74 222.87,132.67 C223.11,132.58 223.11,132.58 223.34,132.46 C223.52,132.33 223.52,132.32 223.69,132.18 "/><path d="M221.27,131.50 C221.50,131.56 221.50,131.56 221.73,131.61 C221.98,131.61 221.98,131.61 222.23,131.61 C222.47,131.56 222.47,131.56 222.72,131.51 C222.93,131.42 222.93,131.42 223.14,131.32 C223.30,131.19 223.30,131.19 223.46,131.06 "/><path d="M223.48,130.15 C223.33,130.02 223.33,130.02 223.18,129.91 C222.97,129.83 222.97,129.83 222.76,129.76 C222.52,129.72 222.52,129.72 222.27,129.70 C222.02,129.72 222.02,129.72 221.77,129.75 C221.54,129.82 221.54,129.82 221.31,129.90 C221.12,130.01 221.12,130.01 220.93,130.13 C220.81,130.27 220.81,130.27 220.69,130.41 "/><path d="M221.26,131.01 C221.38,131.09 221.38,131.09 221.51,131.15 C221.67,131.19 221.67,131.19 221.84,131.23 C222.01,131.23 222.01,131.23 222.19,131.23 C222.36,131.20 222.36,131.20 222.53,131.16 C222.69,131.10 222.69,131.10 222.83,131.02 C222.95,130.94 222.95,130.94 223.06,130.84 "/><path d="M223.07,130.20 C222.97,130.11 222.97,130.11 222.86,130.03 C222.71,129.97 222.71,129.97 222.56,129.92 C222.39,129.90 222.39,129.90 222.22,129.88 C222.04,129.90 222.04,129.90 221.87,129.92 C221.70,129.97 221.70,129.97 221.54,130.02 C221.41,130.10 221.41,130.10 221.28,130.18 C221.24,130.22 221.24,130.22 221.20,130.27 "/><path d="M223.80,130.58 L223.79,130.92 L223.61,131.26 "/><path d="M220.80,131.53 L220.54,131.24 L220.46,130.90 "/><path d="M223.12,132.55 L222.87,132.64 L222.61,132.71 "/><path d="M220.73,132.27 L220.88,132.45 "/><path d="M223.69,132.18 L223.87,131.84 L223.88,131.70 L223.90,131.64 "/><path d="M221.09,132.54 L221.09,132.54 "/><path d="M221.07,131.39 L221.27,131.50 "/><path d="M223.46,131.06 L223.63,130.75 L223.63,130.44 L223.48,130.15 "/><path d="M220.69,130.41 L220.60,130.73 L220.67,131.04 L220.91,131.30 L221.07,131.39 "/><path d="M220.73,132.27 L220.62,132.15 L220.59,132.02 L220.55,131.95 L220.54,131.81 "/><path d="M220.54,131.83 L220.54,131.81 "/><path d="M220.73,132.27 L220.59,132.02 "/><path d="M221.20,130.27 L221.10,130.39 L221.04,130.61 L221.09,130.82 L221.26,131.01 "/><path d="M223.06,130.84 L223.18,130.62 L223.18,130.40 L223.07,130.20 "/><path d="M223.12,132.55 L223.53,132.29 L223.80,131.98 "/><path d="M223.88,131.70 L223.80,131.97 "/><path d="M224.14,134.34 L224.14,134.35 "/></g><g style="stroke:#000000;stroke-width:0.529"><path d="M223.58,130.17 C223.43,130.04 223.42,130.04 223.26,129.92 C223.03,129.82 223.02,129.82 222.79,129.74 C222.54,129.71 222.53,129.71 222.28,129.69 C222.02,129.71 222.02,129.71 221.76,129.74 C221.52,129.81 221.52,129.81 221.28,129.89 C221.06,130.01 221.06,130.01 220.85,130.15 "/><path d="M224.14,134.34 L223.90,131.63 L223.80,130.58 L223.79,130.52 L223.62,130.21 L223.58,130.17 "/><path d="M220.85,130.15 L220.59,130.46 L220.56,130.50 L220.46,130.84 L220.46,130.90 L220.78,134.61 "/></g></g><g id="Actor_.3"><g style="stroke:#000000;stroke-width:0.176"><path d="M22.09,120.30 C21.91,120.44 21.91,120.44 21.72,120.58 C21.49,120.68 21.48,120.68 21.24,120.77 C20.97,120.82 20.97,120.82 20.70,120.86 C20.42,120.86 20.42,120.86 20.15,120.84 C19.90,120.78 19.90,120.78 19.66,120.71 C19.46,120.60 19.46,120.60 19.27,120.48 "/><path d="M21.32,121.69 C21.05,121.74 21.05,121.74 20.78,121.78 C20.50,121.78 20.50,121.78 20.23,121.76 C19.98,121.70 19.98,121.70 19.74,121.63 C19.54,121.52 19.54,121.52 19.36,121.40 "/><path d="M20.10,121.69 C20.30,121.72 20.30,121.72 20.50,121.75 C20.64,121.75 20.64,121.75 20.77,121.75 C20.91,121.73 20.91,121.73 21.05,121.71 C21.31,121.64 21.31,121.65 21.57,121.57 C21.79,121.45 21.79,121.45 22.00,121.33 "/><path d="M22.00,121.33 C21.78,121.46 21.78,121.46 21.55,121.58 C21.30,121.66 21.30,121.65 21.05,121.72 C20.91,121.74 20.91,121.74 20.78,121.75 C20.64,121.76 20.64,121.76 20.51,121.76 C20.25,121.72 20.25,121.72 19.99,121.68 "/><path d="M19.24,119.36 C19.37,119.22 19.37,119.21 19.51,119.08 C19.70,118.96 19.70,118.97 19.90,118.86 C20.07,118.81 20.08,118.81 20.25,118.76 C20.31,118.74 20.31,118.74 20.37,118.73 C20.62,118.71 20.62,118.71 20.88,118.69 C21.11,118.72 21.12,118.72 21.35,118.77 "/><path d="M21.85,120.16 C21.74,120.26 21.73,120.26 21.61,120.34 C21.40,120.44 21.39,120.44 21.17,120.52 C20.93,120.57 20.93,120.57 20.68,120.61 C20.43,120.60 20.43,120.60 20.18,120.59 "/><path d="M19.65,119.34 C19.74,119.24 19.74,119.24 19.84,119.15 C19.97,119.07 19.97,119.07 20.11,118.99 C20.28,118.94 20.28,118.94 20.45,118.90 C20.62,118.88 20.62,118.88 20.80,118.87 C20.97,118.90 20.97,118.90 21.14,118.92 C21.28,118.98 21.28,118.98 21.42,119.04 "/><path d="M21.56,119.86 C21.44,119.95 21.44,119.95 21.32,120.04 C21.17,120.11 21.17,120.11 21.01,120.17 C20.84,120.20 20.84,120.20 20.66,120.22 C20.49,120.22 20.49,120.22 20.31,120.21 "/><path d="M22.34,119.62 L22.30,119.97 L22.09,120.30 "/><path d="M19.27,120.48 L19.04,120.18 L18.99,119.84 "/><path d="M22.41,120.51 L22.42,120.67 L22.40,120.74 L22.39,120.88 L22.17,121.21 L21.80,121.49 L21.38,121.67 L21.32,121.69 "/><path d="M19.36,121.40 L19.13,121.10 L19.10,120.97 L19.08,120.92 "/><path d="M19.10,120.97 L19.21,121.21 "/><path d="M19.99,121.68 L19.97,121.67 L20.10,121.69 "/><path d="M19.23,121.23 L19.53,121.49 L19.97,121.67 "/><path d="M20.18,120.59 L19.74,120.47 L19.39,120.26 L19.18,119.98 L19.13,119.67 L19.24,119.36 "/><path d="M21.35,118.77 L21.38,118.77 L21.76,118.93 L22.04,119.18 L22.17,119.47 L22.14,119.79 L21.94,120.09 L21.85,120.16 "/><path d="M20.25,120.19 L20.00,120.13 L19.75,119.98 L19.60,119.78 L19.57,119.57 L19.65,119.34 "/><path d="M21.42,119.04 L21.62,119.22 L21.72,119.42 L21.69,119.65 L21.56,119.86 "/><path d="M20.31,120.21 L20.25,120.19 "/><path d="M22.00,121.33 L22.30,121.02 L22.40,120.74 "/><path d="M21.97,121.34 L21.98,121.34 "/><path d="M22.42,120.58 L22.42,120.53 "/></g><g style="stroke:#000000;stroke-width:0.529"><path d="M19.14,119.40 C19.28,119.24 19.28,119.24 19.43,119.10 C19.65,118.97 19.65,118.97 19.87,118.85 C20.12,118.78 20.12,118.78 20.36,118.71 C20.62,118.69 20.63,118.69 20.89,118.68 C21.14,118.71 21.14,118.71 21.38,118.75 C21.62,118.84 21.62,118.84 21.84,118.94 "/><path d="M19.32,123.62 L19.08,120.92 L19.07,120.89 L18.99,119.84 L18.99,119.78 L19.12,119.44 L19.14,119.40 "/><path d="M21.84,118.94 L22.18,119.24 L22.34,119.62 L22.41,120.51 L22.42,120.53 L22.67,123.32 "/></g></g><g id="Actor_.4"><g style="stroke:#000000;stroke-width:0.176"><path d="M133.44,85.53 C133.33,85.64 133.33,85.64 133.21,85.74 C133.04,85.84 133.04,85.84 132.87,85.92 C132.67,85.98 132.67,85.98 132.46,86.03 C132.25,86.04 132.25,86.04 132.04,86.05 C131.84,86.02 131.84,86.02 131.64,85.98 C131.47,85.91 131.47,85.91 131.31,85.83 "/><path d="M140.50,84.48 C140.50,84.54 140.50,84.54 140.49,84.60 C140.44,84.80 140.44,84.80 140.38,85.00 C140.20,85.44 140.20,85.44 140.02,85.88 C139.78,86.37 139.78,86.37 139.53,86.86 "/><path d="M128.97,86.23 L139.53,86.86 L140.26,84.53 "/><path d="M131.31,85.83 L131.09,85.62 L131.00,85.37 L131.01,85.28 "/><path d="M133.46,85.51 L133.57,85.25 "/><path d="M133.55,84.99 L133.56,85.13 "/><path d="M140.43,84.40 L140.50,84.48 "/></g><g style="stroke:#000000;stroke-width:0.529"><path d="M297.00,97.99 L129.15,87.92 L128.97,86.23 L129.70,83.90 L130.89,83.97 "/><path d="M297.00,93.67 L133.50,84.12 "/></g></g><g id="Actor_.5"><g style="stroke:#000000;stroke-width:0.176"><path d="M117.14,15.24 C117.55,26.15 117.55,26.15 117.93,37.06 C118.08,45.60 118.08,45.60 118.19,54.13 C118.14,64.48 118.15,64.48 118.06,74.82 C117.93,76.51 117.94,76.52 117.75,78.20 C116.78,82.01 116.77,82.02 115.72,85.80 "/><path d="M118.15,72.54 C118.23,63.27 118.23,63.27 118.27,54.00 C118.14,44.00 118.14,44.00 117.96,34.01 C117.60,24.10 117.56,24.10 117.20,14.19 C117.25,13.33 117.26,13.33 117.34,12.46 C117.47,11.88 117.47,11.87 117.63,11.29 "/><path d="M117.14,15.24 C117.20,13.75 117.20,13.75 117.28,12.26 C117.35,11.85 117.35,11.85 117.44,11.45 C117.61,11.05 117.61,11.05 117.81,10.67 "/><path d="M118.50,72.56 C118.79,61.96 118.79,61.96 119.07,51.36 C119.07,49.82 119.06,49.82 119.05,48.29 C119.00,39.66 119.04,39.66 118.95,31.04 C118.57,21.64 118.57,21.64 118.13,12.24 "/><path d="M115.78,86.51 L115.75,86.18 L105.13,85.60 "/><path d="M105.09,85.22 L115.72,85.80 L115.75,86.14 L105.14,85.56 "/><path d="M106.51,14.66 L117.14,15.24 "/><path d="M117.56,79.06 L106.94,78.47 "/><path d="M107.43,74.24 L118.06,74.82 "/><path d="M109.98,82.40 L110.42,81.91 L111.25,81.64 L112.13,81.74 L112.69,82.16 L112.66,81.79 L112.44,81.55 L112.10,81.37 L111.22,81.27 L110.38,81.54 L109.95,82.06 L109.94,82.35 L110.40,81.89 L111.21,81.61 L112.13,81.70 L112.47,81.88 L112.70,82.18 "/><path d="M109.98,82.43 L110.09,82.62 "/><path d="M112.70,82.19 L112.62,82.39 "/><path d="M115.75,86.18 L117.77,78.61 L117.59,79.43 "/><path d="M115.75,86.14 L117.58,79.43 "/><path d="M117.77,78.61 L118.31,75.14 L118.50,72.56 L118.15,72.54 L118.08,76.03 L117.77,78.61 "/><path d="M117.63,11.29 L117.79,11.10 L117.94,11.21 L118.13,12.20 L117.39,12.20 "/></g><g style="stroke:#000000;stroke-width:0.529"><path d="M105.09,85.22 C106.15,81.44 106.15,81.43 107.12,77.62 C107.32,75.94 107.30,75.93 107.43,74.24 C107.52,63.90 107.52,63.90 107.56,53.55 C107.43,43.58 107.43,43.58 107.26,33.61 C106.91,24.13 106.86,24.13 106.51,14.66 C106.56,13.17 106.57,13.17 106.65,11.68 C106.72,11.27 106.72,11.27 106.81,10.87 C106.98,10.48 106.98,10.48 107.17,10.11 "/><path d="M118.21,12.00 C118.65,21.43 118.65,21.43 119.03,30.86 C119.13,41.06 119.13,41.06 119.15,51.26 C118.90,61.90 118.87,61.90 118.57,72.54 C118.49,73.89 118.49,73.89 118.38,75.24 C118.23,76.49 118.23,76.49 118.05,77.74 C117.85,78.74 117.85,78.74 117.63,79.73 C116.72,83.10 116.72,83.10 115.79,86.47 "/><path d="M105.13,85.60 L105.09,85.22 "/><path d="M107.17,10.11 L117.81,10.67 L117.98,10.79 L118.11,11.23 L118.21,12.00 "/><path d="M115.79,86.47 L105.16,85.93 L105.13,85.60 "/><path d="M110.09,82.62 L110.45,82.25 L111.28,81.98 L112.16,82.07 L112.62,82.39 L112.09,82.84 L111.20,83.02 L110.76,82.97 L110.09,82.62 "/></g></g><g id="Actor_.6"><g style="stroke:#000000;stroke-width:0.176"><path d="M109.47,103.36 C109.73,103.39 109.73,103.39 109.99,103.44 C110.35,103.58 110.35,103.58 110.70,103.73 C110.95,103.93 110.96,103.94 111.20,104.15 "/><path d="M110.95,115.19 C115.45,116.08 115.46,116.08 119.97,116.89 C122.42,117.06 122.42,117.02 124.87,117.15 C127.19,117.28 127.19,117.32 129.51,117.41 C134.34,117.11 134.35,117.11 139.18,116.73 "/><path d="M138.70,111.34 C133.87,111.72 133.87,111.73 129.03,112.02 C125.83,111.89 125.83,111.84 122.62,111.67 C121.06,111.58 121.06,111.61 119.50,111.50 C114.99,110.68 114.98,110.68 110.48,109.80 "/><path d="M112.79,89.23 C113.22,89.22 113.23,89.22 113.66,89.19 C114.08,89.09 114.08,89.09 114.49,88.98 C114.77,88.86 114.77,88.86 115.04,88.72 "/><path d="M112.65,87.71 C113.09,87.70 113.09,87.70 113.53,87.67 C113.95,87.58 113.95,87.58 114.37,87.47 C114.73,87.30 114.73,87.29 115.08,87.11 "/><path d="M118.89,96.76 C122.51,96.95 122.51,96.95 126.12,97.16 C126.45,97.21 126.45,97.21 126.78,97.28 C127.09,97.40 127.10,97.40 127.40,97.55 C127.65,97.74 127.66,97.74 127.90,97.95 C128.08,98.18 128.08,98.19 128.24,98.43 "/><path d="M115.22,90.07 C115.39,89.81 115.39,89.80 115.58,89.55 C116.52,88.62 116.50,88.59 117.48,87.70 C118.96,86.87 118.98,86.86 120.51,86.11 C122.46,85.59 122.48,85.58 124.46,85.15 "/><path d="M117.38,95.33 C117.64,95.48 117.64,95.48 117.90,95.61 C118.22,95.69 118.23,95.69 118.55,95.75 C118.90,95.76 118.90,95.76 119.25,95.75 C119.60,95.69 119.60,95.69 119.95,95.61 C120.25,95.48 120.25,95.48 120.54,95.34 C120.78,95.14 120.78,95.13 121.01,94.92 "/><path d="M129.71,108.76 C129.81,108.58 129.81,108.58 129.90,108.39 C129.99,107.94 129.99,107.94 130.05,107.49 C130.07,106.73 130.07,106.73 130.08,105.96 "/><path d="M130.30,105.16 C130.32,105.57 130.32,105.57 130.33,105.98 C130.24,107.33 130.25,107.33 130.14,108.69 C130.00,109.27 130.00,109.27 129.82,109.85 "/><path d="M119.11,95.97 C118.79,95.98 118.78,95.98 118.46,96.01 C118.21,96.10 118.20,96.10 117.95,96.20 C117.73,96.35 117.73,96.35 117.51,96.52 "/><path d="M139.50,108.92 C139.26,109.14 139.26,109.14 139.00,109.35 C138.66,109.52 138.66,109.52 138.31,109.68 C137.82,109.78 137.82,109.78 137.33,109.86 "/><path d="M122.05,80.69 C121.58,80.62 121.58,80.62 121.11,80.54 C120.71,80.38 120.70,80.38 120.31,80.21 C120.02,79.98 120.02,79.98 119.74,79.73 "/><path d="M128.12,77.51 C125.20,77.37 125.19,77.37 122.27,77.27 C121.92,77.33 121.92,77.34 121.57,77.44 C121.27,77.58 121.27,77.58 120.98,77.73 C120.75,77.92 120.75,77.92 120.54,78.12 "/><path d="M120.51,79.45 C120.71,79.63 120.71,79.63 120.93,79.80 C121.21,79.92 121.21,79.93 121.50,80.03 C122.23,80.12 122.24,80.13 122.97,80.19 "/><path d="M127.58,87.06 C126.96,86.86 126.95,86.86 126.32,86.69 C125.84,86.67 125.84,86.68 125.36,86.68 C124.87,86.78 124.87,86.78 124.39,86.89 C123.99,87.06 123.99,87.06 123.60,87.25 C123.22,87.55 123.22,87.55 122.85,87.86 "/><path d="M122.72,90.18 C123.04,90.44 123.04,90.45 123.38,90.69 C123.83,90.86 123.83,90.86 124.29,91.01 C124.81,91.08 124.81,91.08 125.34,91.13 C125.88,91.08 125.88,91.08 126.42,91.02 C126.92,90.87 126.92,90.87 127.42,90.69 C127.82,90.45 127.83,90.45 128.22,90.19 "/><path d="M130.00,92.62 C129.53,93.04 129.52,93.05 129.03,93.44 C128.38,93.75 128.38,93.76 127.72,94.04 C126.97,94.21 126.96,94.21 126.20,94.35 C125.43,94.37 125.42,94.37 124.64,94.35 C123.93,94.21 123.92,94.21 123.22,94.03 C122.65,93.75 122.64,93.74 122.08,93.43 "/><path d="M130.08,93.26 C129.60,93.70 129.59,93.70 129.09,94.11 C128.45,94.43 128.44,94.43 127.78,94.71 C127.02,94.89 127.02,94.89 126.26,95.03 C125.52,95.04 125.51,95.04 124.77,95.03 C124.02,94.88 124.02,94.88 123.28,94.70 C122.72,94.43 122.72,94.42 122.17,94.12 C122.06,94.01 122.05,94.01 121.95,93.89 "/><path d="M123.42,89.21 C123.66,89.41 123.66,89.41 123.91,89.59 C124.24,89.71 124.24,89.71 124.58,89.83 C124.96,89.88 124.97,89.88 125.36,89.91 C125.75,89.88 125.76,89.88 126.15,89.83 C126.52,89.72 126.53,89.72 126.89,89.59 C127.19,89.41 127.19,89.41 127.48,89.22 "/><path d="M127.50,87.35 C127.22,87.19 127.21,87.18 126.92,87.04 C126.55,86.95 126.55,86.95 126.18,86.87 C125.79,86.86 125.78,86.86 125.39,86.87 C125.00,86.94 124.99,86.94 124.61,87.03 C124.27,87.18 124.26,87.18 123.93,87.34 C123.68,87.54 123.68,87.55 123.44,87.76 "/><path d="M123.80,89.29 C124.07,89.45 124.08,89.45 124.36,89.59 C124.68,89.68 124.69,89.68 125.02,89.74 C125.38,89.75 125.38,89.75 125.74,89.74 C126.09,89.68 126.09,89.68 126.44,89.60 C126.75,89.47 126.75,89.47 127.05,89.32 C127.28,89.14 127.28,89.14 127.50,88.94 "/><path d="M127.51,87.63 C127.32,87.48 127.32,87.47 127.13,87.33 C126.80,87.20 126.80,87.20 126.47,87.08 C126.12,87.03 126.12,87.03 125.77,87.00 C125.41,87.03 125.40,87.03 125.04,87.07 C124.71,87.17 124.71,87.17 124.38,87.29 C124.06,87.50 124.06,87.50 123.75,87.73 "/><path d="M128.12,97.15 C127.87,96.94 127.87,96.94 127.62,96.75 C127.31,96.61 127.31,96.61 127.00,96.48 C126.67,96.41 126.67,96.41 126.34,96.36 "/><path d="M138.55,90.99 C140.56,91.15 140.56,91.15 142.56,91.35 C143.55,91.55 143.56,91.55 144.54,91.79 C145.37,92.15 145.37,92.16 146.18,92.56 C146.51,92.78 146.51,92.78 146.82,93.01 C147.32,93.60 147.33,93.60 147.81,94.20 "/><path d="M140.51,106.25 C140.36,106.51 140.36,106.52 140.22,106.79 C139.99,107.59 140.01,107.60 139.78,108.40 C139.65,108.66 139.65,108.67 139.50,108.92 "/><path d="M134.52,89.50 C134.33,89.67 134.32,89.67 134.12,89.84 C133.81,90.00 133.80,90.00 133.49,90.14 C133.14,90.22 133.14,90.22 132.80,90.29 C132.44,90.29 132.44,90.29 132.09,90.28 C131.76,90.22 131.76,90.22 131.44,90.14 C131.18,90.01 131.18,90.01 130.92,89.86 "/><path d="M139.18,116.73 C141.38,116.21 141.38,116.21 143.57,115.67 C143.77,115.59 143.77,115.58 143.96,115.49 C145.67,114.63 145.70,114.67 147.37,113.76 C148.76,112.54 148.77,112.52 150.08,111.22 "/><path d="M149.61,105.83 C148.32,107.13 148.30,107.14 146.93,108.36 C145.08,109.35 145.06,109.36 143.16,110.26 C140.95,110.85 140.93,110.85 138.70,111.34 "/><path d="M145.55,90.68 C145.89,90.83 145.89,90.83 146.24,90.96 C146.66,91.04 146.66,91.04 147.09,91.10 C148.26,91.17 148.26,91.17 149.43,91.23 "/><path d="M103.45,108.93 L103.33,108.67 L102.86,103.32 L104.09,106.02 L106.73,108.27 L110.48,109.80 L110.95,115.19 L107.20,113.66 L104.57,111.41 L103.45,108.93 "/><path d="M102.72,93.67 L102.85,103.27 "/><path d="M102.75,89.28 L105.30,89.42 L105.28,89.54 "/><path d="M111.77,90.16 L111.68,89.17 L112.79,89.23 L112.65,87.71 L102.56,87.16 "/><path d="M105.25,93.86 L105.26,101.87 L105.47,102.37 L105.93,102.79 L106.60,103.08 L109.47,103.36 L110.73,94.90 L111.00,94.18 "/><path d="M105.35,102.09 L105.34,93.88 "/><path d="M105.30,89.42 L107.05,89.52 L107.07,89.68 "/><path d="M105.87,89.45 L105.82,89.59 "/><path d="M107.92,105.57 L108.09,105.66 L108.88,105.46 L109.35,105.55 L109.63,105.34 L109.75,104.90 L109.64,104.69 L109.17,104.44 L108.78,104.38 L108.10,104.53 L107.67,104.89 L107.61,105.12 L107.66,105.33 L107.92,105.57 "/><path d="M107.05,89.52 L110.08,89.68 L110.02,89.08 L110.24,89.09 L110.08,89.68 "/><path d="M108.11,105.66 L108.77,105.73 L109.35,105.55 "/><path d="M108.73,89.81 L109.04,89.63 "/><path d="M111.20,104.15 L111.44,104.62 L111.45,105.21 L111.01,106.83 L111.04,107.43 L111.01,106.83 "/><path d="M110.24,89.09 L111.68,89.17 "/><path d="M139.18,116.73 L138.70,111.34 "/><path d="M111.06,107.47 L111.24,107.81 L111.75,108.23 L112.37,108.47 L114.54,108.80 L114.47,108.04 L112.28,107.37 L111.41,106.80 L111.54,106.29 L111.46,104.66 "/><path d="M111.17,107.67 L111.41,106.80 "/><path d="M111.54,106.29 L111.45,105.21 "/><path d="M113.87,86.41 L113.56,86.55 L112.86,86.62 L112.19,86.32 "/><path d="M115.04,88.72 L115.22,90.07 L115.07,90.41 "/><path d="M113.57,89.19 L113.05,89.22 "/><path d="M115.08,87.11 L115.68,86.51 "/><path d="M114.47,108.04 L117.83,108.56 L117.74,107.65 L117.08,106.80 L116.73,104.68 L116.32,100.03 L116.67,102.15 L117.33,103.00 L117.74,107.65 "/><path d="M114.54,108.80 L117.95,109.30 L117.83,108.56 "/><path d="M116.94,94.61 L117.15,96.14 L117.49,96.51 L117.11,97.33 L115.97,96.61 L114.55,94.48 L114.64,95.45 L114.75,95.64 L116.06,97.60 L116.93,98.19 L117.00,97.77 L117.24,97.36 L117.67,97.02 L118.24,96.81 L118.89,96.76 "/><path d="M128.24,98.43 L128.39,98.96 L129.27,108.92 L129.49,109.93 L129.65,110.04 L118.17,109.41 L118.02,109.31 "/><path d="M124.46,85.15 L122.72,85.06 L122.67,84.47 L122.20,84.34 L121.96,84.06 L122.10,84.89 L122.26,85.02 L122.72,85.06 "/><path d="M115.10,88.69 L115.74,88.16 L116.03,87.62 L115.89,86.11 L118.50,76.54 "/><path d="M116.32,100.03 L116.85,98.60 L117.04,100.70 L117.15,100.91 L116.93,98.19 "/><path d="M117.10,97.36 L116.98,97.82 "/><path d="M116.85,98.60 L116.81,98.10 "/><path d="M116.96,94.61 L117.05,94.96 L117.38,95.33 "/><path d="M116.03,87.62 L116.51,85.87 L116.56,86.47 L116.34,86.46 "/><path d="M116.56,86.47 L118.69,78.66 "/><path d="M115.89,86.11 L115.87,86.14 "/><path d="M118.58,85.28 L116.75,85.79 "/><path d="M117.80,108.29 L129.27,108.92 L129.49,108.12 L129.71,108.76 "/><path d="M130.08,105.96 L129.29,105.92 L128.94,101.91 L129.72,101.95 L130.08,105.96 L130.30,105.16 "/><path d="M129.82,109.85 L129.65,110.04 "/><path d="M117.33,103.00 L117.15,100.91 "/><path d="M118.89,96.76 L119.11,95.97 "/><path d="M120.10,94.85 L119.61,95.13 L118.77,95.22 L118.13,95.00 L117.85,94.68 "/><path d="M117.57,91.94 L117.41,90.10 L117.48,90.36 L117.99,90.75 L118.81,90.84 L119.58,90.59 L119.84,90.37 L119.98,89.84 L120.17,91.90 "/><path d="M117.41,90.10 L117.69,89.59 L118.40,89.27 L119.25,89.27 L119.85,89.59 L119.98,89.84 "/><path d="M118.00,87.43 L119.58,81.61 L121.88,81.74 L121.00,84.96 L122.29,85.03 "/><path d="M117.78,82.02 L119.65,81.49 L119.53,80.23 L118.18,80.55 "/><path d="M119.01,109.46 L124.67,110.28 L137.33,109.86 L137.28,109.28 L139.50,108.92 "/><path d="M121.30,94.94 L121.32,95.71 L121.12,96.08 L119.11,95.97 "/><path d="M120.02,88.73 L120.01,88.53 L120.16,88.88 "/><path d="M122.71,90.91 L126.52,91.44 L129.44,89.58 L129.65,91.94 L126.73,93.80 L122.92,93.27 L122.72,90.96 L121.82,88.53 L122.46,88.12 L122.06,87.68 L121.71,87.55 L121.30,87.51 L120.48,87.68 L119.96,88.12 L119.95,88.65 L120.47,89.04 L120.86,89.12 L121.86,88.96 L122.05,90.94 "/><path d="M122.32,88.21 L122.00,87.89 L121.73,87.79 L120.91,87.77 L120.26,88.06 L120.01,88.53 "/><path d="M119.66,81.62 L119.65,81.49 "/><path d="M121.96,84.06 L122.24,82.86 L122.05,80.69 "/><path d="M119.74,79.73 L119.44,79.14 L119.53,80.23 "/><path d="M119.44,79.14 L119.47,78.50 "/><path d="M127.33,80.13 L127.65,78.95 L127.59,78.28 L127.21,79.96 L127.64,80.29 L128.37,80.36 L128.12,77.51 "/><path d="M120.54,78.12 L120.30,78.57 L120.29,79.02 L120.51,79.45 "/><path d="M122.97,80.19 L122.83,80.73 L122.05,80.69 "/><path d="M122.14,107.17 L122.36,106.37 L122.45,106.69 L122.95,107.22 L123.72,107.45 L124.11,107.42 L124.67,107.12 L124.65,107.62 L124.24,108.10 L123.50,108.25 L122.74,108.01 L122.23,107.48 L121.41,98.91 L121.54,98.44 L121.41,98.91 "/><path d="M121.12,96.08 L126.34,96.36 L126.12,97.16 "/><path d="M121.95,89.97 L121.28,90.88 "/><path d="M122.36,106.37 L122.28,105.56 L124.54,105.66 L124.67,107.12 "/><path d="M122.28,105.53 L121.93,101.52 L124.19,101.65 L123.96,99.05 L123.69,98.48 L121.65,98.37 L121.64,98.30 L121.54,98.44 "/><path d="M121.93,101.52 L121.65,98.37 "/><path d="M121.64,98.30 L122.21,98.00 L122.60,97.97 L123.36,98.20 L123.69,98.48 "/><path d="M122.85,87.86 L122.40,88.67 L122.37,89.56 L122.72,90.18 "/><path d="M128.22,90.19 L128.74,89.57 L128.93,88.89 L128.70,88.03 L128.08,87.33 L127.58,87.06 L128.55,87.20 L129.32,89.25 L130.03,89.79 L130.50,90.65 L130.51,91.67 L130.00,92.62 "/><path d="M130.52,90.69 L130.57,92.34 L130.08,93.26 "/><path d="M122.92,93.27 L122.31,91.65 "/><path d="M121.86,88.96 L121.82,88.53 "/><path d="M122.46,88.12 L122.84,87.88 "/><path d="M122.17,85.03 L122.16,84.94 "/><path d="M122.04,83.60 L121.88,81.74 "/><path d="M122.24,82.86 L122.83,80.73 "/><path d="M127.48,89.22 L127.87,88.76 L128.01,88.26 L127.88,87.77 L127.50,87.35 "/><path d="M123.44,87.76 L123.17,88.25 L123.17,88.72 L123.42,89.21 "/><path d="M123.45,88.80 L123.80,89.29 "/><path d="M127.50,88.94 L127.74,88.50 L127.74,88.05 L127.51,87.63 "/><path d="M123.75,87.73 L123.40,88.26 L123.45,88.80 "/><path d="M122.67,84.47 L129.40,84.84 "/><path d="M123.00,77.23 L123.19,79.40 L122.97,80.19 "/><path d="M123.19,79.40 L123.56,78.06 L124.02,77.64 L124.55,77.56 L127.12,77.73 L127.52,77.95 L127.59,78.28 "/><path d="M124.54,105.66 L124.19,101.65 "/><path d="M124.39,86.89 L124.74,86.67 L125.15,86.73 "/><path d="M124.46,85.15 L127.90,84.98 L129.29,85.21 "/><path d="M128.39,98.96 L128.61,98.16 L128.48,97.70 L128.12,97.15 "/><path d="M126.73,93.80 L126.52,91.44 "/><path d="M127.19,79.75 L127.21,79.96 "/><path d="M127.65,78.95 L127.60,78.11 "/><path d="M128.12,77.51 L128.44,77.45 L128.62,77.18 "/><path d="M129.49,108.12 L129.29,105.92 "/><path d="M128.94,101.91 L128.66,98.75 L129.95,98.82 L129.93,98.90 L133.23,97.55 L135.76,95.64 L137.24,93.37 L137.51,90.99 L137.59,92.09 L138.37,92.19 L138.93,92.22 L138.55,90.99 "/><path d="M147.81,94.20 L148.21,95.54 L147.98,96.93 L148.38,101.48 L147.00,104.96 L146.08,105.24 L144.70,105.25 L147.98,96.93 "/><path d="M128.66,98.75 L128.61,98.16 "/><path d="M131.75,96.58 L131.91,96.32 L131.93,96.02 L131.79,95.78 L131.18,95.45 L130.76,95.41 L130.34,95.45 L129.63,95.78 L129.37,96.15 L129.42,96.55 L129.63,96.78 L129.47,96.43 L129.73,95.96 L130.27,95.70 L130.77,95.63 L131.47,95.79 L131.71,95.97 L131.83,96.18 L131.75,96.58 L131.16,96.94 L130.75,97.02 L130.32,97.02 L129.63,96.78 "/><path d="M129.32,89.25 L129.44,89.58 "/><path d="M128.76,88.23 L128.75,88.22 "/><path d="M128.90,80.39 L131.48,80.50 L131.96,80.33 L132.26,79.83 L128.87,80.02 L128.90,80.39 L128.37,80.36 "/><path d="M128.87,80.02 L128.69,77.35 "/><path d="M128.77,78.94 L128.63,77.35 "/><path d="M128.83,78.94 L128.84,79.05 L131.71,79.21 L131.32,74.83 L132.48,75.02 L133.43,75.46 L134.07,76.08 L134.24,78.09 L133.34,78.07 L132.86,78.24 L132.61,78.55 L132.26,79.83 "/><path d="M128.45,74.67 L131.32,74.83 "/><path d="M132.66,105.76 L136.74,105.99 L135.41,107.81 L132.99,109.46 L132.66,105.76 L130.32,105.64 "/><path d="M130.30,105.16 L129.94,101.15 L129.72,101.95 L129.71,100.66 L129.93,98.90 L130.02,99.89 L130.69,99.62 L141.90,100.23 L142.43,106.30 L140.51,106.25 "/><path d="M129.94,101.15 L130.02,99.89 "/><path d="M129.93,98.90 L129.95,98.82 "/><path d="M129.49,96.63 L129.47,96.43 "/><path d="M134.73,88.25 L134.76,89.06 L134.52,89.50 "/><path d="M130.92,89.86 L130.59,89.49 L130.38,87.99 "/><path d="M134.46,88.23 L133.98,88.69 L133.38,88.96 L131.99,89.10 L131.34,88.96 L130.82,88.68 L130.50,88.33 L130.40,87.99 "/><path d="M130.69,99.62 L133.32,98.54 L135.84,96.64 L137.32,94.37 L137.58,92.15 "/><path d="M133.57,88.18 L133.04,88.49 L132.20,88.57 L131.50,88.32 L131.29,88.05 "/><path d="M131.02,85.43 L130.85,83.45 L130.91,83.71 L131.43,84.10 L132.24,84.19 L132.65,84.10 L133.28,83.72 L133.42,83.19 L133.58,85.03 "/><path d="M130.85,83.45 L131.13,82.94 L131.83,82.62 L132.26,82.58 L133.02,82.75 L133.42,83.19 "/><path d="M131.83,96.19 L131.85,96.42 "/><path d="M131.71,79.21 L132.40,79.32 "/><path d="M132.99,109.46 L137.28,109.28 "/><path d="M134.24,78.09 L137.99,78.30 L138.62,78.56 L138.69,78.88 L138.03,81.33 L138.08,81.98 L137.83,82.31 L137.09,82.49 L137.03,81.82 L136.68,81.80 L136.74,82.47 L137.09,82.49 "/><path d="M134.07,76.08 L137.02,76.24 L136.48,78.21 "/><path d="M136.10,88.33 L136.53,88.72 L137.51,90.99 "/><path d="M135.50,84.24 L135.47,83.97 L135.75,82.97 L135.69,82.29 L135.16,84.22 "/><path d="M135.54,84.25 L135.51,83.84 "/><path d="M135.69,82.29 L135.93,81.99 L136.68,81.80 "/><path d="M135.75,82.97 L135.99,82.66 L136.56,82.49 L136.72,84.32 "/><path d="M136.74,105.99 L140.57,106.20 "/><path d="M137.22,98.50 L138.24,98.55 L137.99,95.68 L137.22,98.50 "/><path d="M136.52,95.60 L137.99,95.68 "/><path d="M138.55,90.99 L138.25,89.99 L136.87,88.38 "/><path d="M136.74,82.47 L136.56,82.49 "/><path d="M136.46,82.49 L136.57,82.48 "/><path d="M137.03,81.82 L137.56,81.74 L138.03,81.33 "/><path d="M138.24,98.55 L142.29,98.77 L141.90,100.23 "/><path d="M138.21,98.22 L139.47,98.28 L138.93,92.22 "/><path d="M138.64,80.67 L142.24,81.28 L145.95,83.00 L146.25,81.88 L142.15,80.21 L138.92,79.66 L137.63,84.37 "/><path d="M137.77,83.84 L141.40,84.46 "/><path d="M138.08,82.00 L138.75,79.56 L138.69,78.88 "/><path d="M137.71,78.28 L138.69,74.68 "/><path d="M150.08,111.22 L149.61,105.83 "/><path d="M138.69,78.71 L138.75,79.56 "/><path d="M138.98,77.97 L139.08,79.06 L138.92,79.66 "/><path d="M143.66,107.42 L142.72,107.60 L142.55,107.57 L142.80,107.38 L142.41,107.54 L141.96,107.21 L141.92,106.88 L142.14,106.56 L142.73,106.30 L143.08,106.26 L143.72,106.40 L143.94,106.57 L144.05,107.00 L143.71,107.40 L142.80,107.38 "/><path d="M142.55,107.57 L142.41,107.54 "/><path d="M142.43,106.30 L142.83,104.84 L142.29,98.77 "/><path d="M142.73,105.21 L144.70,105.22 "/><path d="M144.70,105.25 L144.68,105.25 "/><path d="M144.72,88.97 L144.79,89.75 L145.03,90.21 L145.55,90.68 "/><path d="M149.43,91.23 L149.91,96.72 L149.72,97.06 L149.37,97.36 L148.40,97.68 L148.61,100.09 L148.38,101.48 "/><path d="M146.11,92.52 L145.97,90.85 "/><path d="M145.22,89.00 L146.12,89.45 L146.95,89.59 L147.09,91.10 "/><path d="M145.48,84.70 L145.95,83.00 "/><path d="M147.00,104.96 L147.55,104.67 L148.03,104.21 L154.68,92.12 L157.23,92.26 L157.06,92.72 L157.54,98.11 L150.08,111.22 "/><path d="M146.95,89.59 L157.04,90.14 L157.23,92.26 "/><path d="M146.26,81.84 L146.77,79.98 "/><path d="M148.40,97.68 L148.21,95.54 "/><path d="M149.61,105.83 L157.06,92.72 "/><path d="M149.46,91.23 L149.85,91.25 L149.90,91.86 L154.68,92.12 "/><path d="M157.04,90.14 L157.09,89.70 "/><path d="M157.54,98.11 L157.96,95.53 L157.62,91.65 "/></g><g style="stroke:#000000;stroke-width:0.529"><path d="M128.27,76.97 C125.71,76.82 125.70,76.82 123.14,76.69 C122.64,76.71 122.64,76.71 122.15,76.74 C121.67,76.85 121.66,76.85 121.19,76.97 C120.78,77.17 120.78,77.17 120.37,77.38 C120.07,77.63 120.07,77.64 119.77,77.91 "/><path d="M105.79,82.66 L105.61,82.77 L103.46,85.07 L102.56,87.16 L102.74,89.35 "/><path d="M156.24,85.34 L151.19,80.28 L147.28,78.11 L146.77,79.98 L143.43,78.73 L138.98,77.97 L138.69,74.68 L128.60,74.13 L128.45,74.67 L128.69,77.35 L128.58,77.10 L128.27,76.97 "/><path d="M119.77,77.91 L119.47,78.50 L118.69,78.66 L118.50,76.54 L118.20,76.65 "/><path d="M157.62,91.65 L157.45,89.72 "/></g></g><g id="Actor_.7"><g style="stroke:#000000;stroke-width:0.176"><path d="M297.00,159.01 L0.00,142.78 "/><path d="M0.00,132.99 L297.00,149.21 "/><path d="M0.00,132.08 L297.00,148.31 "/></g><g style="stroke:#000000;stroke-width:0.529"><path d="M0.00,143.94 L297.00,160.17 "/></g></g><g id="Actor_.8"><g style="stroke:#000000;stroke-width:0.176"><path d="M19.25,122.81 L19.44,123.75 "/><path d="M22.60,122.52 L22.55,123.47 "/><path d="M86.40,126.49 L86.60,127.42 "/><path d="M89.71,127.14 L89.74,126.18 "/><path d="M108.15,105.67 L108.17,105.62 "/><path d="M110.27,97.89 L108.80,103.29 "/><path d="M141.23,89.26 L141.18,88.76 "/><path d="M143.97,88.92 L144.78,89.58 "/><path d="M145.37,90.52 L145.44,91.58 "/><path d="M149.73,94.35 L150.46,95.18 L150.37,95.92 "/><path d="M153.76,131.08 L153.57,130.13 "/><path d="M156.91,129.86 L156.87,130.81 "/><path d="M220.92,134.75 L220.72,133.83 "/><path d="M224.03,134.48 L224.06,133.52 "/><path d="M288.07,138.42 L287.87,137.50 "/><path d="M291.18,138.15 L291.21,137.18 "/></g><g style="stroke:#000000;stroke-width:0.529"><path d="M22.55,123.47 L20.79,124.19 L19.44,123.75 "/><path d="M86.63,127.43 L88.22,127.84 L89.71,127.14 "/><path d="M108.60,105.49 L108.54,105.73 "/><path d="M109.20,103.31 L109.78,101.19 "/><path d="M145.32,92.15 L145.13,90.96 L142.87,89.54 L137.45,89.05 "/><path d="M149.83,95.47 L150.34,95.85 L148.19,103.91 "/><path d="M156.87,130.81 L155.25,131.52 L153.76,131.08 "/><path d="M220.92,134.75 L222.75,135.15 L224.03,134.48 "/><path d="M288.07,138.42 L289.42,138.87 L291.18,138.15 "/></g></g><g id="Actor_.9"><g style="stroke:#000000;stroke-width:0.176"><path d="M288.20,136.21 C288.36,136.29 288.36,136.29 288.51,136.36 C288.77,136.41 288.77,136.41 289.03,136.46 C289.31,136.46 289.31,136.46 289.58,136.44 C289.85,136.39 289.85,136.39 290.11,136.32 C290.34,136.21 290.34,136.21 290.57,136.09 C290.73,135.95 290.73,135.95 290.89,135.79 "/><path d="M290.74,135.92 C290.55,136.05 290.55,136.05 290.35,136.18 C290.23,136.24 290.23,136.23 290.11,136.28 C289.98,136.32 289.98,136.32 289.85,136.36 C289.58,136.40 289.58,136.40 289.30,136.43 C289.03,136.42 289.03,136.42 288.76,136.39 C288.52,136.32 288.52,136.32 288.29,136.24 C288.10,136.12 288.10,136.12 287.93,135.99 "/><path d="M288.04,133.84 C288.22,133.72 288.22,133.72 288.40,133.60 C288.62,133.51 288.62,133.51 288.85,133.44 C289.10,133.40 289.10,133.40 289.35,133.37 C289.60,133.39 289.60,133.39 289.84,133.41 C290.06,133.48 290.06,133.48 290.27,133.55 C290.44,133.66 290.44,133.66 290.60,133.77 "/><path d="M290.65,134.68 C290.51,134.82 290.51,134.82 290.36,134.95 C290.16,135.06 290.16,135.06 289.95,135.15 C289.71,135.22 289.71,135.22 289.47,135.27 C289.22,135.28 289.22,135.28 288.97,135.28 C288.73,135.24 288.73,135.24 288.50,135.19 C288.31,135.11 288.30,135.11 288.12,135.01 "/><path d="M290.81,134.88 C290.65,135.03 290.65,135.03 290.48,135.18 C290.26,135.29 290.26,135.29 290.03,135.40 C289.77,135.47 289.77,135.47 289.50,135.53 C289.23,135.54 289.22,135.54 288.95,135.54 C288.69,135.50 288.69,135.50 288.43,135.44 C288.22,135.35 288.22,135.35 288.01,135.24 "/><path d="M288.29,136.24 C288.53,136.32 288.53,136.32 288.78,136.40 C289.04,136.42 289.04,136.42 289.31,136.44 C289.57,136.41 289.58,136.41 289.84,136.37 C289.97,136.33 289.97,136.33 290.10,136.29 C290.22,136.24 290.22,136.24 290.35,136.18 "/><path d="M288.40,133.88 C288.52,133.80 288.52,133.79 288.65,133.71 C288.81,133.65 288.81,133.65 288.97,133.60 C289.14,133.57 289.15,133.57 289.32,133.55 C289.49,133.56 289.50,133.56 289.67,133.58 C289.76,133.61 289.76,133.61 289.84,133.64 C289.91,133.66 289.91,133.66 289.97,133.68 C290.09,133.75 290.09,133.76 290.20,133.84 "/><path d="M290.24,134.48 C290.14,134.57 290.14,134.58 290.04,134.67 C289.89,134.74 289.89,134.74 289.75,134.81 C289.58,134.86 289.58,134.86 289.41,134.89 C289.23,134.90 289.23,134.90 289.05,134.90 "/><path d="M287.70,135.54 L287.72,135.61 L287.73,135.68 L287.76,135.73 L287.81,135.87 L288.09,136.16 L288.20,136.21 "/><path d="M290.89,135.79 L291.05,135.45 L291.04,135.31 "/><path d="M290.97,135.61 L290.74,135.92 "/><path d="M287.93,135.99 L287.76,135.73 "/><path d="M287.87,134.76 L287.76,134.45 L287.82,134.14 L288.04,133.84 "/><path d="M290.60,133.77 L290.78,134.06 L290.80,134.37 L290.65,134.68 "/><path d="M288.12,135.01 L287.87,134.76 "/><path d="M290.94,134.19 L290.97,134.54 L290.81,134.88 "/><path d="M288.01,135.24 L287.73,134.96 L287.62,134.62 "/><path d="M287.72,135.61 L287.71,135.49 "/><path d="M289.05,134.90 L288.72,134.84 L288.45,134.71 L288.27,134.53 L288.20,134.31 L288.24,134.09 L288.40,133.88 "/><path d="M290.20,133.84 L290.33,134.04 L290.34,134.26 L290.24,134.48 "/><path d="M291.28,138.02 L291.28,138.03 "/><path d="M291.04,135.33 L290.99,135.57 "/></g><g style="stroke:#000000;stroke-width:0.529"><path d="M290.70,133.79 C290.53,133.67 290.53,133.67 290.35,133.55 C290.11,133.47 290.11,133.47 289.87,133.40 C289.61,133.37 289.61,133.37 289.35,133.36 C289.09,133.39 289.09,133.39 288.84,133.42 C288.60,133.50 288.60,133.50 288.36,133.59 C288.16,133.72 288.16,133.72 287.96,133.87 "/><path d="M291.28,138.02 L291.04,135.31 L291.06,135.24 L290.94,134.19 L290.93,134.14 L290.73,133.83 L290.70,133.79 "/><path d="M287.96,133.87 L287.69,134.23 L287.62,134.62 L287.71,135.49 L287.70,135.54 L287.94,138.27 "/></g></g><g id="Actor_.10"><g style="stroke:#000000;stroke-width:0.176"><path d="M110.90,92.48 C110.78,92.15 110.78,92.15 110.66,91.81 C110.59,91.46 110.59,91.46 110.53,91.12 C110.52,90.96 110.52,90.96 110.52,90.81 C110.53,90.68 110.53,90.68 110.55,90.54 C110.58,90.43 110.58,90.43 110.61,90.32 C110.66,90.23 110.66,90.23 110.71,90.15 "/><path d="M121.50,93.28 C121.50,93.66 121.50,93.65 121.50,94.01 C121.52,94.29 121.52,94.29 121.54,94.56 C121.58,94.77 121.58,94.77 121.63,94.97 "/><path d="M120.18,91.79 C120.17,91.89 120.17,91.89 120.16,91.99 C120.15,92.02 120.15,92.02 120.13,92.05 C120.04,92.18 120.04,92.18 119.95,92.30 "/><path d="M119.95,92.30 C119.81,92.41 119.81,92.41 119.66,92.51 C119.47,92.58 119.47,92.58 119.28,92.65 C119.07,92.68 119.07,92.68 118.86,92.70 C118.65,92.69 118.65,92.69 118.44,92.67 C118.26,92.62 118.25,92.62 118.07,92.56 C117.93,92.47 117.92,92.47 117.78,92.37 "/><path d="M111.02,94.16 L111.03,94.14 "/><path d="M111.59,90.15 L110.90,92.48 "/><path d="M110.71,90.15 L110.85,90.03 L111.01,89.98 "/><path d="M110.90,92.48 L121.50,93.28 "/><path d="M120.13,91.65 L120.18,91.79 "/><path d="M117.78,92.37 L117.72,92.28 "/><path d="M117.62,92.09 L117.64,92.15 "/><path d="M121.51,93.28 L122.20,90.95 "/></g><g style="stroke:#000000;stroke-width:0.529"><path d="M0.00,85.91 L121.63,94.97 L122.32,92.63 L122.21,90.96 L120.07,90.79 "/><path d="M117.46,90.59 L0.00,81.59 "/></g></g><g id="paperID" visibility="hidden" opacity="0.00" transform="scale(0.000100)"><path style="stroke:#000000;stroke-width:0.500;fill:#e6e6e6;fill-rule:evenodd" d="M-2000.00,-2000.00L2297.00,-2000.00L2297.00,2210.00L-2000.00,2210.00zM0.00,0.00L297.00,0.00L297.00,210.00L0.00,210.00z"/><path style="fill:#000000;fill-opacity:0.118" d="M3.00,210.00L297.00,210.00L297.00,3.00L300.00,3.00L300.00,213.00L3.00,213.00z"/></g><g id="ToolTip" visibility="hidden" opacity="0" transform="translate(0,0)"><rect id="ToolTipShadow" opacity="0.20" fill="black" stroke="none" x="0" y="0" width="30" height="8"/><rect id="ToolTipBG" fill="#ffffe1" stroke="black" x="0" y="0" width="30" height="8"/><text xml:space="preserve" id="ToolTipText" fill="black" x="0" y="0" width="30" height="8">tooltip</text></g></g></svg>
