<?xml version="1.0" encoding="UTF-8" standalone="no"?>
<svg xmlns="http://www.w3.org/2000/svg" xmlns:xlink="http://www.w3.org/1999/xlink" width="297.000mm" height="210.000mm" viewBox="0.000000 0.000000 297.000000 210.000000" stroke-linejoin="round" stroke-linecap="round" fill="none" fill-rule="evenodd"><desc>Composer Export</desc><script type="text/ecmascript"><![CDATA[
if(typeof(top) != "undefined")
{
	top.ShowPaper = ShowPaper;
}
function ShowHotSpot(evt,hotspotid)
{
	var svgDocument = evt.target.ownerDocument;
	var strId = "hotspot."+hotspotid;
	var hotspot = svgDocument.getElementById(strId);
	if(hotspot)
		hotspot.setAttribute("opacity",".5");
}
function HideHotSpot(evt,hotspotid)
{
	var svgDocument = evt.target.ownerDocument;
	var strId = "hotspot."+hotspotid;
	var hotspot = svgDocument.getElementById(strId);
	if(hotspot)
		hotspot.setAttribute("opacity","0");

	var toolTip = svgDocument.getElementById('ToolTip');
	if(toolTip)
		toolTip.setAttribute("visibility","hidden");
}
function ShowToolTip(evt,hotspotid,strTooltip)
{
	if(strTooltip=="")
	return;

	// change text
	var svgDocument = evt.target.ownerDocument;
	var tiptext = svgDocument.getElementById('ToolTipText');
	if( !tiptext )
	return;
	tiptext.firstChild.nodeValue = " " + strTooltip + "  " ;

	// show tooltip before, else some refresh issue

	var toolTip = svgDocument.getElementById('ToolTip');
	if(!toolTip)
	return;

	toolTip.setAttribute("visibility","visible");
	toolTip.setAttribute("opacity",".95");

	// move tooltip
	// get viewbox

	var root = svgDocument.documentElement;
	var vbox = (root.getAttribute("viewBox")).split(' ');
	var x0 = parseFloat(vbox[0]);
	var y0 = parseFloat(vbox[1]);
	var vboxW = parseFloat(vbox[2]);
	var vboxH = parseFloat(vbox[3]);

	// get default width of svg

	var strW = root.getAttribute("width");
	var svgW = parseFloat(strW);
	if(strW.indexOf('mm') != -1)
	svgW *= 3.779;

	var strH = root.getAttribute("height");
	var svgH = parseFloat(strH);
	if(strH.indexOf('mm') != -1)
	svgH *= 3.779;  	// 96 dpi  -> 96/25.4 = 3.779

	// update the viewbox / width / height if svg is embedded in html with zoom fit all
	var realx0 = x0;
	var realy0 = y0;
	var realvboxW = vboxW;
	var realvboxH = vboxH;
	var realsvgW = svgW;
	var realsvgH = svgH;

	if ((typeof(top) == "undefined") || (typeof(top.svgctl1) != "undefined")) // embedded in html
	{
		// get window size in pxl

		svgW = window.innerWidth;
		svgH = window.innerHeight;

		// calculate real viewbox

		realsvgW = svgW;
		realsvgH = svgH;
		if((svgW / svgH) > (vboxW / vboxH))
		{
			realvboxW = (vboxH * svgW) / svgH;
			realvboxH = vboxH;
			realx0 = x0 - (realvboxW - vboxW)/2 ;
		}
		else
		{
			realvboxH = (vboxW * svgH) / svgW;
			realvboxW = vboxW;
			realy0 = y0 - (realvboxH - vboxH)/2 ;
		}
	}

	// get user zoom/pan

	var newScale = root.currentScale;
	var translation = root.currentTranslate;

	// transform pxl to user unit

	var xPos = (((evt.clientX+10- translation.x)/newScale) * realvboxW)/realsvgW  + realx0 ;
	var yPos = (((evt.clientY+5- translation.y)/newScale) * realvboxH)/ realsvgH  + realy0 ;
	var scaleForWidth = ( (1 / newScale) * realvboxH) / realsvgH;

	// move tooltip

	toolTip.setAttribute("transform", "translate(" + xPos + "," + yPos + ")" );

	// resize tooltip

	var fontsize = 12;
	tiptext.setAttribute("font-size",fontsize*scaleForWidth);
	tiptext.setAttribute("y", fontsize*scaleForWidth);
	var tipBG = svgDocument.getElementById('ToolTipBG');
	var outline = tiptext.getBBox();
	if(tipBG)
	{
		tipBG.setAttribute("stroke-width", 1*scaleForWidth);
		tipBG.setAttribute("width", Number(outline.width) );
		tipBG.setAttribute("height", Number(outline.height) + fontsize*.5*scaleForWidth );
	}
	var ToolTipShadow = svgDocument.getElementById('ToolTipShadow');
	if(ToolTipShadow)
	{
		ToolTipShadow.setAttribute("width", Number(outline.width) );
		ToolTipShadow.setAttribute("height", Number(outline.height) + fontsize*.5*scaleForWidth );
		ToolTipShadow.setAttribute("x", 3*scaleForWidth);
		ToolTipShadow.setAttribute("y", 3*scaleForWidth);
	}
}
function ShowPaper()
{
  var svgDocument = getDocument();
  var paper = svgDocument.getElementById("paperID");
  if(paper)
  {
    paper.setAttribute("transform","scale(1)");
    paper.setAttribute("opacity","1");
    paper.setAttribute("visibility","visible");
  }
  var svg = svgDocument.getRootElement();
  if(svg)
  {
    svg.setAttribute("width","307.000mm");
    svg.setAttribute("height","220.000mm");
    svg.setAttribute("viewBox","-5.000000 -5.000000 307.000000 220.000000");
  }
}
]]></script><defs/><g><path style="fill:#ffffff" d="M296.92,210.05L0.08,210.05L0.08,0.08L296.92,0.08z"/><path style="fill:#171717" d="M269.58,72.92L269.90,73.73L269.37,77.77L268.55,82.19L268.39,82.13L268.14,81.71L266.85,88.15L266.85,90.11L267.15,88.80L267.27,89.06L266.07,95.69L265.62,95.52L265.92,96.52L264.79,102.58L263.86,107.84L263.70,107.79L263.46,107.08L262.16,113.80L262.19,115.56L262.33,116.11L262.04,117.47L261.76,119.11L261.09,122.72L260.94,122.70L261.05,120.02L259.68,127.31L259.66,128.41L259.99,127.69L260.11,127.94L259.17,133.21L259.02,133.15L258.85,132.73L258.56,133.04L257.47,139.17L257.50,141.21L257.63,141.49L256.68,146.71L256.53,146.70L256.37,145.40L255.18,151.49L254.92,154.05L255.07,154.16L255.15,155.00L254.69,156.83L254.10,156.84L253.60,155.89L251.97,155.88L250.13,154.78L250.86,154.61L250.58,150.66L250.31,149.75L250.34,149.47L251.31,148.73L252.83,148.04L253.39,147.29L253.61,147.43L254.25,144.25L254.20,143.97L254.32,143.67L254.69,142.09L254.48,140.10L254.84,139.52L255.15,139.27L255.36,137.88L255.63,136.80L255.58,136.51L255.70,136.23L256.18,133.77L256.13,133.49L256.25,133.19L256.73,130.73L256.69,130.45L256.81,130.15L256.96,127.12L257.24,126.60L257.49,126.76L257.52,126.06L257.64,125.75L258.11,123.29L258.06,123.01L258.18,122.71L258.66,120.25L258.62,119.97L258.74,119.68L259.20,117.20L259.02,116.93L259.01,116.36L259.02,114.72L259.55,113.89L259.78,113.84L259.95,113.81L260.00,112.52L260.12,112.23L260.59,109.77L260.55,109.49L260.67,109.20L261.14,106.74L261.10,106.46L261.21,106.17L261.38,105.08L261.50,104.78L261.63,103.21L261.18,102.57L261.35,102.04L261.60,102.19L262.16,101.39L262.48,99.02L262.60,98.72L263.07,96.26L263.03,95.98L263.14,95.69L263.31,94.60L263.42,94.31L263.64,92.93L263.91,91.84L263.85,91.55L263.85,90.72L263.86,89.08L264.22,88.50L264.53,88.26L265.00,85.78L264.96,85.50L265.08,85.21L265.55,82.75L265.51,82.47L265.63,82.17L265.79,81.09L265.91,80.79L266.12,79.42L266.28,79.32L266.31,77.56L266.05,78.00L265.87,77.23L266.17,76.93L266.35,76.13L266.68,75.77L266.83,75.73L266.82,73.43L266.66,73.35L268.52,72.68L268.63,72.33z"/><path style="fill:#1a1a1a" d="M48.81,46.94L51.21,47.23L52.36,48.08L52.14,48.59L51.29,48.60L49.28,48.37L48.83,48.20L48.28,47.90L47.59,47.88L47.68,48.32L47.32,49.80L47.12,51.86L46.37,52.49L46.59,53.00L45.56,58.72L44.72,63.13L44.73,63.71L44.76,64.54L44.57,65.05L44.23,65.17L44.17,66.18L43.08,72.23L42.80,73.62L42.21,77.84L41.68,78.12L41.85,78.59L41.84,78.89L40.87,84.10L40.03,89.05L40.06,90.19L39.94,90.49L39.45,90.45L39.35,89.71L39.07,89.78L39.04,90.26L39.45,90.45L39.31,90.93L39.47,91.55L39.22,93.19L37.83,100.65L37.74,102.87L37.11,103.34L37.20,104.00L36.74,106.70L35.35,114.15L35.35,114.73L35.38,115.56L35.22,116.06L34.95,115.91L34.81,117.20L34.13,120.77L34.08,122.82L35.12,124.81L35.83,125.00L40.48,125.54L40.75,125.81L40.73,127.05L40.16,128.40L39.53,129.71L33.36,129.93L32.62,129.95L32.08,130.29L30.94,130.16L31.23,127.96L45.99,47.70L46.40,46.95L47.33,46.69z"/><path style="fill:#1a1a1a" d="M268.39,82.13L268.26,82.74L268.09,83.82L267.98,84.11L267.83,85.20L267.70,85.77L267.58,85.87L267.28,88.23L267.15,88.80L266.85,90.11L266.85,88.15L268.14,81.71z"/><path style="fill:#1a1a1a" d="M263.70,107.79L263.57,108.10L263.42,109.19L263.29,109.76L263.16,109.86L262.87,112.22L262.74,112.80L262.30,115.28L262.19,115.56L262.16,113.80L263.46,107.08z"/><path style="fill:#1a1a1a" d="M134.49,131.90L137.61,132.98L139.53,133.26L142.01,133.41L146.15,133.25L220.61,141.80L222.48,142.10L223.56,143.75L223.58,144.97L223.34,145.35L222.33,145.68L222.06,146.15L221.92,146.43L221.78,146.54L221.93,147.26L222.03,148.36L222.05,149.75L222.06,150.58L221.91,150.77L219.23,150.64L218.69,151.15L218.48,151.12L218.32,150.93L60.02,132.74L57.63,132.71L57.02,132.09L56.98,131.92L56.27,131.86L54.51,131.63L54.15,130.78L54.51,129.57L54.56,129.34L55.36,127.22L54.78,126.36L54.75,125.66L55.35,124.57L56.80,123.21L58.47,123.20z"/><path style="fill:#1a1a1a" d="M260.94,122.70L260.81,123.28L260.68,123.37L260.38,125.73L260.26,126.31L260.10,127.11L259.99,127.69L259.66,128.41L259.68,127.31L261.05,120.02z"/><path style="fill:#1a1a1a" d="M259.02,133.15L258.88,133.75L258.75,133.85L258.45,136.21L258.33,136.79L258.20,136.88L257.90,139.25L257.78,139.82L257.62,140.64L257.50,141.21L257.47,139.17L258.56,133.04L258.85,132.73z"/><path style="fill:#1a1a1a" d="M256.53,146.70L256.39,147.27L256.27,147.36L255.97,149.73L255.85,150.30L255.69,151.10L255.57,151.68L255.41,152.76L255.30,153.05L255.07,154.16L254.92,154.05L255.18,151.49L256.37,145.40z"/><path style="fill:#000020" d="M140.92,118.79L139.61,118.67L140.92,118.65z"/><path style="fill:#000020" d="M143.11,119.07L142.03,118.91L142.28,118.79L143.12,118.93z"/><path style="fill:#000020" d="M205.73,134.36L205.25,134.49L205.39,134.01z"/><path style="fill:#000020" d="M222.32,148.64L222.35,148.89L222.20,149.76L222.05,149.75L222.03,148.36z"/><path style="fill:#171717" d="M48.28,47.90L47.98,48.21L47.68,48.32L47.59,47.88z"/><path style="fill:#171717" d="M268.38,83.00L268.27,83.85L268.09,83.82L268.26,82.74z"/><path style="fill:#171717" d="M268.12,84.66L267.99,85.24L267.83,85.20L267.98,84.11z"/><path style="fill:#171717" d="M267.82,86.03L267.43,88.25L267.28,88.23L267.58,85.87L267.70,85.77z"/><path style="fill:#171717" d="M263.71,108.65L263.58,109.23L263.42,109.19L263.57,108.10z"/><path style="fill:#171717" d="M263.41,110.02L263.02,112.24L262.87,112.22L263.16,109.86L263.29,109.76z"/><path style="fill:#171717" d="M262.86,113.05L262.47,115.28L262.30,115.28L262.74,112.80z"/><path style="fill:#171717" d="M260.93,123.53L260.54,125.75L260.38,125.73L260.68,123.37L260.81,123.28z"/><path style="fill:#171717" d="M260.39,126.57L260.27,127.15L260.10,127.11L260.26,126.31z"/><path style="fill:#171717" d="M218.32,150.93L218.48,151.12L218.43,152.19L218.25,152.36L215.09,152.28L61.49,134.63L59.29,134.36L58.11,133.82L57.63,132.71L60.02,132.74z"/><path style="fill:#171717" d="M259.00,134.01L258.61,136.23L258.45,136.21L258.75,133.85L258.88,133.75z"/><path style="fill:#171717" d="M258.45,137.05L258.06,139.26L257.90,139.25L258.20,136.88L258.33,136.79z"/><path style="fill:#171717" d="M257.90,140.08L257.79,140.66L257.62,140.64L257.78,139.82z"/><path style="fill:#171717" d="M256.52,147.52L256.12,149.74L255.97,149.73L256.27,147.36L256.39,147.27z"/><path style="fill:#171717" d="M255.97,150.56L255.86,151.14L255.69,151.10L255.85,150.30z"/><path style="fill:#171717" d="M255.70,151.94L255.58,152.79L255.41,152.76L255.57,151.68z"/><path style="fill:#171717" d="M255.44,153.60L255.29,154.19L255.07,154.16L255.30,153.05z"/><path style="fill:#1a1a1a" d="M268.34,72.19L268.63,72.33L268.52,72.68L266.66,73.35L266.38,73.40L265.55,73.03L265.46,72.88L264.73,73.02L262.51,72.86L262.27,72.33L263.45,71.79L264.73,71.76z"/><path style="fill:#1a1a1a" d="M249.57,149.52L250.31,149.75L250.58,150.66L250.86,154.61L250.13,154.78L244.78,153.45L244.55,153.06L244.51,152.04L244.39,151.94L244.26,150.86L244.25,149.46L244.60,149.11L246.00,149.13z"/><path style="fill:#c6c1bc" d="M61.16,125.11L60.76,125.57L59.75,125.57L59.45,125.27L59.45,124.57L59.93,124.16L60.84,124.18z"/><path style="fill:#c6c1bc" d="M78.56,126.34L78.81,127.03L78.41,127.50L77.10,127.50L77.11,126.49L77.58,126.08L78.22,126.08z"/><path style="fill:#c6c1bc" d="M94.75,128.41L96.17,128.31L96.22,129.06L96.05,129.14L95.77,129.65L95.07,129.73L94.76,129.42z"/><path style="fill:#c6c1bc" d="M113.84,130.50L113.80,131.44L113.46,131.68L112.41,131.65L112.41,130.33L113.55,130.21z"/><path style="fill:#c6c1bc" d="M131.32,132.64L131.33,133.48L131.17,133.69L130.06,133.55L129.69,132.98L130.33,132.23L130.91,132.14z"/><path style="fill:#c6c1bc" d="M147.39,134.74L147.63,134.39L148.83,134.37L148.99,134.57L148.97,135.40L148.47,135.82L147.43,135.48z"/><path style="fill:#c6c1bc" d="M166.51,136.57L166.39,137.72L165.34,137.74L165.00,137.51L165.08,136.40L166.22,136.28z"/><path style="fill:#c6c1bc" d="M184.12,138.53L184.04,139.65L182.73,139.65L182.65,138.53L183.58,138.22z"/><path style="fill:#c6c1bc" d="M200.46,141.79L200.26,140.71L200.55,140.42L201.50,140.43L201.66,140.63L201.64,141.47L201.14,141.89z"/><path style="fill:#c6c1bc" d="M217.74,142.77L218.21,142.37L219.14,142.36L219.30,142.56L219.30,143.40L219.04,143.80L218.04,143.77L217.74,143.47z"/><path style="fill:#e5e5e5" d="M68.04,50.53L67.20,51.22L66.78,49.75L66.91,49.71z"/><path style="fill:#e5e5e5" d="M240.91,69.58L241.11,70.29L240.94,71.20L239.74,70.92L239.95,71.42L239.98,72.25L239.79,73.56L240.05,74.00L239.60,74.46L239.44,74.54L239.42,75.28L231.43,118.84L225.68,149.85L224.36,149.85L223.00,148.99L222.35,148.89L222.32,148.64L223.27,148.54L223.57,148.01L237.61,71.61L237.58,70.42L237.23,70.09L237.47,69.85L240.38,69.28z"/><path style="fill:#e5e5e5" d="M66.13,113.68L65.93,113.95L65.38,113.63L65.45,113.42L65.83,113.37z"/><path style="fill:#e5e5e5" d="M65.36,118.02L64.69,118.20L64.61,117.86L65.27,117.86z"/><path style="fill:#e5e5e5" d="M142.28,118.79L142.03,118.91L140.92,118.79L140.92,118.65z"/><path style="fill:#e5e5e5" d="M143.11,119.07L143.12,118.93L144.43,118.95z"/><path style="fill:#e5e5e5" d="M138.91,119.32L138.82,118.97L139.14,118.91z"/><path style="fill:#e5e5e5" d="M75.21,123.73L75.12,123.38L75.43,123.32z"/><path style="fill:#e5e5e5" d="M54.51,129.57L53.88,129.70L52.84,130.36L52.84,129.83L53.58,129.41L54.56,129.34z"/><path style="fill:#e5e5e5" d="M205.93,134.07L205.73,134.36L205.39,134.01L205.67,133.81z"/><path style="fill:#e5e5e5" d="M205.17,138.43L204.50,138.60L204.43,138.27L205.09,138.27z"/><path style="fill:#000020" d="M48.83,48.20L47.98,48.21L48.28,47.90z"/><path style="fill:#000020" d="M52.03,48.75L51.29,48.60L52.14,48.59z"/><path style="fill:#000020" d="M44.76,64.54L44.73,63.71L44.86,63.82z"/><path style="fill:#000020" d="M241.22,71.63L240.94,71.20L241.11,70.29L241.20,70.40z"/><path style="fill:#000020" d="M239.98,72.25L239.95,71.42L240.11,71.53z"/><path style="fill:#000020" d="M266.60,74.75L266.38,73.40L266.66,73.35z"/><path style="fill:#000020" d="M239.42,75.28L239.44,74.54L239.60,74.46z"/><path style="fill:#000020" d="M266.17,76.93L265.87,77.23L266.05,76.38z"/><path style="fill:#000020" d="M266.12,79.42L265.91,79.41L266.05,78.59z"/><path style="fill:#000020" d="M265.91,80.79L265.79,81.09L265.62,81.05L265.76,80.25z"/><path style="fill:#000020" d="M265.63,82.17L265.51,82.47L265.35,82.46L265.48,81.63z"/><path style="fill:#000020" d="M268.38,83.00L268.26,82.74L268.39,82.13L268.55,82.19z"/><path style="fill:#000020" d="M268.12,84.66L267.98,84.11L268.09,83.82L268.27,83.85z"/><path style="fill:#000020" d="M265.08,85.21L264.96,85.50L264.79,85.49L264.94,84.66z"/><path style="fill:#000020" d="M267.82,86.03L267.70,85.77L267.83,85.20L267.99,85.24z"/><path style="fill:#000020" d="M236.24,86.94L235.89,87.03L235.98,86.68z"/><path style="fill:#000020" d="M264.53,88.26L264.22,88.50L264.40,87.70z"/><path style="fill:#000020" d="M267.27,89.06L267.15,88.80L267.28,88.23L267.43,88.25z"/><path style="fill:#000020" d="M40.06,90.19L40.03,89.05L40.16,89.16z"/><path style="fill:#000020" d="M263.85,91.55L263.70,91.54L263.67,90.74L263.85,90.72z"/><path style="fill:#000020" d="M263.64,92.93L263.43,92.93L263.56,92.10z"/><path style="fill:#000020" d="M263.42,94.31L263.31,94.60L263.13,94.57L263.28,93.76z"/><path style="fill:#000020" d="M266.07,95.69L265.92,96.52L265.62,95.52z"/><path style="fill:#000020" d="M263.14,95.69L263.03,95.98L262.86,95.97L263.00,95.14z"/><path style="fill:#000020" d="M262.60,98.72L262.48,99.02L262.31,99.00L262.46,98.17z"/><path style="fill:#000020" d="M261.50,104.78L261.38,105.08L261.20,105.05L261.37,104.23z"/><path style="fill:#000020" d="M261.21,106.17L261.10,106.46L260.93,106.45L261.07,105.62z"/><path style="fill:#000020" d="M263.71,108.65L263.57,108.10L263.70,107.79L263.86,107.84z"/><path style="fill:#000020" d="M260.67,109.20L260.55,109.49L260.38,109.48L260.53,108.65z"/><path style="fill:#000020" d="M263.41,110.02L263.29,109.76L263.42,109.19L263.58,109.23z"/><path style="fill:#000020" d="M260.12,112.23L260.00,112.52L259.83,112.49L259.98,111.69z"/><path style="fill:#000020" d="M262.86,113.05L262.74,112.80L262.87,112.22L263.02,112.24z"/><path style="fill:#000020" d="M259.78,113.84L259.55,113.89L259.70,113.07z"/><path style="fill:#000020" d="M65.93,113.95L65.44,114.09L65.38,113.63z"/><path style="fill:#000020" d="M35.38,115.56L35.35,114.73L35.48,114.84z"/><path style="fill:#000020" d="M262.33,116.11L262.19,115.56L262.30,115.28L262.47,115.28z"/><path style="fill:#000020" d="M76.51,119.50L75.89,119.59L75.91,119.24L76.56,119.18z"/><path style="fill:#000020" d="M258.74,119.68L258.62,119.97L258.45,119.96L258.60,119.13z"/><path style="fill:#000020" d="M258.18,122.71L258.06,123.01L257.90,122.99L258.05,122.17z"/><path style="fill:#000020" d="M260.93,123.53L260.81,123.28L260.94,122.70L261.09,122.72z"/><path style="fill:#000020" d="M257.64,125.75L257.52,126.06L257.34,126.02L257.50,125.20z"/><path style="fill:#000020" d="M260.39,126.57L260.26,126.31L260.38,125.73L260.54,125.75z"/><path style="fill:#000020" d="M260.11,127.94L259.99,127.69L260.10,127.11L260.27,127.15z"/><path style="fill:#000020" d="M256.81,130.15L256.69,130.45L256.52,130.44L256.68,129.60z"/><path style="fill:#000020" d="M217.76,131.45L217.39,131.45L217.39,131.08L217.76,131.08z"/><path style="fill:#000020" d="M57.02,132.09L56.27,131.86L56.98,131.92z"/><path style="fill:#000020" d="M256.25,133.19L256.13,133.49L255.97,133.47L256.12,132.64z"/><path style="fill:#000020" d="M259.00,134.01L258.88,133.75L259.02,133.15L259.17,133.21z"/><path style="fill:#000020" d="M255.70,136.23L255.58,136.51L255.41,136.48L255.57,135.68z"/><path style="fill:#000020" d="M258.45,137.05L258.33,136.79L258.45,136.21L258.61,136.23z"/><path style="fill:#000020" d="M255.36,137.88L255.15,137.88L255.28,137.05z"/><path style="fill:#000020" d="M255.15,139.27L254.84,139.52L255.01,138.72z"/><path style="fill:#000020" d="M257.90,140.08L257.78,139.82L257.90,139.25L258.06,139.26z"/><path style="fill:#000020" d="M216.33,139.91L215.71,139.99L215.73,139.64L216.38,139.59z"/><path style="fill:#000020" d="M257.63,141.49L257.50,141.21L257.62,140.64L257.79,140.66z"/><path style="fill:#000020" d="M254.32,143.67L254.20,143.97L254.04,143.95L254.19,143.12z"/><path style="fill:#000020" d="M221.93,147.26L221.78,146.54L221.92,146.43z"/><path style="fill:#000020" d="M256.52,147.52L256.39,147.27L256.53,146.70L256.68,146.71z"/><path style="fill:#000020" d="M217.57,148.57L217.70,148.38L218.04,148.44L218.07,149.09L217.86,149.15z"/><path style="fill:#000020" d="M250.31,149.75L249.57,149.52L250.34,149.47z"/><path style="fill:#000020" d="M255.97,150.56L255.85,150.30L255.97,149.73L256.12,149.74z"/><path style="fill:#000020" d="M253.43,151.62L253.24,151.59L253.24,150.93L253.43,150.90z"/><path style="fill:#000020" d="M255.70,151.94L255.57,151.68L255.69,151.10L255.86,151.14z"/><path style="fill:#000020" d="M218.43,152.19L218.48,151.12L218.69,151.15z"/><path style="fill:#000020" d="M244.55,153.06L244.39,151.94L244.51,152.04z"/><path style="fill:#000020" d="M255.44,153.60L255.30,153.05L255.41,152.76L255.58,152.79z"/><path style="fill:#000020" d="M255.15,155.00L255.07,154.16L255.29,154.19z"/><path style="fill:#171717" d="M47.13,52.09L46.59,53.00L46.37,52.49L47.12,51.86z"/><path style="fill:#171717" d="M44.17,66.18L44.23,65.17L44.57,65.05z"/><path style="fill:#171717" d="M265.55,73.03L264.73,73.02L265.46,72.88z"/><path style="fill:#171717" d="M41.85,78.59L41.68,78.12L42.21,77.84z"/><path style="fill:#171717" d="M39.07,89.78L39.35,89.71L39.45,90.45L39.04,90.26z"/><path style="fill:#171717" d="M39.31,90.93L39.45,90.45L39.94,90.49L39.92,90.93L39.47,91.55z"/><path style="fill:#171717" d="M37.75,103.10L37.20,104.00L37.11,103.34L37.74,102.87z"/><path style="fill:#171717" d="M35.22,116.06L34.81,117.20L34.95,115.91z"/><path style="fill:#171717" d="M32.08,130.29L32.62,129.95L33.36,129.93L31.79,131.09L31.07,131.11L30.94,130.16z"/><path style="fill:#171717" d="M223.35,145.57L222.95,146.01L222.06,146.15L222.33,145.68L223.34,145.35z"/><path style="fill:#171717" d="M222.06,150.58L222.05,149.75L222.20,149.76z"/><path style="fill:#b2adaa" d="M96.23,129.32L95.77,129.65L96.05,129.14L96.22,129.06z"/><path style="fill:#b2adaa" d="M131.33,133.48L131.32,132.64L131.47,132.75z"/><path style="fill:#b2adaa" d="M148.97,135.40L148.99,134.57L149.13,134.66z"/><path style="fill:#b2adaa" d="M201.64,141.47L201.66,140.63L201.80,140.73z"/><path style="fill:#b2adaa" d="M219.30,143.40L219.30,142.56L219.45,142.66z"/><path style="fill:#1a1a1a" d="M266.83,75.73L266.68,75.77L266.60,74.75L266.66,73.35L266.82,73.43z"/><path style="fill:#1a1a1a" d="M266.17,76.93L266.05,76.38L266.35,76.13z"/><path style="fill:#1a1a1a" d="M266.28,79.32L266.12,79.42L266.05,78.59L266.05,78.00L266.31,77.56z"/><path style="fill:#1a1a1a" d="M265.91,80.79L265.76,80.25L265.91,79.41L266.12,79.42z"/><path style="fill:#1a1a1a" d="M265.63,82.17L265.48,81.63L265.62,81.05L265.79,81.09z"/><path style="fill:#1a1a1a" d="M265.55,82.75L265.08,85.21L264.94,84.66L265.35,82.46L265.51,82.47z"/><path style="fill:#1a1a1a" d="M265.00,85.78L264.53,88.26L264.40,87.70L264.79,85.49L264.96,85.50z"/><path style="fill:#1a1a1a" d="M263.43,90.00L263.86,89.08L263.85,90.72L263.67,90.74z"/><path style="fill:#1a1a1a" d="M263.91,91.84L263.64,92.93L263.56,92.10L263.70,91.54L263.85,91.55z"/><path style="fill:#1a1a1a" d="M263.42,94.31L263.28,93.76L263.43,92.93L263.64,92.93z"/><path style="fill:#1a1a1a" d="M263.14,95.69L263.00,95.14L263.13,94.57L263.31,94.60z"/><path style="fill:#1a1a1a" d="M263.07,96.26L262.60,98.72L262.46,98.17L262.86,95.97L263.03,95.98z"/><path style="fill:#1a1a1a" d="M262.16,101.39L261.60,102.19L261.35,102.04L261.90,101.12L262.31,99.00L262.48,99.02z"/><path style="fill:#1a1a1a" d="M261.63,103.21L261.50,104.78L261.37,104.23L261.18,102.57z"/><path style="fill:#1a1a1a" d="M261.21,106.17L261.07,105.62L261.20,105.05L261.38,105.08z"/><path style="fill:#1a1a1a" d="M261.14,106.74L260.67,109.20L260.53,108.65L260.93,106.45L261.10,106.46z"/><path style="fill:#1a1a1a" d="M260.59,109.77L260.12,112.23L259.98,111.69L260.38,109.48L260.55,109.49z"/><path style="fill:#1a1a1a" d="M259.95,113.81L259.78,113.84L259.70,113.07L259.83,112.49L260.00,112.52z"/><path style="fill:#1a1a1a" d="M258.74,115.37L259.02,114.72L259.01,116.36z"/><path style="fill:#1a1a1a" d="M259.20,117.20L258.74,119.68L258.60,119.13L259.02,116.93z"/><path style="fill:#1a1a1a" d="M258.66,120.25L258.18,122.71L258.05,122.17L258.45,119.96L258.62,119.97z"/><path style="fill:#1a1a1a" d="M258.11,123.29L257.64,125.75L257.50,125.20L257.90,122.99L258.06,123.01z"/><path style="fill:#1a1a1a" d="M257.49,126.76L257.24,126.60L257.34,126.02L257.52,126.06z"/><path style="fill:#1a1a1a" d="M256.81,130.15L256.68,129.60L256.66,127.30L256.96,127.12z"/><path style="fill:#1a1a1a" d="M256.73,130.73L256.25,133.19L256.12,132.64L256.52,130.44L256.69,130.45z"/><path style="fill:#1a1a1a" d="M256.18,133.77L255.70,136.23L255.57,135.68L255.97,133.47L256.13,133.49z"/><path style="fill:#1a1a1a" d="M255.63,136.80L255.36,137.88L255.28,137.05L255.41,136.48L255.58,136.51z"/><path style="fill:#1a1a1a" d="M255.15,139.27L255.01,138.72L255.15,137.88L255.36,137.88z"/><path style="fill:#1a1a1a" d="M254.13,140.82L254.48,140.10L254.69,142.09L254.32,143.67L254.19,143.12z"/><path style="fill:#1a1a1a" d="M254.25,144.25L253.61,147.43L253.39,147.29L254.04,143.95L254.20,143.97z"/><path style="fill:#1a1a1a" d="M253.61,151.59L253.43,151.62L253.43,150.90L253.61,150.93z"/><path style="fill:#ffffff" d="M233.76,99.42L234.06,99.39L234.06,99.99L233.76,99.96z"/><path style="fill:#ffffff" d="M231.83,112.28L231.58,112.73L231.44,112.08z"/><path style="fill:#ffffff" d="M38.79,128.42L38.42,128.42L38.42,128.05L38.79,128.05z"/><path style="fill:#ffffff" d="M36.31,128.42L35.94,128.42L35.94,128.05L36.31,128.05z"/><path style="fill:#ffffff" d="M59.20,130.90L58.83,130.90L58.83,130.53L59.20,130.53z"/><path style="fill:#ffffff" d="M56.72,130.90L56.35,130.90L56.35,130.53L56.72,130.53z"/><path style="fill:#ffffff" d="M224.87,147.87L225.19,147.92L225.24,148.24L224.93,148.18z"/><path style="fill:#ffffff" d="M217.86,149.15L217.37,149.12L217.36,148.73L217.57,148.57z"/><path style="fill:#ffffff" d="M220.25,149.65L219.88,149.65L219.88,149.28L220.25,149.28z"/><path style="fill:#ffffff" d="M246.18,152.00L246.09,152.33L245.60,152.33L245.60,151.84L245.94,151.75z"/><path style="fill:#ffffff" d="M248.37,152.99L248.00,152.99L248.00,152.29L248.37,152.29z"/><g id="Actor_.0"><g style="stroke:#000000;stroke-width:0.176"><path d="M130.86,132.18 C130.77,132.15 130.77,132.15 130.68,132.13 C130.59,132.13 130.59,132.13 130.50,132.14 C130.41,132.17 130.41,132.17 130.32,132.20 C130.25,132.26 130.25,132.26 130.18,132.32 "/><path d="M131.39,133.19 C131.30,133.29 131.30,133.30 131.20,133.40 C131.07,133.47 131.07,133.47 130.94,133.54 C130.79,133.57 130.79,133.58 130.65,133.60 C130.50,133.59 130.50,133.59 130.35,133.57 C130.22,133.52 130.22,133.52 130.09,133.46 "/><path d="M130.38,132.47 C130.42,132.44 130.42,132.44 130.45,132.41 C130.50,132.39 130.50,132.39 130.55,132.38 C130.59,132.37 130.60,132.37 130.64,132.37 C130.69,132.38 130.69,132.38 130.74,132.40 "/><path d="M130.37,133.58 C130.51,133.60 130.51,133.60 130.65,133.61 C130.79,133.58 130.80,133.58 130.94,133.55 C131.06,133.48 131.07,133.48 131.19,133.41 "/><path d="M130.38,132.55 C130.41,132.51 130.41,132.51 130.44,132.48 C130.48,132.46 130.48,132.46 130.51,132.44 C130.56,132.43 130.56,132.43 130.60,132.42 C130.64,132.43 130.64,132.43 130.69,132.43 C130.73,132.45 130.73,132.45 130.77,132.47 "/><path d="M130.06,132.80 L130.13,132.95 L130.26,133.07 L130.43,133.14 L130.61,133.15 L130.71,133.13 L130.79,133.12 L130.95,133.03 L131.08,132.90 L131.15,132.74 L131.16,132.57 L131.11,132.41 L131.01,132.27 L130.86,132.18 "/><path d="M130.18,132.32 L130.08,132.46 L130.04,132.63 L130.06,132.80 "/><path d="M130.32,132.74 L130.36,132.80 L130.42,132.86 L130.51,132.90 L130.61,132.91 L130.65,132.90 L130.57,132.91 L130.48,132.88 L130.45,132.87 L130.41,132.84 L130.36,132.78 L130.34,132.70 L130.35,132.62 L130.33,132.66 L130.32,132.74 L130.31,132.72 L130.30,132.64 L130.33,132.55 L130.38,132.47 "/><path d="M130.74,132.40 L130.81,132.45 L130.87,132.52 L130.90,132.60 L130.89,132.62 L130.86,132.55 L130.77,132.47 L130.83,132.52 L130.86,132.59 L130.87,132.67 L130.85,132.75 L130.80,132.82 L130.74,132.87 L130.66,132.90 L130.70,132.89 L130.79,132.84 L130.85,132.78 L130.89,132.69 L130.89,132.62 "/><path d="M130.65,132.90 L130.66,132.90 "/><path d="M130.35,133.58 L130.37,133.58 "/><path d="M131.19,133.41 L131.21,133.39 "/><path d="M130.35,132.62 L130.38,132.55 "/></g><g style="stroke:#000000;stroke-width:0.529"><path d="M129.96,132.26 C130.07,132.17 130.07,132.17 130.19,132.08 C130.32,132.03 130.33,132.02 130.47,131.98 C130.61,131.97 130.62,131.97 130.76,131.96 C130.90,131.99 130.91,131.99 131.05,132.03 "/><path d="M130.35,133.58 L130.11,133.47 L130.09,133.46 L129.88,133.27 L129.76,133.03 L129.73,132.76 L129.80,132.49 L129.96,132.26 "/><path d="M131.05,132.03 L131.28,132.19 L131.45,132.40 L131.53,132.66 L131.51,132.93 L131.39,133.19 L131.38,133.21 L131.21,133.39 "/></g></g><g id="Actor_.1"><g style="stroke:#000000;stroke-width:0.176"><path d="M184.05,139.37 C183.94,139.46 183.94,139.46 183.82,139.55 C183.68,139.60 183.68,139.60 183.54,139.65 C183.39,139.66 183.39,139.66 183.24,139.66 C183.10,139.62 183.10,139.62 182.96,139.58 "/><path d="M183.09,139.16 C183.18,139.19 183.18,139.19 183.27,139.21 C183.36,139.21 183.36,139.21 183.45,139.21 C183.54,139.18 183.54,139.18 183.63,139.14 C183.70,139.09 183.70,139.09 183.77,139.04 "/><path d="M183.71,138.28 C183.63,138.25 183.63,138.24 183.54,138.21 C183.45,138.20 183.45,138.20 183.36,138.19 C183.27,138.20 183.27,138.20 183.18,138.22 C183.10,138.26 183.09,138.26 183.01,138.31 C182.95,138.37 182.95,138.37 182.89,138.44 "/><path d="M183.54,138.48 C183.50,138.46 183.50,138.46 183.46,138.44 C183.41,138.44 183.41,138.44 183.36,138.43 C183.31,138.44 183.31,138.44 183.26,138.45 C183.22,138.47 183.22,138.47 183.18,138.50 C183.14,138.53 183.14,138.53 183.11,138.56 "/><path d="M183.24,138.52 C183.28,138.50 183.28,138.50 183.32,138.49 C183.37,138.49 183.37,138.49 183.41,138.49 C183.45,138.50 183.45,138.50 183.49,138.51 "/><path d="M184.22,139.14 L184.05,139.37 "/><path d="M183.97,139.44 L183.81,139.56 L183.54,139.65 L183.25,139.67 L183.11,139.63 "/><path d="M183.77,139.04 L183.88,138.89 L183.92,138.72 L183.91,138.56 L183.83,138.40 L183.71,138.28 "/><path d="M182.89,138.44 L182.81,138.60 L182.80,138.77 L182.85,138.93 L182.94,139.07 L183.09,139.16 "/><path d="M183.65,138.67 L183.66,138.71 L183.63,138.80 L183.58,138.88 L183.50,138.93 L183.45,138.95 L183.53,138.91 L183.59,138.85 L183.62,138.78 L183.63,138.70 L183.61,138.62 L183.56,138.56 L183.59,138.58 L183.65,138.66 L183.65,138.67 L183.65,138.63 L183.61,138.55 L183.54,138.48 "/><path d="M183.11,138.56 L183.07,138.65 L183.06,138.74 L183.08,138.81 L183.08,138.76 L183.10,138.68 L183.12,138.64 L183.10,138.72 L183.11,138.80 L183.14,138.87 L183.20,138.92 L183.28,138.96 L183.32,138.97 L183.36,138.97 L183.45,138.95 L183.41,138.97 L183.37,138.97 "/><path d="M183.08,138.81 L183.09,138.82 L183.14,138.89 L183.22,138.95 L183.31,138.97 L183.36,138.97 "/><path d="M183.45,138.95 L183.45,138.95 "/><path d="M183.12,138.64 L183.17,138.57 L183.22,138.53 L183.24,138.52 "/><path d="M183.49,138.51 L183.56,138.56 "/><path d="M184.20,139.16 L184.20,139.16 "/></g><g style="stroke:#000000;stroke-width:0.529"><path d="M182.63,138.42 C182.73,138.31 182.73,138.31 182.84,138.21 C182.96,138.14 182.97,138.14 183.10,138.07 C183.24,138.04 183.24,138.04 183.39,138.02 C183.54,138.03 183.54,138.03 183.68,138.05 C183.82,138.11 183.82,138.11 183.95,138.17 "/><path d="M183.11,139.63 L182.98,139.59 L182.72,139.42 L182.56,139.20 L182.49,138.94 L182.51,138.67 L182.63,138.42 "/><path d="M183.95,138.17 L184.15,138.36 L184.27,138.61 L184.29,138.88 L184.22,139.14 L184.04,139.39 L183.97,139.44 "/></g></g><g id="Actor_.2"><g style="stroke:#000000;stroke-width:0.176"><path d="M201.76,141.24 C201.67,141.35 201.67,141.35 201.57,141.46 C201.45,141.54 201.44,141.54 201.32,141.61 C201.17,141.65 201.17,141.65 201.03,141.68 C200.88,141.68 200.88,141.68 200.73,141.66 C200.59,141.61 200.59,141.61 200.46,141.56 "/><path d="M200.51,140.41 C200.58,140.35 200.58,140.35 200.65,140.30 C200.74,140.26 200.74,140.26 200.82,140.23 C200.92,140.22 200.92,140.22 201.01,140.21 C201.10,140.23 201.10,140.23 201.19,140.25 "/><path d="M201.43,140.96 C201.38,141.03 201.38,141.03 201.32,141.10 C201.24,141.15 201.24,141.15 201.16,141.19 C201.07,141.22 201.07,141.22 200.98,141.24 C200.89,141.23 200.88,141.23 200.79,141.22 C200.71,141.19 200.71,141.19 200.62,141.16 "/><path d="M201.56,141.47 C201.44,141.55 201.44,141.55 201.31,141.62 C201.17,141.66 201.17,141.66 201.03,141.69 C200.89,141.68 200.89,141.68 200.74,141.67 "/><path d="M201.07,140.47 C201.03,140.46 201.03,140.46 200.98,140.45 C200.93,140.46 200.93,140.46 200.88,140.46 C200.84,140.48 200.84,140.48 200.79,140.50 C200.75,140.53 200.75,140.53 200.72,140.56 "/><path d="M200.62,141.15 L200.49,141.04 L200.41,140.90 L200.38,140.73 L200.42,140.56 L200.51,140.41 "/><path d="M201.19,140.25 L201.34,140.34 L201.45,140.47 L201.51,140.63 L201.50,140.80 L201.43,140.96 "/><path d="M200.62,141.16 L200.62,141.15 "/><path d="M200.74,141.67 L200.70,141.65 "/><path d="M201.17,140.60 L201.20,140.63 L201.24,140.69 L201.24,140.68 L201.21,140.59 L201.15,140.52 L201.07,140.47 "/><path d="M200.72,140.56 L200.67,140.64 L200.65,140.73 L200.66,140.81 L200.67,140.82 L200.67,140.75 L200.72,140.63 L200.69,140.71 L200.69,140.79 L200.71,140.87 L200.77,140.93 L200.84,140.97 L200.92,140.99 L200.97,140.99 L201.01,140.98 L201.09,140.95 L201.16,140.89 L201.20,140.82 L201.22,140.74 L201.21,140.67 L201.17,140.60 L201.10,140.54 L201.05,140.52 L201.02,140.51 L200.94,140.51 L200.85,140.53 L200.84,140.54 L200.78,140.57 L200.72,140.63 "/><path d="M201.24,140.69 L201.24,140.76 L201.20,140.85 L201.14,140.92 L201.06,140.97 L201.01,140.98 "/><path d="M200.67,140.82 L200.71,140.89 L200.78,140.95 L200.87,140.99 L200.96,140.99 L201.00,140.98 "/></g><g style="stroke:#000000;stroke-width:0.529"><path d="M201.36,140.10 C201.22,140.07 201.22,140.07 201.08,140.04 C200.93,140.05 200.93,140.05 200.78,140.07 C200.64,140.12 200.64,140.12 200.50,140.18 C200.39,140.27 200.39,140.27 200.28,140.37 "/><path d="M201.56,141.47 L201.76,141.24 L201.86,140.99 L201.87,140.71 L201.78,140.46 L201.61,140.25 L201.36,140.10 "/><path d="M200.28,140.37 L200.13,140.61 L200.07,140.87 L200.11,141.14 L200.25,141.38 L200.46,141.56 L200.48,141.57 L200.70,141.65 "/></g></g><g id="Actor_.3"><g style="stroke:#000000;stroke-width:0.176"><path d="M147.72,134.39 C147.78,134.33 147.78,134.32 147.85,134.26 C147.93,134.22 147.93,134.22 148.01,134.18 C148.11,134.16 148.11,134.16 148.20,134.15 C148.29,134.16 148.29,134.16 148.38,134.17 "/><path d="M148.59,135.00 C148.52,135.06 148.52,135.06 148.45,135.11 C148.36,135.14 148.36,135.14 148.27,135.17 C148.18,135.17 148.18,135.17 148.08,135.17 C148.00,135.15 147.99,135.15 147.91,135.12 "/><path d="M147.77,135.53 C147.91,135.58 147.91,135.58 148.05,135.61 C148.20,135.62 148.20,135.62 148.35,135.61 C148.49,135.57 148.49,135.57 148.63,135.51 C148.75,135.43 148.75,135.43 148.87,135.34 "/><path d="M147.94,134.52 C147.97,134.49 147.98,134.48 148.01,134.45 C148.05,134.43 148.05,134.43 148.10,134.41 C148.14,134.40 148.14,134.40 148.19,134.39 C148.24,134.40 148.24,134.40 148.29,134.40 "/><path d="M147.76,135.02 L147.67,134.88 L147.62,134.72 L147.64,134.55 L147.72,134.39 "/><path d="M148.38,134.17 L148.54,134.25 L148.67,134.37 L148.74,134.52 L148.75,134.69 L148.70,134.86 L148.59,135.00 "/><path d="M147.91,135.12 L147.76,135.02 "/><path d="M148.87,135.34 L149.04,135.11 "/><path d="M147.91,134.77 L147.91,134.78 L147.96,134.85 L148.04,134.90 L148.13,134.93 L148.19,134.93 L148.10,134.92 L148.06,134.90 L148.02,134.88 L147.97,134.82 L147.93,134.75 L147.93,134.67 L147.95,134.59 L147.93,134.63 L147.91,134.72 L147.91,134.77 L147.89,134.69 L147.90,134.60 L147.94,134.52 "/><path d="M148.29,134.40 L148.37,134.45 L148.44,134.51 L148.48,134.59 L148.48,134.63 L148.48,134.62 L148.42,134.55 L148.39,134.52 L148.44,134.58 L148.46,134.66 L148.45,134.74 L148.41,134.81 L148.35,134.87 L148.28,134.91 L148.32,134.90 L148.40,134.84 L148.46,134.76 L148.48,134.68 L148.48,134.63 "/><path d="M148.80,135.40 L148.63,135.53 L148.35,135.62 L148.06,135.62 L147.94,135.59 "/><path d="M148.19,134.93 L148.23,134.93 L148.27,134.91 L148.19,134.93 "/><path d="M148.27,134.91 L148.28,134.91 "/><path d="M148.39,134.52 L148.32,134.47 L148.30,134.46 L148.24,134.45 L148.15,134.45 L148.07,134.48 L148.05,134.49 L148.00,134.53 L147.95,134.59 "/></g><g style="stroke:#000000;stroke-width:0.529"><path d="M147.47,134.37 C147.57,134.26 147.57,134.26 147.68,134.16 C147.81,134.09 147.81,134.09 147.94,134.03 C148.09,134.00 148.09,134.00 148.24,133.98 C148.38,133.99 148.38,133.99 148.53,134.02 "/><path d="M147.94,135.59 L147.79,135.54 L147.54,135.37 L147.38,135.15 L147.32,134.89 L147.35,134.62 L147.47,134.37 "/><path d="M148.53,134.02 L148.79,134.14 L148.98,134.33 L149.10,134.58 L149.12,134.85 L149.04,135.11 L148.86,135.36 L148.80,135.40 "/></g></g><g id="Actor_.4"><g style="stroke:#000000;stroke-width:0.176"><path d="M113.54,131.44 C113.41,131.50 113.41,131.50 113.27,131.55 C113.13,131.58 113.13,131.58 112.98,131.59 C112.88,131.57 112.87,131.57 112.77,131.55 "/><path d="M112.63,130.26 C112.70,130.21 112.71,130.21 112.78,130.16 C112.87,130.13 112.87,130.13 112.96,130.11 C113.06,130.11 113.06,130.11 113.15,130.12 C113.23,130.14 113.24,130.14 113.32,130.18 "/><path d="M113.46,130.92 C113.40,130.98 113.40,130.98 113.33,131.04 C113.24,131.08 113.24,131.08 113.16,131.11 C113.06,131.13 113.06,131.13 112.97,131.13 C112.88,131.12 112.88,131.12 112.79,131.10 "/><path d="M113.17,130.39 C113.13,130.37 113.13,130.37 113.08,130.36 C113.04,130.35 113.04,130.35 112.99,130.35 C112.94,130.36 112.94,130.37 112.89,130.38 C112.85,130.40 112.85,130.40 112.81,130.43 "/><path d="M112.81,130.51 C112.84,130.48 112.84,130.48 112.87,130.45 C112.91,130.43 112.91,130.43 112.95,130.41 C113.00,130.41 113.00,130.41 113.04,130.40 C113.08,130.41 113.08,130.41 113.12,130.42 "/><path d="M112.44,131.39 L112.69,131.53 L112.98,131.58 L113.20,131.55 L113.27,131.55 L113.54,131.42 L113.76,131.23 "/><path d="M113.63,131.36 L113.54,131.44 "/><path d="M112.63,131.02 L112.52,130.89 L112.46,130.73 L112.46,130.56 L112.52,130.40 L112.63,130.26 "/><path d="M113.32,130.18 L113.46,130.29 L113.55,130.43 L113.58,130.60 L113.56,130.72 L113.55,130.76 L113.46,130.92 "/><path d="M112.79,131.10 L112.63,131.02 "/><path d="M113.31,130.61 L113.29,130.70 L113.25,130.78 L113.18,130.84 L113.13,130.86 L113.05,130.88 L113.09,130.88 L113.13,130.86 L113.20,130.81 L113.25,130.75 L113.28,130.67 L113.28,130.59 L113.25,130.52 L113.20,130.46 L113.23,130.48 L113.29,130.55 L113.31,130.61 L113.29,130.52 L113.25,130.44 L113.17,130.39 "/><path d="M112.81,130.43 L112.75,130.50 L112.72,130.59 L112.72,130.68 L112.73,130.71 L112.75,130.62 L112.77,130.58 L112.75,130.66 L112.77,130.73 L112.81,130.80 L112.84,130.83 L112.88,130.85 L112.96,130.88 L113.04,130.88 L112.99,130.89 L112.90,130.87 L112.81,130.83 L112.75,130.76 L112.73,130.71 "/><path d="M112.77,130.58 L112.81,130.51 "/><path d="M113.12,130.42 L113.20,130.46 "/><path d="M113.05,130.88 L113.04,130.88 "/></g><g style="stroke:#000000;stroke-width:0.529"><path d="M112.43,130.18 C112.55,130.10 112.55,130.10 112.68,130.02 C112.82,129.98 112.82,129.98 112.96,129.94 C113.11,129.94 113.11,129.94 113.26,129.95 C113.40,130.00 113.40,130.00 113.53,130.05 "/><path d="M112.77,131.55 L112.70,131.54 L112.44,131.39 L112.25,131.19 L112.15,130.93 L112.15,130.66 L112.25,130.40 L112.43,130.18 "/><path d="M113.53,130.05 L113.75,130.22 L113.90,130.45 L113.95,130.72 L113.90,130.99 L113.75,131.25 L113.63,131.36 "/></g></g><g id="Actor_.5"><g style="stroke:#000000;stroke-width:0.176"><path d="M165.58,137.17 C165.67,137.19 165.67,137.19 165.76,137.20 C165.85,137.18 165.85,137.18 165.94,137.17 C166.03,137.13 166.03,137.13 166.11,137.08 C166.17,137.02 166.18,137.02 166.24,136.96 "/><path d="M166.06,136.23 C165.97,136.20 165.97,136.20 165.88,136.17 C165.79,136.17 165.79,136.17 165.70,136.18 C165.61,136.20 165.61,136.20 165.52,136.23 C165.44,136.28 165.44,136.29 165.37,136.34 "/><path d="M166.55,137.26 C166.45,137.36 166.45,137.36 166.34,137.46 C166.21,137.53 166.21,137.53 166.07,137.59 C165.93,137.62 165.93,137.62 165.78,137.64 C165.63,137.63 165.63,137.63 165.49,137.60 "/><path d="M165.53,137.62 C165.65,137.64 165.66,137.64 165.79,137.65 C165.93,137.63 165.93,137.63 166.07,137.60 C166.20,137.54 166.20,137.54 166.33,137.47 "/><path d="M165.92,136.44 C165.88,136.43 165.88,136.43 165.83,136.42 C165.78,136.41 165.78,136.41 165.73,136.42 C165.69,136.43 165.69,136.43 165.64,136.45 C165.60,136.47 165.60,136.47 165.56,136.50 "/><path d="M165.56,136.58 C165.59,136.55 165.59,136.55 165.62,136.52 C165.66,136.50 165.66,136.50 165.70,136.48 C165.74,136.47 165.74,136.47 165.79,136.46 "/><path d="M165.42,137.09 L165.58,137.17 "/><path d="M166.24,136.96 L166.32,136.80 L166.34,136.63 L166.30,136.47 L166.20,136.33 L166.06,136.23 "/><path d="M165.37,136.34 L165.26,136.48 L165.21,136.65 L165.22,136.82 L165.29,136.97 L165.42,137.09 "/><path d="M165.49,137.60 L165.23,137.48 "/><path d="M166.33,137.47 L166.39,137.42 "/><path d="M166.07,136.66 L166.06,136.74 L166.02,136.83 L165.95,136.89 L165.86,136.94 L165.82,136.94 L165.90,136.92 L165.97,136.87 L166.02,136.80 L166.04,136.72 L166.04,136.64 L166.01,136.57 L165.95,136.51 L166.04,136.60 L166.07,136.66 L166.07,136.66 L166.05,136.57 L166.00,136.50 L165.92,136.44 "/><path d="M165.56,136.50 L165.51,136.58 L165.48,136.66 L165.48,136.75 L165.49,136.77 L165.50,136.69 L165.52,136.65 L165.51,136.73 L165.53,136.81 L165.58,136.87 L165.65,136.92 L165.69,136.94 L165.73,136.95 L165.81,136.94 L165.77,136.95 L165.67,136.94 L165.59,136.90 L165.52,136.83 L165.49,136.77 "/><path d="M165.81,136.94 L165.82,136.94 "/><path d="M165.52,136.65 L165.56,136.58 "/><path d="M165.79,136.46 L165.81,136.47 L165.87,136.48 L165.95,136.51 "/></g><g style="stroke:#000000;stroke-width:0.529"><path d="M166.25,136.09 C166.12,136.04 166.12,136.04 165.98,136.01 C165.83,136.00 165.83,136.00 165.68,136.01 C165.54,136.05 165.53,136.05 165.39,136.10 C165.27,136.18 165.27,136.19 165.16,136.27 "/><path d="M166.39,137.42 L166.53,137.28 L166.55,137.26 L166.67,137.01 L166.71,136.74 L166.64,136.48 L166.48,136.25 L166.25,136.09 "/><path d="M165.16,136.27 L164.99,136.50 L164.91,136.77 L164.92,137.04 L165.03,137.28 L165.23,137.48 L165.50,137.61 L165.53,137.62 "/></g></g><g id="Actor_.6"><g style="stroke:#000000;stroke-width:0.176"><path d="M218.13,142.40 C218.20,142.35 218.20,142.35 218.27,142.30 C218.36,142.27 218.36,142.27 218.45,142.24 C218.54,142.23 218.54,142.23 218.64,142.23 C218.72,142.26 218.73,142.26 218.81,142.29 "/><path d="M219.00,143.02 C218.94,143.08 218.94,143.08 218.87,143.14 C218.79,143.19 218.79,143.19 218.71,143.23 C218.63,143.24 218.63,143.24 218.55,143.25 "/><path d="M219.31,143.32 C219.21,143.42 219.21,143.42 219.10,143.52 C218.97,143.59 218.97,143.59 218.84,143.65 C218.69,143.68 218.69,143.68 218.54,143.70 C218.40,143.69 218.40,143.69 218.25,143.67 "/><path d="M218.68,142.50 C218.63,142.49 218.63,142.49 218.59,142.48 C218.54,142.48 218.54,142.48 218.49,142.48 C218.44,142.49 218.44,142.49 218.40,142.51 C218.36,142.54 218.36,142.54 218.32,142.57 "/><path d="M219.10,143.53 C218.97,143.60 218.97,143.60 218.84,143.66 C218.70,143.69 218.69,143.69 218.55,143.71 C218.42,143.70 218.42,143.70 218.29,143.68 "/><path d="M218.55,143.25 L218.52,143.26 L218.34,143.23 L218.18,143.16 L218.05,143.03 L217.98,142.88 L217.97,142.71 L218.02,142.55 L218.13,142.40 "/><path d="M218.81,142.29 L218.96,142.39 L219.05,142.53 L219.10,142.69 L219.08,142.86 L219.00,143.02 "/><path d="M218.25,143.67 L217.99,143.54 "/><path d="M218.83,142.72 L218.82,142.80 L218.78,142.89 L218.71,142.95 L218.62,143.00 L218.58,143.00 L218.62,143.00 L218.66,142.98 L218.73,142.93 L218.78,142.86 L218.80,142.78 L218.80,142.70 L218.76,142.63 L218.71,142.57 L218.80,142.66 L218.83,142.72 L218.83,142.72 L218.81,142.63 L218.75,142.56 L218.68,142.50 "/><path d="M218.32,142.57 L218.26,142.64 L218.24,142.73 L218.24,142.82 L218.25,142.84 L218.26,142.75 L218.28,142.71 L218.27,142.79 L218.29,142.87 L218.34,142.94 L218.41,142.98 L218.49,143.01 L218.57,143.01 L218.53,143.01 L218.43,143.00 L218.35,142.96 L218.28,142.90 L218.25,142.84 "/><path d="M218.28,142.71 L218.32,142.64 L218.38,142.58 L218.46,142.54 L218.55,142.53 L218.63,142.54 L218.71,142.57 "/><path d="M219.14,143.48 L219.10,143.53 "/><path d="M218.57,143.01 L218.58,143.00 "/></g><g style="stroke:#000000;stroke-width:0.529"><path d="M217.91,142.34 C218.03,142.25 218.03,142.25 218.15,142.17 C218.29,142.12 218.29,142.12 218.43,142.07 C218.58,142.07 218.58,142.07 218.73,142.07 C218.87,142.10 218.87,142.10 219.01,142.15 "/><path d="M218.29,143.68 L218.27,143.67 L217.99,143.54 L217.80,143.35 L217.68,143.10 L217.66,142.83 L217.74,142.57 L217.91,142.34 "/><path d="M219.01,142.15 L219.24,142.31 L219.40,142.54 L219.46,142.80 L219.43,143.07 L219.31,143.32 L219.30,143.33 L219.14,143.48 "/></g></g><g id="Actor_.7"><g style="stroke:#000000;stroke-width:0.176"><path d="M253.21,147.76 C253.43,147.45 253.43,147.44 253.63,147.12 C253.77,146.71 253.77,146.71 253.89,146.29 C254.29,144.17 254.29,144.17 254.67,142.04 "/><path d="M257.28,141.10 C257.41,140.82 257.41,140.82 257.51,140.52 C258.18,136.96 258.19,136.96 258.82,133.38 C258.86,132.67 258.86,132.66 258.86,131.95 "/><path d="M245.28,153.30 L244.99,153.20 "/><path d="M245.24,153.27 L246.40,153.44 "/><path d="M245.63,152.29 L245.36,151.92 L245.43,151.62 L245.81,151.39 L246.12,151.48 "/><path d="M246.22,153.39 L246.27,153.41 "/><path d="M246.35,153.41 L250.03,154.51 "/><path d="M248.47,152.04 L248.17,151.94 L247.78,152.18 L247.76,152.63 L247.99,152.85 "/><path d="M250.50,154.58 L249.90,149.45 "/><path d="M249.98,154.48 L251.19,154.79 L250.63,149.36 L250.38,149.37 "/><path d="M250.94,154.84 L251.19,154.79 L252.53,155.65 L252.83,155.71 "/><path d="M250.11,154.51 L250.16,154.54 "/><path d="M250.61,149.46 L250.37,149.44 "/><path d="M250.64,149.32 L250.92,148.89 L252.66,148.15 L252.40,148.20 "/><path d="M250.92,148.89 L250.67,148.94 "/><path d="M252.53,155.65 L252.27,155.70 "/><path d="M253.33,151.51 L253.61,151.44 L253.69,151.03 L253.49,150.65 L253.17,150.67 "/><path d="M252.66,148.15 L253.21,147.76 "/><path d="M254.67,142.04 L254.42,142.09 "/><path d="M254.16,156.56 L254.41,156.59 L254.41,156.36 L254.14,155.60 L253.81,155.56 "/><path d="M269.51,72.82 L269.34,72.99 L254.14,155.60 L253.96,155.42 L253.72,155.48 "/><path d="M253.96,155.42 L269.17,72.73 "/><path d="M253.89,146.29 L253.63,146.34 "/><path d="M254.40,141.73 L254.65,141.68 L254.67,142.04 "/><path d="M254.22,140.78 L254.41,140.74 L254.49,141.09 L254.24,141.14 "/><path d="M254.34,140.11 L254.60,140.06 L254.48,140.73 "/><path d="M254.49,156.60 L254.53,156.63 "/><path d="M254.98,153.85 L254.88,153.25 L255.16,153.28 L254.98,153.85 "/><path d="M255.16,153.28 L256.48,146.14 L256.14,146.10 "/><path d="M254.88,153.25 L254.96,152.53 "/><path d="M254.65,141.68 L254.49,141.09 "/><path d="M255.05,140.47 L255.36,140.45 L255.57,140.83 L255.49,141.23 L255.21,141.30 "/><path d="M254.93,139.30 L255.16,139.25 L255.05,139.51 L254.80,139.56 "/><path d="M254.48,139.84 L255.05,139.51 "/><path d="M254.60,140.06 L254.73,139.79 "/><path d="M256.76,129.34 L257.02,129.29 L255.18,139.25 "/><path d="M256.48,146.14 L256.52,144.71 L256.16,145.99 "/><path d="M256.57,128.03 L256.82,127.98 L257.00,127.15 L257.53,126.49 L257.28,126.54 "/><path d="M256.59,128.39 L256.84,128.34 L256.82,127.98 "/><path d="M257.51,140.52 L257.23,140.49 L257.28,141.10 "/><path d="M258.86,131.95 L258.51,133.24 "/><path d="M257.31,139.78 L257.23,140.49 "/><path d="M257.02,129.29 L256.84,128.34 "/><path d="M257.40,127.71 L257.71,127.69 L257.90,128.02 L257.84,128.48 L257.56,128.55 "/><path d="M257.00,128.93 L256.74,128.98 "/><path d="M256.95,127.30 L256.69,127.35 "/><path d="M257.08,127.04 L256.82,127.09 "/><path d="M257.53,126.49 L259.37,116.53 L259.11,116.58 "/><path d="M257.40,126.75 L257.14,126.80 "/><path d="M258.82,133.38 L258.49,133.34 "/><path d="M259.86,127.77 L259.58,127.74 L259.63,128.35 L259.86,127.77 L261.17,120.63 L260.84,120.59 "/><path d="M259.65,127.02 L259.58,127.74 "/><path d="M259.74,114.96 L260.06,114.94 L260.26,115.31 L260.19,115.72 L259.91,115.79 "/><path d="M259.04,114.60 L259.29,114.55 L259.16,115.40 L259.37,116.53 "/><path d="M259.35,116.17 L259.09,116.22 "/><path d="M259.29,114.55 L259.75,114.00 L259.49,114.05 "/><path d="M258.91,115.27 L259.17,115.22 "/><path d="M259.19,115.58 L258.93,115.63 "/><path d="M259.43,114.28 L259.17,114.33 "/><path d="M259.75,114.00 L259.88,113.74 L259.62,113.79 "/><path d="M259.88,113.74 L261.71,103.78 L261.70,103.42 L261.44,103.47 "/><path d="M260.85,120.48 L261.21,119.19 L261.17,120.63 "/><path d="M262.20,115.01 L261.93,114.98 L261.96,115.54 L262.20,115.01 L263.52,107.87 L263.18,107.83 "/><path d="M261.93,114.98 L262.00,114.26 "/><path d="M261.70,103.42 L261.51,102.64 L261.77,101.53 L261.52,101.58 "/><path d="M261.71,103.78 L261.46,103.83 "/><path d="M261.52,102.46 L261.26,102.51 "/><path d="M261.54,102.82 L261.28,102.87 "/><path d="M262.26,103.04 L262.53,102.97 L262.61,102.56 L262.42,102.19 L262.09,102.20 "/><path d="M263.63,90.12 L263.88,90.07 L264.06,90.96 L262.23,100.98 L261.77,101.53 "/><path d="M261.64,101.79 L261.39,101.84 "/><path d="M262.10,101.24 L261.84,101.29 "/><path d="M261.97,101.03 L262.23,100.98 "/><path d="M263.20,107.72 L263.56,106.44 L263.52,107.87 "/><path d="M262.30,72.13 L262.77,72.31 L264.80,72.52 L264.78,72.85 "/><path d="M262.77,72.31 L262.74,72.63 "/><path d="M264.06,91.02 L263.80,91.07 "/><path d="M263.87,88.82 L264.12,88.77 L263.88,90.07 "/><path d="M264.04,90.66 L263.79,90.71 "/><path d="M263.99,89.04 L263.73,89.09 "/><path d="M264.12,88.77 L264.44,88.49 L264.19,88.54 "/><path d="M263.87,89.71 L263.61,89.76 "/><path d="M264.60,90.28 L264.88,90.21 L264.96,89.84 L264.75,89.42 L264.44,89.44 "/><path d="M264.44,88.49 L264.58,88.22 L264.32,88.27 "/><path d="M263.44,72.06 L263.90,71.99 L264.37,72.17 L263.77,72.24 L263.44,72.06 "/><path d="M265.60,95.45 L265.60,96.02 L265.74,95.16 L265.60,95.45 "/><path d="M264.58,88.22 L266.41,78.26 L266.39,77.90 L266.13,77.95 "/><path d="M264.80,72.52 L266.23,72.58 L268.19,72.03 "/><path d="M265.44,72.51 L265.42,72.83 "/><path d="M265.59,71.96 L265.41,72.06 L265.87,72.21 L266.35,72.13 L265.59,71.96 "/><path d="M264.53,72.51 L264.50,72.84 "/><path d="M266.62,89.47 L266.90,89.50 L266.74,90.04 L266.62,89.88 L266.70,88.75 "/><path d="M266.39,77.90 L266.21,76.95 L265.96,77.00 "/><path d="M266.41,78.26 L266.15,78.31 "/><path d="M266.23,77.31 L265.97,77.36 "/><path d="M266.21,76.95 L266.47,76.02 L266.21,76.07 "/><path d="M266.53,75.78 L266.74,75.74 L266.47,76.02 "/><path d="M266.34,76.28 L266.08,76.33 "/><path d="M269.07,72.59 L266.81,73.21 L266.99,75.12 L266.92,75.47 L266.67,75.52 "/><path d="M266.55,73.27 L266.74,73.23 L266.59,72.81 L266.23,72.58 L266.21,72.91 "/><path d="M265.72,72.52 L265.70,72.85 "/><path d="M266.90,89.50 L268.21,82.36 L268.25,80.92 L267.90,82.21 "/><path d="M266.95,77.52 L267.23,77.45 L267.30,77.05 L267.10,76.67 L266.79,76.69 "/><path d="M266.79,75.73 L266.92,75.47 "/><path d="M266.99,75.12 L266.74,75.17 "/><path d="M268.21,82.36 L267.88,82.32 "/><path d="M269.35,75.25 L269.23,75.44 L269.37,74.12 L269.46,74.41 L269.35,75.25 "/><path d="M269.36,72.94 L269.24,72.78 "/></g><g style="stroke:#000000;stroke-width:0.529"><path d="M244.99,153.20 C245.70,153.31 245.70,153.31 246.40,153.44 C248.45,154.00 248.47,153.97 250.50,154.58 C251.48,155.13 251.49,155.14 252.43,155.76 "/><path d="M254.98,155.35 C262.13,116.62 262.13,116.62 269.23,77.88 C269.47,76.14 269.46,76.14 269.67,74.39 C269.68,73.70 269.68,73.69 269.66,73.01 "/><path d="M254.42,142.09 C254.03,144.22 254.03,144.22 253.63,146.34 C253.52,146.73 253.52,146.73 253.39,147.11 C253.18,147.46 253.18,147.47 252.95,147.81 "/><path d="M244.26,149.54 L244.55,152.58 L244.99,153.20 "/><path d="M252.43,155.76 L253.72,155.48 L254.16,156.56 L254.53,156.63 L254.98,155.35 "/><path d="M269.66,73.01 L269.60,72.83 L269.24,72.78 L268.85,72.34 L268.25,72.04 L264.15,71.59 L262.33,72.08 L262.28,72.45 L262.56,72.60 L266.32,72.95 L266.55,73.27 L266.73,75.17 L266.62,75.67 L266.13,76.18 L265.96,77.00 L266.15,78.31 L264.32,88.27 L263.73,89.09 L263.60,89.93 L263.80,91.07 L261.97,101.03 L261.39,101.84 L261.25,102.69 L261.46,103.83 L259.62,113.79 L259.09,114.44 L258.91,115.27 L259.11,116.58 L257.28,126.54 L256.69,127.35 L256.56,128.20 L256.76,129.34 L254.94,139.25 L254.41,139.93 L254.30,140.37 L254.21,140.96 L254.42,142.09 "/><path d="M252.95,147.81 L252.40,148.20 L250.67,148.94 L250.38,149.36 L250.16,149.44 L245.13,148.90 L244.67,148.99 L244.26,149.54 "/><path d="M245.45,151.73 L245.45,152.07 L245.63,152.29 L246.07,152.26 L246.27,152.03 L246.28,151.72 L246.01,151.43 L245.71,151.45 L245.45,151.73 "/><path d="M247.90,152.79 L248.28,152.88 L248.53,152.73 L248.66,152.43 L248.47,152.04 L248.06,152.01 L247.83,152.21 L247.76,152.51 L247.90,152.79 "/><path d="M253.29,150.77 L253.17,150.67 L253.07,151.02 L253.33,151.51 L253.43,151.08 L253.29,150.77 "/><path d="M254.98,152.42 L254.96,152.53 L255.13,151.60 L254.98,152.42 "/><path d="M255.34,150.48 L255.53,149.42 L255.13,151.60 "/><path d="M255.31,141.10 L255.23,141.28 L255.03,141.11 L255.00,140.53 L255.20,140.59 L255.31,141.10 "/><path d="M255.54,149.36 L256.16,145.99 L255.96,147.11 "/><path d="M257.31,139.78 L257.40,139.25 L257.31,139.78 "/><path d="M257.40,139.25 L257.82,137.01 L257.61,138.13 "/><path d="M257.58,128.53 L257.30,128.06 L257.46,127.74 L257.66,128.12 L257.58,128.53 "/><path d="M257.82,137.01 L258.51,133.24 L258.44,133.64 "/><path d="M259.68,126.90 L259.65,127.02 L260.09,124.65 L259.88,125.78 "/><path d="M259.93,115.77 L259.64,115.30 L259.80,114.99 L260.00,115.36 L259.93,115.77 "/><path d="M260.09,124.65 L260.85,120.48 L260.71,121.28 "/><path d="M262.00,114.26 L262.16,113.42 L262.00,114.26 "/><path d="M262.26,112.88 L262.16,113.42 L262.36,112.30 L262.26,112.88 "/><path d="M262.24,102.33 L262.04,102.27 L261.99,102.55 L262.26,103.03 L262.36,102.76 L262.24,102.33 "/><path d="M262.98,108.93 L263.18,107.83 L262.36,112.30 "/><path d="M263.19,107.81 L263.20,107.72 "/><path d="M264.36,89.94 L264.60,90.28 L264.70,89.85 L264.50,89.47 L264.35,89.64 L264.36,89.94 "/><path d="M266.70,88.75 L266.91,87.59 L266.70,88.72 "/><path d="M266.69,76.88 L266.85,76.72 L267.01,76.95 L266.98,77.49 L266.77,77.33 L266.69,76.88 "/><path d="M266.91,87.59 L267.90,82.21 L267.74,83.10 "/></g></g><g id="Actor_.8"><g style="stroke:#000000;stroke-width:0.176"><path d="M54.80,131.42 L55.02,131.48 "/><path d="M55.39,126.75 L54.92,125.78 L223.22,145.04 L222.20,145.56 L222.18,145.91 "/><path d="M54.97,131.45 L219.01,150.30 L218.88,150.53 "/><path d="M56.76,130.04 L56.46,129.94 L56.04,130.27 L56.28,130.85 "/><path d="M55.48,126.92 L55.40,126.40 L222.20,145.56 L221.73,146.13 L220.79,146.12 L55.55,127.13 "/><path d="M55.46,126.69 L55.58,127.00 "/><path d="M54.93,125.46 L223.42,144.82 L223.59,144.39 "/><path d="M57.82,132.60 L218.33,151.04 L218.48,151.73 "/><path d="M57.18,131.73 L57.17,131.70 "/><path d="M58.70,130.84 L58.47,130.62 L58.60,130.05 L59.19,130.03 "/><path d="M217.95,148.27 L217.25,148.41 L217.45,149.08 "/><path d="M218.33,151.04 L218.45,150.97 "/><path d="M221.27,150.58 L219.07,150.33 "/><path d="M218.95,150.45 L219.00,150.41 "/><path d="M220.30,148.83 L219.67,148.89 L219.57,149.36 L219.80,149.63 "/><path d="M221.22,150.55 L221.87,150.32 L222.15,149.70 "/><path d="M221.77,146.26 L222.10,149.67 "/><path d="M221.88,146.09 L221.91,146.07 "/><path d="M221.98,146.04 L221.96,145.82 "/><path d="M223.48,144.98 L223.36,145.41 "/><path d="M223.56,144.25 L223.56,144.02 "/></g><g style="stroke:#000000;stroke-width:0.529"><path d="M57.32,122.93 C95.86,127.29 95.88,127.29 134.40,131.78 C136.10,132.28 136.08,132.38 137.77,132.91 C139.48,133.14 139.49,133.14 141.22,133.31 C143.10,133.19 143.10,133.08 144.98,133.00 C183.45,137.35 183.46,137.35 221.91,141.84 "/><path d="M54.80,131.42 L54.29,130.63 L55.55,127.13 L54.85,125.93 L55.11,124.66 L56.62,123.16 L57.32,122.93 "/><path d="M221.91,141.84 L222.65,142.23 L223.59,144.39 L223.36,145.41 L221.83,146.12 L222.15,149.70 L221.91,150.36 L221.27,150.58 L219.07,150.33 L218.56,150.89 L218.46,151.84 L217.15,152.26 L59.61,134.16 L58.04,133.41 L57.82,132.60 L57.23,131.88 L54.80,131.42 "/><path d="M56.11,130.66 L56.22,130.09 L56.76,130.04 L56.93,130.28 L56.71,130.82 L56.11,130.66 "/><path d="M58.53,130.65 L59.00,130.87 L59.26,130.71 L59.28,130.13 L58.78,130.00 L58.53,130.65 "/><path d="M217.24,148.74 L217.38,149.02 L217.90,149.05 L218.11,148.51 L217.56,148.24 L217.24,148.74 "/><path d="M219.64,149.45 L219.76,148.88 L220.30,148.83 L220.46,149.06 L220.25,149.61 L219.64,149.45 "/></g></g><g id="Actor_.9"><g style="stroke:#000000;stroke-width:0.176"><path d="M77.59,127.05 C77.67,127.07 77.67,127.07 77.76,127.09 C77.86,127.09 77.86,127.09 77.95,127.08 C78.04,127.05 78.04,127.05 78.12,127.01 C78.20,126.96 78.20,126.96 78.27,126.90 "/><path d="M78.18,126.15 C78.09,126.12 78.09,126.12 78.01,126.08 C77.92,126.07 77.92,126.07 77.83,126.07 C77.73,126.08 77.73,126.08 77.64,126.11 C77.56,126.15 77.56,126.15 77.48,126.20 C77.42,126.26 77.42,126.26 77.36,126.33 "/><path d="M78.55,127.23 C78.44,127.33 78.44,127.33 78.32,127.41 C78.18,127.47 78.18,127.47 78.04,127.52 C77.90,127.53 77.89,127.53 77.75,127.54 C77.60,127.51 77.60,127.51 77.46,127.47 "/><path d="M78.02,126.36 C77.97,126.34 77.97,126.34 77.93,126.32 C77.88,126.31 77.88,126.31 77.83,126.31 C77.79,126.32 77.78,126.32 77.74,126.33 C77.69,126.35 77.69,126.35 77.65,126.38 C77.62,126.41 77.62,126.41 77.59,126.45 "/><path d="M77.71,126.40 C77.75,126.38 77.75,126.38 77.80,126.37 C77.84,126.36 77.84,126.36 77.88,126.36 C77.92,126.37 77.93,126.37 77.97,126.38 "/><path d="M77.33,126.82 L77.44,126.95 L77.59,127.05 "/><path d="M78.27,126.90 L78.36,126.75 L78.40,126.59 L78.38,126.42 L78.31,126.27 L78.18,126.15 "/><path d="M77.36,126.33 L77.29,126.49 L77.28,126.66 L77.33,126.82 "/><path d="M78.45,127.32 L78.32,127.42 L78.05,127.53 L77.76,127.55 L77.59,127.50 "/><path d="M78.13,126.55 L78.14,126.58 L78.12,126.67 L78.06,126.75 L77.99,126.81 L77.94,126.83 L78.02,126.78 L78.07,126.72 L78.11,126.65 L78.11,126.57 L78.09,126.49 L78.04,126.43 L78.07,126.46 L78.12,126.53 L78.13,126.55 L78.13,126.50 L78.08,126.42 L78.02,126.36 "/><path d="M77.59,126.45 L77.55,126.53 L77.55,126.62 L77.56,126.68 L77.56,126.65 L77.58,126.56 L77.60,126.52 L77.58,126.60 L77.59,126.68 L77.63,126.75 L77.66,126.78 L77.69,126.80 L77.77,126.84 L77.86,126.85 L77.94,126.83 L77.90,126.84 L77.86,126.85 "/><path d="M77.56,126.68 L77.57,126.71 L77.63,126.78 L77.71,126.83 L77.80,126.85 L77.85,126.85 "/><path d="M77.94,126.83 L77.94,126.83 "/><path d="M77.60,126.52 L77.65,126.45 L77.67,126.44 L77.71,126.40 "/><path d="M77.97,126.38 L78.04,126.43 "/></g><g style="stroke:#000000;stroke-width:0.529"><path d="M77.10,126.32 C77.20,126.21 77.20,126.21 77.30,126.11 C77.42,126.03 77.42,126.03 77.56,125.96 C77.70,125.92 77.70,125.92 77.85,125.90 C77.99,125.91 78.00,125.91 78.14,125.92 C78.27,125.97 78.28,125.98 78.41,126.04 "/><path d="M77.59,127.50 L77.48,127.48 L77.22,127.32 L77.05,127.10 L76.97,126.84 L76.99,126.57 L77.10,126.32 "/><path d="M78.41,126.04 L78.61,126.22 L78.74,126.46 L78.77,126.73 L78.71,127.00 L78.54,127.25 L78.45,127.32 "/></g></g><g id="Actor_.10"><g style="stroke:#000000;stroke-width:0.176"><path d="M33.64,122.53 C33.60,122.19 33.60,122.19 33.58,121.84 C34.03,119.21 34.02,119.20 34.50,116.57 C34.71,116.04 34.71,116.03 34.95,115.51 "/><path d="M31.61,131.02 L31.23,130.02 L31.53,130.27 L32.04,130.40 "/><path d="M31.58,130.99 L31.24,130.95 "/><path d="M31.23,130.02 L30.89,129.95 "/><path d="M31.20,129.99 L30.99,129.81 L30.90,129.87 "/><path d="M30.99,129.81 L46.20,47.11 "/><path d="M31.74,130.28 L32.77,129.70 L34.65,124.65 L34.96,124.71 "/><path d="M31.55,130.29 L31.86,130.41 "/><path d="M32.34,125.90 L32.45,126.14 L32.62,126.01 L32.83,125.46 L32.78,125.26 L32.50,125.44 L32.34,125.90 "/><path d="M33.06,129.81 L32.77,129.70 L33.40,129.61 L35.24,124.79 "/><path d="M33.49,129.64 L33.96,129.69 "/><path d="M32.63,125.99 L32.82,125.52 "/><path d="M34.93,124.15 L34.64,124.04 L33.85,123.01 L33.64,122.53 "/><path d="M34.95,115.51 L35.24,115.62 "/><path d="M33.78,129.65 L33.83,129.68 "/><path d="M33.91,129.66 L37.88,129.47 "/><path d="M34.65,124.65 L34.64,124.04 "/><path d="M34.68,124.51 L34.97,124.62 "/><path d="M33.85,123.01 L34.14,123.13 "/><path d="M33.68,120.99 L33.97,121.11 "/><path d="M34.75,116.86 L34.46,116.74 "/><path d="M34.25,115.90 L34.29,115.40 L34.65,115.06 L34.51,115.79 L34.25,115.90 "/><path d="M34.57,116.40 L34.86,116.51 "/><path d="M34.51,115.79 L34.70,115.31 "/><path d="M36.46,127.68 L36.15,127.58 L35.76,127.82 L35.75,128.27 L35.97,128.49 "/><path d="M35.13,115.97 L34.84,115.85 "/><path d="M35.37,114.67 L35.08,114.56 L34.95,115.51 "/><path d="M35.08,114.56 L34.97,113.95 L36.81,103.99 L37.30,102.75 L37.59,102.87 "/><path d="M35.08,114.84 L35.37,114.95 "/><path d="M34.97,114.23 L35.26,114.34 "/><path d="M34.97,113.95 L35.26,114.06 "/><path d="M36.81,103.99 L37.10,104.10 "/><path d="M36.92,103.64 L37.21,103.76 "/><path d="M36.64,102.65 L36.57,103.06 L36.71,103.17 L36.98,102.79 L37.00,102.30 L36.64,102.65 "/><path d="M36.86,103.03 L37.05,102.56 "/><path d="M37.83,129.44 L39.08,129.54 L39.52,129.27 L40.70,126.16 L40.61,125.78 L40.24,125.39 "/><path d="M37.70,129.44 L37.75,129.47 "/><path d="M37.19,103.10 L37.48,103.21 "/><path d="M37.72,102.20 L37.42,102.08 L37.32,101.47 L37.61,101.58 "/><path d="M37.30,102.75 L37.42,102.08 "/><path d="M37.61,101.30 L37.32,101.19 L37.32,101.47 "/><path d="M37.32,101.19 L39.15,91.23 L39.24,90.96 L39.56,91.00 "/><path d="M37.42,101.80 L37.71,101.92 "/><path d="M38.82,129.56 L38.87,129.59 "/><path d="M38.88,127.67 L38.57,127.58 L38.19,127.81 L38.17,128.26 L38.40,128.48 "/><path d="M39.15,91.23 L39.44,91.34 "/><path d="M38.94,90.39 L39.06,89.75 L39.35,89.55 L39.21,90.28 L38.94,90.39 "/><path d="M39.21,90.28 L39.39,89.80 "/><path d="M39.70,129.07 L39.66,129.04 "/><path d="M39.94,90.11 L39.65,90.00 L39.53,90.34 L39.82,90.46 "/><path d="M39.27,90.89 L39.53,90.34 "/><path d="M39.65,90.00 L39.77,89.33 L40.06,89.44 "/><path d="M39.77,89.33 L39.77,89.05 L40.06,89.16 "/><path d="M39.77,89.05 L39.67,88.72 L39.96,88.83 "/><path d="M41.91,78.25 L41.62,78.13 L41.50,78.48 L39.67,88.72 "/><path d="M39.67,88.44 L39.96,88.55 "/><path d="M40.65,126.39 L40.70,126.42 "/><path d="M41.29,77.63 L41.34,77.14 L41.70,76.79 L41.64,77.38 L41.48,77.61 L41.29,77.63 "/><path d="M41.50,78.48 L41.79,78.59 "/><path d="M41.62,78.13 L41.87,77.61 L42.17,77.70 "/><path d="M41.88,77.59 L42.12,76.29 L42.41,76.40 "/><path d="M41.74,77.05 L41.55,77.52 "/><path d="M42.12,76.57 L42.41,76.68 "/><path d="M41.99,77.24 L42.29,77.36 "/><path d="M44.63,64.60 L44.34,64.49 L43.85,65.72 L42.01,75.68 L42.12,76.29 "/><path d="M42.01,75.68 L42.31,75.79 "/><path d="M42.02,75.96 L42.31,76.07 "/><path d="M43.68,64.38 L43.61,64.79 L43.75,64.91 L44.09,64.23 L44.04,64.04 L43.68,64.38 "/><path d="M43.96,65.38 L44.25,65.49 "/><path d="M43.85,65.72 L44.14,65.83 "/><path d="M44.23,64.83 L44.52,64.95 "/><path d="M44.34,64.49 L44.47,63.81 L44.76,63.93 "/><path d="M43.90,64.77 L44.09,64.29 "/><path d="M44.65,63.04 L44.36,62.92 L44.47,63.81 "/><path d="M44.36,62.92 L46.19,52.96 L46.31,52.62 L46.60,52.73 "/><path d="M44.36,63.20 L44.65,63.32 "/><path d="M44.47,63.54 L44.76,63.65 "/><path d="M46.19,52.96 L46.49,53.08 "/><path d="M46.31,52.62 L46.56,52.10 L46.87,52.19 "/><path d="M46.57,52.08 L46.69,51.73 L46.98,51.84 "/><path d="M46.69,51.73 L46.81,51.06 L47.10,51.17 "/><path d="M46.43,51.53 L46.33,51.26 L46.18,51.37 L45.98,51.77 L45.98,52.12 L46.24,52.02 L46.40,51.58 "/><path d="M46.25,52.01 L46.38,51.75 "/><path d="M46.81,51.06 L46.71,50.17 L47.00,50.28 "/><path d="M46.81,50.78 L47.10,50.89 "/><path d="M47.00,50.56 L46.71,50.45 "/><path d="M46.71,50.17 L46.77,49.82 L47.07,49.93 "/><path d="M46.77,49.82 L47.43,48.01 L46.31,46.99 "/><path d="M47.72,48.12 L47.43,48.01 L47.95,47.57 L48.70,47.59 L48.67,47.91 "/><path d="M48.16,47.85 L48.18,47.53 L47.20,46.64 "/><path d="M48.70,47.59 L51.49,48.03 L52.15,47.93 "/><path d="M48.95,47.63 L48.92,47.96 "/><path d="M48.69,47.21 L48.66,47.11 L48.97,47.04 L49.59,47.22 L49.20,47.31 L48.69,47.21 "/><path d="M49.73,47.83 L49.70,48.16 "/><path d="M50.43,47.52 L50.32,47.66 L50.50,47.73 L51.23,47.68 L50.92,47.52 L50.43,47.52 "/><path d="M49.48,47.78 L49.45,48.11 "/><path d="M51.46,48.36 L51.49,48.03 "/></g><g style="stroke:#000000;stroke-width:0.529"><path d="M44.77,63.77 C44.71,64.19 44.71,64.19 44.63,64.60 C44.40,65.22 44.36,65.21 44.14,65.83 C43.20,70.81 43.20,70.81 42.31,75.79 "/><path d="M42.43,76.53 C42.37,76.94 42.37,76.95 42.29,77.36 C42.05,77.98 42.02,77.97 41.79,78.59 C40.85,83.56 40.85,83.57 39.96,88.55 "/><path d="M40.08,89.28 C40.02,89.70 40.02,89.70 39.94,90.11 C39.70,90.73 39.67,90.72 39.44,91.34 C38.51,96.32 38.50,96.32 37.61,101.30 "/><path d="M37.73,102.04 C37.67,102.45 37.67,102.46 37.59,102.87 C37.35,103.49 37.32,103.48 37.10,104.10 C36.16,109.07 36.16,109.08 35.26,114.06 "/><path d="M35.38,114.80 C35.32,115.21 35.32,115.21 35.24,115.62 C35.00,116.26 34.97,116.25 34.74,116.89 C34.34,118.99 34.34,119.00 33.97,121.11 C33.93,121.87 33.93,121.88 33.93,122.65 "/><path d="M31.38,131.00 L31.27,130.99 L30.89,129.95 L46.12,47.19 L46.47,46.85 L47.07,46.65 L51.09,47.10 L52.12,47.88 L52.13,48.26 L51.46,48.36 L48.02,47.87 L47.72,48.12 L47.07,49.91 L46.99,50.44 L47.10,51.17 L46.33,53.90 L44.65,63.04 L44.77,63.77 "/><path d="M42.31,75.79 L42.43,76.53 "/><path d="M39.96,88.55 L40.08,89.28 "/><path d="M37.61,101.30 L37.73,102.04 "/><path d="M35.26,114.06 L35.38,114.80 "/><path d="M33.93,122.65 L34.14,123.13 L34.93,124.15 L35.01,124.72 L40.24,125.39 L40.63,125.73 L40.70,126.42 L39.70,129.07 L39.37,129.47 L38.87,129.59 L37.75,129.47 L33.33,129.67 L31.93,130.43 L31.65,130.99 L31.38,131.00 "/><path d="M35.79,128.30 L35.76,128.02 L35.91,127.73 L36.20,127.61 L36.55,127.78 L36.61,128.23 L36.41,128.46 L36.11,128.53 L35.79,128.30 "/><path d="M38.17,128.14 L38.31,128.42 L38.69,128.51 L39.03,128.22 L39.05,127.91 L38.78,127.62 L38.47,127.64 L38.24,127.84 L38.17,128.14 "/><path d="M46.39,51.73 L46.43,51.58 L46.39,51.73 "/></g></g><g id="Actor_.11"><g style="stroke:#000000;stroke-width:0.176"><path d="M52.44,129.87 L53.69,129.19 L54.01,129.31 "/><path d="M52.57,129.83 L52.89,129.95 "/><path d="M54.35,129.27 L53.85,129.13 L53.79,128.64 L68.10,50.88 L68.00,50.61 L67.14,50.75 "/><path d="M53.23,128.36 L52.89,128.34 L52.97,128.05 L53.33,127.71 L53.36,128.02 "/><path d="M54.88,126.10 L54.32,129.12 L54.79,129.17 "/><path d="M55.24,117.82 L54.99,117.59 L54.84,117.84 L54.84,118.38 L55.10,118.17 "/><path d="M222.87,148.63 L237.24,70.17 L68.73,50.81 L55.15,124.61 "/><path d="M57.58,105.06 L57.34,104.84 L57.19,105.09 L57.16,105.60 L57.45,105.41 "/><path d="M59.93,92.31 L59.68,92.09 L59.54,92.33 L59.54,92.87 L59.80,92.65 "/><path d="M62.28,79.55 L62.03,79.33 L61.89,79.58 L61.89,80.11 L62.14,79.90 "/><path d="M63.78,122.27 L64.15,121.77 L64.49,122.11 "/><path d="M65.28,117.83 L64.94,117.48 L64.57,117.98 "/><path d="M64.49,67.14 L64.30,67.35 L64.23,66.82 L64.60,66.49 L64.63,66.80 "/><path d="M65.35,113.70 L65.73,113.20 L66.07,113.54 "/><path d="M66.97,54.05 L66.98,53.81 L66.58,54.07 L66.58,54.60 L66.83,54.39 "/><path d="M67.46,50.79 L67.15,50.97 "/><path d="M67.17,49.27 L66.87,49.76 "/><path d="M66.96,49.68 L67.02,49.34 "/><path d="M67.11,49.62 L67.75,49.59 L68.34,50.51 L67.11,49.62 "/><path d="M68.10,50.88 L68.37,50.81 L68.00,50.61 "/><path d="M68.34,50.51 L68.68,50.65 L68.77,50.31 L68.37,50.15 "/><path d="M240.18,69.10 L67.31,49.24 "/><path d="M68.37,50.81 L68.73,50.81 L68.77,50.31 "/><path d="M68.68,50.65 L68.70,50.30 "/><path d="M239.74,73.73 L239.87,71.09 L238.42,70.17 L237.85,70.35 L237.31,70.19 L237.33,69.82 L236.48,69.62 L68.86,50.37 "/><path d="M69.36,49.70 L69.12,49.93 L69.69,49.95 L69.36,49.70 "/><path d="M70.53,50.23 L71.39,50.25 L70.53,50.23 "/><path d="M75.73,123.40 L75.39,123.06 L75.01,123.56 "/><path d="M76.52,119.11 L76.18,118.77 L75.80,119.27 "/><path d="M77.31,114.83 L76.96,114.49 L76.59,114.99 "/><path d="M135.57,127.24 L135.58,127.12 "/><path d="M135.54,126.96 L136.72,120.55 L137.25,120.06 L137.47,120.21 "/><path d="M136.72,120.55 L136.76,120.70 "/><path d="M137.44,120.06 L138.50,119.91 "/><path d="M137.98,120.27 L137.95,120.11 "/><path d="M138.47,119.76 L138.57,119.53 "/><path d="M138.54,119.38 L139.29,118.43 L140.17,118.44 "/><path d="M140.13,118.28 L144.51,118.94 "/><path d="M144.48,118.78 L145.12,119.04 L145.62,119.85 "/><path d="M145.54,120.70 L145.95,121.19 "/><path d="M145.58,120.82 L145.58,120.85 "/><path d="M146.93,121.60 L146.61,121.14 L145.91,121.03 "/><path d="M146.42,121.09 L146.46,121.24 "/><path d="M205.10,138.27 L204.76,137.92 L204.39,138.42 "/><path d="M205.18,134.14 L205.55,133.64 L205.89,133.98 "/><path d="M205.97,129.85 L206.34,129.35 L206.68,129.69 "/><path d="M215.62,139.71 L216.00,139.22 L216.34,139.55 "/><path d="M216.41,135.43 L216.78,134.93 L217.13,135.27 "/><path d="M217.91,130.98 L217.57,130.64 L217.20,131.14 "/><path d="M223.25,148.76 L223.53,148.70 L222.01,148.38 "/><path d="M237.94,70.40 L223.53,148.70 L225.36,149.70 "/><path d="M224.99,149.64 L224.71,149.69 "/><path d="M224.68,147.50 L224.96,147.43 L225.22,147.92 L224.85,148.30 "/><path d="M226.56,137.29 L226.84,137.22 L227.10,137.71 L226.72,138.10 "/><path d="M229.07,125.34 L229.42,124.80 L228.90,124.54 "/><path d="M231.42,112.59 L231.77,112.05 L231.25,111.78 "/><path d="M233.60,99.02 L233.88,98.96 L234.14,99.44 L233.77,99.83 "/><path d="M235.19,69.15 L236.05,69.17 L235.19,69.15 "/><path d="M236.11,87.08 L236.46,86.53 L235.94,86.27 "/><path d="M237.31,70.19 L237.53,69.70 "/><path d="M237.33,70.08 L237.50,70.06 "/><path d="M237.58,70.06 L239.84,69.15 L240.74,69.82 L241.03,70.75 L238.98,70.50 "/><path d="M237.18,69.11 L238.04,69.12 L237.18,69.11 "/><path d="M238.27,73.56 L238.81,73.78 L238.46,74.32 "/><path d="M238.29,73.51 L238.39,73.58 "/><path d="M238.07,69.65 L237.60,69.70 "/><path d="M237.78,70.31 L238.22,70.16 "/><path d="M240.38,69.17 L240.32,69.52 L238.05,70.00 "/><path d="M239.70,73.61 L240.78,72.99 "/><path d="M239.63,73.60 L239.61,73.72 "/><path d="M240.74,72.86 L241.08,70.38 "/><path d="M239.94,71.20 L241.04,71.43 "/><path d="M240.74,69.82 L240.80,69.47 "/><path d="M240.53,69.63 L240.59,69.28 "/></g><g style="stroke:#000000;stroke-width:0.529"><path d="M222.02,148.54 L223.14,148.70 L224.71,149.69 L225.36,149.70 L225.72,149.19 L239.61,73.72 L240.29,73.63 L240.77,72.99 L241.08,70.38 L240.38,69.17 L67.31,49.24 L66.87,49.76 L67.15,50.97 L66.55,51.68 L52.25,129.52 L52.68,129.96 L54.01,129.31 L54.74,129.32 "/><path d="M53.27,128.29 L53.35,128.04 L53.27,128.29 "/><path d="M55.10,118.16 L55.20,117.94 L55.10,118.16 "/><path d="M57.55,105.19 L57.45,105.40 L57.55,105.19 "/><path d="M59.84,92.58 L59.92,92.32 L59.84,92.58 "/><path d="M62.19,79.82 L62.27,79.56 L62.19,79.82 "/><path d="M63.79,122.17 L64.15,122.46 L64.49,122.16 L64.06,121.94 L63.79,122.17 "/><path d="M65.00,118.15 L64.70,118.12 L64.74,117.70 L65.20,117.72 L65.00,118.15 "/><path d="M64.53,67.07 L64.62,66.81 L64.53,67.07 "/><path d="M65.96,113.42 L65.85,113.85 L65.40,113.76 L65.96,113.42 "/><path d="M66.88,54.31 L66.97,54.05 L66.88,54.31 "/><path d="M75.02,123.53 L75.69,123.56 L75.42,123.22 L75.02,123.53 "/><path d="M75.82,119.18 L76.21,118.93 L76.48,119.27 L76.05,119.46 L75.82,119.18 "/><path d="M76.61,114.89 L77.00,114.65 L77.27,114.98 L76.84,115.17 L76.61,114.89 "/><path d="M135.58,127.12 L136.05,127.60 L145.41,128.56 L145.77,128.02 L146.82,121.42 L145.70,121.08 L145.52,119.58 L144.92,119.05 L140.17,118.44 L139.32,118.58 L138.38,120.14 L136.82,120.53 L135.58,127.12 "/><path d="M205.02,138.16 L204.56,138.15 L204.52,138.56 L204.98,138.51 L205.02,138.16 "/><path d="M205.46,133.81 L205.89,133.98 L205.55,134.32 L205.19,134.04 L205.46,133.81 "/><path d="M205.98,129.76 L206.34,130.04 L206.68,129.74 L206.25,129.52 L205.98,129.76 "/><path d="M215.70,139.52 L215.87,139.90 L216.30,139.71 L216.03,139.37 L215.70,139.52 "/><path d="M216.94,135.11 L217.01,135.52 L216.54,135.57 L216.58,135.15 L216.94,135.11 "/><path d="M217.28,130.94 L217.91,130.98 L217.57,131.33 L217.28,130.94 "/><path d="M224.80,148.28 L224.68,147.50 L224.80,148.28 "/><path d="M226.52,137.85 L226.56,137.29 L226.76,138.05 L226.52,137.85 "/><path d="M228.82,124.79 L229.03,125.32 L229.08,124.71 L228.90,124.54 L228.82,124.79 "/><path d="M231.28,112.47 L231.19,111.89 L231.51,112.26 L231.28,112.47 "/><path d="M233.51,99.28 L233.72,99.81 L233.78,99.20 L233.60,99.02 L233.51,99.28 "/><path d="M236.07,87.06 L235.94,86.27 L236.07,87.06 "/><path d="M238.42,74.30 L238.27,73.56 L238.42,74.30 "/></g></g><g id="Actor_.12"><g style="stroke:#000000;stroke-width:0.176"><path d="M96.14,129.25 C96.03,129.34 96.03,129.34 95.92,129.43 C95.78,129.49 95.78,129.49 95.64,129.54 C95.49,129.55 95.49,129.55 95.34,129.56 C95.20,129.53 95.20,129.53 95.06,129.49 "/><path d="M94.94,128.35 C95.00,128.29 95.00,128.28 95.07,128.22 C95.14,128.17 95.14,128.17 95.23,128.13 C95.32,128.11 95.32,128.11 95.41,128.09 C95.50,128.09 95.50,128.09 95.59,128.10 C95.68,128.13 95.68,128.13 95.76,128.17 "/><path d="M95.86,128.92 C95.79,128.98 95.79,128.98 95.71,129.03 C95.63,129.07 95.63,129.07 95.54,129.10 C95.45,129.11 95.45,129.11 95.35,129.11 C95.27,129.09 95.26,129.09 95.18,129.07 "/><path d="M95.60,128.38 C95.56,128.36 95.56,128.36 95.51,128.34 C95.47,128.33 95.47,128.33 95.42,128.33 C95.37,128.34 95.37,128.34 95.32,128.35 C95.28,128.38 95.28,128.38 95.24,128.40 C95.20,128.43 95.20,128.44 95.17,128.47 "/><path d="M95.23,128.47 C95.26,128.45 95.26,128.45 95.30,128.42 C95.34,128.40 95.34,128.40 95.38,128.39 C95.42,128.38 95.42,128.38 95.47,128.38 C95.51,128.39 95.51,128.39 95.55,128.40 "/><path d="M95.18,129.53 L95.35,129.57 L95.64,129.55 L95.91,129.44 L96.04,129.34 "/><path d="M95.03,128.98 L94.92,128.84 L94.87,128.68 L94.88,128.51 L94.94,128.35 "/><path d="M95.76,128.17 L95.89,128.29 L95.97,128.44 L95.99,128.60 L95.97,128.69 L95.95,128.77 L95.86,128.92 "/><path d="M95.18,129.07 L95.03,128.98 "/><path d="M95.72,128.58 L95.72,128.60 L95.70,128.69 L95.65,128.77 L95.58,128.83 L95.53,128.85 L95.60,128.80 L95.66,128.74 L95.69,128.67 L95.70,128.59 L95.67,128.51 L95.62,128.45 L95.65,128.47 L95.71,128.54 L95.72,128.58 L95.71,128.51 L95.67,128.44 L95.60,128.38 "/><path d="M95.17,128.47 L95.14,128.55 L95.13,128.64 L95.15,128.70 L95.15,128.67 L95.17,128.58 L95.19,128.54 L95.17,128.62 L95.18,128.70 L95.22,128.77 L95.24,128.80 L95.28,128.83 L95.36,128.86 L95.44,128.87 L95.39,128.87 L95.30,128.85 L95.22,128.80 L95.16,128.73 L95.15,128.70 "/><path d="M95.19,128.54 L95.23,128.47 "/><path d="M95.55,128.40 L95.62,128.45 "/><path d="M95.53,128.85 L95.49,128.86 L95.44,128.87 L95.53,128.85 "/><path d="M95.44,128.87 L95.44,128.87 "/></g><g style="stroke:#000000;stroke-width:0.529"><path d="M95.99,128.05 C95.86,127.99 95.85,127.99 95.72,127.94 C95.57,127.93 95.57,127.93 95.43,127.92 C95.28,127.95 95.28,127.95 95.13,127.98 C95.00,128.05 95.00,128.05 94.88,128.13 C94.78,128.23 94.78,128.23 94.68,128.34 "/><path d="M96.04,129.34 L96.13,129.26 L96.30,129.01 L96.36,128.74 L96.32,128.48 L96.20,128.24 L95.99,128.05 "/><path d="M94.68,128.34 L94.57,128.60 L94.56,128.87 L94.64,129.13 L94.82,129.34 L95.07,129.50 L95.18,129.53 "/></g></g><g id="Actor_.13"><g style="stroke:#000000;stroke-width:0.176"><path d="M59.76,124.33 C59.82,124.26 59.82,124.26 59.88,124.19 C59.95,124.14 59.96,124.14 60.03,124.09 C60.12,124.07 60.13,124.07 60.22,124.05 C60.31,124.05 60.31,124.05 60.40,124.06 C60.49,124.09 60.49,124.09 60.57,124.12 "/><path d="M60.70,124.86 C60.63,124.92 60.63,124.93 60.56,124.98 C60.47,125.02 60.47,125.02 60.39,125.05 C60.29,125.07 60.29,125.07 60.20,125.07 C60.11,125.06 60.11,125.06 60.02,125.04 "/><path d="M60.42,124.33 C60.38,124.31 60.38,124.31 60.33,124.30 C60.28,124.29 60.28,124.29 60.23,124.29 C60.19,124.30 60.19,124.30 60.14,124.32 C60.10,124.34 60.10,124.34 60.06,124.37 C60.03,124.40 60.02,124.40 60.00,124.44 "/><path d="M60.05,124.44 C60.08,124.41 60.08,124.41 60.12,124.38 C60.16,124.37 60.16,124.37 60.20,124.35 C60.24,124.34 60.24,124.34 60.29,124.34 "/><path d="M59.87,124.95 L59.75,124.82 L59.70,124.65 L59.70,124.49 L59.76,124.33 "/><path d="M60.57,124.12 L60.70,124.23 L60.79,124.38 L60.82,124.54 L60.79,124.71 L60.70,124.86 "/><path d="M60.02,125.04 L59.87,124.95 "/><path d="M59.66,125.32 L59.91,125.46 L60.20,125.52 L60.49,125.49 L60.52,125.48 L60.77,125.37 L60.99,125.18 "/><path d="M60.55,124.54 L60.55,124.55 L60.53,124.64 L60.49,124.72 L60.41,124.78 L60.36,124.80 L60.44,124.76 L60.49,124.69 L60.52,124.62 L60.52,124.54 L60.50,124.46 L60.44,124.40 L60.47,124.43 L60.53,124.50 L60.55,124.54 L60.54,124.46 L60.49,124.39 L60.42,124.33 "/><path d="M60.00,124.44 L59.96,124.52 L59.96,124.61 L59.98,124.65 L59.97,124.64 L59.99,124.55 L60.01,124.51 L59.99,124.59 L60.00,124.65 L60.01,124.67 L60.05,124.74 L60.08,124.77 L60.11,124.79 L60.19,124.82 L60.28,124.82 L60.23,124.83 L60.13,124.81 L60.05,124.76 L59.99,124.69 L59.98,124.65 "/><path d="M60.28,124.82 L60.36,124.80 L60.32,124.82 L60.28,124.82 "/><path d="M60.36,124.80 L60.36,124.80 "/><path d="M60.87,125.30 L60.76,125.38 L60.50,125.50 L60.21,125.53 L60.01,125.49 "/><path d="M60.01,124.51 L60.05,124.44 "/><path d="M60.29,124.34 L60.31,124.35 L60.37,124.36 L60.44,124.40 "/></g><g style="stroke:#000000;stroke-width:0.529"><path d="M59.50,124.33 C59.59,124.22 59.59,124.21 59.68,124.11 C59.80,124.03 59.81,124.03 59.93,123.95 C60.08,123.91 60.08,123.91 60.22,123.88 C60.37,123.88 60.37,123.88 60.52,123.89 C60.65,123.94 60.66,123.94 60.79,124.00 "/><path d="M60.01,125.49 L59.93,125.47 L59.66,125.32 L59.48,125.11 L59.39,124.86 L59.40,124.59 L59.50,124.33 "/><path d="M60.79,124.00 L61.00,124.17 L61.14,124.41 L61.19,124.67 L61.13,124.94 L60.98,125.20 L60.87,125.30 "/></g></g><g id="paperID" visibility="hidden" opacity="0.00" transform="scale(0.000100)"><path style="stroke:#000000;stroke-width:0.500;fill:#e6e6e6;fill-rule:evenodd" d="M-2000.00,-2000.00L2297.00,-2000.00L2297.00,2210.00L-2000.00,2210.00zM0.00,0.00L297.00,0.00L297.00,210.00L0.00,210.00z"/><path style="fill:#000000;fill-opacity:0.118" d="M3.00,210.00L297.00,210.00L297.00,3.00L300.00,3.00L300.00,213.00L3.00,213.00z"/></g><g id="ToolTip" visibility="hidden" opacity="0" transform="translate(0,0)"><rect id="ToolTipShadow" opacity="0.20" fill="black" stroke="none" x="0" y="0" width="30" height="8"/><rect id="ToolTipBG" fill="#ffffe1" stroke="black" x="0" y="0" width="30" height="8"/><text xml:space="preserve" id="ToolTipText" fill="black" x="0" y="0" width="30" height="8">tooltip</text></g></g></svg>
