<?xml version="1.0" encoding="UTF-8" standalone="no"?>
<svg xmlns="http://www.w3.org/2000/svg" xmlns:xlink="http://www.w3.org/1999/xlink" width="297.000mm" height="210.000mm" viewBox="0.000000 0.000000 297.000000 210.000000" stroke-linejoin="round" stroke-linecap="round" fill="none" fill-rule="evenodd"><desc>Composer Export</desc><script type="text/ecmascript"><![CDATA[
if(typeof(top) != "undefined")
{
	top.ShowPaper = ShowPaper;
}
function ShowHotSpot(evt,hotspotid)
{
	var svgDocument = evt.target.ownerDocument;
	var strId = "hotspot."+hotspotid;
	var hotspot = svgDocument.getElementById(strId);
	if(hotspot)
		hotspot.setAttribute("opacity",".5");
}
function HideHotSpot(evt,hotspotid)
{
	var svgDocument = evt.target.ownerDocument;
	var strId = "hotspot."+hotspotid;
	var hotspot = svgDocument.getElementById(strId);
	if(hotspot)
		hotspot.setAttribute("opacity","0");

	var toolTip = svgDocument.getElementById('ToolTip');
	if(toolTip)
		toolTip.setAttribute("visibility","hidden");
}
function ShowToolTip(evt,hotspotid,strTooltip)
{
	if(strTooltip=="")
	return;

	// change text
	var svgDocument = evt.target.ownerDocument;
	var tiptext = svgDocument.getElementById('ToolTipText');
	if( !tiptext )
	return;
	tiptext.firstChild.nodeValue = " " + strTooltip + "  " ;

	// show tooltip before, else some refresh issue

	var toolTip = svgDocument.getElementById('ToolTip');
	if(!toolTip)
	return;

	toolTip.setAttribute("visibility","visible");
	toolTip.setAttribute("opacity",".95");

	// move tooltip
	// get viewbox

	var root = svgDocument.documentElement;
	var vbox = (root.getAttribute("viewBox")).split(' ');
	var x0 = parseFloat(vbox[0]);
	var y0 = parseFloat(vbox[1]);
	var vboxW = parseFloat(vbox[2]);
	var vboxH = parseFloat(vbox[3]);

	// get default width of svg

	var strW = root.getAttribute("width");
	var svgW = parseFloat(strW);
	if(strW.indexOf('mm') != -1)
	svgW *= 3.779;

	var strH = root.getAttribute("height");
	var svgH = parseFloat(strH);
	if(strH.indexOf('mm') != -1)
	svgH *= 3.779;  	// 96 dpi  -> 96/25.4 = 3.779

	// update the viewbox / width / height if svg is embedded in html with zoom fit all
	var realx0 = x0;
	var realy0 = y0;
	var realvboxW = vboxW;
	var realvboxH = vboxH;
	var realsvgW = svgW;
	var realsvgH = svgH;

	if ((typeof(top) == "undefined") || (typeof(top.svgctl1) != "undefined")) // embedded in html
	{
		// get window size in pxl

		svgW = window.innerWidth;
		svgH = window.innerHeight;

		// calculate real viewbox

		realsvgW = svgW;
		realsvgH = svgH;
		if((svgW / svgH) > (vboxW / vboxH))
		{
			realvboxW = (vboxH * svgW) / svgH;
			realvboxH = vboxH;
			realx0 = x0 - (realvboxW - vboxW)/2 ;
		}
		else
		{
			realvboxH = (vboxW * svgH) / svgW;
			realvboxW = vboxW;
			realy0 = y0 - (realvboxH - vboxH)/2 ;
		}
	}

	// get user zoom/pan

	var newScale = root.currentScale;
	var translation = root.currentTranslate;

	// transform pxl to user unit

	var xPos = (((evt.clientX+10- translation.x)/newScale) * realvboxW)/realsvgW  + realx0 ;
	var yPos = (((evt.clientY+5- translation.y)/newScale) * realvboxH)/ realsvgH  + realy0 ;
	var scaleForWidth = ( (1 / newScale) * realvboxH) / realsvgH;

	// move tooltip

	toolTip.setAttribute("transform", "translate(" + xPos + "," + yPos + ")" );

	// resize tooltip

	var fontsize = 12;
	tiptext.setAttribute("font-size",fontsize*scaleForWidth);
	tiptext.setAttribute("y", fontsize*scaleForWidth);
	var tipBG = svgDocument.getElementById('ToolTipBG');
	var outline = tiptext.getBBox();
	if(tipBG)
	{
		tipBG.setAttribute("stroke-width", 1*scaleForWidth);
		tipBG.setAttribute("width", Number(outline.width) );
		tipBG.setAttribute("height", Number(outline.height) + fontsize*.5*scaleForWidth );
	}
	var ToolTipShadow = svgDocument.getElementById('ToolTipShadow');
	if(ToolTipShadow)
	{
		ToolTipShadow.setAttribute("width", Number(outline.width) );
		ToolTipShadow.setAttribute("height", Number(outline.height) + fontsize*.5*scaleForWidth );
		ToolTipShadow.setAttribute("x", 3*scaleForWidth);
		ToolTipShadow.setAttribute("y", 3*scaleForWidth);
	}
}
function ShowPaper()
{
  var svgDocument = getDocument();
  var paper = svgDocument.getElementById("paperID");
  if(paper)
  {
    paper.setAttribute("transform","scale(1)");
    paper.setAttribute("opacity","1");
    paper.setAttribute("visibility","visible");
  }
  var svg = svgDocument.getRootElement();
  if(svg)
  {
    svg.setAttribute("width","307.000mm");
    svg.setAttribute("height","220.000mm");
    svg.setAttribute("viewBox","-5.000000 -5.000000 307.000000 220.000000");
  }
}
]]></script><defs/><g><path style="fill:#ffffff" d="M296.92,210.05L0.08,210.05L0.08,0.08L296.92,0.08z"/><path style="fill:#e5e5e5" d="M187.99,59.37L189.09,60.75L189.92,62.96L190.06,64.52L190.07,67.57L189.80,69.79L189.07,72.43L189.08,73.43L189.90,74.23L188.64,87.88L187.79,88.18L184.20,88.73L174.09,94.95L173.07,96.96L173.12,98.87L172.71,98.85L161.70,105.72L157.53,108.45L158.20,109.04L156.82,109.01L156.00,108.19L155.69,107.37L155.19,107.41L154.78,107.09L135.49,119.22L134.53,120.80L134.34,121.62L134.49,122.88L133.94,123.18L120.03,131.90L119.03,131.93L117.95,131.34L110.58,129.95L109.66,129.70L109.09,128.90L109.09,126.74L113.74,119.80L117.27,117.27L117.94,115.74L119.50,104.61L120.30,102.92L121.17,101.86L121.59,101.52L122.18,101.41L123.16,101.87L123.46,102.39L126.19,110.69L126.74,111.27L127.58,111.05L142.10,101.84L144.00,97.95L144.83,97.34L145.61,97.27L146.10,97.43L146.81,98.36L147.93,98.29L170.78,83.91L182.21,61.98L184.30,59.65L186.60,58.80z"/><path style="fill:#e5e5e5" d="M202.63,78.93L202.62,81.89L202.06,88.17L201.12,89.43L200.21,89.64L201.22,87.61L201.78,79.78L201.42,78.65L202.35,78.65z"/><path style="fill:#e5e5e5" d="M120.03,133.46L120.02,136.79L119.35,154.42L119.20,155.55L118.97,156.21L117.92,157.10L117.90,156.56L118.23,156.00L119.04,139.44L118.94,132.75L119.61,132.48z"/><path style="fill:#e5e5e5" d="M112.47,150.85L112.33,150.93L112.48,152.51L112.72,152.88L111.88,153.23L111.57,152.92L111.60,150.76L112.35,150.06L112.71,150.09z"/><path style="fill:#ffffff" d="M123.57,116.95L123.71,117.67L123.88,117.22L124.86,117.26L125.14,117.54L125.39,120.13L124.75,122.82L123.72,124.83L122.56,125.86L121.17,125.91L120.44,125.27L119.85,123.65L119.85,120.12L120.69,117.66L122.05,115.97L122.91,115.87z"/><path style="fill:#00001c" d="M135.95,128.18L134.83,128.03L135.95,127.95z"/><path style="fill:#000020" d="M184.53,66.20L184.82,65.68L185.11,66.16L184.67,66.32z"/><path style="fill:#000020" d="M190.07,67.57L190.06,64.52L190.18,64.62z"/><path style="fill:#000020" d="M184.12,70.11L183.94,70.38L183.70,69.79z"/><path style="fill:#000020" d="M187.79,88.18L188.64,87.88L189.11,88.09z"/><path style="fill:#000020" d="M200.07,89.81L199.45,89.72L200.21,89.64z"/><path style="fill:#000020" d="M145.61,97.27L144.83,97.34L144.90,97.17z"/><path style="fill:#000020" d="M122.18,101.41L121.59,101.52L121.45,101.27z"/><path style="fill:#000020" d="M143.91,102.87L143.74,102.31L144.11,102.38z"/><path style="fill:#000020" d="M120.51,106.95L120.35,106.89L120.44,105.60z"/><path style="fill:#000020" d="M166.27,108.46L167.11,108.31L168.15,108.47z"/><path style="fill:#000020" d="M168.01,112.33L169.34,112.19L169.61,112.31z"/><path style="fill:#000020" d="M123.88,117.22L123.71,117.67L123.57,116.95z"/><path style="fill:#000020" d="M135.95,128.18L135.95,127.95L136.99,128.05z"/><path style="fill:#000020" d="M128.23,132.72L128.82,132.59L128.97,132.75z"/><path style="fill:#000020" d="M120.02,136.79L120.03,133.46L120.14,133.55z"/><path style="fill:#000020" d="M112.48,152.51L112.33,150.93L112.47,150.85z"/><path style="fill:#e5e5e5" d="M193.75,82.64L194.19,81.40L194.79,80.86L195.41,80.86L194.85,81.79L194.80,84.21L194.05,84.23z"/><path style="fill:#e5e5e5" d="M172.86,103.72L172.70,102.98L174.50,102.41L174.48,103.89z"/><path style="fill:#e5e5e5" d="M165.35,107.75L166.39,107.05L167.02,107.06L167.11,108.31L166.27,108.46L165.34,108.18z"/><path style="fill:#e5e5e5" d="M183.20,104.33L171.16,111.87L169.61,112.31L169.34,112.19L169.49,110.75L171.35,110.13L183.03,102.77L183.30,102.11z"/><path style="fill:#e5e5e5" d="M144.95,127.75L144.58,128.58L132.20,136.33L131.09,136.42L130.86,136.08L130.80,134.95L132.86,134.24L144.70,126.97z"/><path style="fill:#e5e5e5" d="M135.95,127.95L134.83,128.03L134.09,127.85L134.19,127.03L135.24,126.64L135.85,126.64z"/><path style="fill:#e5e5e5" d="M128.82,132.59L128.23,132.72L127.02,132.47L126.93,131.65L127.48,131.33L128.40,131.35z"/><path style="fill:#ffffff" d="M186.32,66.56L186.33,68.85L185.41,70.69L184.11,70.70L183.94,70.38L184.12,70.11L183.70,69.79L183.83,67.73L184.53,66.20L184.67,66.32L185.11,66.16z"/><path style="fill:#ffffff" d="M145.79,99.92L145.79,101.95L145.14,103.24L144.13,103.25L143.91,102.87L144.11,102.38L143.74,102.31L144.03,100.19L144.69,99.66z"/><path style="fill:#ffffff" d="M122.62,104.34L122.64,106.37L122.09,107.47L121.43,107.96L120.97,107.93L120.51,106.95L120.44,105.60L120.90,104.35L121.42,104.02z"/><g id="Actor_.0"><g style="stroke:#000000;stroke-width:0.176"><path d="M119.27,105.52 C119.43,104.79 119.43,104.79 119.61,104.07 C119.88,103.42 119.88,103.42 120.17,102.79 C120.52,102.31 120.52,102.31 120.90,101.85 "/><path d="M124.38,115.82 C124.70,116.33 124.70,116.34 124.99,116.87 C125.16,117.54 125.16,117.54 125.30,118.22 C125.33,119.11 125.34,119.12 125.34,120.01 C125.21,120.89 125.21,120.89 125.05,121.76 C124.77,122.57 124.77,122.58 124.47,123.38 C124.09,124.04 124.09,124.05 123.68,124.69 C123.23,125.13 123.23,125.14 122.75,125.55 "/><path d="M144.57,97.32 C144.22,97.63 144.21,97.63 143.88,97.96 C143.58,98.43 143.58,98.43 143.29,98.92 C142.92,99.90 142.92,99.91 142.58,100.90 "/><path d="M128.94,134.70 C129.74,134.76 129.75,134.76 130.55,134.77 C131.60,134.51 131.63,134.53 132.66,134.20 C138.49,130.61 138.51,130.60 144.28,126.91 "/><path d="M165.43,107.34 C165.91,107.10 165.92,107.10 166.41,106.89 C166.93,106.80 166.93,106.80 167.45,106.74 C168.01,106.75 168.01,106.74 168.57,106.77 C169.07,106.92 169.08,106.92 169.57,107.11 "/><path d="M106.74,140.35 L107.21,128.69 "/><path d="M107.24,127.93 L107.74,128.91 L108.86,129.94 L108.41,141.48 "/><path d="M107.83,126.14 L109.19,126.39 L109.10,128.67 L108.85,127.36 L109.16,126.46 L113.49,119.92 L112.13,119.67 "/><path d="M109.10,128.67 L109.73,129.66 L108.86,129.94 L117.71,131.70 L118.81,132.86 L119.18,134.48 L120.05,134.20 L120.04,134.54 "/><path d="M109.73,129.66 L116.33,130.88 "/><path d="M113.06,149.66 L111.91,150.13 L111.54,150.67 L111.38,152.08 L111.61,152.79 L112.01,153.40 L113.16,154.08 L114.38,153.80 "/><path d="M112.73,119.05 L114.09,119.30 L113.49,119.92 "/><path d="M114.09,119.30 L116.70,117.66 L115.34,117.41 "/><path d="M116.71,157.14 L117.88,156.40 L118.38,154.94 L119.25,154.66 "/><path d="M117.02,131.44 L117.89,131.16 L116.37,130.88 "/><path d="M117.73,131.13 L117.28,130.69 L116.35,130.86 "/><path d="M116.70,117.66 L117.50,116.69 L117.96,115.17 L119.26,105.58 L117.91,105.27 "/><path d="M116.60,114.92 L117.96,115.17 "/><path d="M118.19,131.27 L134.33,121.15 "/><path d="M117.89,131.16 L119.20,131.91 L119.97,133.35 L120.05,134.20 "/><path d="M118.38,154.94 L119.18,134.48 "/><path d="M120.90,101.85 L121.70,101.34 L122.49,101.34 "/><path d="M129.03,136.20 L128.94,134.70 L119.85,133.04 "/><path d="M120.52,107.21 L121.26,107.80 L121.67,107.66 L122.40,106.74 L122.64,106.05 L122.76,104.59 L122.36,103.53 L121.61,103.31 L121.19,103.59 "/><path d="M120.87,134.70 L120.78,133.19 L135.31,124.08 "/><path d="M122.63,115.31 L123.56,115.28 L124.38,115.82 "/><path d="M122.75,125.55 L121.82,125.87 L120.80,125.50 "/><path d="M145.28,97.08 L144.57,97.32 "/><path d="M142.58,100.90 L141.73,101.96 L127.44,110.92 L126.27,110.71 "/><path d="M127.44,110.92 L126.58,111.00 L126.20,110.60 "/><path d="M128.07,132.56 L126.76,132.08 L126.87,131.53 L127.77,131.10 L129.30,130.91 L131.01,131.30 L131.14,131.83 L129.90,132.45 "/><path d="M144.28,126.91 L144.37,128.41 "/><path d="M132.75,135.70 L132.66,134.20 "/><path d="M135.34,128.00 L134.03,127.52 L134.13,126.97 L135.12,126.52 L136.57,126.35 L138.27,126.74 L138.41,127.27 L137.16,127.89 "/><path d="M140.38,101.71 L141.73,101.96 "/><path d="M141.50,99.86 L142.86,100.11 "/><path d="M144.43,99.25 L144.99,98.92 L145.43,99.00 L145.73,99.33 L145.94,101.22 L145.11,102.98 L144.34,103.24 L143.80,102.67 "/><path d="M144.70,126.29 L144.28,126.91 "/><path d="M146.50,97.87 L147.27,98.35 L147.75,98.19 L146.60,97.98 "/><path d="M147.75,98.19 L170.44,83.95 L169.08,83.70 "/><path d="M155.08,106.96 L156.44,107.22 L155.10,107.01 "/><path d="M156.44,107.22 L155.84,106.50 L154.91,106.67 "/><path d="M172.89,96.96 L156.46,107.26 L157.43,108.40 L158.24,108.82 L159.34,109.00 L159.44,110.51 "/><path d="M167.59,112.01 L167.50,110.51 L159.46,109.03 L173.87,99.89 "/><path d="M166.63,108.37 L165.34,107.90 L165.43,107.34 "/><path d="M169.57,107.11 L169.70,107.64 L168.46,108.26 "/><path d="M167.50,110.51 L169.93,110.47 L171.22,110.01 L171.31,111.51 "/><path d="M170.44,83.95 L171.23,83.00 L169.87,82.75 "/><path d="M171.22,110.01 L182.84,102.72 L183.26,102.10 "/><path d="M171.23,83.00 L181.70,62.65 L180.36,62.37 "/><path d="M173.90,103.81 L172.58,103.33 L172.69,102.78 L174.38,102.20 L175.83,102.21 L176.83,102.55 L176.97,103.09 L175.72,103.70 "/><path d="M181.72,62.62 L183.17,60.44 L184.74,59.17 L186.51,58.74 "/><path d="M182.93,104.22 L182.84,102.72 "/><path d="M184.76,65.58 L185.59,65.36 L186.30,66.13 L186.49,66.91 L186.35,68.66 L186.06,69.49 L185.18,70.60 L184.69,70.76 L183.91,70.27 "/><path d="M187.60,87.92 L188.88,73.04 "/><path d="M190.56,88.07 L191.62,75.83 L189.89,74.12 "/><path d="M192.49,75.69 L191.62,75.83 L199.78,77.33 L200.64,77.19 "/><path d="M195.74,80.56 L195.19,80.56 L194.19,81.22 L193.83,81.90 L193.80,83.36 L194.55,84.58 L195.12,84.92 L195.75,85.04 L196.42,84.87 "/><path d="M199.43,89.57 L200.64,88.81 L201.01,88.18 L201.81,80.40 L201.56,78.90 L201.06,78.09 L199.78,77.33 "/><path d="M201.21,87.33 L202.08,87.19 "/><path d="M201.81,80.40 L202.68,80.26 "/></g><g style="stroke:#000000;stroke-width:0.529"><path d="M156.34,109.06 C156.92,109.52 156.93,109.53 157.53,109.96 C158.17,110.21 158.17,110.21 158.82,110.43 C163.20,111.24 163.20,111.24 167.59,112.01 C168.39,112.06 168.40,112.07 169.20,112.08 C170.26,111.82 170.28,111.85 171.31,111.51 C177.14,107.92 177.16,107.91 182.93,104.22 "/><path d="M183.85,88.52 C185.72,88.20 185.72,88.20 187.60,87.92 C188.43,87.89 188.44,87.89 189.28,87.91 C194.00,88.71 194.00,88.77 198.72,89.57 C199.50,89.53 199.52,89.53 200.30,89.43 "/><path d="M201.51,88.67 C201.82,87.95 201.83,87.94 202.08,87.19 C202.41,83.74 202.41,83.73 202.68,80.26 C202.56,79.45 202.56,79.43 202.38,78.62 "/><path d="M188.81,72.48 C189.31,70.94 189.31,70.94 189.76,69.38 C189.97,67.85 189.97,67.84 190.13,66.30 C190.06,64.85 190.07,64.84 189.94,63.40 C189.61,62.20 189.61,62.19 189.22,61.01 "/><path d="M183.47,58.85 C182.63,59.49 182.61,59.50 181.81,60.19 C181.06,61.25 181.06,61.27 180.36,62.37 C175.09,72.55 175.14,72.57 169.87,82.75 C169.50,83.24 169.49,83.24 169.08,83.70 "/><path d="M143.21,97.07 C142.86,97.38 142.86,97.38 142.52,97.71 C142.23,98.15 142.23,98.16 141.97,98.62 C141.58,99.63 141.58,99.63 141.22,100.65 "/><path d="M119.54,101.60 C119.16,102.06 119.16,102.06 118.81,102.54 C118.52,103.17 118.52,103.17 118.25,103.82 C118.07,104.54 118.07,104.54 117.91,105.27 C117.25,110.06 117.28,110.07 116.61,114.86 C116.40,115.66 116.40,115.66 116.14,116.44 "/><path d="M121.39,125.30 C121.87,124.89 121.87,124.88 122.32,124.44 C122.73,123.80 122.73,123.79 123.11,123.13 C123.42,122.33 123.42,122.32 123.69,121.51 C123.85,120.64 123.85,120.64 123.98,119.76 C123.99,118.92 123.99,118.91 123.96,118.07 C123.81,117.34 123.81,117.34 123.63,116.62 C123.34,116.09 123.34,116.08 123.02,115.57 "/><path d="M121.67,115.91 C121.22,116.45 121.22,116.46 120.80,117.02 C120.44,117.75 120.44,117.75 120.11,118.50 C119.87,119.35 119.87,119.35 119.67,120.21 C119.59,121.01 119.58,121.02 119.54,121.82 C119.71,122.98 119.71,122.99 119.93,124.14 "/><path d="M120.04,134.54 L129.03,136.20 L131.46,136.16 L132.66,135.75 L144.37,128.41 L144.79,127.80 L144.70,126.29 L144.10,125.75 L135.31,124.08 L134.94,123.75 L134.29,122.26 L134.33,121.15 L134.81,119.69 L135.57,118.81 L154.81,106.74 L156.34,109.06 "/><path d="M182.93,104.22 L183.35,103.61 L183.08,101.81 L182.14,101.42 L173.87,99.89 L173.08,98.89 L172.85,97.16 L173.37,95.50 L174.13,94.62 L183.85,88.52 "/><path d="M200.30,89.43 L201.51,88.67 "/><path d="M202.38,78.62 L201.93,77.95 L200.71,77.22 L192.59,75.71 L189.92,74.14 L188.93,73.09 L188.81,72.48 "/><path d="M189.22,61.01 L188.03,59.40 L186.51,58.74 L185.15,58.49 L183.47,58.85 "/><path d="M169.08,83.70 L146.50,97.87 L145.94,97.26 L145.28,97.08 L143.92,96.83 L143.21,97.07 "/><path d="M141.22,100.65 L140.37,101.71 L126.20,110.60 L123.64,102.78 L123.16,101.84 L122.49,101.34 L121.13,101.09 L120.34,101.09 L119.54,101.60 "/><path d="M116.14,116.44 L115.34,117.41 L112.42,119.31 L107.28,127.01 L106.69,140.25 L106.88,140.69 L108.41,141.48 L107.95,153.02 L108.33,154.64 L109.42,155.80 L116.71,157.14 L118.18,156.63 L119.10,155.47 L120.04,134.54 "/><path d="M112.48,152.51 L112.26,151.80 L112.41,150.39 L113.04,149.67 L113.65,149.76 L114.23,150.11 L115.02,151.31 L115.07,152.76 L114.38,153.80 L114.04,153.80 L112.92,153.15 L112.48,152.51 "/><path d="M116.33,130.88 L116.37,130.88 "/><path d="M116.33,130.88 L116.37,130.88 "/><path d="M119.93,124.14 L120.18,124.81 L120.80,125.50 L121.39,125.30 "/><path d="M123.02,115.57 L122.63,115.31 L121.67,115.91 "/><path d="M120.37,106.74 L120.52,107.21 L121.28,105.80 L121.40,104.42 L121.19,103.59 L120.54,104.67 L120.37,106.74 "/><path d="M128.07,132.56 L129.90,132.45 L128.07,132.56 "/><path d="M135.74,127.93 L135.34,128.00 L137.16,127.89 L135.74,127.93 "/><path d="M143.76,102.58 L144.11,102.27 L144.58,100.96 L144.43,99.25 L143.73,100.58 L143.76,102.58 "/><path d="M166.63,108.37 L168.46,108.26 L166.63,108.37 "/><path d="M173.90,103.81 L175.72,103.70 L173.90,103.81 "/><path d="M183.64,69.61 L183.87,70.22 L184.29,69.91 L184.98,68.45 L185.13,66.66 L184.76,65.58 L183.83,67.00 L183.54,68.76 L183.64,69.61 "/><path d="M194.91,83.78 L194.58,82.48 L195.00,81.13 L195.74,80.56 L196.42,80.79 L197.32,81.86 L197.52,82.58 L197.29,84.00 L196.42,84.87 L195.41,84.44 L194.91,83.78 "/></g></g><g id="paperID" visibility="hidden" opacity="0.00" transform="scale(0.000100)"><path style="stroke:#000000;stroke-width:0.500;fill:#e6e6e6;fill-rule:evenodd" d="M-2000.00,-2000.00L2297.00,-2000.00L2297.00,2210.00L-2000.00,2210.00zM0.00,0.00L297.00,0.00L297.00,210.00L0.00,210.00z"/><path style="fill:#000000;fill-opacity:0.118" d="M3.00,210.00L297.00,210.00L297.00,3.00L300.00,3.00L300.00,213.00L3.00,213.00z"/></g><g id="ToolTip" visibility="hidden" opacity="0" transform="translate(0,0)"><rect id="ToolTipShadow" opacity="0.20" fill="black" stroke="none" x="0" y="0" width="30" height="8"/><rect id="ToolTipBG" fill="#ffffe1" stroke="black" x="0" y="0" width="30" height="8"/><text xml:space="preserve" id="ToolTipText" fill="black" x="0" y="0" width="30" height="8">tooltip</text></g></g></svg>
