<?xml version="1.0" encoding="UTF-8" standalone="no"?>
<svg xmlns="http://www.w3.org/2000/svg" xmlns:xlink="http://www.w3.org/1999/xlink" width="297.000mm" height="210.000mm" viewBox="0.000000 0.000000 297.000000 210.000000" stroke-linejoin="round" stroke-linecap="round" fill="none" fill-rule="evenodd"><desc>Composer Export</desc><script type="text/ecmascript"><![CDATA[
if(typeof(top) != "undefined")
{
	top.ShowPaper = ShowPaper;
}
function ShowHotSpot(evt,hotspotid)
{
	var svgDocument = evt.target.ownerDocument;
	var strId = "hotspot."+hotspotid;
	var hotspot = svgDocument.getElementById(strId);
	if(hotspot)
		hotspot.setAttribute("opacity",".5");
}
function HideHotSpot(evt,hotspotid)
{
	var svgDocument = evt.target.ownerDocument;
	var strId = "hotspot."+hotspotid;
	var hotspot = svgDocument.getElementById(strId);
	if(hotspot)
		hotspot.setAttribute("opacity","0");

	var toolTip = svgDocument.getElementById('ToolTip');
	if(toolTip)
		toolTip.setAttribute("visibility","hidden");
}
function ShowToolTip(evt,hotspotid,strTooltip)
{
	if(strTooltip=="")
	return;

	// change text
	var svgDocument = evt.target.ownerDocument;
	var tiptext = svgDocument.getElementById('ToolTipText');
	if( !tiptext )
	return;
	tiptext.firstChild.nodeValue = " " + strTooltip + "  " ;

	// show tooltip before, else some refresh issue

	var toolTip = svgDocument.getElementById('ToolTip');
	if(!toolTip)
	return;

	toolTip.setAttribute("visibility","visible");
	toolTip.setAttribute("opacity",".95");

	// move tooltip
	// get viewbox

	var root = svgDocument.documentElement;
	var vbox = (root.getAttribute("viewBox")).split(' ');
	var x0 = parseFloat(vbox[0]);
	var y0 = parseFloat(vbox[1]);
	var vboxW = parseFloat(vbox[2]);
	var vboxH = parseFloat(vbox[3]);

	// get default width of svg

	var strW = root.getAttribute("width");
	var svgW = parseFloat(strW);
	if(strW.indexOf('mm') != -1)
	svgW *= 3.779;

	var strH = root.getAttribute("height");
	var svgH = parseFloat(strH);
	if(strH.indexOf('mm') != -1)
	svgH *= 3.779;  	// 96 dpi  -> 96/25.4 = 3.779

	// update the viewbox / width / height if svg is embedded in html with zoom fit all
	var realx0 = x0;
	var realy0 = y0;
	var realvboxW = vboxW;
	var realvboxH = vboxH;
	var realsvgW = svgW;
	var realsvgH = svgH;

	if ((typeof(top) == "undefined") || (typeof(top.svgctl1) != "undefined")) // embedded in html
	{
		// get window size in pxl

		svgW = window.innerWidth;
		svgH = window.innerHeight;

		// calculate real viewbox

		realsvgW = svgW;
		realsvgH = svgH;
		if((svgW / svgH) > (vboxW / vboxH))
		{
			realvboxW = (vboxH * svgW) / svgH;
			realvboxH = vboxH;
			realx0 = x0 - (realvboxW - vboxW)/2 ;
		}
		else
		{
			realvboxH = (vboxW * svgH) / svgW;
			realvboxW = vboxW;
			realy0 = y0 - (realvboxH - vboxH)/2 ;
		}
	}

	// get user zoom/pan

	var newScale = root.currentScale;
	var translation = root.currentTranslate;

	// transform pxl to user unit

	var xPos = (((evt.clientX+10- translation.x)/newScale) * realvboxW)/realsvgW  + realx0 ;
	var yPos = (((evt.clientY+5- translation.y)/newScale) * realvboxH)/ realsvgH  + realy0 ;
	var scaleForWidth = ( (1 / newScale) * realvboxH) / realsvgH;

	// move tooltip

	toolTip.setAttribute("transform", "translate(" + xPos + "," + yPos + ")" );

	// resize tooltip

	var fontsize = 12;
	tiptext.setAttribute("font-size",fontsize*scaleForWidth);
	tiptext.setAttribute("y", fontsize*scaleForWidth);
	var tipBG = svgDocument.getElementById('ToolTipBG');
	var outline = tiptext.getBBox();
	if(tipBG)
	{
		tipBG.setAttribute("stroke-width", 1*scaleForWidth);
		tipBG.setAttribute("width", Number(outline.width) );
		tipBG.setAttribute("height", Number(outline.height) + fontsize*.5*scaleForWidth );
	}
	var ToolTipShadow = svgDocument.getElementById('ToolTipShadow');
	if(ToolTipShadow)
	{
		ToolTipShadow.setAttribute("width", Number(outline.width) );
		ToolTipShadow.setAttribute("height", Number(outline.height) + fontsize*.5*scaleForWidth );
		ToolTipShadow.setAttribute("x", 3*scaleForWidth);
		ToolTipShadow.setAttribute("y", 3*scaleForWidth);
	}
}
function ShowPaper()
{
  var svgDocument = getDocument();
  var paper = svgDocument.getElementById("paperID");
  if(paper)
  {
    paper.setAttribute("transform","scale(1)");
    paper.setAttribute("opacity","1");
    paper.setAttribute("visibility","visible");
  }
  var svg = svgDocument.getRootElement();
  if(svg)
  {
    svg.setAttribute("width","307.000mm");
    svg.setAttribute("height","220.000mm");
    svg.setAttribute("viewBox","-5.000000 -5.000000 307.000000 220.000000");
  }
}
]]></script><defs/><g><path style="fill:#ffffff" d="M296.92,210.05L0.08,210.05L0.08,0.08L296.92,0.08z"/><path style="fill:#171717" d="M22.27,52.41L22.54,53.57L25.38,57.88L12.19,92.50L12.62,93.22L12.18,93.24L10.12,91.92L7.63,91.09L7.38,89.91L7.35,88.89L7.23,88.79L7.25,87.44L7.60,87.32L9.00,82.63L20.49,52.48L21.64,51.10L22.06,50.99z"/><path style="fill:#1a1a1a" d="M29.71,53.58L30.31,54.28L30.19,54.39L30.72,55.61L31.16,55.64L31.44,55.78L31.51,56.53L30.40,62.05L26.66,72.44L26.05,73.20L25.56,75.20L23.89,79.59L23.18,81.10L22.84,80.79L22.44,80.55L21.71,81.88L21.46,85.49L21.30,86.32L20.06,90.43L20.07,94.87L20.69,95.46L20.91,98.73L21.24,99.23L18.38,98.82L14.95,98.17L12.86,94.70L12.64,94.04L12.62,93.22L12.19,92.50L25.38,57.88L25.63,57.82L25.83,57.81L25.87,57.10L26.09,54.21L26.82,53.29L27.85,53.27z"/><path style="fill:#ffffff" d="M22.84,80.79L22.49,81.22L22.39,81.90L22.38,82.72L22.25,82.93L21.97,86.23L21.61,87.24L20.86,89.80L20.76,91.76L20.94,91.90L21.49,92.06L22.89,92.32L24.45,92.73L24.88,93.20L24.88,97.08L24.74,99.48L24.50,99.86L22.88,99.62L21.24,99.23L20.91,98.73L20.85,95.51L20.69,95.46L20.07,94.87L20.06,90.43L21.30,86.32L21.46,85.49L21.71,81.88L22.44,80.55z"/><path style="fill:#000020" d="M21.49,92.06L20.94,91.90L21.46,91.57z"/><path style="fill:#1a1a1a" d="M269.33,97.72L275.28,99.02L275.15,99.19L272.53,99.06L272.12,99.54L272.12,102.04L273.02,102.63L274.32,102.95L274.30,104.14L274.05,104.79L273.62,107.00L272.36,110.50L270.55,110.24L270.44,110.12L269.41,110.25L269.22,110.39L267.38,115.16L267.29,116.81L267.49,116.86L269.75,117.25L269.24,118.13L268.79,120.16L266.84,125.09L266.61,126.33L266.11,125.39L266.00,125.24L265.49,125.36L264.94,127.11L264.20,127.17L263.16,127.20L262.85,127.45L260.76,132.54L260.76,133.57L261.09,133.74L261.22,133.91L263.57,134.32L263.58,134.74L262.90,136.05L261.34,136.05L259.77,135.72L259.01,135.74L258.58,136.14L258.59,142.41L258.70,142.61L257.47,142.66L25.83,100.20L24.50,99.86L24.74,99.48L24.88,97.08L25.01,93.29L24.88,93.20L24.45,92.73L22.89,92.32L21.49,92.06L21.46,91.57L21.86,90.02L25.00,90.54L26.95,90.62L27.06,90.27L28.87,85.68L28.86,84.20L27.31,83.77L25.28,83.38L25.04,83.01L25.03,81.61L28.23,73.16L31.89,73.72L33.20,73.72L33.35,73.40L33.83,72.71L35.50,68.29L35.51,67.65L34.95,67.09L31.43,66.41L31.37,65.92L31.37,65.07L33.42,59.61L34.26,58.84L34.42,58.75L35.29,59.08L37.51,59.52L38.29,59.26L38.53,58.94L38.51,56.07L36.86,55.52L34.53,55.15L33.99,54.58z"/><path style="fill:#ffffff" d="M264.62,127.50L264.73,128.49L263.97,128.61L263.92,129.02L264.08,129.47L264.65,129.56L264.81,129.36L264.96,128.52L264.94,127.11L265.49,125.36L266.00,125.24L266.11,125.39L265.82,126.30L265.20,130.90L263.81,135.58L262.64,136.61L262.43,137.51L262.32,142.57L262.18,143.18L261.43,143.35L260.59,143.18L258.70,142.61L258.59,142.41L258.58,136.14L259.01,135.74L259.77,135.72L261.34,136.05L262.90,136.05L263.58,134.74L263.57,134.32L263.01,133.82L261.58,133.54L261.09,133.74L260.76,133.57L260.76,132.54L262.85,127.45L263.16,127.20L264.20,127.17z"/><path style="fill:#e5e5e5" d="M277.21,96.52L277.37,98.16L277.20,99.28L277.07,103.61L275.67,106.62L274.57,109.94L271.68,117.53L268.77,124.82L268.08,127.38L266.85,130.63L266.40,131.27L266.57,129.11L266.23,129.10L266.07,129.32L265.89,130.14L265.78,130.44L265.67,131.75L265.82,131.76L266.40,131.27L265.66,133.57L264.90,135.01L264.64,136.69L263.84,139.18L263.35,139.59L262.62,139.63L262.59,139.81L262.32,142.57L262.43,137.51L262.64,136.61L263.81,135.58L265.20,130.90L265.82,126.30L266.05,127.04L266.01,126.41L265.82,126.30L266.11,125.39L266.61,126.33L266.85,126.50L269.35,120.16L269.90,117.96L270.98,115.73L274.29,106.63L276.15,98.00L276.85,96.30z"/><path style="fill:#171717" d="M18.38,98.82L21.24,99.23L22.88,99.62L24.50,99.86L25.83,100.20L257.47,142.66L258.70,142.61L260.59,143.18L261.43,143.35L262.18,143.18L262.35,143.58L266.57,144.32L268.55,144.50L268.43,144.87L267.21,145.00L15.35,98.82L14.95,98.17z"/><path style="fill:#1a1a1a" d="M283.96,100.18L284.61,100.66L284.41,100.98L284.78,101.56L285.04,105.26L285.33,104.50L286.73,100.86L287.99,99.60L288.45,99.61L288.38,99.99L287.25,101.38L275.58,131.91L274.59,135.89L274.29,136.36L274.03,136.34L273.88,137.03L274.05,138.17L274.23,139.63L272.54,139.89L271.70,140.45L271.41,140.92L268.55,144.50L266.57,144.32L262.35,143.58L262.18,143.18L262.32,142.57L262.59,139.81L263.35,139.59L263.84,139.18L264.64,136.69L264.90,135.01L265.66,133.57L266.40,131.27L266.85,130.63L268.08,127.38L268.77,124.82L271.68,117.53L274.57,109.94L275.67,106.62L277.07,103.61L277.20,99.28L277.43,99.22L278.20,99.28L278.19,100.11L278.05,100.83L278.25,100.87L278.52,100.89L278.98,101.06L280.27,101.02L281.08,99.90L282.11,99.88z"/><path style="fill:#ffffff" d="M36.86,55.52L38.51,56.07L38.53,58.94L38.29,59.26L37.51,59.52L35.29,59.08L34.42,58.75L34.53,55.15z"/><path style="fill:#ffffff" d="M275.15,99.19L275.28,99.02L276.26,96.40L276.39,96.20L276.85,96.30L276.15,98.00L274.29,106.63L270.98,115.73L269.90,117.96L269.35,120.16L266.85,126.50L266.61,126.33L266.84,125.09L268.79,120.16L269.24,118.13L269.75,117.25L269.90,116.99L268.49,116.74L267.49,116.86L267.29,116.81L267.38,115.16L269.22,110.39L269.41,110.25L270.55,110.24L272.36,110.50L273.62,107.00L274.05,104.79L274.30,104.14L274.32,102.95L273.02,102.63L272.12,102.04L272.12,99.54L272.53,99.06z"/><path style="fill:#e5e5e5" d="M33.99,54.58L34.53,55.15L34.42,58.75L34.26,58.84L33.42,59.61L31.37,65.07L31.37,65.92L31.43,66.41L31.27,66.57L29.11,72.15L29.13,72.98L32.92,73.47L33.35,73.40L33.20,73.72L31.89,73.72L28.23,73.16L25.03,81.61L24.89,83.03L22.40,89.72L25.27,90.27L27.06,90.27L26.95,90.62L25.00,90.54L21.86,90.02L21.46,91.57L20.94,91.90L20.76,91.76L20.86,89.80L21.61,87.24L21.97,86.23L22.25,82.93L22.38,82.72L22.52,82.01L22.39,81.90L22.49,81.22L22.84,80.79L23.18,81.10L23.62,81.80L26.46,73.90L26.68,74.65L26.64,74.01L26.46,73.90L26.93,72.99L30.79,62.78L32.99,52.84L33.41,51.82L33.90,51.85z"/><path style="fill:#000020" d="M33.90,51.85L33.41,51.82L33.44,51.39L33.64,51.32z"/><path style="fill:#000020" d="M147.52,95.36L147.33,95.30L147.46,94.60z"/><path style="fill:#171717" d="M127.11,79.11L126.04,78.80L124.90,78.80L123.64,79.23L122.76,79.96L123.04,79.19L123.64,78.69L124.46,78.41L126.50,78.39z"/><path style="fill:#171717" d="M134.00,80.23L131.52,80.17L130.09,81.00L129.55,82.44L129.50,81.24L130.25,80.33L131.34,79.78L133.95,79.80z"/><path style="fill:#171717" d="M128.68,83.95L128.80,84.31L127.97,84.04L126.58,84.06L124.42,85.18L124.68,84.43L126.39,83.65L128.16,83.63z"/><path style="fill:#171717" d="M135.91,85.49L135.42,85.42L133.45,85.42L132.46,85.85L131.30,87.14L131.45,86.22L133.00,85.01L135.63,85.00z"/><path style="fill:#171717" d="M176.75,88.21L175.68,87.90L174.54,87.90L172.99,88.61L172.11,89.62L172.26,88.71L174.09,87.50L176.14,87.49z"/><path style="fill:#171717" d="M157.20,89.56L156.38,89.28L154.96,89.28L152.82,90.42L153.09,89.67L154.51,88.88L156.85,88.86z"/><path style="fill:#171717" d="M183.64,89.33L181.44,89.28L179.88,89.98L179.29,90.72L179.43,89.80L180.98,88.88L183.58,88.90z"/><path style="fill:#171717" d="M164.31,90.73L163.83,90.66L161.86,90.66L160.86,91.09L159.70,92.38L159.85,91.46L161.40,90.25L164.03,90.24z"/><path style="fill:#171717" d="M137.56,90.73L137.08,90.67L135.38,90.66L133.83,91.36L133.23,92.10L133.37,91.18L134.93,90.25L137.28,90.24z"/><path style="fill:#171717" d="M144.71,91.66L144.76,92.07L142.84,91.88L142.04,92.06L140.40,93.17L140.69,92.43L141.82,91.63L143.33,91.40z"/><path style="fill:#171717" d="M178.32,93.05L178.44,93.41L177.61,93.15L176.47,93.14L175.20,93.58L174.04,94.55L174.33,93.81L175.20,93.03L176.03,92.75L177.80,92.73z"/><path style="fill:#171717" d="M185.54,94.59L185.06,94.52L183.11,94.54L181.21,95.65L181.49,94.91L182.91,94.11L185.26,94.10z"/><path style="fill:#171717" d="M159.10,94.83L158.03,94.52L156.89,94.52L155.63,94.96L154.46,96.24L154.61,95.33L155.62,94.40L156.45,94.12L158.49,94.11z"/><path style="fill:#171717" d="M165.99,95.95L163.51,95.89L162.60,96.42L161.64,97.34L161.78,96.42L163.33,95.49L165.94,95.52z"/><path style="fill:#171717" d="M139.26,95.97L138.74,95.90L137.06,95.91L135.15,97.07L135.44,96.28L136.86,95.49L139.21,95.51z"/><path style="fill:#171717" d="M288.94,99.87L288.92,102.77L274.84,139.99L273.02,140.32L272.53,140.72L271.41,140.92L271.70,140.45L272.54,139.89L274.23,139.63L274.05,138.17L274.01,137.14L273.88,137.03L274.03,136.34L274.29,136.36L274.59,135.89L275.58,131.91L287.25,101.38L288.38,99.99L288.45,99.61z"/><path style="fill:#171717" d="M151.32,101.55L151.85,101.88L151.98,102.23L148.64,101.54L145.05,100.86L143.65,100.86L142.65,101.28L141.83,102.68L140.66,102.81L140.54,102.68L139.54,102.81L138.96,103.13L139.32,102.37L141.65,102.22L142.49,100.85L143.20,100.46L145.51,100.47z"/><path style="fill:#171717" d="M278.25,100.87L278.05,100.83L278.19,100.11z"/><path style="fill:#171717" d="M167.90,101.21L167.41,101.14L165.44,101.13L164.45,101.57L163.29,102.86L163.44,101.94L164.45,101.02L165.27,100.74L167.62,100.72z"/><path style="fill:#171717" d="M136.19,111.37L136.02,110.37L136.46,110.05z"/><path style="fill:#171717" d="M263.05,132.62L262.59,132.54L262.54,132.35L263.68,131.99L263.94,132.15z"/><path style="fill:#1a1a1a" d="M36.67,51.63L274.38,95.20L276.51,95.50L277.44,96.04L277.21,96.52L276.85,96.30L276.39,96.20L253.89,91.92L35.75,51.94L33.90,51.85L33.64,51.32L35.76,51.38z"/><path style="fill:#1a1a1a" d="M36.51,57.44L36.90,57.64L36.85,57.83L36.00,57.75L35.89,57.08L36.67,57.07z"/><path style="fill:#1a1a1a" d="M274.40,100.92L274.65,101.46L274.00,101.30L273.99,100.74z"/><path style="fill:#1a1a1a" d="M260.24,141.56L260.66,141.48L260.86,141.56L261.06,141.94L259.91,141.82L259.85,141.29L260.05,141.23z"/><path style="fill:#ffffff" d="M34.95,67.09L35.51,67.65L35.50,68.29L33.83,72.71L33.35,73.40L32.92,73.47L29.13,72.98L29.11,72.15L31.27,66.57L31.43,66.41z"/><path style="fill:#ffffff" d="M25.28,83.38L27.31,83.77L28.86,84.20L28.87,85.68L27.06,90.27L25.27,90.27L22.40,89.72L24.89,83.03L25.04,83.01z"/><path style="fill:#ffffff" d="M137.11,86.88L137.11,87.69L136.44,88.46L134.96,89.18L133.36,89.18L132.01,88.60L131.42,87.81L131.30,87.14L132.46,85.85L133.45,85.42L135.42,85.42L135.91,85.49z"/><path style="fill:#ffffff" d="M176.75,88.21L177.93,89.35L177.92,90.17L177.47,90.88L176.05,91.67L173.90,91.66L172.83,91.08L172.26,90.54L172.11,89.62L172.99,88.61L174.54,87.90L175.68,87.90z"/><path style="fill:#ffffff" d="M123.50,88.23L124.70,89.34L124.70,90.46L124.17,91.08L122.71,91.88L120.79,91.88L119.33,91.08L118.89,89.90L119.85,88.69L120.32,88.34L121.43,88.06z"/><path style="fill:#ffffff" d="M184.97,90.53L184.97,91.47L184.68,92.02L183.37,92.98L182.56,93.16L181.35,93.04L179.72,92.19L179.44,91.91L179.29,90.72L179.88,89.98L181.44,89.28L183.64,89.33z"/><path style="fill:#ffffff" d="M165.52,91.82L165.51,92.94L165.39,93.15L163.79,94.35L162.99,94.54L162.14,94.54L161.34,94.35L160.14,93.56L159.70,92.38L160.86,91.09L161.86,90.66L163.83,90.66L164.31,90.73z"/><path style="fill:#ffffff" d="M144.76,92.07L145.79,93.02L146.09,93.95L145.54,94.80L144.52,95.49L143.39,95.63L141.39,95.49L140.56,94.96L140.29,94.33L140.30,93.49L140.40,93.17L142.04,92.06L142.84,91.88z"/><path style="fill:#ffffff" d="M151.91,93.47L153.10,94.58L153.11,95.70L152.87,96.08L151.67,96.19L147.81,95.49L147.52,95.36L147.46,94.60L147.57,94.28L149.55,93.30z"/><path style="fill:#ffffff" d="M159.10,94.83L160.28,95.97L160.28,96.79L159.47,97.70L158.40,98.28L156.53,98.28L154.61,97.16L154.46,96.24L155.63,94.96L156.89,94.52L158.03,94.52z"/><path style="fill:#ffffff" d="M180.36,98.66L181.51,99.82L181.46,100.89L180.82,101.68L178.99,102.38L178.13,102.38L176.69,101.83L175.83,101.00L175.82,100.31L175.99,99.54L177.76,98.61z"/><path style="fill:#ffffff" d="M148.64,101.54L151.98,102.23L152.72,102.95L152.67,104.90L153.02,104.98L153.32,105.14L154.17,105.28L154.37,105.45L154.37,106.07L151.58,113.25L150.96,114.02L148.63,113.84L137.33,111.75L136.19,111.37L136.46,110.05L136.77,108.92L137.30,108.08L137.29,107.85L137.60,106.72L138.13,105.87L138.11,105.64L138.21,105.32L138.44,104.59L138.78,103.97L138.96,103.13L139.54,102.81L140.66,102.81L141.83,102.68L142.65,101.28L143.65,100.86L145.05,100.86z"/><path style="fill:#ffffff" d="M169.10,102.30L169.09,103.41L168.66,104.13L166.95,104.90L165.35,104.90L164.00,104.32L163.41,103.53L163.29,102.86L164.45,101.57L165.44,101.13L167.41,101.14L167.90,101.21z"/><path style="fill:#ffffff" d="M174.84,102.53L175.89,103.18L176.29,103.96L176.22,104.74L175.73,105.42L174.26,106.21L173.48,106.38L172.08,106.22L170.90,105.42L170.58,104.90L170.46,103.96L171.42,103.03L171.89,102.67L173.90,102.40z"/><path style="fill:#e5e5e5" d="M33.41,68.32L32.30,68.43L32.61,67.87L33.29,67.92z"/><path style="fill:#e5e5e5" d="M32.01,71.36L31.18,71.41L31.27,71.24z"/><path style="fill:#e5e5e5" d="M26.76,85.15L25.96,85.23L26.01,85.03z"/><path style="fill:#e5e5e5" d="M25.69,88.45L24.60,88.53L24.88,88.01L25.57,88.04z"/><path style="fill:#e5e5e5" d="M24.88,97.08L24.88,93.20L25.01,93.29z"/><path style="fill:#e5e5e5" d="M22.60,98.22L22.60,98.45L22.11,98.35L22.27,97.88z"/><path style="fill:#e5e5e5" d="M271.35,111.87L270.29,111.99L270.87,111.48z"/><path style="fill:#e5e5e5" d="M269.92,114.96L269.50,115.07L269.12,115.55L268.89,115.09L269.23,114.76z"/><path style="fill:#e5e5e5" d="M269.90,116.99L269.75,117.25L267.49,116.86L268.49,116.74z"/><path style="fill:#e5e5e5" d="M264.67,128.79L263.92,129.02L263.97,128.61L264.73,128.49z"/><path style="fill:#e5e5e5" d="M263.68,131.99L262.54,132.35L262.60,131.94L263.19,131.58L263.54,131.62z"/><path style="fill:#e5e5e5" d="M263.01,133.82L263.57,134.32L261.22,133.91L261.09,133.74L261.58,133.54z"/><path style="fill:#000020" d="M22.27,52.41L22.06,50.99L22.25,51.09z"/><path style="fill:#000020" d="M31.51,56.53L31.44,55.78L31.64,55.83z"/><path style="fill:#000020" d="M36.67,57.07L35.89,57.08L35.95,56.89L36.57,56.87z"/><path style="fill:#000020" d="M36.90,57.64L36.51,57.44L36.67,57.07L36.91,57.20z"/><path style="fill:#000020" d="M25.83,57.81L25.63,57.82L25.87,57.10z"/><path style="fill:#000020" d="M31.90,72.18L31.14,72.04L32.01,72.03z"/><path style="fill:#000020" d="M22.38,82.72L22.39,81.90L22.52,82.01z"/><path style="fill:#000020" d="M25.04,83.01L24.89,83.03L25.03,81.61z"/><path style="fill:#000020" d="M22.95,84.64L22.65,85.18L22.81,84.46z"/><path style="fill:#000020" d="M26.82,85.76L26.67,85.97L26.28,85.98L26.13,85.77L26.67,85.60z"/><path style="fill:#000020" d="M124.32,86.59L124.17,85.88L124.30,85.77z"/><path style="fill:#000020" d="M137.11,87.69L137.11,86.88L137.25,86.97z"/><path style="fill:#000020" d="M7.38,89.91L7.23,88.79L7.35,88.89z"/><path style="fill:#000020" d="M177.92,90.17L177.93,89.35L178.07,89.45z"/><path style="fill:#000020" d="M124.70,90.46L124.70,89.34L124.84,89.43z"/><path style="fill:#000020" d="M152.72,91.83L152.58,91.12L152.70,91.01z"/><path style="fill:#000020" d="M165.51,92.94L165.52,91.82L165.65,91.91z"/><path style="fill:#000020" d="M12.18,93.24L12.62,93.22L12.64,94.04z"/><path style="fill:#000020" d="M173.95,95.69L173.80,94.98L173.94,94.87z"/><path style="fill:#000020" d="M153.11,95.70L153.10,94.58L153.24,94.67z"/><path style="fill:#000020" d="M160.28,96.79L160.28,95.97L160.42,96.07z"/><path style="fill:#000020" d="M181.13,97.08L180.98,96.07L181.11,95.96z"/><path style="fill:#000020" d="M127.90,97.07L127.75,96.36L127.89,96.25z"/><path style="fill:#000020" d="M22.97,97.86L22.60,98.22L22.27,97.88L22.80,97.68z"/><path style="fill:#000020" d="M20.91,98.73L20.69,95.46L20.85,95.51z"/><path style="fill:#000020" d="M168.72,99.54L168.56,98.85L168.70,98.73z"/><path style="fill:#000020" d="M278.52,100.89L278.25,100.87L278.19,100.11L278.20,99.28L278.31,98.17L278.42,98.27z"/><path style="fill:#000020" d="M181.75,100.11L181.46,100.89L181.51,99.82z"/><path style="fill:#000020" d="M274.40,100.92L274.89,100.78L274.86,101.37L274.65,101.46z"/><path style="fill:#000020" d="M161.50,102.79L160.77,102.65L161.60,102.64z"/><path style="fill:#000020" d="M140.66,102.81L139.54,102.81L140.54,102.68z"/><path style="fill:#000020" d="M169.09,103.41L169.10,102.30L169.24,102.39z"/><path style="fill:#000020" d="M176.51,104.27L176.22,104.74L176.29,103.96z"/><path style="fill:#000020" d="M154.17,105.28L153.32,105.14L154.11,105.06z"/><path style="fill:#000020" d="M270.55,110.24L269.41,110.25L270.44,110.12z"/><path style="fill:#000020" d="M270.32,112.40L270.28,112.23L271.66,112.31L271.59,112.67z"/><path style="fill:#000020" d="M270.46,115.71L269.21,115.73L269.12,115.55L270.48,115.56z"/><path style="fill:#000020" d="M264.20,127.17L264.94,127.11L264.96,128.52L264.73,128.49L264.62,127.50z"/><path style="fill:#000020" d="M265.82,131.76L265.67,131.75L265.78,130.44z"/><path style="fill:#000020" d="M264.22,132.38L263.05,132.62L263.94,132.15z"/><path style="fill:#000020" d="M274.05,138.17L273.88,137.03L274.01,137.14z"/><path style="fill:#000020" d="M262.59,139.81L262.62,139.63L263.35,139.59z"/><path style="fill:#000020" d="M260.05,141.23L260.66,141.48L260.24,141.56z"/><path style="fill:#171717" d="M253.89,91.92L276.39,96.20L276.26,96.40L275.28,99.02L269.33,97.72L33.99,54.58L33.90,51.85L35.75,51.94z"/><path style="fill:#171717" d="M31.16,55.64L30.72,55.61L30.19,54.39L30.31,54.28L30.51,54.38z"/><path style="fill:#171717" d="M33.49,68.76L32.33,68.85L32.30,68.43L33.41,68.32z"/><path style="fill:#171717" d="M32.31,71.70L32.01,72.03L31.14,72.04L30.99,71.60L31.18,71.41L32.01,71.36z"/><path style="fill:#171717" d="M141.10,81.19L141.15,81.61L139.07,81.44L137.69,81.99L136.56,83.26L136.69,82.36L138.25,81.17L139.07,80.89L140.27,80.89z"/><path style="fill:#171717" d="M121.52,82.57L121.62,82.94L119.49,82.82L118.67,83.10L117.19,84.09L117.53,83.33L118.67,82.55L119.49,82.27L120.70,82.27z"/><path style="fill:#171717" d="M117.14,85.22L117.02,84.21L117.19,84.09z"/><path style="fill:#171717" d="M26.82,85.76L26.67,85.60L26.13,85.77L25.94,85.65L25.96,85.23L26.76,85.15L26.99,85.32z"/><path style="fill:#171717" d="M169.50,86.43L169.61,86.80L167.20,86.68L165.46,87.42L165.56,86.97L166.38,86.41L168.68,86.13z"/><path style="fill:#171717" d="M142.76,86.43L142.85,86.80L141.02,86.68L139.35,87.23L138.47,88.24L138.61,87.32L139.90,86.40L141.92,86.12z"/><path style="fill:#171717" d="M149.92,87.81L150.01,88.19L147.61,88.05L145.59,89.33L145.93,88.57L147.08,87.79L147.90,87.51L149.39,87.49z"/><path style="fill:#171717" d="M123.45,87.81L123.50,88.23L121.43,88.06L120.32,88.34L119.85,88.69L118.89,89.90L119.01,88.96L119.49,88.33L120.32,87.78L122.63,87.51z"/><path style="fill:#171717" d="M164.96,88.50L165.08,87.60L165.46,87.42z"/><path style="fill:#171717" d="M24.60,88.53L25.69,88.45L25.85,88.98L24.71,88.89z"/><path style="fill:#171717" d="M130.65,89.64L130.08,89.44L128.03,89.43L126.94,89.99L126.06,91.00L126.21,90.09L127.50,89.17L128.32,88.88L130.09,88.87z"/><path style="fill:#171717" d="M145.55,90.46L145.42,89.45L145.59,89.33z"/><path style="fill:#171717" d="M171.16,91.67L171.25,92.05L169.13,91.92L167.75,92.47L166.87,93.48L167.02,92.57L168.31,91.65L169.13,91.37L170.33,91.37z"/><path style="fill:#171717" d="M151.85,93.05L151.91,93.47L149.55,93.30L147.57,94.28L147.71,93.68L149.55,92.75L151.03,92.75z"/><path style="fill:#171717" d="M125.11,93.05L125.21,93.42L123.08,93.30L122.26,93.58L121.26,94.24L120.72,95.68L120.67,94.47L121.70,93.30L123.37,92.74L124.27,92.74z"/><path style="fill:#171717" d="M132.28,94.43L132.37,94.81L129.97,94.68L129.15,94.96L127.99,95.93L128.28,95.19L129.15,94.40L129.97,94.13L131.74,94.11z"/><path style="fill:#171717" d="M278.17,96.59L278.31,98.17L278.20,99.28L277.43,99.22L277.37,98.16L277.21,96.52L277.44,96.04z"/><path style="fill:#171717" d="M173.09,96.91L173.14,97.33L171.06,97.16L170.24,97.44L168.80,98.41L169.09,97.67L170.24,96.89L171.06,96.61L172.26,96.61z"/><path style="fill:#171717" d="M180.26,98.29L180.36,98.66L177.76,98.61L175.99,99.54L176.25,98.77L177.96,97.98L179.73,97.97z"/><path style="fill:#171717" d="M160.67,99.67L160.79,100.03L160.42,99.92L158.87,100.07L159.00,99.45L160.14,99.34z"/><path style="fill:#171717" d="M284.90,100.90L285.33,104.50L285.04,105.26L284.78,101.56L284.41,100.98L284.61,100.66z"/><path style="fill:#171717" d="M174.75,102.15L174.84,102.53L173.90,102.40L171.89,102.67L171.42,103.03L170.46,103.96L170.60,103.04L171.89,102.12L173.91,101.84z"/><path style="fill:#171717" d="M154.11,105.06L153.32,105.14L153.02,104.98L153.22,104.60z"/><path style="fill:#171717" d="M138.21,105.32L138.27,104.63L138.44,104.59z"/><path style="fill:#171717" d="M138.13,105.87L137.60,106.72L137.80,105.80L138.11,105.64z"/><path style="fill:#171717" d="M137.30,108.08L136.77,108.92L136.97,108.01L137.29,107.85z"/><path style="fill:#171717" d="M271.66,112.31L270.28,112.23L270.29,111.99L271.35,111.87L271.88,111.81z"/><path style="fill:#171717" d="M270.48,115.56L269.12,115.55L269.50,115.07L269.92,114.96z"/><path style="fill:#171717" d="M263.92,129.02L264.67,128.79L264.81,129.36L264.65,129.56L264.08,129.47z"/><path style="fill:#00001c" d="M277.43,99.22L277.20,99.28L277.37,98.16z"/><path style="fill:#00001c" d="M264.81,129.36L264.67,128.79L264.73,128.49L264.96,128.52z"/><path style="fill:#1a1a1a" d="M22.06,50.99L21.64,51.10L20.49,52.48L9.00,82.63L7.60,87.32L7.25,87.44L7.34,85.66L9.28,79.87L19.91,52.17L21.06,50.84L21.96,50.80z"/><path style="fill:#1a1a1a" d="M23.39,98.34L22.60,98.45L22.60,98.22L22.97,97.86L23.40,98.01z"/><path style="fill:#ffffff" d="M26.68,74.65L26.46,73.90L26.64,74.01z"/><path style="fill:#ffffff" d="M127.11,79.11L128.15,80.05L128.04,81.44L126.41,82.56L123.99,82.56L122.92,81.98L122.59,81.46L122.60,80.44L122.76,79.96L123.64,79.23L124.90,78.80L126.04,78.80z"/><path style="fill:#ffffff" d="M134.48,80.63L135.34,81.72L135.34,82.36L135.04,82.93L133.03,83.94L131.72,83.93L130.63,83.64L129.78,82.86L129.55,82.44L130.09,81.00L131.52,80.17L134.00,80.23z"/><path style="fill:#ffffff" d="M141.15,81.61L142.21,82.54L142.51,83.47L141.82,84.46L140.38,85.28L138.44,85.26L137.50,84.77L136.95,84.21L136.56,83.26L137.69,81.99L139.07,81.44z"/><path style="fill:#ffffff" d="M121.62,82.94L122.92,84.19L122.92,85.13L122.24,85.84L120.80,86.66L119.11,86.66L117.68,85.84L117.14,85.22L117.19,84.09L118.67,83.10L119.49,82.82z"/><path style="fill:#ffffff" d="M128.80,84.31L129.50,84.77L130.09,85.86L129.68,86.94L128.34,87.80L125.91,87.80L124.84,87.22L124.32,86.59L124.30,85.77L124.42,85.18L126.58,84.06L127.97,84.04z"/><path style="fill:#ffffff" d="M169.61,86.80L169.79,86.95L170.87,88.30L170.61,89.26L170.10,89.85L168.51,90.52L167.09,90.52L165.66,89.70L164.96,88.50L165.46,87.42L167.20,86.68z"/><path style="fill:#ffffff" d="M142.85,86.80L143.35,87.21L144.16,88.05L144.15,88.99L143.75,89.70L142.29,90.50L140.09,90.50L138.91,89.70L138.59,89.18L138.47,88.24L139.35,87.23L141.02,86.68z"/><path style="fill:#ffffff" d="M22.40,86.60L22.56,85.50L22.65,85.18L22.95,84.64L23.07,86.23L22.79,87.04L22.54,87.02z"/><path style="fill:#ffffff" d="M150.01,88.19L150.76,88.60L151.32,89.43L151.33,90.37L150.52,91.23L148.93,91.90L147.79,91.90L146.35,91.36L145.55,90.46L145.59,89.33L147.61,88.05z"/><path style="fill:#ffffff" d="M157.20,89.56L157.94,89.98L158.45,91.07L158.10,92.19L156.47,93.04L154.32,93.04L152.97,92.21L152.72,91.83L152.70,91.01L152.82,90.42L154.96,89.28L156.38,89.28z"/><path style="fill:#ffffff" d="M130.65,89.64L131.74,90.52L131.74,91.76L131.42,92.27L130.00,93.04L127.57,93.04L126.50,92.46L126.18,91.94L126.06,91.00L126.94,89.99L128.03,89.43L130.08,89.44z"/><path style="fill:#ffffff" d="M138.92,91.91L138.91,92.85L138.38,93.71L136.89,94.42L135.01,94.42L133.67,93.83L133.36,93.32L133.23,92.10L133.83,91.36L135.38,90.66L137.08,90.67L137.56,90.73z"/><path style="fill:#ffffff" d="M171.25,92.05L172.56,93.01L172.55,94.23L172.28,94.78L170.44,95.76L168.78,95.74L167.31,94.94L167.00,94.42L166.87,93.48L167.75,92.47L169.13,91.92z"/><path style="fill:#ffffff" d="M178.44,93.41L179.17,93.85L179.74,94.68L179.74,95.32L179.32,96.04L177.98,96.90L175.55,96.90L174.48,96.32L173.95,95.69L173.94,94.87L174.04,94.55L175.20,93.58L176.47,93.14L177.61,93.15z"/><path style="fill:#ffffff" d="M125.21,93.42L126.51,94.67L126.50,95.61L126.22,96.16L124.64,97.12L122.44,97.12L120.99,96.06L120.72,95.68L121.26,94.24L122.26,93.58L123.08,93.30z"/><path style="fill:#ffffff" d="M186.33,95.22L186.90,96.06L186.61,96.99L185.82,97.85L184.59,98.27L183.00,98.28L181.37,97.45L181.13,97.08L181.11,95.96L181.21,95.65L183.11,94.54L185.06,94.52L185.54,94.59z"/><path style="fill:#ffffff" d="M132.37,94.81L133.08,95.26L133.68,96.06L133.69,96.70L132.87,97.85L131.28,98.51L130.14,98.51L128.70,97.98L127.90,97.07L127.89,96.25L127.99,95.93L129.15,94.96L129.97,94.68z"/><path style="fill:#ffffff" d="M167.32,97.15L167.32,98.09L166.64,99.08L165.01,99.65L163.70,99.65L162.62,99.35L161.75,98.57L161.64,97.34L162.60,96.42L163.51,95.89L165.99,95.95z"/><path style="fill:#ffffff" d="M173.14,97.33L174.20,98.26L174.49,99.19L173.81,100.18L172.37,101.00L170.43,100.98L168.94,99.96L168.72,99.54L168.70,98.73L168.80,98.41L170.24,97.44L171.06,97.16z"/><path style="fill:#ffffff" d="M139.19,96.42L136.34,97.73L135.20,97.83L135.15,97.07L137.06,95.91L138.74,95.90L139.26,95.97z"/><path style="fill:#ffffff" d="M160.79,100.03L161.52,100.46L162.09,101.30L162.09,101.94L161.60,102.64L160.77,102.65L159.03,100.46L158.87,100.07L160.42,99.92z"/><path style="fill:#ffffff" d="M266.05,127.04L265.82,126.30L266.01,126.41z"/><path style="fill:#ffffff" d="M266.40,131.27L265.82,131.76L265.78,130.44L265.89,130.14L266.07,129.32L266.23,129.10L266.57,129.11z"/><g id="Actor_.0"><g style="stroke:#000000;stroke-width:0.176"><path d="M7.53,90.39 L8.05,90.16 L7.99,85.65 L7.43,85.55 "/><path d="M7.79,90.91 L11.09,91.65 L12.37,92.67 L12.69,92.45 L25.75,57.92 L31.06,58.89 "/><path d="M7.77,87.67 L7.20,87.57 "/><path d="M7.99,85.65 L8.30,84.46 L7.77,84.24 "/><path d="M7.95,83.68 L8.51,83.78 L8.34,84.34 "/><path d="M22.39,53.34 L8.24,90.77 L22.25,53.04 "/><path d="M8.51,83.78 L20.29,52.63 L19.73,52.53 "/><path d="M11.09,91.65 L10.64,91.79 "/><path d="M11.23,92.20 L11.68,92.06 "/><path d="M25.17,57.61 L12.03,92.45 L11.56,92.57 "/><path d="M20.02,94.10 L12.58,92.73 L12.55,93.11 "/><path d="M20.90,95.95 L12.96,94.49 "/><path d="M268.35,144.45 L15.11,98.03 "/><path d="M20.29,52.63 L19.98,52.05 "/><path d="M20.54,52.15 L21.98,50.65 "/><path d="M21.84,50.72 L21.28,50.61 "/><path d="M23.55,98.23 L22.64,98.23 L22.28,97.64 "/><path d="M23.48,98.00 L22.49,97.55 "/><path d="M24.96,96.69 L258.42,139.48 "/><path d="M24.98,95.00 L258.43,137.79 "/><path d="M25.98,88.51 L25.19,88.19 L24.58,88.59 "/><path d="M27.19,85.32 L26.39,85.00 L25.79,85.40 "/><path d="M25.91,57.07 L31.23,58.05 "/><path d="M26.10,54.18 L27.92,53.15 "/><path d="M27.76,53.46 L29.62,53.88 L30.67,55.13 L30.83,54.82 "/><path d="M29.06,53.70 L29.22,53.39 "/><path d="M30.67,55.13 L30.89,55.08 "/><path d="M30.73,55.39 L31.66,56.01 "/><path d="M32.38,71.58 L31.59,71.26 L30.99,71.66 "/><path d="M31.38,55.96 L31.54,55.66 "/><path d="M32.20,68.47 L33.04,68.07 L33.59,68.39 "/><path d="M274.36,103.49 L33.45,59.33 "/><path d="M275.35,98.71 L33.84,54.44 "/><path d="M275.38,98.57 L33.86,54.31 "/><path d="M277.17,98.90 L278.14,99.08 L277.94,97.01 L276.79,96.01 L275.30,95.68 L33.67,51.56 "/><path d="M34.49,51.54 L34.65,51.12 "/><path d="M35.76,56.81 L36.10,57.49 L37.02,57.46 "/><path d="M272.79,102.32 L37.73,59.24 "/><path d="M123.11,84.32 L122.39,82.75 L119.62,82.06 L117.83,82.78 L117.00,84.53 "/><path d="M124.92,89.58 L124.20,88.01 L121.44,87.32 L119.64,88.04 L118.81,89.79 "/><path d="M120.62,95.05 L121.45,93.30 L123.24,92.58 L126.00,93.27 L126.73,94.84 "/><path d="M122.30,80.57 L123.13,78.82 L124.92,78.10 L127.61,78.75 L128.41,80.37 "/><path d="M124.10,85.83 L124.93,84.08 L126.73,83.36 L129.49,84.05 L130.22,85.63 "/><path d="M132.02,90.89 L130.80,89.02 L128.54,88.62 L126.80,89.31 L125.91,91.09 "/><path d="M133.83,96.14 L133.65,95.24 L132.51,94.22 L130.34,93.88 L128.55,94.60 L127.72,96.35 "/><path d="M129.40,81.87 L130.22,80.13 L132.03,79.40 L134.79,80.10 L135.51,81.67 "/><path d="M131.20,87.13 L131.37,86.25 L132.51,85.11 L134.79,84.65 L136.59,85.35 L137.31,86.93 "/><path d="M139.12,92.19 L138.40,90.61 L135.64,89.92 L133.84,90.64 L133.01,92.39 "/><path d="M135.93,110.61 L139.09,102.38 L140.17,102.05 L140.19,102.45 "/><path d="M139.53,96.05 L139.02,95.28 L137.20,95.22 L135.61,95.93 L134.86,97.49 "/><path d="M135.95,111.05 L135.93,111.00 "/><path d="M142.61,82.97 L141.88,81.40 L139.36,80.70 L137.33,81.42 L136.50,83.18 "/><path d="M138.99,102.98 L138.97,102.59 "/><path d="M139.02,95.28 L139.04,95.67 "/><path d="M144.41,88.23 L143.69,86.65 L140.93,85.96 L139.09,86.74 L138.31,88.44 "/><path d="M140.17,102.05 L141.84,102.20 "/><path d="M146.21,93.36 L145.21,91.71 L143.30,91.19 L140.59,92.27 L140.13,93.91 "/><path d="M140.95,102.20 L140.97,102.59 "/><path d="M141.82,101.81 L142.28,100.87 L143.34,100.23 L144.44,100.14 L144.70,100.55 "/><path d="M142.00,101.34 L142.02,101.73 "/><path d="M144.68,100.15 L151.93,101.56 L152.87,103.01 "/><path d="M151.52,89.53 L150.78,87.95 L148.03,87.26 L146.42,87.88 L145.66,88.62 L145.41,89.74 "/><path d="M153.32,94.66 L152.39,93.06 L149.63,92.55 L147.94,93.32 L147.24,94.96 "/><path d="M151.35,101.76 L151.32,101.37 "/><path d="M152.61,103.96 L153.15,104.82 "/><path d="M158.62,90.83 L157.89,89.26 L155.35,88.56 L153.33,89.28 L152.50,91.04 "/><path d="M153.13,104.43 L154.41,104.81 L154.58,105.40 "/><path d="M153.91,104.57 L153.93,104.97 "/><path d="M160.42,96.11 L159.67,94.50 L156.84,93.84 L155.04,94.64 L154.32,96.37 "/><path d="M162.25,101.50 L162.02,100.43 L160.64,99.29 L159.13,99.15 L158.73,99.97 "/><path d="M159.70,99.07 L159.72,99.46 "/><path d="M165.72,92.13 L164.99,90.56 L162.21,89.87 L160.44,90.59 L159.60,92.34 "/><path d="M161.41,97.60 L162.21,95.89 L164.04,95.13 L166.78,95.80 L167.52,97.39 "/><path d="M169.33,102.65 L168.61,101.08 L165.85,100.38 L164.05,101.11 L163.22,102.86 "/><path d="M164.90,88.38 L165.63,86.74 L167.53,85.91 L170.20,86.55 L171.01,88.17 "/><path d="M172.82,93.43 L172.09,91.86 L169.33,91.17 L167.54,91.89 L166.71,93.64 "/><path d="M174.62,98.69 L173.90,97.12 L171.35,96.43 L169.06,97.46 L168.51,98.89 "/><path d="M170.32,104.16 L171.15,102.41 L172.95,101.69 L175.71,102.38 L176.43,103.95 "/><path d="M178.11,89.48 L177.39,87.90 L174.77,87.21 L172.92,87.88 L172.00,89.68 "/><path d="M173.81,94.94 L174.64,93.19 L176.43,92.47 L179.19,93.16 L179.92,94.73 "/><path d="M181.72,99.99 L181.00,98.42 L178.24,97.73 L176.44,98.45 L175.61,100.20 "/><path d="M185.21,90.78 L184.48,89.20 L181.72,88.51 L179.93,89.23 L179.10,90.98 "/><path d="M187.02,96.04 L186.29,94.46 L183.53,93.77 L181.74,94.49 L180.91,96.24 "/><path d="M261.06,141.76 L260.16,141.76 L259.79,141.17 "/><path d="M260.01,141.08 L261.00,141.54 "/><path d="M262.48,140.22 L270.56,141.70 "/><path d="M264.01,132.14 L263.21,131.81 L262.61,132.23 "/><path d="M263.82,129.04 L264.89,128.68 "/><path d="M270.77,141.43 L271.55,140.20 L263.87,138.79 "/><path d="M269.01,115.30 L269.58,114.89 L270.41,115.21 "/><path d="M270.22,112.11 L271.07,111.69 L271.62,112.02 "/><path d="M271.55,140.58 L284.71,105.38 L276.76,103.92 "/><path d="M270.91,141.23 L270.96,141.19 "/><path d="M270.81,141.37 L270.84,141.34 "/><path d="M271.55,140.20 L272.57,140.40 "/><path d="M272.86,140.15 L272.09,140.10 L274.07,134.87 L273.94,136.46 L274.50,136.56 L275.30,132.53 L287.00,101.58 L286.46,101.42 "/><path d="M272.39,139.84 L274.82,139.37 L280.49,124.40 L277.94,131.25 "/><path d="M272.78,139.61 L273.26,139.92 "/><path d="M274.64,139.82 L274.15,139.51 L273.94,136.46 "/><path d="M274.07,134.87 L274.15,134.49 L274.73,134.54 "/><path d="M274.83,101.22 L273.94,100.95 L273.79,100.43 "/><path d="M274.80,139.60 L274.50,136.56 "/><path d="M274.17,134.43 L274.51,133.12 L275.07,133.23 "/><path d="M275.24,132.67 L274.68,132.56 L274.51,133.12 "/><path d="M274.68,132.56 L284.96,105.39 "/><path d="M276.42,95.44 L276.26,95.86 "/><path d="M284.84,105.39 L284.88,104.54 L277.03,103.10 "/><path d="M278.30,98.91 L277.15,99.03 "/><path d="M280.28,101.02 L279.87,101.44 L278.35,101.11 L278.30,98.65 "/><path d="M278.72,101.29 L278.90,100.99 "/><path d="M278.24,100.28 L278.08,100.58 "/><path d="M278.03,97.36 L278.19,96.94 "/><path d="M279.57,101.45 L279.73,101.14 "/><path d="M280.49,124.40 L280.92,123.26 L280.09,125.54 "/><path d="M280.92,123.26 L281.35,122.12 L281.01,123.11 "/><path d="M280.49,100.58 L280.46,100.66 "/><path d="M280.33,100.89 L282.19,99.76 "/><path d="M281.35,122.12 L282.15,120.01 L281.79,120.98 "/><path d="M282.03,100.06 L283.75,100.43 L284.68,101.16 L284.88,104.54 L285.04,104.23 "/><path d="M282.22,119.84 L283.51,116.41 L283.08,117.55 "/><path d="M283.51,116.41 L284.81,112.99 L284.38,114.13 "/><path d="M283.32,100.30 L283.48,99.99 "/><path d="M284.81,112.99 L285.58,110.95 L285.24,111.85 "/><path d="M284.97,102.09 L285.13,101.78 "/><path d="M285.67,110.71 L288.99,101.93 L288.69,102.72 "/><path d="M286.71,100.94 L287.28,101.04 L288.72,99.53 "/><path d="M287.28,101.04 L287.02,101.52 "/><path d="M288.57,99.60 L288.01,99.50 "/></g><g style="stroke:#000000;stroke-width:0.529"><path d="M7.19,87.17 C7.55,85.35 7.55,85.34 8.00,83.55 C13.82,68.02 13.83,68.02 19.73,52.53 C20.11,51.95 20.14,51.96 20.56,51.40 C20.91,51.01 20.91,51.01 21.28,50.61 "/><path d="M270.92,141.22 L267.91,144.85 L15.61,98.57 L12.21,93.01 L10.94,91.94 L7.62,90.67 L7.19,87.17 "/><path d="M21.28,50.61 L22.09,50.78 L22.39,53.34 L25.53,57.86 L26.10,54.18 L26.91,53.25 L29.70,53.55 L31.72,55.69 "/><path d="M23.25,97.69 L22.49,97.55 "/><path d="M24.75,88.78 L25.82,88.72 "/><path d="M27.03,85.53 L25.96,85.59 "/><path d="M32.23,71.79 L31.16,71.85 "/><path d="M32.36,68.66 L33.43,68.60 "/><path d="M270.84,141.34 L273.26,139.92 L274.64,139.82 L274.93,139.24 L288.95,102.18 L288.82,99.67 L288.15,99.43 L286.71,100.94 L284.96,105.39 L284.84,100.85 L284.01,100.16 L281.62,99.73 L279.96,101.15 L278.51,100.81 L278.09,96.55 L276.42,95.44 L34.65,51.12 L33.21,51.47 "/><path d="M37.01,57.27 L35.92,56.70 "/><path d="M117.42,85.60 L117.03,84.90 L117.28,83.81 L119.64,82.45 L121.63,82.68 L123.11,84.32 L122.60,85.56 L121.08,86.45 L118.96,86.50 L117.42,85.60 "/><path d="M119.77,91.30 L121.77,91.88 L123.69,91.38 L124.75,90.27 L124.76,89.03 L123.43,87.94 L120.49,87.96 L118.89,89.59 L118.84,90.16 L119.77,91.30 "/><path d="M120.89,95.87 L122.56,97.01 L124.51,97.02 L126.21,96.08 L126.73,94.84 L125.24,93.20 L123.37,92.97 L121.08,94.11 L120.62,95.05 L120.89,95.87 "/><path d="M122.71,81.64 L122.30,80.57 L122.56,79.89 L124.95,78.49 L127.71,79.19 L128.41,80.37 L127.94,81.53 L126.27,82.53 L124.51,82.57 L122.71,81.64 "/><path d="M124.43,86.74 L124.38,85.11 L126.75,83.75 L128.73,83.98 L130.22,85.63 L129.78,86.74 L128.08,87.79 L126.06,87.80 L124.43,86.74 "/><path d="M126.80,92.55 L125.91,91.09 L127.59,89.26 L130.53,89.24 L132.02,90.89 L131.51,92.12 L129.89,93.05 L128.12,93.09 L126.80,92.55 "/><path d="M127.91,97.01 L127.72,96.35 L128.57,94.99 L130.22,94.31 L132.34,94.50 L133.83,96.14 L133.31,97.38 L131.69,98.31 L129.68,98.32 L127.91,97.01 "/><path d="M130.22,83.28 L129.40,81.87 L131.07,80.04 L134.02,80.03 L135.51,81.67 L134.99,82.91 L133.37,83.83 L131.61,83.88 L130.22,83.28 "/><path d="M131.37,87.75 L131.48,86.41 L133.65,85.11 L135.83,85.29 L137.26,86.74 L136.80,88.17 L134.79,89.14 L132.51,88.84 L131.37,87.75 "/><path d="M133.65,93.65 L133.01,92.45 L133.28,91.67 L134.69,90.56 L137.63,90.54 L138.95,91.64 L138.61,93.43 L137.08,94.31 L135.23,94.39 L133.65,93.65 "/><path d="M135.35,97.87 L134.91,97.59 L135.06,97.01 L136.36,95.88 L138.14,95.54 L139.36,95.84 L139.05,96.49 L135.35,97.87 "/><path d="M136.32,111.40 L150.94,113.97 L151.72,112.99 L154.43,105.20 L152.79,104.65 L152.79,102.72 L151.96,101.96 L143.36,100.62 L142.31,101.26 L141.65,102.44 L139.59,102.48 L138.99,102.98 L135.95,111.00 L136.32,111.40 "/><path d="M136.91,84.24 L138.71,85.18 L140.47,85.13 L142.09,84.21 L142.61,82.97 L141.12,81.33 L138.22,81.33 L136.77,82.45 L136.52,83.55 L136.91,84.24 "/><path d="M138.71,89.50 L138.52,87.88 L139.16,87.07 L140.96,86.35 L143.19,86.74 L144.41,88.23 L143.93,89.41 L142.28,90.39 L140.50,90.43 L138.71,89.50 "/><path d="M140.16,93.59 L140.34,94.51 L142.06,95.63 L145.07,95.22 L146.21,93.36 L145.23,92.10 L143.32,91.58 L141.34,92.08 L140.16,93.59 "/><path d="M145.46,90.16 L146.49,91.35 L148.37,91.83 L150.32,91.30 L151.52,89.53 L150.03,87.89 L148.06,87.66 L146.26,88.38 L145.46,90.16 "/><path d="M147.29,95.05 L147.97,93.72 L149.64,92.95 L151.59,93.06 L153.32,94.66 L152.91,95.87 L152.15,96.13 L147.29,95.05 "/><path d="M153.07,92.23 L152.53,91.41 L152.78,90.31 L154.90,89.02 L157.13,89.19 L158.62,90.83 L158.10,92.07 L156.48,93.00 L154.72,93.04 L153.07,92.23 "/><path d="M155.35,97.53 L154.32,96.37 L155.87,94.52 L158.78,94.41 L160.26,95.55 L160.32,96.69 L159.09,97.95 L157.08,98.38 L155.35,97.53 "/><path d="M158.76,99.88 L160.78,102.51 L161.87,102.35 L162.23,101.20 L161.35,100.03 L159.72,99.46 L158.76,99.88 "/><path d="M159.61,92.45 L160.68,93.96 L162.57,94.43 L164.93,93.59 L165.72,92.13 L164.23,90.49 L162.25,90.26 L160.46,90.98 L159.61,92.45 "/><path d="M161.82,98.66 L163.35,99.56 L165.39,99.56 L166.78,98.81 L167.52,97.39 L166.24,95.87 L164.06,95.52 L161.69,96.88 L161.44,97.97 L161.82,98.66 "/><path d="M163.35,103.42 L163.49,102.13 L165.63,100.84 L167.84,101.01 L169.33,102.65 L168.10,104.45 L166.18,104.95 L164.49,104.55 L163.35,103.42 "/><path d="M165.31,89.44 L165.09,87.88 L166.25,86.74 L167.55,86.30 L169.52,86.53 L171.01,88.17 L170.49,89.41 L168.87,90.34 L166.86,90.35 L165.31,89.44 "/><path d="M166.73,94.01 L167.41,92.45 L169.36,91.56 L171.33,91.79 L172.82,93.43 L171.59,95.23 L169.67,95.73 L167.92,95.31 L166.73,94.01 "/><path d="M168.92,99.96 L170.73,100.90 L172.49,100.86 L174.11,99.93 L174.62,98.69 L173.14,97.05 L170.42,97.01 L168.81,98.15 L168.55,99.29 L168.92,99.96 "/><path d="M170.73,105.22 L170.35,104.53 L170.59,103.44 L172.97,102.08 L174.77,102.27 L176.40,103.86 L176.03,105.00 L174.29,106.12 L172.53,106.16 L170.73,105.22 "/><path d="M172.41,90.75 L172.00,89.68 L172.25,89.02 L174.65,87.60 L176.62,87.83 L178.11,89.48 L177.59,90.72 L175.97,91.64 L174.21,91.68 L172.41,90.75 "/><path d="M174.22,96.01 L173.83,95.32 L174.08,94.22 L176.46,92.86 L179.22,93.55 L179.92,94.73 L179.46,95.87 L177.78,96.90 L176.02,96.94 L174.22,96.01 "/><path d="M175.64,100.57 L176.47,98.84 L178.13,98.15 L180.24,98.35 L181.72,99.99 L180.48,101.80 L178.58,102.29 L176.69,101.82 L175.64,100.57 "/><path d="M179.34,91.75 L179.34,90.34 L181.63,88.93 L183.72,89.14 L185.21,90.78 L184.69,92.02 L183.07,92.94 L180.48,92.72 L179.34,91.75 "/><path d="M181.32,97.31 L180.93,96.62 L181.18,95.52 L183.56,94.16 L185.53,94.40 L186.97,95.87 L186.50,97.28 L185.05,98.13 L182.87,98.21 L181.32,97.31 "/><path d="M260.00,141.06 L260.76,141.22 "/><path d="M262.78,132.41 L263.85,132.34 "/><path d="M263.99,129.22 L264.88,129.06 "/><path d="M270.26,115.41 L269.18,115.47 "/><path d="M271.46,112.22 L270.39,112.28 "/><path d="M271.46,140.74 L271.52,140.66 "/><path d="M273.95,100.33 L274.89,100.94 "/><path d="M274.80,139.58 L274.93,139.24 "/></g></g><g id="Actor_.1"><g style="stroke:#000000;stroke-width:0.176"><path d="M262.37,136.41 C262.64,136.34 262.64,136.33 262.91,136.24 C263.14,136.12 263.14,136.11 263.37,135.98 C263.54,135.81 263.54,135.81 263.70,135.63 C263.81,135.43 263.81,135.42 263.91,135.22 "/><path d="M266.03,131.56 C266.26,130.88 266.26,130.87 266.47,130.18 C266.55,129.63 266.54,129.63 266.61,129.08 C266.61,128.87 266.60,128.87 266.60,128.65 C266.57,128.52 266.57,128.52 266.53,128.38 "/><path d="M266.09,128.75 C266.09,129.13 266.09,129.13 266.05,129.51 C265.88,130.02 265.85,130.01 265.67,130.52 C265.64,130.88 265.65,130.89 265.64,131.25 C265.69,131.50 265.69,131.50 265.76,131.74 "/><path d="M266.92,126.18 C268.13,123.05 268.13,123.05 269.30,119.91 C269.55,118.93 269.52,118.92 269.76,117.93 C269.81,117.80 269.81,117.80 269.88,117.67 C269.92,117.61 269.92,117.61 269.97,117.55 "/><path d="M269.69,119.54 C269.81,119.27 269.82,119.27 269.93,119.00 C269.97,118.77 269.97,118.77 270.00,118.54 C269.99,118.33 269.99,118.33 269.96,118.12 "/><path d="M259.45,135.54 L259.32,135.82 L258.80,135.89 L258.49,136.19 "/><path d="M261.06,141.76 L260.95,142.05 L260.79,142.16 L260.35,142.21 L260.12,142.13 L259.91,142.00 L259.67,141.66 L259.64,141.44 L259.79,141.17 "/><path d="M259.30,135.85 L262.37,136.41 "/><path d="M263.91,135.22 L263.87,138.79 "/><path d="M261.35,133.70 L261.33,133.35 L263.73,133.79 L263.64,134.12 "/><path d="M261.33,133.35 L260.87,133.13 L260.68,132.76 "/><path d="M262.27,142.74 L262.37,136.41 L262.52,136.10 "/><path d="M262.31,142.54 L262.46,142.22 "/><path d="M262.34,139.48 L262.48,139.47 "/><path d="M264.00,132.15 L264.02,131.86 L263.93,131.70 L263.77,131.56 L263.31,131.45 L262.85,131.57 L262.68,131.70 L262.58,131.87 L262.60,132.22 "/><path d="M263.40,135.12 L263.87,135.21 L264.71,132.04 L264.20,131.95 L264.10,132.28 L264.61,132.37 "/><path d="M263.73,133.79 L264.10,132.28 "/><path d="M263.81,129.03 L263.78,128.68 L264.06,128.38 L264.52,128.26 L264.93,128.36 "/><path d="M264.20,131.95 L264.63,130.80 L265.14,130.90 L265.32,130.16 L265.53,127.09 L265.02,127.00 "/><path d="M264.71,132.04 L265.14,130.90 "/><path d="M264.63,130.80 L264.80,130.11 L264.87,129.28 "/><path d="M264.83,129.82 L265.34,129.91 "/><path d="M264.91,128.69 L265.00,127.20 "/><path d="M265.38,134.25 L265.40,134.07 L265.30,134.04 L265.39,134.06 "/><path d="M265.30,134.04 L265.40,134.07 L268.13,126.86 "/><path d="M265.12,134.38 L265.29,134.05 "/><path d="M265.60,133.53 L267.49,128.62 "/><path d="M265.42,134.13 L265.64,133.53 L265.38,134.23 "/><path d="M265.98,132.63 L265.64,133.53 "/><path d="M265.76,131.74 L265.88,131.75 L266.03,131.56 "/><path d="M266.53,128.38 L266.43,128.28 L266.29,128.37 L266.09,128.75 "/><path d="M265.64,131.22 L265.83,130.64 L266.05,129.52 "/><path d="M265.67,130.52 L265.83,129.59 L266.09,128.75 "/><path d="M265.53,127.09 L265.78,125.70 L265.92,125.35 L266.17,125.07 "/><path d="M266.02,126.68 L265.87,127.11 L265.75,127.19 L265.70,126.96 L265.77,126.32 L265.91,125.87 L266.04,125.72 L266.11,126.06 L266.02,126.68 "/><path d="M266.78,126.44 L266.92,126.18 L266.58,126.12 L266.68,126.40 L266.78,126.44 "/><path d="M269.97,117.55 L270.14,117.53 L270.30,117.26 L269.79,117.17 "/><path d="M266.58,126.12 L266.49,125.87 "/><path d="M267.09,115.83 L267.28,116.20 L267.73,116.41 L267.75,116.77 "/><path d="M267.73,116.41 L269.92,116.82 L269.80,117.15 "/><path d="M269.30,119.91 L268.79,119.81 "/><path d="M269.48,119.12 L268.97,119.02 "/><path d="M269.57,117.44 L270.08,117.53 "/><path d="M269.01,115.29 L268.98,114.94 L269.09,114.77 L269.26,114.64 L269.72,114.52 L270.17,114.63 L270.33,114.76 L270.42,114.93 L270.41,115.22 "/><path d="M269.96,118.12 L269.82,118.26 L269.67,118.76 L269.62,119.39 L269.69,119.54 "/><path d="M270.30,117.26 L274.14,107.08 L274.20,106.84 L273.69,106.74 "/><path d="M269.92,116.82 L272.33,110.44 "/><path d="M270.21,112.10 L270.19,111.75 L270.29,111.58 L270.68,111.36 L270.92,111.33 L271.17,111.36 L271.54,111.57 L271.63,111.74 L271.61,112.02 "/><path d="M271.78,117.32 L271.80,117.14 L271.70,117.11 "/><path d="M271.80,117.13 L274.53,109.92 "/><path d="M271.53,117.45 L271.69,117.12 "/><path d="M271.78,117.30 L272.12,116.41 L271.87,117.07 "/><path d="M272.12,116.41 L272.39,115.70 "/><path d="M272.08,116.41 L273.90,111.69 "/><path d="M275.28,99.06 L275.22,99.35 L272.78,98.94 L272.34,99.13 L272.21,99.32 "/><path d="M274.07,107.30 L273.55,107.21 "/><path d="M274.78,101.46 L274.31,101.53 L273.80,101.23 L273.62,100.83 L273.78,100.43 "/><path d="M273.04,98.95 L273.19,98.68 "/><path d="M274.20,106.84 L275.88,98.72 L275.37,98.63 "/><path d="M274.83,101.22 L274.53,102.66 "/><path d="M274.95,100.67 L275.22,99.35 "/><path d="M276.44,99.91 L276.27,100.05 L276.22,99.54 L276.40,98.64 L276.62,98.29 L276.70,98.48 L276.69,98.96 L276.44,99.91 "/><path d="M276.93,96.14 L276.67,96.39 L276.39,96.96 L275.88,98.72 "/><path d="M276.97,103.51 L277.16,99.35 "/><path d="M277.01,102.72 L277.14,99.78 "/><path d="M277.13,99.37 L277.12,99.26 "/><path d="M277.15,99.30 L277.11,99.30 "/><path d="M277.15,99.34 L277.12,99.34 "/></g><g style="stroke:#000000;stroke-width:0.529"><path d="M263.87,138.79 C264.18,138.02 264.18,138.01 264.45,137.23 C264.68,136.14 264.66,136.13 264.88,135.04 C264.99,134.71 264.99,134.70 265.12,134.38 "/><path d="M265.38,134.25 C266.75,130.65 266.76,130.64 268.10,127.03 C268.23,126.48 268.20,126.47 268.33,125.91 C269.91,121.68 269.91,121.67 271.53,117.45 "/><path d="M271.78,117.32 C273.16,113.71 273.16,113.71 274.51,110.10 C274.63,109.54 274.60,109.53 274.73,108.98 C275.52,106.84 275.53,106.84 276.34,104.71 C276.65,104.11 276.65,104.11 276.97,103.51 "/><path d="M276.97,103.51 C277.04,101.38 277.04,101.38 277.12,99.25 C277.21,98.27 277.22,98.27 277.31,97.30 C277.30,96.96 277.30,96.96 277.27,96.62 C277.21,96.42 277.21,96.41 277.14,96.22 "/><path d="M265.00,127.20 L263.47,126.95 L263.19,127.00 L262.76,127.26 L260.72,132.55 L260.76,133.31 L261.10,133.62 L263.64,134.12 L263.25,135.47 L263.02,135.76 L262.52,136.10 L259.19,135.52 L258.76,135.70 L258.49,136.19 L258.39,141.82 L258.55,142.26 L258.97,142.59 L261.45,143.08 L261.71,143.09 L262.14,142.92 L262.46,142.22 L262.48,139.47 L263.16,139.38 L263.52,139.20 L263.87,138.79 "/><path d="M265.12,134.38 L265.38,134.25 "/><path d="M271.53,117.45 L271.78,117.32 "/><path d="M277.14,96.22 L276.44,96.05 L276.16,96.30 L275.61,97.67 L275.28,99.06 L272.92,98.66 L272.49,98.85 L272.22,99.29 L272.09,101.47 L272.23,101.93 L272.65,102.28 L272.91,102.36 L274.53,102.66 "/><path d="M259.94,141.56 L260.27,141.82 L260.50,141.89 L260.73,141.90 L261.06,141.76 L260.89,141.32 L260.70,141.17 L260.24,141.02 L259.79,141.17 L259.94,141.56 "/><path d="M262.73,132.04 L262.60,132.23 L262.92,132.49 L263.15,132.55 L263.63,132.49 L264.00,132.15 L263.74,131.90 L263.34,131.81 L263.09,131.84 L262.73,132.04 "/><path d="M264.91,128.69 L264.30,128.65 L264.08,128.74 L263.81,129.03 L263.94,129.19 L264.36,129.36 L264.87,129.28 "/><path d="M264.87,129.28 L264.91,128.69 "/><path d="M269.80,117.15 L269.63,117.44 L269.48,117.44 L269.39,117.55 L269.25,117.84 L268.79,119.81 L266.49,125.87 L266.17,125.07 L265.66,124.97 L265.54,125.03 L265.16,126.05 L265.00,127.20 "/><path d="M269.80,117.15 L267.50,116.69 L267.19,116.41 L267.11,116.18 L267.12,115.62 L269.17,110.33 L269.36,110.17 L269.87,110.02 L272.33,110.44 L273.62,106.99 L274.53,102.66 "/><path d="M269.01,115.29 L269.33,115.56 L269.80,115.61 L270.23,115.44 L270.41,115.22 L270.14,114.97 L269.74,114.87 L269.28,114.99 L269.01,115.29 "/><path d="M270.73,112.42 L270.34,112.26 L270.22,112.10 L270.49,111.80 L270.70,111.71 L271.19,111.71 L271.40,111.80 L271.61,112.02 L271.24,112.36 L270.73,112.42 "/><path d="M274.95,100.67 L274.59,100.36 L274.36,100.29 L273.92,100.34 L273.78,100.43 L273.82,100.76 L274.12,101.11 L274.58,101.26 L274.83,101.22 "/><path d="M274.95,100.67 L274.83,101.22 "/></g></g><g id="Actor_.2"><g style="stroke:#000000;stroke-width:0.176"><path d="M23.23,83.79 C23.28,84.12 23.28,84.12 23.30,84.46 C23.25,85.02 23.24,85.02 23.17,85.59 C23.04,86.10 23.04,86.11 22.89,86.62 C22.74,86.89 22.74,86.89 22.58,87.15 "/><path d="M26.31,74.79 C26.32,74.60 26.32,74.60 26.33,74.40 C26.37,74.17 26.36,74.17 26.41,73.94 C26.50,73.73 26.51,73.73 26.61,73.53 "/><path d="M33.03,55.46 C33.12,55.33 33.12,55.33 33.19,55.19 C33.27,54.93 33.27,54.93 33.34,54.66 C33.37,54.38 33.37,54.38 33.40,54.10 "/><path d="M20.04,91.98 L20.03,94.37 "/><path d="M20.05,90.97 L20.17,91.40 L20.44,91.79 L20.94,92.17 L20.91,95.23 "/><path d="M20.09,90.53 L20.56,90.62 L21.30,87.78 L20.79,87.68 "/><path d="M20.60,91.05 L20.61,90.62 L20.60,91.05 L20.69,91.36 L21.08,91.85 L20.94,92.17 L24.27,92.81 L24.69,93.14 L24.85,93.58 L24.99,93.26 "/><path d="M21.08,91.85 L21.29,91.89 "/><path d="M20.59,91.01 L20.59,90.90 "/><path d="M21.30,87.78 L21.40,87.45 L20.89,87.36 "/><path d="M21.40,87.45 L21.84,86.31 L21.33,86.21 "/><path d="M21.53,85.23 L22.04,85.32 L21.84,86.31 "/><path d="M22.28,97.64 L22.13,97.91 L22.15,98.11 L22.24,98.30 L22.60,98.60 L22.84,98.67 L23.28,98.63 L23.44,98.52 L23.55,98.23 "/><path d="M24.82,82.26 L22.09,89.48 L22.17,89.55 L22.61,89.68 L22.96,89.66 L25.37,83.28 "/><path d="M21.99,89.45 L22.09,89.47 "/><path d="M21.85,89.70 L21.99,89.46 "/><path d="M22.79,84.16 L22.98,83.78 L23.12,83.69 L23.23,83.79 "/><path d="M22.58,87.15 L22.45,87.15 L22.33,86.63 "/><path d="M22.04,85.32 L22.27,82.03 L22.61,80.76 L22.86,80.48 "/><path d="M22.70,82.17 L22.57,82.52 L22.45,82.60 L22.44,81.88 L22.61,81.28 L22.73,81.13 L22.81,81.47 L22.70,82.17 "/><path d="M22.22,82.50 L21.71,82.40 "/><path d="M26.05,90.58 L26.03,90.22 L23.01,89.67 L22.98,90.02 "/><path d="M26.48,72.58 L26.99,72.67 L26.84,72.94 L26.68,72.94 L26.60,73.04 L26.45,73.34 L25.99,75.32 L23.48,81.85 L23.37,81.80 L23.28,81.53 L23.62,81.59 "/><path d="M23.28,81.53 L23.19,81.28 "/><path d="M24.94,98.69 L24.79,99.01 L24.85,93.58 "/><path d="M24.79,99.01 L24.75,99.21 "/><path d="M24.95,97.57 L24.95,97.58 "/><path d="M24.00,92.73 L24.15,92.41 "/><path d="M25.98,88.51 L26.01,88.33 L25.83,88.00 L25.64,87.89 L25.17,87.83 L24.73,88.01 L24.60,88.16 L24.53,88.34 L24.59,88.60 "/><path d="M26.03,90.22 L26.57,90.19 L27.00,89.93 L27.12,89.74 L29.05,84.64 L29.07,84.99 "/><path d="M27.19,85.32 L27.22,85.14 L27.03,84.81 L26.85,84.70 L26.37,84.64 L25.94,84.82 L25.80,84.97 L25.74,85.15 L25.79,85.41 "/><path d="M25.67,74.43 L26.18,74.53 "/><path d="M25.99,75.32 L25.48,75.22 "/><path d="M26.27,72.85 L26.78,72.94 "/><path d="M27.12,89.74 L27.14,90.10 "/><path d="M26.67,74.18 L26.50,74.80 L26.38,74.95 L26.31,74.79 "/><path d="M26.61,73.53 L26.71,73.75 L26.67,74.18 "/><path d="M26.99,72.67 L30.83,62.49 L30.89,62.24 L30.38,62.15 "/><path d="M28.40,72.52 L28.49,72.54 "/><path d="M29.39,73.08 L29.37,72.74 L28.80,72.71 L28.50,72.54 L31.23,65.33 "/><path d="M28.39,72.52 L28.26,72.77 "/><path d="M29.05,84.64 L29.08,84.43 "/><path d="M31.78,66.35 L29.37,72.73 L32.43,73.29 L32.45,73.65 "/><path d="M30.76,62.71 L30.25,62.61 "/><path d="M30.99,71.66 L30.93,71.40 L31.00,71.23 L31.14,71.07 L31.57,70.90 L32.04,70.96 L32.23,71.07 L32.41,71.39 L32.38,71.58 "/><path d="M30.89,62.24 L32.58,54.13 L32.07,54.04 "/><path d="M32.43,73.29 L32.70,73.31 L33.22,73.15 L33.52,72.81 L35.49,67.50 "/><path d="M32.20,68.47 L32.14,68.21 L32.21,68.04 L32.35,67.88 L32.78,67.71 L33.02,67.71 L33.44,67.88 L33.62,68.20 L33.59,68.39 "/><path d="M33.40,54.10 L33.31,53.70 L33.14,53.94 L32.95,54.65 L32.93,55.36 L33.03,55.46 "/><path d="M32.58,54.13 L33.09,52.36 L33.37,51.80 L33.63,51.55 "/><path d="M33.52,72.81 L33.54,73.16 "/><path d="M33.67,58.92 L33.81,54.65 "/><path d="M34.54,58.67 L34.67,55.27 L33.83,54.78 "/><path d="M34.82,54.99 L34.67,55.27 L37.70,55.82 L38.23,56.06 L38.42,56.26 L38.56,56.72 L38.49,58.65 L38.63,58.38 "/><path d="M35.45,67.70 L35.47,68.06 "/><path d="M35.76,56.81 L35.60,57.20 L35.65,57.41 L35.95,57.77 L36.29,57.90 L36.63,57.89 L36.96,57.65 L37.02,57.46 "/><path d="M38.49,58.65 L38.44,58.87 "/><path d="M38.56,56.72 L38.71,56.45 "/><path d="M37.74,55.83 L37.88,55.55 "/></g><g style="stroke:#000000;stroke-width:0.529"><path d="M24.47,99.48 C24.21,99.53 24.20,99.53 23.94,99.55 C22.83,99.36 22.83,99.35 21.72,99.14 C21.59,99.10 21.59,99.10 21.46,99.06 "/><path d="M20.01,94.28 C20.02,92.41 20.02,92.40 20.09,90.53 C20.43,89.02 20.46,89.02 20.84,87.51 C21.14,86.62 21.18,86.63 21.46,85.74 C21.61,84.08 21.57,84.07 21.71,82.40 C21.83,81.72 21.83,81.71 21.97,81.03 C22.09,80.73 22.09,80.73 22.24,80.44 "/><path d="M23.19,81.28 C24.35,78.26 24.36,78.26 25.48,75.22 C25.73,74.24 25.71,74.23 25.94,73.25 C26.00,73.12 26.00,73.12 26.06,72.99 C26.11,72.92 26.12,72.92 26.17,72.85 "/><path d="M26.48,72.58 C28.43,67.63 28.44,67.62 30.25,62.61 C31.35,57.87 31.26,57.84 32.30,53.07 C32.56,52.39 32.56,52.38 32.86,51.71 "/><path d="M33.81,54.65 C34.09,54.71 34.09,54.71 34.37,54.78 C34.60,54.88 34.59,54.90 34.82,54.99 C36.35,55.28 36.36,55.26 37.88,55.55 C38.13,55.66 38.14,55.66 38.38,55.78 "/><path d="M33.67,58.92 C33.34,59.51 33.34,59.52 33.04,60.12 C32.22,62.25 32.22,62.25 31.43,64.39 C31.31,64.89 31.31,64.89 31.22,65.39 "/><path d="M28.26,72.77 C26.63,77.04 26.63,77.04 25.02,81.32 C24.93,81.66 24.93,81.66 24.85,82.00 C24.85,82.31 24.85,82.31 24.86,82.61 "/><path d="M26.59,90.55 C26.32,90.57 26.32,90.57 26.05,90.58 C24.19,90.27 24.19,90.27 22.34,89.94 C22.09,89.83 22.09,89.83 21.85,89.70 "/><path d="M24.95,97.58 L24.90,98.90 L24.63,99.38 L24.47,99.48 "/><path d="M21.46,99.06 L21.04,98.73 L20.88,98.29 L20.91,95.23 L20.24,94.85 L20.06,94.58 L20.01,94.28 "/><path d="M22.24,80.44 L22.35,80.38 L22.85,80.47 L23.19,81.28 "/><path d="M26.17,72.85 L26.33,72.84 L26.48,72.58 "/><path d="M32.86,51.71 L33.12,51.45 L33.84,51.62 L33.97,52.03 L33.96,53.60 L33.81,54.65 "/><path d="M38.38,55.78 L38.56,55.98 L38.71,56.45 L38.63,58.38 L38.31,59.06 L37.87,59.25 L34.32,58.65 L33.91,58.73 L33.67,58.92 "/><path d="M31.22,65.39 L31.37,65.91 L31.78,66.35 L34.84,66.91 L35.30,67.12 L35.44,67.34 L35.47,68.06 L33.54,73.16 L33.24,73.51 L32.73,73.66 L32.45,73.65 L28.74,73.01 L28.26,72.77 "/><path d="M24.86,82.61 L25.04,82.94 L25.37,83.28 L28.44,83.84 L28.89,84.05 L29.08,84.43 L29.07,84.99 L27.14,90.10 L27.02,90.29 L26.59,90.55 "/><path d="M21.85,89.70 L21.57,90.44 L21.29,91.89 L24.41,92.49 L24.65,92.64 L24.95,93.04 L24.95,97.57 "/><path d="M22.60,98.19 L22.98,98.36 L23.21,98.37 L23.42,98.32 L23.55,98.17 L23.50,97.98 L23.19,97.64 L22.73,97.49 L22.28,97.64 L22.36,97.94 L22.60,98.19 "/><path d="M22.35,86.12 L22.33,86.61 L22.66,85.49 L22.79,84.16 L22.52,84.99 L22.35,86.12 "/><path d="M24.62,88.52 L24.63,88.68 L24.79,88.82 L25.25,88.93 L25.71,88.81 L25.98,88.51 L25.85,88.36 L25.43,88.19 L24.95,88.25 L24.62,88.52 "/><path d="M26.00,85.62 L26.45,85.74 L26.70,85.71 L26.91,85.62 L27.19,85.32 L26.87,85.06 L26.39,85.00 L25.96,85.17 L25.82,85.33 L25.84,85.49 L26.00,85.62 "/><path d="M31.41,71.97 L31.20,71.88 L30.99,71.66 L31.16,71.43 L31.36,71.32 L31.59,71.26 L32.06,71.31 L32.38,71.57 L32.11,71.88 L31.89,71.96 L31.41,71.97 "/><path d="M32.62,68.78 L33.10,68.77 L33.32,68.69 L33.59,68.39 L33.27,68.12 L33.04,68.07 L32.56,68.13 L32.37,68.24 L32.20,68.48 L32.40,68.69 L32.62,68.78 "/><path d="M35.79,57.13 L35.92,57.33 L36.32,57.60 L36.78,57.61 L37.02,57.46 L36.93,57.07 L36.77,56.87 L36.34,56.66 L36.10,56.65 L35.76,56.81 L35.79,57.13 "/></g></g><g id="paperID" visibility="hidden" opacity="0.00" transform="scale(0.000100)"><path style="stroke:#000000;stroke-width:0.500;fill:#e6e6e6;fill-rule:evenodd" d="M-2000.00,-2000.00L2297.00,-2000.00L2297.00,2210.00L-2000.00,2210.00zM0.00,0.00L297.00,0.00L297.00,210.00L0.00,210.00z"/><path style="fill:#000000;fill-opacity:0.118" d="M3.00,210.00L297.00,210.00L297.00,3.00L300.00,3.00L300.00,213.00L3.00,213.00z"/></g><g id="ToolTip" visibility="hidden" opacity="0" transform="translate(0,0)"><rect id="ToolTipShadow" opacity="0.20" fill="black" stroke="none" x="0" y="0" width="30" height="8"/><rect id="ToolTipBG" fill="#ffffe1" stroke="black" x="0" y="0" width="30" height="8"/><text xml:space="preserve" id="ToolTipText" fill="black" x="0" y="0" width="30" height="8">tooltip</text></g></g></svg>
