<?xml version="1.0" encoding="UTF-8" standalone="no"?>
<svg xmlns="http://www.w3.org/2000/svg" xmlns:xlink="http://www.w3.org/1999/xlink" width="297.000mm" height="210.000mm" viewBox="0.000000 0.000000 297.000000 210.000000" stroke-linejoin="round" stroke-linecap="round" fill="none" fill-rule="evenodd"><desc>Composer Export</desc><script type="text/ecmascript"><![CDATA[
if(typeof(top) != "undefined")
{
	top.ShowPaper = ShowPaper;
}
function ShowHotSpot(evt,hotspotid)
{
	var svgDocument = evt.target.ownerDocument;
	var strId = "hotspot."+hotspotid;
	var hotspot = svgDocument.getElementById(strId);
	if(hotspot)
		hotspot.setAttribute("opacity",".5");
}
function HideHotSpot(evt,hotspotid)
{
	var svgDocument = evt.target.ownerDocument;
	var strId = "hotspot."+hotspotid;
	var hotspot = svgDocument.getElementById(strId);
	if(hotspot)
		hotspot.setAttribute("opacity","0");

	var toolTip = svgDocument.getElementById('ToolTip');
	if(toolTip)
		toolTip.setAttribute("visibility","hidden");
}
function ShowToolTip(evt,hotspotid,strTooltip)
{
	if(strTooltip=="")
	return;

	// change text
	var svgDocument = evt.target.ownerDocument;
	var tiptext = svgDocument.getElementById('ToolTipText');
	if( !tiptext )
	return;
	tiptext.firstChild.nodeValue = " " + strTooltip + "  " ;

	// show tooltip before, else some refresh issue

	var toolTip = svgDocument.getElementById('ToolTip');
	if(!toolTip)
	return;

	toolTip.setAttribute("visibility","visible");
	toolTip.setAttribute("opacity",".95");

	// move tooltip
	// get viewbox

	var root = svgDocument.documentElement;
	var vbox = (root.getAttribute("viewBox")).split(' ');
	var x0 = parseFloat(vbox[0]);
	var y0 = parseFloat(vbox[1]);
	var vboxW = parseFloat(vbox[2]);
	var vboxH = parseFloat(vbox[3]);

	// get default width of svg

	var strW = root.getAttribute("width");
	var svgW = parseFloat(strW);
	if(strW.indexOf('mm') != -1)
	svgW *= 3.779;

	var strH = root.getAttribute("height");
	var svgH = parseFloat(strH);
	if(strH.indexOf('mm') != -1)
	svgH *= 3.779;  	// 96 dpi  -> 96/25.4 = 3.779

	// update the viewbox / width / height if svg is embedded in html with zoom fit all
	var realx0 = x0;
	var realy0 = y0;
	var realvboxW = vboxW;
	var realvboxH = vboxH;
	var realsvgW = svgW;
	var realsvgH = svgH;

	if ((typeof(top) == "undefined") || (typeof(top.svgctl1) != "undefined")) // embedded in html
	{
		// get window size in pxl

		svgW = window.innerWidth;
		svgH = window.innerHeight;

		// calculate real viewbox

		realsvgW = svgW;
		realsvgH = svgH;
		if((svgW / svgH) > (vboxW / vboxH))
		{
			realvboxW = (vboxH * svgW) / svgH;
			realvboxH = vboxH;
			realx0 = x0 - (realvboxW - vboxW)/2 ;
		}
		else
		{
			realvboxH = (vboxW * svgH) / svgW;
			realvboxW = vboxW;
			realy0 = y0 - (realvboxH - vboxH)/2 ;
		}
	}

	// get user zoom/pan

	var newScale = root.currentScale;
	var translation = root.currentTranslate;

	// transform pxl to user unit

	var xPos = (((evt.clientX+10- translation.x)/newScale) * realvboxW)/realsvgW  + realx0 ;
	var yPos = (((evt.clientY+5- translation.y)/newScale) * realvboxH)/ realsvgH  + realy0 ;
	var scaleForWidth = ( (1 / newScale) * realvboxH) / realsvgH;

	// move tooltip

	toolTip.setAttribute("transform", "translate(" + xPos + "," + yPos + ")" );

	// resize tooltip

	var fontsize = 12;
	tiptext.setAttribute("font-size",fontsize*scaleForWidth);
	tiptext.setAttribute("y", fontsize*scaleForWidth);
	var tipBG = svgDocument.getElementById('ToolTipBG');
	var outline = tiptext.getBBox();
	if(tipBG)
	{
		tipBG.setAttribute("stroke-width", 1*scaleForWidth);
		tipBG.setAttribute("width", Number(outline.width) );
		tipBG.setAttribute("height", Number(outline.height) + fontsize*.5*scaleForWidth );
	}
	var ToolTipShadow = svgDocument.getElementById('ToolTipShadow');
	if(ToolTipShadow)
	{
		ToolTipShadow.setAttribute("width", Number(outline.width) );
		ToolTipShadow.setAttribute("height", Number(outline.height) + fontsize*.5*scaleForWidth );
		ToolTipShadow.setAttribute("x", 3*scaleForWidth);
		ToolTipShadow.setAttribute("y", 3*scaleForWidth);
	}
}
function ShowPaper()
{
  var svgDocument = getDocument();
  var paper = svgDocument.getElementById("paperID");
  if(paper)
  {
    paper.setAttribute("transform","scale(1)");
    paper.setAttribute("opacity","1");
    paper.setAttribute("visibility","visible");
  }
  var svg = svgDocument.getRootElement();
  if(svg)
  {
    svg.setAttribute("width","307.000mm");
    svg.setAttribute("height","220.000mm");
    svg.setAttribute("viewBox","-5.000000 -5.000000 307.000000 220.000000");
  }
}
]]></script><defs/><g><path style="fill:#ffffff" d="M126.84,67.90L124.38,67.78L123.25,67.77L122.51,67.93L62.97,108.75L60.17,112.29L59.49,114.15L59.50,116.11L59.62,117.21L59.78,118.02L59.90,118.86L60.06,119.67L60.18,120.51L60.33,121.62L60.45,122.45L60.61,123.27L60.82,124.49L61.22,124.97L61.41,125.28L66.63,128.88L68.88,130.67L69.40,131.64L70.80,133.53L70.80,135.97L73.81,145.15L74.75,146.75L75.21,147.33L219.22,210.07L0.08,210.05L0.08,0.08L296.92,0.08L296.96,136.77L153.79,74.55L153.06,74.39L152.21,74.39L151.45,74.70L150.23,73.73L148.72,73.98L146.52,75.37L145.67,76.45L136.30,91.90L116.75,105.47L115.99,105.47L115.56,105.13L116.99,104.30L135.32,91.75L137.61,87.78L137.90,87.15L138.53,86.41L143.20,78.61L143.33,78.15L142.90,78.06L142.58,77.97L141.17,77.97L140.44,78.13L139.62,78.68L138.88,80.14L137.90,87.15L137.36,87.65L136.72,87.22L136.43,86.86L132.53,75.39L132.30,73.09L132.26,70.97L132.15,70.86L132.01,69.57L131.46,68.75L130.16,68.19L129.35,68.04L129.24,67.94z"/><path style="fill:#1a1a1a" d="M296.96,136.77L296.95,162.16L296.46,162.11L296.08,161.42L293.51,161.42L292.20,161.77L290.20,162.80L289.17,163.97L289.04,165.18L289.22,166.01L289.75,166.64L292.32,167.98L293.42,168.16L296.18,168.15L296.94,168.22L296.94,171.53L294.81,170.90L293.42,170.64L293.34,169.68L290.19,169.96L288.55,170.52L286.88,171.61L286.17,172.55L286.19,174.27L286.41,174.69L287.55,175.74L289.82,176.56L292.58,176.70L293.99,176.56L296.27,175.75L296.96,175.40L296.94,185.31L296.64,184.61L295.99,184.85L294.96,186.03L294.84,187.25L295.02,188.07L295.27,188.45L296.93,189.46L296.93,193.04L296.73,192.97L296.63,192.00L296.01,192.00L294.97,192.38L292.78,193.49L292.67,194.60L293.10,194.68L293.29,194.80L295.34,194.90L296.95,194.97L296.95,204.07L296.48,204.02L295.92,203.70L295.82,203.06L294.59,203.04L284.92,209.66L285.98,209.94L285.98,210.07L219.54,210.07L219.95,209.67L75.17,146.80L74.75,146.75L73.81,145.15L70.80,135.97L70.80,133.53L69.40,131.64L68.88,130.67L69.05,130.25L69.39,130.20L70.43,131.73L71.33,131.44L91.66,117.57L91.86,117.55L91.61,119.11L91.19,121.53L90.64,122.35L88.03,124.15L83.36,130.52L83.07,133.76L82.78,138.18L82.89,139.10L83.48,139.89L83.34,143.68L83.22,145.87L83.23,148.08L84.03,149.27L87.86,150.95L89.18,150.97L89.70,150.59L90.07,150.48L90.36,149.65L91.07,139.55L91.21,136.32L90.92,135.68L90.39,134.91L88.45,133.75L89.27,132.29L91.20,131.10L91.75,132.17L92.96,132.97L93.36,133.30L99.85,135.89L101.39,135.58L111.50,128.59L111.66,127.69L111.63,126.91L107.73,125.02L106.34,124.48L105.77,123.94L105.56,123.01L105.78,121.50L107.09,120.05L122.83,109.26L123.15,109.28L124.66,110.91L130.88,113.73L131.79,113.83L133.31,113.73L143.61,106.66L143.64,105.61L143.36,104.83L138.08,102.38L137.56,101.23L137.77,99.44L138.81,98.27L147.08,92.75L149.55,91.91L150.86,91.77L151.58,91.93L156.80,94.15L158.12,94.15L158.29,93.98L159.04,93.40L159.57,90.08L159.57,87.22L159.42,87.07L159.04,86.39L153.53,83.90L152.26,83.01L151.01,82.26L150.99,81.82L151.86,79.61L152.11,77.84L151.56,75.11L151.45,74.70L152.21,74.39L153.06,74.39L153.79,74.55z"/><path style="fill:#ffffff" d="M95.95,111.76L95.24,112.05L94.52,112.72L93.58,114.26L92.29,120.69L91.62,122.51L88.64,124.77L84.55,130.32L84.55,131.65L85.12,132.45L87.59,133.58L88.45,133.75L90.39,134.91L90.92,135.68L90.35,135.85L90.27,139.36L89.70,150.59L89.18,150.97L87.86,150.95L84.03,149.27L83.23,148.08L83.22,145.87L83.34,143.68L83.48,139.89L82.89,139.10L82.78,138.18L83.07,133.76L83.36,130.52L88.03,124.15L90.64,122.35L91.19,121.53L91.61,119.11L91.86,117.55L92.32,115.27L93.03,113.16L93.85,112.05L94.69,111.48L95.31,111.47z"/><path style="fill:#1a1a1a" d="M129.35,68.04L130.16,68.19L124.18,68.20L123.37,68.49L66.28,107.65L63.77,109.55L61.39,112.41L60.56,114.33L60.58,117.02L61.72,124.56L61.22,124.97L60.82,124.49L60.61,123.27L60.58,122.54L60.45,122.45L60.33,121.62L60.30,120.60L60.18,120.51L60.06,119.67L60.03,118.95L59.90,118.86L59.78,118.02L59.75,117.30L59.62,117.21L59.50,116.11L59.49,114.15L60.17,112.29L62.97,108.75L122.51,67.93L123.25,67.77L124.38,67.78L126.84,67.90z"/><path style="fill:#e5e5e5" d="M151.45,74.70L151.56,75.11L152.11,77.84L151.86,79.61L150.99,81.82L151.01,82.26L152.26,83.01L151.87,83.47L150.86,91.77L149.55,91.91L147.08,92.75L138.81,98.27L137.77,99.44L137.56,101.23L124.72,109.89L124.71,110.18L125.67,110.69L124.66,110.91L123.15,109.28L122.83,109.26L107.09,120.05L105.78,121.50L105.56,123.01L92.82,131.75L92.81,132.17L93.71,132.57L92.96,132.97L91.75,132.17L91.20,131.10L89.27,132.29L88.45,133.75L87.59,133.58L85.12,132.45L84.55,131.65L84.55,130.32L88.64,124.77L91.62,122.51L92.29,120.69L93.58,114.26L94.52,112.72L95.24,112.05L95.95,111.76L96.69,112.06L97.57,113.63L97.79,114.28L99.00,116.70L99.19,117.05L99.89,117.02L112.32,108.46L113.81,105.81L115.01,105.02L115.56,105.13L115.99,105.47L116.75,105.47L136.30,91.90L145.67,76.45L146.52,75.37L148.72,73.98L150.23,73.73z"/><path style="fill:#e5e5e5" d="M86.32,147.35L86.24,147.54L85.69,147.71L85.36,147.39L85.36,146.61L85.84,145.94L86.05,145.92z"/><path style="fill:#ffffff" d="M153.53,83.90L159.04,86.39L159.42,87.07L159.02,87.34L159.02,89.25L158.29,93.98L158.12,94.15L156.80,94.15L151.58,91.93L150.86,91.77L151.87,83.47L152.26,83.01z"/><path style="fill:#171717" d="M131.46,68.75L132.01,69.57L132.15,70.86L132.30,73.09L132.53,75.39L136.43,86.86L136.05,86.94L98.79,112.57L97.57,113.63L96.69,112.06L95.95,111.76L95.31,111.47L94.69,111.48L93.85,112.05L93.03,113.16L92.32,115.27L91.86,117.55L91.66,117.57L71.33,131.44L70.43,131.73L69.39,130.20L69.05,130.25L68.88,130.67L66.63,128.88L61.41,125.28L61.22,124.97L61.72,124.56L60.58,117.02L60.56,114.33L61.39,112.41L63.77,109.55L66.28,107.65L123.37,68.49L124.18,68.20L130.16,68.19z"/><path style="fill:#171717" d="M86.93,146.15L86.92,146.98L86.32,147.35L86.05,145.92L86.77,145.94z"/><path style="fill:#171717" d="M296.46,162.11L294.51,162.36L292.88,162.66L290.44,163.86L289.22,165.20L289.04,165.18L289.17,163.97L290.20,162.80L292.20,161.77L293.51,161.42L296.08,161.42z"/><path style="fill:#171717" d="M281.84,165.67L279.07,165.95L277.59,166.46L275.57,167.47L275.00,168.27L274.59,169.31L274.55,167.55L275.86,166.11L277.53,165.29L279.72,164.73L281.75,164.72z"/><path style="fill:#171717" d="M293.42,170.64L291.19,170.90L288.26,171.89L287.00,172.83L286.19,174.27L286.17,172.55L286.88,171.61L288.55,170.52L290.19,169.96L293.34,169.68z"/><path style="fill:#171717" d="M278.80,174.23L276.04,174.50L274.56,175.01L272.79,176.00L271.58,177.60L271.42,176.88L272.23,175.16L274.48,173.83L276.41,173.28L278.72,173.27z"/><path style="fill:#171717" d="M290.63,179.20L288.17,179.46L285.79,180.17L284.24,181.10L283.27,182.55L283.40,180.82L285.52,179.07L287.16,178.51L290.29,178.24z"/><path style="fill:#171717" d="M276.07,182.48L274.38,182.76L272.75,183.07L270.90,183.76L269.62,184.68L268.81,186.13L268.79,184.40L270.35,182.93L272.28,182.10L273.38,181.82L275.96,181.83z"/><path style="fill:#171717" d="M287.63,187.73L284.86,188.01L283.39,188.52L281.37,189.54L280.39,191.09L280.34,189.61L281.65,188.17L283.32,187.35L285.51,186.79L287.54,186.78z"/><path style="fill:#171717" d="M296.73,192.97L294.06,193.95L293.10,194.68L292.67,194.60L292.78,193.49L294.97,192.38L296.01,192.00L296.63,192.00z"/><path style="fill:#171717" d="M295.92,203.70L295.07,204.02L285.98,209.94L284.92,209.66L294.59,203.04L295.82,203.06z"/><path style="fill:#1a1a1a" d="M143.20,78.61L138.53,86.41L137.90,87.15L138.88,80.14L139.62,78.68L140.44,78.13L141.17,77.97L142.58,77.97L142.90,78.06z"/><path style="fill:#1a1a1a" d="M136.72,87.22L137.36,87.65L137.61,87.78L135.32,91.75L116.99,104.30L115.56,105.13L115.01,105.02L114.72,104.73L114.62,104.59L113.90,104.74L112.68,105.78L111.87,107.46L111.07,108.31L99.00,116.70L97.79,114.28L97.57,113.63L98.79,112.57L136.05,86.94L136.43,86.86z"/><path style="fill:#1a1a1a" d="M155.88,89.59L156.13,90.22L155.99,90.39L155.15,90.27L154.99,89.72L155.74,89.40z"/><path style="fill:#1a1a1a" d="M87.21,147.20L87.48,148.11L87.33,148.30L86.79,148.20L86.24,147.54L86.32,147.35L86.92,146.98L87.12,147.02z"/><path style="fill:#e5e5e5" d="M153.96,88.90L154.26,88.06L154.97,87.97L154.75,89.65L154.27,89.84z"/><path style="fill:#e5e5e5" d="M91.21,136.32L91.07,139.55L90.36,149.65L90.07,150.48L89.70,150.59L90.27,139.36L90.35,135.85L90.92,135.68z"/><path style="fill:#ffffff" d="M149.15,78.95L149.12,79.59L148.18,81.44L147.09,81.54L146.78,80.35L147.59,78.63L147.91,78.35L148.37,78.58L148.19,78.70L148.26,79.34L148.37,78.58L148.85,78.63z"/><path style="fill:#ffffff" d="M138.08,102.38L143.36,104.83L143.64,105.61L133.85,112.34L131.91,113.17L131.79,113.83L130.88,113.73L124.66,110.91L125.67,110.69L124.71,110.18L124.72,109.89L137.56,101.23z"/><path style="fill:#ffffff" d="M105.77,123.94L106.34,124.48L107.73,125.02L111.63,126.91L111.66,127.69L101.32,134.69L99.91,134.93L99.85,135.89L93.36,133.30L92.96,132.97L93.71,132.57L92.81,132.17L92.82,131.75L105.56,123.01z"/><path style="fill:#ffffff" d="M289.22,166.01L289.22,165.20L290.44,163.86L292.88,162.66L294.51,162.36L296.95,162.43L296.93,167.93L296.18,168.15L293.42,168.16L292.32,167.98L289.75,166.64z"/><path style="fill:#ffffff" d="M296.94,171.53L296.96,175.40L296.27,175.75L293.99,176.56L292.58,176.70L289.82,176.56L287.55,175.74L286.41,174.69L286.19,174.27L287.00,172.83L288.26,171.89L291.19,170.90L294.81,170.90z"/><path style="fill:#ffffff" d="M292.04,179.46L294.95,180.74L295.55,181.55L295.46,182.39L294.15,183.85L290.67,185.11L288.74,185.24L287.33,185.11L284.80,184.28L283.97,183.73L283.27,182.55L284.24,181.10L285.79,180.17L288.17,179.46L290.63,179.20z"/><path style="fill:#ffffff" d="M279.26,183.48L281.01,184.81L281.08,185.60L280.39,186.62L278.89,187.61L276.42,188.45L273.02,188.56L271.91,188.39L269.35,187.04L268.81,186.13L269.62,184.68L270.90,183.76L272.75,183.07L274.38,182.76L276.89,182.76z"/><path style="fill:#ffffff" d="M293.10,194.68L294.06,193.95L296.73,192.97L296.93,193.04L296.95,194.69L295.34,194.90L293.29,194.80z"/><path style="fill:#000020" d="M129.35,68.04L126.84,67.90L129.24,67.94z"/><path style="fill:#000020" d="M132.30,73.09L132.15,70.86L132.26,70.97z"/><path style="fill:#000020" d="M142.90,78.06L143.33,78.15L143.20,78.61z"/><path style="fill:#000020" d="M148.26,79.34L148.19,78.70L148.37,78.58z"/><path style="fill:#000020" d="M137.61,87.78L137.36,87.65L137.90,87.15z"/><path style="fill:#000020" d="M155.88,89.59L156.29,89.17L156.29,90.09L156.13,90.22z"/><path style="fill:#000020" d="M114.72,104.73L113.90,104.74L114.62,104.59z"/><path style="fill:#000020" d="M113.66,108.38L113.56,108.66L113.41,107.94L113.53,107.82z"/><path style="fill:#000020" d="M59.78,118.02L59.62,117.21L59.75,117.30z"/><path style="fill:#000020" d="M60.06,119.67L59.90,118.86L60.03,118.95z"/><path style="fill:#000020" d="M60.33,121.62L60.18,120.51L60.30,120.60z"/><path style="fill:#000020" d="M60.61,123.27L60.45,122.45L60.58,122.54z"/><path style="fill:#000020" d="M87.34,146.47L87.12,147.02L86.92,146.98L86.93,146.15z"/><path style="fill:#000020" d="M87.21,147.20L87.62,147.09L87.48,148.11z"/><path style="fill:#000020" d="M296.95,162.43L294.51,162.36L296.46,162.11L296.95,162.16z"/><path style="fill:#000020" d="M289.22,166.01L289.04,165.18L289.22,165.20z"/><path style="fill:#000020" d="M296.94,168.22L296.18,168.15L296.93,167.93z"/><path style="fill:#000020" d="M294.81,170.90L291.19,170.90L293.42,170.64z"/><path style="fill:#000020" d="M276.89,182.76L274.38,182.76L276.07,182.48z"/><path style="fill:#000020" d="M281.08,185.60L281.01,184.81L281.19,184.88z"/><path style="fill:#000020" d="M295.02,188.07L294.84,187.25L295.01,187.26z"/><path style="fill:#000020" d="M296.95,194.97L295.34,194.90L296.95,194.69z"/><path style="fill:#000020" d="M296.48,204.02L295.07,204.02L295.92,203.70z"/><path style="fill:#171717" d="M155.74,89.40L154.99,89.72L154.75,89.65L154.97,87.97L155.45,88.05z"/><path style="fill:#171717" d="M138.16,105.87L138.72,106.25L138.64,106.37L136.69,106.20L138.13,105.63z"/><path style="fill:#171717" d="M132.10,110.01L132.65,110.38L130.78,110.48L130.65,110.31L132.07,109.76z"/><path style="fill:#171717" d="M95.23,114.45L95.05,114.93L94.36,115.54L94.46,114.05L94.86,113.54z"/><path style="fill:#171717" d="M106.19,128.24L105.03,128.31L104.49,128.02L106.19,127.66z"/><path style="fill:#171717" d="M100.12,132.38L98.96,132.44L98.43,132.15L100.12,131.80z"/><path style="fill:#171717" d="M219.95,209.67L219.54,210.07L219.22,210.07L75.21,147.33L74.75,146.75L75.17,146.80z"/><path style="fill:#171717" d="M296.94,185.31L296.92,185.60L296.22,185.91L295.01,187.26L294.84,187.25L294.96,186.03L295.99,184.85L296.64,184.61z"/><path style="fill:#1a1a1a" d="M138.91,105.99L138.72,106.25L138.16,105.87L138.13,105.63z"/><path style="fill:#1a1a1a" d="M114.37,107.75L113.66,108.38L113.53,107.82L113.93,106.75L114.46,106.49z"/><path style="fill:#1a1a1a" d="M132.84,110.13L132.65,110.38L132.10,110.01L132.07,109.76z"/><path style="fill:#1a1a1a" d="M97.34,121.13L97.26,123.18L96.97,124.00L95.84,125.90L94.04,126.92L93.63,126.42L93.65,123.71L94.65,121.67L95.78,120.60L96.75,120.33z"/><path style="fill:#1a1a1a" d="M106.95,128.03L106.19,128.24L106.19,127.66z"/><path style="fill:#1a1a1a" d="M101.07,132.16L100.12,132.38L100.12,131.80L101.12,131.90z"/><path style="fill:#e5e5e5" d="M159.02,87.34L159.42,87.07L159.57,87.22L159.57,90.08L159.04,93.40L158.29,93.98L159.02,89.25z"/><path style="fill:#e5e5e5" d="M138.13,105.63L136.69,106.20L136.29,106.07L136.41,105.26L137.14,104.87L138.08,104.86z"/><path style="fill:#e5e5e5" d="M130.33,109.40L131.07,109.00L132.01,109.00L132.07,109.76L130.65,110.31L130.31,110.12z"/><path style="fill:#e5e5e5" d="M143.61,106.66L133.31,113.73L131.79,113.83L131.91,113.17L133.85,112.34L143.64,105.61z"/><path style="fill:#e5e5e5" d="M106.19,127.66L104.49,128.02L104.28,127.50L104.87,126.93L106.09,126.93z"/><path style="fill:#e5e5e5" d="M100.12,131.80L98.43,132.15L98.21,131.64L98.80,131.07L100.02,131.07z"/><path style="fill:#e5e5e5" d="M111.50,128.59L101.39,135.58L99.85,135.89L99.91,134.93L101.32,134.69L111.66,127.69z"/><path style="fill:#00001c" d="M94.86,113.54L95.41,113.37L95.23,114.45z"/><path style="fill:#00001c" d="M106.07,128.42L105.03,128.31L106.19,128.24z"/><path style="fill:#00001c" d="M100.00,132.56L98.96,132.44L100.12,132.38z"/><path style="fill:#ffffff" d="M115.45,107.19L114.63,108.85L113.80,109.06L113.56,108.66L113.66,108.38L114.37,107.75L114.46,106.49L114.91,106.49z"/><path style="fill:#ffffff" d="M96.19,113.68L96.17,114.64L95.21,115.92L94.49,115.95L94.36,115.54L95.05,114.93L95.23,114.45L95.41,113.37L95.90,113.37z"/><path style="fill:#ffffff" d="M99.00,116.70L111.07,108.31L111.87,107.46L112.68,105.78L113.90,104.74L114.72,104.73L115.01,105.02L113.81,105.81L112.32,108.46L99.89,117.02L99.19,117.05z"/><path style="fill:#ffffff" d="M98.08,121.43L98.01,123.93L96.97,125.93L95.80,126.97L94.04,126.92L95.84,125.90L96.97,124.00L97.26,123.18L97.34,121.13z"/><path style="fill:#ffffff" d="M285.88,166.93L286.98,168.28L286.72,168.95L284.96,170.52L281.58,171.60L279.06,171.59L276.21,170.80L274.59,169.31L275.00,168.27L275.57,167.47L277.59,166.46L279.07,165.95L281.84,165.67L282.84,165.83z"/><path style="fill:#ffffff" d="M283.12,175.47L283.98,176.58L283.98,177.22L283.29,178.23L281.38,179.35L277.98,180.14L276.58,180.14L275.49,180.02L274.68,179.84L272.62,178.81L271.58,177.60L272.79,176.00L274.56,175.01L276.04,174.50L278.80,174.23L280.08,174.38z"/><path style="fill:#ffffff" d="M291.67,188.99L292.80,190.09L292.42,191.21L290.75,192.58L287.37,193.66L284.85,193.66L282.04,192.83L280.93,192.01L280.39,191.09L281.37,189.54L283.39,188.52L284.86,188.01L287.63,187.73L288.63,187.89z"/><path style="fill:#ffffff" d="M295.02,188.07L295.01,187.26L296.22,185.91L296.92,185.60L296.93,189.46L295.27,188.45z"/><path style="fill:#ffffff" d="M296.92,210.05L285.98,210.07L285.98,209.94L295.07,204.02L296.48,204.02L296.95,204.07z"/><g id="Actor_.0"><g style="stroke:#000000;stroke-width:0.176"><path d="M269.45,183.37 C271.03,182.52 271.05,182.52 272.67,181.74 C273.70,181.54 273.71,181.56 274.76,181.42 C275.80,181.43 275.81,181.43 276.86,181.48 "/><path d="M288.48,186.54 C287.43,186.48 287.42,186.48 286.37,186.47 C284.99,186.73 284.97,186.72 283.60,187.05 C282.32,187.70 282.31,187.70 281.07,188.42 "/><path d="M289.75,162.95 C290.44,162.45 290.44,162.44 291.16,161.98 C292.06,161.62 292.07,161.60 292.99,161.30 C294.99,161.13 295.00,161.13 297.00,161.04 "/><path d="M59.49,115.55 L60.30,115.90 L60.63,113.81 L61.71,111.75 L60.79,111.35 "/><path d="M60.42,115.95 L61.63,123.68 L60.70,123.28 "/><path d="M61.19,124.70 L61.92,124.46 L61.63,123.68 L132.38,75.16 "/><path d="M61.71,111.75 L63.46,109.59 L62.54,109.19 "/><path d="M68.05,129.56 L68.77,129.31 L61.92,124.46 L132.63,75.95 "/><path d="M63.42,108.36 L64.22,108.71 L63.46,109.59 "/><path d="M64.34,108.76 L123.20,68.40 L122.28,68.00 "/><path d="M68.77,129.31 L71.49,132.65 L71.02,133.34 "/><path d="M69.83,131.98 L92.04,116.99 "/><path d="M69.26,130.95 L69.98,130.70 "/><path d="M83.55,141.63 L71.03,136.16 "/><path d="M91.70,118.80 L71.49,132.65 L82.89,137.61 "/><path d="M74.07,145.20 L223.08,210.00 "/><path d="M75.68,147.26 L75.61,147.23 "/><path d="M87.44,148.21 L86.28,147.32 L86.24,145.63 "/><path d="M90.64,144.72 L240.76,210.00 "/><path d="M249.36,210.00 L90.88,141.08 "/><path d="M97.43,113.30 L136.33,86.62 "/><path d="M101.07,131.88 L99.77,131.58 L98.49,132.05 "/><path d="M97.96,114.50 L137.28,87.54 L137.62,87.69 "/><path d="M107.10,127.75 L105.79,127.45 L104.51,127.91 "/><path d="M123.20,68.40 L124.44,67.98 L123.52,67.58 "/><path d="M124.44,67.98 L130.69,68.34 L129.77,67.94 "/><path d="M130.48,110.11 L131.76,109.64 L133.07,109.94 "/><path d="M130.69,68.34 L131.37,68.59 "/><path d="M130.45,68.19 L130.50,68.26 "/><path d="M136.51,105.97 L137.61,105.53 L139.09,105.81 "/><path d="M138.15,85.99 L138.55,86.17 "/><path d="M140.36,78.13 L141.20,77.99 L143.11,78.64 "/><path d="M142.08,78.19 L142.87,77.93 "/><path d="M141.05,77.93 L141.15,77.86 "/><path d="M297.00,157.00 L148.07,92.24 "/><path d="M151.03,91.60 L297.00,155.07 "/><path d="M297.00,145.24 L150.98,81.74 "/><path d="M297.00,144.90 L151.09,81.45 "/><path d="M297.00,137.60 L152.92,74.95 L151.49,74.80 "/><path d="M152.92,74.95 L153.72,74.40 "/><path d="M155.04,87.63 L154.81,89.26 L155.95,90.37 "/><path d="M268.68,185.94 L268.63,184.75 L269.45,183.37 "/><path d="M276.86,181.48 L280.24,182.70 L281.15,183.72 L281.30,185.12 "/><path d="M284.20,176.62 L284.05,175.23 L283.14,174.20 L281.65,173.43 L277.65,172.92 L273.74,173.92 L272.35,174.87 L271.56,176.00 L271.58,177.44 "/><path d="M274.48,168.94 L274.45,167.54 L275.21,166.42 L276.63,165.42 L280.55,164.43 L284.39,164.89 L286.04,165.70 L286.95,166.73 L287.09,168.13 "/><path d="M292.91,190.17 L292.77,188.77 L291.86,187.75 L288.48,186.54 "/><path d="M281.07,188.42 L280.42,189.34 L280.30,190.99 "/><path d="M295.81,181.67 L295.67,180.28 L294.75,179.25 L293.27,178.48 L289.27,177.97 L285.53,178.90 L283.96,179.92 L283.24,180.96 L283.20,182.49 "/><path d="M284.05,210.00 L294.09,203.11 L294.18,204.11 "/><path d="M297.00,170.42 L294.27,169.54 L290.12,169.79 L286.86,171.43 L286.07,172.55 L286.10,173.99 "/><path d="M289.00,165.50 L288.97,164.10 L289.75,162.95 "/><path d="M292.83,194.44 L292.53,194.00 L292.84,193.33 L292.90,194.35 "/><path d="M292.84,193.33 L294.13,192.49 L297.00,191.66 "/><path d="M297.00,203.38 L296.97,202.86 L295.85,202.64 L294.09,203.11 "/><path d="M297.00,184.01 L294.93,185.90 L294.81,187.54 "/><path d="M296.97,202.86 L297.00,202.87 "/></g><g style="stroke:#000000;stroke-width:0.529"><path d="M60.10,112.46 C61.41,110.54 61.45,110.48 62.97,108.73 C92.53,88.26 92.61,88.33 122.28,68.00 C122.88,67.76 122.90,67.76 123.52,67.58 "/><path d="M291.92,188.77 C291.19,188.36 291.19,188.36 290.44,187.99 C289.50,187.75 289.49,187.74 288.54,187.55 C287.04,187.56 287.03,187.55 285.53,187.63 C284.02,188.02 284.01,188.02 282.52,188.48 "/><path d="M297.00,175.28 C295.33,175.92 295.32,175.93 293.62,176.49 C292.57,176.59 292.56,176.60 291.50,176.62 C289.66,176.24 289.65,176.24 287.83,175.77 "/><path d="M289.72,164.10 C290.45,163.53 290.46,163.52 291.22,162.99 C292.12,162.63 292.13,162.62 293.06,162.32 C295.02,162.15 295.03,162.14 297.00,162.05 "/><path d="M219.94,210.00 L75.68,147.27 L74.07,145.20 L71.00,136.18 L71.02,133.34 L68.17,129.67 L61.19,124.70 L59.48,114.75 L60.10,112.46 "/><path d="M123.52,67.58 L129.58,67.93 L131.37,68.59 L132.02,70.00 L132.45,75.55 L136.33,86.62 L137.28,87.54 L138.13,86.07 L139.13,79.38 L139.65,78.61 L141.05,77.90 L141.99,77.72 L143.40,78.16 "/><path d="M87.63,147.61 L86.84,145.87 "/><path d="M146.65,80.39 L146.94,81.01 "/><path d="M297.00,136.71 L153.72,74.40 L152.12,74.28 L151.46,74.73 "/><path d="M156.24,89.91 L155.66,89.20 L155.54,87.84 "/><path d="M269.48,187.05 L268.68,185.94 L269.48,184.43 L272.74,182.76 L275.21,182.44 L278.65,182.90 L280.10,183.61 L281.30,185.12 L279.88,187.05 L276.36,188.40 L272.06,188.31 L269.48,187.05 "/><path d="M271.77,177.80 L271.62,177.01 L272.42,175.89 L273.80,174.93 L277.51,173.97 L281.65,174.43 L283.20,175.21 L284.20,176.62 L282.73,178.61 L279.11,179.94 L275.21,179.84 L273.24,179.20 L271.77,177.80 "/><path d="M274.99,169.84 L277.86,171.31 L282.00,171.44 L285.53,170.16 L287.09,168.13 L286.10,166.72 L284.62,165.94 L280.62,165.44 L277.51,166.14 L275.31,167.39 L274.52,168.51 L274.99,169.84 "/><path d="M280.64,191.64 L281.96,192.75 L283.68,193.36 L287.83,193.49 L291.27,192.25 L292.91,190.17 L291.92,188.77 "/><path d="M282.52,188.48 L281.27,189.34 L280.39,190.49 L280.64,191.64 "/><path d="M283.20,182.49 L284.03,180.94 L285.42,179.98 L289.34,178.99 L293.34,179.49 L294.62,180.16 L295.81,181.67 L294.40,183.61 L290.72,184.99 L286.27,184.75 L284.86,184.25 L283.20,182.49 "/><path d="M285.60,210.00 L294.66,203.87 L297.00,203.86 "/><path d="M287.83,175.77 L286.10,173.99 L286.93,172.44 L290.12,170.82 L294.34,170.55 L297.00,171.39 "/><path d="M297.00,167.87 L292.41,167.87 L290.66,167.25 L289.00,165.50 L289.72,164.10 "/><path d="M297.00,194.62 L293.02,194.59 L294.20,193.50 L297.00,192.69 "/><path d="M297.00,189.49 L295.26,188.39 L294.81,187.54 L295.65,185.99 L297.00,185.06 "/></g></g><g id="Actor_.1"><g style="stroke:#000000;stroke-width:0.176"><path d="M90.26,135.81 C90.38,136.34 90.39,136.35 90.46,136.90 C90.05,143.35 90.03,143.35 89.59,149.80 C89.55,150.04 89.55,150.04 89.49,150.28 "/><path d="M97.95,120.84 C98.09,121.23 98.09,121.24 98.20,121.64 C98.22,122.19 98.22,122.19 98.21,122.74 C98.09,123.31 98.09,123.31 97.95,123.88 C97.69,124.49 97.68,124.49 97.40,125.08 C97.11,125.52 97.11,125.53 96.79,125.95 C96.42,126.31 96.42,126.32 96.02,126.66 C95.63,126.85 95.63,126.85 95.23,127.03 "/><path d="M100.03,116.70 C105.97,112.65 105.97,112.65 111.88,108.57 C112.25,108.18 112.25,108.17 112.59,107.75 C113.16,106.73 113.16,106.72 113.70,105.68 "/><path d="M136.37,91.49 C140.77,84.20 140.78,84.20 145.21,76.92 C145.80,76.10 145.80,76.09 146.43,75.30 C147.10,74.72 147.11,74.71 147.81,74.17 "/><path d="M83.68,139.74 L84.17,132.46 L83.53,131.57 L83.33,130.72 "/><path d="M82.84,138.49 L82.93,137.08 "/><path d="M89.90,134.31 L89.18,134.64 L84.17,132.46 L84.86,132.14 L84.70,131.79 L84.84,129.67 L88.45,124.79 L87.62,124.42 "/><path d="M84.70,131.79 L84.44,130.97 L84.51,130.32 L84.80,129.67 L84.01,129.22 "/><path d="M87.43,148.22 L87.15,148.47 L86.39,148.47 L85.69,147.87 L85.45,147.42 L85.32,146.93 L85.45,146.06 L85.68,145.77 L86.25,145.63 "/><path d="M84.89,132.13 L88.33,133.63 "/><path d="M88.45,124.79 L88.95,124.29 L88.12,123.93 "/><path d="M89.18,134.64 L89.98,135.31 L90.26,135.81 "/><path d="M89.49,150.28 L88.93,150.89 "/><path d="M88.95,124.29 L91.12,122.81 L90.28,122.44 "/><path d="M89.59,149.80 L90.32,149.47 "/><path d="M90.46,136.90 L91.18,136.57 "/><path d="M91.95,131.17 L91.23,130.85 L91.74,130.93 L92.67,131.88 L93.95,132.37 L94.01,133.29 "/><path d="M91.23,130.85 L91.15,130.86 "/><path d="M91.19,130.86 L91.97,131.20 L105.60,121.85 "/><path d="M91.12,122.81 L91.74,122.13 L92.18,121.03 L93.65,113.81 L94.73,112.19 L95.40,111.74 L96.05,111.60 L96.59,111.79 "/><path d="M91.35,120.67 L92.18,121.03 "/><path d="M92.52,114.41 L93.36,114.77 "/><path d="M99.02,135.47 L98.96,134.55 L94.03,132.40 L106.01,124.10 "/><path d="M96.78,120.11 L97.46,120.29 L97.95,120.84 "/><path d="M95.23,127.03 L94.50,127.02 L93.93,126.66 "/><path d="M95.33,112.98 L95.92,112.98 L96.13,113.22 L96.24,113.57 L96.13,114.51 L95.31,115.69 L94.66,115.84 L94.27,115.42 "/><path d="M98.49,132.05 L98.21,131.68 L98.43,131.13 L99.70,130.66 L101.02,130.97 L101.30,131.49 L101.07,131.88 "/><path d="M98.96,134.55 L100.01,134.75 L101.56,134.33 L101.62,135.25 "/><path d="M99.19,116.33 L100.03,116.70 L99.32,116.89 L98.85,116.50 "/><path d="M113.70,105.68 L114.86,104.89 L115.40,104.89 "/><path d="M101.56,134.33 L111.21,127.72 L111.27,128.64 "/><path d="M107.10,127.75 L107.29,127.44 L107.27,127.08 L107.05,126.83 L105.73,126.52 L104.46,126.99 L104.24,127.55 L104.52,127.91 "/><path d="M111.21,127.72 L111.65,127.11 "/><path d="M111.88,108.57 L111.05,108.20 "/><path d="M112.00,106.84 L112.84,107.21 "/><path d="M114.52,106.13 L114.96,106.06 L115.36,106.50 L115.20,107.82 L114.34,108.82 L113.75,108.82 L113.51,108.46 "/><path d="M115.53,104.96 L116.13,105.33 L116.88,105.14 L116.04,104.78 "/><path d="M116.88,105.14 L135.71,92.23 L134.87,91.87 "/><path d="M123.85,109.11 L123.22,108.91 L123.95,109.23 L123.85,109.11 "/><path d="M123.95,109.23 L123.22,108.91 "/><path d="M123.19,108.92 L123.14,108.92 "/><path d="M137.59,99.91 L123.97,109.26 L124.66,109.94 L125.95,110.43 L126.01,111.35 "/><path d="M131.02,113.53 L130.96,112.61 L126.02,110.46 L138.00,102.16 "/><path d="M130.48,110.11 L130.21,109.74 L130.42,109.19 L131.70,108.72 L133.00,109.02 L133.29,109.55 L133.07,109.94 "/><path d="M130.96,112.61 L132.01,112.81 L133.42,112.46 L143.20,105.77 L143.26,106.69 "/><path d="M133.56,112.39 L133.62,113.31 "/><path d="M139.09,105.81 L139.32,105.41 L139.04,104.89 L137.73,104.58 L136.45,105.05 L136.24,105.57 L136.51,105.97 "/><path d="M135.71,92.23 L136.37,91.49 L135.54,91.13 "/><path d="M147.81,74.17 L149.20,73.64 L150.44,73.79 "/><path d="M143.20,105.77 L143.65,105.17 "/><path d="M144.37,76.56 L145.21,76.92 "/><path d="M146.80,81.08 L147.20,81.47 L147.93,81.31 L148.37,80.92 L148.96,79.87 L149.10,79.18 L148.96,78.32 L148.72,78.04 L148.14,78.00 "/><path d="M150.96,82.09 L149.80,91.66 "/><path d="M151.01,82.15 L152.86,84.00 L151.86,91.82 "/><path d="M158.59,85.94 L157.87,86.18 L152.86,84.00 L153.57,83.76 "/><path d="M155.04,87.63 L154.57,87.68 L154.06,88.28 L154.00,89.23 L154.16,89.71 L154.97,90.55 L155.54,90.62 L155.96,90.37 "/><path d="M159.20,92.67 L158.49,92.91 L158.35,93.40 L157.74,94.03 "/><path d="M157.87,86.18 L158.65,86.86 L159.05,87.93 L158.49,92.91 "/><path d="M159.05,88.48 L159.76,88.24 "/></g><g style="stroke:#000000;stroke-width:0.529"><path d="M90.95,121.70 C91.16,121.19 91.17,121.19 91.35,120.67 C91.95,117.54 91.93,117.54 92.52,114.41 C92.66,113.93 92.65,113.92 92.81,113.45 C93.34,112.63 93.34,112.62 93.90,111.83 "/><path d="M99.19,116.33 C105.13,112.29 105.14,112.29 111.05,108.20 C111.42,107.82 111.42,107.80 111.76,107.39 C112.33,106.36 112.33,106.36 112.86,105.32 "/><path d="M135.23,91.55 C139.78,84.05 139.78,84.04 144.37,76.56 C144.97,75.74 144.97,75.73 145.59,74.94 C146.27,74.36 146.27,74.35 146.97,73.80 "/><path d="M148.36,73.28 C148.98,73.34 148.99,73.34 149.60,73.43 C150.03,73.59 150.03,73.60 150.44,73.79 C150.91,74.16 150.91,74.16 151.37,74.55 "/><path d="M151.98,75.94 C152.06,76.83 152.06,76.83 152.10,77.72 C151.95,78.71 151.95,78.72 151.76,79.71 C151.37,80.86 151.37,80.87 150.94,82.01 "/><path d="M150.94,82.01 C151.88,82.54 151.88,82.54 152.80,83.09 C153.20,83.41 153.18,83.45 153.57,83.76 C156.07,84.87 156.09,84.83 158.59,85.94 C158.99,86.26 159.00,86.26 159.36,86.62 "/><path d="M159.63,87.13 C159.72,87.68 159.72,87.69 159.76,88.24 C159.51,90.45 159.50,90.46 159.20,92.67 C159.03,93.11 159.02,93.12 158.81,93.55 "/><path d="M150.57,91.56 C150.18,91.60 150.18,91.60 149.80,91.66 C148.29,92.15 148.25,92.11 146.78,92.67 C142.68,95.39 142.70,95.44 138.64,98.23 C138.31,98.55 138.31,98.56 138.01,98.91 "/><path d="M131.02,113.53 C127.89,112.20 127.88,112.20 124.77,110.83 C124.39,110.56 124.39,110.55 124.04,110.24 C123.60,109.64 123.60,109.64 123.19,109.02 "/><path d="M100.07,135.67 C99.55,135.59 99.54,135.59 99.02,135.47 C95.89,134.14 95.89,134.14 92.77,132.77 C92.40,132.50 92.39,132.49 92.04,132.18 C91.58,131.54 91.58,131.53 91.15,130.86 "/><path d="M94.39,126.66 C94.79,126.49 94.79,126.49 95.18,126.30 C95.58,125.95 95.58,125.95 95.96,125.59 C96.30,125.12 96.30,125.11 96.63,124.63 C96.88,124.08 96.88,124.08 97.11,123.52 C97.25,122.95 97.26,122.95 97.37,122.37 C97.39,121.85 97.39,121.85 97.37,121.32 C97.26,120.91 97.26,120.90 97.12,120.49 "/><path d="M96.02,120.29 C95.62,120.55 95.62,120.55 95.23,120.83 C94.87,121.23 94.87,121.23 94.53,121.64 C94.21,122.18 94.21,122.18 93.91,122.73 C93.71,123.29 93.71,123.30 93.53,123.87 C93.46,124.42 93.46,124.43 93.40,124.98 "/><path d="M83.71,148.65 L83.39,148.10 L83.19,147.01 L83.68,139.74 L83.17,139.35 L82.84,138.71 L83.32,130.82 L83.51,129.94 L87.86,124.14 L90.28,122.44 L90.95,121.70 "/><path d="M93.90,111.83 L94.57,111.37 L95.18,111.24 L96.59,111.79 L96.98,112.29 L98.83,116.47 L99.19,116.33 "/><path d="M112.86,105.32 L113.44,104.80 L114.02,104.53 L114.56,104.52 L115.53,104.96 L116.04,104.78 L135.23,91.55 "/><path d="M146.97,73.80 L148.36,73.28 "/><path d="M151.37,74.55 L151.98,75.94 "/><path d="M159.36,86.62 L159.63,87.13 "/><path d="M158.81,93.55 L157.74,94.03 L156.88,94.00 L151.86,91.82 L150.57,91.56 "/><path d="M138.01,98.91 L137.56,100.04 L137.59,101.18 L137.98,102.13 L143.34,104.54 L143.65,105.17 L143.71,106.09 L143.57,106.41 L133.62,113.31 L132.64,113.68 L131.02,113.53 "/><path d="M123.19,109.02 L122.95,109.02 L106.64,120.17 L106.01,120.85 L105.57,121.99 L105.60,123.13 L106.01,124.10 L111.39,126.51 L111.61,126.80 L111.71,128.03 L111.27,128.64 L101.62,135.25 L100.07,135.67 "/><path d="M91.15,130.86 L89.44,131.97 L88.76,132.70 L88.33,133.63 L90.33,134.58 L90.94,135.41 L91.18,136.56 L90.21,149.95 L89.65,150.56 L88.53,150.96 L84.47,149.27 L83.71,148.65 "/><path d="M86.93,148.03 L87.43,148.22 L87.65,147.48 L87.59,146.99 L87.15,146.15 L86.76,145.80 L86.25,145.63 L86.04,146.24 L86.17,147.09 L86.93,148.03 "/><path d="M93.69,126.23 L94.03,126.66 L94.39,126.66 "/><path d="M97.12,120.49 L96.78,120.11 L96.02,120.29 "/><path d="M93.40,124.98 L93.69,126.23 "/><path d="M94.20,114.98 L94.25,115.38 L94.47,115.32 L95.09,114.62 L95.40,113.66 L95.33,112.98 L94.66,113.57 L94.20,114.98 "/><path d="M98.61,131.97 L98.49,132.05 L98.62,132.14 L99.54,132.37 L100.53,132.22 L101.07,131.88 L99.76,131.58 L98.61,131.97 "/><path d="M104.52,127.91 L105.08,128.18 L106.08,128.21 L107.10,127.75 L105.79,127.45 L104.52,127.91 "/><path d="M113.44,107.87 L113.51,108.45 L114.13,107.89 L114.52,106.99 L114.52,106.14 L113.75,106.89 L113.44,107.87 "/><path d="M130.64,110.22 L132.05,110.40 L133.02,109.98 L132.72,109.76 L131.76,109.64 L130.82,109.88 L130.48,110.11 L130.64,110.22 "/><path d="M136.85,105.74 L137.79,105.50 L139.09,105.81 L138.55,106.15 L137.61,106.30 L136.51,105.97 L136.85,105.74 "/><path d="M146.66,80.33 L146.78,81.05 L147.15,80.92 L147.88,80.07 L148.26,78.92 L148.15,78.03 L147.78,78.15 L147.20,78.74 L146.66,80.33 "/><path d="M154.81,89.26 L154.77,88.04 L154.98,87.68 L155.33,87.70 L155.70,87.94 L156.23,88.77 L156.33,89.26 L156.15,90.16 L155.96,90.37 L155.49,90.20 L154.81,89.26 "/></g></g><g id="paperID" visibility="hidden" opacity="0.00" transform="scale(0.000100)"><path style="stroke:#000000;stroke-width:0.500;fill:#e6e6e6;fill-rule:evenodd" d="M-2000.00,-2000.00L2297.00,-2000.00L2297.00,2210.00L-2000.00,2210.00zM0.00,0.00L297.00,0.00L297.00,210.00L0.00,210.00z"/><path style="fill:#000000;fill-opacity:0.118" d="M3.00,210.00L297.00,210.00L297.00,3.00L300.00,3.00L300.00,213.00L3.00,213.00z"/></g><g id="ToolTip" visibility="hidden" opacity="0" transform="translate(0,0)"><rect id="ToolTipShadow" opacity="0.20" fill="black" stroke="none" x="0" y="0" width="30" height="8"/><rect id="ToolTipBG" fill="#ffffe1" stroke="black" x="0" y="0" width="30" height="8"/><text xml:space="preserve" id="ToolTipText" fill="black" x="0" y="0" width="30" height="8">tooltip</text></g></g></svg>
