<?xml version="1.0" encoding="UTF-8" standalone="no"?>
<svg xmlns="http://www.w3.org/2000/svg" xmlns:xlink="http://www.w3.org/1999/xlink" width="297.000mm" height="210.000mm" viewBox="0.000000 0.000000 297.000000 210.000000" stroke-linejoin="round" stroke-linecap="round" fill="none" fill-rule="evenodd"><desc>Composer Export</desc><script type="text/ecmascript"><![CDATA[
if(typeof(top) != "undefined")
{
	top.ShowPaper = ShowPaper;
}
function ShowHotSpot(evt,hotspotid)
{
	var svgDocument = evt.target.ownerDocument;
	var strId = "hotspot."+hotspotid;
	var hotspot = svgDocument.getElementById(strId);
	if(hotspot)
		hotspot.setAttribute("opacity",".5");
}
function HideHotSpot(evt,hotspotid)
{
	var svgDocument = evt.target.ownerDocument;
	var strId = "hotspot."+hotspotid;
	var hotspot = svgDocument.getElementById(strId);
	if(hotspot)
		hotspot.setAttribute("opacity","0");

	var toolTip = svgDocument.getElementById('ToolTip');
	if(toolTip)
		toolTip.setAttribute("visibility","hidden");
}
function ShowToolTip(evt,hotspotid,strTooltip)
{
	if(strTooltip=="")
	return;

	// change text
	var svgDocument = evt.target.ownerDocument;
	var tiptext = svgDocument.getElementById('ToolTipText');
	if( !tiptext )
	return;
	tiptext.firstChild.nodeValue = " " + strTooltip + "  " ;

	// show tooltip before, else some refresh issue

	var toolTip = svgDocument.getElementById('ToolTip');
	if(!toolTip)
	return;

	toolTip.setAttribute("visibility","visible");
	toolTip.setAttribute("opacity",".95");

	// move tooltip
	// get viewbox

	var root = svgDocument.documentElement;
	var vbox = (root.getAttribute("viewBox")).split(' ');
	var x0 = parseFloat(vbox[0]);
	var y0 = parseFloat(vbox[1]);
	var vboxW = parseFloat(vbox[2]);
	var vboxH = parseFloat(vbox[3]);

	// get default width of svg

	var strW = root.getAttribute("width");
	var svgW = parseFloat(strW);
	if(strW.indexOf('mm') != -1)
	svgW *= 3.779;

	var strH = root.getAttribute("height");
	var svgH = parseFloat(strH);
	if(strH.indexOf('mm') != -1)
	svgH *= 3.779;  	// 96 dpi  -> 96/25.4 = 3.779

	// update the viewbox / width / height if svg is embedded in html with zoom fit all
	var realx0 = x0;
	var realy0 = y0;
	var realvboxW = vboxW;
	var realvboxH = vboxH;
	var realsvgW = svgW;
	var realsvgH = svgH;

	if ((typeof(top) == "undefined") || (typeof(top.svgctl1) != "undefined")) // embedded in html
	{
		// get window size in pxl

		svgW = window.innerWidth;
		svgH = window.innerHeight;

		// calculate real viewbox

		realsvgW = svgW;
		realsvgH = svgH;
		if((svgW / svgH) > (vboxW / vboxH))
		{
			realvboxW = (vboxH * svgW) / svgH;
			realvboxH = vboxH;
			realx0 = x0 - (realvboxW - vboxW)/2 ;
		}
		else
		{
			realvboxH = (vboxW * svgH) / svgW;
			realvboxW = vboxW;
			realy0 = y0 - (realvboxH - vboxH)/2 ;
		}
	}

	// get user zoom/pan

	var newScale = root.currentScale;
	var translation = root.currentTranslate;

	// transform pxl to user unit

	var xPos = (((evt.clientX+10- translation.x)/newScale) * realvboxW)/realsvgW  + realx0 ;
	var yPos = (((evt.clientY+5- translation.y)/newScale) * realvboxH)/ realsvgH  + realy0 ;
	var scaleForWidth = ( (1 / newScale) * realvboxH) / realsvgH;

	// move tooltip

	toolTip.setAttribute("transform", "translate(" + xPos + "," + yPos + ")" );

	// resize tooltip

	var fontsize = 12;
	tiptext.setAttribute("font-size",fontsize*scaleForWidth);
	tiptext.setAttribute("y", fontsize*scaleForWidth);
	var tipBG = svgDocument.getElementById('ToolTipBG');
	var outline = tiptext.getBBox();
	if(tipBG)
	{
		tipBG.setAttribute("stroke-width", 1*scaleForWidth);
		tipBG.setAttribute("width", Number(outline.width) );
		tipBG.setAttribute("height", Number(outline.height) + fontsize*.5*scaleForWidth );
	}
	var ToolTipShadow = svgDocument.getElementById('ToolTipShadow');
	if(ToolTipShadow)
	{
		ToolTipShadow.setAttribute("width", Number(outline.width) );
		ToolTipShadow.setAttribute("height", Number(outline.height) + fontsize*.5*scaleForWidth );
		ToolTipShadow.setAttribute("x", 3*scaleForWidth);
		ToolTipShadow.setAttribute("y", 3*scaleForWidth);
	}
}
function ShowPaper()
{
  var svgDocument = getDocument();
  var paper = svgDocument.getElementById("paperID");
  if(paper)
  {
    paper.setAttribute("transform","scale(1)");
    paper.setAttribute("opacity","1");
    paper.setAttribute("visibility","visible");
  }
  var svg = svgDocument.getRootElement();
  if(svg)
  {
    svg.setAttribute("width","307.000mm");
    svg.setAttribute("height","220.000mm");
    svg.setAttribute("viewBox","-5.000000 -5.000000 307.000000 220.000000");
  }
}
]]></script><defs/><g><path style="fill:#ffffff" d="M125.12,67.09L121.97,67.09L120.57,67.90L119.47,69.58L119.88,70.67L120.77,71.22L121.60,71.49L121.61,71.95L121.16,72.05L75.10,99.64L74.07,100.82L73.68,103.41L67.46,114.61L67.35,116.91L67.50,118.31L67.63,119.67L67.78,121.07L67.89,122.45L68.06,123.27L68.28,124.48L68.57,125.02L70.80,128.03L76.87,134.37L78.25,136.02L80.15,137.43L159.56,173.01L163.91,173.02L164.63,172.57L165.82,171.61L165.96,169.04L165.92,168.32L165.79,168.23L165.67,167.38L165.65,166.67L165.52,166.58L165.40,165.99L165.37,165.28L165.24,165.19L165.12,164.35L165.10,163.63L164.97,163.55L164.85,162.96L164.82,162.25L164.69,162.16L164.57,161.31L164.55,160.60L164.42,160.51L164.30,159.93L164.26,159.22L164.13,159.12L164.02,155.82L163.98,153.97L163.87,153.87L163.74,151.96L163.70,150.11L163.59,150.01L163.47,148.10L163.69,145.95L163.46,144.48L164.55,141.67L165.17,141.16L166.92,140.99L167.94,140.31L183.44,131.01L183.88,131.16L183.87,130.72L184.12,125.38L184.37,123.43L185.96,121.71L190.08,119.21L191.31,119.21L191.92,119.62L191.19,119.77L186.23,122.80L185.20,124.54L184.67,133.10L183.76,133.58L181.83,133.84L181.61,134.46L181.36,140.55L181.00,142.69L181.53,142.70L183.49,141.85L191.05,137.00L191.86,135.60L191.99,134.03L192.27,128.24L192.55,125.47L296.92,63.15L296.92,210.05L0.08,210.05L0.08,0.08L241.29,0.05L241.22,0.19L127.08,68.67L126.90,68.65L126.35,68.12L125.66,67.38z"/><path style="fill:#1a1a1a" d="M277.14,0.31L276.12,0.36L276.17,0.61L276.59,0.78L277.90,1.72L280.71,2.56L282.94,2.70L284.61,2.56L288.08,1.56L290.19,0.34L290.38,0.05L295.07,0.04L294.79,0.30L294.33,0.38L294.30,0.99L294.48,1.11L295.00,2.00L296.94,3.04L296.93,62.87L296.66,51.94L173.56,125.57L173.37,127.32L168.15,139.47L167.94,140.31L166.92,140.99L165.17,141.16L164.83,139.91L163.73,140.84L162.59,143.56L162.61,149.56L163.16,160.31L164.81,169.42L164.63,172.57L163.91,173.02L159.56,173.01L80.15,137.43L78.25,136.02L76.87,134.37L70.80,128.03L68.57,125.02L68.28,124.48L68.06,123.27L68.02,122.54L67.89,122.45L67.78,121.07L67.74,119.77L67.63,119.67L67.50,118.31L67.46,117.01L67.35,116.91L67.46,114.61L73.68,103.41L74.07,100.82L75.10,99.64L121.16,72.05L121.61,71.95L121.82,73.36L121.95,74.73L122.09,75.85L122.63,76.75L123.85,77.15L124.63,76.99L125.68,76.32L125.69,74.47L125.65,73.17L125.54,73.07L125.44,71.68L125.42,71.16L126.91,69.78L127.08,68.67L241.22,0.19L241.29,0.05L277.44,0.05z"/><path style="fill:#00fdff" d="M118.37,64.54L118.13,65.47L117.12,67.21L115.03,67.77L114.14,67.77L112.78,67.62L111.88,67.09L111.60,66.82L111.60,65.27L113.16,63.80L113.69,63.50L114.99,63.37L115.82,63.37L117.12,63.51z"/><path style="fill:#00fdff" d="M125.66,67.38L126.35,68.12L126.22,69.42L124.92,71.09L124.63,71.18L123.84,71.36L123.27,71.49L121.89,71.42L121.77,71.25L120.77,71.22L119.88,70.67L119.47,69.58L120.57,67.90L121.97,67.09L125.12,67.09z"/><path style="fill:#00fdff" d="M115.31,68.16L115.54,73.29L114.97,73.44L114.08,72.90L113.83,70.88L113.79,69.58L113.68,69.48L113.54,68.36L113.90,67.90z"/><path style="fill:#00fdff" d="M123.28,71.70L123.89,76.94L123.85,77.15L122.63,76.75L122.09,75.85L122.07,74.82L121.95,74.73L121.82,73.36L121.78,72.05L121.61,71.95L121.60,71.49L121.89,71.42z"/><path style="fill:#00fdff" d="M160.96,83.35L161.37,83.83L161.24,85.14L160.22,86.60L158.06,87.05L157.73,87.05L156.35,86.91L155.18,86.39L154.87,85.88L154.90,84.58L156.18,83.38L157.99,82.66L159.41,82.66z"/><path style="fill:#00fdff" d="M158.31,87.47L158.84,92.60L158.27,92.75L157.38,92.20L157.11,91.30L157.09,89.99L156.97,89.89L156.85,88.53L156.88,87.23L157.18,87.21z"/><path style="fill:#00fdff" d="M164.97,92.10L164.96,91.01L166.60,91.07L166.83,96.18L166.01,96.31L165.41,95.68L165.36,94.97L165.24,94.87L165.12,93.50L165.08,92.20z"/><path style="fill:#00e3e5" d="M118.78,64.86L118.78,66.11L118.49,66.65L117.37,67.47L117.25,68.09L117.41,69.50L117.54,70.86L117.54,72.81L116.39,73.43L115.54,73.29L115.31,68.16L115.45,67.91L115.03,67.77L117.12,67.21L118.13,65.47L118.37,64.54z"/><path style="fill:#00e3e5" d="M126.90,68.65L126.91,69.78L125.42,71.16L124.92,71.09L126.22,69.42L126.35,68.12z"/><path style="fill:#00e3e5" d="M125.44,71.68L125.54,73.07L125.69,74.47L125.68,76.32L124.63,76.99L123.89,76.94L123.28,71.70L123.98,71.50L123.84,71.36L124.63,71.18z"/><path style="fill:#00e3e5" d="M71.22,73.05L71.21,74.20L71.13,74.96L69.67,73.97L69.03,73.96L67.73,75.45L67.75,76.75L68.89,77.77L67.95,78.43L66.36,78.41L65.72,77.23L66.05,77.12L66.95,74.95L68.32,73.28L70.07,72.31L70.62,72.18L70.83,72.29z"/><path style="fill:#00e3e5" d="M161.93,84.37L161.93,85.49L161.54,86.00L160.22,86.60L161.24,85.14L161.37,83.83z"/><path style="fill:#00e3e5" d="M160.56,88.51L160.71,89.91L160.84,91.00L160.83,91.83L160.71,92.06L159.41,92.74L158.84,92.60L158.31,87.47L158.48,87.22L158.06,87.05L160.22,86.60z"/><path style="fill:#00e3e5" d="M166.86,90.68L168.49,90.17L168.55,90.71L168.70,92.12L168.83,93.20L168.99,94.61L168.98,95.34L167.95,96.30L166.83,96.18L166.60,91.07L167.00,90.79z"/><path style="fill:#00e3e5" d="M212.54,135.75L212.53,137.80L211.98,139.18L209.97,141.03L207.56,141.01L207.03,140.12L207.14,139.83L208.57,138.25L211.07,135.22L211.26,134.62L211.72,134.63z"/><path style="fill:#171717" d="M276.12,0.36L277.14,0.31L276.59,0.78L276.17,0.61z"/><path style="fill:#171717" d="M296.93,62.87L296.92,63.15L192.55,125.47L192.42,125.20L192.55,122.45L192.67,120.32L192.55,120.23L191.92,119.62L191.31,119.21L190.08,119.21L185.96,121.71L184.37,123.43L184.12,125.38L183.87,130.72L183.44,131.01L167.94,140.31L168.15,139.47L173.37,127.32L173.56,125.57L296.66,51.94z"/><path style="fill:#171717" d="M118.60,97.29L118.87,98.45L117.82,98.52L117.20,98.95L116.80,98.83L116.82,97.81L118.14,97.13z"/><path style="fill:#171717" d="M124.83,101.40L126.76,100.72L126.85,102.03L126.10,102.11L125.45,102.55L124.81,102.42z"/><path style="fill:#171717" d="M159.84,117.13L161.15,116.43L161.78,116.44L161.88,117.74L161.11,117.83L160.50,118.25L159.84,117.84z"/><path style="fill:#171717" d="M168.12,120.70L168.58,120.31L169.27,120.19L169.24,121.60L168.49,121.83L168.09,121.71z"/><path style="fill:#171717" d="M165.17,141.16L164.55,141.67L163.46,144.48L163.47,148.10L163.59,150.01L163.74,151.96L163.87,153.87L164.02,155.82L164.13,159.12L164.30,159.93L164.42,160.51L164.57,161.31L164.69,162.16L164.85,162.96L164.97,163.55L165.12,164.35L165.24,165.19L165.40,165.99L165.52,166.58L165.67,167.38L165.79,168.23L165.96,169.04L165.82,171.61L164.63,172.57L164.81,169.42L163.16,160.31L162.61,149.56L162.59,143.56L163.73,140.84L164.83,139.91z"/><path style="fill:#ffffff" d="M276.59,0.78L277.14,0.31L277.44,0.05L290.38,0.05L290.19,0.34L288.08,1.56L284.61,2.56L282.94,2.70L280.71,2.56L277.90,1.72z"/><path style="fill:#e5e5e5" d="M118.84,98.93L117.20,98.95L117.82,98.52L118.87,98.45z"/><path style="fill:#e5e5e5" d="M126.88,102.54L125.72,102.65L125.45,102.55L126.10,102.11L126.85,102.03z"/><path style="fill:#e5e5e5" d="M162.13,118.25L160.50,118.25L161.11,117.83L161.88,117.74z"/><path style="fill:#e5e5e5" d="M192.55,120.23L192.55,122.45L192.42,125.20L192.27,128.24L191.99,134.03L191.86,135.60L191.05,137.00L183.49,141.85L181.53,142.70L181.00,142.69L181.36,140.55L181.61,134.46L181.83,133.84L183.76,133.58L184.67,133.10L185.20,124.54L186.23,122.80L191.19,119.77L191.92,119.62z"/><path style="fill:#e5e5e5" d="M169.05,121.98L168.49,121.83L169.24,121.60z"/><path style="fill:#e5e5e5" d="M165.92,145.76L165.10,146.34L164.80,146.03L164.81,144.39L165.63,144.30z"/><path style="fill:#e5e5e5" d="M169.79,147.46L169.43,148.19L168.68,148.85L168.67,148.00L170.18,142.05L170.53,141.81L171.13,141.79z"/><path style="fill:#000020" d="M115.31,68.16L113.90,67.90L114.14,67.77L115.03,67.77L115.45,67.91z"/><path style="fill:#000020" d="M117.41,69.50L117.25,68.09L117.37,68.19z"/><path style="fill:#000020" d="M126.91,69.78L126.90,68.65L127.08,68.67z"/><path style="fill:#000020" d="M113.83,70.88L113.68,69.48L113.79,69.58z"/><path style="fill:#000020" d="M123.28,71.70L121.89,71.42L123.27,71.49z"/><path style="fill:#000020" d="M70.62,72.18L70.07,72.31L68.92,72.17z"/><path style="fill:#000020" d="M117.54,72.81L117.54,70.86L117.65,70.96z"/><path style="fill:#000020" d="M121.82,73.36L121.61,71.95L121.78,72.05z"/><path style="fill:#000020" d="M114.97,73.44L115.54,73.29L116.39,73.43z"/><path style="fill:#000020" d="M71.21,74.20L71.22,73.05L71.34,73.17z"/><path style="fill:#000020" d="M125.69,74.47L125.54,73.07L125.65,73.17z"/><path style="fill:#000020" d="M122.09,75.85L121.95,74.73L122.07,74.82z"/><path style="fill:#000020" d="M123.85,77.15L123.89,76.94L124.63,76.99z"/><path style="fill:#000020" d="M73.53,81.00L72.80,80.87L73.64,80.87z"/><path style="fill:#000020" d="M161.93,85.49L161.93,84.37L162.07,84.47z"/><path style="fill:#000020" d="M158.31,87.47L157.18,87.21L157.73,87.05L158.06,87.05L158.48,87.22z"/><path style="fill:#000020" d="M156.85,88.53L156.62,87.18L156.88,87.23z"/><path style="fill:#000020" d="M162.97,89.59L162.81,89.52L162.93,88.52z"/><path style="fill:#000020" d="M160.71,89.91L160.56,88.51L160.67,88.61z"/><path style="fill:#000020" d="M166.60,91.07L164.96,91.01L164.90,90.79L165.17,90.66L166.86,90.68L167.00,90.79z"/><path style="fill:#000020" d="M157.11,91.30L156.97,89.89L157.09,89.99z"/><path style="fill:#000020" d="M160.83,91.83L160.84,91.00L160.96,91.12z"/><path style="fill:#000020" d="M168.70,92.12L168.55,90.71L168.67,90.81z"/><path style="fill:#000020" d="M158.27,92.75L158.84,92.60L159.41,92.74z"/><path style="fill:#000020" d="M165.12,93.50L164.97,92.10L165.08,92.20z"/><path style="fill:#000020" d="M168.99,94.61L168.83,93.20L168.94,93.30z"/><path style="fill:#000020" d="M165.41,95.68L165.24,94.87L165.36,94.97z"/><path style="fill:#000020" d="M166.01,96.31L166.83,96.18L167.95,96.30z"/><path style="fill:#000020" d="M67.50,118.31L67.35,116.91L67.46,117.01z"/><path style="fill:#000020" d="M67.78,121.07L67.63,119.67L67.74,119.77z"/><path style="fill:#000020" d="M68.06,123.27L67.89,122.45L68.02,122.54z"/><path style="fill:#000020" d="M192.55,125.47L192.27,128.24L192.42,125.20z"/><path style="fill:#000020" d="M183.44,131.01L183.87,130.72L183.88,131.16z"/><path style="fill:#000020" d="M207.14,139.83L207.03,140.12L207.04,138.71z"/><path style="fill:#000020" d="M163.69,145.95L163.47,148.10L163.46,144.48z"/><path style="fill:#000020" d="M163.74,151.96L163.59,150.01L163.70,150.11z"/><path style="fill:#000020" d="M164.02,155.82L163.87,153.87L163.98,153.97z"/><path style="fill:#000020" d="M164.30,159.93L164.13,159.12L164.26,159.22z"/><path style="fill:#000020" d="M164.57,161.31L164.42,160.51L164.55,160.60z"/><path style="fill:#000020" d="M164.85,162.96L164.69,162.16L164.82,162.25z"/><path style="fill:#000020" d="M165.12,164.35L164.97,163.55L165.10,163.63z"/><path style="fill:#000020" d="M165.40,165.99L165.24,165.19L165.37,165.28z"/><path style="fill:#000020" d="M165.67,167.38L165.52,166.58L165.65,166.67z"/><path style="fill:#000020" d="M165.96,169.04L165.79,168.23L165.92,168.32z"/><path style="fill:#00fdff" d="M71.13,74.96L74.09,77.03L74.77,77.77L73.56,78.80L72.53,80.58L72.18,80.27L71.90,79.76L71.45,79.73L69.16,78.10L68.89,77.77L67.75,76.75L67.73,75.45L69.03,73.96L69.67,73.97z"/><path style="fill:#00fdff" d="M68.32,73.28L66.95,74.95L66.05,77.12L65.72,77.23L65.80,75.18L66.80,73.70L68.19,72.34L68.92,72.17L70.07,72.31z"/><path style="fill:#00fdff" d="M168.67,86.69L169.65,87.43L169.51,88.44L168.49,90.17L166.86,90.68L165.17,90.66L164.35,90.50L163.68,90.29L162.97,89.59L162.93,88.52L163.89,87.23L165.82,86.40L167.85,86.40z"/><path style="fill:#00fdff" d="M208.65,134.97L209.65,134.93L209.94,134.65L211.26,134.62L211.07,135.22L208.57,138.25L207.14,139.83L207.04,138.71L206.78,138.16L206.49,137.68L206.00,137.61L205.65,137.12L205.17,137.06L204.82,136.57L204.34,136.50L203.99,136.01L203.51,136.02L203.05,135.87L202.88,135.43L202.90,134.56L203.71,133.12L204.43,132.72L205.36,132.72z"/><path style="fill:#00e3e5" d="M112.78,67.62L114.14,67.77L113.90,67.90L113.54,68.36z"/><path style="fill:#00e3e5" d="M122.57,68.24L121.94,68.20L122.23,67.90L122.90,67.90z"/><path style="fill:#00e3e5" d="M121.89,71.42L121.60,71.49L120.77,71.22L121.77,71.25z"/><path style="fill:#00e3e5" d="M75.47,78.51L74.67,80.19L73.64,80.87L72.80,80.87L72.53,80.58L73.56,78.80L74.77,77.77z"/><path style="fill:#00e3e5" d="M72.18,80.27L71.60,80.06L71.45,79.73L71.90,79.76z"/><path style="fill:#00e3e5" d="M157.73,87.05L157.18,87.21L156.88,87.23L156.62,87.18L156.35,86.91z"/><path style="fill:#00e3e5" d="M169.89,87.65L170.07,88.98L169.48,89.79L168.49,90.17L169.51,88.44L169.65,87.43z"/><path style="fill:#00e3e5" d="M165.17,90.66L164.90,90.79L164.35,90.50z"/><path style="fill:#00e3e5" d="M204.34,136.50L203.69,136.31L203.51,136.02L203.99,136.01z"/><path style="fill:#00e3e5" d="M205.17,137.06L204.53,136.87L204.34,136.50L204.82,136.57z"/><path style="fill:#00e3e5" d="M206.00,137.61L205.35,137.42L205.17,137.06L205.65,137.12z"/><path style="fill:#00e3e5" d="M206.78,138.16L206.19,137.98L206.00,137.61L206.49,137.68z"/><path style="fill:#171717" d="M294.48,1.11L294.30,0.99L294.33,0.38L294.79,0.30z"/><path style="fill:#1a1a1a" d="M189.18,122.97L188.43,124.72L187.56,125.21L187.68,124.26L189.00,122.78L189.20,122.77z"/><path style="fill:#00001c" d="M124.63,71.18L124.92,71.09L125.42,71.16L125.44,71.68z"/><path style="fill:#00001c" d="M123.28,71.70L123.27,71.49L123.84,71.36L123.98,71.50z"/><path style="fill:#00001c" d="M125.72,102.65L126.88,102.54L127.15,102.67z"/><path style="fill:#00001c" d="M169.49,122.10L169.05,121.98L169.24,121.60L169.27,120.19L169.53,120.04z"/><path style="fill:#00001c" d="M192.55,122.45L192.55,120.23L192.67,120.32z"/><path style="fill:#ffffff" d="M294.48,1.11L294.79,0.30L295.07,0.04L296.92,0.08L296.94,3.04L295.00,2.00z"/><path style="fill:#ffffff" d="M118.84,98.93L118.87,98.45L119.88,98.53z"/><path style="fill:#ffffff" d="M127.91,102.23L127.15,102.67L126.88,102.54L126.85,102.03z"/><path style="fill:#ffffff" d="M161.88,117.74L162.89,117.83L162.13,118.25z"/><path style="fill:#ffffff" d="M189.94,123.05L189.92,124.29L189.37,125.39L188.74,125.86L187.59,125.95L187.56,125.21L188.43,124.72L189.18,122.97L189.20,122.77L189.65,122.74z"/><g id="Actor_.0"><g style="stroke:#000000;stroke-width:0.176"><path d="M118.38,66.28 C118.01,66.57 118.01,66.57 117.62,66.83 C117.12,67.05 117.12,67.05 116.60,67.25 C116.02,67.38 116.02,67.38 115.43,67.48 C114.83,67.51 114.82,67.51 114.22,67.51 C113.67,67.43 113.67,67.44 113.12,67.33 C112.68,67.16 112.67,67.16 112.24,66.97 "/><path d="M112.89,64.21 C113.06,64.02 113.07,64.01 113.26,63.83 C113.53,63.67 113.53,63.67 113.82,63.53 C114.16,63.42 114.17,63.42 114.51,63.32 C114.89,63.27 114.89,63.27 115.27,63.24 C115.63,63.25 115.64,63.25 116.00,63.28 C116.32,63.36 116.32,63.37 116.63,63.46 C116.70,63.49 116.69,63.50 116.76,63.54 C116.92,63.64 116.92,63.64 117.09,63.74 "/><path d="M117.06,64.88 C116.83,65.06 116.83,65.06 116.59,65.23 C116.27,65.36 116.27,65.36 115.95,65.49 C115.58,65.57 115.58,65.57 115.21,65.63 C114.84,65.65 114.84,65.65 114.46,65.65 C114.12,65.60 114.11,65.60 113.77,65.54 C113.56,65.46 113.56,65.46 113.36,65.37 "/><path d="M117.41,72.52 C117.23,72.66 117.22,72.66 117.04,72.79 C116.79,72.90 116.79,72.90 116.54,72.99 C116.26,73.06 116.25,73.06 115.97,73.11 C115.67,73.12 115.67,73.12 115.38,73.12 C115.11,73.09 115.11,73.09 114.84,73.04 C114.63,72.95 114.62,72.95 114.41,72.86 "/><path d="M117.42,71.35 C117.28,71.49 117.28,71.49 117.14,71.64 C117.08,71.67 117.08,71.67 117.03,71.70 C116.86,71.79 116.86,71.79 116.70,71.88 C116.43,71.96 116.43,71.96 116.15,72.04 C115.86,72.07 115.86,72.07 115.57,72.10 C115.28,72.09 115.28,72.09 115.00,72.06 C114.75,72.00 114.75,72.00 114.51,71.93 C114.33,71.83 114.32,71.82 114.15,71.71 "/><path d="M114.30,71.79 C114.52,71.88 114.52,71.89 114.73,71.97 C115.00,72.02 115.00,72.02 115.27,72.06 C115.56,72.05 115.57,72.05 115.86,72.04 C116.15,71.99 116.15,71.99 116.43,71.93 C116.68,71.83 116.68,71.83 116.93,71.73 C117.12,71.60 117.12,71.60 117.30,71.46 "/><path d="M117.13,67.22 C116.87,67.34 116.86,67.34 116.59,67.44 C116.02,67.56 116.02,67.57 115.44,67.67 C114.86,67.70 114.86,67.69 114.27,67.70 C113.92,67.65 113.92,67.65 113.57,67.59 "/><path d="M115.93,64.24 C115.81,64.18 115.81,64.18 115.68,64.13 C115.51,64.10 115.51,64.10 115.35,64.08 C115.17,64.08 115.17,64.08 115.00,64.09 C114.82,64.12 114.82,64.12 114.65,64.16 C114.50,64.21 114.50,64.21 114.36,64.27 C114.28,64.32 114.28,64.33 114.21,64.38 C114.17,64.41 114.17,64.41 114.13,64.44 "/><path d="M114.09,64.90 C114.23,64.97 114.23,64.97 114.38,65.02 C114.56,65.06 114.56,65.06 114.74,65.08 C114.94,65.08 114.94,65.08 115.14,65.07 C115.33,65.04 115.33,65.04 115.52,64.99 C115.69,64.93 115.69,64.93 115.86,64.86 C115.98,64.77 115.98,64.77 116.11,64.68 "/><path d="M113.92,64.32 C114.01,64.22 114.01,64.22 114.11,64.13 C114.25,64.04 114.26,64.04 114.40,63.96 C114.59,63.91 114.59,63.91 114.77,63.86 C114.97,63.83 114.97,63.83 115.17,63.81 C115.36,63.82 115.36,63.82 115.55,63.84 C115.71,63.88 115.72,63.88 115.88,63.93 C116.00,64.00 116.00,64.00 116.12,64.08 "/><path d="M118.79,65.66 L118.38,66.28 "/><path d="M112.24,66.97 L111.68,66.45 "/><path d="M113.36,65.37 L113.22,65.31 L112.87,64.99 L112.75,64.60 L112.89,64.21 "/><path d="M117.09,63.74 L117.32,64.10 L117.31,64.49 L117.06,64.88 "/><path d="M117.60,72.22 L117.41,72.52 "/><path d="M114.41,72.86 L114.14,72.60 L114.05,72.31 "/><path d="M117.53,71.03 L117.42,71.35 "/><path d="M114.15,71.71 L113.96,71.43 "/><path d="M114.04,71.55 L114.30,71.79 "/><path d="M117.30,71.46 L117.48,71.17 "/><path d="M114.03,71.52 L113.97,71.33 "/><path d="M116.10,64.39 L115.93,64.24 "/><path d="M114.13,64.44 L114.01,64.62 L114.00,64.81 L114.09,64.90 "/><path d="M116.11,64.68 L116.13,64.63 L116.15,64.57 L116.10,64.39 L116.18,64.57 L116.13,64.63 "/><path d="M114.02,64.83 L113.91,64.73 L113.85,64.53 L113.92,64.32 "/><path d="M116.12,64.08 L116.24,64.26 L116.24,64.47 L116.18,64.57 "/><path d="M113.97,64.79 L114.01,64.62 "/><path d="M117.50,71.13 L117.50,70.94 "/></g><g style="stroke:#000000;stroke-width:0.529"><path d="M113.57,67.59 C113.75,69.41 113.75,69.41 113.94,71.24 C113.95,71.28 113.96,71.28 113.97,71.33 C114.01,71.82 114.00,71.82 114.05,72.31 C114.10,72.49 114.10,72.49 114.16,72.66 "/><path d="M114.46,72.96 C114.68,73.06 114.69,73.06 114.91,73.15 C115.17,73.20 115.17,73.20 115.42,73.23 C115.70,73.23 115.70,73.23 115.98,73.22 C116.25,73.17 116.25,73.17 116.52,73.11 C116.75,73.02 116.76,73.02 116.99,72.92 C117.19,72.78 117.19,72.78 117.38,72.63 "/><path d="M117.60,72.28 C117.61,72.10 117.61,72.09 117.61,71.91 C117.57,71.47 117.57,71.47 117.53,71.03 C117.52,70.99 117.52,70.99 117.50,70.94 "/><path d="M118.32,66.50 C118.53,66.20 118.53,66.20 118.72,65.89 C118.76,65.78 118.76,65.77 118.79,65.66 C118.80,65.34 118.80,65.34 118.80,65.02 "/><path d="M118.80,65.02 C118.61,64.74 118.61,64.73 118.42,64.45 C118.26,64.25 118.26,64.25 118.09,64.06 C117.76,63.85 117.75,63.86 117.42,63.65 C117.24,63.56 117.24,63.55 117.05,63.47 C116.66,63.35 116.66,63.35 116.27,63.25 C115.81,63.21 115.81,63.21 115.35,63.19 C114.88,63.23 114.88,63.23 114.41,63.30 C113.97,63.42 113.97,63.42 113.53,63.55 C113.18,63.74 113.18,63.74 112.83,63.94 C112.66,64.06 112.66,64.07 112.50,64.20 C112.23,64.47 112.22,64.47 111.96,64.74 C111.83,64.97 111.83,64.97 111.71,65.20 C111.59,65.51 111.59,65.52 111.49,65.84 "/><path d="M112.13,66.97 L112.34,67.17 L113.20,67.53 L113.57,67.59 "/><path d="M114.16,72.66 L114.19,72.71 L114.46,72.96 "/><path d="M117.38,72.63 L117.60,72.28 "/><path d="M117.50,70.94 L117.13,67.22 L117.59,67.04 L118.32,66.50 "/><path d="M111.49,65.84 L111.68,66.45 L111.79,66.66 L112.13,66.97 "/></g></g><g id="Actor_.1"><g style="stroke:#000000;stroke-width:0.176"><path d="M164.07,172.61 L164.93,170.95 L164.86,169.71 L162.89,158.92 L67.37,116.18 "/><path d="M163.95,158.19 L162.88,158.83 L163.09,156.91 L67.63,114.28 "/><path d="M74.07,100.99 L74.71,101.47 L73.76,103.30 "/><path d="M74.33,102.28 L163.03,141.89 L164.21,140.14 L167.34,138.11 L166.16,139.28 "/><path d="M166.10,139.32 L164.94,139.55 L76.15,99.89 L74.71,101.47 "/><path d="M121.83,72.53 L76.15,99.89 L74.76,99.84 "/><path d="M119.98,98.45 L120.36,97.92 L120.16,97.36 L118.38,96.94 L116.81,97.55 L116.55,98.21 L117.08,98.74 "/><path d="M124.69,101.89 L125.36,100.90 L126.96,100.57 L128.33,101.03 L128.11,102.08 "/><path d="M124.69,101.85 L125.24,102.39 "/><path d="M242.96,-0.00 L126.80,69.56 "/><path d="M160.27,118.02 L159.74,117.50 L159.94,116.92 L161.57,116.22 L163.24,116.54 L163.58,117.12 L163.17,117.73 "/><path d="M160.92,172.94 L160.97,172.91 "/><path d="M164.05,157.13 L163.07,156.65 L162.30,145.70 L163.12,141.93 L164.07,142.15 "/><path d="M162.30,145.70 L163.26,145.91 "/><path d="M162.63,143.32 L163.58,143.54 "/><path d="M164.86,169.71 L165.93,169.07 "/><path d="M165.07,140.84 L164.94,139.55 "/><path d="M167.34,138.11 L168.41,138.71 L166.60,140.78 "/><path d="M167.34,140.32 L167.77,140.07 L167.20,140.41 "/><path d="M167.77,140.07 L183.83,130.45 "/><path d="M167.38,138.05 L171.94,127.40 L173.02,128.10 L168.57,138.49 L183.87,129.52 "/><path d="M168.43,121.68 L167.90,120.80 L169.58,119.88 "/><path d="M169.52,121.88 L170.32,123.07 L172.08,124.28 "/><path d="M297.00,48.32 L172.31,122.99 L170.04,121.59 L169.55,120.32 L169.57,120.92 "/><path d="M169.55,120.32 L170.02,118.98 L170.86,118.28 L297.00,42.74 "/><path d="M169.52,121.21 L169.52,121.01 "/><path d="M170.83,123.52 L170.89,122.33 "/><path d="M171.94,127.40 L172.53,125.75 L172.10,123.11 L173.23,124.67 L173.02,128.10 L297.00,53.85 "/><path d="M189.13,122.53 L188.56,124.23 L187.41,125.18 "/><path d="M197.24,122.42 L198.38,121.74 L192.33,125.36 "/><path d="M297.00,61.77 L192.37,124.42 "/><path d="M198.38,121.74 L297.00,62.68 "/><path d="M276.04,0.00 L276.34,0.50 "/><path d="M294.29,0.00 L294.44,1.00 "/></g><g style="stroke:#000000;stroke-width:0.529"><path d="M164.19,141.89 C163.65,143.86 163.64,143.90 163.26,145.91 C163.51,152.04 163.53,152.06 163.95,158.19 C164.90,164.23 164.91,164.24 166.00,170.27 "/><path d="M159.43,172.54 C119.85,154.92 119.84,154.91 80.30,137.20 C79.43,136.61 79.42,136.59 78.60,135.93 C74.27,131.32 74.26,131.32 69.98,126.66 C69.35,125.78 69.35,125.78 68.77,124.86 C68.37,123.74 68.36,123.74 68.03,122.59 C67.66,119.39 67.67,119.38 67.37,116.18 C67.47,115.23 67.47,115.22 67.63,114.28 "/><path d="M183.83,130.46 L166.64,140.76 L165.07,140.84 L164.19,141.89 "/><path d="M166.00,170.27 L165.14,171.97 L163.24,172.86 L159.43,172.54 "/><path d="M67.63,114.28 L73.68,103.43 L74.30,100.29 L121.75,71.70 "/><path d="M117.11,98.76 L118.86,98.90 L119.94,98.48 L118.52,98.23 L117.11,98.76 "/><path d="M125.37,102.26 L127.85,101.96 L127.00,102.53 L125.37,102.26 "/><path d="M126.90,68.62 L241.48,0.00 "/><path d="M160.33,118.05 L162.05,118.19 L163.13,117.77 L161.70,117.52 L160.33,118.05 "/><path d="M168.55,121.55 L169.52,121.21 L169.52,121.88 L168.55,121.55 "/><path d="M192.33,125.37 L297.00,62.69 "/><path d="M277.17,0.00 L276.34,0.50 L278.02,1.74 L282.71,2.59 L287.82,1.64 L290.46,-0.00 "/><path d="M296.99,3.07 L294.99,1.93 L294.47,0.56 L294.87,0.00 "/></g></g><g id="Actor_.2"><g style="stroke:#000000;stroke-width:0.176"><path d="M70.01,71.95 C69.62,72.04 69.61,72.04 69.23,72.16 C68.80,72.41 68.80,72.42 68.37,72.69 C67.95,73.08 67.95,73.08 67.53,73.48 C67.16,73.96 67.15,73.96 66.79,74.44 C66.51,74.96 66.51,74.96 66.24,75.48 C66.08,75.97 66.07,75.97 65.93,76.47 C65.90,76.89 65.90,76.89 65.90,77.31 "/><path d="M70.17,72.17 C69.79,72.26 69.78,72.26 69.41,72.38 C68.99,72.63 68.99,72.63 68.57,72.90 C68.29,73.15 68.29,73.16 68.02,73.42 C67.88,73.54 67.88,73.54 67.75,73.67 C67.39,74.13 67.38,74.13 67.03,74.61 C66.75,75.10 66.75,75.11 66.49,75.61 C66.33,76.09 66.33,76.09 66.19,76.58 C66.16,76.99 66.16,76.99 66.16,77.40 "/><path d="M69.43,73.70 C69.24,73.75 69.24,73.75 69.05,73.80 C68.84,73.93 68.84,73.93 68.63,74.06 C68.42,74.25 68.42,74.25 68.22,74.45 C68.04,74.68 68.04,74.68 67.86,74.92 C67.72,75.17 67.72,75.17 67.59,75.42 C67.51,75.66 67.51,75.66 67.44,75.91 C67.43,76.11 67.43,76.11 67.43,76.32 "/><path d="M71.83,79.41 C71.87,79.19 71.87,79.18 71.92,78.96 C72.02,78.71 72.02,78.71 72.13,78.46 C72.28,78.21 72.29,78.21 72.45,77.97 C72.64,77.75 72.64,77.75 72.84,77.53 C73.05,77.37 73.05,77.36 73.26,77.21 C73.46,77.11 73.46,77.11 73.66,77.02 "/><path d="M73.81,76.97 C73.62,77.01 73.62,77.01 73.43,77.07 C73.22,77.19 73.22,77.20 73.02,77.33 C72.81,77.52 72.81,77.52 72.61,77.71 C72.42,77.95 72.42,77.95 72.25,78.18 C72.11,78.43 72.11,78.43 71.98,78.69 C71.90,78.93 71.89,78.93 71.82,79.17 C71.81,79.37 71.81,79.38 71.81,79.58 "/><path d="M71.83,79.41 C71.87,79.17 71.87,79.17 71.91,78.92 C72.01,78.68 72.01,78.68 72.12,78.44 C72.27,78.19 72.27,78.19 72.43,77.96 C72.62,77.74 72.62,77.74 72.81,77.53 C73.02,77.37 73.02,77.37 73.22,77.22 C73.44,77.11 73.44,77.11 73.66,77.02 "/><path d="M73.61,80.63 C73.80,80.55 73.80,80.55 73.98,80.46 C74.17,80.32 74.17,80.32 74.36,80.17 C74.54,79.97 74.54,79.97 74.71,79.77 C74.86,79.55 74.86,79.55 75.00,79.33 C75.10,79.10 75.11,79.10 75.20,78.87 C75.24,78.67 75.24,78.67 75.27,78.46 "/><path d="M74.78,77.88 C74.61,77.92 74.61,77.92 74.44,77.98 C74.25,78.09 74.25,78.09 74.06,78.21 C73.87,78.38 73.87,78.38 73.69,78.56 C73.52,78.77 73.52,78.77 73.36,78.99 C73.24,79.21 73.23,79.21 73.12,79.44 C73.04,79.66 73.04,79.66 72.98,79.88 C72.97,80.07 72.97,80.07 72.97,80.25 "/><path d="M72.69,80.24 C72.69,80.04 72.69,80.03 72.71,79.83 C72.78,79.59 72.78,79.59 72.86,79.35 C72.99,79.09 72.99,79.09 73.13,78.84 C73.33,78.58 73.33,78.58 73.54,78.32 C73.72,78.15 73.72,78.15 73.90,77.99 C74.11,77.85 74.11,77.85 74.32,77.73 C74.50,77.67 74.51,77.67 74.70,77.62 "/><path d="M73.86,80.30 C73.99,80.25 73.99,80.25 74.12,80.19 C74.25,80.08 74.25,80.08 74.39,79.98 C74.51,79.84 74.51,79.84 74.64,79.70 C74.74,79.54 74.74,79.54 74.84,79.38 C74.91,79.22 74.91,79.22 74.98,79.06 C75.01,78.92 75.01,78.92 75.03,78.77 "/><path d="M74.69,78.36 C74.56,78.39 74.56,78.39 74.44,78.43 C74.31,78.51 74.31,78.51 74.17,78.60 C74.04,78.72 74.04,78.72 73.91,78.84 C73.80,78.99 73.79,78.99 73.68,79.14 C73.59,79.30 73.59,79.30 73.51,79.46 "/><path d="M71.14,72.74 L70.76,72.29 L70.17,72.17 "/><path d="M66.16,77.40 L66.40,77.98 L66.90,78.27 "/><path d="M70.94,74.67 L69.73,73.76 L69.43,73.70 "/><path d="M67.43,76.32 L67.55,76.61 L68.80,77.54 "/><path d="M71.84,79.66 L71.89,79.76 L71.83,79.41 "/><path d="M73.66,77.02 L73.99,77.00 L73.81,76.97 "/><path d="M71.81,79.58 L71.84,79.66 "/><path d="M71.93,79.87 L71.89,79.76 "/><path d="M71.89,79.77 L72.02,79.92 "/><path d="M73.30,80.65 L73.61,80.63 "/><path d="M75.27,78.46 L75.22,78.14 L75.06,77.94 L74.78,77.88 "/><path d="M72.97,80.25 L73.08,80.52 L73.30,80.65 "/><path d="M72.82,80.53 L72.69,80.24 "/><path d="M74.70,77.62 L75.00,77.69 "/><path d="M73.51,79.46 L73.41,79.78 L73.40,80.04 L73.48,80.23 L73.64,80.32 L73.68,80.32 L73.86,80.30 "/><path d="M75.03,78.77 L75.00,78.54 L74.88,78.40 L74.82,78.39 L74.69,78.36 "/><path d="M73.99,77.00 L74.11,77.03 "/><path d="M74.17,77.09 L74.02,77.01 "/></g><g style="stroke:#000000;stroke-width:0.529"><path d="M65.74,76.29 C65.74,75.96 65.74,75.96 65.76,75.63 C65.87,75.24 65.87,75.24 66.00,74.85 C66.21,74.44 66.21,74.44 66.44,74.04 C66.72,73.66 66.72,73.66 67.01,73.29 C67.34,72.97 67.34,72.97 67.67,72.67 C68.00,72.45 68.01,72.45 68.35,72.25 C68.90,72.08 68.91,72.07 69.47,71.92 "/><path d="M70.94,74.67 C72.53,75.85 72.53,75.85 74.11,77.03 C74.14,77.06 74.14,77.06 74.17,77.09 C74.58,77.39 74.59,77.39 75.00,77.69 C75.11,77.82 75.12,77.82 75.23,77.95 "/><path d="M75.30,78.36 C75.27,78.60 75.27,78.60 75.22,78.84 C75.12,79.08 75.12,79.08 75.02,79.31 C74.87,79.55 74.87,79.55 74.72,79.78 C74.54,79.99 74.54,79.99 74.35,80.19 C74.15,80.35 74.15,80.35 73.95,80.50 C73.76,80.59 73.76,80.58 73.57,80.67 C73.54,80.68 73.54,80.68 73.52,80.69 C73.32,80.70 73.32,80.70 73.12,80.70 "/><path d="M69.47,71.92 L70.01,71.95 L70.62,72.07 L71.00,72.53 L71.14,72.74 L71.25,73.45 L71.08,74.35 L70.94,74.67 "/><path d="M75.23,77.95 L75.25,78.01 L75.30,78.36 "/><path d="M73.12,80.70 L72.82,80.53 L72.07,79.99 L72.02,79.92 L68.80,77.54 L68.39,77.86 L67.58,78.23 L66.90,78.27 L66.66,78.20 L66.15,77.91 L65.90,77.31 L65.72,76.81 L65.74,76.29 "/></g></g><g id="Actor_.3"><g style="stroke:#000000;stroke-width:0.176"><path d="M126.65,69.77 C126.32,70.07 126.31,70.07 125.97,70.35 C125.49,70.58 125.49,70.58 125.00,70.80 C124.43,70.95 124.43,70.95 123.85,71.08 C123.25,71.13 123.25,71.13 122.64,71.16 C122.07,71.10 122.07,71.11 121.50,71.03 C121.03,70.88 121.03,70.88 120.56,70.70 C120.23,70.47 120.23,70.47 119.92,70.22 "/><path d="M121.29,67.55 C121.54,67.38 121.54,67.38 121.81,67.23 C122.14,67.10 122.14,67.10 122.48,66.99 C122.85,66.93 122.85,66.93 123.22,66.88 C123.60,66.88 123.60,66.88 123.97,66.90 C124.30,66.96 124.30,66.96 124.63,67.04 C124.88,67.16 124.88,67.16 125.13,67.30 "/><path d="M125.28,68.43 C125.07,68.61 125.07,68.61 124.85,68.79 C124.56,68.93 124.55,68.93 124.25,69.07 C123.91,69.16 123.91,69.16 123.56,69.24 C123.17,69.27 123.17,69.27 122.77,69.29 C122.42,69.26 122.42,69.26 122.06,69.21 C121.77,69.12 121.76,69.12 121.47,69.01 C121.27,68.87 121.27,68.86 121.07,68.71 "/><path d="M125.61,76.09 C125.45,76.23 125.44,76.23 125.28,76.37 C125.04,76.48 125.04,76.48 124.81,76.59 C124.75,76.60 124.75,76.60 124.69,76.61 C124.47,76.67 124.47,76.67 124.24,76.72 C123.95,76.75 123.95,76.75 123.65,76.76 C123.38,76.74 123.38,76.74 123.10,76.70 C122.87,76.63 122.87,76.63 122.64,76.54 C122.48,76.43 122.48,76.43 122.33,76.30 "/><path d="M122.22,75.24 C122.37,75.36 122.37,75.36 122.53,75.47 C122.76,75.56 122.76,75.56 122.99,75.63 C123.27,75.67 123.27,75.67 123.55,75.70 C123.84,75.68 123.84,75.68 124.14,75.66 C124.42,75.59 124.42,75.59 124.69,75.52 C124.93,75.42 124.93,75.42 125.17,75.30 C125.33,75.17 125.33,75.17 125.49,75.03 "/><path d="M125.36,75.20 C125.16,75.34 125.16,75.34 124.95,75.46 C124.69,75.55 124.69,75.55 124.43,75.64 C124.14,75.69 124.14,75.69 123.84,75.73 C123.55,75.73 123.55,75.73 123.26,75.72 C123.01,75.67 123.00,75.67 122.75,75.60 C122.55,75.51 122.55,75.51 122.36,75.40 "/><path d="M124.98,70.99 C124.43,71.14 124.42,71.14 123.86,71.27 C123.27,71.32 123.27,71.32 122.68,71.35 C122.19,71.30 122.19,71.30 121.70,71.23 "/><path d="M122.19,67.80 C122.32,67.72 122.32,67.71 122.46,67.63 C122.64,67.57 122.64,67.57 122.81,67.51 C123.01,67.48 123.01,67.48 123.21,67.45 C123.40,67.45 123.40,67.45 123.60,67.46 C123.77,67.49 123.77,67.49 123.94,67.53 C124.08,67.60 124.08,67.60 124.21,67.67 "/><path d="M124.29,68.26 C124.18,68.36 124.18,68.36 124.06,68.45 C123.91,68.53 123.91,68.53 123.75,68.60 C123.56,68.65 123.56,68.65 123.37,68.69 C123.17,68.71 123.17,68.71 122.97,68.72 C122.78,68.70 122.78,68.70 122.60,68.68 C122.44,68.63 122.44,68.63 122.29,68.57 C122.22,68.52 122.22,68.52 122.15,68.47 "/><path d="M122.22,68.12 C122.32,68.03 122.32,68.03 122.42,67.95 C122.56,67.88 122.56,67.88 122.71,67.81 C122.88,67.77 122.88,67.77 123.05,67.73 C123.22,67.72 123.23,67.72 123.40,67.71 C123.57,67.72 123.57,67.72 123.74,67.75 C123.88,67.79 123.88,67.79 124.02,67.84 C124.07,67.87 124.07,67.87 124.12,67.91 C124.17,67.95 124.17,67.95 124.21,67.99 "/><path d="M126.96,69.14 L126.65,69.77 "/><path d="M121.07,68.71 L120.90,68.33 L120.97,67.93 L121.29,67.55 "/><path d="M125.13,67.30 L125.42,67.64 L125.47,68.03 L125.28,68.43 "/><path d="M125.76,75.78 L125.61,76.09 "/><path d="M122.33,76.30 L122.19,76.01 "/><path d="M122.36,75.40 L122.13,75.14 L122.11,75.02 L122.22,75.24 "/><path d="M125.49,75.03 L125.63,74.75 L125.60,74.91 L125.36,75.20 "/><path d="M122.11,75.02 L122.10,74.99 "/><path d="M125.26,70.87 L124.98,70.99 "/><path d="M122.15,68.47 L122.08,68.41 L121.99,68.21 L122.02,68.00 L122.19,67.80 "/><path d="M124.21,67.67 L124.36,67.85 L124.39,68.06 L124.29,68.26 "/><path d="M122.15,68.47 L122.13,68.30 L122.10,68.43 "/><path d="M122.13,68.30 L122.22,68.12 "/><path d="M124.21,67.99 L124.29,68.16 L124.27,68.28 "/><path d="M124.29,68.16 L124.31,68.21 "/><path d="M125.66,74.60 L125.65,74.71 L125.63,74.75 "/><path d="M125.65,74.67 L125.63,74.54 "/><path d="M126.41,67.96 L126.41,67.96 "/></g><g style="stroke:#000000;stroke-width:0.529"><path d="M120.02,70.43 C120.33,70.67 120.33,70.68 120.65,70.90 C121.11,71.07 121.11,71.06 121.57,71.22 C121.64,71.23 121.64,71.23 121.70,71.23 "/><path d="M122.19,76.01 C122.26,76.19 122.26,76.19 122.34,76.36 C122.36,76.39 122.36,76.39 122.38,76.41 C122.55,76.54 122.55,76.54 122.73,76.66 C122.94,76.74 122.95,76.74 123.16,76.81 C123.43,76.85 123.43,76.85 123.69,76.87 C123.97,76.86 123.97,76.86 124.25,76.84 C124.51,76.78 124.51,76.78 124.78,76.71 C125.00,76.61 125.00,76.61 125.22,76.50 C125.40,76.35 125.40,76.35 125.58,76.20 "/><path d="M126.09,67.59 C125.56,67.30 125.56,67.30 125.02,67.04 C124.61,66.93 124.61,66.94 124.19,66.85 C123.73,66.84 123.73,66.84 123.26,66.83 C122.79,66.90 122.79,66.90 122.32,66.98 C121.90,67.11 121.90,67.11 121.48,67.27 C121.15,67.46 121.15,67.47 120.83,67.68 C120.65,67.81 120.65,67.81 120.48,67.96 C120.24,68.23 120.24,68.23 120.02,68.52 C119.88,68.75 119.88,68.75 119.76,68.98 "/><path d="M120.00,70.38 L120.02,70.43 "/><path d="M121.70,71.23 L122.08,74.95 L122.10,74.99 L122.19,76.01 "/><path d="M125.58,76.20 L125.76,75.84 L125.76,75.78 L125.66,74.60 L125.63,74.54 L125.26,70.87 L125.93,70.55 L126.59,69.99 L126.90,69.37 L126.96,69.14 L126.88,68.51 L126.09,67.59 "/><path d="M119.76,68.98 L119.64,69.62 L120.00,70.38 "/></g></g><g id="Actor_.4"><g style="stroke:#000000;stroke-width:0.176"><path d="M163.45,89.81 C163.85,90.02 163.86,90.02 164.28,90.21 C164.81,90.32 164.81,90.32 165.35,90.42 C165.95,90.43 165.95,90.43 166.55,90.42 C167.14,90.33 167.15,90.33 167.74,90.22 C168.27,90.04 168.27,90.04 168.79,89.83 C169.20,89.58 169.20,89.58 169.60,89.30 "/><path d="M164.26,87.06 C164.45,86.87 164.46,86.87 164.66,86.70 C164.95,86.54 164.96,86.54 165.25,86.41 C165.61,86.31 165.61,86.31 165.96,86.22 C166.34,86.18 166.34,86.18 166.72,86.16 C167.08,86.18 167.08,86.18 167.44,86.23 C167.74,86.32 167.75,86.32 168.04,86.42 C168.26,86.56 168.26,86.56 168.47,86.72 "/><path d="M168.32,87.87 C168.07,88.04 168.07,88.04 167.81,88.20 C167.49,88.33 167.49,88.33 167.16,88.44 C166.90,88.49 166.90,88.49 166.64,88.53 C166.52,88.55 166.52,88.55 166.41,88.57 C166.04,88.57 166.04,88.57 165.66,88.56 C165.33,88.50 165.33,88.50 164.99,88.43 C164.73,88.31 164.73,88.31 164.47,88.18 "/><path d="M165.68,95.74 C165.88,95.84 165.88,95.84 166.09,95.93 C166.36,95.99 166.36,95.99 166.64,96.04 C166.91,96.04 166.92,96.04 167.19,96.04 C167.48,96.00 167.48,96.00 167.77,95.94 C168.03,95.85 168.03,95.85 168.29,95.75 C168.49,95.63 168.49,95.63 168.68,95.49 "/><path d="M168.71,94.32 C168.56,94.46 168.56,94.47 168.40,94.60 C168.17,94.72 168.17,94.72 167.94,94.83 C167.66,94.91 167.66,94.91 167.38,94.98 C167.09,95.00 167.09,95.00 166.79,95.02 C166.51,95.00 166.51,95.00 166.23,94.97 C166.17,94.95 166.17,94.95 166.11,94.93 C165.94,94.88 165.93,94.88 165.76,94.82 C165.59,94.71 165.59,94.71 165.43,94.59 "/><path d="M168.57,94.43 C168.38,94.56 168.38,94.56 168.18,94.69 C167.92,94.79 167.92,94.79 167.66,94.87 C167.38,94.93 167.37,94.93 167.08,94.97 C166.79,94.98 166.79,94.98 166.50,94.97 C166.24,94.92 166.24,94.92 165.98,94.87 C165.77,94.78 165.77,94.77 165.57,94.67 "/><path d="M164.90,90.51 C165.15,90.56 165.15,90.56 165.40,90.61 C165.99,90.62 165.99,90.62 166.57,90.61 C167.15,90.52 167.15,90.52 167.73,90.41 C168.10,90.29 168.10,90.29 168.47,90.14 "/><path d="M165.36,87.78 C165.50,87.86 165.50,87.86 165.65,87.93 C165.82,87.97 165.82,87.96 166.00,88.00 C166.20,88.00 166.20,88.00 166.39,88.00 C166.59,87.97 166.59,87.97 166.79,87.93 C166.96,87.87 166.96,87.87 167.13,87.81 C167.27,87.72 167.27,87.72 167.40,87.63 "/><path d="M167.47,87.03 C167.37,86.95 167.36,86.94 167.25,86.87 C167.10,86.82 167.09,86.82 166.93,86.77 C166.75,86.75 166.75,86.75 166.56,86.73 C166.36,86.75 166.36,86.75 166.16,86.77 C165.97,86.81 165.97,86.81 165.79,86.86 C165.63,86.94 165.63,86.94 165.48,87.02 C165.37,87.11 165.37,87.11 165.26,87.21 "/><path d="M167.44,87.34 C167.41,87.30 167.41,87.30 167.38,87.26 C167.34,87.22 167.34,87.22 167.29,87.18 C167.17,87.12 167.17,87.12 167.05,87.07 C166.89,87.03 166.89,87.03 166.73,87.00 C166.56,87.00 166.56,87.00 166.38,87.00 C166.20,87.03 166.20,87.03 166.03,87.06 C165.87,87.11 165.87,87.12 165.72,87.17 C165.65,87.22 165.65,87.22 165.58,87.27 C165.53,87.30 165.53,87.30 165.48,87.33 "/><path d="M162.94,89.27 L163.45,89.81 "/><path d="M169.60,89.30 L170.07,88.69 "/><path d="M164.16,87.85 L164.08,87.46 L164.26,87.06 "/><path d="M168.47,86.72 L168.66,87.08 L168.61,87.48 L168.32,87.87 "/><path d="M164.47,88.18 L164.16,87.85 "/><path d="M165.43,95.48 L165.68,95.74 "/><path d="M168.68,95.49 L168.90,95.20 L168.95,94.88 "/><path d="M168.85,94.01 L168.71,94.32 "/><path d="M165.43,94.59 L165.28,94.30 "/><path d="M165.32,94.38 L165.29,94.21 "/><path d="M168.79,94.13 L168.57,94.43 "/><path d="M165.57,94.67 L165.35,94.43 "/><path d="M165.30,87.72 L165.34,87.51 L165.32,87.70 L165.36,87.78 "/><path d="M167.40,87.63 L167.55,87.43 L167.58,87.22 L167.47,87.03 "/><path d="M165.26,87.21 L165.18,87.41 L165.21,87.62 L165.36,87.78 "/><path d="M167.48,87.52 L167.44,87.34 "/><path d="M165.48,87.33 L165.34,87.51 "/><path d="M167.51,87.49 L167.44,87.34 "/><path d="M168.80,94.12 L168.83,93.90 "/></g><g style="stroke:#000000;stroke-width:0.529"><path d="M163.35,87.57 C163.65,87.30 163.65,87.30 163.94,87.04 C164.10,86.91 164.10,86.91 164.26,86.79 C164.62,86.60 164.62,86.60 164.99,86.42 C165.44,86.30 165.44,86.30 165.89,86.19 C166.36,86.14 166.36,86.14 166.83,86.11 C167.28,86.14 167.29,86.14 167.74,86.20 C168.12,86.31 168.12,86.31 168.49,86.44 C168.68,86.53 168.69,86.53 168.87,86.63 C169.19,86.85 169.19,86.84 169.49,87.06 C169.67,87.26 169.67,87.26 169.84,87.46 C170.00,87.75 170.00,87.75 170.15,88.05 "/><path d="M168.47,90.14 C168.65,91.98 168.65,91.98 168.84,93.81 C168.84,93.86 168.83,93.86 168.83,93.90 C168.89,94.39 168.90,94.39 168.95,94.88 C168.93,95.06 168.93,95.07 168.90,95.25 "/><path d="M168.65,95.60 C168.45,95.74 168.45,95.75 168.24,95.88 C168.00,95.97 168.00,95.97 167.76,96.06 C167.48,96.11 167.48,96.11 167.21,96.15 C166.93,96.15 166.93,96.15 166.66,96.15 C166.41,96.10 166.41,96.10 166.16,96.05 C165.97,95.96 165.97,95.96 165.78,95.87 C165.75,95.85 165.75,95.85 165.73,95.84 "/><path d="M165.73,95.84 C165.61,95.72 165.61,95.71 165.49,95.59 C165.46,95.53 165.46,95.53 165.43,95.48 C165.40,95.33 165.40,95.33 165.38,95.17 "/><path d="M163.23,89.68 L163.06,89.49 L162.94,89.27 L162.82,88.65 L163.10,88.01 L163.35,87.57 "/><path d="M170.15,88.05 L170.07,88.69 L170.00,88.92 L169.55,89.52 L168.76,90.04 L168.47,90.14 "/><path d="M168.90,95.25 L168.65,95.60 "/><path d="M165.38,95.17 L164.90,90.51 L164.36,90.40 L163.55,90.01 L163.23,89.68 "/></g></g><g id="Actor_.5"><g style="stroke:#000000;stroke-width:0.176"><path d="M161.75,85.36 C161.44,85.66 161.44,85.66 161.11,85.94 C160.65,86.18 160.65,86.18 160.17,86.41 C159.61,86.57 159.61,86.57 159.04,86.71 C158.43,86.77 158.43,86.77 157.83,86.81 C157.25,86.77 157.25,86.77 156.67,86.71 C156.55,86.67 156.55,86.67 156.44,86.63 C156.07,86.52 156.06,86.53 155.70,86.40 C155.36,86.18 155.35,86.17 155.02,85.93 "/><path d="M156.16,84.40 C156.36,84.55 156.37,84.55 156.58,84.69 C156.88,84.79 156.88,84.79 157.19,84.88 C157.55,84.92 157.55,84.92 157.91,84.95 C158.29,84.92 158.29,84.92 158.67,84.88 C159.02,84.80 159.02,84.80 159.38,84.70 C159.61,84.59 159.61,84.58 159.84,84.47 C159.90,84.43 159.90,84.44 159.96,84.40 C160.16,84.22 160.17,84.22 160.36,84.04 "/><path d="M160.14,82.92 C159.88,82.79 159.88,82.79 159.61,82.67 C159.28,82.60 159.28,82.60 158.94,82.54 C158.57,82.53 158.56,82.53 158.19,82.54 C157.82,82.60 157.82,82.60 157.45,82.67 C157.18,82.76 157.18,82.77 156.92,82.86 C156.85,82.89 156.85,82.89 156.79,82.91 C156.54,83.08 156.54,83.08 156.29,83.25 "/><path d="M157.40,91.99 C157.56,92.11 157.57,92.11 157.74,92.22 C157.97,92.30 157.97,92.30 158.21,92.37 C158.49,92.40 158.49,92.40 158.77,92.42 C159.07,92.40 159.07,92.40 159.36,92.37 C159.64,92.30 159.64,92.30 159.91,92.22 C160.15,92.11 160.15,92.11 160.37,91.99 C160.53,91.85 160.53,91.85 160.68,91.71 "/><path d="M157.44,91.08 C157.65,91.18 157.65,91.18 157.85,91.27 C158.11,91.33 158.12,91.33 158.38,91.38 C158.67,91.38 158.67,91.38 158.96,91.38 C159.25,91.33 159.25,91.33 159.54,91.28 C159.80,91.19 159.80,91.19 160.05,91.09 C160.25,90.96 160.25,90.96 160.44,90.83 "/><path d="M160.58,90.64 C160.42,90.79 160.42,90.79 160.26,90.92 C160.04,91.04 160.04,91.04 159.81,91.15 C159.53,91.23 159.53,91.23 159.25,91.30 C158.96,91.33 158.96,91.33 158.66,91.35 C158.38,91.33 158.38,91.33 158.10,91.30 C157.86,91.23 157.86,91.23 157.63,91.15 C157.46,91.04 157.46,91.04 157.29,90.92 "/><path d="M160.15,86.61 C159.60,86.76 159.60,86.76 159.04,86.90 C158.46,86.96 158.45,86.96 157.86,87.00 C157.31,86.96 157.31,86.96 156.76,86.90 "/><path d="M159.32,83.92 C159.24,84.01 159.24,84.01 159.14,84.09 C158.99,84.17 158.99,84.17 158.84,84.24 C158.65,84.29 158.65,84.29 158.46,84.34 C158.27,84.36 158.26,84.36 158.07,84.37 C157.88,84.36 157.88,84.36 157.69,84.34 C157.53,84.29 157.53,84.29 157.37,84.24 C157.26,84.16 157.25,84.16 157.15,84.08 "/><path d="M157.22,83.48 C157.34,83.39 157.35,83.39 157.48,83.30 C157.65,83.24 157.65,83.24 157.82,83.17 C158.02,83.14 158.02,83.14 158.21,83.11 C158.41,83.10 158.41,83.10 158.61,83.11 C158.78,83.14 158.79,83.14 158.96,83.18 C159.10,83.24 159.10,83.24 159.24,83.31 "/><path d="M157.26,83.80 C157.34,83.71 157.35,83.71 157.44,83.63 C157.58,83.55 157.58,83.55 157.72,83.48 C157.89,83.43 157.89,83.43 158.06,83.39 C158.24,83.37 158.24,83.37 158.42,83.36 C158.59,83.37 158.59,83.37 158.75,83.39 C158.90,83.43 158.90,83.43 159.04,83.48 C159.14,83.55 159.14,83.55 159.24,83.62 "/><path d="M162.02,84.72 L161.75,85.36 "/><path d="M155.02,85.93 L154.70,85.34 "/><path d="M155.95,84.03 L156.16,84.40 "/><path d="M160.36,84.04 L160.53,83.64 L160.45,83.25 L160.14,82.92 "/><path d="M156.29,83.25 L156.00,83.63 L155.95,84.03 "/><path d="M157.25,91.70 L157.40,91.99 "/><path d="M160.68,91.71 L160.82,91.40 "/><path d="M160.44,90.83 L160.67,90.52 L160.69,90.38 L160.58,90.64 "/><path d="M157.29,90.92 L157.17,90.69 L157.19,90.81 L157.44,91.08 "/><path d="M157.17,90.69 L157.15,90.65 "/><path d="M160.32,86.52 L160.15,86.61 "/><path d="M157.15,84.08 L157.04,83.89 L157.06,83.68 L157.22,83.48 "/><path d="M159.24,83.31 L159.40,83.48 L159.44,83.69 L159.35,83.89 L159.32,83.92 L159.34,83.79 L159.30,83.70 L159.37,83.86 "/><path d="M157.21,84.13 L157.18,83.98 L157.16,84.09 "/><path d="M157.18,83.98 L157.26,83.80 "/><path d="M159.24,83.62 L159.30,83.70 "/><path d="M160.69,90.38 L160.71,90.33 L160.71,90.21 "/><path d="M160.70,90.26 L160.69,90.18 "/></g><g style="stroke:#000000;stroke-width:0.529"><path d="M156.76,86.90 C157.00,89.30 157.00,89.30 157.25,91.70 C157.25,91.73 157.25,91.73 157.26,91.76 C157.36,91.93 157.36,91.93 157.46,92.09 "/><path d="M157.46,92.09 C157.64,92.22 157.64,92.22 157.82,92.34 C158.04,92.41 158.05,92.41 158.27,92.48 C158.54,92.51 158.54,92.51 158.80,92.53 C159.08,92.51 159.08,92.51 159.36,92.48 C159.62,92.41 159.62,92.41 159.88,92.34 C160.12,92.22 160.12,92.22 160.35,92.10 C160.50,91.96 160.51,91.96 160.65,91.82 "/><path d="M161.07,83.19 C160.54,82.91 160.53,82.91 159.99,82.66 C159.57,82.57 159.57,82.57 159.14,82.50 C158.68,82.49 158.67,82.49 158.21,82.50 C157.74,82.57 157.74,82.57 157.27,82.66 C156.86,82.80 156.86,82.80 156.45,82.96 C156.13,83.16 156.13,83.17 155.82,83.38 C155.64,83.52 155.64,83.52 155.46,83.67 C155.25,83.95 155.25,83.95 155.04,84.23 C154.90,84.47 154.90,84.47 154.77,84.71 "/><path d="M154.82,85.57 L155.13,86.14 L155.79,86.60 L156.76,86.90 "/><path d="M160.65,91.82 L160.81,91.46 L160.82,91.40 L160.32,86.52 L161.07,86.15 L161.69,85.58 L161.96,84.96 L162.02,84.72 L161.90,84.10 L161.54,83.68 L161.07,83.19 "/><path d="M154.77,84.71 L154.70,85.34 L154.82,85.57 "/></g></g><g id="Actor_.6"><g style="stroke:#000000;stroke-width:0.176"><path d="M179.61,132.99 C180.14,133.23 180.14,133.23 180.68,133.45 C181.18,133.56 181.18,133.56 181.69,133.65 C182.23,133.65 182.24,133.65 182.78,133.62 C183.29,133.51 183.29,133.51 183.80,133.38 C184.26,133.15 184.27,133.15 184.72,132.90 "/><path d="M118.06,98.32 L117.75,98.40 "/><path d="M117.08,98.74 L117.49,98.50 "/><path d="M119.31,98.25 L118.97,98.23 "/><path d="M118.36,98.26 L118.68,98.23 "/><path d="M119.58,98.30 L119.82,98.38 "/><path d="M125.62,102.14 L125.21,102.37 "/><path d="M125.83,102.05 L126.19,101.95 "/><path d="M126.50,101.89 L126.81,101.86 "/><path d="M127.11,101.86 L127.45,101.89 "/><path d="M127.71,101.94 L127.95,102.01 "/><path d="M161.25,117.60 L160.94,117.69 "/><path d="M160.68,117.79 L160.27,118.02 "/><path d="M161.54,117.55 L161.87,117.52 "/><path d="M162.77,117.59 L163.01,117.66 "/><path d="M162.10,117.51 L162.50,117.54 "/><path d="M167.37,146.99 L167.17,147.40 L166.88,147.57 L166.42,147.58 L165.96,147.38 L165.12,146.51 L164.66,145.36 L164.64,144.83 L164.77,144.40 L165.01,144.16 L165.65,144.12 "/><path d="M169.55,147.43 L168.58,148.01 L168.24,148.70 L167.60,149.13 "/><path d="M168.57,148.55 L168.55,148.55 "/><path d="M168.58,148.01 L169.94,142.25 L170.44,141.59 L170.97,141.56 "/><path d="M168.82,121.42 L168.40,121.66 "/><path d="M169.94,142.25 L170.91,141.67 "/><path d="M169.39,121.24 L169.08,121.32 "/><path d="M181.11,132.65 L180.14,133.23 L179.70,142.50 "/><path d="M184.72,132.90 L183.74,132.27 "/><path d="M184.35,140.85 L185.10,124.96 L184.12,124.33 "/><path d="M185.10,124.96 L185.21,124.35 L185.84,123.10 L186.81,122.18 L185.83,121.55 "/><path d="M186.81,122.18 L191.02,119.66 L191.96,119.43 L192.30,119.62 "/><path d="M189.12,122.53 L189.66,122.47 L189.94,122.66 L190.10,123.01 L189.98,124.03 L189.72,124.60 L188.92,125.53 L188.47,125.80 L188.05,125.89 L187.71,125.80 L187.41,125.18 "/><path d="M191.02,119.66 L190.04,119.02 "/></g><g style="stroke:#000000;stroke-width:0.529"><path d="M180.58,132.41 C180.95,132.58 180.95,132.58 181.33,132.72 C181.66,132.78 181.67,132.77 182.00,132.81 C182.25,132.80 182.25,132.80 182.51,132.78 C182.83,132.70 182.84,132.70 183.16,132.61 C183.45,132.45 183.45,132.45 183.74,132.27 "/><path d="M183.74,132.27 C183.92,128.30 183.92,128.30 184.12,124.33 C184.16,124.03 184.16,124.03 184.22,123.73 C184.34,123.40 184.35,123.40 184.48,123.08 C184.66,122.77 184.66,122.77 184.86,122.47 C185.08,122.20 185.08,122.20 185.32,121.94 C185.64,121.69 185.65,121.69 185.98,121.46 C188.01,120.24 188.01,120.24 190.04,119.02 C190.29,118.91 190.29,118.91 190.54,118.81 "/><path d="M192.56,120.49 C192.23,127.53 192.23,127.53 191.89,134.58 C191.85,134.88 191.85,134.88 191.79,135.18 C191.67,135.50 191.67,135.50 191.53,135.82 C191.35,136.13 191.35,136.13 191.16,136.44 C190.93,136.70 190.93,136.70 190.69,136.96 C190.44,137.16 190.44,137.16 190.19,137.35 C187.27,139.11 187.26,139.09 184.35,140.85 C184.23,140.95 184.24,140.96 184.12,141.07 C183.60,141.45 183.60,141.46 183.07,141.82 C182.48,142.08 182.48,142.08 181.88,142.31 C181.29,142.43 181.29,142.43 180.70,142.52 C180.20,142.52 180.20,142.50 179.70,142.50 C177.31,142.78 177.31,142.80 174.93,143.08 C174.77,143.08 174.77,143.08 174.61,143.07 "/><path d="M166.79,149.13 C166.33,148.94 166.33,148.94 165.89,148.72 C165.44,148.36 165.43,148.36 165.00,147.98 C164.61,147.48 164.61,147.48 164.24,146.97 C163.95,146.41 163.96,146.40 163.69,145.83 C163.49,145.29 163.49,145.29 163.30,144.74 "/><path d="M166.50,146.43 C166.29,146.18 166.29,146.18 166.09,145.93 C165.94,145.64 165.94,145.64 165.80,145.35 C165.71,145.07 165.70,145.06 165.63,144.77 C165.63,144.45 165.63,144.44 165.65,144.12 "/><path d="M165.65,144.12 C165.74,144.13 165.75,144.14 165.84,144.16 C166.07,144.31 166.08,144.30 166.31,144.46 C166.53,144.67 166.53,144.67 166.74,144.90 C166.92,145.16 166.92,145.17 167.09,145.44 C167.21,145.73 167.21,145.73 167.32,146.02 C167.37,146.30 167.37,146.30 167.41,146.59 C167.40,146.79 167.40,146.79 167.37,146.99 "/><path d="M189.12,122.53 C188.98,122.59 188.98,122.59 188.83,122.65 C188.61,122.82 188.61,122.82 188.39,123.00 C188.18,123.23 188.18,123.24 187.98,123.48 C187.82,123.75 187.82,123.75 187.66,124.02 C187.56,124.30 187.55,124.31 187.46,124.59 C187.43,124.88 187.43,124.89 187.41,125.18 "/><path d="M190.54,118.81 L190.98,118.80 L192.30,119.62 L192.51,119.98 L192.56,120.49 "/><path d="M174.61,143.07 L171.34,141.66 L170.97,141.56 L169.55,147.43 L169.19,148.16 L167.60,149.13 L166.79,149.13 "/><path d="M167.37,146.99 L166.93,146.79 L166.50,146.43 "/><path d="M189.03,123.27 L189.13,122.85 L189.12,122.53 "/><path d="M187.41,125.18 L187.71,125.05 L188.04,124.80 "/><path d="M188.04,124.79 L188.26,124.58 "/><path d="M188.45,124.36 L188.27,124.58 "/><path d="M189.03,123.28 L188.73,123.96 L188.45,124.36 "/></g></g><g id="Actor_.7"><g style="stroke:#000000;stroke-width:0.176"><path d="M204.85,132.56 C204.66,132.60 204.65,132.60 204.46,132.66 C204.25,132.79 204.25,132.79 204.05,132.93 C203.84,133.13 203.84,133.13 203.65,133.33 C203.48,133.58 203.48,133.58 203.32,133.82 C203.20,134.08 203.19,134.09 203.08,134.35 C203.03,134.60 203.02,134.60 202.98,134.86 C202.99,135.07 202.99,135.07 203.01,135.28 "/><path d="M203.83,135.64 C203.85,135.40 203.85,135.40 203.87,135.16 C203.95,134.90 203.95,134.90 204.04,134.64 C204.18,134.38 204.18,134.38 204.33,134.13 C204.51,133.90 204.51,133.90 204.70,133.67 C204.90,133.50 204.90,133.50 205.11,133.33 C205.31,133.23 205.31,133.23 205.52,133.14 "/><path d="M205.74,133.13 C205.55,133.18 205.54,133.18 205.35,133.24 C205.14,133.37 205.14,133.37 204.93,133.51 C204.73,133.70 204.73,133.71 204.54,133.91 C204.37,134.15 204.37,134.15 204.21,134.40 C204.09,134.66 204.08,134.66 203.97,134.93 C203.92,135.18 203.91,135.18 203.87,135.43 C203.88,135.64 203.88,135.65 203.90,135.86 "/><path d="M207.22,140.02 C207.18,139.59 207.18,139.58 207.16,139.14 C207.26,138.63 207.26,138.62 207.38,138.11 C207.60,137.57 207.61,137.56 207.85,137.03 C208.18,136.52 208.19,136.52 208.53,136.03 C208.93,135.61 208.93,135.60 209.35,135.20 C209.77,134.92 209.77,134.91 210.20,134.65 C210.60,134.53 210.60,134.53 211.01,134.43 "/><path d="M209.13,135.17 C208.74,135.55 208.74,135.55 208.37,135.94 C208.03,136.42 208.03,136.43 207.70,136.92 C207.46,137.44 207.47,137.45 207.24,137.97 C207.21,138.08 207.21,138.08 207.20,138.19 "/><path d="M209.12,139.77 C209.09,139.50 209.09,139.49 209.08,139.22 C209.14,138.90 209.14,138.89 209.22,138.57 C209.36,138.23 209.36,138.23 209.51,137.90 C209.72,137.58 209.72,137.58 209.94,137.27 C210.19,137.01 210.19,137.01 210.45,136.75 C210.71,136.58 210.71,136.57 210.98,136.41 C211.23,136.33 211.23,136.33 211.48,136.27 "/><path d="M212.32,137.13 C212.30,137.43 212.30,137.44 212.27,137.74 C212.16,138.08 212.16,138.08 212.05,138.41 C211.87,138.74 211.87,138.74 211.68,139.07 C211.45,139.36 211.45,139.36 211.21,139.65 C211.03,139.80 211.03,139.80 210.85,139.95 C210.76,140.01 210.77,140.02 210.68,140.08 C210.42,140.21 210.42,140.21 210.15,140.33 "/><path d="M210.41,139.37 C210.55,139.31 210.55,139.31 210.69,139.25 C210.83,139.14 210.83,139.13 210.96,139.02 C211.09,138.87 211.09,138.87 211.21,138.71 C211.31,138.54 211.31,138.54 211.41,138.37 C211.47,138.19 211.47,138.19 211.52,138.02 C211.54,137.86 211.54,137.86 211.55,137.70 "/><path d="M211.11,137.25 C210.98,137.28 210.98,137.28 210.85,137.32 C210.82,137.33 210.82,137.33 210.79,137.35 C210.68,137.43 210.68,137.42 210.56,137.50 C210.43,137.63 210.43,137.63 210.30,137.77 C210.18,137.93 210.18,137.93 210.07,138.10 C210.00,138.27 210.00,138.27 209.92,138.44 C209.88,138.62 209.88,138.62 209.85,138.79 C209.85,138.94 209.85,138.94 209.87,139.08 "/><path d="M210.16,139.18 C210.28,139.15 210.28,139.15 210.40,139.12 C210.46,139.08 210.46,139.08 210.52,139.04 C210.58,139.00 210.58,139.00 210.65,138.95 C210.77,138.83 210.77,138.83 210.89,138.71 C210.99,138.57 210.99,138.56 211.09,138.42 C211.16,138.26 211.16,138.26 211.23,138.10 C211.27,137.95 211.27,137.94 211.29,137.79 C211.29,137.66 211.29,137.66 211.28,137.53 "/><path d="M205.18,132.62 L204.85,132.56 "/><path d="M203.01,135.28 L203.17,135.59 "/><path d="M203.99,136.07 L203.93,136.01 L203.83,135.64 "/><path d="M205.52,133.14 L205.88,133.12 L206.00,133.18 L205.74,133.13 "/><path d="M203.90,135.86 L204.04,136.12 L203.99,136.07 "/><path d="M204.04,136.12 L204.06,136.17 L204.16,136.24 "/><path d="M204.12,136.20 L204.19,136.25 "/><path d="M206.00,133.18 L206.04,133.19 "/><path d="M207.56,140.65 L207.22,140.02 "/><path d="M209.69,140.36 L209.33,140.16 L209.12,139.77 "/><path d="M211.48,136.27 L211.90,136.36 L212.19,136.65 L212.32,137.13 "/><path d="M210.15,140.33 L209.69,140.36 "/><path d="M210.46,140.39 L210.45,140.39 "/><path d="M210.17,139.39 L210.41,139.37 "/><path d="M211.55,137.70 L211.48,137.45 L211.33,137.29 L211.11,137.25 "/><path d="M209.87,139.08 L209.97,139.27 L210.17,139.39 "/><path d="M209.86,139.04 L209.96,139.14 L209.89,139.12 "/><path d="M209.96,139.14 L210.16,139.18 "/><path d="M211.28,137.53 L211.18,137.35 L211.03,137.27 "/><path d="M211.18,137.35 L211.10,137.25 "/></g><g style="stroke:#000000;stroke-width:0.529"><path d="M210.46,140.39 C210.79,140.13 210.80,140.12 211.12,139.84 C211.42,139.49 211.42,139.49 211.71,139.12 C211.95,138.71 211.95,138.71 212.17,138.29 C212.32,137.88 212.32,137.87 212.45,137.45 C212.49,137.07 212.48,137.07 212.51,136.69 C212.52,136.46 212.52,136.46 212.52,136.24 C212.43,135.89 212.43,135.89 212.33,135.54 C212.24,135.29 212.24,135.29 212.14,135.04 "/><path d="M204.74,132.54 C204.55,132.58 204.54,132.58 204.36,132.64 C204.14,132.77 204.13,132.77 203.92,132.91 C203.73,133.10 203.73,133.10 203.55,133.29 C203.38,133.52 203.38,133.52 203.23,133.76 C203.12,134.00 203.12,134.00 203.01,134.25 C202.96,134.49 202.96,134.49 202.91,134.73 C202.92,134.96 202.92,134.96 202.94,135.19 "/><path d="M212.14,135.04 L211.68,134.57 L210.78,134.39 L209.99,134.60 L209.13,135.17 L205.18,132.62 L204.74,132.54 "/><path d="M202.94,135.19 L202.96,135.24 L203.13,135.55 L203.17,135.59 L207.20,138.19 L207.03,138.98 L207.09,139.84 L207.41,140.45 L207.56,140.65 L208.13,140.96 L209.36,140.90 L210.45,140.39 "/></g></g><g id="paperID" visibility="hidden" opacity="0.00" transform="scale(0.000100)"><path style="stroke:#000000;stroke-width:0.500;fill:#e6e6e6;fill-rule:evenodd" d="M-2000.00,-2000.00L2297.00,-2000.00L2297.00,2210.00L-2000.00,2210.00zM0.00,0.00L297.00,0.00L297.00,210.00L0.00,210.00z"/><path style="fill:#000000;fill-opacity:0.118" d="M3.00,210.00L297.00,210.00L297.00,3.00L300.00,3.00L300.00,213.00L3.00,213.00z"/></g><g id="ToolTip" visibility="hidden" opacity="0" transform="translate(0,0)"><rect id="ToolTipShadow" opacity="0.20" fill="black" stroke="none" x="0" y="0" width="30" height="8"/><rect id="ToolTipBG" fill="#ffffe1" stroke="black" x="0" y="0" width="30" height="8"/><text xml:space="preserve" id="ToolTipText" fill="black" x="0" y="0" width="30" height="8">tooltip</text></g></g></svg>
